<?xml version="1.0" encoding="utf-8"?>
<!-- Generator: Adobe Illustrator 16.0.0, SVG Export Plug-In . SVG Version: 6.00 Build 0)  -->
<!DOCTYPE svg PUBLIC "-//W3C//DTD SVG 1.1//EN" "http://www.w3.org/Graphics/SVG/1.1/DTD/svg11.dtd">
<svg version="1.1" id="Layer_1" xmlns="http://www.w3.org/2000/svg" xmlns:xlink="http://www.w3.org/1999/xlink" x="0px" y="0px"
	 width="181px" height="111.535px" viewBox="0 0 181 111.535" enable-background="new 0 0 181 111.535" xml:space="preserve">
<g>
	<g>
		<path fill="#FFFFFF" d="M10.136,102.155c0.333,0.279,0.49,0.557,0.471,0.832c-0.02,0.275-0.162,0.431-0.428,0.466
			c-0.266,0.036-0.49-0.073-0.673-0.326c-0.183-0.254-0.548-0.377-1.096-0.37c-0.548,0.006-1.027,0.261-1.438,0.764
			c-0.411,0.504-0.607,1.146-0.591,1.929c0.016,0.782,0.174,1.371,0.476,1.769s0.763,0.637,1.385,0.717s1.116-0.107,1.481-0.563
			s0.678-0.587,0.938-0.395s0.304,0.447,0.135,0.765c-0.17,0.317-0.441,0.607-0.813,0.87c-0.372,0.263-0.909,0.402-1.611,0.418
			c-0.702,0.017-1.326-0.181-1.87-0.591c-0.545-0.41-0.907-0.963-1.087-1.659c-0.179-0.695-0.207-1.415-0.082-2.158
			c0.125-0.744,0.42-1.367,0.885-1.87c0.464-0.504,0.939-0.812,1.423-0.924c0.484-0.111,0.938-0.155,1.361-0.13
			C9.424,101.725,9.803,101.877,10.136,102.155z"/>
		<path fill="#FFFFFF" d="M15.55,103.857c0.372,0.003,0.545,0.114,0.519,0.332v4.452c-0.006,0.237-0.171,0.356-0.495,0.36
			c-0.324,0.003-0.485-0.12-0.485-0.37v-0.481c-0.487,0.616-1.047,0.893-1.678,0.832s-1.128-0.346-1.49-0.855
			c-0.362-0.51-0.511-1.107-0.447-1.794c0.064-0.686,0.277-1.226,0.64-1.62c0.362-0.394,0.723-0.636,1.082-0.726
			s0.705-0.104,1.039-0.043c0.333,0.061,0.603,0.238,0.808,0.533v-0.278C15.008,103.968,15.178,103.854,15.55,103.857z
			 M14.367,104.958c-0.27-0.121-0.587-0.131-0.952-0.028s-0.646,0.395-0.841,0.875c-0.196,0.48-0.202,0.957-0.019,1.428
			c0.183,0.472,0.583,0.7,1.202,0.688s1.053-0.35,1.303-1.01v-1.346C14.867,105.282,14.636,105.08,14.367,104.958z"/>
		<path fill="#FFFFFF" d="M18.3,104.228v0.423c0.41-0.538,0.857-0.811,1.341-0.817c0.484-0.006,0.83,0.095,1.039,0.304
			c0.208,0.208,0.294,0.415,0.259,0.62s-0.128,0.333-0.279,0.385c-0.15,0.051-0.285,0.014-0.404-0.111s-0.316-0.211-0.591-0.26
			c-0.276-0.048-0.574,0.02-0.894,0.202c-0.321,0.183-0.471,0.544-0.452,1.082v2.567c-0.006,0.257-0.183,0.386-0.529,0.39
			c-0.346,0.003-0.526-0.127-0.539-0.39v-4.395c-0.006-0.237,0.167-0.355,0.52-0.355C18.123,103.872,18.3,103.99,18.3,104.228z"/>
		<path fill="#FFFFFF" d="M21.607,102.391c0-0.173,0.065-0.328,0.197-0.466s0.287-0.207,0.467-0.207
			c0.173,0,0.318,0.063,0.438,0.188c0.118,0.125,0.178,0.287,0.178,0.485c0,0.199-0.063,0.362-0.188,0.491
			c-0.125,0.128-0.274,0.192-0.447,0.192c-0.18,0-0.332-0.069-0.457-0.207S21.607,102.57,21.607,102.391z M22.256,103.867
			c-0.362,0.003-0.54,0.117-0.534,0.341v4.414c-0.013,0.257,0.17,0.383,0.548,0.38c0.378-0.004,0.548-0.13,0.509-0.38v-4.414
			C22.793,103.978,22.619,103.864,22.256,103.867z"/>
		<path fill="#FFFFFF" d="M25.174,104.285v0.462c0.289-0.302,0.654-0.545,1.096-0.731c0.442-0.186,0.931-0.209,1.467-0.071
			c0.535,0.138,0.793,0.684,0.774,1.639v3.029c-0.013,0.25-0.186,0.373-0.52,0.37c-0.333-0.003-0.503-0.123-0.509-0.36v-2.567
			c0.089-0.82-0.175-1.229-0.793-1.227c-0.619,0.004-1.117,0.229-1.495,0.679v3.125c-0.006,0.237-0.185,0.357-0.534,0.36
			c-0.35,0.003-0.531-0.12-0.543-0.37v-4.317c-0.006-0.289,0.168-0.433,0.524-0.433C24.997,103.872,25.174,104.01,25.174,104.285z"
			/>
		<path fill="#FFFFFF" d="M32.935,104.266c-0.006-0.263,0.176-0.394,0.548-0.394c0.372,0,0.561,0.122,0.567,0.365v4.702
			c0,0.858-0.292,1.465-0.875,1.817c-0.583,0.353-1.215,0.471-1.894,0.355c-0.68-0.115-1.143-0.338-1.39-0.668
			c-0.247-0.33-0.244-0.592,0.01-0.784c0.253-0.192,0.466-0.18,0.64,0.039c0.173,0.218,0.476,0.375,0.909,0.471
			c0.433,0.097,0.822,0.03,1.168-0.197s0.487-0.745,0.423-1.553c-0.18,0.263-0.524,0.442-1.034,0.539
			c-0.51,0.096-0.999,0.008-1.466-0.265c-0.468-0.272-0.791-0.729-0.967-1.37c-0.176-0.642-0.143-1.327,0.101-2.058
			c0.244-0.731,0.729-1.182,1.457-1.352C31.859,103.745,32.46,103.862,32.935,104.266z M31.449,104.833
			c-0.581,0.129-0.893,0.571-0.938,1.327c-0.045,0.757,0.135,1.295,0.539,1.615c0.404,0.321,1.048,0.292,1.933-0.086v-2.395
			C32.541,104.859,32.029,104.705,31.449,104.833z"/>
		<path fill="#FFFFFF" d="M40.583,101.708c0.605,0.09,0.904,0.281,0.894,0.572c-0.01,0.292-0.114,0.467-0.313,0.524
			s-0.383,0.033-0.553-0.072c-0.17-0.105-0.411-0.085-0.721,0.063c-0.311,0.147-0.357,0.635-0.14,1.462h0.712
			c0.301,0,0.447,0.161,0.438,0.485c-0.01,0.323-0.159,0.485-0.447,0.485h-0.625v3.375c0.006,0.27-0.162,0.405-0.505,0.409
			c-0.343,0.003-0.518-0.137-0.524-0.419v-3.355h-0.395c-0.25,0-0.374-0.163-0.37-0.49s0.114-0.494,0.332-0.5h0.366
			c-0.192-0.955-0.083-1.64,0.327-2.053C39.469,101.78,39.978,101.618,40.583,101.708z"/>
		<path fill="#FFFFFF" d="M44.213,103.771c0.372,0.01,0.72,0.094,1.043,0.25c0.324,0.157,0.624,0.437,0.899,0.837
			c0.276,0.4,0.41,0.955,0.404,1.663c-0.007,0.709-0.182,1.265-0.524,1.669c-0.343,0.403-0.673,0.658-0.99,0.765
			c-0.317,0.105-0.627,0.158-0.928,0.158c-0.302,0-0.63-0.05-0.986-0.149c-0.356-0.099-0.694-0.352-1.015-0.759
			c-0.32-0.407-0.487-0.959-0.5-1.654c-0.013-0.695,0.149-1.271,0.486-1.726s0.679-0.747,1.029-0.875
			C43.481,103.82,43.842,103.762,44.213,103.771z M43.079,105.228c-0.282,0.295-0.418,0.707-0.409,1.235
			c0.009,0.529,0.154,0.93,0.433,1.202s0.609,0.405,0.99,0.399c0.381-0.007,0.716-0.14,1.005-0.399s0.43-0.67,0.423-1.23
			c-0.007-0.561-0.157-0.98-0.452-1.26s-0.63-0.413-1.005-0.404C43.689,104.78,43.361,104.933,43.079,105.228z"/>
		<path fill="#FFFFFF" d="M48.588,104.228v0.423c0.41-0.538,0.857-0.811,1.341-0.817c0.484-0.006,0.83,0.095,1.039,0.304
			c0.208,0.208,0.294,0.415,0.259,0.62s-0.128,0.333-0.279,0.385c-0.15,0.051-0.285,0.014-0.404-0.111s-0.316-0.211-0.591-0.26
			c-0.276-0.048-0.574,0.02-0.894,0.202c-0.321,0.183-0.471,0.544-0.452,1.082v2.567c-0.006,0.257-0.183,0.386-0.529,0.39
			c-0.346,0.003-0.526-0.127-0.539-0.39v-4.395c-0.006-0.237,0.167-0.355,0.52-0.355C48.412,103.872,48.588,103.99,48.588,104.228z"
			/>
		<path fill="#FFFFFF" d="M58.194,101.689c0.948,0,1.751,0.357,2.409,1.072c0.657,0.715,0.985,1.581,0.985,2.601
			c0,1.013-0.332,1.877-0.995,2.592s-1.463,1.071-2.399,1.071c-0.93,0-1.726-0.356-2.39-1.071s-0.995-1.579-0.995-2.592
			c0-1.02,0.328-1.886,0.985-2.601S57.252,101.689,58.194,101.689z M58.194,102.718c-0.641,0-1.188,0.255-1.64,0.765
			c-0.452,0.51-0.678,1.127-0.678,1.851c0,0.725,0.226,1.342,0.678,1.852c0.452,0.51,0.999,0.765,1.64,0.765
			c0.647,0,1.197-0.255,1.649-0.765c0.452-0.51,0.678-1.127,0.678-1.852c0-0.724-0.226-1.341-0.678-1.851
			C59.391,102.973,58.841,102.718,58.194,102.718z"/>
		<path fill="#FFFFFF" d="M65.925,108.642v-0.625c-0.436,0.801-1.075,1.113-1.918,0.938c-0.843-0.177-1.3-0.752-1.371-1.727v-3.01
			c0.02-0.23,0.204-0.345,0.553-0.341c0.349,0.003,0.527,0.12,0.534,0.351v2.529c-0.039,0.743,0.195,1.15,0.702,1.221
			c0.506,0.071,1-0.263,1.481-1v-2.77c0.006-0.224,0.183-0.336,0.529-0.336s0.525,0.122,0.539,0.365v4.395
			c0.006,0.25-0.167,0.375-0.52,0.375S65.925,108.885,65.925,108.642z"/>
		<path fill="#FFFFFF" d="M69.358,104.228v0.423c0.41-0.538,0.857-0.811,1.341-0.817c0.484-0.006,0.83,0.095,1.039,0.304
			c0.208,0.208,0.294,0.415,0.259,0.62s-0.128,0.333-0.279,0.385c-0.15,0.051-0.285,0.014-0.404-0.111s-0.316-0.211-0.591-0.26
			c-0.276-0.048-0.574,0.02-0.894,0.202c-0.321,0.183-0.471,0.544-0.452,1.082v2.567c-0.006,0.257-0.183,0.386-0.529,0.39
			c-0.346,0.003-0.526-0.127-0.539-0.39v-4.395c-0.006-0.237,0.167-0.355,0.52-0.355C69.181,103.872,69.358,103.99,69.358,104.228z"
			/>
		<path fill="#FFFFFF" d="M80.589,102.155c0.333,0.279,0.49,0.557,0.471,0.832c-0.02,0.275-0.162,0.431-0.428,0.466
			c-0.266,0.036-0.49-0.073-0.673-0.326c-0.183-0.254-0.548-0.377-1.096-0.37c-0.548,0.006-1.027,0.261-1.438,0.764
			c-0.411,0.504-0.607,1.146-0.591,1.929c0.016,0.782,0.174,1.371,0.476,1.769s0.763,0.637,1.385,0.717s1.116-0.107,1.481-0.563
			s0.678-0.587,0.938-0.395s0.304,0.447,0.135,0.765c-0.17,0.317-0.441,0.607-0.813,0.87c-0.372,0.263-0.909,0.402-1.611,0.418
			c-0.702,0.017-1.326-0.181-1.87-0.591c-0.545-0.41-0.907-0.963-1.087-1.659c-0.179-0.695-0.207-1.415-0.082-2.158
			c0.125-0.744,0.42-1.367,0.885-1.87c0.464-0.504,0.939-0.812,1.423-0.924c0.484-0.111,0.938-0.155,1.361-0.13
			C79.877,101.725,80.255,101.877,80.589,102.155z"/>
		<path fill="#FFFFFF" d="M84.637,103.771c0.372,0.01,0.72,0.094,1.043,0.25c0.324,0.157,0.624,0.437,0.899,0.837
			c0.276,0.4,0.41,0.955,0.404,1.663c-0.007,0.709-0.182,1.265-0.524,1.669c-0.343,0.403-0.673,0.658-0.99,0.765
			c-0.317,0.105-0.627,0.158-0.928,0.158c-0.302,0-0.63-0.05-0.986-0.149c-0.356-0.099-0.694-0.352-1.015-0.759
			c-0.32-0.407-0.487-0.959-0.5-1.654c-0.013-0.695,0.149-1.271,0.486-1.726s0.679-0.747,1.029-0.875
			C83.904,103.82,84.265,103.762,84.637,103.771z M83.502,105.228c-0.282,0.295-0.418,0.707-0.409,1.235
			c0.009,0.529,0.154,0.93,0.433,1.202s0.609,0.405,0.99,0.399c0.381-0.007,0.716-0.14,1.005-0.399s0.43-0.67,0.423-1.23
			c-0.007-0.561-0.157-0.98-0.452-1.26s-0.63-0.413-1.005-0.404C84.113,104.78,83.784,104.933,83.502,105.228z"/>
		<path fill="#FFFFFF" d="M89.012,104.266v0.299c0.506-0.397,1.043-0.632,1.61-0.702s0.97,0.189,1.207,0.778
			c0.385-0.346,0.765-0.576,1.14-0.691c0.375-0.116,0.771-0.106,1.188,0.028c0.416,0.135,0.608,0.57,0.576,1.308v3.347
			c-0.051,0.23-0.232,0.346-0.543,0.346s-0.479-0.118-0.505-0.355v-3.212c-0.013-0.788-0.605-0.858-1.779-0.211v3.461
			c-0.006,0.212-0.188,0.317-0.542,0.317c-0.356,0-0.534-0.112-0.534-0.336v-3.192c0-0.795-0.593-0.897-1.779-0.308v3.5
			c-0.013,0.224-0.19,0.336-0.534,0.336c-0.343,0-0.518-0.115-0.524-0.346v-4.347c-0.019-0.27,0.146-0.405,0.495-0.408
			C88.837,103.873,89.012,104.003,89.012,104.266z"/>
		<path fill="#FFFFFF" d="M97.089,104.266v0.299c0.506-0.397,1.043-0.632,1.61-0.702s0.97,0.189,1.207,0.778
			c0.385-0.346,0.765-0.576,1.14-0.691c0.375-0.116,0.771-0.106,1.188,0.028c0.416,0.135,0.608,0.57,0.576,1.308v3.347
			c-0.051,0.23-0.232,0.346-0.543,0.346s-0.479-0.118-0.505-0.355v-3.212c-0.013-0.788-0.605-0.858-1.778-0.211v3.461
			c-0.007,0.212-0.188,0.317-0.544,0.317c-0.355,0-0.533-0.112-0.533-0.336v-3.192c0-0.795-0.593-0.897-1.779-0.308v3.5
			c-0.013,0.224-0.19,0.336-0.533,0.336c-0.344,0-0.518-0.115-0.524-0.346v-4.347c-0.02-0.27,0.146-0.405,0.495-0.408
			C96.915,103.873,97.089,104.003,97.089,104.266z"/>
		<path fill="#FFFFFF" d="M107.397,108.642v-0.625c-0.436,0.801-1.075,1.113-1.918,0.938c-0.843-0.177-1.3-0.752-1.37-1.727v-3.01
			c0.019-0.23,0.203-0.345,0.553-0.341c0.35,0.003,0.527,0.12,0.533,0.351v2.529c-0.038,0.743,0.196,1.15,0.702,1.221
			c0.507,0.071,1-0.263,1.481-1v-2.77c0.006-0.224,0.183-0.336,0.528-0.336c0.347,0,0.525,0.122,0.538,0.365v4.395
			c0.007,0.25-0.166,0.375-0.519,0.375S107.397,108.885,107.397,108.642z"/>
		<path fill="#FFFFFF" d="M110.868,104.285v0.462c0.289-0.302,0.654-0.545,1.097-0.731c0.442-0.186,0.931-0.209,1.466-0.071
			s0.794,0.684,0.774,1.639v3.029c-0.013,0.25-0.187,0.373-0.52,0.37s-0.503-0.123-0.51-0.36v-2.567
			c0.09-0.82-0.175-1.229-0.793-1.227c-0.619,0.004-1.117,0.229-1.495,0.679v3.125c-0.007,0.237-0.185,0.357-0.534,0.36
			c-0.349,0.003-0.53-0.12-0.543-0.37v-4.317c-0.007-0.289,0.168-0.433,0.524-0.433C110.69,103.872,110.868,104.01,110.868,104.285z
			"/>
		<path fill="#FFFFFF" d="M115.445,102.391c0-0.173,0.065-0.328,0.197-0.466c0.131-0.138,0.286-0.207,0.466-0.207
			c0.174,0,0.319,0.063,0.438,0.188c0.119,0.125,0.178,0.287,0.178,0.485c0,0.199-0.063,0.362-0.188,0.491
			c-0.125,0.128-0.273,0.192-0.446,0.192c-0.18,0-0.332-0.069-0.457-0.207S115.445,102.57,115.445,102.391z M116.093,103.867
			c-0.361,0.003-0.54,0.117-0.533,0.341v4.414c-0.013,0.257,0.17,0.383,0.548,0.38c0.379-0.004,0.549-0.13,0.51-0.38v-4.414
			C116.63,103.978,116.456,103.864,116.093,103.867z"/>
		<path fill="#FFFFFF" d="M119.369,102.18v1.923h1.625c0.288-0.006,0.431,0.152,0.428,0.476c-0.004,0.324-0.14,0.486-0.409,0.486
			h-1.683l-0.01,1.615c-0.025,0.718,0.191,1.133,0.649,1.245s0.838-0.05,1.14-0.485c0.173-0.455,0.425-0.604,0.755-0.447
			s0.37,0.485,0.12,0.985c-0.487,0.667-1.044,1.008-1.669,1.024c-0.625,0.016-1.133-0.185-1.523-0.602
			c-0.392-0.416-0.555-1-0.49-1.75v-1.586h-0.395c-0.275,0.006-0.417-0.155-0.423-0.486c-0.007-0.33,0.131-0.488,0.413-0.476h0.433
			v-1.971c-0.013-0.302,0.16-0.449,0.52-0.442C119.208,101.695,119.381,101.859,119.369,102.18z"/>
		<path fill="#FFFFFF" d="M127.561,104.708l-2.76,6.077c-0.142,0.34-0.38,0.433-0.717,0.279c-0.336-0.154-0.402-0.407-0.196-0.76
			l0.836-1.875l-1.895-3.673c-0.211-0.385-0.15-0.652,0.183-0.804c0.334-0.15,0.577-0.039,0.731,0.332l1.538,3.077l1.308-3.067
			c0.142-0.372,0.38-0.492,0.717-0.36C127.643,104.065,127.727,104.324,127.561,104.708z"/>
		<path fill="#FFFFFF" d="M128.973,102.43c-0.205,0-0.378-0.07-0.519-0.212c-0.142-0.141-0.212-0.313-0.212-0.52
			c0-0.205,0.07-0.379,0.212-0.523c0.141-0.145,0.313-0.217,0.519-0.217c0.199,0,0.372,0.072,0.52,0.217s0.239,0.37,0.274,0.678
			s-0.039,0.632-0.222,0.972s-0.438,0.608-0.765,0.808c-0.09,0.038-0.168,0.009-0.235-0.087s-0.05-0.183,0.053-0.26
			C128.938,102.978,129.063,102.692,128.973,102.43z"/>
		<path fill="#FFFFFF" d="M133.719,104.083c0.188,0.154,0.299,0.31,0.331,0.467s-0.003,0.29-0.105,0.399
			c-0.103,0.108-0.213,0.16-0.332,0.153c-0.118-0.006-0.238-0.073-0.36-0.202c-0.122-0.128-0.369-0.219-0.74-0.273
			c-0.372-0.055-0.668-0.008-0.89,0.139c-0.221,0.148-0.287,0.366-0.197,0.654s0.502,0.45,1.235,0.485
			c0.734,0.035,1.242,0.242,1.524,0.62c0.282,0.379,0.345,0.822,0.188,1.332s-0.466,0.857-0.928,1.043
			c-0.462,0.187-0.992,0.231-1.592,0.135c-0.599-0.096-1.063-0.338-1.394-0.726c-0.331-0.388-0.369-0.7-0.116-0.938
			c0.254-0.237,0.537-0.17,0.852,0.202c0.313,0.371,0.745,0.565,1.293,0.581c0.548,0.017,0.859-0.184,0.933-0.601
			c0.074-0.417-0.22-0.659-0.88-0.726c-0.66-0.067-1.158-0.194-1.495-0.38c-0.336-0.187-0.532-0.499-0.586-0.938
			c-0.055-0.439,0.036-0.805,0.273-1.097s0.542-0.49,0.914-0.596c0.371-0.106,0.763-0.127,1.173-0.063
			C133.23,103.82,133.53,103.93,133.719,104.083z"/>
		<path fill="#FFFFFF" d="M143.512,102.122v6.48c0.013,0.276-0.162,0.414-0.523,0.414c-0.362,0-0.534-0.142-0.515-0.424v-3.125
			h-2.933v3.135c0,0.27-0.175,0.407-0.524,0.414c-0.35,0.006-0.527-0.125-0.533-0.395v-6.49c-0.014-0.314,0.163-0.472,0.528-0.472
			s0.539,0.157,0.52,0.472v2.24h2.913v-2.25c-0.013-0.302,0.165-0.454,0.534-0.457C143.347,101.662,143.525,101.814,143.512,102.122
			z"/>
		<path fill="#FFFFFF" d="M146.69,109.06c-0.567-0.022-1.086-0.243-1.558-0.663c-0.471-0.42-0.72-1.021-0.745-1.804
			c-0.025-0.781,0.186-1.44,0.635-1.976c0.448-0.535,1.021-0.811,1.717-0.827c0.695-0.016,1.264,0.154,1.706,0.51
			s0.677,0.998,0.702,1.928c-0.007,0.32-0.153,0.517-0.442,0.587h-3.26c0.032,0.372,0.194,0.671,0.485,0.898
			c0.292,0.229,0.652,0.342,1.082,0.342s0.789-0.163,1.077-0.49c0.173-0.25,0.399-0.295,0.678-0.135
			c0.279,0.16,0.3,0.427,0.063,0.798c-0.237,0.289-0.511,0.505-0.822,0.649C147.697,109.021,147.257,109.082,146.69,109.06z
			 M146.252,104.805c-0.416,0.147-0.676,0.503-0.778,1.067h2.645c-0.059-0.564-0.279-0.92-0.664-1.067
			S146.669,104.657,146.252,104.805z"/>
		<path fill="#FFFFFF" d="M153.743,103.857c0.372,0.003,0.545,0.114,0.52,0.332v4.452c-0.006,0.237-0.172,0.356-0.495,0.36
			c-0.323,0.003-0.485-0.12-0.485-0.37v-0.481c-0.487,0.616-1.047,0.893-1.678,0.832c-0.632-0.061-1.129-0.346-1.491-0.855
			s-0.511-1.107-0.446-1.794c0.063-0.686,0.276-1.226,0.639-1.62c0.362-0.394,0.723-0.636,1.082-0.726s0.705-0.104,1.038-0.043
			c0.334,0.061,0.603,0.238,0.809,0.533v-0.278C153.202,103.968,153.372,103.854,153.743,103.857z M152.56,104.958
			c-0.269-0.121-0.586-0.131-0.951-0.028c-0.366,0.103-0.646,0.395-0.842,0.875s-0.202,0.957-0.02,1.428
			c0.183,0.472,0.584,0.7,1.202,0.688s1.053-0.35,1.303-1.01v-1.346C153.06,105.282,152.83,105.08,152.56,104.958z"/>
		<path fill="#FFFFFF" d="M156.494,107.035c0.032,0.5,0.237,0.802,0.615,0.904c0.327,0.198,0.407,0.443,0.24,0.735
			s-0.445,0.364-0.836,0.217c-0.725-0.314-1.081-0.834-1.067-1.559l0.009-5.115c-0.038-0.346,0.14-0.516,0.534-0.51
			c0.395,0.007,0.565,0.177,0.515,0.51L156.494,107.035z"/>
		<path fill="#FFFFFF" d="M159.763,102.18v1.923h1.625c0.288-0.006,0.431,0.152,0.428,0.476c-0.004,0.324-0.14,0.486-0.409,0.486
			h-1.683l-0.01,1.615c-0.025,0.718,0.191,1.133,0.649,1.245s0.838-0.05,1.14-0.485c0.173-0.455,0.425-0.604,0.755-0.447
			s0.37,0.485,0.12,0.985c-0.487,0.667-1.044,1.008-1.669,1.024c-0.625,0.016-1.133-0.185-1.523-0.602
			c-0.392-0.416-0.555-1-0.49-1.75v-1.586h-0.395c-0.275,0.006-0.417-0.155-0.423-0.486c-0.007-0.33,0.131-0.488,0.413-0.476h0.433
			v-1.971c-0.013-0.302,0.16-0.449,0.52-0.442C159.602,101.695,159.776,101.859,159.763,102.18z"/>
		<path fill="#FFFFFF" d="M164.321,102.103v2.48c0.468-0.615,1.128-0.839,1.98-0.673c0.853,0.167,1.305,0.734,1.356,1.702v2.99
			c0,0.276-0.182,0.412-0.544,0.409c-0.362-0.004-0.533-0.143-0.514-0.419v-2.51c0.044-0.698-0.209-1.093-0.76-1.183
			c-0.552-0.09-1.052,0.154-1.5,0.731v3c-0.02,0.243-0.202,0.366-0.549,0.37c-0.346,0.003-0.522-0.13-0.528-0.399v-6.51
			c-0.007-0.27,0.168-0.403,0.523-0.403C164.143,101.689,164.321,101.827,164.321,102.103z"/>
		<path fill="#FFFFFF" d="M171.318,101.534c0.188-0.004,0.284,0.095,0.292,0.295c0.007,0.199-0.09,0.303-0.292,0.311h-1.048v3.375
			c-0.008,0.157-0.114,0.234-0.319,0.232c-0.206-0.002-0.314-0.081-0.325-0.238v-3.357h-1.043c-0.206,0-0.309-0.104-0.309-0.312
			s0.098-0.31,0.292-0.306H171.318z"/>
		<path fill="#FFFFFF" d="M175.219,105.521v-3.101l-0.964,2.321c-0.082,0.183-0.199,0.271-0.351,0.266
			c-0.151-0.005-0.251-0.098-0.3-0.277l-0.941-2.343v3.145c0,0.149-0.096,0.225-0.286,0.225s-0.284-0.079-0.28-0.235v-3.622
			c0.052-0.258,0.223-0.386,0.513-0.384s0.465,0.128,0.524,0.379l0.807,2.073l0.908-2.107c0.067-0.231,0.235-0.347,0.502-0.345
			c0.268,0.002,0.418,0.132,0.451,0.39v3.621c-0.015,0.161-0.115,0.241-0.303,0.241
			C175.313,105.767,175.219,105.685,175.219,105.521z"/>
	</g>
	<g>
		<rect x="0.5" y="0.5" fill="none" stroke="#FFFFFF" stroke-miterlimit="10" width="180" height="95.61"/>
		<rect x="65.354" y="8.027" fill="#FFFFFF" width="0.729" height="80.556"/>
		<g>
			<path fill="#FFFFFF" d="M86.708,26.336v17.037c0.033,0.725-0.426,1.087-1.378,1.087s-1.403-0.371-1.352-1.112v-8.215h-7.71v8.241
				c0,0.708-0.459,1.07-1.377,1.087c-0.918,0.017-1.386-0.329-1.403-1.037V26.362c-0.034-0.826,0.43-1.239,1.39-1.239
				s1.416,0.413,1.365,1.239v5.89h7.659v-5.915c-0.034-0.792,0.434-1.192,1.403-1.201C86.274,25.127,86.742,25.528,86.708,26.336z"
				/>
			<path fill="#FFFFFF" d="M95.062,44.574c-1.492-0.059-2.855-0.64-4.095-1.744c-1.239-1.104-1.892-2.684-1.959-4.74
				c-0.068-2.056,0.488-3.787,1.668-5.194c1.18-1.407,2.683-2.132,4.513-2.174c1.828-0.042,3.324,0.404,4.486,1.34
				c1.162,0.935,1.777,2.625,1.846,5.068c-0.018,0.843-0.404,1.357-1.164,1.542h-8.568c0.084,0.978,0.51,1.766,1.277,2.363
				c0.766,0.599,1.713,0.897,2.844,0.897c1.129,0,2.072-0.43,2.83-1.289c0.455-0.657,1.049-0.775,1.781-0.354
				c0.734,0.421,0.789,1.121,0.166,2.098c-0.625,0.758-1.346,1.327-2.162,1.706C97.707,44.473,96.554,44.633,95.062,44.574z
				 M93.912,33.389c-1.096,0.388-1.777,1.323-2.047,2.806h6.951c-0.152-1.483-0.732-2.418-1.744-2.806
				C96.06,33.001,95.007,33.001,93.912,33.389z"/>
			<path fill="#FFFFFF" d="M113.603,30.899c0.977,0.009,1.432,0.299,1.365,0.872v11.704c-0.018,0.624-0.451,0.939-1.303,0.948
				c-0.85,0.008-1.275-0.316-1.275-0.973v-1.264c-1.281,1.618-2.752,2.346-4.412,2.187c-1.66-0.16-2.965-0.91-3.918-2.25
				c-0.951-1.339-1.344-2.911-1.174-4.714c0.168-1.803,0.729-3.223,1.68-4.259c0.953-1.037,1.9-1.672,2.844-1.909
				c0.943-0.236,1.854-0.273,2.73-0.114c0.875,0.161,1.584,0.628,2.123,1.403v-0.733C112.179,31.19,112.626,30.891,113.603,30.899z
				 M110.494,33.793c-0.707-0.32-1.541-0.345-2.502-0.076c-0.961,0.27-1.697,1.037-2.213,2.3c-0.514,1.264-0.529,2.515-0.049,3.754
				c0.479,1.239,1.533,1.841,3.158,1.807c1.627-0.033,2.768-0.918,3.426-2.654v-3.539C111.808,34.645,111.203,34.114,110.494,33.793
				z"/>
			<path fill="#FFFFFF" d="M120.832,39.253c0.086,1.314,0.625,2.106,1.619,2.376c0.859,0.522,1.07,1.167,0.631,1.934
				c-0.438,0.767-1.17,0.956-2.199,0.569c-1.904-0.826-2.84-2.19-2.805-4.095l0.025-13.447c-0.102-0.91,0.365-1.356,1.402-1.34
				c1.037,0.017,1.486,0.464,1.352,1.34L120.832,39.253z"/>
			<path fill="#FFFFFF" d="M129.427,26.488v5.055h4.271c0.758-0.017,1.133,0.401,1.125,1.251c-0.01,0.851-0.367,1.276-1.074,1.276
				h-4.424l-0.025,4.247c-0.068,1.888,0.502,2.979,1.705,3.273c1.205,0.295,2.203-0.13,2.996-1.276
				c0.455-1.196,1.117-1.588,1.984-1.175s0.973,1.276,0.316,2.591c-1.281,1.753-2.742,2.65-4.387,2.692
				c-1.643,0.042-2.979-0.484-4.006-1.58c-1.027-1.095-1.457-2.629-1.289-4.601v-4.171h-1.037c-0.725,0.017-1.096-0.408-1.111-1.276
				c-0.018-0.868,0.346-1.285,1.086-1.251h1.139v-5.182c-0.035-0.792,0.42-1.179,1.365-1.163
				C129.005,25.216,129.46,25.646,129.427,26.488z"/>
			<path fill="#FFFFFF" d="M141.408,26.286v6.521c1.23-1.618,2.965-2.208,5.207-1.77c2.24,0.438,3.43,1.93,3.564,4.474v7.861
				c0,0.725-0.477,1.083-1.428,1.074c-0.953-0.009-1.404-0.375-1.354-1.1v-6.597c0.117-1.837-0.547-2.873-1.996-3.109
				c-1.449-0.236-2.764,0.404-3.943,1.921v7.886c-0.051,0.641-0.531,0.964-1.441,0.973c-0.91,0.008-1.373-0.341-1.391-1.049V26.261
				c-0.016-0.708,0.443-1.062,1.379-1.062C140.939,25.199,141.408,25.562,141.408,26.286z"/>
			<path fill="#FFFFFF" d="M85.723,49.874c0.876,0.733,1.289,1.462,1.238,2.187c-0.05,0.725-0.426,1.134-1.125,1.226
				c-0.7,0.093-1.29-0.193-1.77-0.859c-0.48-0.666-1.441-0.99-2.882-0.973c-1.441,0.017-2.701,0.687-3.779,2.009
				c-1.079,1.323-1.597,3.013-1.555,5.068s0.459,3.606,1.251,4.651c0.792,1.045,2.005,1.672,3.64,1.883
				c1.634,0.211,2.932-0.282,3.893-1.479c0.96-1.196,1.782-1.542,2.464-1.036c0.683,0.505,0.8,1.175,0.354,2.009
				c-0.447,0.834-1.159,1.597-2.136,2.288s-2.389,1.058-4.234,1.1s-3.484-0.477-4.917-1.555c-1.433-1.078-2.385-2.532-2.856-4.36
				s-0.543-3.72-0.215-5.675c0.329-1.955,1.104-3.593,2.326-4.917c1.222-1.323,2.469-2.132,3.741-2.427
				c1.272-0.294,2.464-0.408,3.577-0.341C83.852,48.741,84.846,49.141,85.723,49.874z"/>
			<path fill="#FFFFFF" d="M96.365,54.12c0.977,0.025,1.891,0.245,2.742,0.657c0.852,0.413,1.639,1.146,2.363,2.199
				c0.725,1.054,1.078,2.512,1.063,4.373c-0.018,1.862-0.477,3.324-1.379,4.386c-0.9,1.062-1.77,1.731-2.604,2.01
				c-0.834,0.277-1.646,0.417-2.439,0.417c-0.791,0-1.654-0.131-2.59-0.392c-0.936-0.262-1.824-0.927-2.667-1.997
				c-0.843-1.07-1.281-2.52-1.314-4.348s0.392-3.341,1.277-4.538c0.885-1.196,1.785-1.963,2.705-2.3
				C94.439,54.251,95.386,54.095,96.365,54.12z M93.382,57.95c-0.742,0.775-1.102,1.857-1.076,3.248
				c0.025,1.39,0.406,2.443,1.139,3.159c0.732,0.717,1.602,1.066,2.604,1.049c1.002-0.017,1.883-0.366,2.641-1.049
				c0.76-0.683,1.129-1.761,1.113-3.235c-0.018-1.475-0.414-2.578-1.188-3.312c-0.775-0.733-1.656-1.086-2.643-1.062
				C94.986,56.774,94.123,57.175,93.382,57.95z"/>
			<path fill="#FFFFFF" d="M107.966,55.473v1.213c0.758-0.792,1.719-1.432,2.881-1.921c1.162-0.488,2.447-0.552,3.855-0.189
				c1.406,0.363,2.086,1.799,2.035,4.31v7.963c-0.035,0.657-0.49,0.981-1.365,0.973c-0.877-0.009-1.324-0.324-1.34-0.947v-6.749
				c0.236-2.157-0.459-3.231-2.086-3.223c-1.627,0.009-2.936,0.603-3.93,1.782v8.216c-0.018,0.623-0.484,0.938-1.404,0.947
				c-0.918,0.009-1.395-0.315-1.428-0.973v-11.35c-0.018-0.759,0.443-1.138,1.377-1.138
				C107.498,54.386,107.966,54.748,107.966,55.473z"/>
			<path fill="#FFFFFF" d="M122.906,55.473v1.213c0.758-0.792,1.719-1.432,2.881-1.921c1.162-0.488,2.447-0.552,3.855-0.189
				c1.406,0.363,2.086,1.799,2.035,4.31v7.963c-0.035,0.657-0.49,0.981-1.365,0.973c-0.877-0.009-1.324-0.324-1.34-0.947v-6.749
				c0.236-2.157-0.459-3.231-2.086-3.223c-1.627,0.009-2.936,0.603-3.93,1.782v8.216c-0.018,0.623-0.484,0.938-1.404,0.947
				c-0.918,0.009-1.395-0.315-1.428-0.973v-11.35c-0.018-0.759,0.443-1.138,1.377-1.138
				C122.437,54.386,122.906,54.748,122.906,55.473z"/>
			<path fill="#FFFFFF" d="M140.132,68.022c-1.492-0.059-2.857-0.64-4.096-1.744c-1.238-1.104-1.893-2.683-1.959-4.739
				c-0.068-2.056,0.488-3.787,1.668-5.194c1.18-1.407,2.684-2.132,4.512-2.174s3.324,0.404,4.486,1.34
				c1.164,0.935,1.779,2.625,1.846,5.068c-0.016,0.843-0.404,1.356-1.162,1.542h-8.568c0.084,0.977,0.508,1.765,1.275,2.363
				c0.768,0.598,1.715,0.897,2.844,0.897s2.072-0.43,2.832-1.29c0.455-0.657,1.049-0.774,1.781-0.354
				c0.732,0.422,0.787,1.121,0.164,2.098c-0.623,0.759-1.344,1.327-2.16,1.707C142.777,67.922,141.623,68.082,140.132,68.022z
				 M138.982,56.837c-1.096,0.388-1.779,1.324-2.049,2.806h6.951c-0.15-1.482-0.732-2.418-1.744-2.806
				C141.13,56.45,140.076,56.45,138.982,56.837z"/>
			<path fill="#FFFFFF" d="M158.419,56.206c0.623,0.843,0.662,1.53,0.113,2.06c-0.547,0.531-1.15,0.553-1.807,0.063
				c-0.844-0.944-1.758-1.403-2.742-1.378c-0.986,0.025-1.82,0.438-2.504,1.239c-0.682,0.8-0.988,1.908-0.922,3.323
				c0.066,1.416,0.547,2.427,1.441,3.033c0.893,0.607,1.824,0.835,2.793,0.683c0.969-0.151,1.631-0.539,1.984-1.162
				c0.488-0.725,1.057-0.91,1.705-0.557c0.648,0.354,0.822,0.936,0.52,1.744c-0.49,0.877-1.264,1.571-2.326,2.086
				c-1.061,0.514-2.381,0.636-3.955,0.366c-1.576-0.27-2.777-0.969-3.604-2.098c-0.824-1.129-1.234-2.57-1.225-4.323
				c0.008-1.752,0.506-3.294,1.49-4.625c0.986-1.331,2.436-2.06,4.348-2.187S157.207,54.925,158.419,56.206z"/>
			<path fill="#FFFFFF" d="M165.269,49.937v5.055h4.271c0.76-0.017,1.133,0.401,1.125,1.251c-0.008,0.851-0.365,1.276-1.074,1.276
				h-4.424l-0.025,4.247c-0.066,1.888,0.502,2.979,1.707,3.273s2.203-0.13,2.996-1.276c0.455-1.196,1.115-1.588,1.984-1.176
				c0.867,0.413,0.973,1.277,0.314,2.591c-1.279,1.753-2.742,2.65-4.385,2.692s-2.979-0.484-4.006-1.58
				c-1.029-1.095-1.459-2.629-1.289-4.601v-4.17h-1.037c-0.725,0.017-1.096-0.408-1.113-1.276c-0.016-0.868,0.346-1.285,1.088-1.251
				h1.137v-5.182c-0.033-0.792,0.422-1.179,1.365-1.163S165.302,49.094,165.269,49.937z"/>
		</g>
		<g>
			<path fill="#FFFFFF" d="M7.665,87.883V77.098c0.01-0.411,0.227-0.617,0.648-0.617h2.546c1.539,0.011,2.757,0.517,3.653,1.519
				c0.896,1.001,1.416,2.113,1.558,3.337c0.143,1.223,0.121,2.335-0.063,3.337c-0.185,1.001-0.686,1.897-1.502,2.688
				c-0.817,0.79-1.896,1.139-3.234,1.043H8.139C7.813,88.404,7.654,88.23,7.665,87.883z M11.397,78.283H9.515v8.271h1.945
				c0.875,0.053,1.579-0.222,2.111-0.822c0.532-0.602,0.83-1.437,0.894-2.507c0.063-1.07-0.177-2.148-0.72-3.234
				S12.419,78.336,11.397,78.283z"/>
			<path fill="#FFFFFF" d="M22.878,76.465c1.56,0,2.881,0.588,3.961,1.763c1.081,1.176,1.621,2.602,1.621,4.278
				c0,1.666-0.545,3.087-1.637,4.262c-1.091,1.176-2.407,1.764-3.946,1.764c-1.529,0-2.839-0.588-3.93-1.764
				c-1.091-1.175-1.637-2.596-1.637-4.262c0-1.677,0.541-3.103,1.621-4.278C20.013,77.053,21.329,76.465,22.878,76.465z
				 M22.878,78.157c-1.054,0-1.953,0.419-2.696,1.257s-1.115,1.854-1.115,3.044c0,1.192,0.372,2.206,1.115,3.045
				c0.743,0.838,1.642,1.257,2.696,1.257c1.065,0,1.969-0.419,2.712-1.257c0.743-0.839,1.115-1.853,1.115-3.045
				c0-1.19-0.372-2.206-1.115-3.044C24.847,78.576,23.943,78.157,22.878,78.157z"/>
			<path fill="#FFFFFF" d="M30.232,77.397c0-0.579,0.269-0.864,0.807-0.854h2.277c1.413-0.074,2.467,0.295,3.163,1.106
				c0.696,0.813,0.938,1.801,0.727,2.966s-0.907,1.89-2.087,2.174c0.601-0.063,1.086,0.285,1.455,1.044l1.897,3.147
				c0.327,0.538,0.256,0.965-0.213,1.281s-0.862,0.273-1.178-0.127l-2.072-3.463c-0.442-0.802-1.033-1.176-1.771-1.123H31.94v4.27
				c-0.032,0.411-0.316,0.617-0.854,0.617s-0.822-0.222-0.854-0.664V77.397z M33.569,78.315h-1.724v3.479h1.897
				c0.865,0.021,1.418-0.326,1.661-1.044c0.243-0.717,0.179-1.307-0.19-1.771S34.296,78.294,33.569,78.315z"/>
			<path fill="#FFFFFF" d="M47.533,87.788l-0.902-2.783h-4.459l-1.044,2.83c-0.274,0.538-0.664,0.709-1.17,0.515
				c-0.506-0.195-0.633-0.614-0.38-1.258l3.542-9.805c0.19-0.517,0.675-0.772,1.455-0.767c0.78,0.005,1.218,0.266,1.313,0.782
				l3.29,9.963c0.116,0.623-0.087,0.994-0.609,1.115S47.702,88.305,47.533,87.788z M44.623,78.536h-0.269l-1.677,4.887h3.448
				L44.623,78.536z"/>
			<path fill="#FFFFFF" d="M52.451,77.271v9.33h4.665c0.601-0.01,0.896,0.274,0.886,0.854c-0.011,0.58-0.306,0.891-0.886,0.933
				l-5.503-0.016c-0.517-0.021-0.78-0.4-0.791-1.139v-9.979c0.063-0.507,0.35-0.752,0.862-0.735
				C52.195,76.536,52.451,76.786,52.451,77.271z"/>
		</g>
		<g>
			<polyline fill="none" stroke="#FFFFFF" stroke-miterlimit="10" points="8.388,23.236 15.964,29.452 17.324,71.993 			"/>
			<polyline fill="none" stroke="#FFFFFF" stroke-miterlimit="10" points="31.311,23.236 23.152,29.452 23.152,71.993 			"/>
			<polyline opacity="0.7" fill="none" stroke="#FFFFFF" stroke-miterlimit="10" points="19.461,10.026 27.037,16.437 
				31.311,71.993 			"/>
			
				<circle opacity="0.7" fill="none" stroke="#FFFFFF" stroke-width="0.75" stroke-miterlimit="10" cx="32.186" cy="10.782" r="4.89"/>
			<circle fill="none" stroke="#FFFFFF" stroke-width="0.75" stroke-miterlimit="10" cx="19.462" cy="23.435" r="4.608"/>
			<polyline fill="none" stroke="#FFFFFF" stroke-miterlimit="10" points="35.39,30.229 43.354,36.64 43.354,71.993 			"/>
			<polyline fill="none" stroke="#FFFFFF" stroke-miterlimit="10" points="58.119,30.229 50.347,36.64 50.347,71.993 			"/>
			<circle fill="none" stroke="#FFFFFF" stroke-width="0.75" stroke-miterlimit="10" cx="46.683" cy="29.784" r="4.976"/>
			<polyline opacity="0.7" fill="none" stroke="#FFFFFF" stroke-miterlimit="10" points="45.491,10.026 37.333,16.437 
				37.333,71.993 			"/>
		</g>
	</g>
</g>
<g>
</g>
<g>
</g>
<g>
</g>
<g>
</g>
<g>
</g>
<g>
</g>
</svg>
