<?xml version="1.0" encoding="utf-8"?>
<!-- Generator: Adobe Illustrator 25.0.1, SVG Export Plug-In . SVG Version: 6.00 Build 0)  -->
<svg version="1.1" id="图层_1" xmlns="http://www.w3.org/2000/svg" xmlns:xlink="http://www.w3.org/1999/xlink" x="0px" y="0px"
	 viewBox="0 0 50 51.04" style="enable-background:new 0 0 50 51.04;" xml:space="preserve">
<style type="text/css">
	.st0{fill:#FFFFFF;}
	.st1{fill:#C41230;}
	.st2{fill:#C0C2C4;}
	.st3{fill:#005288;}
	.st4{fill:#0078AE;}
	.st5{fill:#5E9732;}
</style>
<g>
	<g>
		<path class="st0" d="M50,25.52c0,13.81-11.19,25-25,25c-13.81,0-25-11.19-25-25c0-13.81,11.19-25,25-25
			C38.81,0.52,50,11.71,50,25.52"/>
	</g>
	<g>
		<path class="st1" d="M40.19,16.54c-0.28,0.09-0.56,0.17-0.83,0.23c1.56,2.55,2.45,5.54,2.45,8.75c0,9.28-7.53,16.81-16.81,16.81
			c-9.28,0-16.81-7.52-16.81-16.81c0-3.34,0.98-6.46,2.66-9.08c-0.27-0.08-0.53-0.18-0.79-0.3c-1.71,2.72-2.7,5.94-2.7,9.38
			c0,9.74,7.9,17.64,17.64,17.64s17.64-7.9,17.64-17.64C42.64,22.24,41.75,19.17,40.19,16.54"/>
		<path class="st1" d="M15.23,11.84c2.75-1.97,6.13-3.13,9.77-3.13c4.07,0,7.8,1.45,10.71,3.86c0.33-0.09,0.65-0.18,0.98-0.26
			C33.58,9.55,29.49,7.88,25,7.88c-4.02,0-7.72,1.34-10.69,3.61c0.14,0.05,0.28,0.1,0.43,0.16C14.91,11.71,15.07,11.78,15.23,11.84"
			/>
	</g>
	<g>
		<path class="st2" d="M25,0.52c-13.81,0-25,11.19-25,25c0,13.81,11.19,25,25,25s25-11.19,25-25C50,11.71,38.81,0.52,25,0.52
			 M25,48.97c-12.95,0-23.45-10.5-23.45-23.45C1.55,12.57,12.05,2.07,25,2.07c12.95,0,23.45,10.5,23.45,23.45
			C48.45,38.47,37.95,48.97,25,48.97"/>
	</g>
	<g>
		<path class="st3" d="M18.97,20.51c-0.36-0.18-0.67-0.39-1-0.7c-1.07-0.98-1.33-2.01-1.01-3.19c0.19-0.7,0.48-1.06,0.38-1.79
			c-0.06-0.42-0.35-0.76-0.65-1.04c-0.72-0.69-1.57-1.12-2.82-1.54c-0.78-0.26-3.03-0.96-4.03-1.86c-0.23,0.66,0.25,1.54,0.83,1.66
			c-0.51,0.05-0.94,0.32-1.14,0.6c0.38,0.44,1.15,0.91,1.78,0.92c-0.29,0.19-0.65,0.61-0.77,0.84c0.55,0.29,1.42,0.53,2.09,0.49
			c-0.28,0.23-0.53,0.51-0.68,0.77c0.45,0.21,1.33,0.51,2.17,0.57c-0.31,0.15-0.75,0.68-0.98,1c0.47,0.21,1.49,0.34,2.13,0.4
			c-0.45,0.24-0.93,0.72-1.19,1.15c0.46,0.22,1.33,0.47,2.03,0.44c-0.35,0.33-0.58,0.74-0.71,1.13c0.54,0.11,1.1,0.11,1.75,0.03
			c-0.4,0.5-0.55,1.16-0.61,1.64c0.53-0.02,1.23-0.14,1.73-0.43c-0.11,0.4-0.08,0.95,0.09,1.34c0.21-0.05,0.45-0.13,0.71-0.28
			C19.02,21.91,18.99,21.14,18.97,20.51"/>
		<path class="st3" d="M40.51,11.61c-1,0.9-2.59,1.14-4.26,1.7c-1.26,0.42-2.04,0.66-3.17,1.56c-0.32,0.25-0.63,0.63-0.59,1.28
			c0.04,0.72,0.16,1.03,0.17,2.04c0.01,0.72-0.23,1.29-0.54,1.64c-0.32,0.36-0.73,0.67-1.1,0.87c-0.02,0.61-0.05,1.23-0.08,1.94
			c0.26,0.14,0.6,0.28,0.8,0.32c0.17-0.39,0.2-0.93,0.09-1.34c0.5,0.3,1.2,0.42,1.73,0.43c-0.06-0.47-0.21-1.14-0.61-1.64
			c0.65,0.09,1.21,0.09,1.75-0.02c-0.13-0.39-0.36-0.8-0.71-1.13c0.71,0.02,1.57-0.22,2.03-0.44c-0.26-0.43-0.74-0.91-1.19-1.15
			c0.63-0.06,1.68-0.19,2.16-0.4c-0.23-0.32-0.7-0.86-1.01-1.01c0.84-0.06,1.72-0.36,2.17-0.57c-0.16-0.26-0.4-0.55-0.68-0.77
			c0.79-0.05,1.54-0.2,2.09-0.49c-0.12-0.23-0.47-0.65-0.77-0.84C40.48,13.1,40.51,12.26,40.51,11.61"/>
		<path class="st3" d="M33.42,13.39c-2.39-1.66-5.29-2.63-8.42-2.63c-2.85,0-5.52,0.81-7.78,2.21c0.58,0.45,0.93,0.94,1.02,1.44
			c0.08,0.44,0.13,0.97-0.13,1.74c-0.27,0.82-0.42,1.66,0.19,2.51c0.6,0.85,1.38,1.21,2.03,1.34c0.85-0.15,1.79-0.27,2.72-0.34
			c0.12-0.39,0.48-0.74,0.85-1.02c0.52-0.41,0.41-0.77,0.28-1.04c-0.1-0.22-0.28-0.39-0.55-0.53c-0.24-0.12-1.1-0.21-1.08,0.34
			c-0.14-0.2-0.25-0.47-0.17-0.82c0.12-0.48,0.9-0.6,1.1-0.59c-0.15-0.13-0.06-0.34,0.29-0.43c0.42-0.12,0.82-0.13,1.2-0.12
			c0.79,0.02,0.92,0.21,1.32,0.57c0.48,0.43,1.12,0.58,1.38,0.32c-0.18,0.41-0.76,0.63-1.13,0.57c0.18,0.57,0.24,1.07,0.31,1.66
			c0.03,0.27,0.09,0.73,0.16,1.1c1.06,0.09,2.12,0.23,3.05,0.41c0.38-0.11,0.78-0.34,1.14-0.75c0.34-0.39,0.65-0.89,0.52-2.14
			c-0.04-0.35-0.21-1.25-0.19-1.68C31.59,14.52,32.3,13.9,33.42,13.39"/>
		<path class="st3" d="M23.61,16.02c0.15,0.11,0.23,0.12,0.28,0.11l0.06,0.07l0.06,0.08c0.07-0.03,0.24-0.1,0.4-0.16
			c0.16-0.06,0.39-0.12,0.39-0.12C24.1,15.86,23.99,16.08,23.61,16.02"/>
		<path class="st0" d="M25,32.95h-0.16c-0.08-0.5-0.44-0.8-0.97-0.96c-0.4-0.12-0.98-0.31-2.22-0.69c-1.44-0.44-2.17-1.6-2.27-3.05
			c-0.14-2.05-0.35-5.67-0.42-7.96c1.62-0.4,4.02-0.71,6.04-0.71c2.02,0,4.42,0.31,6.04,0.71c-0.07,2.3-0.28,5.91-0.42,7.96
			c-0.1,1.45-0.83,2.61-2.27,3.05c-1.24,0.38-1.82,0.57-2.22,0.69c-0.53,0.16-0.89,0.47-0.97,0.96H25"/>
		<path class="st4" d="M24.59,27.7l-0.29-0.15l-0.19-0.5l-0.43-0.19l-0.48-0.43l-0.29,0.32l-0.43,0.1l-0.23,0.36l-0.35,0.37
			l-0.47,0.25l-0.33,0.55l-0.18,0.24l-0.32,0.25l-0.18-0.19l-0.19,0.18l-0.24,0.44c-0.12-0.33-0.2-0.58-0.24-1.1
			c-0.07-0.97-0.14-2.18-0.21-3.42c1.59-0.34,3.62-0.57,5.27-0.59v3.76C24.74,27.92,24.66,27.89,24.59,27.7"/>
		<path class="st5" d="M24.82,29.51h-4.74c0.07,0.15,0.15,0.28,0.24,0.41c0.34,0.48,0.83,0.83,1.44,1.02
			c0.84,0.26,1.37,0.43,1.76,0.55l0.46,0.15c0.38,0.12,0.64,0.29,0.83,0.48V29.51"/>
		<path class="st3" d="M29.82,27.68c0.13-0.1,0.28-0.23,0.48-0.3c0.03-0.44,0.06-0.92,0.08-1.4l-0.17,0.13
			c-0.23,0.18-0.51,0.41-1,0.41c-0.47,0-0.77-0.18-1.01-0.33c-0.2-0.12-0.35-0.22-0.59-0.22c-0.26,0-0.48,0.13-0.71,0.27
			c-0.25,0.15-0.54,0.32-0.89,0.32c-0.36,0-0.62-0.11-0.83-0.23v1.33l0.14,0.08c0.21,0.13,0.4,0.24,0.69,0.24
			c0.18,0,0.36-0.11,0.57-0.23c0.28-0.17,0.6-0.36,1.03-0.36c0.4,0,0.67,0.17,0.91,0.31c0.21,0.13,0.4,0.24,0.69,0.24
			C29.48,27.96,29.63,27.84,29.82,27.68"/>
		<path class="st3" d="M26.01,30.72c-0.36,0-0.62-0.11-0.83-0.23v1.63c0.19-0.19,0.45-0.36,0.83-0.48l0.46-0.15
			c0.39-0.12,0.92-0.29,1.76-0.55c0.24-0.07,0.47-0.18,0.67-0.3c-0.3-0.06-0.53-0.19-0.71-0.31c-0.2-0.12-0.35-0.22-0.59-0.22
			c-0.26,0-0.48,0.13-0.71,0.27C26.64,30.54,26.36,30.72,26.01,30.72"/>
		<path class="st4" d="M29.82,25.64c0.16-0.13,0.34-0.28,0.6-0.33c0.01-0.17,0.02-0.34,0.03-0.51c-1.59-0.34-3.62-0.57-5.27-0.59
			v1.42l0.14,0.08c0.21,0.13,0.4,0.24,0.69,0.24c0.18,0,0.36-0.11,0.57-0.24c0.28-0.17,0.6-0.36,1.03-0.36
			c0.4,0,0.67,0.17,0.91,0.31c0.21,0.13,0.4,0.24,0.69,0.24C29.48,25.91,29.63,25.79,29.82,25.64"/>
		<path class="st4" d="M25.18,28.39v1.39l0.14,0.08c0.21,0.13,0.39,0.24,0.69,0.24c0.18,0,0.36-0.11,0.57-0.23
			c0.28-0.17,0.6-0.36,1.03-0.36c0.4,0,0.67,0.17,0.91,0.31c0.21,0.13,0.39,0.24,0.69,0.24c0.23,0,0.37-0.08,0.52-0.19
			c0.3-0.45,0.48-1.01,0.52-1.66l0.01-0.08l-0.04,0.03c-0.23,0.18-0.51,0.41-1,0.41c-0.47,0-0.77-0.18-1.01-0.33
			c-0.2-0.12-0.36-0.22-0.59-0.22c-0.26,0-0.48,0.13-0.71,0.27c-0.25,0.15-0.54,0.32-0.89,0.32C25.65,28.61,25.39,28.5,25.18,28.39"
			/>
		<path class="st3" d="M19.53,24.43c-0.07-1.39-0.14-2.78-0.18-3.88c1.68-0.38,3.91-0.63,5.65-0.63c1.75,0,3.98,0.25,5.65,0.63
			c-0.04,1.1-0.11,2.49-0.18,3.88c-1.58-0.34-3.68-0.58-5.47-0.58C23.2,23.85,21.11,24.09,19.53,24.43"/>
		<polygon class="st0" points="20.63,21.47 20.69,21.17 20.41,21.04 20.72,21.01 20.75,20.71 20.87,20.99 21.17,20.92 20.94,21.13 
			21.09,21.39 20.83,21.24 		"/>
		<polygon class="st0" points="22.47,21.22 22.22,21.06 22.01,21.27 22.08,20.98 21.81,20.84 22.11,20.82 22.16,20.52 22.27,20.81 
			22.57,20.76 22.34,20.95 		"/>
		<polygon class="st0" points="23.86,21.11 23.61,20.94 23.39,21.14 23.48,20.85 23.22,20.7 23.52,20.7 23.58,20.4 23.68,20.69 
			23.97,20.65 23.73,20.84 		"/>
		<polygon class="st0" points="25.24,21.08 25,20.89 24.77,21.08 24.88,20.8 24.63,20.63 24.93,20.65 25,20.35 25.08,20.65 
			25.39,20.63 25.13,20.8 		"/>
		<polygon class="st0" points="29.18,21.24 28.92,21.4 29.07,21.13 28.84,20.93 29.14,20.99 29.26,20.71 29.29,21.01 29.59,21.05 
			29.32,21.17 29.38,21.47 		"/>
		<polygon class="st0" points="27.67,20.95 27.44,20.76 27.74,20.81 27.85,20.52 27.89,20.82 28.19,20.84 27.92,20.98 28,21.27 
			27.79,21.06 27.53,21.22 		"/>
		<polygon class="st0" points="26.28,20.84 26.04,20.66 26.34,20.69 26.43,20.4 26.49,20.7 26.8,20.7 26.53,20.85 26.62,21.14 
			26.4,20.94 26.15,21.12 		"/>
		<polygon class="st0" points="20.83,23.71 20.89,23.41 20.62,23.28 20.92,23.25 20.95,22.95 21.07,23.23 21.37,23.17 21.14,23.37 
			21.29,23.64 21.03,23.48 		"/>
		<polygon class="st0" points="22.63,23.48 22.37,23.31 22.16,23.53 22.24,23.23 21.97,23.09 22.27,23.08 22.32,22.78 22.42,23.06 
			22.72,23.01 22.49,23.21 		"/>
		<polygon class="st0" points="23.95,23.38 23.71,23.2 23.49,23.41 23.58,23.12 23.32,22.97 23.62,22.96 23.68,22.66 23.77,22.96 
			24.07,22.92 23.83,23.1 		"/>
		<polygon class="st0" points="25.29,23.36 25.05,23.16 24.82,23.36 24.93,23.07 24.67,22.9 24.97,22.92 25.05,22.63 25.13,22.92 
			25.43,22.9 25.18,23.07 		"/>
		<polygon class="st0" points="29.07,23.5 28.81,23.65 28.96,23.39 28.73,23.18 29.03,23.24 29.15,22.96 29.18,23.27 29.48,23.3 
			29.21,23.42 29.27,23.72 		"/>
		<polygon class="st0" points="27.62,23.22 27.38,23.02 27.68,23.07 27.79,22.79 27.84,23.09 28.14,23.1 27.87,23.24 27.94,23.54 
			27.73,23.32 27.48,23.49 		"/>
		<polygon class="st0" points="26.27,23.11 26.03,22.93 26.33,22.96 26.43,22.67 26.49,22.97 26.79,22.97 26.53,23.13 26.62,23.42 
			26.39,23.21 26.15,23.39 		"/>
		<polygon class="st0" points="21.49,22.38 21.56,22.09 21.29,21.95 21.59,21.93 21.63,21.63 21.75,21.91 22.04,21.86 21.81,22.06 
			21.96,22.32 21.7,22.16 		"/>
		<polygon class="st0" points="20.17,22.59 20.23,22.29 19.95,22.17 20.25,22.14 20.28,21.83 20.41,22.11 20.7,22.05 20.48,22.25 
			20.63,22.52 20.37,22.37 		"/>
		<polygon class="st0" points="23.28,22.2 23.03,22.02 22.81,22.23 22.9,21.94 22.63,21.8 22.93,21.79 22.99,21.49 23.09,21.77 
			23.39,21.73 23.15,21.92 		"/>
		<polygon class="st0" points="24.61,22.13 24.37,21.95 24.14,22.15 24.24,21.86 23.98,21.7 24.28,21.71 24.35,21.41 24.44,21.7 
			24.74,21.68 24.49,21.85 		"/>
		<polygon class="st0" points="25.93,22.15 25.7,21.95 25.46,22.13 25.58,21.85 25.33,21.68 25.63,21.7 25.72,21.41 25.79,21.71 
			26.09,21.7 25.83,21.86 		"/>
		<polygon class="st0" points="29.7,22.38 29.44,22.52 29.59,22.26 29.37,22.05 29.67,22.12 29.8,21.84 29.82,22.15 30.12,22.19 
			29.84,22.3 29.9,22.61 		"/>
		<polygon class="st0" points="28.26,22.06 28.03,21.87 28.32,21.92 28.44,21.64 28.48,21.94 28.78,21.96 28.51,22.1 28.58,22.39 
			28.37,22.17 28.11,22.33 		"/>
		<polygon class="st0" points="26.92,21.93 26.68,21.74 26.98,21.78 27.08,21.49 27.14,21.79 27.44,21.8 27.17,21.95 27.26,22.24 
			27.04,22.03 26.79,22.2 		"/>
		<path class="st3" d="M40.9,27.57l-1.22,0.38l0.28,0.11l-0.43,0.27c0.05-0.25,0.09-0.5,0.12-0.75l0.67-0.56l0.02,0.3l0.75-1.03
			l-1.16,0.53l0.29,0.07l-0.53,0.45c0.04-0.31,0.07-0.62,0.08-0.93l0.66-0.73l0.06,0.29l0.61-1.12L40,25.52l0.3,0.04l-0.53,0.57
			c0.01-0.19,0.01-0.39,0.01-0.59c0-1.47-0.22-2.9-0.62-4.24c-0.67,0.06-1.34-0.15-1.66-0.21c0.86,0.5,1.15,1.05,1.28,1.67
			c-0.69,0.15-1.6-0.07-2.1-0.46c0.49,0.43,0.8,1.1,0.82,1.8c-0.71,0.04-1.36-0.29-1.84-0.78c0.31,0.34,0.7,1.21,0.6,1.83
			c-0.59-0.06-1.29-0.45-1.66-0.91c0.31,0.69,0.46,1.25,0.43,1.87c-0.59-0.11-1.03-0.28-1.56-0.78c0.25,0.63,0.34,1.26,0.29,1.78
			c-0.68-0.24-1.13-0.51-1.51-1.15c0.2,0.56,0.33,1.3,0.19,1.73c-0.57-0.17-0.95-0.52-1.25-1.1c0.29,0.62,0.26,1.34,0.16,1.72
			c-0.24-0.05-0.55-0.21-0.72-0.4l-0.02,0.33c-0.03,0.42-0.11,0.81-0.25,1.17l0.16,0.19c0.3,0.32,0.71,0.63,1.04,0.74
			c-0.14,0.02-0.33,0.14-0.53,0.16c0.21,0.24,0.65,0.3,0.92,0.58c-0.21,0.02-0.26,0.18-0.52,0.15c0.49,0.38,0.93,0.39,1.18,0.42
			c0.1,0.01,0.43,0.04,0.64,0.01c0.29-0.04,0.6,0.1,0.72,0.17c0.18,0.11,0.17,0.35,0.14,0.48c-0.02,0.08-0.06,0.17-0.19,0.24
			l-0.05-0.03c0.07-0.05,0.13-0.37-0.03-0.49c-0.12-0.09-0.29-0.16-0.49-0.15c-0.22,0.01-0.56,0.03-0.72,0.01
			c-0.15-0.02-0.24,0.18-0.27,0.26c-0.05,0.2-0.11,0.44-0.4,0.32c-0.35-0.2-0.85-0.18-1.42-0.41c0.08,0.18,0.05,0.33,0.13,0.52
			c-0.51-0.12-0.64-0.38-1.12-0.55c0.08,0.18,0.06,0.31,0.17,0.48c-0.41-0.07-0.79-0.44-1.36-0.59l-0.05,0.02
			c-0.21,0.06-0.39,0.12-0.57,0.18c0.4,0.45,0.73,1.01,0.89,1.69c0,0-0.28,0.01-0.7-0.14c0.12,0.37,0.19,0.77,0.2,1.19
			c0,0-0.32-0.06-0.75-0.33c0.04,0.4,0.03,0.82-0.06,1.24c0,0-0.37-0.15-0.8-0.59c-0.05,0.41-0.15,0.83-0.33,1.25
			c0,0-0.33-0.23-0.68-0.76c-0.14,0.41-0.34,0.82-0.62,1.21c0,0-0.37-0.38-0.61-1.16c-0.33,0.5-0.65,0.71-0.65,0.71
			c-0.18-0.41-0.28-0.83-0.33-1.25c-0.43,0.44-0.8,0.59-0.8,0.59c-0.09-0.43-0.1-0.84-0.06-1.24c-0.43,0.27-0.75,0.33-0.75,0.33
			c0.01-0.42,0.08-0.82,0.2-1.19c-0.42,0.15-0.7,0.14-0.7,0.14c0.16-0.69,0.61-1.4,0.91-1.71c-0.15-0.05-0.31-0.1-0.48-0.15
			l-0.05-0.02c-0.57,0.15-0.95,0.52-1.36,0.59c0.11-0.17,0.09-0.3,0.17-0.48c-0.48,0.17-0.61,0.43-1.12,0.55
			c0.09-0.19,0.05-0.35,0.13-0.52c-0.47,0.23-1.11,0.39-1.4,0.45c-0.32,0.06-0.34-0.4-0.44-0.51l-0.4-0.05
			c-0.15,0.03-0.46,0.01-0.69,0.01c-0.23,0-0.38,0.06-0.5,0.15c-0.17,0.12-0.09,0.45-0.01,0.5l-0.05,0.03
			c-0.13-0.07-0.17-0.16-0.19-0.24c-0.03-0.13-0.05-0.37,0.14-0.48c0.12-0.07,0.42-0.22,0.72-0.17c0.21,0.03,0.54,0,0.64-0.01
			c0.1-0.01,0.83-0.15,1.32-0.52c-0.25,0.03-0.3-0.13-0.52-0.15c0.27-0.28,0.71-0.33,0.93-0.58c-0.19-0.02-0.36-0.18-0.5-0.2
			c0.43-0.24,0.71-0.38,1.02-0.7l0.16-0.19c-0.14-0.36-0.22-0.76-0.25-1.18l-0.02-0.32c-0.1,0.12-0.32,0.23-0.67,0.36
			c-0.16-0.4-0.09-1.14,0.12-1.72c-0.3,0.59-0.64,0.97-1.21,1.14c-0.14-0.43-0.06-1.18,0.14-1.74c-0.38,0.64-0.79,0.96-1.47,1.2
			c-0.06-0.52,0-1.21,0.25-1.84c-0.52,0.5-0.97,0.67-1.56,0.78c-0.04-0.62,0.11-1.18,0.42-1.87c-0.37,0.46-1.16,0.78-1.75,0.84
			c0.04-0.54,0.42-1.27,0.64-1.7c-0.56,0.4-1.15,0.68-1.79,0.72c0.08-0.61,0.35-1.27,0.82-1.8c-0.55,0.41-1.39,0.63-2.03,0.54
			c0.15-0.67,0.57-1.32,1.12-1.67c-0.32,0.06-0.91,0.2-1.58,0.13c-0.4,1.32-0.61,2.72-0.62,4.18c-0.33-0.26-0.57-0.33-0.8-0.56
			c0.04,0.31,0.08,0.48,0.12,0.87c0.06,0.7,0.33,1.1,0.77,1.35c0.02,0.2,0.05,0.4,0.08,0.59c-0.32-0.21-0.76-0.34-1.34-0.33
			c0.35,1.14,0.85,1.22,1.52,1.33l0.07,0.31c-0.36-0.09-0.78-0.1-1.27,0.04c0.34,0.52,0.8,0.84,1.55,0.95l0,0.01
			c-0.46-0.04-0.96,0.03-1.35,0.23c0.57,0.49,1.12,0.67,1.65,0.62l0.08,0.21c-0.42,0.11-0.79,0.33-1,0.53
			c0.44,0.14,0.9,0.22,1.3,0.17l0.01,0.03c-0.24,0.18-0.45,0.48-0.58,0.95c0.31-0.08,0.64-0.1,0.96-0.19
			c0.07,0.12,0.13,0.24,0.2,0.35c-0.17,0.32-0.23,0.73-0.13,1.18c0.27-0.06,0.49-0.17,0.68-0.3l0.19,0.28
			c-0.07,0.52,0.05,1.04,0.36,1.38c0.12-0.14,0.22-0.27,0.31-0.4c0.67-1.02,0.26-1.75,0.28-2.41l0.02-0.04
			c0.06,0.79,0.74,1.56-0.06,2.51l-0.05,0.05c2.71,3.15,6.73,5.14,11.21,5.14c6.36,0,11.78-4.02,13.87-9.65l0.67-0.29l-0.05,0.29
			l0.97-0.84l-1.25,0.26l0.27,0.14l-0.52,0.21c0.09-0.26,0.18-0.52,0.25-0.79l0.74-0.41l-0.02,0.3l0.89-0.92l-1.23,0.37l0.28,0.11
			l-0.59,0.32c0.08-0.29,0.15-0.58,0.21-0.88l0.56-0.36l-0.02,0.3L40.9,27.57"/>
		<path class="st0" d="M17.22,32.95c1.2,0.91,1.89,2.16,2.06,3.18c-0.15-0.11-0.44-0.23-0.61-0.19c-0.16-1.07-0.72-1.93-1.59-2.63
			C17.11,33.14,17.17,33.03,17.22,32.95"/>
		<path class="st0" d="M16.3,33.89c0.29,0.11,0.43,0.07,0.5-0.03c0.15-0.22,0.08-0.5-0.02-0.55l0,0.28
			c-0.02,0.09-0.06,0.23-0.22,0.21l-0.33-0.11l-0.03-0.25l0.1-0.17l-0.23,0.13h-0.26l-0.16-0.22c-0.07-0.15,0.13-0.27,0.25-0.33
			c-0.2,0-0.24,0.08-0.4,0.05c-0.16-0.03-0.2-0.29-0.2-0.38l0.17-0.15l0.25-0.01l-0.01-0.14c-0.16-0.03-0.48,0.02-0.54,0.11
			c-0.08,0.12-0.06,0.18,0,0.38c0.06,0.2,0.11,0.27,0.23,0.29l0.18-0.02l-0.09,0.1c-0.02,0.05-0.06,0.14,0.1,0.33
			c0.14,0.16,0.27,0.23,0.38,0.17l0.12-0.11l-0.05,0.14C16.02,33.77,16.14,33.84,16.3,33.89"/>
		<path class="st0" d="M16.09,32.64l0.39-0.04c-0.08,0.14-0.08,0.39-0.04,0.5C16.15,33.06,16.1,32.78,16.09,32.64"/>
		<path class="st0" d="M16.53,32.63c0.17-0.01,0.23-0.09,0.26-0.18c0.03-0.08,0.12-0.13,0.12-0.01c0,0.12,0,0.18-0.07,0.21
			C16.77,32.69,16.65,32.7,16.53,32.63"/>
		<path class="st0" d="M16.61,32.89l-0.1,0.26l-0.15,0.14l0.28,0.09l0.09-0.05C16.71,33.17,16.65,32.95,16.61,32.89"/>
		<path class="st0" d="M33.39,32.5c0.08,0.14,0.08,0.38,0.04,0.5c0.28-0.05,0.33-0.32,0.35-0.46L33.39,32.5"/>
		<path class="st0" d="M33.34,32.52c-0.17-0.01-0.23-0.09-0.26-0.18c-0.03-0.08-0.12-0.13-0.12-0.01c0,0.12,0,0.18,0.07,0.21
			C33.1,32.58,33.22,32.59,33.34,32.52"/>
		<path class="st0" d="M33.36,33.04l-0.1-0.26c-0.03,0.06-0.09,0.28-0.11,0.43l0.09,0.05l0.28-0.09L33.36,33.04"/>
		<path class="st0" d="M38.31,28.53l0.29,0.08l-4.33,3.42l0,0l-0.1,0.08l-0.02,0l-0.01,0.14l0.22,0.02l0.17,0.15
			c0,0.09-0.05,0.35-0.21,0.37c-0.16,0.02-0.19-0.05-0.4-0.06c0.11,0.07,0.31,0.18,0.24,0.34l-0.16,0.21l-0.25-0.01l-0.23-0.14
			l0.09,0.17l-0.03,0.25l-0.33,0.11c-0.16,0.02-0.2-0.13-0.21-0.21l0.01-0.28c-0.1,0.05-0.18,0.33-0.03,0.55
			c0.07,0.1,0.21,0.15,0.5,0.04c0.15-0.06,0.28-0.11,0.25-0.27l-0.04-0.14l0.11,0.11c0.11,0.07,0.24,0.01,0.38-0.15
			c0.16-0.18,0.13-0.27,0.11-0.32l-0.08-0.1l0.18,0.02c0.13-0.02,0.18-0.08,0.24-0.28c0.07-0.2,0.09-0.26,0.02-0.38l-0.25-0.11
			l4.29-3.39l0.01,0.3l0.77-1.02L38.31,28.53"/>
		<path class="st0" d="M36,29.57l3.05-3.86L39.13,26l0.51-1.17l-1.02,0.77l0.3,0.01l-2.76,3.5c-0.22,0.33-0.45,0.68-0.66,1l0.01,0
			C35.66,29.94,35.83,29.76,36,29.57"/>
		<path class="st0" d="M35.64,30.72c0.26-0.2,0.52-0.41,0.78-0.62l2.54-2.35l0.04,0.3l0.69-1.08l-1.13,0.61l0.29,0.06l-2.55,2.36
			C36.07,30.25,35.85,30.49,35.64,30.72"/>
		<polygon class="st0" points="38.46,30.17 34.88,31.96 34.73,32.08 34.8,32.14 34.81,32.18 38.53,30.32 38.48,30.61 39.44,29.77 
			38.19,30.03 		"/>
		<polygon class="st0" points="33.05,33.96 32.91,33.88 32.27,35.2 32.27,35.21 32.04,35.29 31.28,36.74 31.65,36.63 31.78,36.99 
			32.5,35.51 32.42,35.28 		"/>
		<path class="st0" d="M35.54,31.44c0.24-0.12,0.53-0.26,0.82-0.41l2.38-1.55l-0.02,0.3l0.86-0.95l-1.21,0.41l0.28,0.1l-2.59,1.69
			C35.88,31.17,35.71,31.31,35.54,31.44"/>
		<polygon class="st0" points="32.76,33.6 32.74,33.39 31.89,34.31 31.64,34.33 31.62,34.36 30.44,35.54 30.49,35.54 30.49,35.54 
			30.5,35.54 30.8,35.52 30.85,35.81 31.83,34.52 32.01,34.48 		"/>
		<path class="st0" d="M34.33,31.76c0.1-0.08,0.25-0.2,0.43-0.34l4.18-4.57l0.06,0.29l0.6-1.13l-1.07,0.7l0.3,0.03l-4.37,4.78
			L34.33,31.76"/>
		<path class="st0" d="M30.59,34.88l1.56-1.09c0.18-0.2,0.37-0.41,0.44-0.48l-1.94,1.28l0,0l-0.24-0.05l-0.14,0.09l-1.25,0.78
			l0.35,0.07l0.04,0.26l1.01-0.87L30.59,34.88"/>
		<path class="st0" d="M29.3,35.02l0.62-0.39l0.58-0.4l0.2,0.04c0,0,1.42-0.88,1.76-1.1l0.03-0.02l0.01-0.01l-1.86,0.93L30.41,34
			l-1.48,0.7l0.33,0.12L29.3,35.02"/>
		<polygon class="st0" points="36.32,26.43 36.61,26.38 33.94,31.79 33.99,31.83 34.07,31.89 36.76,26.45 36.9,26.72 37.15,25.46 		
			"/>
		<path class="st0" d="M36.64,27.34l0.3-0.02l-1.68,2.55c-0.2,0.4-0.39,0.79-0.56,1.13l0.03-0.03l2.35-3.55l0.11,0.28l0.41-1.21
			L36.64,27.34"/>
		<path class="st0" d="M12.04,30.55l-0.01-0.01c-0.45-0.25-0.76-0.33-1.38-0.25C11.22,30.33,11.63,30.41,12.04,30.55"/>
		<path class="st0" d="M12.31,33.69c0.07-0.43,0.35-0.94,0.77-1.28c0.29-0.24,0.46-0.33,0.21-0.08
			C12.92,32.72,12.49,33.35,12.31,33.69"/>
		<path class="st0" d="M13.22,34.86c-0.16-0.4-0.02-1.05,0.15-1.47c0.12-0.29,0.42-0.74,0.51-0.78
			C13.56,33.12,13.2,34.47,13.22,34.86"/>
		<path class="st0" d="M11.88,29.24c-0.03-0.15-0.18-0.25-0.33-0.22c-0.15,0.03-0.25,0.18-0.22,0.33c0.03,0.15,0.18,0.25,0.33,0.22
			C11.82,29.54,11.92,29.4,11.88,29.24"/>
		<path class="st0" d="M14.34,29.63c0.01-0.42-0.05-0.86-0.01-1.35c-0.84,0.61-1.13,1.69-0.78,2.44h-0.11
			c-0.16,0.03-0.26,0.19-0.23,0.34c0.03,0.16,0.19,0.26,0.34,0.23c0.16-0.03,0.26-0.19,0.23-0.34l-0.13-0.19
			c-0.14-0.66-0.03-1.49,0.32-1.84c-0.11,0.41-0.31,1.28-0.18,2.09c0.14-0.16,0.24-0.31,0.32-0.46c0.02,0.13,0.05,0.26,0.1,0.39
			c0.02-0.64,0.23-1.27,0.89-1.71c-0.49,0.62-0.76,1.33-0.82,1.88c0.35-0.45,1.16-0.58,1.21-2.34
			C15.1,28.89,14.61,29.19,14.34,29.63"/>
		<path class="st0" d="M14.89,31.43c-0.03-0.17-0.19-0.27-0.36-0.24c-0.17,0.03-0.27,0.19-0.24,0.36c0.03,0.16,0.19,0.27,0.36,0.24
			C14.82,31.76,14.92,31.6,14.89,31.43"/>
		<path class="st0" d="M14.78,32.36c-0.03-0.17-0.19-0.27-0.36-0.24c-0.16,0.03-0.27,0.19-0.24,0.36c0.03,0.17,0.19,0.27,0.36,0.24
			C14.71,32.68,14.82,32.52,14.78,32.36"/>
		<path class="st0" d="M13.01,27.85c-0.62,0.52-0.79,1.17-0.73,1.74l-0.07,0c-0.13,0.03-0.21,0.15-0.18,0.28
			c0.03,0.13,0.15,0.21,0.28,0.18l0.08-0.03c0.06,0.17,0.14,0.32,0.23,0.45c-0.06-0.19-0.09-0.41-0.12-0.62l0-0.07l0-0.02
			c-0.03-0.49,0.04-0.99,0.31-1.35c-0.08,0.53-0.21,1.55-0.09,2.19C12.89,29.93,13.87,29.63,13.01,27.85"/>
		<path class="st0" d="M15.5,31.85c-0.03-0.13-0.15-0.21-0.28-0.19c-0.13,0.03-0.21,0.15-0.19,0.28c0.03,0.13,0.15,0.21,0.28,0.18
			C15.44,32.1,15.52,31.97,15.5,31.85"/>
		<path class="st0" d="M14.18,31.8l-0.26-0.17c-0.12,0.02-0.19,0.14-0.17,0.26l0.26,0.17C14.13,32.04,14.21,31.92,14.18,31.8"/>
		<path class="st0" d="M11.19,28.79L11,28.63c-0.31-0.41-0.75-0.86-1.48-0.94c0.4,0.19,1.01,0.56,1.43,0.94l-0.15,0.23l0.23,0.16
			L11.19,28.79"/>
		<path class="st0" d="M11.2,27.4c-0.03-0.14-0.16-0.23-0.3-0.2l-0.02,0.01c-0.17-0.65-0.33-1.16-1.07-1.67
			c0.37,0.48,0.8,1.17,1.04,1.68c-0.11,0.05-0.18,0.17-0.15,0.29c0.03,0.14,0.16,0.23,0.3,0.2C11.14,27.67,11.23,27.54,11.2,27.4"/>
		<path class="st0" d="M11.95,29.96l-0.23-0.16l-0.13,0.08c-0.66-0.58-1.11-0.58-1.45-0.6c0.21,0.08,0.96,0.29,1.43,0.63l-0.02,0.12
			l0.23,0.17L11.95,29.96"/>
		<path class="st0" d="M12.5,30.78c-0.03-0.16-0.19-0.26-0.34-0.23c-0.16,0.03-0.26,0.19-0.23,0.34c0.03,0.16,0.19,0.26,0.34,0.23
			C12.43,31.09,12.54,30.94,12.5,30.78"/>
		<path class="st0" d="M12.93,31.28l-0.23-0.16l-0.15,0.12c-0.57-0.07-1.19,0.01-1.71,0.3c0.59-0.14,1.2-0.26,1.7-0.26h0l-0.01,0.08
			l0.23,0.17L12.93,31.28"/>
		<path class="st0" d="M13.52,31.63c-0.03-0.14-0.17-0.23-0.31-0.21c-0.14,0.03-0.23,0.17-0.21,0.31l-0.02,0
			c-0.42-0.02-1.12,0.09-1.56,0.6c0.44-0.26,1.15-0.53,1.57-0.58H13c0.04,0.13,0.17,0.22,0.31,0.19
			C13.45,31.91,13.54,31.77,13.52,31.63"/>
		<path class="st3" d="M43.53,16.53c0.69-0.3,1.48-0.16,1.68,0.29c0.2,0.46-0.23,1.14-0.92,1.44c-0.69,0.3-1.48,0.17-1.69-0.29
			C42.4,17.51,42.83,16.84,43.53,16.53 M44.57,18.91c0.87-0.38,1.27-1.35,0.9-2.19c-0.37-0.84-1.35-1.2-2.22-0.82
			c-0.87,0.38-1.28,1.35-0.91,2.19C42.71,18.92,43.7,19.29,44.57,18.91"/>
		<polygon class="st3" points="43.35,21.18 43.02,19.86 43.22,19.81 43.31,20.18 46.09,19.47 46,19.11 46.2,19.06 46.71,21.05 
			46.84,21.01 46.91,21.27 46.14,21.47 46.08,21.21 46.42,21.12 46.17,20.12 45.03,20.41 45.23,21.18 45.55,21.1 45.63,21.36 
			44.68,21.6 44.6,21.34 44.94,21.25 44.75,20.48 43.47,20.8 43.55,21.13 		"/>
		<path class="st3" d="M4.46,17.65l-0.12,0.4l1.8,0.54c0.54,0.16,0.82,0.45,0.89,0.91c0.03,0.24,0.02,0.49-0.06,0.74
			c-0.23,0.77-0.81,1.15-1.46,0.95l-1.93-0.58l-0.11,0.36l-0.2-0.06l0.4-1.34l0.2,0.06L3.76,20l1.78,0.53
			c0.48,0.14,0.73,0.12,0.93-0.08c0.09-0.1,0.17-0.23,0.21-0.37c0.17-0.57-0.07-1.01-0.65-1.18l-1.77-0.53l-0.12,0.39L3.93,18.7
			l0.33-1.11L4.46,17.65"/>
		<path class="st3" d="M7.61,18.43c-0.07,0.17-0.27,0.25-0.44,0.18C7.01,18.53,6.93,18.34,7,18.17c0.07-0.17,0.27-0.25,0.44-0.18
			C7.61,18.06,7.69,18.26,7.61,18.43"/>
		<path class="st3" d="M8.24,17.01L8.1,17.24L7.32,16.8l0.13-0.24l0.32,0.18c0.27-0.11,0.4-0.22,0.53-0.44
			c0.15-0.27,0.1-0.55-0.13-0.68c-0.19-0.11-0.4-0.06-0.89,0.19c-0.51,0.27-0.58,0.3-0.78,0.34c-0.19,0.04-0.39,0-0.58-0.11
			c-0.48-0.27-0.6-0.8-0.3-1.33c0.09-0.17,0.2-0.29,0.36-0.42l-0.13-0.07L5.99,14l0.74,0.42L6.6,14.66l-0.3-0.17
			c-0.22,0.12-0.33,0.21-0.42,0.37c-0.13,0.23-0.06,0.49,0.14,0.6c0.17,0.1,0.34,0.06,0.84-0.21c0.24-0.13,0.39-0.21,0.45-0.24
			c0.13-0.06,0.27-0.1,0.43-0.1c0.18-0.01,0.35,0.03,0.52,0.13c0.49,0.28,0.64,0.83,0.35,1.34c-0.14,0.25-0.3,0.41-0.53,0.54
			L8.24,17.01"/>
		<path class="st3" d="M9.54,14.75c0,0.18-0.14,0.33-0.33,0.33c-0.18,0-0.33-0.14-0.33-0.33c0-0.18,0.14-0.33,0.33-0.33
			C9.4,14.42,9.54,14.57,9.54,14.75"/>
		<polygon class="st3" points="17.25,8.34 15.14,9.43 15.05,9.24 15.38,9.07 14.07,6.52 13.73,6.69 13.64,6.5 15.46,5.56 15.4,5.44 
			15.64,5.32 16,6.02 15.76,6.14 15.6,5.82 14.68,6.3 15.22,7.34 15.93,6.98 15.77,6.68 16.01,6.55 16.46,7.42 16.22,7.55 
			16.06,7.24 15.35,7.6 15.92,8.7 16.88,8.2 16.71,7.88 16.95,7.75 		"/>
		<path class="st3" d="M19.28,7.61l-1.37,0.45l-0.07-0.2l0.36-0.12l-0.9-2.72l-0.36,0.12l-0.07-0.2l1.43-0.48
			c0.58-0.19,1.09,0.03,1.27,0.58c0.17,0.51-0.14,1.09-0.7,1.27c-0.08,0.03-0.13,0.04-0.27,0.06l-0.08-0.23l0.13-0.03
			c0.32-0.11,0.42-0.4,0.28-0.82c-0.15-0.44-0.4-0.62-0.74-0.51l-0.28,0.09l0.88,2.66l0.4-0.13L19.28,7.61"/>
		<path class="st3" d="M20.9,5.8l0.28-1.31l0.68,1.15L20.9,5.8z M23.33,6.5l-0.21,0.03l-1.76-2.92l-0.3,0.05l-0.72,3.36l-0.3,0.05
			l0.04,0.21l1.02-0.18L21.05,6.9l-0.39,0.07l0.18-0.85l1.19-0.21l0.44,0.74l-0.34,0.06l0.04,0.21l1.2-0.21L23.33,6.5z"/>
		<path class="st3" d="M24.74,3.7l0.32,0c0.35,0,0.56,0.23,0.56,0.63c0,0.39-0.24,0.67-0.58,0.67l-0.3,0L24.74,3.7 M26.77,6.5h-0.2
			c-0.1,0-0.16-0.05-0.27-0.22L25.58,5.2c0.47-0.14,0.7-0.43,0.7-0.88c0-0.26-0.08-0.48-0.24-0.64c-0.18-0.18-0.42-0.24-0.85-0.24
			l-1.47,0v0.21l0.38,0L24.1,6.5l-0.38,0v0.21l1.39,0V6.5h-0.37l0-1.26l0.14,0l0.74,1.17c0.17,0.26,0.22,0.29,0.51,0.29l0.63,0
			L26.77,6.5z"/>
		<polygon class="st3" points="29.02,7.11 27.44,6.85 27.47,6.64 27.95,6.72 28.41,3.97 27.56,3.83 27.5,4.24 27.23,4.19 
			27.37,3.36 27.64,3.4 27.61,3.54 29.94,3.94 29.97,3.8 30.24,3.84 30.09,4.68 29.82,4.63 29.89,4.23 29.05,4.08 28.59,6.83 
			29.06,6.91 		"/>
		<polygon class="st3" points="33.68,8.69 32.3,8.15 32.37,7.96 32.76,8.11 33.54,6.1 31.65,7.95 31.38,5.31 30.62,7.28 31.01,7.43 
			30.94,7.62 29.86,7.21 29.94,7.01 30.33,7.16 31.37,4.49 30.98,4.34 31.05,4.14 31.87,4.46 32.14,7.05 33.95,5.26 34.86,5.62 
			34.79,5.81 34.4,5.66 33.36,8.34 33.75,8.49 		"/>
		<polygon class="st3" points="36.1,10.27 34.1,9 34.22,8.82 34.53,9.02 36.08,6.6 35.76,6.4 35.87,6.22 37.6,7.33 37.68,7.21 
			37.9,7.36 37.48,8.02 37.25,7.88 37.45,7.58 36.58,7.02 35.94,8.01 36.61,8.44 36.8,8.16 37.03,8.3 36.5,9.12 36.27,8.98 
			36.46,8.69 35.78,8.26 35.12,9.3 36.03,9.88 36.23,9.57 36.46,9.71 		"/>
		<path class="st3" d="M14,8.23c-0.54-0.74-1.56-0.89-2.32-0.33l-1.25,0.92l0.12,0.17l0.3-0.22l1.7,2.31l0.24,0.09l0.83-0.61
			c0.39-0.29,0.6-0.61,0.67-1.03C14.38,9.06,14.28,8.6,14,8.23 M13.36,10.41l-0.33,0.24l-1.62-2.2l0.34-0.25
			c0.47-0.35,1.24-0.14,1.68,0.45C13.9,9.28,13.87,10.04,13.36,10.41"/>
		<path class="st3" d="M40.34,9.59L40.2,9.74l0.29,0.27l-1.41,1.54l0.35-2.78L38.71,8.1l-0.14,0.15l0.26,0.24l-0.05,0.29l-1.76,1.93
			l-0.3-0.28l-0.14,0.15l0.83,0.76l0.14-0.15l-0.29-0.27l1.47-1.61l-0.31,2.56c0.3-0.08,0.63-0.17,0.98-0.27l0.08-0.02l1.25-1.38
			l0.31,0.28l0.14-0.16L40.34,9.59"/>
		<polygon class="st3" points="43.7,13.21 43.59,13.3 42.15,11.42 42.26,11.34 42.1,11.12 41.42,11.63 41.59,11.85 41.92,11.6 
			42.44,12.28 40.23,13.97 40.11,13.83 39.92,13.92 40.75,14.99 40.91,14.86 40.62,14.49 42.83,12.79 43.35,13.47 43.02,13.73 
			43.19,13.94 43.86,13.43 		"/>
		<path class="st3" d="M29.13,47.42l-0.27,0.06l-0.19-0.88l0.27-0.06l0.08,0.36c0.26,0.13,0.43,0.15,0.67,0.1
			c0.3-0.07,0.48-0.29,0.43-0.55c-0.05-0.22-0.22-0.34-0.74-0.54c-0.54-0.2-0.61-0.23-0.77-0.35c-0.15-0.12-0.26-0.3-0.31-0.51
			c-0.12-0.54,0.2-0.98,0.79-1.11c0.19-0.04,0.35-0.05,0.55-0.01l-0.03-0.15l0.26-0.06l0.18,0.83l-0.26,0.06l-0.07-0.34
			c-0.23-0.09-0.37-0.11-0.55-0.07c-0.25,0.06-0.41,0.28-0.36,0.51c0.04,0.19,0.18,0.29,0.71,0.49c0.26,0.1,0.42,0.15,0.48,0.18
			c0.13,0.05,0.25,0.14,0.37,0.25c0.13,0.13,0.2,0.28,0.25,0.47c0.12,0.55-0.2,1.03-0.77,1.16c-0.28,0.06-0.5,0.05-0.75-0.03
			L29.13,47.42"/>
		<polygon class="st3" points="34.2,45.83 31.99,46.69 31.91,46.5 32.27,46.36 31.22,43.69 30.86,43.83 30.79,43.63 32.7,42.88 
			32.65,42.75 32.9,42.65 33.19,43.39 32.94,43.49 32.81,43.15 31.85,43.53 32.28,44.63 33.02,44.33 32.89,44.02 33.14,43.92 
			33.5,44.83 33.25,44.93 33.13,44.61 32.38,44.9 32.83,46.04 33.84,45.65 33.7,45.31 33.96,45.21 		"/>
		<path class="st3" d="M37.52,43.8c-0.28,0.35-0.48,0.53-0.8,0.73c-0.9,0.54-1.91,0.33-2.42-0.52c-0.51-0.84-0.25-1.85,0.61-2.37
			c0.28-0.17,0.49-0.24,0.8-0.29l-0.11-0.18l0.23-0.14l0.46,0.76l-0.24,0.14l-0.17-0.27c-0.35-0.02-0.51,0.01-0.74,0.15
			c-0.59,0.36-0.7,1.1-0.28,1.81c0.42,0.69,1.2,0.95,1.79,0.59c0.21-0.13,0.34-0.27,0.46-0.51l-0.2-0.32l0.24-0.14L37.52,43.8"/>
		<path class="st3" d="M39.02,38.66l-0.31,0.28l1.26,1.39c0.38,0.42,0.47,0.81,0.29,1.24c-0.09,0.22-0.24,0.43-0.43,0.6
			c-0.6,0.54-1.28,0.57-1.75,0.06l-1.36-1.49L36.45,41l-0.14-0.15l1.03-0.94l0.14,0.15l-0.28,0.25l1.25,1.37
			c0.34,0.37,0.56,0.48,0.84,0.41c0.13-0.04,0.26-0.11,0.37-0.21c0.44-0.4,0.46-0.9,0.05-1.35l-1.25-1.37l-0.3,0.28l-0.14-0.16
			l0.85-0.78L39.02,38.66"/>
		<polygon class="st3" points="44.61,35.76 43.95,36.98 43.76,36.88 43.94,36.55 41.42,35.18 41.24,35.52 41.06,35.41 41.72,34.19 
			41.9,34.29 41.73,34.62 44.25,35.98 44.43,35.66 		"/>
		<polygon class="st3" points="45.88,32.77 45.32,34.28 45.12,34.2 45.29,33.75 42.69,32.77 42.38,33.57 42.77,33.72 42.67,33.98 
			41.88,33.68 41.98,33.42 42.11,33.47 42.94,31.26 42.81,31.21 42.91,30.95 43.7,31.25 43.6,31.51 43.22,31.37 42.91,32.17 
			45.52,33.15 45.69,32.7 		"/>
		<polygon class="st3" points="46.77,29.11 46.5,30.48 46.29,30.44 46.37,30.07 45.02,29.81 43.36,30.49 43.3,30.8 43.1,30.76 
			43.36,29.39 43.57,29.43 43.5,29.79 44.7,29.3 43.76,28.44 43.68,28.86 43.47,28.82 43.7,27.68 43.9,27.72 43.83,28.07 
			45.01,29.15 46.49,29.44 46.56,29.07 		"/>
		<path class="st3" d="M43.41,37.55l-0.12,0.16c-0.06,0.08-0.13,0.1-0.34,0.09l-1.29-0.08c0.16-0.46,0.07-0.82-0.29-1.09
			c-0.21-0.16-0.43-0.22-0.66-0.19c-0.25,0.04-0.45,0.19-0.7,0.54l-0.88,1.18l0.17,0.13l0.23-0.3l2.3,1.71L41.6,40l0.17,0.12
			l0.83-1.12l-0.17-0.13l-0.22,0.3l-1.01-0.75l0.08-0.11l1.38,0.1c0.31,0.02,0.37,0,0.54-0.24l0.38-0.51L43.41,37.55 M39.96,37.51
			l0.19-0.25c0.21-0.28,0.52-0.31,0.84-0.08c0.32,0.24,0.4,0.59,0.19,0.86L41,38.29L39.96,37.51z"/>
		<polygon class="st3" points="3.94,32.19 3.6,30.84 3.81,30.79 3.9,31.15 5.17,30.84 4.78,29.26 3.51,29.58 3.6,29.94 3.4,29.99 
			3.07,28.63 3.27,28.58 3.36,28.95 6.15,28.27 6.06,27.9 6.26,27.85 6.59,29.21 6.39,29.26 6.3,28.89 5.07,29.19 5.46,30.77 
			6.68,30.47 6.59,30.11 6.8,30.05 7.13,31.41 6.93,31.46 6.84,31.09 4.05,31.77 4.14,32.14 		"/>
		<path class="st3" d="M5.83,32.95c0.69-0.31,1.48-0.18,1.68,0.27c0.21,0.46-0.21,1.14-0.9,1.45c-0.69,0.31-1.48,0.19-1.69-0.27
			C4.72,33.94,5.15,33.26,5.83,32.95 M6.91,35.31c0.86-0.39,1.25-1.37,0.87-2.21c-0.38-0.83-1.37-1.19-2.23-0.79
			c-0.87,0.39-1.25,1.37-0.87,2.21C5.05,35.35,6.04,35.7,6.91,35.31"/>
		<polygon class="st3" points="8.17,40.04 7.3,38.84 7.47,38.72 7.72,39.06 9.46,37.79 6.87,38.32 8.07,35.96 6.37,37.2 6.62,37.54 
			6.45,37.66 5.77,36.73 5.94,36.61 6.19,36.94 8.51,35.26 8.26,34.92 8.43,34.8 8.95,35.51 7.77,37.83 10.25,37.31 10.83,38.11 
			10.67,38.23 10.42,37.89 8.1,39.58 8.34,39.92 		"/>
		<polygon class="st3" points="10.77,42.59 9.02,40.98 9.16,40.83 9.44,41.08 11.39,38.97 11.11,38.72 11.25,38.56 12.76,39.95 
			12.85,39.85 13.05,40.03 12.52,40.61 12.32,40.44 12.56,40.17 11.8,39.47 11.01,40.33 11.59,40.88 11.82,40.63 12.02,40.8 
			11.36,41.53 11.16,41.35 11.39,41.09 10.81,40.55 9.97,41.46 10.77,42.19 11.02,41.92 11.21,42.1 		"/>
		<polygon class="st3" points="13.73,44.62 11.78,43.31 11.9,43.13 12.21,43.35 13.81,40.96 13.5,40.75 13.62,40.58 14.77,41.36 
			14.66,41.53 14.35,41.32 12.79,43.63 13.67,44.23 13.88,43.92 14.1,44.07 		"/>
		<path class="st3" d="M15.72,44.2l0.98-0.92l-0.08,1.33L15.72,44.2z M17.32,46.15l-0.19-0.09l0.19-3.41l-0.28-0.13l-2.49,2.36
			l-0.28-0.13l-0.09,0.19l0.94,0.43l0.08-0.19l-0.36-0.17l0.63-0.6l1.1,0.5l-0.05,0.86l-0.32-0.14l-0.09,0.19l1.1,0.5L17.32,46.15z"
			/>
		<polygon class="st3" points="20.77,47.32 20.43,47.24 19.31,44.46 18.81,46.58 19.19,46.67 19.14,46.88 18.05,46.61 18.09,46.41 
			18.5,46.51 19.1,43.96 19.01,43.68 18.66,43.59 18.71,43.39 19.67,43.62 20.71,46.23 21.19,44.2 20.81,44.11 20.86,43.91 
			21.95,44.17 21.91,44.37 21.5,44.27 		"/>
		<path class="st3" d="M24,44.28l-1.55-0.06l-0.01,0.21l0.38,0.01l-0.1,2.87h0l-0.38-0.01l-0.01,0.21l1.55,0.06h0h0
			c0.49,0.02,0.85-0.1,1.17-0.39c0.35-0.32,0.55-0.74,0.57-1.2C25.65,45.06,24.94,44.32,24,44.28 M24.91,45.96
			c-0.03,0.78-0.52,1.36-1.15,1.33l-0.4-0.01l0.1-2.73l0.42,0.02C24.47,44.58,24.94,45.22,24.91,45.96"/>
		<path class="st0" d="M12.44,26.45c-0.95,0.42-1.39,1.6-0.9,2.47C11.98,28.29,12.82,28.15,12.44,26.45 M11.54,28.88
			c-0.11-0.48,0.18-1.75,0.61-2.01C11.87,27.48,11.76,28.05,11.54,28.88"/>
		<path class="st0" d="M11.47,24.67c-0.3,0.12-0.74,0.55-0.93,1.1l0.19,0.27c0.11-0.41,0.34-0.88,0.57-1.08
			c-0.15,0.26-0.36,0.83-0.47,1.29c0.11,0.25,0.16,0.51,0.15,0.76C11.56,26.48,11.77,25.56,11.47,24.67"/>
	</g>
</g>
</svg>
