<?xml version="1.0" encoding="utf-8"?>
<!-- Generator: Adobe Illustrator 25.0.1, SVG Export Plug-In . SVG Version: 6.00 Build 0)  -->
<svg version="1.1" id="Layer_1" xmlns="http://www.w3.org/2000/svg" xmlns:xlink="http://www.w3.org/1999/xlink" x="0px" y="0px"
	 viewBox="0 0 576 388.5" style="enable-background:new 0 0 576 388.5;" xml:space="preserve">
<style type="text/css">
	.st0{fill:#FFFFFF;}
</style>
<path class="st0" d="M572.5,179.6C518.3,73.8,410.9,2.2,288,2.2S57.7,73.8,3.5,179.6c-4.6,9.2-4.6,20,0,29.2
	C57.7,314.6,165.1,386.2,288,386.2s230.3-71.6,284.5-177.4C577.2,199.6,577.2,188.8,572.5,179.6z M288,338.2
	c-98.6,0-189.1-55-237.9-144c48.8-89,139.3-144,237.9-144s189.1,55,237.9,144C477.1,283.2,386.7,338.2,288,338.2z"/>
<circle class="st0" cx="288.3" cy="194.2" r="107.5"/>
</svg>
