<?xml version="1.0" encoding="utf-8"?>
<!-- Generator: Adobe Illustrator 16.0.0, SVG Export Plug-In . SVG Version: 6.00 Build 0)  -->
<!DOCTYPE svg PUBLIC "-//W3C//DTD SVG 1.1//EN" "http://www.w3.org/Graphics/SVG/1.1/DTD/svg11.dtd">
<svg version="1.1" id="Layer_1" xmlns="http://www.w3.org/2000/svg" xmlns:xlink="http://www.w3.org/1999/xlink" x="0px" y="0px"
	 width="180px" height="83.992px" viewBox="0 0 180 83.992" enable-background="new 0 0 180 83.992" xml:space="preserve">
<g>
	<g>
		<defs>
			<path id="SVGID_1_" d="M155.139,27.151c0-0.656,0.2-1.169,0.57-1.598c0.456,0.657,0.941,1.284,1.398,1.883
				c0.342,0.457,0.856,1.056,1.455,1.741c-0.457,0.171-0.912,0.285-1.369,0.285C156.08,29.461,155.139,28.491,155.139,27.151
				 M157.734,18.592c0-0.742,0.544-1.284,1.313-1.284c0.628,0,1.113,0.456,1.113,1.055c0,0.942-0.77,1.569-1.882,2.112
				C157.935,19.79,157.734,19.134,157.734,18.592 M152.713,18.449c0,1.226,0.429,2.567,1.056,3.88
				c-2.139,1.026-3.993,2.51-3.993,5.335c0,3.852,2.938,5.734,6.647,5.734c1.769,0,3.366-0.484,4.765-1.283
				c0.313,0.371,0.627,0.685,0.855,0.941h6.334c-1.284-1.398-2.481-2.711-3.623-4.051c1.055-1.284,1.939-2.768,2.682-4.279
				l-3.966-1.883c-0.314,1.027-0.798,2.083-1.398,3.024l-1.027-1.312c-0.313-0.428-0.684-0.885-1.055-1.399
				c2.253-0.97,4.479-2.168,4.479-5.107c0-2.71-2.767-4.308-5.677-4.308C155.168,13.742,152.713,15.853,152.713,18.449"/>
		</defs>
		<use xlink:href="#SVGID_1_"  overflow="visible" fill="#F1F2F2"/>
		<clipPath id="SVGID_2_">
			<use xlink:href="#SVGID_1_"  overflow="visible"/>
		</clipPath>
		<polygon clip-path="url(#SVGID_2_)" fill="#F1F2F2" points="150.072,33.561 149.636,13.793 149.232,13.793 149.67,33.561 		"/>
		<path clip-path="url(#SVGID_2_)" fill="#F1F2F2" d="M150.465,33.561c-0.182-4.458,0.059-13.075,0.305-19.768h-0.404
			c-0.244,6.684-0.483,15.281-0.303,19.768H150.465z"/>
		<rect x="147.791" y="13.793" clip-path="url(#SVGID_2_)" fill="#F1F2F2" width="0.403" height="19.768"/>
		<path clip-path="url(#SVGID_2_)" fill="#F1F2F2" d="M151.141,33.561h0.404c-0.075-2.842-0.245-7.897-0.542-9.597
			c-0.194-1.129,0.091-5.731,0.437-10.171h-0.407c-0.346,4.454-0.629,9.073-0.425,10.247
			C150.895,25.688,151.064,30.723,151.141,33.561"/>
		<path clip-path="url(#SVGID_2_)" fill="#F1F2F2" d="M152.854,33.561V28.95c0-2.106,0.204-9.167,0.39-15.157h-0.403
			c-0.187,5.99-0.39,13.048-0.39,15.157v4.611H152.854z"/>
		<path clip-path="url(#SVGID_2_)" fill="#F1F2F2" d="M147.066,33.561c0.295-4.679,0.992-16.059,1.051-19.768h-0.404
			c-0.061,3.681-0.761,15.13-1.052,19.768H147.066z"/>
		<rect x="153.691" y="13.793" clip-path="url(#SVGID_2_)" fill="#F1F2F2" width="0.403" height="19.768"/>
		<path clip-path="url(#SVGID_2_)" fill="#F1F2F2" d="M153.793,33.561h0.403c0.015-1.862,0.023-4.506-0.024-6.287
			c-0.043-1.599,0.298-7.933,0.622-13.481h-0.405c-0.326,5.544-0.663,11.861-0.62,13.493
			C153.816,29.062,153.809,31.702,153.793,33.561"/>
		<polygon clip-path="url(#SVGID_2_)" fill="#F1F2F2" points="161.973,33.561 162.41,13.793 162.007,13.793 161.57,33.561 		"/>
		<path clip-path="url(#SVGID_2_)" fill="#F1F2F2" d="M160.604,33.561h0.402c0.18-4.487-0.06-13.084-0.303-19.768h-0.404
			C160.545,20.486,160.783,29.104,160.604,33.561"/>
		<rect x="155.243" y="13.793" clip-path="url(#SVGID_2_)" fill="#F1F2F2" width="0.403" height="19.768"/>
		<path clip-path="url(#SVGID_2_)" fill="#F1F2F2" d="M158.609,33.561h0.403V28.95c0-2.109-0.204-9.167-0.389-15.157h-0.403
			c0.186,5.99,0.389,13.051,0.389,15.157V33.561z"/>
		<path clip-path="url(#SVGID_2_)" fill="#F1F2F2" d="M163.563,33.561c-0.291-4.638-0.991-16.087-1.052-19.768h-0.402
			c0.057,3.709,0.754,15.089,1.049,19.768H163.563z"/>
		<rect x="156.974" y="13.793" clip-path="url(#SVGID_2_)" fill="#F1F2F2" width="0.403" height="19.768"/>
		<path clip-path="url(#SVGID_2_)" fill="#F1F2F2" d="M156.444,27.274c-0.048,1.781-0.04,4.425-0.024,6.287h0.402
			c-0.015-1.859-0.023-4.499,0.025-6.275c0.044-1.631-0.295-7.949-0.62-13.492h-0.405C156.147,19.34,156.487,25.675,156.444,27.274"
			/>
		<path clip-path="url(#SVGID_2_)" fill="#F1F2F2" d="M174.195,33.561c0.146-4.473,0.471-14.642,0.578-19.768h-0.404
			c-0.107,5.127-0.433,15.304-0.578,19.768H174.195z"/>
		<rect x="172.769" y="13.793" clip-path="url(#SVGID_2_)" fill="#F1F2F2" width="0.403" height="19.768"/>
		<path clip-path="url(#SVGID_2_)" fill="#F1F2F2" d="M172.044,33.561c0.296-4.689,0.993-16.071,1.05-19.768h-0.402
			c-0.061,3.668-0.761,15.121-1.053,19.768H172.044z"/>
		<polygon clip-path="url(#SVGID_2_)" fill="#F1F2F2" points="165.241,33.561 165.68,13.793 165.275,13.793 164.838,33.561 		"/>
		<path clip-path="url(#SVGID_2_)" fill="#F1F2F2" d="M166.59,33.561c-0.177-4.012-0.535-12.775-0.629-19.768h-0.403
			c0.094,6.997,0.451,15.746,0.628,19.768H166.59z"/>
		<rect x="171.219" y="13.793" clip-path="url(#SVGID_2_)" fill="#F1F2F2" width="0.402" height="19.768"/>
		<path clip-path="url(#SVGID_2_)" fill="#F1F2F2" d="M167.573,33.561c-0.424-4.679-1.348-15.421-1.034-17.232
			c0.097-0.553,0.179-1.465,0.249-2.536h-0.405c-0.068,1.045-0.147,1.932-0.24,2.46c-0.326,1.878,0.594,12.582,1.025,17.308H167.573
			z"/>
		<path clip-path="url(#SVGID_2_)" fill="#F1F2F2" d="M168.377,33.561c-0.145-4.464-0.471-14.641-0.578-19.768h-0.403
			c0.107,5.126,0.433,15.295,0.577,19.768H168.377z"/>
		<path clip-path="url(#SVGID_2_)" fill="#F1F2F2" d="M164.617,27.283c-0.049,1.778-0.04,4.416-0.025,6.278h0.403
			c-0.015-1.858-0.023-4.493,0.023-6.266c0.045-1.632-0.293-7.955-0.618-13.501h-0.407
			C164.319,19.343,164.659,25.683,164.617,27.283"/>
		<rect x="169.487" y="13.793" clip-path="url(#SVGID_2_)" fill="#F1F2F2" width="0.403" height="19.768"/>
		<path clip-path="url(#SVGID_2_)" fill="#F1F2F2" d="M171.02,33.561c-0.291-4.647-0.992-16.1-1.051-19.768h-0.403
			c0.057,3.697,0.754,15.079,1.049,19.768H171.02z"/>
		<path clip-path="url(#SVGID_2_)" fill="#F1F2F2" d="M159.38,33.561h0.404c0.179-4.487-0.06-13.084-0.304-19.768h-0.404
			C159.321,20.486,159.562,29.104,159.38,33.561"/>
		<rect x="167.148" y="23.671" clip-path="url(#SVGID_2_)" fill="#F1F2F2" width="1.328" height="2.804"/>
		<path clip-path="url(#SVGID_2_)" fill="#F1F2F2" d="M163.557,33.561h0.402V28.95c0-2.109-0.203-9.167-0.389-15.157h-0.403
			c0.186,5.99,0.39,13.051,0.39,15.157V33.561z"/>
		<path clip-path="url(#SVGID_2_)" fill="#F1F2F2" d="M161.462,33.561h0.403c0.181-4.487-0.059-13.084-0.304-19.768h-0.403
			C161.403,20.486,161.644,29.104,161.462,33.561"/>
		<rect x="151.643" y="13.793" clip-path="url(#SVGID_2_)" fill="#F1F2F2" width="0.403" height="19.768"/>
		<path clip-path="url(#SVGID_2_)" fill="#F1F2F2" d="M157.94,27.274c0.048,1.781,0.039,4.425,0.023,6.287h-0.403
			c0.016-1.859,0.023-4.499-0.023-6.275c-0.044-1.631,0.293-7.949,0.619-13.492h0.406C158.237,19.34,157.897,25.675,157.94,27.274"
			/>
		<rect x="154.473" y="13.793" clip-path="url(#SVGID_2_)" fill="#F1F2F2" width="0.403" height="19.768"/>
	</g>
	<polygon fill="#F1F2F2" points="82.301,26.194 74.52,26.194 74.52,33.112 71.009,33.112 71.009,16.633 74.52,16.633 74.52,23.106 
		82.301,23.106 82.301,16.633 85.835,16.633 85.835,33.112 82.301,33.112 	"/>
	<path fill="#F1F2F2" d="M94.391,20.883c3.56,0,5.981,2.667,5.981,6.572v0.69H91.5c0.199,1.507,1.408,2.768,3.436,2.768
		c1.112,0,2.419-0.445,3.187-1.187l1.386,2.027c-1.213,1.111-3.064,1.655-4.92,1.655c-3.632,0-6.373-2.446-6.373-6.276
		C88.215,23.674,90.76,20.883,94.391,20.883 M91.452,26.021h5.879c-0.073-1.137-0.864-2.644-2.94-2.644
		C92.438,23.378,91.601,24.836,91.452,26.021"/>
	<path fill="#F1F2F2" d="M110.835,31.605c-0.94,1.161-2.248,1.804-3.68,1.804c-3.015,0-5.288-2.273-5.288-6.252
		c0-3.902,2.247-6.274,5.288-6.274c1.405,0,2.739,0.617,3.68,1.828v-1.532h3.161v11.934h-3.161V31.605z M110.835,25.057
		c-0.544-0.791-1.656-1.358-2.718-1.358c-1.78,0-3.013,1.384-3.013,3.458c0,2.051,1.232,3.46,3.013,3.46
		c1.062,0,2.174-0.569,2.718-1.36V25.057z"/>
	<path fill="#F1F2F2" d="M117.098,30.147V16.633h3.138v12.675c0,0.74,0.396,1.309,1.088,1.309c0.47,0,0.913-0.174,1.062-0.346
		l0.668,2.372c-0.469,0.42-1.311,0.767-2.595,0.767C118.26,33.409,117.098,32.272,117.098,30.147"/>
	<path fill="#F1F2F2" d="M125.07,30.147v-6.225h-1.976v-2.744h1.976v-3.261h3.163v3.261h2.42v2.744h-2.42v5.386
		c0,0.74,0.396,1.309,1.088,1.309c0.468,0,0.913-0.174,1.085-0.346l0.669,2.372c-0.47,0.42-1.31,0.767-2.619,0.767
		C126.258,33.409,125.07,32.272,125.07,30.147"/>
	<path fill="#F1F2F2" d="M140.878,25.848c0-1.656-0.864-2.174-2.223-2.174c-1.213,0-2.177,0.692-2.72,1.409v8.029h-3.14V16.633h3.14
		v6.104c0.766-0.915,2.25-1.854,4.199-1.854c2.618,0,3.879,1.433,3.879,3.755v8.474h-3.136V25.848z"/>
	<polygon fill="#F1F2F2" points="82.209,43.579 79.341,54.894 75.61,54.894 70.893,38.415 74.819,38.415 77.712,50.323 
		80.851,38.415 83.59,38.415 86.706,50.323 89.571,38.415 93.523,38.415 88.828,54.894 85.098,54.894 	"/>
	<path fill="#F1F2F2" d="M99.508,42.665c3.558,0,5.979,2.667,5.979,6.572v0.691h-8.868c0.195,1.507,1.408,2.767,3.432,2.767
		c1.112,0,2.423-0.444,3.189-1.185l1.383,2.026c-1.21,1.111-3.064,1.655-4.916,1.655c-3.633,0-6.377-2.445-6.377-6.276
		C93.33,45.456,95.876,42.665,99.508,42.665 M96.567,47.804h5.883c-0.075-1.137-0.865-2.644-2.942-2.644
		C97.558,45.161,96.716,46.619,96.567,47.804"/>
	<path fill="#F1F2F2" d="M107.749,51.929V38.415h3.139V51.09c0,0.739,0.396,1.31,1.085,1.31c0.47,0,0.915-0.174,1.064-0.346
		l0.665,2.371c-0.469,0.421-1.308,0.767-2.595,0.767C108.912,55.192,107.749,54.055,107.749,51.929"/>
	<path fill="#F1F2F2" d="M115.103,51.929V38.415h3.139V51.09c0,0.739,0.396,1.31,1.087,1.31c0.471,0,0.913-0.174,1.063-0.346
		l0.669,2.371c-0.47,0.421-1.312,0.767-2.596,0.767C116.266,55.192,115.103,54.055,115.103,51.929"/>
	<path fill="#F1F2F2" d="M130.514,47.681c0-1.655-0.864-2.226-2.197-2.226c-1.236,0-2.199,0.693-2.719,1.409v8.029h-3.139V42.961
		h3.139v1.557c0.767-0.915,2.224-1.853,4.176-1.853c2.619,0,3.879,1.482,3.879,3.804v8.425h-3.139V47.681z"/>
	<path fill="#F1F2F2" d="M142.165,42.665c3.558,0,5.979,2.667,5.979,6.572v0.691h-8.872c0.199,1.507,1.409,2.767,3.437,2.767
		c1.111,0,2.42-0.444,3.186-1.185l1.386,2.026c-1.213,1.111-3.064,1.655-4.919,1.655c-3.633,0-6.373-2.445-6.373-6.276
		C135.988,45.456,138.533,42.665,142.165,42.665 M139.226,47.804h5.878c-0.073-1.137-0.864-2.644-2.938-2.644
		C140.213,45.161,139.375,46.619,139.226,47.804"/>
	<path fill="#F1F2F2" d="M150.726,51.14c0.864,0.815,2.642,1.63,4.125,1.63c1.358,0,2.004-0.47,2.004-1.21
		c0-0.841-1.041-1.138-2.399-1.409c-2.051-0.396-4.693-0.889-4.693-3.73c0-2.002,1.754-3.755,4.893-3.755
		c2.024,0,3.632,0.691,4.791,1.63l-1.232,2.149c-0.718-0.767-2.078-1.384-3.535-1.384c-1.135,0-1.878,0.421-1.878,1.111
		c0,0.741,0.939,1.014,2.273,1.285c2.051,0.396,4.794,0.939,4.794,3.905c0,2.197-1.854,3.829-5.166,3.829
		c-2.074,0-4.074-0.692-5.334-1.853L150.726,51.14z"/>
	<path fill="#F1F2F2" d="M162.502,51.14c0.861,0.815,2.641,1.63,4.125,1.63c1.357,0,2-0.47,2-1.21c0-0.841-1.037-1.138-2.396-1.409
		c-2.052-0.396-4.696-0.889-4.696-3.73c0-2.002,1.756-3.755,4.893-3.755c2.027,0,3.631,0.691,4.794,1.63l-1.236,2.149
		c-0.718-0.767-2.075-1.384-3.531-1.384c-1.139,0-1.878,0.421-1.878,1.111c0,0.741,0.938,1.014,2.273,1.285
		c2.048,0.396,4.791,0.939,4.791,3.905c0,2.197-1.853,3.829-5.163,3.829c-2.074,0-4.078-0.692-5.338-1.853L162.502,51.14z"/>
	<path fill="#F1F2F2" d="M180,69.478H0V0h180V69.478z M0.65,68.828H179.35V0.65H0.65V68.828z"/>
	<rect x="60.16" y="6.294" fill="#F1F2F2" width="0.598" height="56.397"/>
	<path fill="#F1F2F2" d="M19.963,76.428c1.412,0,2.224,0.761,2.562,1.635l-1.185,0.4c-0.226-0.607-0.771-0.945-1.437-0.945
		c-1.09,0-2.017,0.953-2.017,2.215c0,0.9,0.631,1.576,1.627,1.576c0.494,0,1.03-0.26,1.359-0.666l0.944,0.64
		c-0.66,0.849-1.62,1.116-2.372,1.116c-1.593,0-2.838-1.012-2.838-2.588C16.606,77.769,18.172,76.428,19.963,76.428"/>
	<path fill="#F1F2F2" d="M25.038,81.872c-0.311,0.328-0.709,0.527-1.246,0.527c-0.709,0-1.376-0.396-1.376-1.211
		c0-0.952,0.709-1.522,1.549-1.522c0.605,0,1.055,0.172,1.437,0.563l0.104-0.476c0.009-0.037,0.026-0.157,0.026-0.217
		c0-0.383-0.399-0.632-0.97-0.632c-0.442,0-0.831,0.146-1.168,0.397l-0.269-0.778c0.494-0.347,1.066-0.511,1.661-0.511
		c0.989,0,1.872,0.371,1.872,1.333c0,0.086-0.027,0.328-0.053,0.44l-0.553,2.51h-1.108L25.038,81.872z M25.281,80.799
		c-0.165-0.243-0.527-0.391-0.944-0.391c-0.483,0-0.794,0.284-0.794,0.693c0,0.363,0.293,0.553,0.753,0.553
		c0.379,0,0.666-0.13,0.874-0.346L25.281,80.799z"/>
	<path fill="#F1F2F2" d="M28.103,78.116h1.1l-0.13,0.555c0.372-0.399,0.823-0.649,1.48-0.649l-0.234,1.09
		c-0.069-0.018-0.225-0.053-0.406-0.053c-0.399,0-0.788,0.226-1.04,0.503l-0.598,2.734h-1.099L28.103,78.116z"/>
	<path fill="#F1F2F2" d="M31.333,78.116h1.099l-0.926,4.18h-1.099L31.333,78.116z M32.207,76.262c0.347,0,0.598,0.26,0.598,0.563
		c0,0.476-0.408,0.754-0.737,0.754c-0.346,0-0.596-0.261-0.596-0.563C31.472,76.532,31.878,76.262,32.207,76.262"/>
	<path fill="#F1F2F2" d="M36.086,79.802c0.017-0.077,0.042-0.189,0.042-0.276c0-0.388-0.311-0.535-0.641-0.535
		c-0.449,0-0.812,0.25-1.055,0.482l-0.624,2.822H32.71l0.926-4.18h1.099l-0.121,0.545c0.329-0.319,0.779-0.648,1.394-0.648
		c0.804,0,1.307,0.424,1.307,1.063c0,0.077-0.026,0.261-0.044,0.347l-0.64,2.873h-1.099L36.086,79.802z"/>
	<path fill="#F1F2F2" d="M38.217,82.53c0.267,0.372,0.814,0.563,1.359,0.563c0.51,0,0.995-0.233,1.185-1.082l0.087-0.381
		c-0.32,0.388-0.771,0.631-1.281,0.631c-0.84,0-1.575-0.483-1.575-1.695c0-1.272,0.805-2.553,2.163-2.553
		c0.503,0,1.048,0.249,1.351,0.658l0.122-0.555h1.107l-0.865,3.895c-0.347,1.583-1.377,1.981-2.277,1.981
		c-0.821,0-1.523-0.19-2.024-0.728L38.217,82.53z M41.324,79.508c-0.198-0.328-0.58-0.518-1.021-0.518
		c-0.684,0-1.167,0.604-1.167,1.357c0,0.571,0.379,0.935,0.951,0.935c0.364,0,0.719-0.208,0.943-0.476L41.324,79.508z"/>
	<path fill="#F1F2F2" d="M46.302,79.076h-0.692l0.208-0.96h0.693l0.051-0.225c0.199-0.892,0.728-1.454,1.567-1.454
		c0.32,0,0.648,0.06,0.917,0.234l-0.381,0.743c-0.104-0.078-0.25-0.113-0.398-0.113c-0.337,0-0.519,0.208-0.606,0.59l-0.051,0.225
		h0.857l-0.217,0.96h-0.847l-0.71,3.22h-1.108L46.302,79.076z"/>
	<path fill="#F1F2F2" d="M50.856,78.012c1.333,0,2.077,0.813,2.077,1.902c0,1.3-1.004,2.484-2.423,2.484
		c-1.333,0-2.068-0.805-2.068-1.896C48.442,79.198,49.446,78.012,50.856,78.012 M50.821,78.991c-0.744,0-1.245,0.707-1.245,1.453
		c0,0.605,0.363,0.979,0.978,0.979c0.735,0,1.238-0.702,1.238-1.455C51.792,79.361,51.428,78.991,50.821,78.991"/>
	<path fill="#F1F2F2" d="M54.294,78.116h1.099l-0.13,0.555c0.373-0.399,0.823-0.649,1.481-0.649l-0.234,1.09
		c-0.069-0.018-0.225-0.053-0.406-0.053c-0.399,0-0.788,0.226-1.039,0.503l-0.598,2.734h-1.099L54.294,78.116z"/>
	<path fill="#F1F2F2" d="M62.587,76.428c1.593,0,2.831,1.004,2.831,2.58c0,1.887-1.445,3.391-3.35,3.391
		c-1.602,0-2.838-1.004-2.838-2.588C59.23,77.924,60.682,76.428,62.587,76.428 M62.509,77.518c-1.116,0-1.999,0.978-1.999,2.215
		c0,0.979,0.702,1.576,1.626,1.576c1.107,0,2-0.979,2-2.216C64.136,78.125,63.436,77.518,62.509,77.518"/>
	<path fill="#F1F2F2" d="M67.125,80.633c-0.018,0.078-0.035,0.174-0.035,0.252c0,0.38,0.313,0.537,0.702,0.537
		c0.39,0,0.752-0.261,0.995-0.495l0.623-2.812h1.101l-0.927,4.181h-1.099l0.121-0.546c-0.329,0.312-0.779,0.648-1.395,0.648
		c-0.804,0-1.307-0.423-1.307-1.072c0-0.07,0.026-0.26,0.044-0.337l0.632-2.874h1.107L67.125,80.633z"/>
	<path fill="#F1F2F2" d="M71.712,78.116h1.099l-0.13,0.555c0.373-0.399,0.822-0.649,1.48-0.649l-0.234,1.09
		c-0.068-0.018-0.225-0.053-0.405-0.053c-0.4,0-0.788,0.226-1.04,0.503l-0.598,2.734h-1.099L71.712,78.116z"/>
	<path fill="#F1F2F2" d="M80.007,76.428c1.412,0,2.224,0.761,2.562,1.635l-1.185,0.4c-0.225-0.607-0.77-0.945-1.436-0.945
		c-1.091,0-2.018,0.953-2.018,2.215c0,0.9,0.632,1.576,1.627,1.576c0.494,0,1.03-0.26,1.359-0.666l0.945,0.64
		c-0.659,0.849-1.62,1.116-2.373,1.116c-1.593,0-2.838-1.012-2.838-2.588C76.65,77.769,78.215,76.428,80.007,76.428"/>
	<path fill="#F1F2F2" d="M84.976,78.012c1.333,0,2.077,0.813,2.077,1.902c0,1.3-1.004,2.484-2.423,2.484
		c-1.333,0-2.068-0.805-2.068-1.896C82.562,79.198,83.566,78.012,84.976,78.012 M84.941,78.991c-0.744,0-1.245,0.707-1.245,1.453
		c0,0.605,0.362,0.979,0.978,0.979c0.735,0,1.238-0.702,1.238-1.455C85.911,79.361,85.547,78.991,84.941,78.991"/>
	<path fill="#F1F2F2" d="M93.233,79.768c0.008-0.053,0.035-0.173,0.035-0.277c0-0.32-0.276-0.502-0.598-0.502
		c-0.337,0-0.657,0.243-0.874,0.484l-0.614,2.822h-1.107l0.562-2.527c0.018-0.086,0.042-0.189,0.042-0.302
		c-0.007-0.269-0.226-0.478-0.614-0.478c-0.329,0-0.649,0.252-0.856,0.484l-0.625,2.822h-1.099l0.926-4.18h1.1l-0.122,0.545
		c0.234-0.252,0.658-0.648,1.273-0.648c0.82,0,1.15,0.596,1.15,0.753v0.017c0.329-0.408,0.805-0.77,1.445-0.77
		c0.631,0,1.193,0.379,1.193,1.063c0,0.112-0.024,0.278-0.042,0.347l-0.633,2.873h-1.107L93.233,79.768z"/>
	<path fill="#F1F2F2" d="M100.724,79.768c0.009-0.053,0.035-0.173,0.035-0.277c0-0.32-0.275-0.502-0.598-0.502
		c-0.336,0-0.657,0.243-0.874,0.484l-0.614,2.822h-1.107l0.563-2.527c0.018-0.086,0.042-0.189,0.042-0.302
		c-0.007-0.269-0.225-0.478-0.612-0.478c-0.329,0-0.649,0.252-0.856,0.484l-0.625,2.822h-1.1l0.928-4.18h1.099l-0.122,0.545
		c0.234-0.252,0.659-0.648,1.274-0.648c0.821,0,1.149,0.596,1.149,0.753v0.017c0.329-0.408,0.805-0.77,1.446-0.77
		c0.63,0,1.194,0.379,1.194,1.063c0,0.112-0.026,0.278-0.044,0.347l-0.633,2.873h-1.107L100.724,79.768z"/>
	<path fill="#F1F2F2" d="M103.929,80.633c-0.018,0.078-0.034,0.174-0.034,0.252c0,0.38,0.313,0.537,0.701,0.537
		c0.391,0,0.752-0.261,0.995-0.495l0.622-2.812h1.102l-0.927,4.181h-1.1l0.122-0.546c-0.329,0.312-0.779,0.648-1.395,0.648
		c-0.804,0-1.307-0.423-1.307-1.072c0-0.07,0.027-0.26,0.043-0.337l0.632-2.874h1.108L103.929,80.633z"/>
	<path fill="#F1F2F2" d="M110.969,79.802c0.018-0.077,0.042-0.189,0.042-0.276c0-0.388-0.312-0.535-0.64-0.535
		c-0.45,0-0.813,0.25-1.057,0.482l-0.623,2.822h-1.1l0.928-4.18h1.098l-0.121,0.545c0.33-0.319,0.779-0.648,1.395-0.648
		c0.803,0,1.307,0.424,1.307,1.063c0,0.077-0.026,0.261-0.044,0.347l-0.64,2.873h-1.1L110.969,79.802z"/>
	<path fill="#F1F2F2" d="M113.644,78.116h1.1l-0.926,4.18h-1.1L113.644,78.116z M114.518,76.262c0.348,0,0.6,0.26,0.6,0.563
		c0,0.476-0.409,0.754-0.737,0.754c-0.347,0-0.597-0.261-0.597-0.563C113.783,76.532,114.189,76.262,114.518,76.262"/>
	<path fill="#F1F2F2" d="M115.487,81.206l0.468-2.138h-0.693l0.216-0.952h0.694l0.25-1.143h1.107l-0.25,1.143h0.847l-0.225,0.952
		h-0.848l-0.397,1.817c-0.009,0.051-0.018,0.122-0.018,0.172c0,0.226,0.131,0.365,0.406,0.365c0.113,0,0.252-0.045,0.303-0.087
		l0.044,0.884c-0.165,0.111-0.423,0.18-0.692,0.18c-0.744,0-1.247-0.284-1.247-0.909C115.452,81.43,115.461,81.309,115.487,81.206"
		/>
	<path fill="#F1F2F2" d="M118.387,82.53c0.27,0.379,0.85,0.563,1.359,0.563c0.71,0,1.029-0.4,1.185-1.082l0.095-0.426
		c-0.345,0.322-0.761,0.635-1.383,0.635c-0.734,0-1.307-0.356-1.307-1.066c0-0.078,0.008-0.173,0.042-0.346l0.606-2.691h1.099
		l-0.527,2.354c-0.018,0.105-0.026,0.2-0.026,0.242c0,0.424,0.347,0.529,0.711,0.529c0.388,0,0.734-0.243,0.978-0.485l0.587-2.64
		h1.102l-0.842,3.799c-0.284,1.255-0.994,2.077-2.301,2.077c-0.865,0-1.54-0.216-2.025-0.728L118.387,82.53z"/>
	<path fill="#F1F2F2" d="M123.954,78.471c0.313-0.14,0.71-0.426,0.85-0.728h-0.088c-0.286,0-0.537-0.19-0.537-0.563
		c0-0.407,0.381-0.744,0.771-0.744c0.347,0,0.675,0.242,0.675,0.709c0,0.658-0.554,1.377-1.271,1.731L123.954,78.471z"/>
	<path fill="#F1F2F2" d="M125.694,80.919c0.252,0.295,0.866,0.641,1.472,0.641c0.373,0,0.604-0.2,0.604-0.44
		c0-0.252-0.353-0.382-0.77-0.521c-0.596-0.198-1.349-0.465-1.349-1.176c0-0.729,0.605-1.41,1.721-1.41
		c0.711,0,1.377,0.268,1.774,0.682l-0.553,0.693c-0.208-0.259-0.727-0.536-1.239-0.536c-0.388,0-0.604,0.182-0.604,0.406
		c0,0.209,0.312,0.328,0.718,0.468c0.615,0.189,1.403,0.45,1.403,1.211c0,0.797-0.667,1.463-1.81,1.463
		c-0.762,0-1.507-0.26-1.973-0.752L125.694,80.919z"/>
	<polygon fill="#F1F2F2" points="136.335,79.873 133.606,79.873 133.071,82.295 131.842,82.295 133.114,76.522 134.343,76.522 
		133.85,78.792 136.566,78.792 137.069,76.522 138.307,76.522 137.034,82.295 135.797,82.295 	"/>
	<path fill="#F1F2F2" d="M140.837,78.012c1.064,0,1.879,0.699,1.879,1.869c0,0.243-0.044,0.536-0.087,0.675h-3.106v0.104
		c0,0.354,0.372,0.864,1.143,0.864c0.363,0,0.796-0.112,1.056-0.312l0.346,0.754c-0.405,0.275-0.96,0.432-1.48,0.432
		c-1.314,0-2.163-0.71-2.163-1.877C138.423,79.163,139.445,78.012,140.837,78.012 M141.729,79.725c0-0.415-0.293-0.839-0.959-0.839
		c-0.59,0-1.04,0.468-1.135,0.925h2.094V79.725z"/>
	<path fill="#F1F2F2" d="M145.833,81.872c-0.311,0.328-0.708,0.527-1.247,0.527c-0.708,0-1.375-0.396-1.375-1.211
		c0-0.952,0.709-1.522,1.55-1.522c0.604,0,1.055,0.172,1.437,0.563l0.104-0.476c0.008-0.037,0.025-0.157,0.025-0.217
		c0-0.383-0.399-0.632-0.97-0.632c-0.442,0-0.831,0.146-1.169,0.397l-0.269-0.778c0.495-0.347,1.065-0.511,1.662-0.511
		c0.988,0,1.87,0.371,1.87,1.333c0,0.086-0.025,0.328-0.053,0.44l-0.553,2.51h-1.108L145.833,81.872z M146.075,80.799
		c-0.165-0.243-0.527-0.391-0.943-0.391c-0.483,0-0.796,0.284-0.796,0.693c0,0.363,0.295,0.553,0.754,0.553
		c0.38,0,0.666-0.13,0.873-0.346L146.075,80.799z"/>
	<path fill="#F1F2F2" d="M148.206,81.206l1.038-4.684h1.1l-0.97,4.397c-0.018,0.061-0.025,0.12-0.025,0.173
		c0,0.199,0.172,0.33,0.415,0.33c0.12,0,0.26-0.045,0.311-0.087l0.036,0.884c-0.122,0.095-0.374,0.18-0.685,0.18
		c-0.787,0-1.247-0.329-1.247-0.892C148.179,81.422,148.188,81.318,148.206,81.206"/>
	<path fill="#F1F2F2" d="M151.133,81.206l0.468-2.138h-0.692l0.216-0.952h0.692l0.252-1.143h1.107l-0.251,1.143h0.848l-0.226,0.952
		H152.7l-0.398,1.817c-0.009,0.051-0.017,0.122-0.017,0.172c0,0.226,0.13,0.365,0.405,0.365c0.112,0,0.252-0.045,0.303-0.087
		l0.044,0.884c-0.165,0.111-0.424,0.18-0.692,0.18c-0.744,0-1.247-0.284-1.247-0.909C151.098,81.43,151.106,81.309,151.133,81.206"
		/>
	<path fill="#F1F2F2" d="M157.079,79.786c0.018-0.07,0.042-0.2,0.042-0.26c0-0.388-0.311-0.535-0.717-0.535
		c-0.373,0-0.734,0.25-0.978,0.492l-0.624,2.813h-1.1l1.272-5.773h1.101l-0.469,2.139c0.329-0.319,0.779-0.648,1.395-0.648
		c0.804,0,1.307,0.424,1.307,1.063c0,0.087-0.025,0.261-0.043,0.347l-0.632,2.873h-1.1L157.079,79.786z"/>
	<polygon fill="#F1F2F2" points="159.421,77.09 158.836,77.09 158.836,76.715 160.43,76.715 160.43,77.09 159.848,77.09 
		159.848,78.713 159.421,78.713 	"/>
	<polygon fill="#F1F2F2" points="162.471,77.277 161.908,78.713 161.723,78.713 161.158,77.277 161.158,78.713 160.733,78.713 
		160.733,76.715 161.33,76.715 161.814,77.962 162.3,76.715 162.9,76.715 162.9,78.713 162.471,78.713 	"/>
	
		<rect x="19.016" y="6.222" transform="matrix(0.9956 0.0938 -0.0938 0.9956 2.6999 -1.6891)" fill="#F1F2F2" width="0.609" height="43.316"/>
	
		<rect x="48.185" y="6.287" transform="matrix(0.9991 0.0434 -0.0434 0.9991 1.2574 -2.0765)" fill="#F1F2F2" width="0.608" height="43.312"/>
	<rect x="51.096" y="6.295" fill="#F1F2F2" width="0.608" height="43.312"/>
	
		<rect x="48.376" y="6.297" transform="matrix(0.9998 -0.0177 0.0177 0.9998 -0.4863 0.8644)" fill="#F1F2F2" width="0.608" height="43.311"/>
	<rect x="45.832" y="6.295" fill="#F1F2F2" width="0.608" height="43.312"/>
	<rect x="43.728" y="6.295" fill="#F1F2F2" width="0.608" height="43.312"/>
	
		<rect x="39.261" y="6.237" transform="matrix(0.9963 0.0859 -0.0859 0.9963 2.5424 -3.2956)" fill="#F1F2F2" width="0.608" height="43.316"/>
	
		<rect x="40.215" y="6.287" transform="matrix(0.9991 -0.0433 0.0433 0.9991 -1.1728 1.782)" fill="#F1F2F2" width="0.608" height="43.312"/>
	<rect x="36.208" y="6.295" fill="#F1F2F2" width="0.609" height="43.312"/>
	<rect x="33.05" y="6.295" fill="#F1F2F2" width="0.608" height="43.312"/>
	
		<rect x="30.908" y="6.272" transform="matrix(0.9982 0.0602 -0.0602 0.9982 1.7388 -1.8291)" fill="#F1F2F2" width="0.608" height="43.313"/>
	
		<rect x="28.389" y="6.272" transform="matrix(0.9982 0.0602 -0.0602 0.9982 1.7342 -1.6774)" fill="#F1F2F2" width="0.608" height="43.313"/>
	<rect x="25.682" y="6.295" fill="#F1F2F2" width="0.608" height="43.312"/>
	<rect x="22.792" y="6.295" fill="#F1F2F2" width="0.608" height="43.312"/>
	
		<rect x="18.614" y="6.28" transform="matrix(0.9986 -0.0521 0.0521 0.9986 -1.4308 1.0244)" fill="#F1F2F2" width="0.609" height="43.313"/>
	<rect x="15.223" y="6.295" fill="#F1F2F2" width="0.608" height="43.312"/>
	<rect x="13.62" y="6.295" fill="#F1F2F2" width="0.608" height="43.312"/>
	
		<rect x="10.701" y="6.28" transform="matrix(0.9986 0.0521 -0.0521 0.9986 1.4715 -0.5358)" fill="#F1F2F2" width="0.609" height="43.313"/>
	
		<rect x="10.222" y="6.295" transform="matrix(0.9997 -0.0249 0.0249 0.9997 -0.6919 0.2704)" fill="#F1F2F2" width="0.609" height="43.312"/>
	<rect x="8.39" y="6.295" fill="#F1F2F2" width="0.608" height="43.312"/>
	<path fill="#F1F2F2" d="M45.961,62.692h5.741v-1.784h-3.796v-7.605h-1.945V62.692z M39.181,58.936l1.033-3.06l1.019,3.06H39.181z
		 M35.948,62.692h1.959l0.683-2.04h3.233l0.698,2.04h2.011l-3.366-9.444h-1.852L35.948,62.692z M29.633,57.888v-2.83h1.395
		c0.993,0,1.569,0.471,1.569,1.409v0.014c0,0.845-0.537,1.407-1.529,1.407H29.633z M27.688,62.692h1.945v-3.085h1.22l1.73,3.085
		h2.227l-1.999-3.487c1.033-0.457,1.744-1.355,1.744-2.777v-0.054c0-0.925-0.281-1.663-0.792-2.174
		c-0.59-0.59-1.461-0.897-2.548-0.897h-3.528V62.692z M21.595,61.055c-1.301,0-2.253-1.166-2.253-3.018v-0.095
		c0-1.851,0.925-3.005,2.24-3.005c1.302,0,2.24,1.167,2.24,3.019v0.094C23.821,59.901,22.896,61.055,21.595,61.055 M21.581,62.853
		c2.482,0,4.252-1.985,4.252-4.79v-0.16c0-2.804-1.744-4.762-4.239-4.762c-2.482,0-4.253,1.972-4.253,4.788v0.161
		C17.342,60.894,19.086,62.853,21.581,62.853 M11.407,55.058c1.475,0,2.481,1.047,2.481,2.911v0.068
		c0,1.863-1.006,2.896-2.481,2.896h-1.074v-5.876H11.407z M8.388,62.692h3.032c2.724,0,4.48-1.892,4.48-4.642v-0.121
		c0-2.75-1.757-4.627-4.48-4.627H8.388V62.692z"/>
</g>
</svg>
