<?xml version="1.0" encoding="utf-8"?>
<svg width="30px" height="30px" viewBox="0 0 30 30" version="1.1" xmlns:xlink="http://www.w3.org/1999/xlink" xmlns="http://www.w3.org/2000/svg">
  <desc>Created with Lunacy</desc>
  <g id="fb">
    <path d="M30 15C30 6.71572 23.2843 0 15 0C6.71572 0 0 6.71572 0 15C0 22.4869 5.48531 28.6925 12.6563 29.8178L12.6563 19.3359L8.84766 19.3359L8.84766 15L12.6563 15L12.6563 11.6953C12.6563 7.93594 14.8956 5.85938 18.322 5.85938C19.9631 5.85938 21.6797 6.15234 21.6797 6.15234L21.6797 9.84375L19.7882 9.84375C17.9249 9.84375 17.3438 11 17.3438 12.1862L17.3438 15L21.5039 15L20.8389 19.3359L17.3438 19.3359L17.3438 29.8178C24.5147 28.6925 30 22.4869 30 15L30 15Z" id="Shape" fill="#1877F2" fill-rule="evenodd" stroke="none" />
    <path d="M11.9912 13.4766L12.6562 9.14063L8.49609 9.14063L8.49609 6.32684C8.49609 5.14061 9.07717 3.98438 10.9406 3.98438L12.832 3.98438L12.832 0.292969C12.832 0.292969 11.1154 0 9.47432 0C6.04799 0 3.80859 2.07656 3.80859 5.83594L3.80859 9.14063L0 9.14063L0 13.4766L3.80859 13.4766L3.80859 23.9584C4.57225 24.0782 5.355 24.1406 6.15234 24.1406C6.94969 24.1406 7.73238 24.0782 8.49609 23.9584L8.49609 13.4766L11.9912 13.4766L11.9912 13.4766Z" transform="translate(8.847656 5.859375)" id="Shape" fill="#FFFFFF" fill-rule="evenodd" stroke="none" />
  </g>
</svg>