<?xml version="1.0" encoding="utf-8"?>
<svg width="20px" height="20px" viewBox="0 0 20 20" version="1.1" xmlns:xlink="http://www.w3.org/1999/xlink" xmlns="http://www.w3.org/2000/svg">
  <desc>Created with Lunacy</desc>
  <path d="M10.0136 0C5.85377 0 2.28279 2.55472 0.785438 6.18204C0.659616 6.47025 0.699433 6.80397 0.889531 7.05448C1.07963 7.305 1.39031 7.43318 1.70175 7.38958C2.01319 7.34599 2.27673 7.13743 2.39073 6.84435C3.62701 3.84948 6.56382 1.73674 10.0136 1.73674C14.5799 1.73674 18.2631 5.41987 18.2631 9.98625C18.2631 14.5526 14.5799 18.2358 10.0136 18.2358C6.56429 18.2358 3.62698 16.1238 2.39073 13.129C2.27673 12.8359 2.01319 12.6274 1.70175 12.5838C1.39031 12.5402 1.07963 12.6683 0.88953 12.9189C0.699432 13.1694 0.659616 13.5031 0.785437 13.7913C2.28281 17.4187 5.85417 19.9725 10.0136 19.9725C15.5185 19.9725 19.9998 15.4912 19.9998 9.98625C19.9998 4.48128 15.5185 2.46757e-06 10.0136 2.46757e-06L10.0136 0ZM10.8585 6.07007C10.5051 6.07016 10.1871 6.28434 10.0541 6.61173C9.92114 6.93912 9.99979 7.31443 10.253 7.56088L11.81 9.11784L0.880737 9.11784C0.567572 9.11341 0.276282 9.27795 0.118407 9.54844C-0.0394688 9.81894 -0.0394688 10.1535 0.118407 10.424C0.276282 10.6945 0.567572 10.859 0.880737 10.8546L11.81 10.8546L10.253 12.4115C10.0262 12.6293 9.93479 12.9528 10.0141 13.2571C10.0935 13.5614 10.3311 13.799 10.6354 13.8784C10.9397 13.9577 11.2631 13.8663 11.4809 13.6395L14.5202 10.6002C14.8592 10.2611 14.8592 9.71137 14.5202 9.37225L11.4809 6.33295C11.3175 6.1649 11.093 6.07008 10.8585 6.07007L10.8585 6.07007Z" id="Shape" fill="#FFFFFF" fill-rule="evenodd" stroke="none" />
</svg>