<?xml version="1.0" encoding="utf-8"?>
<svg width="30px" height="30px" viewBox="0 0 30 30" version="1.1" xmlns:xlink="http://www.w3.org/1999/xlink" xmlns="http://www.w3.org/2000/svg">
  <desc>Created with Lunacy</desc>
  <g id="twitter">
    <g id="Group">
      <path d="M26.25 30L3.75 30C1.68 30 0 28.32 0 26.25L0 3.75C0 1.68 1.68 0 3.75 0L26.25 0C28.32 0 30 1.68 30 3.75L30 26.25C30 28.32 28.32 30 26.25 30L26.25 30Z" id="Dark_Blue" fill="#1DA1F2" fill-rule="evenodd" stroke="none" />
      <path d="M5.8875 15.24C12.96 15.24 16.83 9.375 16.83 4.2975C16.83 4.1325 16.83 3.9675 16.8225 3.8025C17.5725 3.2625 18.225 2.58 18.7425 1.8075C18.0525 2.115 17.31 2.3175 16.53 2.415C17.325 1.9425 17.9325 1.185 18.225 0.285C17.4825 0.7275 16.6575 1.0425 15.78 1.215C15.075 0.465 14.0775 0 12.975 0C10.8525 0 9.1275 1.725 9.1275 3.8475C9.1275 4.1475 9.165 4.44 9.225 4.725C6.03 4.5675 3.195 3.03 1.2975 0.705C0.967499 1.275 0.779999 1.935 0.779999 2.64C0.779999 3.975 1.4625 5.1525 2.49 5.8425C1.86 5.82 1.2675 5.6475 0.75 5.3625L0.75 5.415C0.75 7.275 2.0775 8.835 3.8325 9.1875C3.51 9.2775 3.1725 9.3225 2.82 9.3225C2.5725 9.3225 2.3325 9.3 2.1 9.255C2.5875 10.785 4.0125 11.895 5.6925 11.925C4.3725 12.96 2.715 13.575 0.915 13.575C0.6075 13.575 0.3 13.56 0 13.5225C1.695 14.6025 3.72 15.24 5.8875 15.24" transform="translate(5.6328125 7.380005)" id="Logo__x2014__FIXED" fill="#FFFFFF" fill-rule="evenodd" stroke="none" />
    </g>
  </g>
</svg>