<?xml version="1.0" encoding="utf-8"?>
<svg width="30px" height="30px" viewbox="0 0 30 30" version="1.1" xmlns:xlink="http://www.w3.org/1999/xlink" xmlns="http://www.w3.org/2000/svg">
  <g id="add_more_item">
    <g id="Group">
      <g id="Group">
        <g id="Group">
          <path d="M0 5.85938C0 6.5066 0.524648 7.03125 1.17187 7.03125L4.6875 7.03125L4.6875 10.5469C4.6875 11.1941 5.21215 11.7188 5.85938 11.7188C6.5066 11.7188 7.03125 11.1941 7.03125 10.5469L7.03125 7.03125L10.5469 7.03125C11.1941 7.03125 11.7188 6.5066 11.7188 5.85938C11.7188 5.21215 11.1941 4.6875 10.5469 4.6875L7.03125 4.6875L7.03125 1.17187C7.03125 0.524648 6.5066 0 5.85938 0C5.21215 0 4.6875 0.524648 4.6875 1.17187L4.6875 4.6875L1.17187 4.6875C0.524648 4.6875 0 5.21215 0 5.85938L0 5.85938Z" transform="translate(9.140625 9.140625)" id="Shape" fill="#006C76" fill-rule="evenodd" stroke="none" />
          <path d="M1.62071 2.88284L3.13647 2.25495C3.73436 2.00722 4.01836 1.32173 3.77063 0.723778C3.5229 0.125829 2.83747 -0.158293 2.23946 0.0896176L0.723696 0.717508C0.125805 0.965243 -0.158198 1.65073 0.0895357 2.24868C0.33645 2.84464 1.02082 3.13116 1.62071 2.88284L1.62071 2.88284Z" transform="translate(7.7783203 0.73828125)" id="Shape" fill="#006C76" fill-rule="evenodd" stroke="none" />
          <path d="M15 0C14.3528 0 13.8281 0.524648 13.8281 1.17188C13.8281 1.8191 14.3528 2.34375 15 2.34375C21.9948 2.34375 27.6563 8.00438 27.6563 15C27.6563 21.9948 21.9956 27.6563 15 27.6563C8.0052 27.6563 2.34375 21.9956 2.34375 15C2.34375 14.3528 1.8191 13.8281 1.17188 13.8281C0.524648 13.8281 0 14.3528 0 15C0 23.29 6.70881 30 15 30C23.29 30 30 23.2912 30 15C30 6.70998 23.2912 0 15 0L15 0Z" id="Shape" fill="#006C76" fill-rule="evenodd" stroke="none" />
          <path d="M2.00058 3.16066L3.16068 2.00056C3.61835 1.54288 3.61835 0.800852 3.16068 0.343235C2.703 -0.114382 1.96097 -0.114441 1.50335 0.343235L0.343257 1.50333C-0.114419 1.96101 -0.114419 2.70304 0.343257 3.16066C0.800815 3.61822 1.54291 3.61833 2.00058 3.16066L2.00058 3.16066Z" transform="translate(3.46875 3.4700928)" id="Shape" fill="#006C76" fill-rule="evenodd" stroke="none" />
          <path d="M0.723696 3.77066C1.32293 4.01887 2.00772 3.73305 2.25487 3.1365L2.88276 1.62068C3.13049 1.02273 2.84649 0.337247 2.2486 0.0895116C1.65053 -0.158165 0.965161 0.125781 0.717426 0.723672L0.0895358 2.23943C-0.158198 2.83744 0.125805 3.52293 0.723696 3.77066L0.723696 3.77066Z" transform="translate(0.73828125 7.778137)" id="Shape" fill="#006C76" fill-rule="evenodd" stroke="none" />
        </g>
      </g>
    </g>
  </g>
</svg>