<?xml version="1.0" encoding="utf-8"?>
<svg width="20px" height="20px" viewbox="0 0 20 20" version="1.1" xmlns:xlink="http://www.w3.org/1999/xlink" xmlns="http://www.w3.org/2000/svg">
  <defs>
    <path d="M0 0L20 0L20 20L0 20L0 0Z" id="path_1" />
    <path d="M0 0L19.0926 0L19.0926 19.0926L0 19.0926L0 0Z" id="path_2" />
    <clipPath id="mask_1">
      <use xlink:href="#path_1" />
    </clipPath>
    <clipPath id="mask_2">
      <use xlink:href="#path_2" />
    </clipPath>
  </defs>
  <g id="android">
    <path d="M0 0L20 0L20 20L0 20L0 0Z" id="Background" fill="none" fill-rule="evenodd" stroke="none" />
    <g clip-path="url(#mask_1)">
      <g id="Mask-group" transform="translate(0.2019043 0.5286255)">
        <path d="M0 0L19.0926 0L19.0926 19.0926L0 19.0926L0 0Z" id="Rectangle" fill="none" fill-rule="evenodd" stroke="none" />
        <g clip-path="url(#mask_2)">
          <g id="Group" transform="translate(1.4687462 0)">
            <path d="M1.18171 0C0.85275 0 0.57363 0.11472 0.34419 0.34416C0.11476 0.57359 0 0.84891 0 1.17025L0 6.10399C0 6.43339 0.11472 6.71229 0.34419 6.94169C0.57363 7.17119 0.85275 7.28589 1.18171 7.28589C1.51044 7.28589 1.78786 7.17119 2.01374 6.94169C2.23917 6.71229 2.3522 6.43339 2.3522 6.10399L2.3522 1.17025C2.3522 0.84888 2.23748 0.57359 2.00801 0.34416C1.77854 0.11472 1.50305 0 1.18171 0L1.18171 0Z" transform="translate(0 6.1843843)" id="Shape" fill="#006C76" fill-rule="evenodd" stroke="none" />
            <path d="M7.91676 1.75536L8.73146 0.252526C8.78486 0.153031 8.76586 0.0767367 8.67416 0.0230877C8.57466 -0.0231723 8.49816 0.000268698 8.44476 0.0917537L7.61866 1.6066C6.89176 1.28523 6.12306 1.12425 5.31233 1.12425C4.50146 1.12425 3.73261 1.28526 3.00601 1.6066L2.17992 0.0917537C2.12624 0.000268698 2.04977 -0.0229653 1.95049 0.0230877C1.85859 0.0769777 1.83957 0.153031 1.89325 0.252526L2.70795 1.75536C1.88186 2.17664 1.22392 2.76335 0.73439 3.51677C0.24486 4.2706 0 5.09438 0 5.98955L10.6132 5.98955C10.6132 5.09459 10.3683 4.27078 9.87876 3.51677C9.38916 2.76335 8.73506 2.17664 7.91676 1.75536L7.91676 1.75536ZM3.30576 4.03078C3.20605 4.12946 3.08695 4.17855 2.94853 4.17855C2.80982 4.17855 2.69315 4.12946 2.59797 4.03078C2.5028 3.93257 2.45521 3.81545 2.45521 3.67833C2.45521 3.54165 2.5028 3.42431 2.59797 3.32587C2.69315 3.22766 2.8101 3.17855 2.94853 3.17855C3.08695 3.17855 3.20605 3.22766 3.30576 3.32587C3.40523 3.42454 3.45521 3.54165 3.45521 3.67833C3.45494 3.81523 3.40501 3.93257 3.30576 4.03078L3.30576 4.03078ZM8.14273 4.03078C8.04732 4.12946 7.9304 4.17855 7.79219 4.17855C7.65343 4.17855 7.53436 4.12946 7.43487 4.03078C7.33515 3.93257 7.28546 3.81545 7.28546 3.67833C7.28546 3.54165 7.33515 3.42431 7.43487 3.32587C7.53436 3.22766 7.65343 3.17855 7.79219 3.17855C7.93062 3.17855 8.04732 3.22766 8.14273 3.32587C8.23804 3.42454 8.28546 3.54165 8.28546 3.67833C8.28546 3.81523 8.23792 3.93257 8.14273 4.03078L8.14273 4.03078Z" transform="translate(2.76539 0)" id="Shape" fill="#006C76" fill-rule="evenodd" stroke="none" />
            <path d="M0 7.64168C0 7.99388 0.12231 8.29208 0.36697 8.53668C0.61184 8.78138 0.90998 8.90368 1.26194 8.90368L2.11105 8.90368L2.12269 11.5086C2.12269 11.8375 2.23741 12.1168 2.46684 12.3463C2.69628 12.5758 2.97181 12.6905 3.29294 12.6905C3.62169 12.6905 3.90098 12.5758 4.13045 12.3463C4.35992 12.1168 4.47464 11.8375 4.47464 11.5086L4.47464 8.90388L6.05801 8.90388L6.05801 11.5086C6.05801 11.8375 6.17271 12.1168 6.40211 12.3463C6.63161 12.5758 6.91061 12.6905 7.23961 12.6905C7.56841 12.6905 7.84771 12.5758 8.07721 12.3463C8.30661 12.1168 8.42131 11.8375 8.42131 11.5086L8.42131 8.90388L9.28191 8.90388C9.62611 8.90388 9.92041 8.78158 10.1655 8.53688C10.4101 8.29228 10.5325 7.99408 10.5325 7.64198L10.5325 0L0 0L0 7.64168L0 7.64168Z" transform="translate(2.81104 6.4021945)" id="Shape" fill="#006C76" fill-rule="evenodd" stroke="none" />
            <path d="M1.1703 0C0.8489 0 0.573601 0.11303 0.3441 0.33846C0.1147 0.56431 0 0.84173 0 1.17025L0 6.10399C0 6.43339 0.1147 6.71229 0.3441 6.94169C0.573601 7.17119 0.8491 7.28589 1.1703 7.28589C1.499 7.28589 1.7783 7.17119 2.0078 6.94169C2.2372 6.71229 2.3519 6.43339 2.3519 6.10399L2.3519 1.17025C2.3519 0.8417 2.2372 0.56431 2.0078 0.33846C1.7783 0.11303 1.499 0 1.1703 0L1.1703 0Z" transform="translate(13.803249 6.1843843)" id="Shape" fill="#006C76" fill-rule="evenodd" stroke="none" />
          </g>
        </g>
      </g>
    </g>
  </g>
</svg>