<?xml version="1.0" encoding="utf-8"?>
<svg width="50px" height="50px" viewbox="0 0 50 50" version="1.1" xmlns:xlink="http://www.w3.org/1999/xlink" xmlns="http://www.w3.org/2000/svg">
  <defs>
    <path d="M0 0L40 0L40 40L0 40L0 0Z" id="path_1" />
    <rect width="50" height="50" id="artboard_1" />
    <clipPath id="clip_1">
      <use xlink:href="#artboard_1" clip-rule="evenodd" />
    </clipPath>
    <clipPath id="mask_1">
      <use xlink:href="#path_1" />
    </clipPath>
  </defs>
  <g id="Pixelbook" clip-path="url(#clip_1)">
    <g id="appointment" transform="translate(5 5)">
      <path d="M0 0L40 0L40 40L0 40L0 0Z" id="Background" fill="none" fill-rule="evenodd" stroke="none" />
      <g clip-path="url(#mask_1)">
        <g id="Group" transform="translate(0 1.5976562)">
          <path d="M36.0789 0L35.6219 0L35.6219 2.27656C35.6219 2.92344 35.0969 3.44844 34.45 3.44844C33.8023 3.44844 33.2781 2.92344 33.2781 2.27656L33.2781 0L29.8422 0L29.8422 2.27656C29.8422 2.92344 29.3172 3.44844 28.6703 3.44844C28.0227 3.44844 27.4984 2.92344 27.4984 2.27656L27.4984 0L24.0625 0L24.0625 2.27656C24.0625 2.92344 23.5375 3.44844 22.8906 3.44844C22.2437 3.44844 21.7188 2.92344 21.7188 2.27656L21.7188 0L18.2813 0L18.2813 2.27656C18.2813 2.92344 17.7563 3.44844 17.1094 3.44844C16.4625 3.44844 15.9375 2.92344 15.9375 2.27656L15.9375 0L12.5016 0L12.5016 2.27656C12.5016 2.92344 11.9773 3.44844 11.3297 3.44844C10.6828 3.44844 10.1578 2.92344 10.1578 2.27656L10.1578 0L6.72188 0L6.72188 2.27656C6.72188 2.92344 6.19766 3.44844 5.55 3.44844C4.90313 3.44844 4.37813 2.92344 4.37813 2.27656L4.37813 0L3.92031 0C1.75859 0 0 1.75859 0 3.92109L0 6.25L40 6.25L40 3.92109C40 1.75859 38.2406 0 36.0789 0L36.0789 0Z" transform="translate(0 3.4484377)" id="Shape" fill="#FFFFFF" fill-rule="evenodd" stroke="none" />
          <path d="M4.94375 8.44766L4.94375 12.2187L7.27734 12.2187L7.27734 8.44766C7.27734 7.80078 7.80156 7.27578 8.44922 7.27578L12.2195 7.27578L12.2195 4.94297L8.44922 4.94297C7.80156 4.94297 7.27734 4.41797 7.27734 3.77109L7.27734 0L4.94375 0L4.94375 3.77109C4.94375 4.41797 4.41875 4.94297 3.77188 4.94297L0 4.94297L0 7.27578L3.77188 7.27578C4.41875 7.27578 4.94375 7.80078 4.94375 8.44766L4.94375 8.44766Z" transform="translate(13.889847 18.314066)" id="Shape" fill="#FFFFFF" fill-rule="evenodd" stroke="none" />
          <path d="M0 20.8414C0 23.0039 1.75859 24.7625 3.92031 24.7625L36.0789 24.7625C38.2406 24.7625 40 23.0039 40 20.8414L40 0L0 0L0 20.8414ZM11.5461 10.043C11.5461 9.39531 12.0711 8.87109 12.718 8.87109L16.4898 8.87109L16.4898 5.1C16.4898 4.45234 17.0141 3.92812 17.6617 3.92812L22.3391 3.92812C22.9859 3.92812 23.5109 4.45234 23.5109 5.1L23.5109 8.87109L27.2813 8.87109C27.9281 8.87109 28.4531 9.39531 28.4531 10.043L28.4531 14.7195C28.4531 15.3672 27.9281 15.8914 27.2813 15.8914L23.5109 15.8914L23.5109 19.6625C23.5109 20.3102 22.9859 20.8344 22.3391 20.8344L17.6617 20.8344C17.0141 20.8344 16.4898 20.3102 16.4898 19.6625L16.4898 15.8914L12.718 15.8914C12.0711 15.8914 11.5461 15.3672 11.5461 14.7195L11.5461 10.043Z" transform="translate(1.9073486E-06 12.042189)" id="Shape" fill="#FFFFFF" fill-rule="evenodd" stroke="none" />
          <path d="M2.34375 1.17188C2.34375 0.525 1.81875 0 1.17188 0C0.525 0 0 0.525 0 1.17188L0 3.44844L2.34375 3.44844L2.34375 1.17188Z" transform="translate(15.937502 0)" id="Shape" fill="#FFFFFF" fill-rule="evenodd" stroke="none" />
          <path d="M2.34375 1.17188C2.34375 0.525 1.81953 0 1.17188 0C0.525 0 0 0.525 0 1.17188L0 3.44844L2.34375 3.44844L2.34375 1.17188Z" transform="translate(10.157814 0)" id="Shape" fill="#FFFFFF" fill-rule="evenodd" stroke="none" />
          <path d="M2.34375 1.17188C2.34375 0.525 1.81953 0 1.17188 0C0.525 0 0 0.525 0 1.17188L0 3.44844L2.34375 3.44844L2.34375 1.17188Z" transform="translate(4.378127 0)" id="Shape" fill="#FFFFFF" fill-rule="evenodd" stroke="none" />
          <path d="M2.34375 1.17188C2.34375 0.525 1.81875 0 1.17188 0C0.524218 0 0 0.525 0 1.17188L0 3.44844L2.34375 3.44844L2.34375 1.17188Z" transform="translate(33.278126 0)" id="Shape" fill="#FFFFFF" fill-rule="evenodd" stroke="none" />
          <path d="M2.34375 1.17188C2.34375 0.525 1.81875 0 1.17188 0C0.524218 0 0 0.525 0 1.17188L0 3.44844L2.34375 3.44844L2.34375 1.17188Z" transform="translate(27.49844 0)" id="Shape" fill="#FFFFFF" fill-rule="evenodd" stroke="none" />
          <path d="M2.34375 1.17188C2.34375 0.525 1.81875 0 1.17188 0C0.525 0 0 0.525 0 1.17188L0 3.44844L2.34375 3.44844L2.34375 1.17188Z" transform="translate(21.718752 0)" id="Shape" fill="#FFFFFF" fill-rule="evenodd" stroke="none" />
        </g>
      </g>
    </g>
  </g>
</svg>