<?xml version="1.0" encoding="utf-8"?>
<svg width="64px" height="64px" viewbox="0 0 64 64" version="1.1" xmlns:xlink="http://www.w3.org/1999/xlink" xmlns="http://www.w3.org/2000/svg">
  <defs>
    <path d="M0 27.5C0 12.3122 12.3122 0 27.5 0C42.6878 0 55 12.3122 55 27.5C55 42.6878 42.6878 55 27.5 55C12.3122 55 0 42.6878 0 27.5Z" id="path_1" />
    <rect width="64" height="64" id="artboard_1" />
    <clipPath id="clip_1">
      <use xlink:href="#artboard_1" clip-rule="evenodd" />
    </clipPath>
    <clipPath id="mask_1">
      <use xlink:href="#path_1" />
    </clipPath>
  </defs>
  <g id="Quad-HD-Copy" clip-path="url(#clip_1)">
    <g id="appointment" transform="translate(4 4)">
      <path d="M0 27.5C0 12.3122 12.3122 0 27.5 0C42.6878 0 55 12.3122 55 27.5C55 42.6878 42.6878 55 27.5 55C12.3122 55 0 42.6878 0 27.5Z" id="Mask" fill="none" fill-rule="evenodd" stroke="#006C76" stroke-width="2" />
      <g clip-path="url(#mask_1)">
        <g id="Group" transform="translate(0.6846924 12)">
          <path d="M7.82828 0C3.48485 0 0 3.53535 0 7.82828C0 12.1212 3.53535 15.6566 7.82828 15.6566C12.1212 15.6566 15.6566 12.1212 15.6566 7.82828C15.6566 3.53535 12.1212 0 7.82828 0L7.82828 0ZM11.0101 8.83838L7.82828 8.83838C7.27272 8.83838 6.81818 8.38384 6.81818 7.82828L6.81818 3.93939C6.81818 3.38384 7.27272 2.92929 7.82828 2.92929C8.38383 2.92929 8.83838 3.38384 8.83838 3.93939L8.83838 6.86869L11.0101 6.86869C11.5657 6.86869 12.0202 7.32323 12.0202 7.87879C11.9697 8.38384 11.5657 8.83838 11.0101 8.83838L11.0101 8.83838Z" transform="translate(32.327194 0)" id="Shape" fill="#006C76" fill-rule="evenodd" stroke="none" />
          <path d="M0.144624 10.303C-0.309921 11.5657 0.346644 12.9293 1.55877 13.3838C1.81129 13.4848 2.11432 13.5354 2.36685 13.5354C3.37695 13.5354 4.28604 12.9293 4.63957 11.9697L7.16482 5.20202L3.9325 0L0.144624 10.303L0.144624 10.303Z" transform="translate(12.6371 31.464645)" id="Shape" fill="#006C76" fill-rule="evenodd" stroke="none" />
          <path d="M34.8019 6.73042L31.2161 5.97285C30.711 5.87184 30.206 5.56881 29.903 5.16477C26.2161 0.518305 25.509 0.265779 24.5494 0.215275L21.1151 0.0132551C20.61 -0.0372501 20.004 -0.0372501 15.105 1.83144C13.8929 2.28598 12.8323 3.14457 12.1252 4.20517L9.3474 8.04356C9.19588 8.29608 9.09487 8.54861 9.04437 8.85164C8.28679 8.75063 7.47871 9.10416 7.02417 9.81123L6.56962 10.5688L4.95346 9.60921C4.44841 9.30618 3.74134 9.4577 3.43831 9.96275L0.155481 15.3668C-0.147549 15.8718 0.00396582 16.5789 0.509016 16.8819L8.99386 22.0335C9.49891 22.3365 10.206 22.185 10.509 21.6799L13.7918 16.2254C14.0949 15.7203 13.9434 15.0133 13.4383 14.7102L11.8221 13.7506L12.2767 12.9931C12.6807 12.3365 12.6302 11.5789 12.2767 10.9223C12.4787 10.7708 12.6807 10.6193 12.8322 10.4173L15.509 6.52841C15.7615 6.12437 16.1151 5.87184 16.5696 5.66982C16.9737 5.51831 17.3272 5.36679 17.6807 5.26578L16.0646 10.8213C15.509 12.69 15.812 14.7102 16.8221 16.3264L26.8221 32.3365C27.2767 33.0436 28.0848 33.4476 28.8928 33.4476C29.3474 33.4476 29.7514 33.3466 30.1555 33.0941C31.2666 32.387 31.6201 30.9223 30.913 29.7607L22.8322 16.9324L26.1656 7.23548C26.3171 7.38699 26.4181 7.58901 26.5696 7.74053C27.5292 8.90214 28.8423 9.76073 30.307 10.0638L33.8928 10.8213C35.004 11.0739 36.1656 10.3668 36.3676 9.20517C36.6706 8.09406 35.913 6.98295 34.8019 6.73042L34.8019 6.73042ZM10.8625 12.1345L10.408 12.892L7.93326 11.3769L8.3878 10.6193C8.48881 10.4173 8.74134 10.3668 8.94336 10.4678L10.7615 11.5789C10.9131 11.7304 11.0141 11.9829 10.8625 12.1345L10.8625 12.1345Z" transform="translate(0 11.5524025)" id="Shape" fill="#006C76" fill-rule="evenodd" stroke="none" />
          <path d="M4.14398 9.26578C1.59295 8.98812 -0.249984 6.69501 0.0276758 4.14398C0.305336 1.59295 2.59844 -0.249984 5.14947 0.0276763C7.7005 0.305336 9.54343 2.59844 9.26577 5.14947C8.98811 7.70051 6.69501 9.54344 4.14398 9.26578Z" transform="translate(18.80339 1.1893902)" id="Ellipse" fill="#006C76" fill-rule="evenodd" stroke="none" />
        </g>
      </g>
    </g>
  </g>
</svg>