<?xml version="1.0" encoding="utf-8"?>
<svg width="45px" height="45px" viewbox="0 0 45 45" version="1.1" xmlns:xlink="http://www.w3.org/1999/xlink" xmlns="http://www.w3.org/2000/svg">
  <defs>
    <path d="M0 0L45 0L45 45L0 45L0 0L0 0Z" id="path_1" />
    <clipPath id="mask_1">
      <use xlink:href="#path_1" />
    </clipPath>
  </defs>
  <g id="appointment_cal">
    <g id="appointment">
      <path d="M0 0L45 0L45 45L0 45L0 0L0 0Z" id="Background" fill="none" fill-rule="evenodd" stroke="none" />
      <g id="Mask-group">
        <path d="M0 0L45 0L45 45L0 45L0 0L0 0Z" id="path_1" fill="none" fill-rule="evenodd" stroke="none" />
        <g clip-path="url(#mask_1)">
          <g id="Group" transform="translate(0 2.456543)">
            <g id="Group">
              <path d="M45 2.63672L45 26.9622C45 29.395 43.0207 31.3734 40.5888 31.3734L4.41035 31.3734C1.97841 31.3734 0 29.395 0 26.9622L0 2.63672L22.5 0L45 2.63672L45 2.63672Z" transform="translate(0 8.7135105)" id="Shape" fill="#F9F9F9" fill-rule="evenodd" stroke="none" />
              <path d="M22.5 2.63672L22.5 26.9622C22.5 29.395 20.5207 31.3734 18.0888 31.3734L0 31.3734L0 0L22.5 2.63672L22.5 2.63672Z" transform="translate(22.5 8.7135105)" id="Shape#1" fill="#E4E4E4" fill-rule="evenodd" stroke="none" />
              <path d="M45 4.41123L45 8.78905L0 8.78905L0 4.41123C0 1.97842 1.97841 0 4.41035 0L40.5888 0C43.0207 0 45 1.97842 45 4.41123L45 4.41123L45 4.41123Z" transform="translate(0 2.5611677)" id="Shape#2" fill="#C91100" fill-rule="evenodd" stroke="none" />
              <path d="M22.5 4.41123L22.5 8.78905L0 8.78905L0 0L18.0888 0C20.5207 0 22.5 1.97841 22.5 4.41123L22.5 4.41123L22.5 4.41123Z" transform="translate(22.5 2.5611668)" id="Shape#3" fill="#C91100" fill-rule="evenodd" stroke="none" />
              <g id="Group#1" transform="translate(4.9257627 0)">
                <g id="Group#2">
                  <path d="M1.31836 3.30118e-07C0.590273 3.30118e-07 0 0.590274 0 1.31836L0 6.44063C0 7.16871 0.590273 7.75897 1.31836 7.75897C2.04645 7.75897 2.63672 7.16871 2.63672 6.44063L2.63672 1.31836C2.63672 0.590274 2.04645 0 1.31836 0L1.31836 3.30118e-07L1.31836 3.30118e-07Z" transform="translate(13.003925 0)" id="Shape#4" fill="#FF4B3B" fill-rule="evenodd" stroke="none" />
                  <path d="M1.31836 3.30118e-07C0.590274 3.30118e-07 0 0.590274 0 1.31836L0 6.44063C0 7.16871 0.590274 7.75897 1.31836 7.75897C2.04645 7.75897 2.63672 7.16871 2.63672 6.44063L2.63672 1.31836C2.63672 0.590274 2.04653 0 1.31836 0L1.31836 3.30118e-07L1.31836 3.30118e-07Z" transform="translate(6.5018783 0)" id="Shape#5" fill="#FF4B3B" fill-rule="evenodd" stroke="none" />
                  <path d="M1.31836 3.30118e-07C0.590273 3.30118e-07 0 0.590274 0 1.31836L0 6.44063C0 7.16871 0.590273 7.75897 1.31836 7.75897C2.04645 7.75897 2.63672 7.16871 2.63672 6.44063L2.63672 1.31836C2.63672 0.590274 2.04645 0 1.31836 0L1.31836 3.30118e-07L1.31836 3.30118e-07Z" id="Shape#6" fill="#FF4B3B" fill-rule="evenodd" stroke="none" />
                </g>
                <path d="M1.31836 3.30118e-07C0.590275 3.30118e-07 0 0.590274 0 1.31836L0 6.44063C0 7.16871 0.590275 7.75897 1.31836 7.75897C2.04645 7.75897 2.63671 7.16871 2.63671 6.44063L2.63671 1.31836C2.63671 0.590274 2.04645 0 1.31836 0L1.31836 3.30118e-07L1.31836 3.30118e-07Z" transform="translate(32.51159 0)" id="Shape#7" fill="#FF4B3B" fill-rule="evenodd" stroke="none" />
                <path d="M1.31836 3.30118e-07C0.590275 3.30118e-07 0 0.590274 0 1.31836L0 6.44063C0 7.16871 0.590275 7.75897 1.31836 7.75897C2.04645 7.75897 2.63672 7.16871 2.63672 6.44063L2.63672 1.31836C2.63672 0.590274 2.04645 0 1.31836 0L1.31836 3.30118e-07L1.31836 3.30118e-07Z" transform="translate(26.00971 0)" id="Shape#8" fill="#FF4B3B" fill-rule="evenodd" stroke="none" />
                <path d="M1.31836 3.30118e-07C0.590275 3.30118e-07 0 0.590274 0 1.31836L0 6.44063C0 7.16871 0.590275 7.75897 1.31836 7.75897C2.04645 7.75897 2.63672 7.16871 2.63672 6.44063L2.63672 1.31836C2.63672 0.590274 2.04645 0 1.31836 0L1.31836 3.30118e-07L1.31836 3.30118e-07Z" transform="translate(19.507832 0)" id="Shape#9" fill="#FF4B3B" fill-rule="evenodd" stroke="none" />
              </g>
              <path d="M18.1415 6.43975L18.1415 11.7017C18.1415 12.1869 17.7477 12.5807 17.2626 12.5807L12.5815 12.5807L12.5815 17.2626C12.5815 17.7477 12.1878 18.1415 11.7026 18.1415L6.44063 18.1415C5.95547 18.1415 5.56172 17.7477 5.56172 17.2626L5.56172 12.5807L0.878905 12.5807C0.393749 12.5807 0 12.1869 0 11.7017L0 6.43975C0 5.9546 0.393749 5.56084 0.878905 5.56084L5.56172 5.56084L5.56172 0.878905C5.56172 0.393749 5.95547 0 6.44063 0L11.7026 0C12.1878 0 12.5815 0.393749 12.5815 0.878905L12.5815 5.56084L17.2626 5.56084C17.7477 5.56084 18.1415 5.9546 18.1415 6.43975L18.1415 6.43975L18.1415 6.43975Z" transform="translate(13.428843 15.778142)" id="Shape#10" fill="#E61300" fill-rule="evenodd" stroke="none" />
              <path d="M9.07034 6.43975L9.07034 11.7017C9.07034 12.1869 8.67655 12.5807 8.19139 12.5807L3.51035 12.5807L3.51035 17.2626C3.51035 17.7477 3.1166 18.1415 2.63145 18.1415L0 18.1415L0 0L2.63145 0C3.1166 0 3.51035 0.393749 3.51035 0.878905L3.51035 5.56084L8.19139 5.56084C8.67655 5.56084 9.07034 5.9546 9.07034 6.43975L9.07034 6.43975L9.07034 6.43975Z" transform="translate(22.5 15.778142)" id="Shape#11" fill="#C91100" fill-rule="evenodd" stroke="none" />
            </g>
          </g>
        </g>
      </g>
    </g>
  </g>
</svg>