<?xml version="1.0" encoding="utf-8"?>
<svg width="25px" height="25px" viewbox="0 0 25 25" version="1.1" xmlns:xlink="http://www.w3.org/1999/xlink" xmlns="http://www.w3.org/2000/svg">
  <defs>
    <path d="M0 0L20 0L20 20L0 20L0 0Z" id="path_1" />
    <rect width="25" height="25" id="artboard_1" />
    <clipPath id="clip_1">
      <use xlink:href="#artboard_1" clip-rule="evenodd" />
    </clipPath>
    <clipPath id="mask_1">
      <use xlink:href="#path_1" />
    </clipPath>
  </defs>
  <g id="Pixelbook" clip-path="url(#clip_1)">
    <use xlink:href="#artboard_1" stroke="none" fill="#FFFFFF" />
    <g id="accounting" transform="translate(2 2)">
      <path d="M0 0L20 0L20 20L0 20L0 0Z" id="Background" fill="none" fill-rule="evenodd" stroke="none" />
      <g clip-path="url(#mask_1)">
        <g id="Group" transform="translate(1.7201843 0)">
          <path d="M1.85785 3.1859C1.78883 3.21715 1.67383 3.23273 1.51285 3.23273C1.32562 3.23273 1.13012 3.20398 0.926445 3.14648C0.722695 3.08902 0.53875 3.01266 0.374531 2.91734L0 3.76496C0.147852 3.85699 0.334258 3.93422 0.559336 3.99656C0.784297 4.05895 1.02008 4.09672 1.26648 4.10992L1.26648 4.63227L1.96133 4.63227L1.96133 4.08527C2.32922 4.01957 2.61254 3.8841 2.81137 3.67871C3.01012 3.47344 3.10953 3.23273 3.10953 2.95676C3.10953 2.70711 3.04301 2.51 2.90996 2.36539C2.77691 2.22086 2.61996 2.11652 2.43934 2.05246C2.25863 1.9884 2.03684 1.93172 1.77406 1.88246C1.57031 1.84305 1.42414 1.80609 1.33547 1.7716C1.24676 1.73711 1.20242 1.68535 1.20242 1.61637C1.20242 1.47184 1.35187 1.39953 1.65086 1.39953C1.95305 1.39953 2.2734 1.485 2.6118 1.65578L2.96168 0.813086C2.68894 0.658711 2.35555 0.563477 1.96133 0.527266L1.96133 0L1.26648 0L1.26648 0.537148C0.875469 0.593047 0.575703 0.724414 0.367148 0.931406C0.158476 1.13836 0.0542575 1.38645 0.0542575 1.67551C0.0542575 1.92523 0.119922 2.12316 0.251367 2.26934C0.382734 2.41555 0.537187 2.52066 0.714609 2.58473C0.891992 2.64879 1.11379 2.70875 1.37988 2.76461C1.58687 2.80734 1.73547 2.84676 1.82586 2.88289C1.91617 2.91906 1.96137 2.97328 1.96137 3.04551C1.96137 3.10789 1.92684 3.15473 1.85785 3.1859L1.85785 3.1859Z" transform="translate(2.6159372 2.5040236)" id="Shape" fill="#17A2B8" fill-rule="evenodd" stroke="none" />
          <path d="M16.5596 0L0 0L0 16.0597C0 18.2281 1.76414 20 3.93254 20L16.5596 20L16.5596 0ZM1.33293 16.9895C1.53226 17.0566 1.74363 17.0921 1.96109 17.0921L2.97543 17.0921L2.97547 18.0078C2.97547 18.2477 3.01816 18.4778 3.09633 18.691C2.2768 18.43 1.62234 17.7961 1.33293 16.9895L1.33293 16.9895ZM15.3882 18.8208L4.86262 18.8208C4.45945 18.7681 4.14687 18.4241 4.14687 18.0078L4.14684 15.9206L1.96113 15.9206C1.74965 15.9206 1.55305 15.8393 1.4075 15.6917C1.25203 15.534 1.1682 15.3189 1.17148 15.086L1.17141 1.17141L15.3882 1.17141L15.3882 18.8208Z" id="Shape" fill="#17A2B8" fill-rule="evenodd" stroke="none" />
          <path d="M7.53148 1.17695L8.65039 1.17695L6.08613 3.74121L2.34496 0L0 2.34492L0.82832 3.17324L2.34496 1.65664L6.08613 5.39785L9.42184 2.06211L9.42184 3.06734L10.5933 3.06734L10.5933 0.00554562L7.53148 0.00554562L7.53148 1.17695Z" transform="translate(3.416915 11.458438)" id="Shape" fill="#17A2B8" fill-rule="evenodd" stroke="none" />
          <path d="M0 0L5.46992 0L5.46992 1.17141L0 1.17141L0 0Z" transform="translate(8.579334 3.9451566)" id="Shape" fill="#17A2B8" fill-rule="evenodd" stroke="none" />
          <path d="M0 0L5.46992 0L5.46992 1.17141L0 1.17141L0 0Z" transform="translate(8.579334 6.2880077)" id="Shape" fill="#17A2B8" fill-rule="evenodd" stroke="none" />
          <path d="M0 0L11.4808 0L11.4808 1.17141L0 1.17141L0 0Z" transform="translate(2.5684366 8.63082)" id="Shape" fill="#17A2B8" fill-rule="evenodd" stroke="none" />
        </g>
      </g>
    </g>
  </g>
</svg>