<?xml version="1.0" encoding="utf-8"?>
<svg width="25px" height="25px" viewbox="0 0 25 25" version="1.1" xmlns:xlink="http://www.w3.org/1999/xlink" xmlns="http://www.w3.org/2000/svg">
  <defs>
    <path d="M0 0L20 0L20 20L0 20L0 0Z" id="path_1" />
    <rect width="25" height="25" id="artboard_1" />
    <clipPath id="clip_1">
      <use xlink:href="#artboard_1" clip-rule="evenodd" />
    </clipPath>
    <clipPath id="mask_1">
      <use xlink:href="#path_1" />
    </clipPath>
  </defs>
  <g id="Pixelbook" clip-path="url(#clip_1)">
    <use xlink:href="#artboard_1" stroke="none" fill="#FFFFFF" />
    <g id="tax" transform="translate(2 2)">
      <path d="M0 0L20 0L20 20L0 20L0 0Z" id="Background" fill="none" fill-rule="evenodd" stroke="none" />
      <g clip-path="url(#mask_1)">
        <g id="Group" transform="translate(0.88113976 0)">
          <path d="M0 5.2604C0 8.16565 2.35522 10.5209 5.26047 10.5209C8.16572 10.5209 10.5209 8.16572 10.5209 5.2604C10.5209 2.35508 8.16572 0 5.26047 0C2.35515 -2.05506e-06 0 2.35515 0 5.2604L0 5.2604ZM3.20572 3.20599C3.33596 3.07575 3.51663 3.00081 3.70081 3.00081C3.88498 3.00081 4.06566 3.07576 4.19663 3.20599C4.32694 3.33629 4.40114 3.51697 4.40114 3.70114C4.40114 3.88532 4.32694 4.06599 4.19663 4.19629C4.06566 4.32653 3.88572 4.40148 3.70081 4.40148C3.51663 4.40148 3.33596 4.32653 3.20572 4.19629C3.07542 4.06599 3.00047 3.88532 3.00047 3.70114C3.00047 3.51697 3.07542 3.33629 3.20572 3.20599L3.20572 3.20599ZM7.31502 7.31461C7.18471 7.44491 7.00404 7.51986 6.81987 7.51986C6.63569 7.51986 6.45502 7.44491 6.32478 7.31461C6.1938 7.18437 6.11953 7.00437 6.11953 6.81952C6.11953 6.63528 6.1938 6.45468 6.32478 6.32437C6.45502 6.19407 6.63569 6.11919 6.81987 6.11919C7.00404 6.11919 7.18471 6.19407 7.31502 6.32437C7.44532 6.45468 7.5202 6.63528 7.5202 6.81952C7.5202 7.00444 7.44532 7.18444 7.31502 7.31461L7.31502 7.31461ZM7.30559 3.21522C7.57906 3.48868 7.57906 3.93212 7.30559 4.20559L4.20572 7.30545C4.06896 7.44215 3.88976 7.51057 3.7105 7.51057C3.53125 7.51057 3.35205 7.44222 3.21529 7.30545C2.94182 7.03198 2.94182 6.58855 3.21529 6.31508L6.31515 3.21522C6.58875 2.94182 7.03205 2.94182 7.30559 3.21522L7.30559 3.21522Z" transform="translate(7.7169037 9.36842)" id="Shape" fill="#17A2B8" fill-rule="evenodd" stroke="none" />
          <path d="M6.3163 14.6288C6.3163 10.956 9.30445 7.96781 12.9773 7.96781C13.0991 7.96781 13.22 7.97131 13.3401 7.97778L13.3401 0.700269C13.3401 0.313535 13.0266 0 12.6399 0L0.700269 0C0.313535 0 0 0.313535 0 0.700269L0 19.2997C0 19.6864 0.313535 19.9999 0.700269 19.9999L9.04263 19.9999C7.39071 18.7866 6.3163 16.831 6.3163 14.6288L6.3163 14.6288ZM3.96013 3.71993L8.92 3.71993C9.30674 3.71993 9.62027 4.03347 9.62027 4.4202C9.62027 4.80694 9.30674 5.12047 8.92 5.12047L3.96013 5.12047C3.5734 5.12047 3.25987 4.80694 3.25987 4.4202C3.25987 4.03347 3.5734 3.71993 3.96013 3.71993L3.96013 3.71993ZM3.96013 7.4398L8.92 7.4398C9.30674 7.4398 9.62027 7.75333 9.62027 8.14007C9.62027 8.5268 9.30674 8.84034 8.92 8.84034L3.96013 8.84034C3.5734 8.84034 3.25987 8.5268 3.25987 8.14007C3.2598 7.75333 3.5734 7.4398 3.96013 7.4398L3.96013 7.4398ZM5.20007 12.5602L3.96013 12.5602C3.5734 12.5602 3.25987 12.2467 3.25987 11.8599C3.25987 11.4732 3.5734 11.1597 3.96013 11.1597L5.20007 11.1597C5.5868 11.1597 5.90034 11.4732 5.90034 11.8599C5.90034 12.2467 5.5868 12.5602 5.20007 12.5602L5.20007 12.5602Z" id="Shape" fill="#17A2B8" fill-rule="evenodd" stroke="none" />
        </g>
      </g>
    </g>
  </g>
</svg>