<?xml version="1.0" encoding="utf-8"?>
<svg width="30px" height="30px" viewbox="0 0 30 30" version="1.1" xmlns:xlink="http://www.w3.org/1999/xlink" xmlns="http://www.w3.org/2000/svg">
  <g id="blood-pressure">
    <path d="M9.14063 19.4531C4.10042 19.4531 0 15.3527 0 10.3125L0 5.56641C0 5.08095 0.393448 4.6875 0.878906 4.6875C1.36436 4.6875 1.75781 5.08095 1.75781 5.56641L1.75781 10.3125C1.75781 14.3834 5.06973 17.6953 9.14063 17.6953C13.2115 17.6953 16.5234 14.3834 16.5234 10.3125L16.5234 0.878906C16.5234 0.393448 16.9169 0 17.4023 0C17.8878 0 18.2813 0.393448 18.2813 0.878906L18.2813 10.3125C18.2813 15.3527 14.1808 19.4531 9.14063 19.4531L9.14063 19.4531Z" transform="translate(7.6171875 10.546875)" id="Shape" fill="#485959" fill-rule="evenodd" stroke="none" />
    <path d="M16.1133 16.9922L0.878906 16.9922C0.393448 16.9922 0 16.5987 0 16.1133L0 0.878906C0 0.393448 0.393448 0 0.878906 0L16.1133 0C16.5987 0 16.9922 0.393448 16.9922 0.878906L16.9922 16.1133C16.9922 16.5987 16.5987 16.9922 16.1133 16.9922L16.1133 16.9922Z" id="Shape" fill="#00D7DF" fill-rule="evenodd" stroke="none" />
    <path d="M7.61719 0L0 0L0 16.9922L7.61719 16.9922C8.10265 16.9922 8.49609 16.5987 8.49609 16.1133L8.49609 0.878906C8.49609 0.393448 8.10265 0 7.61719 0L7.61719 0Z" transform="translate(8.496094 0)" id="Shape" fill="#00C7CE" fill-rule="evenodd" stroke="none" />
    <path d="M4.98047 9.96094C2.23434 9.96094 0 7.72659 0 4.98047C0 2.23434 2.23434 0 4.98047 0C7.72659 0 9.96094 2.23434 9.96094 4.98047C9.96094 7.72659 7.72659 9.96094 4.98047 9.96094L4.98047 9.96094Z" transform="translate(3.515625 3.515625)" id="Shape" fill="#FC0023" fill-rule="evenodd" stroke="none" />
    <path d="M4.98047 4.98047C4.98047 2.23434 2.74612 0 0 0L0 9.96094C2.74612 9.96094 4.98047 7.72659 4.98047 4.98047L4.98047 4.98047Z" transform="translate(8.496094 3.515625)" id="Shape" fill="#C9001C" fill-rule="evenodd" stroke="none" />
    <path d="M8.26172 0C7.77626 0 7.38281 0.393448 7.38281 0.878906L7.38281 10.3125C7.38281 14.3834 4.07089 17.6953 0 17.6953L0 19.4531C5.04021 19.4531 9.14063 15.3527 9.14063 10.3125L9.14063 0.878906C9.14063 0.393448 8.74718 0 8.26172 0L8.26172 0Z" transform="translate(16.757812 10.546875)" id="Shape" fill="#3F4A4A" fill-rule="evenodd" stroke="none" />
    <path d="M3.22266 0C1.44562 0 0 1.44562 0 3.22266C0 4.99969 1.44562 6.44531 3.22266 6.44531C4.99969 6.44531 6.44531 4.99969 6.44531 3.22266C6.44531 1.44562 4.99969 0 3.22266 0L3.22266 0Z" transform="translate(5.2734375 5.2734375)" id="Shape" fill="#E1EBF0" fill-rule="evenodd" stroke="none" />
    <path d="M3.22266 3.22266C3.22266 1.44562 1.77704 0 0 0L0 6.44531C1.77704 6.44531 3.22266 4.99969 3.22266 3.22266L3.22266 3.22266Z" transform="translate(8.496094 5.2734375)" id="Shape" fill="#CDE1E6" fill-rule="evenodd" stroke="none" />
    <path d="M0.878906 2.92969C0.393448 2.92969 0 2.53624 0 2.05078L0 0.878906C0 0.393448 0.393448 0 0.878906 0C1.36436 0 1.75781 0.393448 1.75781 0.878906L1.75781 2.05078C1.75781 2.53624 1.36436 2.92969 0.878906 2.92969L0.878906 2.92969Z" transform="translate(7.6171875 6.4453125)" id="Shape" fill="#485959" fill-rule="evenodd" stroke="none" />
    <path d="M0.878906 2.05078L0.878906 0.878906C0.878906 0.393448 0.485458 0 0 0L0 2.92969C0.485458 2.92969 0.878906 2.53624 0.878906 2.05078L0.878906 2.05078Z" transform="translate(8.496094 6.4453125)" id="Shape" fill="#3F4A4A" fill-rule="evenodd" stroke="none" />
    <path d="M4.39307 7.73309C4.16923 7.73309 3.94538 7.64817 3.77418 7.47834L0.773306 4.50242C-0.257349 3.47176 -0.257349 1.7991 0.770788 0.770958C1.76391 -0.22216 3.35898 -0.255806 4.39307 0.670021C5.42693 -0.255806 7.02201 -0.22216 8.01513 0.770958C9.04326 1.7991 9.04326 3.47176 8.01513 4.4999L5.01197 7.47834C4.84076 7.64817 4.61692 7.73309 4.39307 7.73309L4.39307 7.73309Z" transform="translate(12.364746 18.751282)" id="Shape" fill="#FC0023" fill-rule="evenodd" stroke="none" />
    <path d="M3.62228 0.770958C2.62894 -0.22216 1.03386 -0.255806 0 0.670021L0 7.73309C0.223846 7.73309 0.447693 7.64817 0.618896 7.47834L3.62228 4.4999C4.65019 3.47176 4.65019 1.7991 3.62228 0.770958L3.62228 0.770958Z" transform="translate(16.757812 18.751282)" id="Shape" fill="#C9001C" fill-rule="evenodd" stroke="none" />
    <path d="M4.98047 12.3047C3.60764 12.3047 2.33139 11.6357 1.38634 10.4208C0.492325 9.27132 0 7.75543 0 6.15234C0 4.54926 0.492325 3.03337 1.38634 1.88393C2.33139 0.669022 3.60764 0 4.98047 0C6.3533 0 7.62955 0.669022 8.5746 1.88393C9.46861 3.03337 9.96094 4.54926 9.96094 6.15234C9.96094 7.75543 9.46861 9.27132 8.5746 10.4208C7.62955 11.6357 6.3533 12.3047 4.98047 12.3047L4.98047 12.3047Z" transform="translate(20.039062 0)" id="Shape" fill="#FC0023" fill-rule="evenodd" stroke="none" />
    <path d="M3.59413 1.88393C2.64908 0.669022 1.37283 0 0 0L0 12.3047C1.37283 12.3047 2.64908 11.6357 3.59413 10.4208C4.48814 9.27132 4.98047 7.75543 4.98047 6.15234C4.98047 4.54926 4.48814 3.03337 3.59413 1.88393L3.59413 1.88393Z" transform="translate(25.019531 0)" id="Shape" fill="#C9001C" fill-rule="evenodd" stroke="none" />
  </g>
</svg>