<?xml version="1.0" encoding="utf-8"?>
<svg width="30px" height="30px" viewbox="0 0 30 30" version="1.1" xmlns:xlink="http://www.w3.org/1999/xlink" xmlns="http://www.w3.org/2000/svg">
  <defs>
    <path d="M0 0L30 0L30 30L0 30L0 0Z" id="path_1" />
    <clipPath id="mask_1">
      <use xlink:href="#path_1" />
    </clipPath>
  </defs>
  <g id="diabetes">
    <path d="M0 0L30 0L30 30L0 30L0 0Z" id="Background" fill="none" fill-rule="evenodd" stroke="none" />
    <g clip-path="url(#mask_1)">
      <g id="Group" transform="translate(5.7714844 0)">
        <path d="M8.78906 23.8477C3.93498 23.8477 0 19.9127 0 15.0586L0 3.51562C0 1.574 1.574 0 3.51563 0L14.0625 0C16.0041 0 17.5781 1.574 17.5781 3.51562L17.5781 15.0586C17.5781 19.9127 13.6431 23.8477 8.78906 23.8477L8.78906 23.8477Z" transform="translate(0.43945312 0.43945312)" id="Shape" fill="#42999B" fill-rule="evenodd" stroke="none" />
        <path d="M1.75781 0L0 0L0.878906 15.9375L0 19.3881C2.1 18.1706 3.51563 15.898 3.51563 13.3008L3.51563 1.75781C3.51563 0.788555 2.72707 0 1.75781 0L1.75781 0Z" transform="translate(12.744141 2.1972656)" id="Shape" fill="#4EF5E9" fill-rule="evenodd" stroke="none" />
        <path d="M12.3047 1.75781C12.3047 0.788555 11.5161 0 10.5469 0L1.75781 0C0.788555 0 0 0.788555 0 1.75781L0 13.3008C0 15.898 1.41563 18.1706 3.51563 19.3881L3.51563 18.5742C3.51563 17.6034 4.3026 16.8164 5.27344 16.8164L8.78906 16.8164C9.7599 16.8164 10.5469 17.6034 10.5469 18.5742L10.5469 19.3881C11.5969 18.1706 12.3047 15.898 12.3047 13.3008L12.3047 10.2246L8.78906 5.99121L12.3047 1.75781Z" transform="translate(2.1972656 2.1972656)" id="Shape" fill="#9BFEF7" fill-rule="evenodd" stroke="none" />
        <path d="M3.51563 0L0 4.2334L3.51563 8.4668L5.27344 8.4668L5.27344 0L3.51563 0Z" transform="translate(9.228516 3.9550781)" id="Shape" fill="#46B8B5" fill-rule="evenodd" stroke="none" />
        <path d="M0 0L8.78906 0L8.78906 8.4668L0 8.4668L0 0Z" transform="translate(3.9550781 3.9550781)" id="Shape" fill="#4AD6CF" fill-rule="evenodd" stroke="none" />
        <path d="M2.63672 0.878906L2.63672 4.39453L0.878906 4.39453L0 0L2.63672 0.878906Z" transform="translate(8.349609 25.166016)" id="Shape" fill="#9BFEF7" fill-rule="evenodd" stroke="none" />
        <path d="M1.75781 0L1.75781 4.39453L0 4.39453L0 0.878906L1.75781 0Z" transform="translate(7.470703 25.166016)" id="Shape" fill="#DBFFFC" fill-rule="evenodd" stroke="none" />
        <path d="M2.63672 0L2.63672 5.27344L0.878906 5.27344L0 2.63672L0.878906 0L2.63672 0Z" transform="translate(8.349609 20.771484)" id="Shape" fill="#FFD959" fill-rule="evenodd" stroke="none" />
        <path d="M0 0L1.75781 0L1.75781 5.27344L0 5.27344L0 0Z" transform="translate(7.470703 20.771484)" id="Shape" fill="#FFEAA6" fill-rule="evenodd" stroke="none" />
        <path d="M0 1.31836C0 0.59025 0.59025 0 1.31836 0C2.04647 0 2.63672 0.59025 2.63672 1.31836C2.63672 2.04647 2.04647 2.63672 1.31836 2.63672C0.59025 2.63672 0 2.04647 0 1.31836Z" transform="translate(3.9550781 14.1796875)" id="Circle" fill="#FFFFFF" fill-rule="evenodd" stroke="none" />
        <path d="M0 1.31836C0 0.59025 0.59025 0 1.31836 0C2.04647 0 2.63672 0.59025 2.63672 1.31836C2.63672 2.04647 2.04647 2.63672 1.31836 2.63672C0.59025 2.63672 0 2.04647 0 1.31836Z" transform="translate(11.865234 14.1796875)" id="Circle" fill="#FFFFFF" fill-rule="evenodd" stroke="none" />
        <path d="M2.34639 2.22563L0.878906 0L0 3.19336L0.878906 4.95117C1.84975 4.95117 2.63672 4.1642 2.63672 3.19336C2.63672 2.8357 2.52961 2.50324 2.34639 2.22563L2.34639 2.22563Z" transform="translate(8.349609 5.7128906)" id="Shape" fill="#EA1726" fill-rule="evenodd" stroke="none" />
        <path d="M0.290332 2.22562C0.107051 2.50324 0 2.8357 0 3.19336C0 4.1642 0.786973 4.95117 1.75781 4.95117L1.75781 0L0.290332 2.22562Z" transform="translate(7.470703 5.7128906)" id="Shape" fill="#FF4547" fill-rule="evenodd" stroke="none" />
        <path d="M14.502 0L3.95508 0C1.77422 0 0 1.77422 0 3.95508L0 15.498C0 17.6393 0.750059 19.726 2.11195 21.3737C3.37857 22.9061 5.11465 23.9934 7.03125 24.4627L7.03125 29.5605C7.03125 29.8032 7.22801 30 7.4707 30L10.9863 30C11.2291 30 11.4258 29.8032 11.4258 29.5605L11.4258 24.4627C13.3423 23.9934 15.0785 22.9061 16.3451 21.3737C17.707 19.726 18.457 17.6393 18.457 15.498L18.457 3.95508C18.457 1.77422 16.6828 0 14.502 0L14.502 0ZM10.5469 25.6055L7.91016 25.6055L7.91016 21.2109L10.5469 21.2109L10.5469 25.6055ZM7.91016 29.1211L7.91016 26.4844L10.5469 26.4844L10.5469 29.1211L7.91016 29.1211ZM17.5781 15.498C17.5781 19.2718 15.0214 22.5772 11.4258 23.5553L11.4258 20.7715C11.4258 20.5288 11.2291 20.332 10.9863 20.332L7.4707 20.332C7.22801 20.332 7.03125 20.5288 7.03125 20.7715L7.03125 23.5553C3.43559 22.5772 0.878906 19.2717 0.878906 15.498L0.878906 3.95508C0.878906 2.25885 2.25885 0.878906 3.95508 0.878906L14.502 0.878906C16.1981 0.878906 17.5781 2.25885 17.5781 3.95508L17.5781 15.498Z" id="Shape" fill="#000000" fill-rule="evenodd" stroke="none" />
        <path d="M11.4258 0.439453C11.4258 0.196758 11.2291 0 10.9863 0L0.439453 0C0.196758 0 0 0.196758 0 0.439453L0 8.90625C0 9.14894 0.196758 9.3457 0.439453 9.3457L10.9863 9.3457C11.2291 9.3457 11.4258 9.14894 11.4258 8.90625L11.4258 0.439453ZM10.5469 8.4668L0.878906 8.4668L0.878906 0.878906L10.5469 0.878906L10.5469 8.4668Z" transform="translate(3.515625 3.515625)" id="Shape" fill="#000000" fill-rule="evenodd" stroke="none" />
        <path d="M0 0.439453C0 0.19675 0.19675 0 0.439453 0C0.682156 0 0.878906 0.19675 0.878906 0.439453C0.878906 0.682156 0.682156 0.878906 0.439453 0.878906C0.19675 0.878906 0 0.682156 0 0.439453Z" transform="translate(8.7890625 27.363281)" id="Circle" fill="#000000" fill-rule="evenodd" stroke="none" />
        <path d="M12.7441 0L2.19727 0C0.985664 0 0 0.985664 0 2.19727C0 2.43996 0.196758 2.63672 0.439453 2.63672C0.682148 2.63672 0.878906 2.43996 0.878906 2.19727C0.878906 1.47029 1.47029 0.878906 2.19727 0.878906L12.7441 0.878906C13.4711 0.878906 14.0625 1.47029 14.0625 2.19727L14.0625 13.7402C14.0625 15.8167 13.0689 17.7717 11.4258 19.0099C11.4237 17.8 10.4388 16.8164 9.22852 16.8164L5.71289 16.8164C4.50258 16.8164 3.51768 17.8 3.51563 19.0098C1.87254 17.7717 0.878906 15.8167 0.878906 13.7402L0.878906 3.95508C0.878906 3.71238 0.682148 3.51563 0.439453 3.51563C0.196758 3.51563 0 3.71238 0 3.95508L0 13.7402C0 16.394 1.43104 18.8722 3.73465 20.2078C3.87059 20.2866 4.03828 20.2868 4.17445 20.2083C4.31062 20.1299 4.39453 19.9847 4.39453 19.8275L4.39453 19.0137C4.39453 18.2867 4.98592 17.6953 5.71289 17.6953L9.22852 17.6953C9.95543 17.6953 10.5469 18.2867 10.5469 19.0137L10.5469 19.8277C10.5469 19.9848 10.6308 20.13 10.767 20.2085C10.8349 20.2476 10.9106 20.2671 10.9863 20.2671C11.0624 20.2671 11.1386 20.2474 11.2068 20.2078C13.5104 18.8723 14.9414 16.394 14.9414 13.7402L14.9414 2.19727C14.9414 0.985664 13.9557 0 12.7441 0L12.7441 0Z" transform="translate(1.7578125 1.7578125)" id="Shape" fill="#000000" fill-rule="evenodd" stroke="none" />
        <path d="M1.75781 3.51563C2.72707 3.51563 3.51563 2.72707 3.51563 1.75781C3.51563 0.788555 2.72707 0 1.75781 0C0.788555 0 0 0.788555 0 1.75781C0 2.72707 0.788555 3.51563 1.75781 3.51563L1.75781 3.51563ZM1.75781 0.878906C2.24244 0.878906 2.63672 1.27318 2.63672 1.75781C2.63672 2.24244 2.24244 2.63672 1.75781 2.63672C1.27318 2.63672 0.878906 2.24244 0.878906 1.75781C0.878906 1.27318 1.27318 0.878906 1.75781 0.878906L1.75781 0.878906Z" transform="translate(3.515625 13.740234)" id="Shape" fill="#000000" fill-rule="evenodd" stroke="none" />
        <path d="M1.75781 0C0.788555 0 0 0.788555 0 1.75781C0 2.72707 0.788555 3.51563 1.75781 3.51563C2.72707 3.51563 3.51563 2.72707 3.51563 1.75781C3.51563 0.788555 2.72707 0 1.75781 0L1.75781 0ZM1.75781 2.63672C1.27318 2.63672 0.878906 2.24244 0.878906 1.75781C0.878906 1.27318 1.27318 0.878906 1.75781 0.878906C2.24244 0.878906 2.63672 1.27318 2.63672 1.75781C2.63672 2.24244 2.24244 2.63672 1.75781 2.63672L1.75781 2.63672Z" transform="translate(11.425781 13.740234)" id="Shape" fill="#000000" fill-rule="evenodd" stroke="none" />
        <path d="M2.19727 5.83008C3.40887 5.83008 4.39453 4.84441 4.39453 3.63281C4.39453 3.20109 4.26896 2.78274 4.03148 2.42303L2.56418 0.197578C2.48285 0.0742382 2.34498 0 2.19727 0C2.04955 0 1.91168 0.0742382 1.83041 0.197578L0.363047 2.42297C0.125567 2.78273 0 3.20109 0 3.63281C0 4.84441 0.985664 5.83008 2.19727 5.83008L2.19727 5.83008ZM1.09664 2.90701L2.19727 1.23779L3.29783 2.90701C3.44039 3.12287 3.51563 3.37377 3.51563 3.63281C3.51563 4.35978 2.92418 4.95117 2.19727 4.95117C1.47029 4.95117 0.878906 4.35978 0.878906 3.63281C0.878906 3.37377 0.95414 3.12287 1.09664 2.90701L1.09664 2.90701Z" transform="translate(7.03125 5.2734375)" id="Shape" fill="#000000" fill-rule="evenodd" stroke="none" />
      </g>
    </g>
  </g>
</svg>