<?xml version="1.0" encoding="utf-8"?>
<svg width="15px" height="15px" viewbox="0 0 15 15" version="1.1" xmlns:xlink="http://www.w3.org/1999/xlink" xmlns="http://www.w3.org/2000/svg">
  <defs>
    <path d="M0 0L15 0L15 15L0 15L0 0L0 0Z" id="path_1" />
    <rect width="15" height="15" id="artboard_1" />
    <clipPath id="clip_1">
      <use xlink:href="#artboard_1" clip-rule="evenodd" />
    </clipPath>
    <clipPath id="mask_1">
      <use xlink:href="#path_1" />
    </clipPath>
  </defs>
  <g id="MacBook-Pro-15&quot;" clip-path="url(#clip_1)">
    <g id="broadcast-hover">
      <g id="broadcast">
        <path d="M0 0L15 0L15 15L0 15L0 0L0 0Z" id="Background" fill="none" fill-rule="evenodd" stroke="none" />
        <g id="Mask-group">
          <path d="M0 0L15 0L15 15L0 15L0 0L0 0Z" id="path_1" fill="none" fill-rule="evenodd" stroke="none" />
          <g clip-path="url(#mask_1)">
            <g id="Group" transform="translate(0.0146779055 -1.5377997E-05)">
              <path d="M9.29952 12.2794L8.7534 12.2794C8.65788 11.9156 6.29658 2.91836 6.27276 2.82761C7.16484 1.67438 6.33192 0 4.86982 0C3.40497 0 2.57709 1.67713 3.46689 2.82761C3.44281 2.91939 1.08186 11.9157 0.986346 12.2794L0.440198 12.2794C0.197109 12.2794 0 12.4761 0 12.7189C0 12.9616 0.196994 13.1583 0.440198 13.1583L9.29952 13.1583C9.54264 13.1583 9.73974 12.9616 9.73974 12.7189C9.73974 12.4761 9.54264 12.2794 9.29952 12.2794L9.29952 12.2794L9.29952 12.2794ZM6.9495 8.874L7.38234 10.5234L5.74412 9.57354L6.9495 8.874L6.9495 8.874ZM6.4389 6.9285L5.53648 6.1347L6.10026 5.63816L6.4389 6.9285L6.4389 6.9285ZM4.86982 0.878904C5.35989 0.878904 5.75858 1.27339 5.75858 1.75827C5.75858 2.24316 5.35989 2.63764 4.86982 2.63764C4.37985 2.63764 3.98116 2.24316 3.98116 1.75827C3.98116 1.27339 4.37985 0.878904 4.86982 0.878904L4.86982 0.878904L4.86982 0.878904ZM4.22792 3.39615C4.63579 3.55465 5.09353 3.55866 5.51182 3.39615L5.85042 4.68625L4.87062 5.54913L3.88943 4.68613L4.22792 3.39615L4.22792 3.39615ZM3.63959 5.63782L4.20512 6.13518L3.29984 6.9324L3.63959 5.63782L3.63959 5.63782ZM4.87098 6.72078L6.47574 8.13228L4.86776 9.06558L3.26407 8.13582L4.87098 6.72078L4.87098 6.72078ZM2.78945 8.87694L3.99183 9.57402L2.35751 10.5226L2.78945 8.87694L2.78945 8.87694ZM1.89656 12.2794L2.04287 11.722L4.86809 10.0822L7.69698 11.7222L7.8432 12.2794L1.89656 12.2794L1.89656 12.2794Z" transform="translate(2.6590958 1.8417165)" id="Shape" fill="#115D65" fill-rule="evenodd" stroke="none" />
              <path d="M1.32749 4.67407C0.731808 3.39428 0.731118 1.90609 1.32749 0.62469C1.43 0.404623 1.33437 0.143354 1.11387 0.041044C0.89337 -0.0612661 0.63159 0.0342919 0.529193 0.254362C-0.175881 1.76887 -0.176913 3.52772 0.529193 5.0444C0.603726 5.20462 0.762648 5.2988 0.928572 5.2988C1.24837 5.2988 1.46348 4.96601 1.32749 4.67407L1.32749 4.67407L1.32749 4.67407Z" transform="translate(1.7724655 0.9506069)" id="Shape#1" fill="#115D65" fill-rule="evenodd" stroke="none" />
              <path d="M1.39456 0.0475148C1.17772 -0.0621197 0.912846 0.0243978 0.802884 0.24092C-0.267284 2.34869 -0.267972 4.8498 0.802884 6.95916C0.912846 7.1757 1.17784 7.2621 1.39456 7.15248C1.6115 7.04274 1.69819 6.77838 1.58822 6.56184C0.644988 4.70412 0.644304 2.49735 1.58822 0.638262C1.69819 0.421737 1.6115 0.157264 1.39456 0.0475148L1.39456 0.0475148L1.39456 0.0475148Z" transform="translate(0 1.3411046E-08)" id="Shape#2" fill="#115D65" fill-rule="evenodd" stroke="none" />
              <path d="M0.829416 3.35513C1.05645 3.26815 1.16986 3.01398 1.08283 2.78738C0.820926 2.106 0.805218 1.31945 1.08283 0.596984C1.16986 0.370391 1.05645 0.116218 0.829416 0.0292425C0.602262 -0.0576181 0.347822 0.0555641 0.260791 0.282157C-0.0865288 1.18601 -0.0873316 2.19618 0.260791 3.1021C0.347822 3.32892 0.602604 3.44198 0.829416 3.35513L0.829416 3.35513L0.829416 3.35513Z" transform="translate(3.5448089 1.9078056)" id="Shape#3" fill="#115D65" fill-rule="evenodd" stroke="none" />
              <path d="M0.254811 0.041044C0.0343094 0.143354 -0.0613209 0.404623 0.0410751 0.62481C0.636876 1.90448 0.637559 3.39279 0.0410751 4.67396C-0.0613209 4.89414 0.0343094 5.15541 0.254811 5.25772C0.475311 5.36015 0.737088 5.26436 0.839483 5.0444C1.54456 3.53 1.54559 1.77094 0.839483 0.254362C0.736974 0.0342919 0.475311 -0.0612661 0.254811 0.041044L0.254811 0.041044L0.254811 0.041044Z" transform="translate(11.916715 0.9506069)" id="Shape#4" fill="#115D65" fill-rule="evenodd" stroke="none" />
              <path d="M0.83295 0.24092C0.723102 0.0243978 0.458111 -0.0621197 0.241279 0.0475148C0.0244492 0.157264 -0.0622375 0.421737 0.0476108 0.638262C1.03579 2.58455 0.937409 4.86719 0.0770805 6.56172C-0.0328834 6.77826 0.0538032 7.04274 0.270749 7.15248C0.487466 7.2621 0.752454 7.1757 0.862422 6.95904C1.83764 5.03806 1.96057 2.46176 0.83295 0.24092L0.83295 0.24092L0.83295 0.24092Z" transform="translate(13.392598 0)" id="Shape#5" fill="#115D65" fill-rule="evenodd" stroke="none" />
              <path d="M0.282709 3.35513C0.509861 3.44198 0.764304 3.32869 0.851334 3.1021C1.18879 2.22388 1.2092 1.21348 0.851334 0.282157C0.764304 0.0555639 0.509631 -0.0576181 0.282709 0.0292425C0.0556721 0.116218 -0.0577309 0.370391 0.0292992 0.596985C0.298877 1.29851 0.299451 2.08438 0.0292992 2.78738C-0.0577309 3.01397 0.0556721 3.26815 0.282709 3.35513L0.282709 3.35513L0.282709 3.35513Z" transform="translate(10.400958 1.9078056)" id="Shape#6" fill="#115D65" fill-rule="evenodd" stroke="none" />
            </g>
          </g>
        </g>
      </g>
    </g>
  </g>
</svg>