<?xml version="1.0" encoding="utf-8"?>
<svg width="30px" height="30px" viewBox="0 0 30 30" version="1.1" xmlns:xlink="http://www.w3.org/1999/xlink" xmlns="http://www.w3.org/2000/svg">
  <desc>Created with Lunacy</desc>
  <defs>
    <path d="M0 0L15.6462 0L15.6462 15.6462L0 15.6462L0 0Z" id="path_1" />
    <path d="M0 5.16324C0 2.31166 2.31166 0 5.16324 0C8.01481 0 10.3265 2.31166 10.3265 5.16324C10.3265 8.01481 8.01481 10.3265 5.16324 10.3265C2.31166 10.3265 0 8.01481 0 5.16324Z" transform="translate(11.998535 14.173584)" id="path_2" />
    <clipPath id="mask_1">
      <use xlink:href="#path_1" />
    </clipPath>
    <clipPath id="mask_2">
      <use xlink:href="#path_2" />
    </clipPath>
  </defs>
  <g id="Group" transform="translate(0.5 0.5)">
    <path d="M0 14.5C0 6.49187 6.49187 0 14.5 0C22.5081 0 29 6.49187 29 14.5C29 22.5081 22.5081 29 14.5 29C6.49187 29 0 22.5081 0 14.5Z" id="Ellipse" fill="#FFFFFF" fill-rule="evenodd" stroke="#BF0030" stroke-width="1" />
    <g id="multiple-files" transform="translate(6.6748047 4.5)">
      <path d="M0 0L15.6462 0L15.6462 15.6462L0 15.6462L0 0Z" id="Background" fill="none" fill-rule="evenodd" stroke="none" />
      <g clip-path="url(#mask_1)">
        <path d="M11.2129 0L4.32133 0C3.71773 0.000253932 3.22625 0.491677 3.22567 1.09575L3.22567 1.61304L2.70819 1.61304C2.10456 1.61336 1.61311 2.10497 1.61266 2.70879L1.61266 3.22647L1.09553 3.22647C0.491518 3.22666 0.000634846 3.71789 0 4.32225L0.000634846 14.5506C0 15.155 0.491518 15.6465 1.09553 15.6462L5.93733 15.6462C6.27537 15.6462 6.5998 15.5128 6.83999 15.2749L8.09429 14.0331L9.59932 14.0331C10.2044 14.0334 10.6959 13.5419 10.6954 12.9376L10.6954 12.4198L11.2129 12.4198C11.8175 12.42 12.3089 11.9285 12.3084 11.3244L12.309 1.09578C12.3084 0.491423 11.8175 0.000253932 11.2129 0L11.2129 0ZM8.21756 12.4415L6.94911 12.4415C6.79748 12.4415 6.65375 12.4722 6.52256 12.5278C6.12954 12.6944 5.85348 13.0842 5.85304 13.5376L5.85304 13.5379L5.85304 13.5386L5.85348 14.7808L1.09555 14.7808C0.96922 14.7808 0.865647 14.6777 0.865234 14.5507L0.865234 4.32225C0.865234 4.19528 0.969188 4.09155 1.09555 4.09155L7.98725 4.09187C8.11415 4.09187 8.21753 4.19528 8.21753 4.32174L8.21753 12.4415L8.21756 12.4415ZM9.83041 12.9377C9.82977 13.0643 9.72642 13.1677 9.59952 13.1677L8.98065 13.1677C9.01709 13.1288 9.08349 13.0479 9.08349 12.8749C9.08349 10.7368 9.08349 4.32232 9.08349 4.32232C9.08292 3.71818 8.5915 3.22673 7.98685 3.22654L2.47852 3.22654L2.47852 2.70871C2.47852 2.58225 2.58149 2.47883 2.70775 2.47883L9.59952 2.47852C9.72642 2.47852 9.8304 2.58225 9.8304 2.7089L9.8304 12.9377L9.83041 12.9377ZM11.4434 11.3244C11.4428 11.4511 11.3395 11.5545 11.213 11.5545L10.6955 11.5545L10.696 2.70878C10.6955 2.10477 10.2045 1.61331 9.59941 1.61303L4.09155 1.61303L4.09155 1.09548C4.09155 0.96877 4.19497 0.86561 4.32082 0.86561L11.213 0.865356C11.3395 0.865356 11.4435 0.96877 11.4435 1.09574L11.4435 11.3244L11.4434 11.3244Z" transform="translate(1.668457 0)" id="Shape" fill="#BF0030" fill-rule="evenodd" stroke="none" />
      </g>
    </g>
    <path d="M0 5.16324C0 2.31166 2.31166 0 5.16324 0C8.01481 0 10.3265 2.31166 10.3265 5.16324C10.3265 8.01481 8.01481 10.3265 5.16324 10.3265C2.31166 10.3265 0 8.01481 0 5.16324Z" transform="translate(11.998535 14.173584)" id="Mask" fill="#8A0022" fill-rule="evenodd" stroke="none" />
    <g clip-path="url(#mask_2)">
      <path d="M0.538937 2.55453L2.01207 1.08139L2.01207 7.50641C2.01207 7.68234 2.15282 7.82309 2.32875 7.82309C2.50468 7.82309 2.64542 7.68234 2.64542 7.50641L2.64542 1.08139L4.11856 2.55452C4.17955 2.61551 4.26165 2.64836 4.3414 2.64836C4.4235 2.64836 4.50326 2.61786 4.56425 2.55452C4.68857 2.4302 4.68857 2.23081 4.56425 2.10649L2.55159 0.0938301C2.49295 0.0351863 2.41085 0 2.32875 0C2.2443 0 2.16454 0.0328405 2.1059 0.0938301L0.0932438 2.10649C-0.0310812 2.23081 -0.0310812 2.4302 0.0932438 2.55452C0.215223 2.6765 0.416958 2.6765 0.538937 2.55453L0.538937 2.55453Z" transform="translate(14.971436 17.537476)" id="Shape" fill="#FFFFFF" fill-rule="evenodd" stroke="#FFFFFF" stroke-width="1" />
    </g>
  </g>
</svg>