<?xml version="1.0" encoding="utf-8"?>
<svg width="45px" height="45px" viewbox="0 0 45 45" version="1.1" xmlns:xlink="http://www.w3.org/1999/xlink" xmlns="http://www.w3.org/2000/svg">
  <defs>
    <path d="M0 0L45 0L45 44.3077L0 44.3077L0 0Z" id="path_1" />
    <rect width="45" height="45" id="artboard_1" />
    <clipPath id="clip_1">
      <use xlink:href="#artboard_1" clip-rule="evenodd" />
    </clipPath>
    <clipPath id="mask_1">
      <use xlink:href="#path_1" />
    </clipPath>
  </defs>
  <g id="Pixelbook" clip-path="url(#clip_1)">
    <use xlink:href="#artboard_1" stroke="none" fill="#FFFFFF" />
    <g id="call-waiting">
      <path d="M0 0L45 0L45 44.3077L0 44.3077L0 0Z" id="Background" fill="none" fill-rule="evenodd" stroke="none" />
      <g clip-path="url(#mask_1)">
        <g id="noun_call-waiting_2981650">
          <g id="Group">
            <path d="M19.4443 14.652L14.1717 1.21637C13.7981 -0.00630371 12.2362 -0.421888 11.3108 0.503545L3.11534 8.69898C-1.03845 12.8528 -1.03845 19.637 3.11534 23.7901L20.2789 40.9536C24.4265 45.1012 31.2203 45.1033 35.37 40.9536L43.5619 32.7547C44.2906 32.0268 43.9548 30.3294 42.9765 29.9454L29.5422 24.6743C28.9009 24.3625 28.1055 24.4727 27.5736 25.0052L26.018 26.5602C25.1558 27.4223 23.7343 27.4223 22.8722 26.5602L17.5087 21.1968C16.6466 20.3347 16.6466 18.9132 17.5087 18.051C18.4177 17.1379 19.9988 16.0639 19.4443 14.652L19.4443 14.652L19.4443 14.652ZM32.154 6.9795C32.154 4.71715 35.5942 4.71715 35.5942 6.9795L35.5942 10.8663L38.4036 14.4118C39.7982 16.176 37.1114 18.3007 35.716 16.5352L32.6301 12.6408C32.3349 12.3319 32.154 11.9135 32.154 11.4532L32.154 6.9795L32.154 6.9795L32.154 6.9795ZM33.8741 0.327395C40.0089 0.327395 45 5.31854 45 11.4533C45 17.5879 40.0089 22.5791 33.8741 22.5791C27.7325 22.5791 22.7483 17.5914 22.7483 11.4533C22.7483 5.31648 27.736 0.327392 33.8741 0.327392L33.8741 0.327395L33.8741 0.327395ZM33.8741 3.76764C29.6288 3.76764 26.1885 7.20651 26.1885 11.4532C26.1885 15.6999 29.624 19.1388 33.8741 19.1388C38.1277 19.1388 41.5597 15.7067 41.5597 11.4532C41.5597 7.19965 38.1277 3.76764 33.8741 3.76764L33.8741 3.76764L33.8741 3.76764ZM28.4502 28.9932L29.2132 28.2301L39.2788 32.1795L32.937 38.5213C30.1249 41.3341 25.5218 41.332 22.7111 38.5213L5.54758 21.3578C2.73825 18.5484 2.73825 13.9406 5.54758 11.132L11.8893 4.79012L15.8388 14.8557L15.0758 15.6187C12.8699 17.8246 12.8699 21.4239 15.0758 23.6298L20.4391 28.9932C22.645 31.1991 26.2443 31.1991 28.4502 28.9932L28.4502 28.9932L28.4502 28.9932Z" id="Shape" fill="#FF0C6C" fill-rule="evenodd" stroke="none" />
          </g>
        </g>
      </g>
    </g>
  </g>
</svg>