<?xml version="1.0" encoding="utf-8"?>
<svg width="30px" height="30px" viewbox="0 0 30 30" version="1.1" xmlns:xlink="http://www.w3.org/1999/xlink" xmlns="http://www.w3.org/2000/svg">
  <path d="M0 14.5C0 6.49187 6.49187 0 14.5 0C22.5081 0 29 6.49187 29 14.5C29 22.5081 22.5081 29 14.5 29C6.49187 29 0 22.5081 0 14.5L0 14.5Z" transform="translate(0.5 0.5)" id="Ellipse" fill="#FFFFFF" fill-rule="evenodd" stroke="#BF0030" stroke-width="1" />
  <path d="M14.5154 12.1766L9.83892 7.50064L14.5154 2.82471C15.1596 2.17966 15.1596 1.13266 14.517 0.485868C13.8712 -0.162512 12.8256 -0.160845 12.1797 0.4842L7.49999 5.16346L2.82029 0.4842C2.17443 -0.160845 1.1288 -0.162513 0.48294 0.485868C-0.161258 1.13258 -0.161258 2.17958 0.484606 2.82471L5.16106 7.50064L0.484606 12.1766C-0.161258 12.8216 -0.161258 13.8686 0.48294 14.5154C0.80508 14.8396 1.22958 15 1.65249 15C2.0754 15 2.49823 14.8379 2.82037 14.517L7.50007 9.83773L12.1798 14.517C12.5019 14.8396 12.9247 15 13.3477 15C13.7706 15 14.1951 14.8379 14.5172 14.5154C15.1612 13.8686 15.1612 12.8216 14.5154 12.1766L14.5154 12.1766Z" transform="translate(7.5 7.5)" id="Shape" fill="#BF0030" fill-rule="evenodd" stroke="none" />
</svg>