<?xml version="1.0" encoding="utf-8"?>
<svg width="15px" height="15px" viewbox="0 0 15 15" version="1.1" xmlns:xlink="http://www.w3.org/1999/xlink" xmlns="http://www.w3.org/2000/svg">
  <defs>
    <path d="M0 0L15 0L15 15L0 15L0 0Z" id="path_1" />
    <clipPath id="mask_1">
      <use xlink:href="#path_1" />
    </clipPath>
  </defs>
  <g id="caregiver">
    <path d="M0 0L15 0L15 15L0 15L0 0Z" id="Background" fill="none" fill-rule="evenodd" stroke="none" />
    <g clip-path="url(#mask_1)">
      <g id="Group" transform="translate(2.1941757 0.8756218)">
        <path d="M0.763125 0C0.763125 0 0.962812 0.741738 1.53785 0.776133C1.53785 0.776133 0.770274 1.04127 0.757324 1.60828C0.757324 1.60828 0.606269 0.813047 0 0.784512C-5.85616e-05 0.784571 0.706055 0.677578 0.763125 1.11759e-07L0.763125 0Z" transform="translate(1.1360183 0.6549638)" id="Shape" fill="#D7E057" fill-rule="evenodd" stroke="none" />
        <path d="M0.8451 1.78403C0.803323 1.78403 0.766819 1.75438 0.75885 1.71272C0.757444 1.70545 0.612717 0.985102 0.083733 0.960199C0.0386158 0.958032 0.00246339 0.922055 0.000119805 0.876938C-0.002224 0.831762 0.0300613 0.79227 0.0747096 0.785473C0.10055 0.78143 0.71303 0.679008 0.763421 0.0804729C0.766995 0.0379924 0.800569 0.00424236 0.84305 0.000375174C0.885471 -0.00355057 0.924612 0.0236955 0.935862 0.0648869C0.937737 0.0716837 1.12682 0.746098 1.63096 0.776215C1.6728 0.778734 1.70701 0.810434 1.71276 0.851977C1.7185 0.893461 1.69407 0.933305 1.65451 0.947016C1.64742 0.949477 0.944475 1.19961 0.93305 1.69813C0.931995 1.74307 0.897308 1.77993 0.852542 1.78362C0.850022 1.78397 0.847562 1.78403 0.845101 1.78403L0.8451 1.78403ZM0.391526 0.862406C0.618753 0.977778 0.756565 1.19909 0.836018 1.38248C0.954729 1.14688 1.18418 0.984809 1.36037 0.888715C1.11809 0.780785 0.962932 0.557602 0.872053 0.37766C0.767053 0.633129 0.563264 0.780082 0.391526 0.862406L0.391526 0.862406Z" transform="translate(1.0481254 0.56710815)" id="Shape" fill="#3A312A" fill-rule="evenodd" stroke="none" />
        <path d="M0.539766 2.23517e-07C0.539766 2.23517e-07 0.681035 0.524649 1.08773 0.548965C1.08773 0.548965 0.544805 0.736524 0.535664 1.13754C0.535664 1.13754 0.428789 0.575039 0 0.554883C0 0.554883 0.499395 0.479238 0.539766 0L0.539766 2.23517e-07Z" transform="translate(0.08795165 1.6499441)" id="Shape" fill="#D7E057" fill-rule="evenodd" stroke="none" />
        <path d="M0.62344 1.31332C0.581663 1.31332 0.5451 1.28362 0.53719 1.24184C0.536253 1.23709 0.437346 0.747249 0.083733 0.730608C0.0386158 0.72844 0.00246339 0.692464 0.000119805 0.647346C-0.002224 0.602171 0.0300613 0.562678 0.0747096 0.555882C0.0920534 0.553128 0.506194 0.483049 0.540061 0.0805105C0.543636 0.0379714 0.577268 0.00416279 0.619749 0.000354275C0.662347 -0.00345424 0.701311 0.0237919 0.712444 0.0648661C0.713675 0.0694949 0.842991 0.528928 1.18084 0.549085C1.22274 0.551604 1.25696 0.583304 1.26264 0.624846C1.26838 0.666389 1.24395 0.706175 1.20428 0.719886C1.19953 0.721526 0.719007 0.892913 0.711331 1.22742C0.710335 1.27237 0.67553 1.30928 0.630706 1.31303C0.628304 1.31321 0.625901 1.31332 0.62344 1.31332L0.62344 1.31332ZM0.358713 0.637854C0.48217 0.71596 0.565139 0.836722 0.61928 0.947229C0.699905 0.816448 0.825237 0.720354 0.933635 0.655843C0.799631 0.581487 0.706057 0.459554 0.644123 0.349749C0.575334 0.483753 0.467463 0.576858 0.358713 0.637854L0.358713 0.637854Z" transform="translate(5.878508E-05 1.5621096)" id="Shape" fill="#3A312A" fill-rule="evenodd" stroke="none" />
        <path d="M0.539766 0C0.539766 0 0.681035 0.524648 1.08773 0.549023C1.08773 0.549023 0.544805 0.736582 0.535664 1.1376C0.535664 1.1376 0.428789 0.575098 0 0.554941C0 0.554941 0.499395 0.479297 0.539766 0L0.539766 0Z" transform="translate(0.08795165 0.0879521)" id="Shape" fill="#D7E057" fill-rule="evenodd" stroke="none" />
        <path d="M0.623499 1.31344C0.581721 1.31344 0.545159 1.28373 0.537249 1.24196C0.536311 1.23721 0.437405 0.747307 0.0837918 0.730667C0.038616 0.728499 0.00246361 0.692522 0.000119805 0.647405C-0.002224 0.602229 0.0300613 0.562737 0.0747096 0.55594C0.0920534 0.553186 0.506194 0.483108 0.540061 0.0805106C0.543636 0.0379716 0.577268 0.00416301 0.619749 0.000354387C0.662347 -0.00345418 0.701311 0.0237919 0.712444 0.0648661C0.713675 0.069495 0.842991 0.528929 1.18084 0.549143C1.22268 0.551663 1.25696 0.583362 1.26264 0.624905C1.26838 0.666448 1.24389 0.706233 1.20428 0.719944C1.19953 0.721585 0.719007 0.892913 0.711331 1.22748C0.710335 1.27242 0.67553 1.30934 0.630706 1.31309C0.628362 1.31338 0.62596 1.31344 0.623499 1.31344L0.623499 1.31344ZM0.358772 0.637972C0.482229 0.716077 0.565198 0.836898 0.619338 0.947347C0.699963 0.816566 0.825296 0.720472 0.933694 0.656019C0.79969 0.581663 0.706116 0.45973 0.644182 0.349925C0.575393 0.483929 0.467522 0.576976 0.358772 0.637972L0.358772 0.637972Z" id="Shape" fill="#3A312A" fill-rule="evenodd" stroke="none" />
        <path d="M7.81992 4.34865L7.81992 2.75021C7.81992 1.77639 7.03125 0.987714 6.05625 0.987714L4.89023 0.987714L4.89023 0L2.93086 0L2.93086 0.987714L1.76543 0.987714C0.79043 0.987714 0 1.77639 0 2.75021L0 4.34865L7.81992 4.34865Z" transform="translate(2.7036936 8.812152)" id="Shape" fill="#F6E2C6" fill-rule="evenodd" stroke="none" />
        <path d="M7.90781 4.52443L0.0878906 4.52443C0.0393163 4.52443 0 4.48512 0 4.43654L0 2.83811C0 1.81781 0.831387 0.987714 1.85332 0.987714L2.93086 0.987714L2.93086 0.0878906C2.93086 0.0393167 2.97018 0 3.01875 0L4.97813 0C5.0267 0 5.06602 0.0393167 5.06602 0.0878906L5.06602 0.987714L6.14414 0.987714C7.16508 0.987714 7.9957 1.81781 7.9957 2.83811L7.9957 4.43654C7.9957 4.48512 7.95633 4.52443 7.90781 4.52443L7.90781 4.52443ZM0.175781 4.34865L7.81992 4.34865L7.81992 2.83811C7.81992 1.91473 7.06817 1.1635 6.14414 1.1635L4.97813 1.1635C4.92955 1.1635 4.89024 1.12418 4.89024 1.07561L4.89024 0.175781L3.10664 0.175781L3.10664 1.07561C3.10664 1.12418 3.06732 1.1635 3.01875 1.1635L1.85332 1.1635C0.928301 1.1635 0.175782 1.91473 0.175782 2.83811L0.175781 4.34865Z" transform="translate(2.615862 8.724261)" id="Shape" fill="#3A312A" fill-rule="evenodd" stroke="none" />
        <path d="M7.81992 3.36094L7.81992 1.7625C7.81992 0.788672 7.03125 0 6.05625 0L5.44453 0C5.25586 0.253125 4.64004 0.439453 3.90996 0.439453C3.17988 0.439453 2.56406 0.253125 2.37539 0L1.76543 0C0.79043 0 0 0.788672 0 1.7625L0 3.36094L7.81992 3.36094Z" transform="translate(2.7036932 9.799867)" id="Shape" fill="#F16C7A" fill-rule="evenodd" stroke="none" />
        <path d="M7.90781 3.53672L0.0878906 3.53672C0.0393163 3.53672 0 3.4974 0 3.44883L0 1.85039C0 0.830098 0.831387 0 1.85332 0L2.46328 0C2.49105 0 2.51713 0.0131249 2.53377 0.0353909C2.68348 0.236192 3.23443 0.439453 3.99785 0.439453C4.76127 0.439453 5.31229 0.236192 5.46193 0.0353909C5.47852 0.0131249 5.50465 0 5.53242 0L6.14414 0C7.16508 0 7.9957 0.830098 7.9957 1.85039L7.9957 3.44883C7.9957 3.4974 7.95633 3.53672 7.90781 3.53672L7.90781 3.53672ZM0.175781 3.36094L7.81992 3.36094L7.81992 1.85039C7.81992 0.927012 7.06816 0.175781 6.14414 0.175781L5.57385 0.175781C5.33666 0.440156 4.71463 0.615234 3.99785 0.615234C3.28107 0.615234 2.65904 0.440156 2.42186 0.175781L1.85332 0.175781C0.9283 0.175781 0.175781 0.927012 0.175781 1.85039L0.175781 3.36094Z" transform="translate(2.615862 9.711976)" id="Shape" fill="#3A312A" fill-rule="evenodd" stroke="none" />
        <path d="M1.66353 1.98867L0.615234 1.98867L0.615234 0L0.287109 0C0.189258 0 0.0931643 0.00820309 0 0.0234371L0 3.35742L4.86328 3.35742L4.86328 0.023438C4.7707 0.00761747 4.67519 8.94069e-07 4.57793 8.94069e-07L4.24805 8.94069e-07L4.24805 1.98867L2.70404 1.98867L1.66353 1.98867Z" transform="translate(4.1820145 9.799867)" id="Shape" fill="#8AC5DC" fill-rule="evenodd" stroke="none" />
        <path d="M4.95117 3.53314L0.0878906 3.53314C0.0393163 3.53314 0 3.49383 0 3.44525L0 0.11127C0 0.0682032 0.0312303 0.031465 0.0737111 0.0245512C0.173555 0.0082621 0.274922 0 0.375 0L0.703125 0C0.751699 0 0.791016 0.0393167 0.791016 0.0878906L0.791016 1.98867L1.75143 1.98867C1.8 1.98867 1.83932 2.02799 1.83932 2.07656C1.83932 2.12514 1.8 2.16445 1.75143 2.16445L0.703126 2.16445C0.654551 2.16445 0.615235 2.12514 0.615235 2.07656L0.615235 0.175781L0.375001 0.175781C0.308965 0.175781 0.242169 0.179765 0.175782 0.187676L0.175782 3.35742L4.86328 3.35742L4.86328 0.187383C4.79936 0.179707 4.7332 0.175839 4.66582 0.175839L4.42383 0.175839L4.42383 2.07662C4.42383 2.1252 4.38451 2.16451 4.33594 2.16451L2.79193 2.16451C2.74336 2.16451 2.70404 2.1252 2.70404 2.07662C2.70404 2.02805 2.74336 1.98873 2.79193 1.98873L4.24805 1.98873L4.24805 0.0879488C4.24805 0.0393748 4.28736 5.81145e-05 4.33594 5.81145e-05L4.66582 5.81145e-05C4.76912 5.81145e-05 4.87014 0.00837833 4.96594 0.0247264C5.00818 0.0319335 5.03906 0.0685546 5.03906 0.111387L5.03906 3.44537C5.03906 3.49383 4.99969 3.53315 4.95117 3.53315L4.95117 3.53314Z" transform="translate(4.0941834 9.712035)" id="Shape" fill="#3A312A" fill-rule="evenodd" stroke="none" />
        <path d="M1.3411e-06 0.682869C-0.000751466 0.306485 0.303915 0.000754595 0.680494 1.3411e-06C1.05707 -0.000751466 1.36296 0.303757 1.36371 0.680142C1.36447 1.05653 1.0598 1.36226 0.68322 1.36301C0.306641 1.36376 0.000754148 1.05925 1.3411e-06 0.682869Z" transform="translate(2.9551017 4.8807406)" id="Ellipse" fill="#F8E4C8" fill-rule="evenodd" stroke="none" />
        <path d="M0.769805 1.53879C0.345351 1.53879 0 1.19361 0 0.769394C0 0.345176 0.345351 0 0.769805 0C1.19426 0 1.53955 0.345176 1.53955 0.769394C1.53955 1.19361 1.1942 1.53879 0.769805 1.53879L0.769805 1.53879ZM0.769805 0.175722C0.442266 0.175722 0.175781 0.442031 0.175781 0.769335C0.175781 1.09664 0.442265 1.36295 0.769805 1.36295C1.09734 1.36295 1.36377 1.09664 1.36377 0.769335C1.36377 0.442031 1.09729 0.175722 0.769805 0.175722L0.769805 0.175722Z" transform="translate(2.8681085 4.792035)" id="Shape" fill="#3A312A" fill-rule="evenodd" stroke="none" />
        <path d="M1.78814e-06 0.682869C-0.000750125 0.306485 0.303917 0.000754595 0.680495 1.3411e-06C1.05707 -0.000751466 1.36296 0.303757 1.36371 0.680142C1.36447 1.05653 1.0598 1.36226 0.683221 1.36301C0.306643 1.36376 0.000754595 1.05925 1.78814e-06 0.682869Z" transform="translate(8.907113 4.8809075)" id="Ellipse" fill="#F8E4C8" fill-rule="evenodd" stroke="none" />
        <path d="M0.769746 1.53879C0.345293 1.53879 0 1.19361 0 0.769394C0 0.345176 0.345351 0 0.769746 0C1.1942 0 1.53955 0.345176 1.53955 0.769394C1.53955 1.19361 1.1942 1.53879 0.769746 1.53879L0.769746 1.53879ZM0.769746 0.175722C0.442207 0.175722 0.175781 0.442031 0.175781 0.769335C0.175781 1.09664 0.442207 1.36295 0.769746 1.36295C1.09728 1.36295 1.36377 1.09664 1.36377 0.769335C1.36371 0.442031 1.09728 0.175722 0.769746 0.175722L0.769746 0.175722Z" transform="translate(8.819769 4.792035)" id="Shape" fill="#3A312A" fill-rule="evenodd" stroke="none" />
        <path d="M6.0457 3.02127C6.0457 4.6899 4.43789 7.25109 3.02285 7.25109C1.67221 7.25109 0 4.6899 0 3.02127C0 1.35264 1.3534 0 3.02285 0C4.69236 0 6.0457 1.35264 6.0457 3.02127L6.0457 3.02127Z" transform="translate(3.5908036 2.2093394)" id="Shape" fill="#F8E4C8" fill-rule="evenodd" stroke="none" />
        <g id="Group" transform="translate(3.5029716 2.1213899)">
          <path d="M3.11074 7.42687C2.46299 7.42687 1.68158 6.856 1.02053 5.89981C0.391055 4.98932 0 3.92004 0 3.10922C0 1.39482 1.39547 0 3.11074 0C4.82602 0 6.22148 1.39477 6.22148 3.10922C6.22148 3.92924 5.83981 4.99834 5.22539 5.89934C4.56346 6.87012 3.79266 7.42687 3.11074 7.42687L3.11074 7.42687ZM3.11074 0.175781C1.49238 0.175781 0.175782 1.49168 0.175782 3.10922C0.175782 3.88623 0.554883 4.91719 1.16514 5.79984C1.79338 6.70857 2.5207 7.25109 3.11074 7.25109C3.72451 7.25109 4.46074 6.70875 5.0802 5.80031C5.67574 4.92691 6.0457 3.89578 6.0457 3.10922C6.04565 1.49174 4.72904 0.175781 3.11074 0.175781L3.11074 0.175781Z" id="Shape" fill="#3A312A" fill-rule="evenodd" stroke="none" />
          <path d="M0.590039 0.294902C0.590039 0.457793 0.457969 0.589804 0.29502 0.589804C0.13207 0.589804 0 0.457793 0 0.294902C0 0.13207 0.13207 0 0.29502 0C0.45791 5.85616e-05 0.590039 0.13207 0.590039 0.294902L0.590039 0.294902Z" transform="translate(1.7484958 2.780156)" id="Shape" fill="#3A312A" fill-rule="evenodd" stroke="none" />
          <path d="M0.590098 0.294902C0.590098 0.457793 0.458028 0.589804 0.29502 0.589804C0.132012 0.589804 0 0.457793 0 0.294902C0 0.13207 0.13207 0 0.29502 0C0.45797 0 0.590098 0.13207 0.590098 0.294902L0.590098 0.294902Z" transform="translate(3.8828902 2.780156)" id="Shape" fill="#3A312A" fill-rule="evenodd" stroke="none" />
        </g>
        <path d="M1.01648 0.379746C1.01648 0.589454 0.788906 0.759493 0.508242 0.759493C0.227578 0.759493 0 0.589454 0 0.379746C0 0.170039 0.227578 0 0.508242 0C0.788906 0 1.01648 0.170039 1.01648 0.379746L1.01648 0.379746Z" transform="translate(4.448558 5.69344)" id="Shape" fill="#F59689" fill-rule="evenodd" stroke="none" />
        <path d="M1.01648 0.379746C1.01648 0.589454 0.788965 0.759493 0.508242 0.759493C0.227519 0.759493 0 0.589454 0 0.379746C0 0.170039 0.227578 0 0.508242 0C0.788965 0 1.01648 0.170039 1.01648 0.379746L1.01648 0.379746Z" transform="translate(7.762327 5.69344)" id="Shape" fill="#F59689" fill-rule="evenodd" stroke="none" />
        <path d="M3.12873 0C1.40074 0 0 1.33857 0 2.9898C0 3.16453 0.0316407 3.29479 0.0904101 3.45744C0.118125 3.53414 0.566133 3.28922 0.604277 3.26232C0.795059 3.12809 0.950918 2.94615 1.06746 2.745C1.11563 2.66133 1.15582 2.57625 1.18816 2.49111C1.29129 2.21953 1.57148 1.46379 1.85602 1.52309C2.23758 1.6026 2.67 1.64748 3.12879 1.64748C3.58752 1.64748 4.02 1.6026 4.40156 1.52309C4.68609 1.46379 4.96629 2.21953 5.06941 2.49111C5.10176 2.57625 5.14189 2.66139 5.19012 2.745C5.3826 3.07775 5.70768 3.39457 6.10318 3.45217C6.10418 3.43307 6.12832 3.42656 6.14631 3.42006C6.2758 3.37307 6.25758 3.09346 6.25758 2.98969C6.25746 1.33857 4.85672 0 3.12873 0L3.12873 0Z" transform="translate(3.5198467 1.5424834)" id="Shape" fill="#87796F" fill-rule="evenodd" stroke="none" />
        <path d="M0.2042 3.64682C0.19002 3.64682 0.177364 3.64523 0.166348 3.64178C0.132891 3.63123 0.107168 3.60697 0.0956838 3.57521C0.0366211 3.41191 5.90086e-05 3.27176 0 3.0777C0 1.38064 1.44299 0 3.21662 0C4.99025 0 6.4333 1.38064 6.4333 3.07764L6.43365 3.11139C6.43582 3.25658 6.43975 3.52688 6.26414 3.59062C6.26402 3.59062 6.26344 3.59086 6.26262 3.59115C6.25816 3.59742 6.25283 3.60311 6.2468 3.60809C6.22769 3.62379 6.20291 3.63053 6.17842 3.62713C5.8074 3.57305 5.44236 3.29262 5.20195 2.87695C5.15221 2.79064 5.10961 2.701 5.07516 2.61023L5.06871 2.59324C4.75898 1.77633 4.58361 1.68129 4.50744 1.69705C4.10537 1.78084 3.67107 1.82332 3.21674 1.82332C2.7624 1.82332 2.32816 1.78084 1.92603 1.69705C1.8498 1.68123 1.67449 1.77627 1.36476 2.59324L1.35832 2.61023C1.32393 2.70094 1.28127 2.79059 1.23164 2.87678C1.10279 3.0992 0.933807 3.28775 0.742909 3.42211C0.739218 3.42475 0.371425 3.64682 0.204198 3.64682L0.2042 3.64682ZM6.27885 3.5448L6.27885 3.6034C6.27885 3.58387 6.27885 3.56434 6.27885 3.5448L6.27885 3.5448ZM3.21674 0.17584C1.54002 0.17584 0.175899 1.47762 0.175899 3.07775C0.175899 3.22693 0.201505 3.34131 0.243927 3.46658C0.347403 3.43828 0.589454 3.31395 0.641954 3.27832C0.811993 3.15867 0.963341 2.98939 1.07942 2.78895C1.1243 2.71102 1.16285 2.62986 1.19397 2.54789L1.20041 2.53096C1.40279 1.99723 1.65147 1.46021 1.96195 1.52502C2.35225 1.60635 2.77447 1.6476 3.2168 1.6476C3.65912 1.6476 4.08129 1.60635 4.47164 1.52502C4.7819 1.46033 5.0308 1.99723 5.23318 2.53096L5.23963 2.54789C5.27074 2.62986 5.30936 2.71102 5.35436 2.78906C5.55803 3.14127 5.85621 3.38338 6.15943 3.44537C6.17561 3.43553 6.19119 3.43002 6.19998 3.42697C6.22606 3.41754 6.26186 3.36662 6.25816 3.11396L6.25781 3.07764C6.25758 1.47762 4.89346 0.17584 3.21674 0.17584L3.21674 0.17584Z" transform="translate(3.431838 1.4545344)" id="Shape" fill="#3A312A" fill-rule="evenodd" stroke="none" />
        <path d="M0.923149 0.695458C0.496293 0.695458 0.188617 0.503798 0.00855893 0.125751C-0.0123006 0.0819228 0.00627369 0.0294811 0.0501019 0.00862242C0.0939882 -0.0122953 0.14643 0.00633717 0.16723 0.0501654C0.317758 0.366103 0.565024 0.519678 0.923149 0.519678C1.38159 0.519678 1.61614 0.217099 1.67608 0.0570792C1.69319 0.0115523 1.74393 -0.0113583 1.78922 0.00557542C1.83469 0.0226262 1.85772 0.0732512 1.84067 0.11872C1.73661 0.396513 1.40508 0.695459 0.92315 0.695459L0.923149 0.695458Z" transform="translate(5.690449 7.073725)" id="Shape" fill="#3A312A" fill-rule="evenodd" stroke="none" />
        <path d="M4.74609 1.8457C4.74609 2.70328 3.68361 3.39844 2.37305 3.39844C1.06242 3.39844 0 2.70328 0 1.8457C0 0.988125 2.28516 0 2.37305 0C2.40234 0 4.74609 0.988125 4.74609 1.8457L4.74609 1.8457Z" transform="translate(4.24055 0.09668269)" id="Shape" fill="#87796F" fill-rule="evenodd" stroke="none" />
        <path d="M2.46094 3.57422C1.10397 3.57422 0 2.83822 0 1.93359C0 1.00723 2.33971 0 2.46094 0C2.5135 0 3.15328 0.283125 3.70371 0.613828C4.51201 1.09945 4.92188 1.54348 4.92188 1.93359C4.92188 2.83822 3.81791 3.57422 2.46094 3.57422L2.46094 3.57422ZM2.45637 0.179004C2.18484 0.25957 0.175781 1.18957 0.175781 1.93359C0.175781 2.74131 1.20088 3.39844 2.46094 3.39844C3.721 3.39844 4.74609 2.74131 4.74609 1.93359C4.74609 1.20387 2.7283 0.280137 2.45637 0.179004L2.45637 0.179004Z" transform="translate(4.1526594 0.008792059)" id="Shape" fill="#3A312A" fill-rule="evenodd" stroke="none" />
        <path d="M1.30254 1.63242L1.30254 3.14297L0.423633 3.14297L0.423633 1.63242C0.423633 1.20644 0.263672 0.817382 0 0.521484L0 0C0.744668 0.170508 1.30254 0.837304 1.30254 1.63242L1.30254 1.63242Z" transform="translate(9.133246 9.929945)" id="Shape" fill="#D34E5C" fill-rule="evenodd" stroke="none" />
        <path d="M0.439453 0.0117186L0.439453 0.393164C0.308203 0.283007 0.160547 0.192188 0 0.125976L0 0L0.241992 0C0.309375 0 0.375586 0.00410199 0.439453 0.0117186L0.439453 0.0117186Z" transform="translate(8.518012 9.887757)" id="Shape" fill="#6CA8BF" fill-rule="evenodd" stroke="none" />
      </g>
    </g>
  </g>
</svg>