<?xml version="1.0" encoding="utf-8"?>
<svg width="64px" height="64px" viewbox="0 0 64 64" version="1.1" xmlns:xlink="http://www.w3.org/1999/xlink" xmlns="http://www.w3.org/2000/svg">
  <defs>
    <path d="M0 27.5C0 12.3122 12.3122 0 27.5 0C42.6878 0 55 12.3122 55 27.5C55 42.6878 42.6878 55 27.5 55C12.3122 55 0 42.6878 0 27.5Z" id="path_1" />
    <rect width="64" height="64" id="artboard_1" />
    <clipPath id="clip_1">
      <use xlink:href="#artboard_1" clip-rule="evenodd" />
    </clipPath>
    <clipPath id="mask_1">
      <use xlink:href="#path_1" />
    </clipPath>
  </defs>
  <g id="Quad-HD-Copy" clip-path="url(#clip_1)">
    <g id="caregiver-Mask" transform="translate(4 4)">
      <path d="M0 27.5C0 12.3122 12.3122 0 27.5 0C42.6878 0 55 12.3122 55 27.5C55 42.6878 42.6878 55 27.5 55C12.3122 55 0 42.6878 0 27.5Z" id="Mask" fill="none" fill-rule="evenodd" stroke="#FFFFFF" stroke-width="2" />
      <g clip-path="url(#mask_1)">
        <g id="caregiver" transform="translate(8 15)">
          <g id="Group">
            <path d="M0.27469 3.77258C0.528128 4.61485 1.41782 5.09883 2.26704 4.84336C3.1129 4.58883 3.59227 3.69688 3.33782 2.85102L2.48 0C2.36485 0.7375 1.96774 1.43078 1.31602 1.90398L0 2.85969L0.27469 3.77258Z" transform="translate(16.544466 17.895002)" id="Shape" fill="#FFFFFF" fill-rule="evenodd" stroke="none" />
            <path d="M0 3.89547C0 1.74406 1.74406 0 3.89547 0C6.04688 0 7.79094 1.74406 7.79094 3.89547C7.79094 6.04688 6.04688 7.79094 3.89547 7.79094C1.74406 7.79094 0 6.04688 0 3.89547Z" transform="translate(22.142044 0)" id="Circle" fill="#FFFFFF" fill-rule="evenodd" stroke="none" />
            <path d="M2.675 12.7548L2.675 4.99836L1.9132 0.691874C1.90688 0.691874 1.90047 0.692577 1.89414 0.692577C1.1943 0.692577 0.524219 0.440545 0 0L0 3.57938C0.16125 3.79899 0.299922 4.03844 0.411407 4.29531C0.938516 5.51 0.77086 6.90133 0 7.95047L0 14.7881C0 15.5268 0.598828 16.1256 1.3375 16.1256C2.07617 16.1256 2.675 15.5268 2.675 14.7881L2.675 14.3198L4.92649 14.3198C4.50422 13.9045 4.19305 13.3689 4.0518 12.7547L2.675 12.7547L2.675 12.7548Z" transform="translate(16.455477 23.457586)" id="Shape" fill="#FFFFFF" fill-rule="evenodd" stroke="none" />
            <path d="M3.02367 0.187423C3.02156 0.200315 3.02008 0.213203 3.01781 0.226095L2.14086 5.18328L2.14086 12.314L0.874765 12.314C0.733514 12.9282 0.422344 13.4638 0 13.8791L2.14086 13.8791L2.14086 14.3474C2.14086 15.0861 2.73969 15.6849 3.47836 15.6849C4.21703 15.6849 4.81586 15.0861 4.81586 14.3474C4.81586 13.7882 4.81586 1.03078 4.81586 0C4.27117 0.240781 3.65422 0.320468 3.02367 0.187421L3.02367 0.187423Z" transform="translate(30.096107 23.898361)" id="Shape" fill="#FFFFFF" fill-rule="evenodd" stroke="none" />
            <path d="M0.856016 0C0.383282 0 0 0.383282 0 0.856016L0 12.827C0 13.2997 0.383282 13.683 0.856016 13.683C1.32875 13.683 1.71203 13.2997 1.71203 12.827L1.71203 0.856016C1.71203 0.383203 1.32875 0 0.856016 0L0.856016 0Z" transform="translate(35.89159 22.890474)" id="Shape" fill="#FFFFFF" fill-rule="evenodd" stroke="none" />
            <path d="M5.53055 10.9194L3.8868 1.62793C3.70203 0.583634 2.72695 -0.121834 1.68555 0.0175405C1.54953 0.992463 0.927346 1.86113 0 2.28606C0.00156164 2.29559 0.00265598 2.3052 0.0042963 2.31473L2.11383 14.2397C2.30352 15.3122 3.32672 16.0272 4.39844 15.8375C4.7868 15.7689 5.12789 15.5904 5.39657 15.3404C5.09508 14.743 4.97719 14.0467 5.10266 13.3371L5.53055 10.9194Z" transform="translate(19.579624 21.593948)" id="Shape" fill="#FFFFFF" fill-rule="evenodd" stroke="none" />
            <path d="M0 3.22781C0 3.70055 0.383282 4.08383 0.856017 4.08383C1.32875 4.08383 1.71203 3.70055 1.71203 3.22781L1.71203 0L0 1.81992L0 3.22781Z" transform="translate(13.763922 32.489616)" id="Shape" fill="#FFFFFF" fill-rule="evenodd" stroke="none" />
            <path d="M0 0.856016L0 2.65094C0.619142 2.69859 1.20539 2.90094 1.71203 3.22664L1.71203 0.856016C1.71203 0.383282 1.32875 0 0.856017 0C0.383203 0 0 0.383203 0 0.856016L0 0.856016Z" transform="translate(13.763922 22.890474)" id="Shape" fill="#FFFFFF" fill-rule="evenodd" stroke="none" />
            <path d="M6.05228 1.94093C5.49595 1.51046 5.11345 0.894134 4.97103 0.212414C4.80283 0.127413 4.6197 0.0649929 4.42462 0.0304604C3.35275 -0.159149 2.32962 0.556164 2.14001 1.62827L0.0304795 13.5533C-0.159209 14.6254 0.556183 15.6483 1.62829 15.8379C2.70243 16.0279 3.72361 15.3102 3.9129 14.2401C6.15877 1.46905 6.05751 2.29905 6.05228 1.94093L6.05228 1.94093Z" transform="translate(25.871729 21.593529)" id="Shape" fill="#FFFFFF" fill-rule="evenodd" stroke="none" />
            <g id="Group" transform="translate(15.0811 7.565548)">
              <path d="M20.0572 3.30094C17.8627 0 16.4647 0 16.0054 0L14.2671 0C13.3899 0.792109 12.2286 1.27523 10.9564 1.27523C9.68423 1.27523 8.5229 0.792031 7.64571 0L5.91477 0C5.45563 0 4.05821 0 1.86008 3.29977C1.46828 3.88789 0.309141 5.71602 0 7.17797C1.05859 6.75758 2.28235 6.99836 3.10492 7.80641C3.29641 7.28563 3.74774 6.27633 4.37383 5.30016C5.05071 4.24469 5.62758 3.61258 5.95813 3.32445L5.95813 12.3638C5.99586 12.4895 6.05602 12.688 6.09188 12.8097C7.76032 12.6238 9.30852 13.7639 9.60516 15.4405L10.0106 17.7325L11.3056 17.7325L11.711 15.4405C12.0431 13.5627 13.9374 12.3737 15.7898 12.9241C15.8214 12.7988 15.8291 12.7855 15.9482 12.3856C15.9482 12.3856 15.9403 4.01 15.9388 3.30477C16.2649 3.58359 16.8519 4.22102 17.5424 5.30024C18.2802 6.45313 18.6453 7.32844 18.7564 7.71414L17.1117 13.1805C16.8573 14.0263 17.3367 14.9183 18.1825 15.1728C19.025 15.4262 19.9193 14.9513 20.1749 14.102L21.9222 8.29438C21.9679 8.14235 21.9908 7.9843 21.99 7.82555C21.9822 6.31305 20.5087 3.98 20.0572 3.30094L20.0572 3.30094Z" id="Shape" fill="#FFFFFF" fill-rule="evenodd" stroke="none" />
            </g>
            <path d="M0.0414688 4.49951C-0.27118 2.35005 1.21785 0.354117 3.36731 0.0414687C5.51677 -0.27118 7.5127 1.21785 7.82535 3.36731C8.13799 5.51676 6.64897 7.51269 4.49951 7.82534C2.35005 8.13799 0.354117 6.64896 0.0414688 4.49951Z" transform="translate(4.93681 6.7105556)" id="Ellipse" fill="#FFFFFF" fill-rule="evenodd" stroke="none" />
            <g id="Group" transform="translate(0 15.232597)">
              <path d="M17.5935 1.16748C17.0155 0.371546 15.9016 0.194749 15.1057 0.772874L10.2409 4.30561L6.36727 1.44561L9.88751 3.17069L10.1826 2.95639C10.0588 1.62756 9.06774 0.537015 7.74438 0.297719L6.48993 0.0708437C5.32446 -0.139937 4.12305 0.124047 3.15321 0.80389C2.18336 1.48381 1.52563 2.52319 1.32641 3.69069L0.0593 11.2346C-0.372966 13.808 1.61305 16.1519 4.22251 16.1482L8.52071 16.142L3.79485 21.1655C2.98602 22.0253 3.02735 23.378 3.88712 24.1868C4.74673 24.9955 6.09938 24.9545 6.90837 24.0945L15.0363 15.4548C15.6213 14.8329 15.7801 13.9226 15.4402 13.1394C15.1011 12.3581 14.3308 11.8529 13.4795 11.8529C13.4774 11.8529 13.4753 11.8529 13.4733 11.8529L8.61118 11.8671C8.7111 11.3405 9.09399 9.32225 9.09399 9.32225C9.09399 9.32225 8.52868 8.82272 5.04235 4.89553L9.15813 7.93421C9.78852 8.41092 10.6644 8.41296 11.2968 7.94116L17.1988 3.6553C17.9949 3.07725 18.1715 1.96342 17.5935 1.16748L17.5935 1.16748Z" id="Shape" fill="#FFFFFF" fill-rule="evenodd" stroke="none" />
            </g>
          </g>
        </g>
      </g>
    </g>
  </g>
</svg>