<?xml version="1.0" encoding="utf-8"?>
<svg width="100px" height="100px" viewbox="0 0 100 100" version="1.1" xmlns:xlink="http://www.w3.org/1999/xlink" xmlns="http://www.w3.org/2000/svg">
  <defs>
    <path d="M0 0L100 0L100 100L0 100L0 0Z" id="path_1" />
    <clipPath id="mask_1">
      <use xlink:href="#path_1" />
    </clipPath>
  </defs>
  <g id="doctor">
    <path d="M0 0L100 0L100 100L0 100L0 0Z" id="Background" fill="none" fill-rule="evenodd" stroke="none" />
    <g clip-path="url(#mask_1)">
      <g id="Group" transform="translate(12.24231 0)">
        <g id="Group" transform="translate(1.4650879 1.4648438)">
          <path d="M40.8893 64.4531L12.4244 64.4531C5.5625 64.4531 0 58.8904 0 52.0287L0 26.6568C0 11.9346 11.9348 0 26.6568 0C41.3789 0 53.3137 11.9346 53.3137 26.6568L53.3137 52.0287C53.3137 58.8904 47.751 64.4531 40.8893 64.4531L40.8893 64.4531Z" transform="translate(9.635742 0)" id="Shape" fill="#655E67" fill-rule="evenodd" stroke="none" />
          <path d="M2.92969 0C1.93945 0 0.962305 0.0558594 0 0.160938C13.3436 1.61992 23.7271 12.925 23.7271 26.6568L23.7271 52.0287C23.7271 58.8906 18.1646 64.4531 11.3027 64.4531L17.1621 64.4531C24.024 64.4531 29.5865 58.8906 29.5865 52.0287L29.5865 26.6568C29.5865 11.9346 17.6518 2.98023e-06 2.92969 2.98023e-06L2.92969 0Z" transform="translate(33.362915 0)" id="Shape" fill="#544F56" fill-rule="evenodd" stroke="none" />
          <g id="Group" transform="translate(0 51.171875)">
            <g id="Group">
              <path d="M72.5852 45.4102L72.5852 26.8766C72.5852 21.8447 69.3728 17.3744 64.6037 15.7697L60.3158 14.327L58.4814 16.6395L56.5217 13.0504L47.6445 10.0635C46.0549 9.52851 44.984 8.03847 44.984 6.36113L44.984 0L27.6012 0L27.6012 6.36094C27.6012 8.03828 26.5305 9.52832 24.9406 10.0633L7.98144 15.7697C3.2123 17.3744 0 21.8447 0 26.8766L0 45.4102C0 46.4889 0.874414 47.3633 1.95313 47.3633L70.6322 47.3633C71.7107 47.3633 72.5852 46.4889 72.5852 45.4102L72.5852 45.4102Z" id="Shape" fill="#B3E59F" fill-rule="evenodd" stroke="none" />
              <g id="Group" transform="translate(27.601196 0)">
                <path d="M37.0025 15.7697L32.7146 14.327L30.8803 16.6395L28.9205 13.0504L20.0434 10.0635C18.4537 9.52851 17.3828 8.03847 17.3828 6.36113L17.3828 0L0 0L0 2.92969L11.5234 2.92969L11.5234 9.29062C11.5234 10.9678 12.5941 12.458 14.184 12.993L31.1432 18.6994C35.9123 20.3041 39.1246 24.7744 39.1246 29.8063L39.1246 47.3633L43.0309 47.3633C44.1096 47.3633 44.984 46.4889 44.984 45.4102L44.984 26.8766C44.984 21.8447 41.7717 17.3744 37.0025 15.7697L37.0025 15.7697Z" id="Shape" fill="#95D6A4" fill-rule="evenodd" stroke="none" />
              </g>
              <path d="M0 10.1074L11.1262 21.2336C11.4312 21.5387 11.926 21.5387 12.2311 21.2336L23.259 10.2059L22.8354 10.0633C21.2457 9.52832 20.1748 8.03828 20.1748 6.36094L20.1748 0L2.79199 0L2.79199 6.36094C2.79199 8.03809 1.72129 9.52832 0.131446 10.0633L0 10.1074Z" transform="translate(24.809204 0)" id="Shape" fill="#E2A770" fill-rule="evenodd" stroke="none" />
              <path d="M14.0863 10.0633C12.4967 9.52832 11.4258 8.03828 11.4258 6.36113L11.4258 0L5.5664 0L5.5664 6.36094C5.55488 7.53828 6.13281 8.67988 7.0455 9.42559C7.75234 10.0031 7.77812 11.0783 7.13262 11.7238L0 18.8564L2.37734 21.2336C2.68242 21.5387 3.17715 21.5387 3.48223 21.2336L14.5102 10.2059L14.0863 10.0633Z" transform="translate(33.558228 0)" id="Shape" fill="#D5985C" fill-rule="evenodd" stroke="none" />
              <path d="M0 6.30723C0 2.82384 2.82384 0 6.30723 0C9.79061 0 12.6145 2.82384 12.6145 6.30723C12.6145 9.79061 9.79061 12.6145 6.30723 12.6145C2.82384 12.6145 0 9.79061 0 6.30723Z" transform="translate(52.174194 26.602905)" id="Circle" fill="#F1EFF1" fill-rule="evenodd" stroke="none" />
            </g>
          </g>
          <path d="M1.54004 8.69961L0 8.69961L0 0L1.54004 0C3.94238 0 5.88984 1.94746 5.88984 4.3498C5.88984 6.75215 3.94238 8.69961 1.54004 8.69961L1.54004 8.69961Z" transform="translate(57.05957 27.358643)" id="Shape" fill="#D5985C" fill-rule="evenodd" stroke="none" />
          <g id="Group" transform="translate(15.525757 19.481812)">
            <g id="Group">
              <path d="M41.5338 7.87702L41.5338 16.2462C41.5338 27.7399 32.1965 37.0526 20.6936 37.013C9.21621 36.9733 0 27.4983 0 16.0208L0 7.87702C3.3248 7.62351 8.20859 6.82507 13.5127 4.29577C16.1936 3.01726 18.4062 1.57116 20.1703 0.223506C20.5305 -0.0516892 21.0205 -0.0753224 21.4035 0.166865C23.6723 1.60124 26.4322 3.11354 29.6781 4.46081C34.1529 6.31804 38.2439 7.31921 41.5338 7.87702L41.5338 7.87702Z" id="Shape" fill="#E2A770" fill-rule="evenodd" stroke="none" />
            </g>
            <g id="Group" transform="translate(8.777344 6.5490723)">
              <path d="M26.8971 0L26.8971 6.76738C26.8971 18.2611 17.5598 27.5738 6.05684 27.5342C3.94688 27.5268 1.91387 27.1996 0 26.6008C3.36328 29.0162 7.46973 30.4484 11.9162 30.4639C23.4191 30.5035 32.7564 21.1906 32.7564 9.69707C32.7564 6.00527 32.7564 5.01973 32.7564 1.32774C31.009 1.03164 29.034 0.6084 26.8971 0L26.8971 0Z" id="Shape" fill="#D5985C" fill-rule="evenodd" stroke="none" />
            </g>
          </g>
          <path d="M4.3498 8.69961L5.88984 8.69961L5.88984 0L4.3498 0C1.94746 0 0 1.94746 0 4.3498C0 6.75215 1.94746 8.69961 4.3498 8.69961L4.3498 8.69961Z" transform="translate(9.635742 27.358643)" id="Shape" fill="#D5985C" fill-rule="evenodd" stroke="none" />
        </g>
        <path d="M37.7576 88.2813C36.9486 88.2813 36.2927 88.9371 36.2927 89.7461C36.2927 90.5551 36.9486 91.2109 37.7576 91.2109C38.5666 91.2109 39.2224 90.5551 39.2224 89.7461C39.2224 88.9371 38.5666 88.2813 37.7576 88.2813L37.7576 88.2813ZM37.7576 79.4922C36.9486 79.4922 36.2927 80.148 36.2927 80.957C36.2927 81.766 36.9486 82.4219 37.7576 82.4219C38.5666 82.4219 39.2224 81.766 39.2224 80.957C39.2224 80.148 38.5666 79.4922 37.7576 79.4922L37.7576 79.4922ZM37.7576 97.0703C36.9486 97.0703 36.2927 97.7262 36.2927 98.5352C36.2927 99.3441 36.9486 100 37.7576 100C38.5666 100 39.2224 99.3441 39.2224 98.5352C39.2224 97.7262 38.5666 97.0703 37.7576 97.0703L37.7576 97.0703ZM66.5353 67.018L60.015 64.8238C63.6195 62.2564 65.8787 58.0428 65.8787 53.4943C65.8881 53.4756 65.8787 28.1213 65.8787 28.1213C65.8787 20.6123 62.9539 13.5508 57.643 8.23789C52.3311 2.92559 45.2689 0 37.7576 0C32.933 0 28.173 1.24277 23.992 3.59414C23.2869 3.99063 23.0367 4.88379 23.4332 5.58887C23.8297 6.29414 24.7231 6.54395 25.4279 6.14766C29.1715 4.04258 33.435 2.92969 37.7576 2.92969C44.4863 2.92969 50.8127 5.55039 55.5713 10.309C60.3289 15.0686 62.949 21.3943 62.949 28.1211L62.949 28.1277C62.0982 27.6395 61.1139 27.3586 60.0646 27.3586L58.657 27.3586C54.7379 26.6855 50.8939 25.5748 47.2303 24.0543C44.442 22.8971 41.7324 21.491 39.1769 19.8754C38.282 19.3094 37.1145 19.3619 36.2717 20.0061C34.2781 21.5289 32.1254 22.8459 29.8729 23.9201C25.8258 25.8502 21.4709 27.0066 16.9285 27.3586L15.4508 27.3586C14.4016 27.3586 13.4172 27.6395 12.5664 28.1277L12.5664 28.1211C12.5664 21.3051 15.2453 14.9209 20.1098 10.1447C20.6871 9.57793 20.6955 8.65058 20.1287 8.07324C19.5621 7.49609 18.6346 7.4873 18.0572 8.0543C12.6271 13.3857 9.63672 20.5125 9.63672 28.1211L9.63672 53.4941C9.63672 58.0426 11.8959 62.2564 15.5004 64.8236L8.97988 67.018C3.60879 68.8258 0 73.8475 0 79.5137L0 98.5352C0 99.3441 0.655859 100 1.46484 100C2.27383 100 2.92969 99.3441 2.92969 98.5352L2.92969 79.5137C2.92969 75.1066 5.73672 71.2008 9.91445 69.7947L12.4602 68.9381C12.0834 70.4863 11.9168 72.0822 11.9754 73.6621C12.0309 75.1621 12.284 76.6365 12.7221 78.0664C9.87656 78.9207 7.79687 81.5629 7.79687 84.683L7.79687 90.6445C7.79687 92.1193 8.99668 93.319 10.4713 93.319L12.1129 93.319C12.9219 93.319 13.5777 92.6631 13.5777 91.8541C13.5777 91.0451 12.9219 90.3893 12.1129 90.3893L10.7264 90.3893L10.7264 84.6828C10.7264 82.49 12.5096 80.7061 14.702 80.7047C14.7031 80.7047 14.7041 80.7049 14.7053 80.7049C14.7064 80.7049 14.7076 80.7047 14.7088 80.7047C16.9006 80.707 18.683 82.4906 18.683 84.6828L18.683 90.3893L17.2967 90.3893C16.4877 90.3893 15.8318 91.0451 15.8318 91.8541C15.8318 92.6631 16.4877 93.319 17.2967 93.319L18.9383 93.319C20.4129 93.319 21.6127 92.1191 21.6127 90.6445L21.6127 84.683C21.6127 81.2244 19.0578 78.3518 15.7363 77.8523C15.2393 76.4658 14.9572 75.0242 14.9027 73.5537C14.8307 71.6037 15.1711 69.6227 15.8879 67.7846L25.8803 64.4219L36.3648 74.9063C37.2213 75.7709 38.6818 75.775 39.5414 74.9063L42.435 72.0127C43.007 71.4406 43.007 70.5131 42.435 69.9412C41.8629 69.3691 40.9353 69.3691 40.3635 69.9412L37.9529 72.3512L28.6676 63.0658C30.0443 61.869 30.6717 60.0445 30.5311 58.2037C32.7746 58.9861 35.1791 59.4156 37.6793 59.4244C40.1992 59.4332 42.6668 59.0221 44.9842 58.2277C44.7449 60.0959 45.6104 62.1289 47.0639 63.2402L45.1871 65.117C44.615 65.6891 44.615 66.6166 45.1871 67.1885C45.7592 67.7605 46.6867 67.7605 47.2586 67.1885L49.9271 64.5199L58.8477 67.5219C59.5223 69.2375 59.8705 71.0932 59.8531 72.9295C59.8373 74.5943 59.5193 76.2756 58.933 77.843C55.125 78.3414 52.1744 81.6049 52.1744 85.5467C52.1744 89.8322 55.6609 93.3187 59.9465 93.3187C64.232 93.3187 67.7186 89.8324 67.7186 85.5469C67.7186 81.9592 65.2744 78.9328 61.9643 78.042C62.4857 76.3983 62.7666 74.6705 62.7828 72.9574C62.7965 71.5232 62.625 70.0791 62.2822 68.6775L65.601 69.7943C69.7789 71.2006 72.5857 75.1065 72.5857 79.5135L72.5857 98.535C72.5857 99.3439 73.2416 99.9998 74.0506 99.9998C74.8596 99.9998 75.5154 99.3439 75.5154 98.535L75.5154 79.5135C75.5154 73.8475 71.9066 68.826 66.5353 67.018L66.5353 67.018ZM59.9895 30.2883L60.0647 30.2883C61.6516 30.2883 62.9428 31.5766 62.9491 33.162L62.9491 33.1844C62.942 34.7911 61.6034 36.1042 59.9895 36.0581L59.9895 30.2883ZM12.5662 33.1621C12.5709 31.5545 13.9136 30.2432 15.5257 30.2885L15.5257 36.0584C13.9119 36.1029 12.573 34.7951 12.5662 33.1848L12.5662 33.1621ZM27.6014 58.998C27.6014 60.0478 26.9338 60.9771 25.9389 61.3109L19.2184 63.5726C15.2197 61.8609 12.5664 57.874 12.5664 53.4943L12.5664 38.2191C13.4855 38.7504 14.5014 39.0062 15.6172 38.9883C16.3127 46.8064 21.0008 53.4937 27.6014 56.9373L27.6014 58.998ZM37.6892 56.4947C27.0838 56.458 18.4554 47.698 18.4554 36.9674L18.4554 30.1584C22.8896 29.6715 27.1486 28.4648 31.134 26.5644C33.4896 25.4412 35.7439 24.0724 37.8386 22.4945C40.4676 24.1388 43.2482 25.5736 46.1072 26.7601C49.6281 28.2217 53.307 29.3254 57.0595 30.047L57.0595 37.1927C57.0595 42.3611 55.0433 47.2166 51.3824 50.865C47.6592 54.5756 43.0084 56.5133 37.6892 56.4947L37.6892 56.4947ZM56.297 63.5725L49.575 61.3104C48.5814 60.9772 47.9138 60.0479 47.9138 58.9981L47.9138 56.9799C49.9306 55.942 51.7974 54.5877 53.4505 52.9402C57.2404 49.1635 59.4988 44.2633 59.9173 38.9879C60.9945 39.0033 62.0667 38.7314 62.9492 38.2188L62.9492 53.4939C62.949 57.8738 60.2957 61.8609 56.297 63.5725L56.297 63.5725ZM64.7888 85.5469C64.7888 88.217 62.6165 90.3893 59.9466 90.3893C57.2765 90.3893 55.1042 88.217 55.1042 85.5469C55.1042 82.8787 57.2736 80.7078 59.941 80.7047C59.9425 80.7047 59.9441 80.7049 59.9457 80.7049C59.947 80.7049 59.9484 80.7047 59.9498 80.7047C62.6183 80.7063 64.7888 82.8778 64.7888 85.5469L64.7888 85.5469ZM47.2296 31.4832C46.4206 31.4832 45.7648 32.139 45.7648 32.948L45.7648 36.299C45.7648 37.108 46.4206 37.7638 47.2296 37.7638C48.0386 37.7638 48.6945 37.108 48.6945 36.299L48.6945 32.948C48.6945 32.139 48.0386 31.4832 47.2296 31.4832L47.2296 31.4832ZM39.8374 45.4008C39.5078 45.635 38.816 46.0328 37.8865 46.066C36.838 46.1026 36.0503 45.6647 35.6763 45.3996C35.0163 44.9319 34.1019 45.0879 33.6341 45.7481C33.1663 46.408 33.3224 47.3225 33.9826 47.7902C34.6308 48.2496 35.963 48.9981 37.7587 48.9981C39.332 48.9981 40.7929 48.3156 41.5339 47.7893C42.1935 47.3207 42.3484 46.4063 41.8798 45.7467C41.4115 45.0871 40.497 44.9322 39.8374 45.4008L39.8374 45.4008ZM28.2855 31.4832C27.4765 31.4832 26.8207 32.139 26.8207 32.948L26.8207 36.299C26.8207 37.108 27.4765 37.7638 28.2855 37.7638C29.0945 37.7638 29.7504 37.108 29.7504 36.299L29.7504 32.948C29.7504 32.139 29.0947 31.4832 28.2855 31.4832L28.2855 31.4832Z" id="Shape" fill="#000000" fill-rule="evenodd" stroke="none" />
      </g>
    </g>
  </g>
</svg>