<?xml version="1.0" encoding="utf-8"?>
<svg width="120px" height="120px" viewBox="0 0 120 120" version="1.1" xmlns:xlink="http://www.w3.org/1999/xlink" xmlns="http://www.w3.org/2000/svg">
  <desc>Created with Lunacy</desc>
  <defs>
    <path d="M0 0L120 0L120 120L0 120L0 0Z" id="path_1" />
    <clipPath id="mask_1">
      <use xlink:href="#path_1" />
    </clipPath>
  </defs>
  <g id="medical-history">
    <path d="M0 0L120 0L120 120L0 120L0 0Z" id="Background" fill="none" fill-rule="evenodd" stroke="none" />
    <g clip-path="url(#mask_1)">
      <g id="Group" transform="translate(26.517578 28.513153)">
        <path d="M66.9852 54.1021L66.9852 9.8406L49.6166 9.8406L45.1509 14.662C43.3726 16.5788 40.4282 15.8477 39.5788 13.5357L37.8794 8.83285L29.8767 19.7203C28.4343 21.8544 24.66 21.5185 23.9289 18.4161L20.0758 0L13.8912 8.47676C13.2587 9.32649 12.2709 9.8403 11.2038 9.8403L0 9.8403L0 54.1216C0 55.9592 1.48182 57.4609 3.33929 57.4609L63.6654 57.4609C65.503 57.4609 66.9852 55.9592 66.9852 54.1021L66.9852 54.1021Z" transform="translate(0.019592285 27.347061)" id="Shape" fill="#FFFFFF" fill-rule="evenodd" stroke="none" />
        <path d="M63.6651 0L55.3464 0L55.3464 5.96733C55.3464 7.80493 53.8646 9.30662 52.0071 9.30662L14.9973 9.30662C13.1597 9.30662 11.658 7.8248 11.658 5.96733L11.658 0L3.33929 0C1.50169 0 0 1.48182 0 3.33929L0 30.5482L9.50438 30.5482L19.0879 17.3882C20.9848 14.8986 24.6206 16.0246 25.0357 18.6725L28.8888 37.1476L36.1604 27.248C37.6226 25.1931 41.0013 25.4697 41.9697 28.0779L43.9457 33.492L45.6846 31.5951C46.317 30.9034 47.1863 30.528 48.1347 30.528L66.9656 30.528L66.9656 3.33929C67.0047 1.50169 65.5226 0 63.6651 0L63.6651 0Z" id="Shape" fill="#FFFFFF" fill-rule="evenodd" stroke="none" />
      </g>
      <g id="Group" transform="translate(33.196045 35.151672)">
        <path d="M0 3.33991L0 23.8898L2.82549 23.8898L12.409 10.7298C14.3059 8.24019 17.9417 9.36623 18.3568 12.0141L22.2099 30.4892L29.4815 20.5896C30.9437 18.5347 34.3224 18.8113 35.2908 21.4195L37.2668 26.8336L39.0057 24.9367C39.6381 24.245 40.5074 23.8696 41.4558 23.8696L53.6277 23.8696L53.6277 3.3393C53.6277 1.50169 52.1459 0 50.2884 0L48.5694 0C48.2533 1.50169 46.9097 2.6479 45.309 2.6479L8.31874 2.6479C6.71832 2.6479 5.37466 1.52156 5.05831 0L3.33929 0C1.48213 0.0204794 0 1.5023 0 3.33991L0 3.33991Z" id="Shape" fill="#56ACE0" fill-rule="evenodd" stroke="none" />
        <path d="M3.31992 50.7826L50.328 50.7826C52.1656 50.7826 53.6673 49.3008 53.6673 47.4433L53.6673 9.8406L42.9773 9.8406L38.4722 14.662C36.6939 16.5788 33.7495 15.8477 32.9001 13.5357L31.2007 8.83285L23.198 19.7203C21.7556 21.8544 17.9813 21.5185 17.2502 18.4161L13.3971 0L7.21245 8.47676C6.58005 9.32649 5.59217 9.84029 4.52513 9.84029L0.000191222 9.84029L0.000191222 47.4626C-0.0193717 49.2809 1.46275 50.7826 3.31992 50.7826L3.31992 50.7826Z" transform="translate(0.019348145 20.708206)" id="Shape" fill="#56ACE0" fill-rule="evenodd" stroke="none" />
      </g>
      <g id="Group" transform="translate(19.818787 0)">
        <path d="M42.9377 0L3.3393 0C1.50169 0 0 1.48213 0 3.33929C0 5.17689 1.48182 6.67858 3.3393 6.67858L42.9178 6.67858C44.7554 6.67858 46.2571 5.19676 46.2571 3.33929C46.2571 1.48182 44.7753 0 42.9377 0L42.9377 0Z" transform="translate(17.072449 83.0694)" id="Shape" fill="#194F82" fill-rule="evenodd" stroke="none" />
        <path d="M42.9377 0L3.3393 0C1.50169 0 0 1.48182 0 3.33929C0 5.17689 1.48182 6.67858 3.3393 6.67858L42.9178 6.67858C44.7554 6.67858 46.2571 5.19676 46.2571 3.33929C46.2571 1.48182 44.7753 0 42.9377 0L42.9377 0Z" transform="translate(17.072449 96.40701)" id="Shape" fill="#194F82" fill-rule="evenodd" stroke="none" />
        <path d="M70.3639 21.8541L62.0451 21.8541L62.0451 16.6772C62.0451 14.8396 60.5633 13.3379 58.7059 13.3379L51.691 13.3379L51.691 8.33861C51.6914 3.73451 47.9565 0 43.3527 0L37.0296 0C32.4255 0 28.691 3.73451 28.691 8.33861L28.691 13.3379L21.6765 13.3379C19.8389 13.3379 18.3372 14.8197 18.3372 16.6772L18.3372 21.8541L10.0182 21.8541C4.48551 21.8541 0 26.3396 0 31.8723L0 109.982C0 115.515 4.48551 120 10.0182 120L70.3443 120C75.877 120 80.3625 115.515 80.3625 109.982L80.3625 31.8524C80.3625 26.3396 75.877 21.8541 70.3639 21.8541L70.3639 21.8541ZM35.3895 8.33861C35.3895 7.41002 36.1405 6.65903 37.069 6.65903L43.3922 6.65903C44.3207 6.65903 45.0717 7.41002 45.0717 8.33861L45.0717 13.3379L35.4093 13.3379L35.4093 8.33861L35.3895 8.33861L35.3895 8.33861ZM25.0158 19.9966L55.3666 19.9966L55.3666 31.1607L25.0158 31.1607L25.0158 19.9966L25.0158 19.9966ZM10.0576 28.5131L18.3763 28.5131L18.3763 34.4805C18.3763 36.3181 19.8582 37.8198 21.7156 37.8198L58.745 37.8198C60.5826 37.8198 62.0843 36.3379 62.0843 34.4805L62.0843 28.5131L70.403 28.5131C72.2406 28.5131 73.7423 29.995 73.7423 31.8524L73.7423 59.0613L54.9114 59.0613C53.9828 59.0613 53.0937 59.4367 52.4613 60.1284L50.7224 62.0253L48.7463 56.6112C47.7585 54.0226 44.3993 53.7264 42.937 55.7813L35.6655 65.6809L31.8124 47.2058C31.3777 44.5579 27.7419 43.4515 25.8646 45.9215L16.2811 59.0616L6.7776 59.0616L6.7776 31.8524C6.7183 30.0148 8.20043 28.5131 10.0576 28.5131L10.0576 28.5131ZM70.3639 113.321L10.0576 113.321C8.22001 113.321 6.71832 111.839 6.71832 109.982L6.71832 65.7005L17.9221 65.7005C18.9892 65.7005 19.9771 65.1867 20.6095 64.337L26.7746 55.8798L30.6277 74.2959C31.3588 77.3585 35.1327 77.7143 36.5754 75.6001L44.5781 64.7126L46.2776 69.4154C47.1273 71.7076 50.0714 72.4387 51.8497 70.5418L56.3153 65.7204L73.6839 65.7204L73.6839 110.002C73.7035 111.819 72.2214 113.321 70.3639 113.321L70.3639 113.321Z" id="Shape" fill="#194F82" fill-rule="evenodd" stroke="none" />
      </g>
      <g id="Group" transform="translate(44.834595 6.659027)">
        <path d="M0 0L30.3507 0L30.3507 11.1445L0 11.1445L0 0Z" transform="translate(0 13.337616)" id="Rectangle" fill="#FFC10D" fill-rule="evenodd" stroke="none" />
        <path d="M9.68227 1.67958C9.68227 0.750997 8.93127 0 8.00269 0L1.67958 0C0.750998 0 0 0.750997 0 1.67958L0 6.67889L9.6624 6.67889L9.6624 1.67958L9.68227 1.67958L9.68227 1.67958Z" transform="translate(10.3342285 0)" id="Shape" fill="#FFC10D" fill-rule="evenodd" stroke="none" />
      </g>
    </g>
  </g>
</svg>