<?xml version="1.0" encoding="utf-8"?>
<svg width="50px" height="50px" viewbox="0 0 50 50" version="1.1" xmlns:xlink="http://www.w3.org/1999/xlink" xmlns="http://www.w3.org/2000/svg">
  <defs>
    <path d="M0 0L40 0L40 40L0 40L0 0Z" id="path_1" />
    <rect width="50" height="50" id="artboard_1" />
    <clipPath id="clip_1">
      <use xlink:href="#artboard_1" clip-rule="evenodd" />
    </clipPath>
    <clipPath id="mask_1">
      <use xlink:href="#path_1" />
    </clipPath>
  </defs>
  <g id="Pixelbook" clip-path="url(#clip_1)">
    <g id="94f0bd4ad457ff08ecf6789a3893ce69" transform="translate(5 5)">
      <path d="M0 0L40 0L40 40L0 40L0 0Z" id="Background" fill="none" fill-rule="evenodd" stroke="none" />
      <g clip-path="url(#mask_1)">
        <g id="Group" transform="translate(2.494751 0.39978027)">
          <g id="Group">
            <path d="M6.45389 0.0546091C4.72269 0.326208 3.46469 0.960609 2.27709 2.15821C0.807489 3.64781 0.445089 4.65421 0.435089 7.43221C0.425089 8.82141 0.404689 9.02261 0.253889 9.06261C-0.0281116 9.15301 -0.0481116 9.37461 0.062688 10.7634C0.243889 13.149 0.304288 13.3098 0.918289 13.2094C1.23029 13.159 1.25029 13.179 1.37109 13.5718C1.62269 14.4474 2.21669 15.947 2.75989 17.0946L3.32349 18.2922L3.18269 19.5602C3.01149 21.201 2.91109 24.2806 3.00149 25.1062C3.16229 26.505 4.18909 27.9246 5.52789 28.5886C6.30309 28.9814 6.51429 29.0114 6.70549 28.7898C6.88669 28.5786 8.33629 28.5786 8.51709 28.7898C8.70829 29.0114 8.91989 28.981 9.69469 28.5886C10.8523 28.015 11.7983 26.8574 12.1407 25.6194C12.2915 25.0758 12.2815 21.3618 12.1307 20.7378C12.0803 20.5162 11.9999 19.8622 11.9495 19.2782C11.8691 18.2818 11.8791 18.2014 12.0903 17.8186C12.4427 17.2146 13.1875 15.433 13.5999 14.2254L13.9723 13.1586L14.2943 13.209C14.8379 13.2994 14.9383 13.0782 15.0591 11.4778C15.1195 10.7026 15.1799 9.91781 15.2099 9.73661C15.2399 9.47501 15.1899 9.34421 15.0087 9.15261C14.7671 8.91101 14.7571 8.85061 14.7571 7.51221C14.7571 4.75421 14.3443 3.56661 12.8951 2.11741C11.5967 0.809007 9.94589 0.104607 7.95309 0.0138083C7.46069 -0.0157913 6.78629 0.00420868 6.45389 0.0546091L6.45389 0.0546091Z" transform="translate(9.903772 0)" id="Shape" fill="#006C76" fill-rule="evenodd" stroke="none" />
            <path d="M10.6209 0.262603C10.2385 0.393403 9.01046 0.685403 7.90326 0.896604C5.04486 1.4702 4.18926 1.7422 3.03166 2.477C1.75326 3.2822 1.27046 3.9866 0.767259 5.7078C0.314459 7.2778 0.102859 8.79781 0.0324593 11.163C-0.0279407 12.9242 -0.0179407 13.045 0.183259 13.4378C0.585659 14.233 1.41126 14.7262 3.44446 15.3702C6.22246 16.2558 9.64446 16.8398 14.5765 17.2526C16.9017 17.4438 18.1697 17.4438 20.4645 17.2526C25.6581 16.8098 29.5433 16.1154 32.2509 15.149C34.0425 14.515 34.8477 13.8506 34.9885 12.8842C35.0793 12.2902 34.8777 8.77781 34.6765 7.59021C34.4549 6.181 33.9013 4.48021 33.4685 3.8562C32.9853 3.1518 32.2709 2.57781 31.2541 2.0846C30.2073 1.5814 29.5633 1.39021 27.1273 0.907004C25.4261 0.564605 24.2285 0.273005 23.5945 0.0214038C23.4737 -0.0189966 23.4537 0.253005 23.4537 1.6218C23.4537 4.22861 23.0409 5.4366 21.6921 6.78501C20.9473 7.52981 20.1721 8.00301 19.1961 8.30501C18.8741 8.4058 18.5621 8.5666 18.5117 8.67741C18.4513 8.77821 18.3005 8.89901 18.1593 8.94901C17.9277 9.03981 17.9177 9.07981 17.9177 10.0362C17.9177 11.1938 18.0585 12.0594 18.3405 12.613C18.6525 13.227 19.3973 13.9514 20.0213 14.2534C20.5145 14.495 20.7057 14.525 21.5413 14.525C22.3969 14.525 22.5577 14.4946 23.0813 14.233C23.7153 13.921 24.4301 13.2166 24.7421 12.6126C25.0037 12.1094 25.1649 11.2134 25.1649 10.3478L25.1649 9.66341L24.6917 9.45181C24.1081 9.19021 23.8865 8.99901 23.6549 8.5458C23.2321 7.7206 23.3125 6.9154 23.8865 6.261C24.5509 5.5062 25.4769 5.33501 26.3825 5.80821C27.3285 6.3014 27.7213 7.43861 27.2885 8.40501C27.1073 8.80741 26.4433 9.45181 26.2117 9.45181C26.1313 9.45181 26.0809 9.86461 26.0505 10.7906C26.0205 12.079 26.0001 12.1394 25.6377 12.9042C24.9833 14.3034 23.7353 15.2394 22.2257 15.501C20.2933 15.823 18.3205 14.7562 17.4349 12.9042L17.0625 12.119L17.0221 10.5286C17.0021 9.2706 16.9617 8.94821 16.8509 8.94821C16.7805 8.94821 16.6497 8.84741 16.5589 8.7166C16.4685 8.5758 16.1865 8.41461 15.8341 8.3038C13.7505 7.65981 12.1605 5.9386 11.7277 3.86501C11.6373 3.4222 11.5769 2.5766 11.5769 1.57021C11.5769 0.372605 11.5469 -0.0101953 11.4561 0.000205078C11.3857 0.0110034 11.0133 0.131804 10.6209 0.262603L10.6209 0.262603ZM8.96006 7.84141L8.96006 8.84781L9.96646 8.84781L10.9729 8.84781L10.9729 9.60261L10.9729 10.3574L9.96646 10.3574L8.96006 10.3574L8.96006 11.3638L8.96006 12.3702L8.20526 12.3702L7.45046 12.3702L7.45046 11.3638L7.45046 10.3574L6.44406 10.3574L5.43726 10.3574L5.43726 9.60261L5.43726 8.84781L6.44366 8.84781L7.45006 8.84781L7.45006 7.84141L7.45006 6.835L8.20526 6.835L8.96006 6.835L8.96006 7.84141L8.96006 7.84141Z" transform="translate(0 21.804403)" id="Shape" fill="#006C76" fill-rule="evenodd" stroke="none" />
            <path d="M0.646406 0.0897534C0.0424072 0.361352 -0.168794 1.02575 0.143208 1.64975C0.556008 2.43495 1.86441 2.26375 2.10601 1.39815C2.34761 0.522554 1.46161 -0.272646 0.646406 0.0897534L0.646406 0.0897534Z" transform="translate(24.357256 28.288055)" id="Shape" fill="#006C76" fill-rule="evenodd" stroke="none" />
          </g>
        </g>
      </g>
    </g>
  </g>
</svg>