<?xml version="1.0" encoding="utf-8"?>
<svg width="21px" height="21px" viewbox="0 0 21 21" version="1.1" xmlns:xlink="http://www.w3.org/1999/xlink" xmlns="http://www.w3.org/2000/svg">
  <defs>
    <filter id="filter_1">
      <feColorMatrix in="SourceGraphic" type="matrix" values="0 0 0 0 0 0 0 0 0 0.3529412 0 0 0 0 0.38431373 0 0 0 1 0" />
    </filter>
    <filter id="filter_2">
      <feColorMatrix in="SourceGraphic" type="matrix" values="0 0 0 0 0 0 0 0 0 0.4862745 0 0 0 0 0.53333336 0 0 0 1 0" />
    </filter>
    <path d="M0 0L21 0L21 21L0 21L0 0Z" id="path_1" />
    <clipPath id="mask_1">
      <use xlink:href="#path_1" />
    </clipPath>
  </defs>
  <g id="clinical_icon">
    <g id="Mask-group">
      <path d="M0 0L21 0L21 21L0 21L0 0Z" id="artboard_1" fill="none" fill-rule="evenodd" stroke="none" />
      <g clip-path="url(#mask_1)">
        <g id="Pixelbook">
          <path d="M0 0L21 0L21 21L0 21L0 0Z" id="artboard_1" fill="#FFFFFF" fill-rule="evenodd" stroke="none" />
        </g>
      </g>
    </g>
    <g id="clinical_icon" transform="translate(0.42000008 0.41999817)" filter="url(#filter_1)">
      <g id="Clinical">
        <g id="hospital" filter="url(#filter_2)">
          <g id="XMLID_412_" filter="url(#filter_2)">
            <g id="XMLID_1035_" filter="url(#filter_2)">
              <path d="M19.7662 8.3475L16.3832 8.3475L16.3832 2.2854C16.3832 2.06793 16.2069 1.89165 15.9896 1.89165L14.7262 1.89165L14.7262 0.39375C14.7262 0.176282 14.5499 0 14.3326 0L5.8275 0C5.61003 0 5.43375 0.176282 5.43375 0.39375L5.43375 1.89165L4.17048 1.89165C3.95301 1.89165 3.77673 2.06793 3.77673 2.2854L3.77673 8.3475L0.39375 8.3475C0.176282 8.3475 0 8.52382 0 8.74129L0 19.7662C0 19.9837 0.176282 20.16 0.39375 20.16L19.7662 20.16C19.9837 20.16 20.16 19.9837 20.16 19.7662L20.16 8.74129C20.16 8.52382 19.9837 8.3475 19.7662 8.3475L19.7662 8.3475L19.7662 8.3475L19.7662 8.3475ZM0.7875 9.135L3.77673 9.135L3.77673 19.3726L0.7875 19.3726L0.7875 9.135L0.7875 9.135L0.7875 9.135ZM4.56422 2.67915L8.30811 2.67915C8.52558 2.67915 8.70189 2.50288 8.70189 2.2854C8.70189 2.06793 8.52558 1.89165 8.30811 1.89165L6.22124 1.89165L6.22124 0.7875L13.9388 0.7875L13.9388 1.89165L11.8519 1.89165C11.6344 1.89165 11.4581 2.06793 11.4581 2.2854C11.4581 2.50288 11.6344 2.67915 11.8519 2.67915L15.5958 2.67915L15.5958 19.3726L14.175 19.3726L14.175 14.0963C14.175 13.8788 13.9987 13.7025 13.7812 13.7025L6.37873 13.7025C6.16127 13.7025 5.98499 13.8788 5.98499 14.0963L5.98499 19.3726L4.56422 19.3726L4.56422 2.67915L4.56422 2.67915L4.56422 2.67915ZM6.7725 14.4901L9.68621 14.4901L9.68621 19.3726L6.7725 19.3726L6.7725 14.4901L6.7725 14.4901L6.7725 14.4901ZM10.6995 19.8661L10.6995 14.4901L13.3875 14.4901L13.3875 19.8661L10.6995 19.8661L10.6995 19.8661L10.6995 19.8661ZM19.3726 19.3726L16.3832 19.3726L16.3832 9.135L19.3726 9.135L19.3726 19.3726L19.3726 19.3726L19.3726 19.3726Z" id="XMLID_1107_" fill="#000000" fill-rule="evenodd" stroke="none" />
              <path d="M0.39375 1.344L1.60127 1.344C1.81873 1.344 1.99501 1.04315 1.99501 0.672C1.99501 0.300855 1.81873 0 1.60127 0L0.39375 0C0.176281 0 0 0.300855 0 0.672C0 1.04315 0.176281 1.344 0.39375 1.344L0.39375 1.344L0.39375 1.344L0.39375 1.344Z" transform="translate(5.9849997 11.8125)" id="XMLID_1585_" fill="#000000" fill-rule="evenodd" stroke="none" />
              <path d="M1.60127 0L0.39375 0C0.176281 0 0 0.300855 0 0.672C0 1.04315 0.176281 1.344 0.39375 1.344L1.60127 1.344C1.81868 1.344 1.99501 1.04315 1.99501 0.672C1.99501 0.300855 1.81868 0 1.60127 0L1.60127 0L1.60127 0L1.60127 0Z" transform="translate(9.0824995 11.8125)" id="XMLID_1586_" fill="#000000" fill-rule="evenodd" stroke="none" />
              <path d="M1.60127 0L0.39375 0C0.176321 0 0 0.300855 0 0.672C0 1.04315 0.176321 1.344 0.39375 1.344L1.60127 1.344C1.81868 1.344 1.99501 1.04315 1.99501 0.672C1.99501 0.300855 1.81868 0 1.60127 0L1.60127 0L1.60127 0L1.60127 0Z" transform="translate(12.179999 11.8125)" id="XMLID_1587_" fill="#000000" fill-rule="evenodd" stroke="none" />
              <path d="M0.39375 1.344L1.60127 1.344C1.81873 1.344 1.99501 1.04315 1.99501 0.672C1.99501 0.300854 1.81873 0 1.60127 0L0.39375 0C0.176281 0 0 0.300854 0 0.672C0 1.04315 0.176281 1.344 0.39375 1.344L0.39375 1.344L0.39375 1.344L0.39375 1.344Z" transform="translate(5.9849997 9.76664)" id="XMLID_1588_" fill="#000000" fill-rule="evenodd" stroke="none" />
              <path d="M1.60127 0L0.39375 0C0.176281 0 0 0.300856 0 0.672C0 1.04315 0.176281 1.344 0.39375 1.344L1.60127 1.344C1.81868 1.344 1.99501 1.04315 1.99501 0.672C1.99501 0.300854 1.81868 0 1.60127 0L1.60127 0L1.60127 0L1.60127 0Z" transform="translate(9.0824995 9.76664)" id="XMLID_1589_" fill="#000000" fill-rule="evenodd" stroke="none" />
              <path d="M0 0.672C0 1.04315 0.176321 1.344 0.39375 1.344L1.60127 1.344C1.81868 1.344 1.99501 1.04315 1.99501 0.672C1.99501 0.300854 1.81868 0 1.60127 0L0.39375 0C0.176321 0 0 0.300854 0 0.672L0 0.672L0 0.672L0 0.672Z" transform="translate(12.179999 9.76664)" id="XMLID_1593_" fill="#000000" fill-rule="evenodd" stroke="none" />
              <path d="M0.39375 3.70126L1.18125 3.70126L1.18125 4.48874C1.18125 4.70622 1.35753 4.8825 1.57501 4.8825L3.3075 4.8825C3.52493 4.8825 3.70126 4.70622 3.70126 4.48874L3.70126 3.70126L4.48874 3.70126C4.70618 3.70126 4.8825 3.52496 4.8825 3.3075L4.8825 1.57499C4.8825 1.35753 4.70618 1.18125 4.48874 1.18125L3.70126 1.18125L3.70126 0.39375C3.70126 0.176281 3.52493 0 3.3075 0L1.57501 0C1.35753 0 1.18125 0.176281 1.18125 0.39375L1.18125 1.18125L0.39375 1.18125C0.176281 1.18125 0 1.35753 0 1.57499L0 3.3075C0 3.52493 0.176281 3.70126 0.39375 3.70126L0.39375 3.70126L0.39375 3.70126L0.39375 3.70126ZM0.7875 1.96874L1.57501 1.96874C1.79247 1.96874 1.96874 1.79247 1.96874 1.57499L1.96874 0.7875L2.91375 0.7875L2.91375 1.57499C2.91375 1.79247 3.09007 1.96874 3.3075 1.96874L4.09501 1.96874L4.09501 2.91375L3.3075 2.91375C3.09007 2.91375 2.91375 3.09003 2.91375 3.3075L2.91375 4.09499L1.96874 4.09499L1.96874 3.3075C1.96874 3.09003 1.79247 2.91375 1.57501 2.91375L0.7875 2.91375L0.7875 1.96874L0.7875 1.96874L0.7875 1.96874Z" transform="translate(7.63875 3.781641)" id="XMLID_1597_" fill="#000000" fill-rule="evenodd" stroke="none" />
              <path d="M0.672 1.344C0.848736 1.344 1.02211 1.2721 1.14704 1.1471C1.27203 1.02211 1.344 0.848736 1.344 0.672C1.344 0.495263 1.2721 0.321888 1.14704 0.196897C1.02211 0.0719031 0.848736 0 0.672 0C0.495263 0 0.321888 0.0719031 0.196894 0.196897C0.0719031 0.321888 0 0.495263 0 0.672C0 0.848736 0.0719055 1.02211 0.196894 1.1471C0.321886 1.2721 0.495263 1.344 0.672 1.344L0.672 1.344L0.672 1.344L0.672 1.344Z" transform="translate(9.68625 1.8915596)" id="XMLID_1598_" fill="#000000" fill-rule="evenodd" stroke="none" />
            </g>
          </g>
        </g>
      </g>
    </g>
  </g>
</svg>