<?xml version="1.0" encoding="utf-8"?>
<!-- Generator: Adobe Illustrator 21.0.0, SVG Export Plug-In . SVG Version: 6.00 Build 0)  -->
<svg version="1.1" id="Layer_1" xmlns="http://www.w3.org/2000/svg" xmlns:xlink="http://www.w3.org/1999/xlink" x="0px" y="0px"
	 viewBox="0 0 20 20" style="enable-background:new 0 0 20 20;" xml:space="preserve">
<style type="text/css">
	.st0{fill:#320088;}
</style>
<desc>Created with Lunacy</desc>
<g>
	<path id="Shape" class="st0" d="M2.6,16.4V2.2h11.5v11.9l2.2-1.8V1.1c0-0.6-0.5-1.1-1.1-1.1H1.5C0.9,0,0.4,0.5,0.4,1.1v16.4
		c0,0.6,0.5,1.1,1.1,1.1H11l-1.5-2.2H2.6L2.6,16.4z"/>
	<path id="Shape_1_" class="st0" d="M19.4,11.7c-0.2-0.2-0.5-0.2-0.7,0l-5,4.1l-3.3-2c-0.2-0.1-0.5-0.1-0.7,0.1
		c-0.2,0.2-0.2,0.5,0,0.7l3.6,5.1c0.1,0.1,0.3,0.2,0.4,0.2c0,0,0,0,0,0c0.2,0,0.3-0.1,0.4-0.2l5.4-7.3
		C19.6,12.2,19.6,11.9,19.4,11.7L19.4,11.7z"/>
	<path id="Shape_2_" class="st0" d="M11.6,3.8H5.1C4.5,3.8,4,4.3,4,4.9C4,5.5,4.5,6,5.1,6h6.6c0.6,0,1.1-0.5,1.1-1.1
		C12.7,4.3,12.2,3.8,11.6,3.8L11.6,3.8z"/>
	<path id="Shape_3_" class="st0" d="M11.6,7.1H5.1C4.5,7.1,4,7.6,4,8.2c0,0.6,0.5,1.1,1.1,1.1h6.6c0.6,0,1.1-0.5,1.1-1.1
		C12.7,7.6,12.2,7.1,11.6,7.1L11.6,7.1z"/>
	<path id="Shape_4_" class="st0" d="M11.6,10.4H5.1c-0.6,0-1.1,0.5-1.1,1.1c0,0.6,0.5,1.1,1.1,1.1h6.6c0.6,0,1.1-0.5,1.1-1.1
		C12.7,10.9,12.2,10.4,11.6,10.4L11.6,10.4z"/>
</g>
</svg>
