<?xml version="1.0" encoding="utf-8"?>
<svg width="45px" height="45px" viewbox="0 0 45 45" version="1.1" xmlns:xlink="http://www.w3.org/1999/xlink" xmlns="http://www.w3.org/2000/svg">
  <defs>
    <path d="M0 0L45 0L45 44.2969L0 44.2969L0 0L0 0Z" id="path_1" />
    <clipPath id="mask_1">
      <use xlink:href="#path_1" />
    </clipPath>
  </defs>
  <g id="cm-home">
    <g id="noun_work-remotely_3151430">
      <path d="M0 0L45 0L45 44.2969L0 44.2969L0 0L0 0Z" id="Background" fill="none" fill-rule="evenodd" stroke="none" />
      <g id="Mask-group">
        <path d="M0 0L45 0L45 44.2969L0 44.2969L0 0L0 0Z" id="path_1" fill="none" fill-rule="evenodd" stroke="none" />
        <g clip-path="url(#mask_1)">
          <g id="Group" transform="translate(0.703125 0.70312494)">
            <g id="Group">
              <path d="M42.9377 25.1529L32.6243 17.4178C31.6561 16.6943 30.2189 16.6936 29.25 17.4185L22.5 22.481L22.5 11.231L23.6721 11.231C24.5763 11.231 25.3125 10.4948 25.3125 9.59062C25.3125 9.07734 25.0671 8.58586 24.6565 8.27789L14.343 0.542813C13.3748 -0.180703 11.9377 -0.181406 10.9688 0.543516L0.656016 8.27789C0.245391 8.58586 0 9.07734 0 9.59062C0 10.4948 0.736172 11.231 1.64039 11.231L2.8125 11.231L2.8125 25.2935C2.8125 26.0691 3.4432 26.6998 4.21875 26.6998L18.3052 26.6998C18.4198 27.4929 19.0976 28.106 19.9223 28.106L21.0938 28.106L21.0938 42.1685C21.0938 42.9441 21.7245 43.5748 22.5 43.5748L39.375 43.5748C40.1505 43.5748 40.7812 42.9441 40.7812 42.1685L40.7812 28.106L41.9534 28.106C42.8576 28.106 43.5938 27.3698 43.5938 26.4656C43.5938 25.9523 43.3484 25.4609 42.9377 25.1529L42.9377 25.1529L42.9377 25.1529ZM18.9373 25.1529C18.8824 25.1944 18.8388 25.2464 18.7896 25.2935L15.4688 25.2935L15.4688 19.6685L21.0938 19.6685L21.0938 23.535L18.9373 25.1529L18.9373 25.1529L18.9373 25.1529ZM8.4375 16.1529C8.4375 14.9899 9.38391 14.0435 10.5469 14.0435C11.7098 14.0435 12.6563 14.9899 12.6563 16.1529C12.6563 17.3159 11.7098 18.2623 10.5469 18.2623C9.38391 18.2623 8.4375 17.3159 8.4375 16.1529L8.4375 16.1529L8.4375 16.1529ZM14.0625 25.2935L7.03125 25.2935L7.03125 23.1841C7.03125 21.2456 8.60836 19.6685 10.5469 19.6685C12.4854 19.6685 14.0625 21.2456 14.0625 23.1841L14.0625 25.2935L14.0625 25.2935L14.0625 25.2935ZM1.40625 9.59062C1.40625 9.5175 1.44141 9.44648 1.49977 9.40219L11.8125 1.66853C12.0544 1.48712 12.3539 1.38728 12.6563 1.38728C12.9586 1.38728 13.2581 1.48712 13.5 1.66783L23.8127 9.40219C23.8711 9.44648 23.9063 9.5175 23.9063 9.59062C23.9063 9.72 23.8015 9.82476 23.6721 9.82476L1.64039 9.82476C1.51102 9.82476 1.40625 9.72 1.40625 9.59062L1.40625 9.59062L1.40625 9.59062ZM4.21875 11.231L21.0938 11.231L21.0938 18.2623L15.4688 18.2623C14.6932 18.2623 14.0625 18.893 14.0625 19.6685L14.0625 19.7466C13.699 19.3746 13.2771 19.0617 12.8116 18.8191C13.5703 18.1737 14.0625 17.2245 14.0625 16.1529C14.0625 14.2144 12.4854 12.6373 10.5469 12.6373C8.60836 12.6373 7.03125 14.2144 7.03125 16.1529C7.03125 17.2245 7.52344 18.1737 8.28211 18.8191C6.7057 19.6404 5.625 21.2871 5.625 23.1841L5.625 25.2935L4.21875 25.2935L4.21875 11.231L4.21875 11.231L4.21875 11.231ZM26.7188 33.0279C26.7188 31.8649 27.6652 30.9185 28.8281 30.9185C29.9911 30.9185 30.9375 31.8649 30.9375 33.0279C30.9375 34.1909 29.9911 35.1373 28.8281 35.1373C27.6652 35.1373 26.7188 34.1909 26.7188 33.0279L26.7188 33.0279L26.7188 33.0279ZM32.3438 42.1685L25.3125 42.1685L25.3125 40.0591C25.3125 38.1206 26.8896 36.5435 28.8281 36.5435C30.7666 36.5435 32.3438 38.1206 32.3438 40.0591L32.3438 42.1685L32.3438 42.1685L32.3438 42.1685ZM33.75 42.1685L33.75 36.5435L39.375 36.5435L39.375 42.1685L33.75 42.1685L33.75 42.1685L33.75 42.1685ZM39.375 35.1373L33.75 35.1373C32.9745 35.1373 32.3438 35.768 32.3438 36.5435L32.3438 36.6216C31.9802 36.2496 31.5584 35.9367 31.0929 35.6941C31.8516 35.0487 32.3438 34.0994 32.3438 33.0279C32.3438 31.0894 30.7666 29.5123 28.8281 29.5123C26.8896 29.5123 25.3125 31.0894 25.3125 33.0279C25.3125 34.0994 25.8047 35.0487 26.5634 35.6941C24.987 36.5154 23.9063 38.1621 23.9063 40.0591L23.9063 42.1685L22.5 42.1685L22.5 28.106L39.375 28.106L39.375 35.1373L39.375 35.1373L39.375 35.1373ZM41.9534 26.6998L19.9216 26.6998C19.7923 26.6998 19.6875 26.595 19.6875 26.4656C19.6875 26.3925 19.7227 26.3215 19.781 26.2772L30.0938 18.5435C30.3356 18.3621 30.6352 18.2623 30.9375 18.2623C31.2398 18.2623 31.5394 18.3621 31.7813 18.5428L42.094 26.2772C42.1523 26.3215 42.1875 26.3925 42.1875 26.4656C42.1875 26.595 42.0827 26.6998 41.9534 26.6998L41.9534 26.6998L41.9534 26.6998Z" transform="translate(0 0.01896858)" id="Shape" fill="#9F299F" fill-rule="evenodd" stroke="none" />
              <path d="M1.40625 0L0 0C0 3.87703 3.15422 7.03125 7.03125 7.03125L7.03125 5.625C3.92977 5.625 1.40625 3.10148 1.40625 0L1.40625 0L1.40625 0Z" transform="translate(7.03125 29.531248)" id="Shape#1" fill="#9F299F" fill-rule="evenodd" stroke="none" />
              <path d="M1.40625 0L0 0C0 5.42812 4.41563 9.84375 9.84375 9.84375L9.84375 8.4375C5.19117 8.4375 1.40625 4.65258 1.40625 0L1.40625 0L1.40625 0Z" transform="translate(4.21875 29.531248)" id="Shape#2" fill="#9F299F" fill-rule="evenodd" stroke="none" />
              <path d="M1.40625 0L0 0C0 7.75406 6.30844 14.0625 14.0625 14.0625L14.0625 12.6562C7.08398 12.6562 1.40625 6.97851 1.40625 0L1.40625 0L1.40625 0Z" transform="translate(0 29.531248)" id="Shape#3" fill="#9F299F" fill-rule="evenodd" stroke="none" />
              <path d="M5.625 7.03125L7.03125 7.03125C7.03125 3.15422 3.87703 0 0 0L0 1.40625C3.10148 1.40625 5.625 3.92977 5.625 7.03125L5.625 7.03125L5.625 7.03125Z" transform="translate(29.53125 7.0312495)" id="Shape#4" fill="#9F299F" fill-rule="evenodd" stroke="none" />
              <path d="M8.4375 9.84375L9.84375 9.84375C9.84375 4.41563 5.42813 0 0 0L0 1.40625C4.65258 1.40625 8.4375 5.19117 8.4375 9.84375L8.4375 9.84375L8.4375 9.84375Z" transform="translate(29.53125 4.2187495)" id="Shape#5" fill="#9F299F" fill-rule="evenodd" stroke="none" />
              <path d="M12.6563 14.0625L14.0625 14.0625C14.0625 6.30844 7.75406 0 0 0L0 1.40625C6.97852 1.40625 12.6563 7.08398 12.6563 14.0625L12.6563 14.0625L12.6563 14.0625Z" transform="translate(29.53125 0)" id="Shape#6" fill="#9F299F" fill-rule="evenodd" stroke="none" />
            </g>
          </g>
        </g>
      </g>
    </g>
  </g>
</svg>