<?xml version="1.0" encoding="utf-8"?>
<svg width="50px" height="50px" viewBox="0 0 50 50" version="1.1" xmlns:xlink="http://www.w3.org/1999/xlink" xmlns="http://www.w3.org/2000/svg">
  <desc>Created with Lunacy</desc>
  <defs>
    <path d="M0 0L50 0L50 50L0 50L0 0Z" id="path_1" />
    <clipPath id="mask_1">
      <use xlink:href="#path_1" />
    </clipPath>
  </defs>
  <g id="website">
    <path d="M0 0L50 0L50 50L0 50L0 0Z" id="Background" fill="none" fill-rule="evenodd" stroke="none" />
    <g clip-path="url(#mask_1)">
      <g id="Group" transform="translate(0.78125 1.5625)">
        <g id="Group" transform="translate(0.78125 7.03125)">
          <path d="M2.34375 3.90625L0 3.90625L0 0.78125L2.34375 0.78125L2.34375 0L5.46875 0L5.46875 0.78125L7.8125 0.78125L7.8125 3.90625L5.46875 3.90625L5.46875 6.25L2.34375 6.25L2.34375 3.90625Z" transform="translate(19.53125 1.5625)" id="Shape" fill="#57A4FF" fill-rule="evenodd" stroke="none" />
          <path d="M10.1563 0L10.1563 27.3438L0 27.3438L0 1.95313C0 1.43449 0.205874 0.937676 0.5723 0.571471C0.938726 0.205265 1.43566 -0.000311434 1.95371 0L10.1563 0Z" transform="translate(0 1.5625)" id="Shape" fill="#57A4FF" fill-rule="evenodd" stroke="none" />
          <path d="M0 0L15.625 0L15.625 2.34375L0 2.34375L0 0Z" transform="translate(15.625 23.4375)" id="Shape" fill="#57A4FF" fill-rule="evenodd" stroke="none" />
          <path d="M10.1563 1.95313L10.1563 27.3438L0 27.3438L0 0L8.20313 0C8.72118 -0.000155717 9.21805 0.205569 9.58436 0.571885C9.95068 0.938201 10.1564 1.43508 10.1563 1.95313L10.1563 1.95313Z" transform="translate(36.71875 1.5625)" id="Shape" fill="#57A4FF" fill-rule="evenodd" stroke="none" />
          <path d="M5.46875 2.34375L7.8125 2.34375L7.8125 5.46875L5.46875 5.46875L5.46875 7.8125L2.34375 7.8125L2.34375 5.46875L0 5.46875L0 2.34375L2.34375 2.34375L2.34375 0L5.46875 0L5.46875 2.34375Z" transform="translate(19.53125 0)" id="Shape" fill="#57A4FF" fill-rule="evenodd" stroke="none" />
          <path d="M0 0L0 2.34375L15.625 2.34375L15.625 0L0 0Z" transform="translate(15.625 23.4375)" id="Shape" fill="#57A4FF" fill-rule="evenodd" stroke="none" />
          <path d="M7.8125 2.34375L7.8125 5.46875L5.46875 5.46875L5.46875 7.8125L2.34375 7.8125L2.34375 5.46875L0 5.46875L0 2.34375L2.34375 2.34375L2.34375 0L5.46875 0L5.46875 2.34375L7.8125 2.34375Z" transform="translate(19.53125 0)" id="Shape" fill="#57A4FF" fill-rule="evenodd" stroke="none" />
          <path d="M10.9375 3.90625L0 3.90625L0.78125 0L10.0586 0L10.9375 3.90625Z" transform="translate(17.96875 32.8125)" id="Shape" fill="#57A4FF" fill-rule="evenodd" stroke="none" />
          <path d="M7.8125 2.34375L7.8125 5.46875L5.46875 5.46875L5.46875 7.8125L2.34375 7.8125L2.34375 5.46875L0 5.46875L0 2.34375L2.34375 2.34375L2.34375 0L5.46875 0L5.46875 2.34375L7.8125 2.34375Z" transform="translate(19.53125 0)" id="Shape" fill="#57A4FF" fill-rule="evenodd" stroke="none" />
          <path d="M0 0L15.625 0L15.625 2.34375L0 2.34375L0 0Z" transform="translate(15.625 23.4375)" id="Shape" fill="#57A4FF" fill-rule="evenodd" stroke="none" />
        </g>
        <g id="Group">
          <path d="M45.7031 7.8125L38.2813 7.8125L38.2813 0.78125C38.2813 0.349778 37.9315 0 37.5 0L10.9375 0C10.506 0 10.1563 0.349778 10.1563 0.78125L10.1563 7.8125L2.73438 7.8125C1.22491 7.81417 0.00166856 9.03741 0 10.5469L0 37.8906C0.00164807 39.4001 1.22488 40.6233 2.73434 40.625L18.5781 40.625L18.1094 42.9688L15.625 42.9688C15.1935 42.9688 14.8438 43.3185 14.8438 43.75L14.8438 45.3125L10.9375 45.3125C10.506 45.3125 10.1563 45.6623 10.1563 46.0938C10.1563 46.5252 10.506 46.875 10.9375 46.875L35.9375 46.875C36.369 46.875 36.7188 46.5252 36.7188 46.0938C36.7188 45.6623 36.369 45.3125 35.9375 45.3125L33.5938 45.3125L33.5938 43.75C33.5938 43.3185 33.244 42.9688 32.8125 42.9688L30.3125 42.9688L29.7852 40.625L45.7031 40.625C47.2126 40.6233 48.4358 39.4001 48.4375 37.8906L48.4375 10.5469C48.4359 9.03745 47.2126 7.81419 45.7032 7.8125L45.7031 7.8125ZM11.7188 1.5625L36.7188 1.5625L36.7188 35.1563L11.7188 35.1563L11.7188 1.5625ZM1.5625 10.5469C1.563 9.89996 2.08732 9.37558 2.7343 9.375L10.1563 9.375L10.1563 35.1563L1.5625 35.1563L1.5625 10.5469ZM32.0313 44.5313L32.0313 45.3125L16.4063 45.3125L16.4063 44.5313L32.0313 44.5313ZM19.7031 42.9688L20.1719 40.625L28.1836 40.625L28.7109 42.9688L19.7031 42.9688ZM46.875 37.8906C46.8745 38.5375 46.3502 39.0619 45.7032 39.0625L2.73438 39.0625C2.08739 39.062 1.56304 38.5376 1.5625 37.8906L1.5625 36.7188L46.875 36.7188L46.875 37.8906ZM46.875 35.1563L38.2813 35.1563L38.2813 9.375L45.7031 9.375C46.3501 9.37554 46.8745 9.89989 46.875 10.5469L46.875 35.1563Z" id="Shape" fill="#004FAC" fill-rule="evenodd" stroke="none" />
          <path d="M1.5625 0L0.78125 0C0.349778 0 0 0.349778 0 0.78125C0 1.21272 0.349778 1.5625 0.78125 1.5625L1.5625 1.5625C1.99397 1.5625 2.34375 1.21272 2.34375 0.78125C2.34375 0.349778 1.99397 0 1.5625 0L1.5625 0Z" transform="translate(37.5 45.3125)" id="Shape" fill="#004FAC" fill-rule="evenodd" stroke="none" />
          <path d="M2.34375 7.03125L2.34375 8.59375C2.34375 9.02522 2.69353 9.375 3.125 9.375L6.25 9.375C6.68147 9.375 7.03125 9.02522 7.03125 8.59375L7.03125 7.03125L8.59375 7.03125C9.02522 7.03125 9.375 6.68147 9.375 6.25L9.375 3.125C9.375 2.69353 9.02522 2.34375 8.59375 2.34375L7.03125 2.34375L7.03125 0.78125C7.03125 0.349777 6.68147 0 6.25 0L3.125 0C2.69353 0 2.34375 0.349778 2.34375 0.78125L2.34375 2.34375L0.78125 2.34375C0.349778 2.34375 0 2.69353 0 3.125L0 6.25C0 6.68147 0.349778 7.03125 0.78125 7.03125L2.34375 7.03125ZM1.5625 3.90625L3.125 3.90625C3.55647 3.90625 3.90625 3.55647 3.90625 3.125L3.90625 1.5625L5.46875 1.5625L5.46875 3.125C5.46875 3.55647 5.81853 3.90625 6.25 3.90625L7.8125 3.90625L7.8125 5.46875L6.25 5.46875C5.81853 5.46875 5.46875 5.81853 5.46875 6.25L5.46875 7.8125L3.90625 7.8125L3.90625 6.25C3.90625 5.81853 3.55647 5.46875 3.125 5.46875L1.5625 5.46875L1.5625 3.90625Z" transform="translate(19.53125 6.25)" id="Shape" fill="#004FAC" fill-rule="evenodd" stroke="none" />
          <path d="M7.8125 15.625C12.1272 15.625 15.625 12.1272 15.625 7.8125C15.625 3.49777 12.1272 0 7.8125 0C3.49777 0 0 3.49778 0 7.8125C0.00493824 12.1253 3.49988 15.6201 7.81257 15.625L7.8125 15.625ZM7.8125 1.5625C11.2643 1.5625 14.0625 4.36072 14.0625 7.8125C14.0625 11.2643 11.2643 14.0625 7.8125 14.0625C4.36072 14.0625 1.5625 11.2643 1.5625 7.8125C1.56627 4.36252 4.36213 1.56648 7.8123 1.5625L7.8125 1.5625Z" transform="translate(16.40625 3.125)" id="Shape" fill="#004FAC" fill-rule="evenodd" stroke="none" />
          <path d="M0.78125 3.90625L16.4063 3.90625C16.8377 3.90625 17.1875 3.55647 17.1875 3.125L17.1875 0.78125C17.1875 0.349778 16.8377 0 16.4063 0L0.78125 0C0.349778 0 0 0.349778 0 0.78125L0 3.125C0 3.55647 0.349778 3.90625 0.78125 3.90625L0.78125 3.90625ZM1.5625 1.5625L15.625 1.5625L15.625 2.34375L1.5625 2.34375L1.5625 1.5625Z" transform="translate(15.625 29.6875)" id="Shape" fill="#004FAC" fill-rule="evenodd" stroke="none" />
          <path d="M7.03125 1.5625C7.46272 1.5625 7.8125 1.21272 7.8125 0.78125C7.8125 0.349778 7.46272 0 7.03125 0L0.78125 0C0.349778 0 0 0.349778 0 0.78125C0 1.21272 0.349778 1.5625 0.78125 1.5625L7.03125 1.5625Z" transform="translate(20.3125 20.3125)" id="Shape" fill="#004FAC" fill-rule="evenodd" stroke="none" />
          <path d="M14.0625 0.78125C14.0625 0.349778 13.7127 0 13.2813 0L0.78125 0C0.349778 0 0 0.349778 0 0.78125C0 1.21272 0.349778 1.5625 0.78125 1.5625L13.2813 1.5625C13.7127 1.5625 14.0625 1.21272 14.0625 0.78125L14.0625 0.78125Z" transform="translate(17.1875 23.4375)" id="Shape" fill="#004FAC" fill-rule="evenodd" stroke="none" />
          <path d="M0.78125 0C0.349778 0 0 0.349778 0 0.78125C0 1.21272 0.349778 1.5625 0.78125 1.5625L5.46875 1.5625C5.90022 1.5625 6.25 1.21272 6.25 0.78125C6.25 0.349778 5.90022 0 5.46875 0L0.78125 0Z" transform="translate(21.09375 26.5625)" id="Shape" fill="#004FAC" fill-rule="evenodd" stroke="none" />
        </g>
      </g>
    </g>
  </g>
</svg>