<?xml version="1.0" encoding="utf-8"?>
<svg width="150px" height="150px" viewbox="0 0 150 150" version="1.1" xmlns:xlink="http://www.w3.org/1999/xlink" xmlns="http://www.w3.org/2000/svg">
  <defs>
    <path d="M0 0L150 0L150 150L0 150L0 0Z" id="path_1" />
    <clipPath id="mask_1">
      <use xlink:href="#path_1" />
    </clipPath>
  </defs>
  <g id="fireworks">
    <path d="M0 0L150 0L150 150L0 150L0 0Z" id="Background" fill="none" fill-rule="evenodd" stroke="none" />
    <g clip-path="url(#mask_1)">
      <g id="XMLID_1840_">
        <g id="XMLID_1083_" transform="translate(2.9301083 2.929676)">
          <path d="M0 6.44529C0 2.88565 2.88565 0 6.44529 0C10.0049 0 12.8906 2.88565 12.8906 6.44529C12.8906 10.0049 10.0049 12.8906 6.44529 12.8906C2.88565 12.8906 0 10.0049 0 6.44529Z" transform="translate(131.24965 47.30987)" id="XMLID_1168_" fill="#FFCD69" fill-rule="evenodd" stroke="none" />
          <path d="M0 6.44529C0 2.88565 2.88565 0 6.44529 0C10.0049 0 12.8906 2.88565 12.8906 6.44529C12.8906 10.0049 10.0049 12.8906 6.44529 12.8906C2.88565 12.8906 0 10.0049 0 6.44529Z" transform="translate(82.94163 31.011793)" id="XMLID_1167_" fill="#D5EA79" fill-rule="evenodd" stroke="none" />
          <path d="M0 6.44529C0 2.88565 2.88565 0 6.44529 0C10.0049 0 12.8906 2.88565 12.8906 6.44529C12.8906 10.0049 10.0049 12.8906 6.44529 12.8906C2.88565 12.8906 0 10.0049 0 6.44529Z" transform="translate(28.125044 0)" id="XMLID_1166_" fill="#FF7D97" fill-rule="evenodd" stroke="none" />
          <path d="M103.097 69.9335L5.73519 105.623C2.32915 106.872 -0.979038 103.564 0.269297 100.158L35.9592 2.79531C37.0303 -0.126457 40.7706 -0.951161 42.9711 1.24932L104.644 62.9219C106.844 65.1221 106.019 68.8624 103.097 69.9335L103.097 69.9335Z" transform="translate(9.66709E-05 38.2474)" id="XMLID_973_" fill="#98EAF9" fill-rule="evenodd" stroke="none" />
          <path d="M8.67551 0L8.55188 0.123631L0.269392 22.7185C-0.979236 26.1245 2.32925 29.4327 5.73529 28.1844L28.5112 19.8354L8.67551 0Z" transform="translate(0 115.686455)" id="XMLID_410_" fill="#FF7D97" fill-rule="evenodd" stroke="none" />
          <path d="M0 25.9218L28.1179 54.0399L54.0399 44.3904L9.64947 0L0 25.9218Z" transform="translate(14.394826 75.70547)" id="XMLID_49_" fill="#FFCD69" fill-rule="evenodd" stroke="none" />
          <g id="Group" transform="translate(8.675511 61.21763)">
            <path d="M19.9921 33.8372L0 13.8454L5.71931 0L33.8372 28.1182L19.9921 33.8372Z" transform="translate(0 40.409615)" id="XMLID_48_" fill="#FFFFFF" fill-rule="evenodd" stroke="none" />
            <path d="M44.3905 58.8783L0 14.4878L5.07654 0L58.8783 53.8018L44.3905 58.8783Z" transform="translate(15.368789 0)" id="XMLID_1116_" fill="#FFFFFF" fill-rule="evenodd" stroke="none" />
          </g>
        </g>
        <g id="XMLID_1021_">
          <path d="M144.213 71.9013C144.972 70.4725 144.43 68.6989 143.001 67.9395C126.585 59.2161 106.56 61.3082 92.3343 72.9979L87.6008 68.2644L95.3314 60.5339C96.4754 59.3898 96.4754 57.5348 95.3314 56.3904C94.187 55.2464 92.3325 55.2464 91.1879 56.3904L83.4574 64.121L64.5958 45.2594C68.886 39.5058 71.5852 32.7477 72.4362 25.5515C73.4168 17.2558 71.8562 8.95781 67.9222 1.55539C67.1631 0.126591 65.3889 -0.415985 63.9604 0.343093C62.5316 1.10247 61.989 2.87609 62.7481 4.30489C69.058 16.1789 68.0704 30.2782 60.4023 41.0659L47.9726 28.6361C46.2285 26.8921 43.7494 26.1685 41.3406 26.699C38.9319 27.2302 36.9872 28.9297 36.1381 31.2456L0.448825 128.608C-0.525878 131.267 0.112499 134.164 2.11552 136.166C3.49862 137.549 5.30711 138.282 7.17009 138.282C8.00505 138.282 8.85084 138.135 9.67379 137.833L107.036 102.143C109.352 101.295 111.051 99.3497 111.583 96.9412C112.113 94.5325 111.389 92.0534 109.645 90.3093L96.5029 77.1665C108.882 67.2894 126.103 65.5952 140.251 73.1139C141.68 73.8733 143.454 73.3301 144.213 71.9013L144.213 71.9013ZM46.6627 118.033L20.2485 91.6192L27.5674 71.6532L66.6287 110.715L46.6627 118.033ZM32.3463 123.281L15.0005 105.936L18.0257 97.683L40.5989 120.256L32.3463 123.281ZM7.657 132.331C6.96267 132.586 6.48308 132.247 6.25837 132.023C6.03396 131.799 5.69558 131.319 5.95017 130.625L12.7775 111.999L26.2821 125.504L7.657 132.331ZM105.861 95.6794C105.802 95.9452 105.615 96.4236 105.02 96.6418L87.0087 103.244L70.3456 86.5805C69.2016 85.4361 67.3465 85.4364 66.2025 86.5802C65.0584 87.7242 65.0581 89.5793 66.2022 90.7233L80.9449 105.466L72.6923 108.491L29.7901 65.5893L32.8153 57.3367L47.5583 72.0794C48.1302 72.6516 48.8802 72.9375 49.6299 72.9375C50.3796 72.9375 51.1296 72.6513 51.7015 72.0794C52.8455 70.9354 52.8455 69.0803 51.7012 67.9363L35.038 51.2732L41.6401 33.2624C41.8583 32.6671 42.3368 32.4799 42.6028 32.421C42.6836 32.4031 42.7876 32.3879 42.9057 32.3879C43.1749 32.3879 43.518 32.4676 43.8297 32.7796L105.502 94.4522C105.951 94.9007 105.919 95.4137 105.861 95.6794L105.861 95.6794Z" transform="translate(0 11.7180805)" id="XMLID_1068_" fill="#000000" fill-rule="evenodd" stroke="none" />
          <path d="M2.92968 20.6179C4.54774 20.6179 5.85935 19.3063 5.85935 17.6882C5.85935 15.2346 7.85563 13.2386 10.3092 13.2386C15.9934 13.2386 20.6182 8.61413 20.6182 2.92968C20.6182 1.31162 19.3063 0 17.6885 0C16.0707 0 14.7588 1.31162 14.7588 2.92968C14.7588 5.38328 12.7625 7.37927 10.3092 7.37927C4.62479 7.37927 0 12.0038 0 17.6882C0 19.3063 1.31191 20.6179 2.92968 20.6179L2.92968 20.6179Z" transform="translate(85.42847 2.7620988)" id="XMLID_1441_" fill="#000000" fill-rule="evenodd" stroke="none" />
          <path d="M2.92968 21.2935C8.80046 21.2935 13.5767 16.5172 13.5767 10.6467C13.5767 8.0071 15.7242 5.85935 18.3641 5.85935C19.9819 5.85935 21.2938 4.54774 21.2938 2.92968C21.2938 1.31162 19.9819 0 18.3641 0C12.4936 0 7.71736 4.77625 7.71736 10.6467C7.71736 13.2864 5.56961 15.4341 2.92968 15.4341C1.31191 15.4341 0 16.7457 0 18.3638C0 19.9819 1.31191 21.2935 2.92968 21.2935L2.92968 21.2935Z" transform="translate(111.42114 29.74002)" id="XMLID_1462_" fill="#000000" fill-rule="evenodd" stroke="none" />
          <path d="M0 9.37496C0 14.5444 4.20555 18.7499 9.37496 18.7499C14.5444 18.7499 18.7499 14.5444 18.7499 9.37496C18.7499 4.20555 14.5444 0 9.37496 0C4.20555 0 0 4.20555 0 9.37496L0 9.37496ZM9.37496 5.85935C11.3135 5.85935 12.8906 7.4364 12.8906 9.37496C12.8906 11.3135 11.3135 12.8906 9.37496 12.8906C7.43639 12.8906 5.85935 11.3135 5.85935 9.37496C5.85935 7.4364 7.43639 5.85935 9.37496 5.85935L9.37496 5.85935Z" transform="translate(131.25008 47.30987)" id="XMLID_1489_" fill="#000000" fill-rule="evenodd" stroke="none" />
          <path d="M9.37497 18.7499C14.5444 18.7499 18.7499 14.5444 18.7499 9.37496C18.7499 4.20555 14.5444 0 9.37497 0C4.20555 0 0 4.20555 0 9.37496C0 14.5444 4.20584 18.7499 9.37497 18.7499L9.37497 18.7499ZM9.37497 5.85935C11.3135 5.85935 12.8906 7.4364 12.8906 9.37496C12.8906 11.3135 11.3135 12.8906 9.37497 12.8906C7.4364 12.8906 5.85935 11.3135 5.85935 9.37496C5.85935 7.4364 7.4364 5.85935 9.37497 5.85935L9.37497 5.85935Z" transform="translate(82.942055 31.011793)" id="XMLID_1502_" fill="#000000" fill-rule="evenodd" stroke="none" />
          <path d="M9.37496 18.7499C14.5444 18.7499 18.7499 14.5444 18.7499 9.37496C18.7499 4.20555 14.5444 0 9.37496 0C4.20555 0 0 4.20555 0 9.37496C0 14.5444 4.20555 18.7499 9.37496 18.7499L9.37496 18.7499ZM9.37496 5.85935C11.3135 5.85935 12.8906 7.4364 12.8906 9.37496C12.8906 11.3135 11.3135 12.8906 9.37496 12.8906C7.4364 12.8906 5.85935 11.3135 5.85935 9.37496C5.85935 7.4364 7.4364 5.85935 9.37496 5.85935L9.37496 5.85935Z" transform="translate(28.125477 0)" id="XMLID_1619_" fill="#000000" fill-rule="evenodd" stroke="none" />
          <path d="M5.00147 0.858062C3.85773 -0.285976 2.00324 -0.285976 0.858027 0.857767C-0.286012 2.0018 -0.286012 3.85687 0.858027 5.00091L3.62013 7.76301C4.1923 8.33518 4.942 8.62111 5.69171 8.62111C6.44142 8.62111 7.19112 8.33488 7.76329 7.76301C8.90733 6.61897 8.90733 4.7639 7.76329 3.61987L5.00147 0.858062Z" transform="translate(127.56783 101.99056)" id="XMLID_1620_" fill="#000000" fill-rule="evenodd" stroke="none" />
          <path d="M5.00147 0.858026C3.85714 -0.286012 2.00266 -0.286012 0.858027 0.858026C-0.286012 2.00206 -0.286012 3.85713 0.858027 5.00147L3.62013 7.76357C4.1923 8.33573 4.942 8.62167 5.69171 8.62167C6.44142 8.62167 7.19112 8.33573 7.76329 7.76357C8.90733 6.61953 8.90733 4.76446 7.76329 3.62013L5.00147 0.858026Z" transform="translate(141.37833 115.80109)" id="XMLID_1659_" fill="#000000" fill-rule="evenodd" stroke="none" />
          <path d="M3.62013 0.858143L0.858027 3.62024C-0.286012 4.76428 -0.286012 6.61935 0.858027 7.76339C1.43019 8.33556 2.17989 8.62149 2.92961 8.62149C3.67932 8.62149 4.4293 8.33526 5.00118 7.76339L7.76329 5.00129C8.90733 3.85725 8.90733 2.00218 7.76329 0.858143C6.61925 -0.286191 4.76418 -0.285896 3.62014 0.858143L3.62013 0.858143Z" transform="translate(141.37833 101.99048)" id="XMLID_1690_" fill="#000000" fill-rule="evenodd" stroke="none" />
          <path d="M3.62013 0.858026L0.858027 3.62013C-0.286012 4.76416 -0.286012 6.61924 0.858027 7.76357C1.43019 8.33573 2.1799 8.62167 2.92961 8.62167C3.6796 8.62167 4.42902 8.33573 5.00119 7.76357L7.76329 5.00147C8.90733 3.85743 8.90733 2.00236 7.76329 0.858026C6.61895 -0.286012 4.76447 -0.286012 3.62014 0.858026L3.62013 0.858026Z" transform="translate(127.56783 115.80109)" id="XMLID_1712_" fill="#000000" fill-rule="evenodd" stroke="none" />
          <path d="M2.92989 8.62138C3.67959 8.62138 4.42959 8.33544 5.00147 7.76328L7.76357 5.00118C8.90761 3.85714 8.90761 2.00207 7.76357 0.858029C6.61924 -0.28601 4.76417 -0.28601 3.62013 0.858029L0.858026 3.62013C-0.286012 4.76417 -0.286012 6.61924 0.858026 7.76328C1.43049 8.33544 2.17989 8.62138 2.92989 8.62138L2.92989 8.62138Z" transform="translate(141.37834 7.292227E-05)" id="XMLID_1715_" fill="#000000" fill-rule="evenodd" stroke="none" />
          <path d="M2.92989 8.62167C3.67989 8.62167 4.4293 8.33573 5.00147 7.76357L7.76357 5.00147C8.90761 3.85743 8.90761 2.00236 7.76357 0.858028C6.61924 -0.286009 4.76476 -0.286009 3.62013 0.858028L0.858026 3.62013C-0.286012 4.76416 -0.286012 6.61924 0.858026 7.76357C1.43049 8.33573 2.18019 8.62167 2.92989 8.62167L2.92989 8.62167Z" transform="translate(127.56755 13.810273)" id="XMLID_1747_" fill="#000000" fill-rule="evenodd" stroke="none" />
          <path d="M5.00147 0.858029C3.85714 -0.28601 2.00266 -0.28601 0.858027 0.858029C-0.286012 2.00207 -0.286012 3.85714 0.858027 5.00147L3.62013 7.76357C4.1923 8.33573 4.942 8.62167 5.69171 8.62167C6.44142 8.62167 7.19112 8.33573 7.76329 7.76357C8.90733 6.61953 8.90733 4.76446 7.76329 3.62013L5.00147 0.858029Z" transform="translate(141.37833 13.810566)" id="XMLID_1750_" fill="#000000" fill-rule="evenodd" stroke="none" />
          <path d="M3.62041 7.76328C4.19258 8.33544 4.94228 8.62138 5.69199 8.62138C6.4417 8.62138 7.1914 8.33544 7.76357 7.76328C8.90761 6.61924 8.90761 4.76417 7.76357 3.62013L5.00147 0.858029C3.85773 -0.28601 2.00324 -0.28601 0.858026 0.858029C-0.286012 2.00207 -0.286012 3.85714 0.858026 5.00118L3.62041 7.76328Z" transform="translate(127.56755 7.320166E-05)" id="XMLID_1751_" fill="#000000" fill-rule="evenodd" stroke="none" />
          <path d="M2.92968 0C2.15917 0 1.40331 0.313477 0.858393 0.858392C0.313473 1.40331 0 2.15917 0 2.92967C0 3.70018 0.313477 4.45603 0.858393 5.00095C1.40331 5.54588 2.15917 5.85934 2.92968 5.85934C3.70018 5.85934 4.45604 5.54587 5.00096 5.00095C5.54588 4.45604 5.85935 3.70018 5.85935 2.92967C5.85935 2.15917 5.54587 1.40332 5.00096 0.858392C4.45604 0.313468 3.70018 0 2.92968 0L2.92968 0Z" transform="translate(56.021557 88.11879)" id="XMLID_1755_" fill="#000000" fill-rule="evenodd" stroke="none" />
          <path d="M2.98204 0.858026L0.858027 2.98204C-0.286012 4.12608 -0.286012 5.98115 0.858027 7.12548C1.43019 7.69765 2.1799 7.98359 2.92961 7.98359C3.67932 7.98359 4.42902 7.69765 5.00119 7.12548L7.1252 5.00147C8.26924 3.85743 8.26924 2.00236 7.1252 0.858026C5.98087 -0.286012 4.12639 -0.286012 2.98205 0.858026L2.98204 0.858026Z" transform="translate(98.712296 56.74409)" id="XMLID_1756_" fill="#000000" fill-rule="evenodd" stroke="none" />
        </g>
      </g>
    </g>
  </g>
</svg>