<?xml version="1.0" encoding="utf-8"?>
<svg width="64px" height="64px" viewbox="0 0 64 64" version="1.1" xmlns:xlink="http://www.w3.org/1999/xlink" xmlns="http://www.w3.org/2000/svg">
  <defs>
    <path d="M0 0L38 0L38 38.0001L0 38.0001L0 0Z" id="path_1" />
    <rect width="64" height="64" id="artboard_1" />
    <clipPath id="clip_1">
      <use xlink:href="#artboard_1" clip-rule="evenodd" />
    </clipPath>
    <clipPath id="mask_1">
      <use xlink:href="#path_1" />
    </clipPath>
  </defs>
  <g id="Quad-HD-Copy" clip-path="url(#clip_1)">
    <g id="dashboard" transform="translate(4 4)">
      <path d="M0 27.5C0 12.3122 12.3122 0 27.5 0C42.6878 0 55 12.3122 55 27.5C55 42.6878 42.6878 55 27.5 55C12.3122 55 0 42.6878 0 27.5Z" id="Ellipse" fill="none" fill-rule="evenodd" stroke="#FFFFFF" stroke-width="2" />
      <g id="dashboard" transform="translate(8 8)">
        <path d="M0 0L38 0L38 38.0001L0 38.0001L0 0Z" id="Background" fill="none" fill-rule="evenodd" stroke="none" />
        <g clip-path="url(#mask_1)">
          <g id="Group" transform="translate(0 4.0712795)">
            <path d="M36.4949 11.6207C35.4914 9.27373 34.1412 7.25246 32.4448 5.55569C30.7485 3.85922 28.7268 2.50924 26.3798 1.50559C24.0327 0.501937 21.5733 0 19.0001 0C16.427 0 13.9672 0.502011 11.6205 1.50559C9.27388 2.50961 7.25231 3.85922 5.55592 5.55569C3.85915 7.25246 2.50939 9.27373 1.50551 11.6207C0.501863 13.9676 0 16.4272 0 19.0002C0 22.7038 0.996595 26.1184 2.98993 29.2427C3.25836 29.6527 3.64012 29.8575 4.135 29.8575L33.8651 29.8575C34.3597 29.8575 34.7415 29.6526 35.0099 29.2427C37.0034 26.1044 38 22.69 38 19.0002C38 16.4272 37.4984 13.9676 36.4949 11.6207L36.4949 11.6207ZM17.0808 3.5097C17.6112 2.97946 18.2507 2.71431 19 2.71431C19.7493 2.71431 20.3888 2.97954 20.9191 3.5097C21.4493 4.03963 21.7146 4.67942 21.7146 5.42869C21.7146 6.17795 21.4493 6.81752 20.9191 7.34768C20.3888 7.87784 19.7493 8.14307 19 8.14307C18.2507 8.14307 17.611 7.87784 17.0808 7.34768C16.5509 6.81744 16.2855 6.17795 16.2855 5.42869C16.2855 4.67942 16.5506 4.03971 17.0808 3.5097L17.0808 3.5097ZM7.34775 20.9193C6.81759 21.4492 6.1778 21.7151 5.42854 21.7151C4.67949 21.7151 4.0397 21.4492 3.50954 20.9193C2.97931 20.3896 2.71445 19.7496 2.71445 19.0002C2.71445 18.251 2.97931 17.6115 3.50954 17.0812C4.03978 16.551 4.67949 16.2859 5.42854 16.2859C6.1778 16.2859 6.81789 16.551 7.34775 17.0812C7.87769 17.6115 8.14299 18.251 8.14299 19.0002C8.14299 19.7496 7.87769 20.389 7.34775 20.9193L7.34775 20.9193ZM11.4193 11.4192C10.8889 11.9493 10.2494 12.2146 9.50004 12.2146C8.7507 12.2146 8.11098 11.949 7.58075 11.4192C7.05081 10.8893 6.78558 10.2495 6.78558 9.50026C6.78558 8.75099 7.05051 8.11143 7.58075 7.58126C8.11121 7.05103 8.7507 6.78588 9.50004 6.78588C10.2493 6.78588 10.8891 7.0511 11.4193 7.58126C11.9493 8.1115 12.2145 8.75099 12.2145 9.50026C12.2145 10.2493 11.9492 10.889 11.4193 11.4192L11.4193 11.4192ZM23.4318 11.5996L21.2898 19.6999C21.9972 20.1803 22.5061 20.8234 22.8172 21.6296C23.1278 22.4353 23.1705 23.2624 22.9443 24.1106C22.6616 25.1992 22.0323 26.0263 21.0568 26.5915C20.0812 27.157 19.0495 27.2987 17.9606 27.0158C16.8723 26.7331 16.045 26.1041 15.4798 25.1285C14.9145 24.1527 14.7731 23.1211 15.0558 22.0322C15.2819 21.1843 15.7272 20.4881 16.3918 19.9442C17.056 19.3995 17.8123 19.0924 18.6605 19.0215L20.8023 10.921C20.9012 10.5535 21.1132 10.274 21.4382 10.0832C21.7636 9.89264 22.1026 9.84667 22.4562 9.94553C22.8101 10.0446 23.082 10.2529 23.2725 10.5709C23.4639 10.8893 23.5167 11.2321 23.4318 11.5996L23.4318 11.5996ZM26.581 11.4192C26.0507 10.8893 25.7854 10.2495 25.7854 9.50026C25.7854 8.75099 26.0507 8.11143 26.581 7.58126C27.1112 7.0511 27.7507 6.78588 28.5 6.78588C29.2493 6.78588 29.8888 7.0511 30.419 7.58126C30.9493 8.11143 31.2146 8.75099 31.2146 9.50026C31.2146 10.2493 30.9493 10.8891 30.419 11.4192C29.8888 11.9493 29.2493 12.2146 28.5 12.2146C27.7507 12.2146 27.1112 11.9493 26.581 11.4192L26.581 11.4192ZM34.4905 20.9193C33.9602 21.4492 33.3207 21.7151 32.5715 21.7151C31.8221 21.7151 31.1826 21.4492 30.6524 20.9193C30.1222 20.3896 29.8571 19.7496 29.8571 19.0002C29.8571 18.251 30.1222 17.6115 30.6524 17.0812C31.1826 16.551 31.8221 16.2859 32.5715 16.2859C33.3207 16.2859 33.9602 16.551 34.4905 17.0812C35.0207 17.6115 35.2855 18.251 35.2855 19.0002C35.2855 19.7496 35.0206 20.389 34.4905 20.9193L34.4905 20.9193Z" id="Shape" fill="#FFFFFF" fill-rule="evenodd" stroke="none" />
          </g>
        </g>
      </g>
    </g>
  </g>
</svg>