<?xml version="1.0" encoding="utf-8"?>
<svg width="25px" height="25px" viewBox="0 0 25 25" version="1.1" xmlns:xlink="http://www.w3.org/1999/xlink" xmlns="http://www.w3.org/2000/svg">
  <desc>Created with Lunacy</desc>
  <defs>
    <filter id="filter_1">
      <feColorMatrix in="SourceGraphic" type="matrix" values="0 0 0 0 0 0 0 0 0 0.45882353 0 0 0 0 0.41960785 0 0 0 1 0" />
    </filter>
  </defs>
  <g id="calendar" filter="url(#filter_1)">
    <g id="Group">
      <path d="M24.2676 0.784522L20.293 0.784522L20.293 0.732422C20.293 0.32793 19.965 0 19.5605 0C19.1561 0 18.8281 0.32793 18.8281 0.732422L18.8281 0.784522L15.5859 0.784522L15.5859 0.732422C15.5859 0.32793 15.258 0 14.8535 0C14.449 0 14.1211 0.32793 14.1211 0.732422L14.1211 0.784522L10.8789 0.784522L10.8789 0.732422C10.8789 0.32793 10.551 0 10.1465 0C9.74199 0 9.41406 0.32793 9.41406 0.732422L9.41406 0.784522L6.17188 0.784522L6.17188 0.732422C6.17188 0.32793 5.84395 0 5.43945 0C5.03496 0 4.70703 0.32793 4.70703 0.732422L4.70703 0.784522L0.732422 0.784522C0.32793 0.784522 0 1.11245 0 1.51694L0 24.2676C0 24.6721 0.32793 25 0.732422 25L24.2676 25C24.6721 25 25 24.6721 25 24.2676L25 1.51694C25 1.11245 24.6721 0.784521 24.2676 0.784521L24.2676 0.784522ZM23.5352 23.5352L1.46484 23.5352L1.46484 6.17188L23.5352 6.17188L23.5352 23.5352ZM23.5352 4.70702L1.46484 4.70702L1.46484 2.24936L4.70703 2.24936L4.70703 2.30141C4.70703 2.7059 5.03496 3.03383 5.43945 3.03383C5.84395 3.03383 6.17188 2.7059 6.17188 2.30141L6.17188 2.24936L9.41406 2.24936L9.41406 2.30141C9.41406 2.7059 9.74199 3.03383 10.1465 3.03383C10.551 3.03383 10.8789 2.7059 10.8789 2.30141L10.8789 2.24936L14.1211 2.24936L14.1211 2.30141C14.1211 2.7059 14.449 3.03383 14.8535 3.03383C15.258 3.03383 15.5859 2.7059 15.5859 2.30141L15.5859 2.24936L18.8281 2.24936L18.8281 2.30141C18.8281 2.7059 19.1561 3.03383 19.5605 3.03383C19.965 3.03383 20.293 2.7059 20.293 2.30141L20.293 2.24936L23.5352 2.24936L23.5352 4.70702Z" id="Shape" fill="#000000" fill-rule="evenodd" stroke="none" />
      <path d="M0.732422 1.46484L1.5169 1.46484C1.92139 1.46484 2.24932 1.13691 2.24932 0.732422C2.24932 0.32793 1.92139 0 1.5169 0L0.732422 0C0.32793 0 0 0.32793 0 0.732422C0 1.13691 0.32793 1.46484 0.732422 1.46484L0.732422 1.46484Z" transform="translate(17.259155 10.983063)" id="Shape" fill="#000000" fill-rule="evenodd" stroke="none" />
      <path d="M0.732422 1.46484L1.5169 1.46484C1.92139 1.46484 2.24932 1.13691 2.24932 0.732422C2.24932 0.32793 1.92139 0 1.5169 0L0.732422 0C0.32793 0 0 0.32793 0 0.732422C0 1.13691 0.32793 1.46484 0.732422 1.46484L0.732422 1.46484Z" transform="translate(17.259155 7.845063)" id="Shape" fill="#000000" fill-rule="evenodd" stroke="none" />
      <path d="M0.732422 1.46484L1.5169 1.46484C1.92139 1.46484 2.24932 1.13691 2.24932 0.732422C2.24932 0.32793 1.92139 0 1.5169 0L0.732422 0C0.32793 0 0 0.32793 0 0.732422C0 1.13691 0.32793 1.46484 0.732422 1.46484L0.732422 1.46484Z" transform="translate(17.259155 14.121094)" id="Shape" fill="#000000" fill-rule="evenodd" stroke="none" />
      <path d="M0.732422 1.46484L1.5169 1.46484C1.92139 1.46484 2.24932 1.13691 2.24932 0.732422C2.24932 0.32793 1.92139 0 1.5169 0L0.732422 0C0.32793 0 0 0.32793 0 0.732422C0 1.13691 0.32793 1.46484 0.732422 1.46484L0.732422 1.46484Z" transform="translate(17.259155 17.259125)" id="Shape" fill="#000000" fill-rule="evenodd" stroke="none" />
      <path d="M1.51689 0L0.732422 0C0.32793 0 0 0.32793 0 0.732422C0 1.13691 0.32793 1.46484 0.732422 1.46484L1.51689 1.46484C1.92139 1.46484 2.24932 1.13691 2.24932 0.732422C2.24932 0.32793 1.92139 0 1.51689 0L1.51689 0Z" transform="translate(9.4140625 17.259125)" id="Shape" fill="#000000" fill-rule="evenodd" stroke="none" />
      <path d="M1.51689 0L0.732422 0C0.32793 0 0 0.32793 0 0.732422C0 1.13691 0.32793 1.46484 0.732422 1.46484L1.51689 1.46484C1.92139 1.46484 2.24932 1.13691 2.24932 0.732422C2.24932 0.32793 1.92139 0 1.51689 0L1.51689 0Z" transform="translate(9.4140625 20.397125)" id="Shape" fill="#000000" fill-rule="evenodd" stroke="none" />
      <path d="M0.732422 1.46484L1.5169 1.46484C1.92139 1.46484 2.24932 1.13691 2.24932 0.732422C2.24932 0.32793 1.92139 0 1.5169 0L0.732422 0C0.32793 0 0 0.32793 0 0.732422C0 1.13691 0.32793 1.46484 0.732422 1.46484L0.732422 1.46484Z" transform="translate(13.33667 10.983063)" id="Shape" fill="#000000" fill-rule="evenodd" stroke="none" />
      <path d="M0.732422 1.46484L1.5169 1.46484C1.92139 1.46484 2.24932 1.13691 2.24932 0.732422C2.24932 0.32793 1.92139 0 1.5169 0L0.732422 0C0.32793 0 0 0.32793 0 0.732422C0 1.13691 0.32793 1.46484 0.732422 1.46484L0.732422 1.46484Z" transform="translate(13.33667 7.845063)" id="Shape" fill="#000000" fill-rule="evenodd" stroke="none" />
      <path d="M0.732422 1.46484L1.5169 1.46484C1.92139 1.46484 2.24932 1.13691 2.24932 0.732422C2.24932 0.32793 1.92139 0 1.5169 0L0.732422 0C0.32793 0 0 0.32793 0 0.732422C0 1.13691 0.32793 1.46484 0.732422 1.46484L0.732422 1.46484Z" transform="translate(13.33667 14.121094)" id="Shape" fill="#000000" fill-rule="evenodd" stroke="none" />
      <path d="M0.732422 1.46484L1.5169 1.46484C1.92139 1.46484 2.24932 1.13691 2.24932 0.732422C2.24932 0.32793 1.92139 0 1.5169 0L0.732422 0C0.32793 0 0 0.32793 0 0.732422C0 1.13691 0.32793 1.46484 0.732422 1.46484L0.732422 1.46484Z" transform="translate(13.33667 17.259125)" id="Shape" fill="#000000" fill-rule="evenodd" stroke="none" />
      <path d="M0.732422 0C0.327929 0 0 0.32793 0 0.732422C0 1.13691 0.32793 1.46484 0.732422 1.46484L1.51689 1.46484C1.92139 1.46484 2.24932 1.13691 2.24932 0.732422C2.24932 0.32793 1.92139 0 1.51689 0L0.732422 0Z" transform="translate(5.491577 10.983063)" id="Shape" fill="#000000" fill-rule="evenodd" stroke="none" />
      <path d="M1.51689 0L0.732422 0C0.327929 0 0 0.32793 0 0.732422C0 1.13691 0.32793 1.46484 0.732422 1.46484L1.51689 1.46484C1.92139 1.46484 2.24932 1.13691 2.24932 0.732422C2.24932 0.32793 1.92139 0 1.51689 0L1.51689 0Z" transform="translate(5.491577 17.259125)" id="Shape" fill="#000000" fill-rule="evenodd" stroke="none" />
      <path d="M1.51689 0L0.732422 0C0.327929 0 0 0.32793 0 0.732422C0 1.13691 0.32793 1.46484 0.732422 1.46484L1.51689 1.46484C1.92139 1.46484 2.24932 1.13691 2.24932 0.732422C2.24932 0.32793 1.92139 0 1.51689 0L1.51689 0Z" transform="translate(5.491577 20.397125)" id="Shape" fill="#000000" fill-rule="evenodd" stroke="none" />
      <path d="M4.26265 8.52544C5.43486 8.52544 6.49805 8.04976 7.26943 7.28125C7.14033 7.41328 7.0605 7.59375 7.0605 7.79302C7.0605 8.19751 7.38843 8.52544 7.79292 8.52544L8.57739 8.52544C8.98188 8.52544 9.30981 8.19751 9.30981 7.79302C9.30981 7.38853 8.98188 7.0606 8.57739 7.0606L7.79292 7.0606C7.59365 7.0606 7.41323 7.14043 7.2812 7.26953C7.79443 6.75425 8.17686 6.10869 8.37436 5.3874L8.57744 5.3874C8.98193 5.3874 9.30986 5.05947 9.30986 4.65498C9.30986 4.25049 8.98193 3.92256 8.57744 3.92256L8.50034 3.92256C8.33643 2.81016 7.37915 1.96128 6.22397 1.96128C5.81948 1.96128 5.49194 2.28921 5.49194 2.6937C5.49194 3.09819 5.82026 3.42612 6.22476 3.42612C6.67861 3.42612 7.06055 3.7918 7.06055 4.2627C7.06055 5.80547 5.80547 7.06055 4.2627 7.06055C2.71992 7.06055 1.46484 5.80542 1.46484 4.2627C1.46484 2.71997 2.71992 1.46484 4.2627 1.46484C4.66719 1.46484 4.99512 1.13691 4.99512 0.732422C4.99512 0.32793 4.66719 0 4.2627 0C1.91221 0 0 1.91226 0 4.2627C-4.88013e-05 6.61323 1.91216 8.52544 4.26265 8.52544L4.26265 8.52544Z" transform="translate(2.3535156 7.060487)" id="Shape" fill="#000000" fill-rule="evenodd" stroke="none" />
    </g>
  </g>
</svg>