<?xml version="1.0" encoding="utf-8"?>
<svg width="25px" height="25px" viewbox="0 0 25 25" version="1.1" xmlns:xlink="http://www.w3.org/1999/xlink" xmlns="http://www.w3.org/2000/svg">
  <defs>
    <path d="M0 0L21 0L21 21L0 21L0 0Z" id="path_1" />
    <path d="M0 0L21 0L21 21L0 21L0 0L0 0Z" id="path_2" />
    <rect width="25" height="25" id="artboard_1" />
    <clipPath id="clip_1">
      <use xlink:href="#artboard_1" clip-rule="evenodd" />
    </clipPath>
    <clipPath id="mask_1">
      <use xlink:href="#path_1" />
    </clipPath>
    <clipPath id="mask_2">
      <use xlink:href="#path_2" />
    </clipPath>
  </defs>
  <g id="Pixelbook" clip-path="url(#clip_1)">
    <use xlink:href="#artboard_1" stroke="none" fill="#FFFFFF" />
    <g id="demographic_icon" transform="translate(2 2)">
      <g id="Mask-group">
        <path d="M0 0L21 0L21 21L0 21L0 0Z" id="artboard_1" fill="none" fill-rule="evenodd" stroke="none" />
        <g clip-path="url(#mask_1)">
          <g id="Pixelbook">
            <path d="M0 0L21 0L21 21L0 21L0 0Z" id="artboard_1" fill="#FFFFFF" fill-rule="evenodd" stroke="none" />
            <g id="population">
              <path d="M0 0L21 0L21 21L0 21L0 0L0 0Z" id="Background" fill="none" fill-rule="evenodd" stroke="none" />
              <g id="Mask-group">
                <path d="M0 0L21 0L21 21L0 21L0 0L0 0Z" id="path_1" fill="none" fill-rule="evenodd" stroke="none" />
                <g clip-path="url(#mask_2)">
                  <g id="Group" transform="translate(0.65625 0)">
                    <path d="M7.38281 4.26963L7.38281 3.6914C7.38281 1.66113 5.72168 0 3.6914 0C1.66113 0 0 1.66113 0 3.6914L0 10.0775L7.38281 10.0775L7.38281 4.26963L7.38281 4.26963Z" transform="translate(9.228516 9.925781)" id="Shape" fill="#0097A4" fill-rule="evenodd" stroke="none" />
                    <path d="M3.6914 4.26963L3.6914 3.6914C3.6914 1.66113 2.03027 0 0 0L0 10.0775L3.6914 10.0775L3.6914 4.26963L3.6914 4.26963Z" transform="translate(12.919922 9.925781)" id="Shape#1" fill="#00C7D9" fill-rule="evenodd" stroke="none" />
                    <path d="M2.46094 0C1.10742 0 0 1.10742 0 2.46094C0 3.81446 1.10742 4.92188 2.46094 4.92188C3.81446 4.92188 4.92188 3.81446 4.92188 2.46094C4.92188 1.10742 3.81446 0 2.46094 0L2.46094 0L2.46094 0Z" transform="translate(4.3066406 5.0039062)" id="Shape#2" fill="#0097A4" fill-rule="evenodd" stroke="none" />
                    <path d="M2.46094 0C1.10742 0 0 1.10742 0 2.46094C0 3.81446 1.10742 4.92188 2.46094 4.92188C3.81446 4.92188 4.92188 3.81446 4.92188 2.46094C4.92188 1.10742 3.81446 0 2.46094 0L2.46094 0L2.46094 0Z" transform="translate(10.458983 5.0039062)" id="Shape#3" fill="#0097A4" fill-rule="evenodd" stroke="none" />
                    <path d="M7.38281 3.6914L7.38281 9.15466L0 9.15466L0 3.6914C0 1.66113 1.66113 0 3.6914 0C5.72168 0 7.38281 1.66113 7.38281 3.6914L7.38281 3.6914L7.38281 3.6914Z" transform="translate(3.0761719 9.925781)" id="Shape#4" fill="#0097A4" fill-rule="evenodd" stroke="none" />
                    <path d="M2.46094 2.46094C2.46094 3.81446 1.35352 4.92188 0 4.92188L0 0C1.35352 0 2.46094 1.10742 2.46094 2.46094L2.46094 2.46094L2.46094 2.46094Z" transform="translate(6.767578 5.0039062)" id="Shape#5" fill="#00C7D9" fill-rule="evenodd" stroke="none" />
                    <path d="M3.6914 3.6914L3.6914 9.15466L0 9.15466L0 0C2.03027 0 3.6914 1.66113 3.6914 3.6914L3.6914 3.6914L3.6914 3.6914Z" transform="translate(6.767578 9.925781)" id="Shape#6" fill="#00C7D9" fill-rule="evenodd" stroke="none" />
                    <path d="M2.46094 2.46094C2.46094 3.81446 1.35352 4.92188 0 4.92188L0 0C1.35352 0 2.46094 1.10742 2.46094 2.46094L2.46094 2.46094L2.46094 2.46094Z" transform="translate(12.919922 5.0039062)" id="Shape#7" fill="#00C7D9" fill-rule="evenodd" stroke="none" />
                    <g id="Group" transform="translate(0 11.156249)">
                      <path d="M3.6914 0C1.66113 0 0 1.66113 0 3.69141L0 4.30664C0 4.65111 0.270607 4.92188 0.615234 4.92188L6.76758 4.92188C7.1122 4.92188 7.38281 4.65111 7.38281 4.30664L7.38281 3.69141C7.38281 1.66113 5.72168 0 3.6914 0L3.6914 0L3.6914 0Z" transform="translate(0 4.9218764)" id="Shape#8" fill="#005A62" fill-rule="evenodd" stroke="none" />
                      <path d="M3.69141 0C1.66113 0 0 1.66113 0 3.69141L0 4.30664C0 4.65111 0.270607 4.92188 0.615235 4.92188L6.76758 4.92188C7.1122 4.92188 7.38281 4.65111 7.38281 4.30664L7.38281 3.69141C7.38281 1.66113 5.72168 0 3.69141 0L3.69141 0L3.69141 0Z" transform="translate(12.304687 4.9218764)" id="Shape#9" fill="#005A62" fill-rule="evenodd" stroke="none" />
                      <path d="M2.46094 0C1.10742 0 0 1.10742 0 2.46094C0 3.81446 1.10742 4.92188 2.46094 4.92188C3.81446 4.92188 4.92188 3.81446 4.92188 2.46094C4.92188 1.10742 3.81446 0 2.46094 0L2.46094 0L2.46094 0Z" transform="translate(1.2304688 0)" id="Shape#10" fill="#005A62" fill-rule="evenodd" stroke="none" />
                      <path d="M2.46094 0C1.10742 0 0 1.10742 0 2.46094C0 3.81446 1.10742 4.92188 2.46094 4.92188C3.81446 4.92188 4.92188 3.81446 4.92188 2.46094C4.92188 1.10742 3.81446 0 2.46094 0L2.46094 0L2.46094 0Z" transform="translate(13.535156 0)" id="Shape#11" fill="#005A62" fill-rule="evenodd" stroke="none" />
                    </g>
                    <path d="M3.50683 2.27637C3.39613 2.39942 3.23607 2.46094 3.07617 2.46094C2.91628 2.46094 2.75622 2.39942 2.6455 2.27637L2.46094 2.10413L2.46094 4.34766C2.46094 4.69212 2.19033 4.96289 1.84571 4.96289C1.50108 4.96289 1.23047 4.69212 1.23047 4.34766L1.23047 2.10413L1.0459 2.27637C0.812141 2.52246 0.418327 2.52246 0.18457 2.27637C-0.0615234 2.04261 -0.0615234 1.64879 0.18457 1.41504L1.41504 0.184571C1.52575 0.0615235 1.6858 0 1.84571 0C2.0056 0 2.16565 0.0615235 2.27637 0.184571L3.50683 1.41504C3.75293 1.64879 3.75293 2.04261 3.50683 2.27637L3.50683 2.27637L3.50683 2.27637Z" transform="translate(7.9980464 0)" id="Shape#12" fill="#0097A4" fill-rule="evenodd" stroke="none" />
                    <path d="M3.50683 2.27637C3.39613 2.39942 3.23606 2.46094 3.07617 2.46094C2.91628 2.46094 2.75622 2.39942 2.6455 2.27637L2.46094 2.10413L2.46094 4.34766C2.46094 4.69212 2.19033 4.96289 1.84571 4.96289C1.50108 4.96289 1.23047 4.69212 1.23047 4.34766L1.23047 2.10413L1.0459 2.27637C0.812141 2.52246 0.418327 2.52246 0.18457 2.27637C-0.0615234 2.04261 -0.0615234 1.64879 0.18457 1.41504L1.41504 0.184571C1.52575 0.0615235 1.6858 0 1.84571 0C2.0056 0 2.16565 0.0615235 2.27637 0.184571L3.50683 1.41504C3.75293 1.64879 3.75293 2.04261 3.50683 2.27637L3.50683 2.27637L3.50683 2.27637Z" transform="translate(14.150391 0)" id="Shape#13" fill="#0097A4" fill-rule="evenodd" stroke="none" />
                    <path d="M3.50683 2.27637C3.39613 2.39942 3.23607 2.46094 3.07617 2.46094C2.91628 2.46094 2.75622 2.39942 2.6455 2.27637L2.46094 2.10413L2.46094 4.34766C2.46094 4.69212 2.19033 4.96289 1.84571 4.96289C1.50108 4.96289 1.23047 4.69212 1.23047 4.34766L1.23047 2.10413L1.0459 2.27637C0.812141 2.52246 0.418328 2.52246 0.184571 2.27637C-0.0615234 2.04261 -0.0615234 1.64879 0.184571 1.41504L1.41504 0.184571C1.52575 0.0615235 1.6858 0 1.84571 0C2.0056 0 2.16565 0.0615235 2.27637 0.184571L3.50683 1.41504C3.75293 1.64879 3.75293 2.04261 3.50683 2.27637L3.50683 2.27637L3.50683 2.27637Z" transform="translate(1.8457031 0)" id="Shape#14" fill="#0097A4" fill-rule="evenodd" stroke="none" />
                    <path d="M1.66113 2.27637C1.55042 2.39942 1.39037 2.46094 1.23047 2.46094C1.07057 2.46094 0.910518 2.39942 0.799805 2.27637L0.615234 2.10413L0.615234 4.34766C0.615234 4.69212 0.344627 4.96289 0 4.96289L0 0C0.159897 0 0.319954 0.0615235 0.430664 0.184571L1.66113 1.41504C1.90723 1.64879 1.90723 2.04261 1.66113 2.27637L1.66113 2.27637L1.66113 2.27637Z" transform="translate(9.84375 0)" id="Shape#15" fill="#00C7D9" fill-rule="evenodd" stroke="none" />
                    <path d="M2.46094 2.46094C2.46094 3.81446 1.35352 4.92188 0 4.92188L0 0C1.35352 0 2.46094 1.10742 2.46094 2.46094L2.46094 2.46094L2.46094 2.46094Z" transform="translate(15.996093 11.156249)" id="Shape#16" fill="#00C7D9" fill-rule="evenodd" stroke="none" />
                    <path d="M3.69141 3.69141L3.69141 4.30664C3.69141 4.65111 3.4208 4.92188 3.07617 4.92188L0 4.92188L0 0C2.03027 0 3.69141 1.66113 3.69141 3.69141L3.69141 3.69141L3.69141 3.69141Z" transform="translate(15.996093 16.078125)" id="Shape#17" fill="#00C7D9" fill-rule="evenodd" stroke="none" />
                    <path d="M1.66113 2.27637C1.55042 2.39942 1.39037 2.46094 1.23047 2.46094C1.07057 2.46094 0.910518 2.39942 0.799804 2.27637L0.615234 2.10413L0.615234 4.34766C0.615234 4.69212 0.344627 4.96289 0 4.96289L0 0C0.159897 0 0.319954 0.0615235 0.430664 0.184571L1.66113 1.41504C1.90723 1.64879 1.90723 2.04261 1.66113 2.27637L1.66113 2.27637L1.66113 2.27637Z" transform="translate(15.996093 0)" id="Shape#18" fill="#00C7D9" fill-rule="evenodd" stroke="none" />
                    <path d="M3.6914 3.69141L3.6914 4.30664C3.6914 4.65111 3.4208 4.92188 3.07617 4.92188L0 4.92188L0 0C2.03027 0 3.6914 1.66113 3.6914 3.69141L3.6914 3.69141L3.6914 3.69141Z" transform="translate(3.6914062 16.078125)" id="Shape#19" fill="#00C7D9" fill-rule="evenodd" stroke="none" />
                    <path d="M2.46094 2.46094C2.46094 3.81446 1.35352 4.92188 0 4.92188L0 0C1.35352 0 2.46094 1.10742 2.46094 2.46094L2.46094 2.46094L2.46094 2.46094Z" transform="translate(3.6914062 11.156249)" id="Shape#20" fill="#00C7D9" fill-rule="evenodd" stroke="none" />
                    <path d="M1.66113 2.27637C1.55042 2.39942 1.39037 2.46094 1.23047 2.46094C1.07057 2.46094 0.910518 2.39942 0.799804 2.27637L0.615234 2.10413L0.615234 4.34766C0.615234 4.69212 0.344628 4.96289 0 4.96289L0 0C0.159896 0 0.319954 0.0615235 0.430664 0.184571L1.66113 1.41504C1.90723 1.64879 1.90723 2.04261 1.66113 2.27637L1.66113 2.27637L1.66113 2.27637Z" transform="translate(3.6914062 0)" id="Shape#21" fill="#00C7D9" fill-rule="evenodd" stroke="none" />
                    <path d="M3.6914 0C1.66113 0 0 1.66113 0 3.69141L0 4.30664C0 4.65111 0.270607 4.92188 0.615234 4.92188L6.76758 4.92188C7.1122 4.92188 7.38281 4.65111 7.38281 4.30664L7.38281 3.69141C7.38281 1.66113 5.72168 0 3.6914 0L3.6914 0L3.6914 0Z" transform="translate(6.1523438 16.078125)" id="Shape#22" fill="#005A62" fill-rule="evenodd" stroke="none" />
                    <path d="M2.46094 0C1.10742 0 0 1.10742 0 2.46094C0 3.81446 1.10742 4.92188 2.46094 4.92188C3.81446 4.92188 4.92188 3.81446 4.92188 2.46094C4.92188 1.10742 3.81446 0 2.46094 0L2.46094 0L2.46094 0Z" transform="translate(7.3828125 11.156249)" id="Shape#23" fill="#005A62" fill-rule="evenodd" stroke="none" />
                    <path d="M2.46094 2.46094C2.46094 3.81446 1.35352 4.92188 0 4.92188L0 0C1.35352 0 2.46094 1.10742 2.46094 2.46094L2.46094 2.46094L2.46094 2.46094Z" transform="translate(9.84375 11.156249)" id="Shape#24" fill="#00C7D9" fill-rule="evenodd" stroke="none" />
                    <path d="M3.6914 3.69141L3.6914 4.30664C3.6914 4.65111 3.4208 4.92188 3.07617 4.92188L0 4.92188L0 0C2.03027 0 3.6914 1.66113 3.6914 3.69141L3.6914 3.69141L3.6914 3.69141Z" transform="translate(9.84375 16.078125)" id="Shape#25" fill="#00C7D9" fill-rule="evenodd" stroke="none" />
                  </g>
                </g>
              </g>
            </g>
          </g>
        </g>
      </g>
    </g>
  </g>
</svg>