<?xml version="1.0" encoding="utf-8"?>
<svg width="25px" height="24px" viewbox="0 0 25 24" version="1.1" xmlns:xlink="http://www.w3.org/1999/xlink" xmlns="http://www.w3.org/2000/svg">
  <defs>
    <path d="M0 0L23 0L23 23L0 23L0 0Z" id="path_1" />
    <rect width="25" height="24" id="artboard_1" />
    <clipPath id="clip_1">
      <use xlink:href="#artboard_1" clip-rule="evenodd" />
    </clipPath>
    <clipPath id="mask_1">
      <use xlink:href="#path_1" />
    </clipPath>
  </defs>
  <g id="Pixelbook" clip-path="url(#clip_1)">
    <use xlink:href="#artboard_1" stroke="none" fill="#FFFFFF" />
    <g id="badge" transform="translate(1 1)">
      <path d="M0 0L23 0L23 23L0 23L0 0Z" id="Background" fill="none" fill-rule="evenodd" stroke="none" />
      <g clip-path="url(#mask_1)">
        <g id="Group" transform="translate(8.073943 4.8771386)" />
        <path d="M10.7692 18.1291C10.033 19.0184 9.07833 19.6166 7.96997 19.9238C7.48455 20.0532 7.26612 20.3119 7.29039 20.8131C7.31466 21.3063 7.29039 21.8075 7.29039 22.3007C7.29039 22.7453 7.06387 22.9798 6.62699 22.9879C6.09304 23.004 5.55909 23.004 5.02514 22.9879C4.5559 22.9798 4.33747 22.713 4.32938 22.2603C4.32129 21.8965 4.32129 21.5327 4.32129 21.1769C4.3132 20.3766 4.28893 20.3442 3.52036 20.223C2.53335 20.0694 1.57062 19.843 0.672608 19.4064C-0.0312394 19.0669 -0.104052 18.889 0.098203 18.1452C0.251916 17.5955 0.39754 17.0377 0.575524 16.496C0.777779 15.8654 0.947674 15.7846 1.53017 16.0837C2.52526 16.6011 3.58508 16.8921 4.69344 17.0296C5.40537 17.1185 6.10922 17.0458 6.77262 16.7547C8.01042 16.213 8.20458 14.7821 7.16095 13.9251C6.80498 13.6341 6.40047 13.4158 5.97978 13.2299C4.89569 12.7529 3.76306 12.3891 2.7437 11.7747C1.08521 10.7803 0.0334812 9.42206 0.154834 7.40093C0.292367 5.12109 1.5868 3.69822 3.67407 2.93827C4.53972 2.62298 4.53972 2.63915 4.54781 1.73368C4.54781 1.42647 4.54781 1.12734 4.54781 0.820129C4.56399 0.141029 4.67726 0.0197616 5.35683 0.00359286C5.56718 -0.00449154 5.77752 0.00359286 5.98787 0.00359286C7.42792 0.00359286 7.42792 0.00359286 7.43601 1.44264C7.4441 2.46129 7.43601 2.46937 8.45538 2.62298C9.23204 2.74425 9.97634 2.9787 10.6964 3.29399C11.0928 3.47185 11.2465 3.74673 11.1251 4.16712C10.9472 4.78963 10.7773 5.42022 10.575 6.03464C10.3889 6.61673 10.2029 6.70566 9.63655 6.43079C8.51201 5.88912 7.33084 5.66276 6.08495 5.72743C5.76134 5.7436 5.43774 5.79211 5.1384 5.92146C4.0624 6.39036 3.88442 7.57879 4.8067 8.30639C5.26784 8.67828 5.80179 8.94507 6.35193 9.17144C7.30657 9.56758 8.26121 9.93947 9.16732 10.4407C12.0232 12.0495 12.7998 15.6633 10.7692 18.1291L10.7692 18.1291Z" transform="translate(5 0)" id="Shape-path" fill="#17A2B8" fill-rule="evenodd" stroke="none" />
      </g>
    </g>
  </g>
</svg>