<?xml version="1.0" encoding="utf-8"?>
<svg width="25px" height="25px" viewbox="0 0 25 25" version="1.1" xmlns:xlink="http://www.w3.org/1999/xlink" xmlns="http://www.w3.org/2000/svg">
  <defs>
    <path d="M0 0L21 0L21 21L0 21L0 0Z" id="path_1" />
    <path d="M0 0L19.6875 0L19.6875 21L0 21L0 0L0 0L0 0Z" id="path_2" />
    <rect width="25" height="25" id="artboard_1" />
    <clipPath id="clip_1">
      <use xlink:href="#artboard_1" clip-rule="evenodd" />
    </clipPath>
    <clipPath id="mask_1">
      <use xlink:href="#path_1" />
    </clipPath>
    <clipPath id="mask_2">
      <use xlink:href="#path_2" />
    </clipPath>
  </defs>
  <g id="Pixelbook" clip-path="url(#clip_1)">
    <use xlink:href="#artboard_1" stroke="none" fill="#FFFFFF" />
    <g id="dignosis_icon" transform="translate(2 2)">
      <g id="Mask-group">
        <path d="M0 0L21 0L21 21L0 21L0 0Z" id="artboard_1" fill="none" fill-rule="evenodd" stroke="none" />
        <g clip-path="url(#mask_1)">
          <g id="Pixelbook">
            <path d="M0 0L21 0L21 21L0 21L0 0Z" id="artboard_1" fill="#FFFFFF" fill-rule="evenodd" stroke="none" />
          </g>
        </g>
      </g>
      <g id="dignosis_icon" transform="translate(0.65625095 0)">
        <g id="Insurance-6">
          <g id="medical-file">
            <path d="M0 0L19.6875 0L19.6875 21L0 21L0 0L0 0L0 0Z" id="Background" fill="none" fill-rule="evenodd" stroke="none" />
            <g id="Mask-group">
              <path d="M0 0L19.6875 0L19.6875 21L0 21L0 0L0 0L0 0Z" id="path_2" fill="none" fill-rule="evenodd" stroke="none" />
              <g id="Mask-group">
                <path d="M0 0L19.6875 0L19.6875 21L0 21L0 0L0 0L0 0Z" id="path_1" fill="none" fill-rule="evenodd" stroke="none" />
                <g clip-path="url(#mask_2)">
                  <g id="Group" transform="translate(1.8514707 0)">
                    <g id="Group">
                      <g id="Group#1">
                        <g id="Group#2" transform="translate(0.2883911 0.2883911)">
                          <g id="Group#3" transform="translate(13.650549 2.5629506)">
                            <path d="M1.33429 3.5894L0 3.5894L0 0L1.33429 0C1.56788 0 1.75727 0.189377 1.75727 0.422974L1.75727 3.16642C1.75727 3.40002 1.56788 3.5894 1.33429 3.5894L1.33429 3.5894L1.33429 3.5894L1.33429 3.5894Z" id="Shape" fill="#DD636E" fill-rule="evenodd" stroke="none" />
                            <path d="M1.15356 0L0 0C0.233597 0 0.422974 0.189377 0.422974 0.422974L0.422974 3.16642C0.422974 3.40002 0.233597 3.5894 0 3.5894L1.15356 3.5894C1.38717 3.5894 1.57654 3.40002 1.57654 3.16642L1.57654 0.422974C1.57654 0.189377 1.38717 0 1.15356 0L1.15356 0L1.15356 0L1.15356 0Z" transform="translate(0.18072505 0)" id="Shape#1" fill="#DA4A54" fill-rule="evenodd" stroke="none" />
                            <path d="M1.33429 3.58939L0 3.58939L0 0L1.33429 0C1.56788 0 1.75727 0.189377 1.75727 0.422974L1.75727 3.16642C1.75727 3.40006 1.56788 3.58939 1.33429 3.58939L1.33429 3.58939L1.33429 3.58939L1.33429 3.58939Z" transform="translate(0 5.1976914)" id="Shape#2" fill="#FFE07D" fill-rule="evenodd" stroke="none" />
                            <path d="M1.15356 0L0 0C0.233597 0 0.422974 0.189377 0.422974 0.422974L0.422974 3.16641C0.422974 3.40002 0.233597 3.5894 0 3.5894L1.15356 3.5894C1.38717 3.5894 1.57654 3.40002 1.57654 3.16641L1.57654 0.422974C1.57654 0.189338 1.38717 0 1.15356 0L1.15356 0L1.15356 0L1.15356 0Z" transform="translate(0.18072505 5.1977296)" id="Shape#3" fill="#FFD064" fill-rule="evenodd" stroke="none" />
                            <path d="M1.33429 3.58939L0 3.58939L0 0L1.33429 0C1.56788 0 1.75727 0.189376 1.75727 0.422974L1.75727 3.16641C1.75727 3.40002 1.56788 3.58939 1.33429 3.58939L1.33429 3.58939L1.33429 3.58939L1.33429 3.58939Z" transform="translate(0 10.395422)" id="Shape#4" fill="#BED8FB" fill-rule="evenodd" stroke="none" />
                            <path d="M1.15356 0L0 0C0.233597 0 0.422974 0.189376 0.422974 0.422974L0.422974 3.16641C0.422974 3.40002 0.233597 3.58939 0 3.58939L1.15356 3.58939C1.38717 3.58939 1.57654 3.40002 1.57654 3.16641L1.57654 0.422974C1.57654 0.189376 1.38717 0 1.15356 0L1.15356 0L1.15356 0L1.15356 0Z" transform="translate(0.18072505 10.395422)" id="Shape#5" fill="#9DC6FB" fill-rule="evenodd" stroke="none" />
                          </g>
                          <g id="Group#4">
                            <path d="M12.4969 19.1107L1.15356 19.1107C0.51645 19.1107 0 18.5943 0 17.9571L0 1.15356C0 0.51645 0.51645 0 1.15356 0L12.4969 0C13.1341 0 13.6505 0.51645 13.6505 1.15356L13.6505 17.9571C13.6505 18.5943 13.1341 19.1107 12.4969 19.1107L12.4969 19.1107L12.4969 19.1107L12.4969 19.1107Z" id="Shape#6" fill="#F7F6F7" fill-rule="evenodd" stroke="none" />
                            <path d="M1.15356 0L0 0C0.637114 0 1.15356 0.516489 1.15356 1.15356L1.15356 17.9571C1.15356 18.5942 0.637114 19.1107 0 19.1107L1.15356 19.1107C1.79068 19.1107 2.30713 18.5942 2.30713 17.9571L2.30713 1.15356C2.30713 0.516489 1.79068 0 1.15356 0L1.15356 0L1.15356 0L1.15356 0Z" transform="translate(11.343381 0)" id="Shape#7" fill="#E2DFE3" fill-rule="evenodd" stroke="none" />
                            <path d="M1.15356 0C0.51645 0 0 0.516489 0 1.15356L0 17.9571C0 18.5942 0.51645 19.1107 1.15356 19.1107L3.5962 19.1107L3.5962 0L1.15356 0L1.15356 0L1.15356 0Z" id="Shape#8" fill="#B3E59F" fill-rule="evenodd" stroke="none" />
                          </g>
                          <path d="M4.26818 1.67267L2.94159 1.67267C2.87788 1.67267 2.82623 1.62103 2.82623 1.55731L2.82623 0.230713C2.82623 0.103282 2.72295 0 2.59552 0L1.90339 0C1.77595 0 1.67267 0.103282 1.67267 0.230713L1.67267 1.55731C1.67267 1.62103 1.62103 1.67267 1.55731 1.67267L0.230713 1.67267C0.103282 1.67267 0 1.77595 0 1.90339L0 2.59552C0 2.72295 0.103282 2.82623 0.230713 2.82623L1.55731 2.82623C1.62103 2.82623 1.67267 2.87788 1.67267 2.94159L1.67267 4.26818C1.67267 4.39561 1.77595 4.4989 1.90339 4.4989L2.59552 4.4989C2.72295 4.4989 2.82623 4.39561 2.82623 4.26818L2.82623 2.94159C2.82623 2.87788 2.87788 2.82623 2.94159 2.82623L4.26818 2.82623C4.39561 2.82623 4.4989 2.72295 4.4989 2.59552L4.4989 1.90339C4.4989 1.77595 4.39558 1.67267 4.26818 1.67267L4.26818 1.67267L4.26818 1.67267L4.26818 1.67267Z" transform="translate(6.3739033 3.4539266)" id="Shape#9" fill="#DD636E" fill-rule="evenodd" stroke="none" />
                          <path d="M6.36295 4.61426L0.230713 4.61426C0.103282 4.61426 0 4.51097 0 4.38354L0 0.230713C0 0.103282 0.103282 0 0.230713 0L6.36295 0C6.49038 0 6.59365 0.103282 6.59365 0.230713L6.59365 4.38354C6.59365 4.51097 6.49038 4.61426 6.36295 4.61426L6.36295 4.61426L6.36295 4.61426L6.36295 4.61426Z" transform="translate(5.3265066 11.236524)" id="Shape#10" fill="#B3E59F" fill-rule="evenodd" stroke="none" />
                        </g>
                        <path d="M11.0551 12.3901L6.76854 12.3901C6.60924 12.3901 6.48015 12.6838 6.48015 13.0463C6.48015 13.4088 6.60924 13.7026 6.76854 13.7026L11.0551 13.7026C11.2143 13.7026 11.3434 13.4088 11.3434 13.0463C11.3434 12.6838 11.2143 12.3901 11.0551 12.3901L11.0551 12.3901L11.0551 12.3901L11.0551 12.3901ZM11.0551 14.6972L6.76854 14.6972C6.60924 14.6972 6.48015 14.9909 6.48015 15.3535C6.48015 15.7161 6.60924 16.0097 6.76854 16.0097L11.0551 16.0097C11.2143 16.0097 11.3434 15.7161 11.3434 15.3535C11.3434 14.9909 11.2143 14.6972 11.0551 14.6972L11.0551 14.6972L11.0551 14.6972L11.0551 14.6972ZM6.89287 6.85699L8.04644 6.85699L8.04644 8.01054C8.04644 8.29678 8.2793 8.52961 8.56556 8.52961L9.25764 8.52961C9.54391 8.52961 9.77676 8.29678 9.77676 8.01054L9.77676 6.85699L10.9303 6.85699C11.2166 6.85699 11.4495 6.62411 11.4495 6.33788L11.4495 5.64573C11.4495 5.3595 11.2166 5.12664 10.9303 5.12664L9.77676 5.12664L9.77676 3.97307C9.77676 3.68683 9.54391 3.45396 9.25764 3.45396L8.56556 3.45396C8.2793 3.45396 8.04644 3.68683 8.04644 3.97307L8.04644 5.12664L6.89287 5.12664C6.60662 5.12664 6.37376 5.3595 6.37376 5.64573L6.37376 6.33788C6.37376 6.62411 6.60658 6.85699 6.89287 6.85699L6.89287 6.85699L6.89287 6.85699L6.89287 6.85699ZM6.95054 5.70341L8.21947 5.70341C8.44208 5.70341 8.62319 5.5223 8.62319 5.29966L8.62319 4.03074L9.20002 4.03074L9.20002 5.29966C9.20002 5.5223 9.38112 5.70341 9.60372 5.70341L10.8727 5.70341L10.8727 6.28019L9.60372 6.28019C9.38112 6.28019 9.20002 6.4613 9.20002 6.68395L9.20002 7.95287L8.62319 7.95287L8.62319 6.68395C8.62319 6.4613 8.44208 6.28019 8.21947 6.28019L6.95054 6.28019L6.95054 5.70341L6.95054 5.70341L6.95054 5.70341ZM15.2731 6.72912C15.6655 6.72912 15.9845 6.41001 15.9845 6.01776L15.9845 3.27432C15.9845 2.88207 15.6655 2.56294 15.2731 2.56294L14.2272 2.56294L14.2272 1.44195C14.2272 0.646842 13.5804 0 12.7853 0L1.44195 0C0.646842 0 0 0.646842 0 1.44195L0 4.27892C0 4.43818 0.129084 4.56731 0.288391 4.56731C0.447698 4.56731 0.576783 4.43818 0.576783 4.27892L0.576783 1.44195C0.576783 0.964883 0.964916 0.576783 1.44195 0.576783L3.59616 0.576783L3.59616 19.1107L1.44195 19.1107C0.964916 19.1107 0.576783 18.7226 0.576783 18.2456L0.576783 5.62475C0.576783 5.46548 0.447698 5.33635 0.288391 5.33635C0.129084 5.33635 0 5.46548 0 5.62475L0 18.2456C0 19.0407 0.646842 19.6875 1.44195 19.6875L12.7853 19.6875C13.5804 19.6875 14.2272 19.0407 14.2272 18.2456L14.2272 17.1246L15.2731 17.1246C15.6655 17.1246 15.9845 16.8054 15.9845 16.4132L15.9845 13.6697C15.9845 13.2775 15.6655 12.9583 15.2731 12.9583L14.2272 12.9583L14.2272 11.9268L15.2731 11.9268C15.6655 11.9268 15.9845 11.6077 15.9845 11.2155L15.9845 8.47207C15.9845 8.0798 15.6655 7.76068 15.2731 7.76068L14.2272 7.76068L14.2272 6.72912L15.2731 6.72912L15.2731 6.72912L15.2731 6.72912ZM14.2272 3.13969L15.3901 3.13969C15.4726 3.13969 15.5397 3.20007 15.5397 3.27428L15.5397 6.01772C15.5397 6.09194 15.4726 6.1523 15.3901 6.1523L14.2272 6.1523L14.2272 3.13969L14.2272 3.13969L14.2272 3.13969ZM13.6505 18.2456C13.6505 18.7225 13.2624 19.1107 12.7854 19.1107L4.17301 19.1107L4.17301 0.576783L12.7854 0.576783C13.2624 0.576783 13.6505 0.964883 13.6505 1.44195L13.6505 18.2456L13.6505 18.2456L13.6505 18.2456ZM15.3901 13.5352C15.4726 13.5352 15.5397 13.5956 15.5397 13.6697L15.5397 16.4132C15.5397 16.4874 15.4726 16.5477 15.3901 16.5477L14.2272 16.5477L14.2272 13.5352L15.3901 13.5352L15.3901 13.5352L15.3901 13.5352ZM15.3901 8.33747C15.4726 8.33747 15.5397 8.39783 15.5397 8.47207L15.5397 11.2155C15.5397 11.2897 15.4726 11.3501 15.3901 11.3501L14.2272 11.3501L14.2272 8.33747L15.3901 8.33747L15.3901 8.33747L15.3901 8.33747ZM11.9779 11.2365L11.072 11.2365C10.9127 11.2365 10.7837 11.3656 10.7837 11.5249C10.7837 11.6842 10.9127 11.8133 11.072 11.8133L11.9203 11.8133L11.9203 15.8508L5.90336 15.8508L5.90336 11.8133L9.72619 11.8133C9.88554 11.8133 10.0146 11.6842 10.0146 11.5249C10.0146 11.3656 9.88554 11.2365 9.72619 11.2365L5.84569 11.2365C5.55945 11.2365 5.32658 11.4694 5.32658 11.7556L5.32658 15.9084C5.32658 16.1947 5.55945 16.4275 5.84569 16.4275L11.9779 16.4275C12.2642 16.4275 12.497 16.1947 12.497 15.9084L12.497 11.7556C12.497 11.4694 12.2642 11.2365 11.9779 11.2365L11.9779 11.2365L11.9779 11.2365L11.9779 11.2365ZM11.0551 13.5437L6.76854 13.5437C6.60924 13.5437 6.48015 13.8373 6.48015 14.1999C6.48015 14.5626 6.60924 14.8562 6.76854 14.8562L11.0551 14.8562C11.2143 14.8562 11.3434 14.5626 11.3434 14.1999C11.3434 13.8373 11.2143 13.5437 11.0551 13.5437L11.0551 13.5437L11.0551 13.5437L11.0551 13.5437Z" id="Shape#11" fill="#006C76" fill-rule="evenodd" stroke="none" />
                      </g>
                    </g>
                  </g>
                </g>
              </g>
            </g>
          </g>
        </g>
      </g>
    </g>
  </g>
</svg>