<?xml version="1.0" encoding="utf-8"?>
<svg width="100px" height="100px" viewbox="0 0 100 100" version="1.1" xmlns:xlink="http://www.w3.org/1999/xlink" xmlns="http://www.w3.org/2000/svg">
  <defs>
    <path d="M0 0L100 0L100 100L0 100L0 0Z" id="path_1" />
    <clipPath id="mask_1">
      <use xlink:href="#path_1" />
    </clipPath>
  </defs>
  <g id="working">
    <path d="M0 0L100 0L100 100L0 100L0 0Z" id="Background" fill="none" fill-rule="evenodd" stroke="none" />
    <g clip-path="url(#mask_1)">
      <g id="Group" transform="translate(0.082214355 -0.00024414062)">
        <g id="Group" transform="translate(1.4648438 1.4650879)">
          <path d="M39.4477 0L2.94375 0C1.31797 0 0 1.31797 0 2.94375L0 6.20586C0 7.83164 1.31797 9.14961 2.94375 9.14961L39.4477 9.14961C41.0734 9.14961 42.3914 7.83164 42.3914 6.20586L42.3914 2.94375C42.3914 1.31797 41.0734 0 39.4477 0L39.4477 0Z" transform="translate(27.257202 21.730835)" id="Shape" fill="#F6E2BF" fill-rule="evenodd" stroke="none" />
          <g id="Group" transform="translate(5.609314 0)">
            <path d="M73.6766 26.1535L68.6338 9.5209C67.2448 4.93946 63.3758 1.54316 58.653 0.759572L54.0745 0L19.8987 0L15.3204 0.759572C10.5975 1.54316 6.72857 4.93926 5.3395 9.5209L0.296729 26.1535C-0.454833 28.6322 0.246729 31.3229 2.11274 33.1189L8.4481 39.2172L65.5252 39.2172L71.8608 33.1189C73.7266 31.3229 74.4282 28.6322 73.6766 26.1535L73.6766 26.1535Z" transform="translate(0 53.204834)" id="Shape" fill="#C9E0FD" fill-rule="evenodd" stroke="none" />
            <path d="M31.9506 26.1535L26.9078 9.5209C25.5187 4.93946 21.6498 1.54316 16.927 0.759572L12.3484 0L0 0L4.57851 0.759572C9.30136 1.54316 13.1703 4.93926 14.5594 9.5209L19.6021 26.1535C20.3537 28.6322 19.6521 31.3229 17.7861 33.1189L11.4506 39.2172L23.799 39.2172L30.1346 33.1189C32.0006 31.3229 32.7021 28.6322 31.9506 26.1535L31.9506 26.1535Z" transform="translate(53.440063 53.204834)" id="Shape" fill="#BCD6F9" fill-rule="evenodd" stroke="none" />
            <g id="Group" transform="translate(19.898865 39.786377)">
              <path d="M45.8895 13.4186L35.9467 11.7689C33.9742 11.4416 32.4707 9.825 32.2873 7.83398L31.5656 0L14.3238 0L13.6021 7.83398C13.4188 9.825 11.9152 11.4416 9.94277 11.7689L0 13.4187L45.8895 13.4187L45.8895 13.4186Z" id="Shape" fill="#FAEFDB" fill-rule="evenodd" stroke="none" />
            </g>
            <path d="M39.851 33.4926L39.851 4.65176C39.851 2.08262 37.7684 0 35.1992 0L4.65176 0C2.08262 0 0 2.08262 0 4.65176L0 33.4926L39.851 33.4926Z" transform="translate(17.09143 51.516357)" id="Shape" fill="#F7F4F7" fill-rule="evenodd" stroke="none" />
            <g id="Group" transform="translate(24.112732 0)">
              <g id="Group">
                <g id="Group">
                  <g id="Group">
                    <g id="Group">
                      <g id="Group">
                        <g id="Group">
                          <path d="M17.7941 41.0949C21.0844 38.2619 22.9055 34.0904 22.9984 29.7566L23.0008 1.43984C22.2967 1.13223 21.5662 0.869726 20.8133 0.655469L20.8133 0.655273C19.4307 0.258203 17.916 0.0183593 16.2646 0C7.7625 0.0949219 0 6.46934 0 15.7863L0.00449121 29.3506C0.0962883 33.6228 1.8914 37.735 5.13476 40.5275C7.04922 42.176 9.01328 43.5252 11.2164 44.3848C11.2197 44.3859 11.2229 44.3873 11.2262 44.3885C11.8789 44.6426 12.6113 44.5971 13.233 44.2742C15.009 43.3517 16.5248 42.1877 17.7941 41.0949L17.7941 41.0949Z" transform="translate(2.4661865 1.5299072)" id="Shape" fill="#FAEFDB" fill-rule="evenodd" stroke="none" />
                          <g id="Group" transform="translate(13.682434 2.7337646)">
                            <path d="M11.2176 1.11759e-06L11.2145 28.1465C11.1227 32.4187 9.32735 36.5309 6.08398 39.3234C4.47012 40.7131 2.45137 42.2197 0 43.1807C1.57188 43.7994 3.24238 44.1602 5.04824 44.1803C9.89668 44.1262 13.5672 41.5717 16.1781 39.3234C19.4215 36.5307 21.2168 32.4187 21.3086 28.1465L21.3131 14.5822C21.3131 7.78008 17.1309 2.33418 11.2176 0L11.2176 1.11759e-06Z" id="Shape" fill="#F6E2BF" fill-rule="evenodd" stroke="none" />
                          </g>
                          <path d="M23.2783 13.8191L23.2783 13.8164C24.19 13.6023 24.8512 13.3725 25.466 13.1768L25.467 0.663672L24.8988 0L12.1332 0.000390597C10.7445 0.000390597 9.47031 0.769727 8.82344 1.99844L8.82344 2.03848C8.82344 3.39336 7.7375 4.27598 6.39883 4.06738C2.96191 3.53144 0 6.1748 0 9.50976L0 21.7732C0.156251 21.7477 0.315624 21.7309 0.479102 21.7309L2.5541 21.7309C4.11797 21.7309 5.46738 20.5387 5.55879 18.9775C5.56953 18.7963 5.5625 18.8879 5.56445 15.8479C5.56445 14.1049 6.97754 12.6918 8.72051 12.6918L9.4002 12.6918C12.4145 12.6918 13.8848 14.3262 18.8869 14.3262C20.3672 14.326 21.8408 14.1555 23.2783 13.8191L23.2783 13.8191Z" id="Shape" fill="#89808C" fill-rule="evenodd" stroke="none" />
                        </g>
                      </g>
                    </g>
                  </g>
                </g>
              </g>
            </g>
            <g id="Group" transform="translate(49.011597 0)">
              <g id="Group">
                <g id="Group">
                  <g id="Group">
                    <g id="Group">
                      <g id="Group">
                        <g id="Group">
                          <g id="Group">
                            <path d="M12.559 8.85664C12.5572 3.96484 8.59101 -0.00019446 3.69922 7.45058e-07L0.00136495 7.45058e-07L0 13.3594C1.13008 12.9975 1.94687 12.6918 3.47461 12.6918L3.84258 12.6918C5.58555 12.6918 6.99863 14.1049 6.99863 15.8479C7.00059 18.984 6.99434 18.8068 7.00411 18.9762C7.09473 20.5379 8.44454 21.7309 10.0088 21.7309L12.0838 21.7309C12.2469 21.7309 12.4068 21.7441 12.5627 21.7697L12.559 8.85664Z" id="Shape" fill="#756E78" fill-rule="evenodd" stroke="none" />
                          </g>
                        </g>
                      </g>
                    </g>
                  </g>
                </g>
              </g>
            </g>
          </g>
          <g id="Group" transform="translate(0 51.516357)">
            <g id="Group">
              <g id="Group" transform="translate(16.609009 0)">
                <g id="Group">
                  <g id="Group">
                    <g id="Group">
                      <g id="Group">
                        <g id="Group">
                          <path d="M12.3484 0L0 0C2.56914 0 4.65175 2.08262 4.65175 4.65176L4.65175 33.4926L17.0002 33.4926L17.0002 4.65176C17.0002 2.08262 14.9174 0 12.3484 0L12.3484 0Z" transform="translate(40.6203 0)" id="Shape" fill="#EDEAED" fill-rule="evenodd" stroke="none" />
                          <path d="M62.1652 0L1.57148 0C0.703515 0 0 0.703514 0 1.57148C0 4.7666 2.59004 7.35664 5.78516 7.35664L57.9516 7.35664C61.1467 7.35664 63.7367 4.7666 63.7367 1.57148C63.7367 0.70371 63.0332 0 62.1652 0L62.1652 0Z" transform="translate(0 33.169678)" id="Shape" fill="#C1BCC4" fill-rule="evenodd" stroke="none" />
                          <path d="M10.777 0L0 0L0 7.35683L6.56328 7.35683C9.7584 7.35683 12.3484 4.7666 12.3484 1.57168C12.3484 0.70371 11.6449 0 10.777 0L10.777 0Z" transform="translate(51.388245 33.169678)" id="Shape" fill="#B2AAB5" fill-rule="evenodd" stroke="none" />
                        </g>
                      </g>
                    </g>
                  </g>
                </g>
              </g>
              <path d="M0 5.23945C0 2.34578 2.34578 0 5.23945 0C8.13312 0 10.4789 2.34578 10.4789 5.23945C10.4789 8.13312 8.13312 10.4789 5.23945 10.4789C2.34578 10.4789 0 8.13312 0 5.23945Z" transform="translate(43.237915 11.506836)" id="Circle" fill="#BCD6F9" fill-rule="evenodd" stroke="none" />
              <path d="M0 3.41055C0 5.29415 1.52695 6.8211 3.41055 6.8211L82.8215 6.8211C83.9422 6.82012 84.8504 5.91133 84.8504 4.79024L84.8504 0.79453L84.5576 0L3.41036 0C1.52696 0.000196695 3.63216e-06 1.52715 3.63216e-06 3.41055L0 3.41055Z" transform="translate(0 38.732788)" id="Shape" fill="#B58C8C" fill-rule="evenodd" stroke="none" />
              <path d="M10.969 0L2.03086 0L2.03086 4.79024C2.03086 5.91172 1.12168 6.8211 0 6.8211L10.9688 6.8211C12.8524 6.8211 14.3793 5.29415 14.3793 3.41055C14.3793 1.52695 12.8525 0 10.969 0L10.969 0Z" transform="translate(82.52655 38.733032)" id="Shape" fill="#A87F7F" fill-rule="evenodd" stroke="none" />
            </g>
          </g>
        </g>
        <g id="Group">
          <g id="Group">
            <path d="M6.7041 13.4084C10.4008 13.4084 13.4082 10.401 13.4082 6.70411C13.4082 3.00742 10.4008 0 6.7041 0C3.00742 0 0 3.00742 0 6.70411C0 10.401 3.00742 13.4084 6.7041 13.4084L6.7041 13.4084ZM6.7041 2.92969C8.78535 2.92969 10.4785 4.62285 10.4785 6.7041C10.4785 8.78536 8.78535 10.4787 6.7041 10.4787C4.62285 10.4787 2.92969 8.78535 2.92969 6.7041C2.92969 4.62286 4.62285 2.92969 6.7041 2.92969L6.7041 2.92969Z" transform="translate(43.2381 63.02368)" id="Shape" fill="#000000" fill-rule="evenodd" stroke="none" />
            <path d="M94.9604 90.2496L90.2291 90.2496L91.6891 88.8443C93.9633 86.6555 94.807 83.4193 93.8912 80.3986L88.8483 63.766C87.2861 58.6137 83.0166 54.8658 77.7053 53.9848L75.6791 53.6484C74.5565 52.3441 72.8943 51.5168 71.0424 51.5168L62.9119 51.5168C61.7217 51.2027 60.8574 50.1883 60.7436 48.951L60.4695 45.9766C64.1039 43.2529 67.0287 39.1426 67.5781 33.8103L68.1942 33.8103C70.625 33.8103 72.6025 31.8326 72.6025 29.4018L72.6025 26.1396C72.6025 24.4053 71.5959 22.9018 70.1361 22.1824C70.1356 21.4793 70.1352 20.2994 70.1352 18.3203C70.1352 17.5111 69.4795 16.8555 68.6703 16.8555C67.8611 16.8555 67.2055 17.5111 67.2055 18.3203C67.2055 19.923 67.2057 21.0031 67.2061 21.7312L66.1193 21.7312C65.3076 21.7312 64.5736 21.1295 64.5736 20.2486L64.5736 17.3131C64.5736 14.765 62.5008 12.6922 59.9527 12.6922C59.7188 12.7088 58.1799 12.5818 56.215 13.2484C55.9535 13.3164 53.5291 14.3268 50.0981 14.3268C46.6787 14.3268 44.2338 13.3141 43.9809 13.2484C41.9154 12.5477 40.3283 12.7174 39.9318 12.6922C37.3838 12.6922 35.3109 14.765 35.3109 17.3131L35.3109 20.2486C35.3109 21.1139 34.565 21.7313 33.7647 21.7313L32.6764 21.7313L32.6764 10.9746C32.6764 8.56309 34.8086 6.57832 37.3844 6.97949C39.4397 7.3002 41.2676 5.97578 41.4795 3.90195C41.9018 3.29629 42.5936 2.93027 43.3447 2.93008L59.8096 2.92969C63.8947 2.92969 67.2045 6.23438 67.2045 10.3215C67.2045 10.8305 67.2049 11.0852 67.2053 11.2125C67.2086 12.4684 68.1652 12.8002 68.6707 12.8002C69.4799 12.8002 70.1356 12.1445 70.1356 11.3354C70.1356 11.3258 70.1356 11.3164 70.1354 11.3068C70.135 11.2672 70.1342 11.0924 70.1342 10.3215C70.1342 4.6168 65.5152 -0.00039041 59.8096 0L43.3445 0.000390625C41.4064 0.000585938 39.6416 1.06602 38.7387 2.78086C38.5443 3.15039 38.5727 3.48145 38.5703 3.50313C38.5703 3.64844 38.5398 3.84785 38.3949 3.97207C38.2678 4.08086 38.0703 4.12109 37.8361 4.08457C33.542 3.41445 29.7469 6.71152 29.7469 10.9742L29.7469 22.1826C28.2881 22.9021 27.2822 24.4053 27.2822 26.1389L27.2822 29.401C27.2822 31.8318 29.2598 33.8096 31.6906 33.8096L32.308 33.8096C32.6359 36.942 33.8156 39.8912 35.76 42.4113C36.7889 43.7447 38.0195 44.9477 39.4137 45.9912L39.141 48.9502C39.0272 50.1875 38.1631 51.202 36.9729 51.516L28.842 51.516C26.99 51.516 25.3279 52.3434 24.2053 53.6479L22.1793 53.984C16.8684 54.865 12.5984 58.6129 11.0361 63.7652L5.99297 80.3986C5.07734 83.4193 5.92109 86.6555 8.19512 88.8443L9.65508 90.2496L4.87539 90.2496C2.18711 90.2496 0 92.4365 0 95.1248C0 97.8131 2.18711 100 4.87539 100L94.9604 100C97.6486 100 99.8355 97.8131 99.8355 95.1248C99.8355 92.4365 97.6486 90.2496 94.9604 90.2496L94.9604 90.2496ZM67.6697 24.6608L68.1942 24.6608C69.0057 24.6608 69.6729 25.3203 69.6729 26.1395L69.6729 29.4016C69.6729 30.2172 69.0096 30.8805 68.1944 30.8805L67.6676 30.8805L67.6697 24.6608ZM31.6903 30.8805C30.8748 30.8805 30.2115 30.2172 30.2115 29.4016L30.2115 26.1395C30.2115 25.3213 30.8778 24.6608 31.6903 24.6608L32.2147 24.6608L32.2166 30.8807L31.6903 30.8807L31.6903 30.8805ZM77.2258 56.8746C81.4291 57.5721 84.8082 60.5383 86.0443 64.6158L91.0873 81.2484C91.6822 83.2103 91.1342 85.3121 89.6572 86.7336L86.0045 90.2496L82.823 90.2496C83.1199 89.4502 83.2752 88.5969 83.2752 87.7226C83.2752 86.0484 81.9129 84.6863 80.2387 84.6863L77.1588 84.6863L77.1588 57.6332C77.1588 57.3697 77.142 57.1102 77.1096 56.8555L77.2258 56.8746ZM80.2389 87.6162C80.2979 87.6162 80.3457 87.6641 80.3457 87.7228C80.3457 88.6396 80.0594 89.518 79.5303 90.2498L20.3539 90.2498C19.8248 89.518 19.5387 88.6396 19.5387 87.7228C19.5387 87.6641 19.5865 87.6162 19.6453 87.6162L80.2389 87.6162ZM35.1467 32.3287L35.1443 24.4474C36.9135 23.8849 38.2404 22.2589 38.2404 20.2482L38.2404 17.3127C38.2404 16.3802 38.9992 15.6214 39.9317 15.6214C40.361 15.6464 41.5051 15.5015 43.0395 16.0224C43.3182 16.0943 46.124 17.2558 50.0981 17.2558C54.0008 17.2558 56.9656 16.0707 57.1567 16.0224C58.6084 15.5296 59.7334 15.6363 59.9528 15.6214C60.8852 15.6214 61.644 16.3802 61.644 17.3127L61.644 20.2482C61.644 22.2619 62.9754 23.8837 64.7401 24.4466L64.7375 32.3289C64.6203 37.5408 61.8424 40.9947 59.5313 42.975C56.7412 45.3658 53.0686 46.8742 49.9422 46.914C43.7881 46.8375 35.3494 41.3398 35.1467 32.3287L35.1467 32.3287ZM58.5267 51.5168L41.3576 51.5168C41.7379 50.8248 41.982 50.0473 42.0582 49.2197L42.1939 47.7469C44.6478 49.041 47.1418 49.8127 49.926 49.8439L49.9588 49.8439C52.3338 49.8174 55.0793 49.0959 57.6891 47.7295L57.8264 49.2197C57.9023 50.0471 58.1465 50.8246 58.5268 51.5168L58.5267 51.5168ZM8.79689 81.2484L13.8397 64.6158C15.076 60.5383 18.4551 57.5721 22.6584 56.8746L22.7744 56.8553C22.742 57.11 22.7252 57.3695 22.7252 57.633L22.7252 66.6219C22.7252 67.4311 23.3809 68.0867 24.1901 68.0867C24.9992 68.0867 25.6549 67.4311 25.6549 66.6219L25.6549 57.633C25.6549 55.8758 27.0844 54.4463 28.8416 54.4463L71.0422 54.4463C72.7994 54.4463 74.2291 55.8758 74.2291 57.633L74.2291 84.6863L25.6549 84.6863L25.6549 73.5512C25.6549 72.742 24.9992 72.0863 24.1901 72.0863C23.3809 72.0863 22.7252 72.742 22.7252 73.5512L22.7252 84.6863L19.6451 84.6863C17.9709 84.6863 16.6088 86.0484 16.6088 87.7227C16.6088 88.5969 16.7639 89.4502 17.0608 90.2496L13.8797 90.2496L10.227 86.7336C8.75002 85.3121 8.20197 83.2103 8.79689 81.2484L8.79689 81.2484ZM94.9604 97.0705L4.87539 97.0705C3.80254 97.0705 2.92969 96.1977 2.92969 95.1248C2.92969 94.0522 3.80254 93.1793 4.87539 93.1793L94.9604 93.1793C96.033 93.1793 96.9059 94.0522 96.9059 95.1248C96.9059 96.1977 96.033 97.0705 94.9604 97.0705L94.9604 97.0705Z" id="Shape" fill="#000000" fill-rule="evenodd" stroke="none" />
          </g>
        </g>
      </g>
    </g>
  </g>
</svg>