<?xml version="1.0" encoding="utf-8"?>
<svg width="32px" height="32px" viewBox="0 0 32 32" version="1.1" xmlns:xlink="http://www.w3.org/1999/xlink" xmlns="http://www.w3.org/2000/svg">
  <desc>Created with Lunacy</desc>
  <g id="doctor">
    <path d="M12.097 0C9.62769 0 8.16175 0.164405 7.27885 0.341967C6.8374 0.430747 6.54159 0.523035 6.33775 0.604697C6.1339 0.686358 5.95407 0.810432 5.95407 0.810432C5.83499 0.904861 5.74925 1.03492 5.70941 1.18159C5.70941 1.18159 4.97266 3.91888 4.97266 8.58532C4.97278 8.63628 4.97837 8.68707 4.98934 8.73684C4.97958 8.89037 4.97266 9.04528 4.97266 9.20253C4.97266 13.1295 8.17136 16.3282 12.0984 16.3282C16.0254 16.3282 19.2241 13.1295 19.2241 9.20253C19.2241 9.05095 19.2125 8.90258 19.2032 8.75352C19.2168 8.69848 19.2238 8.64202 19.2241 8.58532C19.2241 3.91888 18.4859 1.18159 18.4859 1.18159C18.4464 1.03511 18.3612 0.905068 18.2426 0.810432C18.2426 0.810432 18.0628 0.686377 17.859 0.604697C17.6551 0.523014 17.3594 0.430747 16.9179 0.341967C16.0348 0.164405 14.5676 0 12.097 0L12.097 0ZM12.0969 1.42346C14.5038 1.42346 15.8883 1.58708 16.637 1.73763C16.928 1.79614 17.0542 1.84332 17.175 1.88498C17.2705 2.26527 17.6797 4.30613 17.7533 7.87357L6.44336 7.87357C6.51695 4.30614 6.92475 2.26527 7.02025 1.88498C7.14105 1.84331 7.26854 1.79617 7.55962 1.73763C8.30819 1.58708 9.69153 1.42346 12.0969 1.42346L12.0969 1.42346ZM11.385 2.84695L11.385 3.55869L11.385 4.27182L10.6761 4.27182L9.96436 4.27182L9.96436 5.69529L10.6761 5.69529L11.3864 5.69529L11.3864 6.46541L11.3878 7.17715L12.8113 7.17576L12.8099 6.46402L12.8099 5.6939L13.523 5.6939L14.2348 5.6939L14.2348 4.27043L13.523 4.27043L12.8085 4.27043L12.8085 3.55869L12.8085 2.84695L11.385 2.84695ZM23.7431 3.55869C23.6022 3.55869 23.4873 3.67354 23.4873 3.81447L23.4873 10.4203C23.4873 10.5612 23.6022 10.676 23.7431 10.676L24.655 10.676C24.7959 10.676 24.9108 10.5612 24.9108 10.4203L24.9108 3.81308C24.9108 3.67215 24.7973 3.55869 24.6564 3.55869L23.7431 3.55869ZM6.3999 9.29706L17.796 9.29706C17.7453 12.4103 15.2236 14.9048 12.098 14.9048C8.97228 14.9048 6.45067 12.4103 6.3999 9.29706L6.3999 9.29706ZM23.7251 12.0717C23.5842 12.0717 23.4888 12.159 23.4888 12.29L23.4888 13.2742C23.4888 13.4058 23.5827 13.4924 23.7251 13.4924L24.6759 13.4924C24.8176 13.4924 24.9109 13.4051 24.9109 13.2742L24.9109 12.29C24.9109 12.159 24.8183 12.0717 24.6759 12.0717L23.7251 12.0717ZM28.1248 14.756C27.0874 14.8546 26.1521 15.558 25.8186 16.6076L24.5883 20.4763L20.6112 17.9978C19.6457 17.3965 18.5312 17.0773 17.3931 17.0789C16.7151 17.0796 16.0376 17.081 15.8682 17.0817L8.58678 17.0817C3.85278 17.0817 7.14281e-05 20.9344 7.14281e-05 25.6684L7.14281e-05 30.6047C-0.00355759 30.8613 0.131298 31.1001 0.353002 31.2295C0.574705 31.3589 0.848908 31.3589 1.07061 31.2295C1.29232 31.1001 1.42717 30.8613 1.42354 30.6047L1.42354 25.6684C1.42354 21.7035 4.62194 18.5051 8.58678 18.5051L16.37 18.5051C16.3779 18.5048 16.3858 18.5043 16.3936 18.5038C16.6934 18.5031 16.9485 18.5028 17.3945 18.5024C18.2649 18.5012 19.1194 18.7451 19.8592 19.2058L24.6147 22.1695C24.8013 22.2852 25.0308 22.3084 25.2367 22.2324C25.4427 22.1563 25.602 21.9895 25.6684 21.7802L27.1753 17.0386C27.3869 16.3727 28.0806 16.0136 28.7475 16.2254C29.4134 16.4369 29.7725 17.1293 29.5608 17.7962L27.11 25.5085C26.8984 26.1744 26.2047 26.5335 25.5378 26.3217C25.5373 26.3213 25.5369 26.3208 25.5364 26.3203C25.6085 26.343 24.863 26.0428 24.8803 26.0534C24.8798 26.0534 24.8793 26.0534 24.8789 26.0534L21.1325 23.7514C20.9703 23.6442 20.7712 23.6081 20.5816 23.6514C20.3921 23.6948 20.2285 23.8138 20.1289 23.9808C19.9981 24.1159 19.9261 24.2974 19.9287 24.4854L19.9287 30.6047C19.9251 30.8613 20.0599 31.1001 20.2816 31.2295C20.5033 31.3589 20.7775 31.3589 20.9992 31.2295C21.2209 31.1001 21.3558 30.8613 21.3522 30.6047L21.3522 25.5558L24.1338 27.2656C24.5392 27.5151 24.8909 27.6103 25.1082 27.6785C26.5082 28.123 28.0221 27.339 28.4667 25.9395L30.9175 18.2271C31.362 16.8272 30.578 15.3133 29.1785 14.8686C28.8285 14.7575 28.4706 14.7232 28.1248 14.756L28.1248 14.756ZM5.68311 27.0363C5.29057 27.0424 4.97712 27.3652 4.98249 27.7577L4.98249 30.6047C4.97886 30.8614 5.11372 31.1001 5.33542 31.2295C5.55713 31.3589 5.83133 31.3589 6.05303 31.2295C6.27474 31.1001 6.4096 30.8614 6.40596 30.6047L6.40596 27.7577C6.4086 27.5654 6.33324 27.3801 6.19706 27.2442C6.06088 27.1083 5.87548 27.0333 5.68311 27.0363L5.68311 27.0363Z" id="Shape" fill="#000000" fill-rule="evenodd" stroke="none" />
  </g>
</svg>