<?xml version="1.0" encoding="utf-8"?>
<svg width="50px" height="50px" viewbox="0 0 50 50" version="1.1" xmlns:xlink="http://www.w3.org/1999/xlink" xmlns="http://www.w3.org/2000/svg">
  <defs>
    <path d="M0 0L40 0L40 40L0 40L0 0Z" id="path_1" />
    <rect width="50" height="50" id="artboard_1" />
    <clipPath id="clip_1">
      <use xlink:href="#artboard_1" clip-rule="evenodd" />
    </clipPath>
    <clipPath id="mask_1">
      <use xlink:href="#path_1" />
    </clipPath>
  </defs>
  <g id="Pixelbook" clip-path="url(#clip_1)">
    <g id="doctor-(1)" transform="translate(5 5)">
      <path d="M0 0L40 0L40 40L0 40L0 0Z" id="Background" fill="none" fill-rule="evenodd" stroke="none" />
      <g clip-path="url(#mask_1)">
        <g id="Group" transform="translate(2.2618713 0)">
          <g id="Group">
            <path d="M35.4511 37.9518L33.6816 27.5922C33.4909 26.476 32.6991 25.5794 31.6149 25.2523L26.8421 23.8123C26.7433 22.6455 26.2649 21.5448 25.4688 20.6736C24.832 19.9767 24.0311 19.4693 23.1482 19.1893C23.2993 19.0216 23.4394 18.8545 23.5679 18.6911C24.7029 17.2476 25.3105 15.6573 25.4652 14.572L25.8334 14.572C26.7911 14.572 27.5702 13.793 27.5702 12.8352L27.5702 11.9449C27.5702 11.3058 27.2107 10.7266 26.67 10.4261L26.67 8.28516C26.67 7.96164 26.4077 7.69938 26.0842 7.69938C25.7607 7.69938 25.4985 7.96156 25.4985 8.28516L25.4985 10.6886C25.2704 10.7282 24.9982 10.7966 24.7198 10.9139C24.6912 10.9243 24.6635 10.9363 24.6373 10.9508C24.5744 10.9795 24.5114 11.0097 24.4487 11.0437L24.4487 6.32328C24.4487 5.01914 23.3877 3.9582 22.0836 3.9582L20.4668 3.9582C19.9091 3.9582 19.3644 4.1525 18.9327 4.50547L18.774 4.63516C18.4826 4.87344 18.1148 5.00469 17.7383 5.00469C17.3618 5.00469 16.9939 4.87344 16.7025 4.63516L16.5439 4.50547C16.1122 4.15258 15.5674 3.9582 15.0098 3.9582L13.3928 3.9582C12.0887 3.9582 11.0277 5.01914 11.0277 6.32328L11.0277 11.0437C10.965 11.0097 10.902 10.9795 10.8391 10.9508C10.8129 10.9363 10.7852 10.9243 10.7567 10.9139C10.4783 10.7966 10.206 10.7282 9.97797 10.6886L9.97797 4.61133C9.97797 2.71461 11.5211 1.17148 13.4178 1.17148L22.0585 1.17148C23.9553 1.17148 25.4984 2.71461 25.4984 4.61133L25.4984 5.53211C25.4984 5.85563 25.7606 6.11789 26.0841 6.11789C26.4075 6.11789 26.6698 5.8557 26.6698 5.53211L26.6698 4.61133C26.6698 2.06867 24.6012 0 22.0585 0L13.4178 0C10.8751 0 8.80648 2.06867 8.80648 4.61133L8.80648 10.4262C8.26578 10.7267 7.90625 11.3058 7.90625 11.945L7.90625 12.8353C7.90625 13.793 8.68539 14.5721 9.64304 14.5721L10.0112 14.5721C10.1659 15.6573 10.7736 17.2477 11.9086 18.6912C12.0369 18.8545 12.1769 19.0214 12.3279 19.1889C10.2982 19.8336 8.81804 21.6584 8.63437 23.8123L3.8614 25.2523C2.77726 25.5794 1.98539 26.476 1.79476 27.5922L1.07617 31.7991C1.02172 32.118 1.23609 32.4206 1.55492 32.4751C1.87367 32.5297 2.1764 32.3152 2.23093 31.9963L2.94953 27.7894C3.06484 27.1141 3.5439 26.5717 4.19976 26.3739L8.61421 25.042L8.61421 26.2006C7.60234 26.3869 6.74132 27.082 6.38671 28.045C6.29257 28.3006 6.23406 28.5683 6.21281 28.8405L5.78617 34.3166C5.75398 34.7291 5.89671 35.1399 6.17757 35.4434C6.45843 35.747 6.85679 35.9213 7.27046 35.9213L8.00078 35.9213C8.32429 35.9213 8.58656 35.6591 8.58656 35.3355C8.58656 35.0119 8.32429 34.7498 8.00078 34.7498L7.27046 34.7498C7.18226 34.7498 7.09742 34.7127 7.0375 34.6479C6.97765 34.5832 6.94726 34.4957 6.95414 34.4078L7.38078 28.9316C7.39367 28.7666 7.42906 28.6045 7.48609 28.4498C7.73281 27.7798 8.39906 27.3262 9.14414 27.3209L9.24062 27.3202C9.24515 27.3202 9.24961 27.3202 9.25406 27.3202C9.9782 27.3202 10.6192 27.7308 10.8896 28.3691C10.9655 28.5481 11.0116 28.7373 11.0267 28.9316L11.4535 34.4079C11.4603 34.4957 11.4299 34.5832 11.3701 34.648C11.3102 34.7127 11.2253 34.7498 11.1371 34.7498L10.4068 34.7498C10.0833 34.7498 9.82101 35.012 9.82101 35.3355C9.82101 35.659 10.0833 35.9213 10.4068 35.9213L11.1371 35.9213C11.5508 35.9213 11.9492 35.7471 12.23 35.4434C12.5109 35.1398 12.6537 34.7291 12.6215 34.3167L12.1947 28.8405C12.1697 28.52 12.0935 28.2076 11.9683 27.912C11.5824 27.0013 10.7573 26.3681 9.78562 26.1968L9.78562 24.6885L11.7992 24.0809C11.9824 24.4668 12.3455 25.3006 13.0646 27.098C13.7894 28.9116 14.6902 31.2362 15.5542 33.4961C15.5604 33.5151 15.5675 33.5336 15.5755 33.5517C16.152 35.0604 16.7113 36.538 17.1897 37.8127C17.2755 38.0413 17.494 38.1927 17.7381 38.1927C17.9823 38.1927 18.2008 38.0413 18.2866 37.8127C18.7648 36.538 19.3241 35.0604 19.9008 33.5517C19.9088 33.5336 19.9159 33.515 19.922 33.4961C20.7854 31.2376 21.6858 28.9145 22.4102 27.1014C23.1303 25.3016 23.4937 24.4671 23.6769 24.0809L25.6905 24.6885L25.6905 28.1483C24.2954 28.4193 23.2386 29.6498 23.2386 31.123C23.2386 32.7942 24.5982 34.1539 26.2694 34.1539C27.9407 34.1539 29.3003 32.7943 29.3003 31.123C29.3003 29.6546 28.2505 28.4271 26.862 28.1508L26.862 25.042L31.2766 26.374C31.9324 26.5718 32.4114 27.1141 32.5268 27.7895L34.2963 38.1491C34.3257 38.3209 34.28 38.4888 34.1676 38.622C34.0552 38.7552 33.8973 38.8286 33.723 38.8286L1.7532 38.8286C1.5789 38.8286 1.42109 38.7552 1.30867 38.622C1.19632 38.4888 1.15054 38.3209 1.17992 38.1491L1.7639 34.7302C1.81836 34.4113 1.60398 34.1087 1.28515 34.0542C0.966403 33.9995 0.663669 34.2141 0.609137 34.533L0.025153 37.9519C-0.0619563 38.4622 0.0795279 38.9818 0.413278 39.3775C0.747184 39.7731 1.23554 40 1.7532 40L33.723 40C34.2407 40 34.7291 39.7731 35.063 39.3774C35.3967 38.9817 35.5382 38.4621 35.4511 37.9518L35.4511 37.9518ZM25.5054 11.882C25.8175 11.8041 26.068 11.8055 26.0709 11.8056C26.1718 11.807 26.2699 11.7834 26.3571 11.7377C26.3832 11.8026 26.3986 11.8723 26.3986 11.945L26.3986 12.8353C26.3986 13.147 26.145 13.4006 25.8333 13.4006L25.5054 13.4006L25.5054 11.882L25.5054 11.882ZM9.97086 13.4006L9.97086 13.4006L9.64296 13.4006C9.33124 13.4006 9.07765 13.147 9.07765 12.8353L9.07765 11.945C9.07765 11.8723 9.09312 11.8026 9.11914 11.7377C9.20625 11.7834 9.30437 11.807 9.40539 11.8056C9.40984 11.8064 9.65968 11.805 9.97086 11.8823L9.97086 13.4006L9.97086 13.4006ZM11.1423 14.0574L11.1423 12.5185C11.3198 12.5717 11.514 12.5645 11.6932 12.4897C12.0006 12.3614 12.1992 12.0635 12.1992 11.7306L12.1992 6.32328C12.1992 5.66516 12.7347 5.12969 13.3928 5.12969L15.0096 5.12969C15.2977 5.12969 15.5792 5.23008 15.8023 5.41242L15.9609 5.54211C16.4609 5.95102 17.0921 6.1761 17.7381 6.1761C18.3841 6.1761 19.0153 5.95094 19.5154 5.54211L19.674 5.41242C19.8969 5.23008 20.1785 5.12969 20.4666 5.12969L22.0834 5.12969C22.7416 5.12969 23.277 5.66516 23.277 6.32328L23.277 11.7307C23.277 12.0635 23.4756 12.3615 23.783 12.4898C23.8857 12.5326 23.9932 12.5534 24.0998 12.5534C24.1792 12.5534 24.258 12.5417 24.3339 12.5191L24.3339 14.0574C24.3339 14.9127 23.7427 16.5734 22.6469 17.967C22.2839 18.4287 21.8173 18.9246 21.2429 19.358C21.2247 19.3702 21.2073 19.3834 21.1906 19.3975C20.3007 20.0555 19.1564 20.5595 17.7381 20.5595C16.3198 20.5595 15.1755 20.0555 14.2855 19.3974C14.2689 19.3834 14.2516 19.3702 14.2334 19.3581C13.659 18.9246 13.1924 18.4287 12.8294 17.967C11.7337 16.5735 11.1423 14.9127 11.1423 14.0574L11.1423 14.0574ZM21.5756 23.5211L17.7381 26.3894L13.9006 23.5211C14.2812 23.0374 14.4944 22.4166 14.4944 21.8625L14.4944 20.9183C15.3968 21.4036 16.4736 21.7311 17.7381 21.7311C19.0027 21.7311 20.0795 21.4036 20.9819 20.9183L20.9819 21.8625C20.9819 22.4166 21.1951 23.0374 21.5756 23.5211L21.5756 23.5211ZM12.923 22.8673C12.6102 22.7481 12.2634 22.7286 11.9354 22.8176C11.921 22.8209 11.9069 22.8248 11.8933 22.8288L9.86961 23.4395C10.2119 21.7565 11.5784 20.417 13.3229 20.1575L13.3229 21.8625C13.3229 22.23 13.1588 22.6099 12.923 22.8673L12.923 22.8673ZM14.5128 27.5695C14.5117 27.5667 14.5106 27.564 14.5096 27.5613C14.4799 27.4862 14.4506 27.4122 14.4216 27.339C14.4163 27.3257 14.4111 27.3125 14.4059 27.2994C14.3774 27.2277 14.3492 27.1566 14.3214 27.0867C14.3195 27.0818 14.3175 27.077 14.3155 27.072C14.2287 26.8538 14.1451 26.6445 14.0646 26.4439C14.0587 26.4294 14.0529 26.4146 14.047 26.4002C14.0239 26.3427 14.0012 26.286 13.9786 26.2301C13.9703 26.2095 13.9621 26.1892 13.9539 26.1689C13.932 26.1147 13.9103 26.0608 13.8889 26.0081C13.8825 25.9923 13.8762 25.977 13.8699 25.9613C13.8311 25.8655 13.7931 25.7721 13.7561 25.6811C13.7461 25.6565 13.7359 25.6314 13.7259 25.6071C13.7114 25.5716 13.6973 25.5371 13.683 25.5023C13.6677 25.4648 13.6524 25.4277 13.6374 25.3911C13.6318 25.3774 13.6259 25.363 13.6203 25.3494C13.6158 25.3384 13.6116 25.3284 13.6072 25.3175C13.5395 25.1531 13.4752 24.9982 13.4142 24.8525C13.4137 24.8513 13.4132 24.8502 13.4127 24.849C13.3802 24.7714 13.3484 24.6956 13.3179 24.6234C13.302 24.586 13.2864 24.5492 13.2711 24.5131L16.5715 26.9798L15.1924 27.5657C15.19 27.5667 15.1875 27.5677 15.1851 27.5688L14.6093 27.8134C14.5766 27.7309 14.5447 27.6499 14.5128 27.5695L14.5128 27.5695ZM15.9105 31.156C15.7948 30.8558 15.6782 30.5538 15.5614 30.2522C15.3787 29.7804 15.2043 29.3318 15.0373 28.9045L15.2559 28.8116L16.1491 29.8498L15.9105 31.156L15.9105 31.156ZM17.7495 35.9168C17.7327 35.8819 17.7127 35.8491 17.6895 35.8184C17.4248 35.1188 17.0889 34.2336 16.7171 33.2596L17.264 30.2655L18.2123 30.2655L18.7591 33.2596C18.3695 34.28 18.0196 35.2027 17.7495 35.9168L17.7495 35.9168ZM18.432 29.0941L17.0443 29.0941L16.3877 28.3308L17.7381 27.7571L19.0886 28.3308L18.432 29.0941L18.432 29.0941ZM19.9148 30.2522C19.798 30.5538 19.6815 30.8558 19.5658 31.156L19.3272 29.8497L20.2203 28.8115L20.4389 28.9044C20.272 29.3317 20.0975 29.7804 19.9148 30.2522L19.9148 30.2522ZM22.1584 24.6234C22.1294 24.6919 22.0993 24.7637 22.0686 24.837C22.0646 24.8465 22.0605 24.8561 22.0566 24.8657C22.0262 24.9384 21.9952 25.0126 21.9632 25.0898C21.9611 25.0949 21.9589 25.1003 21.9568 25.1055C21.9291 25.1721 21.9008 25.2409 21.8719 25.3109C21.8666 25.3241 21.8615 25.3362 21.8561 25.3494C21.8497 25.3651 21.8428 25.3817 21.8363 25.3976C21.8235 25.4288 21.8105 25.4607 21.7973 25.4926C21.7812 25.5319 21.7652 25.571 21.7487 25.6113C21.7435 25.6241 21.7381 25.6374 21.7328 25.6503C21.692 25.7502 21.6502 25.8532 21.6073 25.959C21.6006 25.9755 21.594 25.9918 21.5873 26.0086C21.5661 26.0609 21.5445 26.1142 21.5229 26.1679C21.5145 26.1889 21.5059 26.2098 21.4974 26.2311C21.4751 26.2865 21.4525 26.3426 21.4297 26.3995C21.4233 26.4153 21.4168 26.4316 21.4104 26.4475C21.3309 26.6453 21.2485 26.8516 21.163 27.0666C21.1602 27.0738 21.1573 27.0807 21.1545 27.0879C21.1269 27.1573 21.0989 27.228 21.0706 27.2991C21.0654 27.3124 21.0601 27.3257 21.0548 27.3391C21.0255 27.4127 20.9961 27.487 20.9662 27.5626C20.9657 27.564 20.9652 27.5654 20.9646 27.5667C20.9324 27.6481 20.9001 27.73 20.8671 27.8136L20.2908 27.5688C20.2887 27.5679 20.2867 27.567 20.2848 27.5662L18.9049 26.98L22.2053 24.5133C22.1898 24.5492 22.1742 24.5859 22.1584 24.6234L22.1584 24.6234ZM23.583 22.8289C23.5829 22.8289 23.5827 22.8288 23.5827 22.8288C23.5822 22.8287 23.5816 22.8286 23.5812 22.8284C23.2413 22.7264 22.8788 22.7433 22.5533 22.8673C22.3174 22.6099 22.1534 22.23 22.1534 21.8625L22.1534 20.1566C23.9088 20.4154 25.2712 21.7423 25.6091 23.4402L23.583 22.8289L23.583 22.8289ZM28.1288 31.123C28.1288 32.1484 27.2947 32.9824 26.2694 32.9824C25.2442 32.9824 24.4101 32.1484 24.4101 31.123C24.4101 30.0977 25.2442 29.2637 26.2694 29.2637C27.2947 29.2637 28.1288 30.0977 28.1288 31.123L28.1288 31.123Z" id="Shape" fill="#006C76" fill-rule="evenodd" stroke="none" />
          </g>
        </g>
      </g>
    </g>
  </g>
</svg>