<?xml version="1.0" encoding="utf-8"?>
<svg width="25px" height="25px" viewbox="0 0 25 25" version="1.1" xmlns:xlink="http://www.w3.org/1999/xlink" xmlns="http://www.w3.org/2000/svg">
  <defs>
    <path d="M0 0L20 0L20 20.0391L0 20.0391L0 0Z" id="path_1" />
    <rect width="25" height="25" id="artboard_1" />
    <clipPath id="clip_1">
      <use xlink:href="#artboard_1" clip-rule="evenodd" />
    </clipPath>
    <clipPath id="mask_1">
      <use xlink:href="#path_1" />
    </clipPath>
  </defs>
  <g id="Pixelbook" clip-path="url(#clip_1)">
    <use xlink:href="#artboard_1" stroke="none" fill="#FFFFFF" />
    <g id="correct" transform="translate(2 2)">
      <path d="M0 0L20 0L20 20.0391L0 20.0391L0 0Z" id="Background" fill="none" fill-rule="evenodd" stroke="none" />
      <g clip-path="url(#mask_1)">
        <path d="M0 2.46178L2.46193 2.46178L0 0L0 2.46178Z" transform="translate(15.469055 0.3088379)" id="Shape" fill="#17A2B8" fill-rule="evenodd" stroke="none" />
        <path d="M11.1043 3.99768C10.7764 3.99768 10.5105 3.73181 10.5105 3.40371L10.5105 0L0.593811 0C0.26587 0 0 0.26587 0 0.593964L0 11.1797C0.618273 10.9214 1.29632 10.7785 2.00725 10.7785C2.35843 10.7785 2.7015 10.8135 3.03342 10.8799C2.99367 10.8002 2.97074 10.7108 2.97074 10.6157C2.97074 10.2877 3.23676 10.0219 3.5647 10.0219L10.7183 10.0219C11.0462 10.0219 11.3122 10.2877 11.3122 10.6157C11.3122 10.9438 11.0462 11.2096 10.7183 11.2096L4.08452 11.2096C5.9346 12.0146 7.23153 13.8599 7.23153 16.0028C7.23153 16.8346 7.03584 17.6214 6.68848 18.3202L13.9228 18.3202C14.2509 18.3202 14.5167 18.0542 14.5167 17.7263L14.5167 3.99768L11.1043 3.99768ZM8.57999 5.94331C8.57999 6.2714 8.31412 6.53727 7.98603 6.53727L3.5647 6.53727C3.23676 6.53727 2.97074 6.2714 2.97074 5.94331C2.97074 5.61537 3.23676 5.34935 3.5647 5.34935L7.98603 5.34935C8.31412 5.34935 8.57999 5.61522 8.57999 5.94331L8.57999 5.94331ZM10.7183 8.87353L3.5647 8.87353C3.23676 8.87353 2.97074 8.60751 2.97074 8.27957C2.97074 7.95147 3.23676 7.6856 3.5647 7.6856L10.7183 7.6856C11.0462 7.6856 11.3122 7.95147 11.3122 8.27957C11.3122 8.60751 11.0462 8.87353 10.7183 8.87353L10.7183 8.87353Z" transform="translate(3.7707977 -0.039138794)" id="Shape" fill="#17A2B8" fill-rule="evenodd" stroke="none" />
        <path d="M8.07287 4.03636C8.07287 1.81063 6.26208 0 4.03636 0C1.81079 0 0 1.81063 0 4.03636C0 6.26193 1.81063 8.07271 4.03636 8.07271C6.26208 8.07271 8.07287 6.26193 8.07287 4.03636L8.07287 4.03636ZM3.71438 5.64809C3.60445 5.73768 3.47175 5.7814 3.33965 5.7814C3.17331 5.7814 3.00789 5.71169 2.89063 5.57653L1.6657 4.16386C1.45074 3.91603 1.4775 3.541 1.72532 3.32605C1.97315 3.11124 2.34818 3.13784 2.56314 3.38567L3.4109 4.36338L5.42961 2.71985C5.68401 2.51284 6.05813 2.55106 6.26514 2.80547C6.4723 3.05987 6.43392 3.43398 6.17952 3.64114L3.71438 5.64809Z" transform="translate(1.741684 11.927292)" id="Shape" fill="#17A2B8" fill-rule="evenodd" stroke="none" />
      </g>
    </g>
  </g>
</svg>