<?xml version="1.0" encoding="utf-8"?>
<svg width="30px" height="30px" viewBox="0 0 30 30" version="1.1" xmlns:xlink="http://www.w3.org/1999/xlink" xmlns="http://www.w3.org/2000/svg">
  <desc>Created with Lunacy</desc>
  <defs>
    <path d="M0 0L30 0L30 30L0 30L0 0Z" id="path_1" />
    <clipPath id="mask_1">
      <use xlink:href="#path_1" />
    </clipPath>
  </defs>
  <g id="file">
    <path d="M0 0L30 0L30 30L0 30L0 0Z" id="Background" fill="none" fill-rule="evenodd" stroke="none" />
    <g clip-path="url(#mask_1)">
      <g id="Group" transform="translate(0 2.109375)">
        <g id="Group" transform="translate(0.5859375 4.1015625)">
          <path d="M28.8281 0C28.8281 1.9418 27.2543 3.51563 25.3125 3.51563L3.51562 3.51563C1.57383 3.51563 0 1.9418 0 0L28.8281 0Z" transform="translate(0 17.578125)" id="Shape" fill="#EEFAFF" fill-rule="evenodd" stroke="none" />
          <path d="M0 0L23.5547 0L23.5547 14.0625L0 14.0625L0 0Z" transform="translate(2.6367188 3.515625)" id="Shape" fill="#CAFBFF" fill-rule="evenodd" stroke="none" />
          <path d="M10.5469 7.03125L5.27344 14.0625L0 7.03125L2.63672 7.03125C2.63672 6.18059 2.63672 0.856289 2.63672 0L7.91016 0L7.91016 7.03125L10.5469 7.03125Z" transform="translate(9.140625 0)" id="Shape" fill="#CAFBFF" fill-rule="evenodd" stroke="none" />
        </g>
        <g id="Group">
          <path d="M12.8906 4.6875C13.2142 4.6875 13.4766 4.42518 13.4766 4.10156L13.4766 0.585938C13.4766 0.262324 13.2142 0 12.8906 0L0.585937 0C0.262383 0 0 0.262324 0 0.585938L0 4.10156C0 4.42518 0.262383 4.6875 0.585937 4.6875C0.909492 4.6875 1.17187 4.42518 1.17187 4.10156L1.17187 1.17188L12.3047 1.17188L12.3047 4.10156C12.3047 4.42518 12.5671 4.6875 12.8906 4.6875L12.8906 4.6875Z" transform="translate(8.261719 0)" id="Shape" fill="#000000" fill-rule="evenodd" stroke="none" />
          <path d="M29.4141 17.5781L27.3633 17.5781L27.3633 4.10156C27.3633 3.77795 27.1009 3.51563 26.7773 3.51563L18.2227 3.51563L18.2227 0.585938C18.2227 0.262324 17.9603 0 17.6367 0L12.3633 0C12.0397 0 11.7773 0.262324 11.7773 0.585938L11.7773 3.51563L3.22266 3.51563C2.8991 3.51563 2.63672 3.77795 2.63672 4.10156L2.63672 17.5781L0.585938 17.5781C0.262383 17.5781 0 17.8405 0 18.1641C0 20.4257 1.83996 22.2656 4.10156 22.2656L12.3633 22.2656C12.6868 22.2656 12.9492 22.0033 12.9492 21.6797C12.9492 21.3561 12.6868 21.0938 12.3633 21.0938L4.10156 21.0938C2.68676 21.0938 1.50293 20.0856 1.23076 18.7494L28.7692 18.7494C28.4971 20.0856 27.3132 21.0938 25.8984 21.0938L17.6367 21.0938C17.3132 21.0938 17.0508 21.3561 17.0508 21.6797C17.0508 22.0033 17.3132 22.2656 17.6367 22.2656L25.8984 22.2656C28.16 22.2656 30 20.4257 30 18.1641C30 17.8405 29.7376 17.5781 29.4141 17.5781L29.4141 17.5781ZM12.3633 8.20313C12.6868 8.20313 12.9492 7.9408 12.9492 7.61719L12.9492 1.17188L17.0508 1.17188L17.0508 7.61719C17.0508 7.9408 17.3132 8.20313 17.6367 8.20313L19.1016 8.20313L15 13.6719L10.8984 8.20313L12.3633 8.20313ZM26.1914 17.5781L3.80859 17.5781L3.80859 4.6875L11.7773 4.6875L11.7773 7.03125L9.72656 7.03125C9.50461 7.03125 9.30176 7.15664 9.2025 7.35516C9.1033 7.55367 9.12469 7.79121 9.25781 7.96875L14.5313 15C14.6419 15.1475 14.8156 15.2344 15 15.2344C15.1844 15.2344 15.3581 15.1475 15.4688 15L20.7422 7.96875C20.8753 7.79121 20.8968 7.55367 20.7975 7.35516C20.6982 7.15664 20.4954 7.03125 20.2734 7.03125L18.2227 7.03125L18.2227 4.6875L26.1914 4.6875L26.1914 17.5781Z" transform="translate(0 3.515625)" id="Shape" fill="#000000" fill-rule="evenodd" stroke="none" />
          <path d="M0 0.585938C0 0.262333 0.262333 0 0.585938 0C0.909542 0 1.17188 0.262333 1.17188 0.585938C1.17188 0.909542 0.909542 1.17188 0.585938 1.17188C0.262333 1.17188 0 0.909542 0 0.585938Z" transform="translate(14.4140625 24.609375)" id="Circle" fill="#000000" fill-rule="evenodd" stroke="none" />
        </g>
      </g>
    </g>
  </g>
</svg>