<?xml version="1.0" encoding="utf-8"?>
<svg width="150px" height="150px" viewbox="0 0 150 150" version="1.1" xmlns:xlink="http://www.w3.org/1999/xlink" xmlns="http://www.w3.org/2000/svg">
  <g id="smartphone">
    <g id="Group" transform="translate(38.709656 53.2258)">
      <path d="M12.0968 31.4516L12.0968 31.4516C5.41693 31.4516 0 26.0347 0 19.3548L0 0L24.1936 0L24.1936 19.3548C24.1936 26.0347 18.7766 31.4516 12.0968 31.4516L12.0968 31.4516Z" transform="translate(53.22583 41.12906)" id="Shape" fill="#FFA64D" fill-rule="evenodd" stroke="none" />
      <path d="M50.8065 26.6129C50.8065 19.4226 56.0395 13.4685 62.9032 12.3145L62.9032 0L0 0L0 58.0645L50.8065 58.0645L50.8065 26.6129L50.8065 26.6129Z" id="Shape" fill="#FFA64D" fill-rule="evenodd" stroke="none" />
    </g>
    <g id="Group">
      <path d="M137.903 67.7419L116.129 67.7419L116.129 68.0105C113.586 65.4121 110.216 63.6387 106.452 63.0968L106.452 41.9056C106.452 37.575 104.115 33.5516 100.355 31.4032L89.5161 25.2097L89.5161 19.3548L94.3548 19.3548L94.3548 0L45.9677 0L45.9677 19.3548L50.8064 19.3548L50.8064 25.2097L39.9677 31.4056C36.2081 33.5516 33.871 37.575 33.871 41.9056L33.871 67.7419L12.0968 67.7419C5.42661 67.7419 0 73.1685 0 79.8387L0 137.903C0 144.573 5.42661 150 12.0968 150L137.903 150C144.573 150 150 144.573 150 137.903L150 79.8387C150 73.1685 144.573 67.7419 137.903 67.7419L137.903 67.7419ZM116.129 79.8387L116.129 113.71C116.129 120.38 110.702 125.806 104.032 125.806C97.3621 125.806 91.9355 120.38 91.9355 113.71L91.9355 79.8387C91.9355 73.1686 97.3621 67.7419 104.032 67.7419C110.702 67.7419 116.129 73.1686 116.129 79.8387L116.129 79.8387ZM50.8065 4.83871L89.5161 4.83871L89.5161 14.5161L50.8065 14.5161L50.8065 4.83871L50.8065 4.83871ZM38.7097 41.9056C38.7097 39.3097 40.1105 36.8951 42.3677 35.6056L55.6451 28.0161L55.6451 19.3548L84.6774 19.3548L84.6774 28.0161L97.9548 35.6056C100.212 36.8951 101.613 39.3097 101.613 41.9056L101.613 63.0968C93.4209 64.2774 87.0968 71.325 87.0968 79.8387L87.0968 113.71C87.0968 118.447 89.0564 122.729 92.204 125.806L45.9677 125.806C41.9661 125.806 38.7097 122.55 38.7097 118.548L38.7097 41.9056L38.7097 41.9056ZM45.9677 130.645L94.3548 130.645C95.8718 130.645 97.3694 130.348 98.7726 129.798C100.43 130.343 102.196 130.645 104.032 130.645C113.369 130.645 120.968 123.046 120.968 113.71L120.968 79.8387C120.968 77.2403 120.36 74.7847 119.31 72.5807L130.645 72.5807L130.645 145.161L24.1935 145.161L24.1935 72.5807L33.871 72.5807L33.871 118.548C33.871 125.219 39.2976 130.645 45.9677 130.645L45.9677 130.645ZM4.83868 137.903L4.83868 79.8387C4.83868 75.8371 8.09514 72.5807 12.0967 72.5807L19.3548 72.5807L19.3548 145.161L12.0967 145.161C8.09514 145.161 4.83868 141.905 4.83868 137.903L4.83868 137.903ZM145.161 137.903C145.161 141.905 141.905 145.161 137.903 145.161L135.484 145.161L135.484 72.5807L137.903 72.5807C141.905 72.5807 145.161 75.8371 145.161 79.8387L145.161 137.903L145.161 137.903Z" id="Shape" fill="#3F3A34" fill-rule="evenodd" stroke="none" />
      <path d="M0 0L4.83871 0L4.83871 24.1936L0 24.1936L0 0Z" transform="translate(9.677429 96.77417)" id="Rectangle" fill="#3F3A34" fill-rule="evenodd" stroke="none" />
      <path d="M0 0L4.83871 0L4.83871 4.83871L0 4.83871L0 0Z" transform="translate(43.5484 96.77417)" id="Rectangle" fill="#3F3A34" fill-rule="evenodd" stroke="none" />
      <path d="M0 0L4.83871 0L4.83871 29.0323L0 29.0323L0 0Z" transform="translate(43.5484 62.90323)" id="Rectangle" fill="#3F3A34" fill-rule="evenodd" stroke="none" />
      <path d="M0 0L4.83871 0L4.83871 4.83871L0 4.83871L0 0Z" transform="translate(96.77417 104.03229)" id="Rectangle" fill="#3F3A34" fill-rule="evenodd" stroke="none" />
      <path d="M0 0L4.83871 0L4.83871 4.83871L0 4.83871L0 0Z" transform="translate(106.4516 104.03229)" id="Rectangle" fill="#3F3A34" fill-rule="evenodd" stroke="none" />
      <path d="M0 0L4.83871 0L4.83871 4.83871L0 4.83871L0 0Z" transform="translate(96.77417 113.709656)" id="Rectangle" fill="#3F3A34" fill-rule="evenodd" stroke="none" />
      <path d="M0 0L4.83871 0L4.83871 4.83871L0 4.83871L0 0Z" transform="translate(106.4516 113.709656)" id="Rectangle" fill="#3F3A34" fill-rule="evenodd" stroke="none" />
      <path d="M0 0L4.83871 0L4.83871 4.83871L0 4.83871L0 0Z" transform="translate(29.032288 135.48389)" id="Rectangle" fill="#3F3A34" fill-rule="evenodd" stroke="none" />
      <path d="M0 0L36.2903 0L36.2903 4.83871L0 4.83871L0 0Z" transform="translate(38.709656 135.48389)" id="Rectangle" fill="#3F3A34" fill-rule="evenodd" stroke="none" />
    </g>
  </g>
</svg>