<?xml version="1.0" encoding="utf-8"?>
<svg width="30px" height="30px" viewbox="0 0 30 30" version="1.1" xmlns:xlink="http://www.w3.org/1999/xlink" xmlns="http://www.w3.org/2000/svg">
  <defs>
    <path d="M0 0L20 0L20 20L0 20L0 0Z" id="path_1" />
    <path d="M0 0L15 0L15 15L0 15L0 0Z" id="path_2" />
    <clipPath id="mask_1">
      <use xlink:href="#path_1" />
    </clipPath>
    <clipPath id="mask_2">
      <use xlink:href="#path_2" />
    </clipPath>
  </defs>
  <g id="edit" transform="translate(0.5 0.5)">
    <path d="M0 14.5C0 6.5 6.5 0 14.5 0C22.5 0 29 6.5 29 14.5C29 22.5 22.5 29 14.5 29C6.5 29 0 22.5 0 14.5L0 14.5Z" id="Ellipse" fill="#FFFFFF" fill-rule="evenodd" stroke="#006C76" stroke-width="1" />
    <g id="view" transform="translate(5 5)">
      <path d="M0 0L20 0L20 20L0 20L0 0Z" id="Background" fill="none" fill-rule="evenodd" stroke="none" />
      <g clip-path="url(#mask_1)">
        <g id="edit-(2)" transform="translate(2 2)">
          <path d="M0 0L15 0L15 15L0 15L0 0Z" id="Background" fill="none" fill-rule="evenodd" stroke="none" />
          <g clip-path="url(#mask_2)">
            <g id="Group">
              <g id="Group">
                <g id="Group">
                  <path d="M0 9.22213L0 12.3476L3.12543 12.3476L12.3475 3.12543L9.22209 0L0 9.22213Z" transform="translate(0 2.6524353)" id="Polygon" fill="#006C76" fill-rule="evenodd" stroke="none" />
                  <path d="M4.65068 2.18987L2.70455 0.243784C2.37951 -0.0812612 1.85026 -0.0812612 1.52521 0.243784L0 1.76899L3.12543 4.89443L4.65064 3.36921C4.97573 3.04417 4.97573 2.51492 4.65068 2.18987L4.65068 2.18987Z" transform="translate(10.10553 0)" id="Shape" fill="#006C76" fill-rule="evenodd" stroke="none" />
                </g>
              </g>
            </g>
          </g>
        </g>
      </g>
    </g>
  </g>
</svg>