<?xml version="1.0" encoding="utf-8"?>
<svg width="15px" height="15px" viewbox="0 0 15 15" version="1.1" xmlns:xlink="http://www.w3.org/1999/xlink" xmlns="http://www.w3.org/2000/svg">
  <defs>
    <path d="M0 0L15 0L15 15L0 15L0 0Z" id="path_1" />
    <clipPath id="mask_1">
      <use xlink:href="#path_1" />
    </clipPath>
  </defs>
  <g id="emergency-call">
    <path d="M0 0L15 0L15 15L0 15L0 0Z" id="Background" fill="none" fill-rule="evenodd" stroke="none" />
    <g clip-path="url(#mask_1)">
      <g id="Group" transform="translate(0 0.002571106)">
        <g id="Group" transform="translate(8.062812 11.1870985)">
          <path d="M1.65181 3.7776C1.34796 3.7776 1.08533 3.72188 0.877463 3.65353C0.382912 3.49089 0.085507 3.22422 0.0731138 3.21294C-0.0180913 3.13017 -0.0248883 2.98913 0.0579077 2.89796C0.140528 2.8069 0.281129 2.80001 0.372334 2.88222C0.413088 2.91864 1.36068 3.74309 2.68759 3.06964C3.22105 2.79896 3.42672 2.27115 3.64446 1.71235C4.02472 0.736522 4.45587 -0.369363 6.76043 0.119563C6.8809 0.14514 6.95784 0.263534 6.93229 0.383978C6.90671 0.504511 6.78812 0.581389 6.66788 0.555841C5.35143 0.276543 4.9082 0.605237 4.76256 0.713201C4.41075 0.97413 4.24038 1.41134 4.06002 1.87425C3.83258 2.45799 3.57479 3.11957 2.88945 3.46737C2.43401 3.69847 2.01367 3.7776 1.65181 3.7776L1.65181 3.7776Z" id="Shape" fill="#FFFFFF" fill-rule="evenodd" stroke="none" />
        </g>
        <path d="M4.17981 8.35962L0.276632 8.35962C0.123843 8.35962 0 8.23578 0 8.08299L0 4.17981C0 1.87136 1.87136 0 4.17981 0C6.48826 0 8.35962 1.87136 8.35962 4.17981C8.35962 6.48826 6.48823 8.35962 4.17981 8.35962L4.17981 8.35962Z" transform="translate(6.394449 0.21637258)" id="Shape" fill="#FFFFFF" fill-rule="evenodd" stroke="none" />
        <path d="M0.832416 2.37497e-07C0.691931 2.37497e-07 0.553117 0.00706108 0.416207 0.0205968C2.52924 0.229492 4.17981 2.01184 4.17981 4.17981C4.17981 6.48826 2.30845 8.35962 0 8.35962L0.832388 8.35962C3.14084 8.35962 5.0122 6.48826 5.0122 4.17981C5.01223 1.87136 3.14084 0 0.832417 0L0.832416 2.37497e-07Z" transform="translate(9.741842 0.21637172)" id="Shape" fill="#FFFFFF" fill-rule="evenodd" stroke="none" />
        <g id="Group" transform="translate(5.3605804 0)">
          <path d="M0.222985 2.62412C0.195416 2.62412 0.167378 2.61899 0.140218 2.60809C0.0258678 2.56236 -0.0297398 2.43257 0.0160237 2.31822C0.369036 1.43596 0.947263 0.651624 1.68812 0.0499005C1.78375 -0.0277394 1.92418 -0.0131783 2.00182 0.0824214C2.07946 0.178021 2.0649 0.318476 1.9693 0.396116C1.28721 0.950055 0.75495 1.67199 0.430064 2.48387C0.395199 2.57106 0.311465 2.62412 0.222985 2.62412L0.222985 2.62412Z" id="Shape" fill="#FFFFFF" fill-rule="evenodd" stroke="none" />
        </g>
        <g id="Group" transform="translate(4.9243026 0.011301755)">
          <path d="M0.222985 1.62975C0.195416 1.62975 0.167348 1.62462 0.140218 1.61372C0.0258678 1.56796 -0.0297398 1.4382 0.0160237 1.32385C0.214313 0.828299 0.539053 0.387773 0.955086 0.0499075C1.05066 -0.0277324 1.19111 -0.0132006 1.26875 0.0824576C1.34639 0.178028 1.33183 0.318483 1.2362 0.396123C0.87897 0.686203 0.600199 1.06432 0.430064 1.4895C0.39517 1.57672 0.311437 1.62975 0.222986 1.62975L0.222985 1.62975Z" id="Shape" fill="#FFFFFF" fill-rule="evenodd" stroke="none" />
        </g>
        <g id="Group" transform="translate(13.370235 8.6998415)">
          <path d="M0.223103 1.31867C0.134623 1.31867 0.050889 1.26564 0.0160242 1.17845C-0.0297398 1.0641 0.0258683 0.934338 0.140219 0.888574C0.565423 0.71844 0.943514 0.439669 1.2336 0.0824383C1.31123 -0.0131612 1.45169 -0.0277513 1.54726 0.0498884C1.64286 0.127528 1.65745 0.267983 1.57981 0.363553C1.24194 0.779615 0.801419 1.10433 0.30587 1.30261C0.278741 1.31351 0.250702 1.31867 0.223103 1.31867L0.223103 1.31867Z" id="Shape" fill="#FFFFFF" fill-rule="evenodd" stroke="none" />
        </g>
        <g id="Group" transform="translate(12.375858 7.5304537)">
          <path d="M0.223103 2.05172C0.134623 2.05172 0.050889 1.99869 0.0160242 1.9115C-0.0297398 1.79715 0.0258683 1.66736 0.140219 1.62163C0.952098 1.29674 1.67403 0.76451 2.22797 0.0824214C2.30561 -0.0131782 2.44604 -0.0277396 2.54167 0.049901C2.63724 0.127541 2.65183 0.267996 2.57419 0.363595C1.97249 1.10446 1.18812 1.68268 0.30587 2.03567C0.27874 2.04659 0.250702 2.05172 0.223103 2.05172L0.223103 2.05172Z" id="Shape" fill="#FFFFFF" fill-rule="evenodd" stroke="none" />
        </g>
        <path d="M3.7007 1.31077L2.78833 1.31077C2.72815 1.31077 2.67937 1.26199 2.67937 1.20181L2.67937 0.289436C2.67937 0.129585 2.54978 0 2.38993 0L1.6002 0C1.44035 0 1.31077 0.129585 1.31077 0.289436L1.31077 1.20181C1.31077 1.26199 1.26198 1.31077 1.20181 1.31077L0.289436 1.31077C0.129586 1.31077 0 1.44035 0 1.6002L0 2.38993C0 2.54978 0.129586 2.67937 0.289436 2.67937L1.20181 2.67937C1.26198 2.67937 1.31077 2.72815 1.31077 2.78833L1.31077 3.7007C1.31077 3.86055 1.44035 3.99013 1.6002 3.99013L2.38993 3.99013C2.54978 3.99013 2.67937 3.86055 2.67937 3.7007L2.67937 2.78833C2.67937 2.72815 2.72815 2.67937 2.78833 2.67937L3.7007 2.67937C3.86055 2.67937 3.99013 2.54978 3.99013 2.38993L3.99013 1.6002C3.99013 1.44035 3.86055 1.31077 3.7007 1.31077L3.7007 1.31077Z" transform="translate(8.579206 2.4011002)" id="Shape" fill="#DA4A54" fill-rule="evenodd" stroke="none" />
        <g id="Group" transform="translate(10.42601 2.4011002)">
          <path d="M0.289436 0.289436L0.289436 1.20181C0.289436 1.26199 0.338217 1.31077 0.398395 1.31077L0.941493 1.31077C0.881315 1.31077 0.832534 1.26199 0.832534 1.20181L0.832534 0.289436C0.832534 0.129585 0.702948 0 0.543098 0L0 0C0.15985 0 0.289436 0.129585 0.289436 0.289436L0.289436 0.289436Z" id="Shape" fill="#EADFDA" fill-rule="evenodd" stroke="none" />
          <path d="M0.289436 0.108959L0.289436 1.02133C0.289436 1.18118 0.15985 1.31077 0 1.31077L0.543098 1.31077C0.702948 1.31077 0.832534 1.18118 0.832534 1.02133L0.832534 0.108959C0.832534 0.0487811 0.881315 0 0.941493 0L0.398395 0C0.338217 -2.95055e-05 0.289436 0.0487811 0.289436 0.108959L0.289436 0.108959Z" transform="translate(0 2.679397)" id="Shape" fill="#EADFDA" fill-rule="evenodd" stroke="none" />
          <path d="M0.543098 0L0 0C0.15985 0 0.289436 0.129585 0.289436 0.289436L0.289436 1.07917C0.289436 1.23902 0.15985 1.3686 0 1.3686L0.543098 1.3686C0.702948 1.3686 0.832534 1.23902 0.832534 1.07917L0.832534 0.289436C0.832534 0.129586 0.702948 2.23527e-07 0.543098 2.23527e-07L0.543098 0Z" transform="translate(1.3107958 1.3107666)" id="Shape" fill="#EADFDA" fill-rule="evenodd" stroke="none" />
        </g>
        <path d="M7.18394 7.77199L6.34086 8.31383C6.02154 8.51906 5.60938 8.52035 5.29378 8.30946C3.98295 7.43362 3.2014 6.21764 2.94923 4.6615C2.88849 4.28681 3.06088 3.91247 3.3802 3.70723L4.2234 3.16531C4.08274 3.0591 4.4042 2.70562 4.27687 2.59147C3.54849 1.93845 3.03967 1.15484 2.76374 0.232715C2.71742 0.0779623 2.22217 0.162604 2.18906 0L1.55933 0.404724C0.191782 1.28367 -0.363768 3.01161 0.246101 4.51852C1.18859 6.84731 2.57395 9.00283 4.3009 10.8275C5.41835 12.0082 7.22095 12.2206 8.58849 11.3416L9.2182 10.9369C9.01493 10.7835 9.35689 10.3497 9.18157 10.1796C8.55334 9.57016 8.10581 8.85323 7.84883 8.02296C7.79636 7.85335 7.22045 7.95112 7.18394 7.77199L7.18394 7.77199Z" transform="translate(0 3.113952)" id="Shape" fill="#FFFFFF" fill-rule="evenodd" stroke="none" />
        <path d="M0.443031 0.312025C0.123711 0.517258 -0.0486494 0.8916 0.0120561 1.26629C0.264254 2.82243 1.04578 4.03839 2.35661 4.91426C2.67223 5.12514 3.08437 5.12385 3.40369 4.91862L3.80323 4.66182C3.50099 4.80937 3.1393 4.79188 2.85546 4.60223C1.54464 3.72639 0.763083 2.51041 0.510914 0.954268C0.450179 0.579575 0.622569 0.205233 0.941889 0L0.443031 0.312025Z" transform="translate(2.438256 6.8211823)" id="Shape" fill="#FFFFFF" fill-rule="evenodd" stroke="none" />
        <path d="M1.44639 0.370739L2.6082 2.17846C2.84915 2.55336 2.74054 3.05257 2.36567 3.29351L2.03434 3.50645C0.953887 2.69068 0.265001 1.64195 0 0.341148L0.331332 0.128209C0.70623 -0.112738 1.20544 -0.00415916 1.44639 0.370739L1.44639 0.370739Z" transform="translate(2.1890316 2.7728336)" id="Shape" fill="#F6F1F1" fill-rule="evenodd" stroke="none" />
        <path d="M1.44639 0.370739L2.6082 2.17846C2.84915 2.55336 2.74054 3.05257 2.36567 3.29351L2.03434 3.50645C0.953887 2.69068 0.265001 1.64195 0 0.341148L0.331332 0.12821C0.706201 -0.112738 1.20544 -0.00415938 1.44639 0.370739L1.44639 0.370739Z" transform="translate(7.1838555 10.54447)" id="Shape" fill="#F6F1F1" fill-rule="evenodd" stroke="none" />
        <g id="Group" transform="translate(2.1151712 2.772804)">
          <path d="M2.68189 2.17817L1.52025 0.370739C1.2793 -0.00415849 0.78009 -0.112738 0.405192 0.128209L0 0.388611C0.360659 0.218917 0.799984 0.338306 1.02136 0.682734L2.183 2.49016C2.42395 2.86506 2.31534 3.36427 1.94047 3.60522L1.29758 4.01838C1.35849 3.98433 1.41896 3.94897 1.47832 3.91082L2.43933 3.29319C2.81423 3.0523 2.9228 2.55306 2.68189 2.17817L2.68189 2.17817Z" transform="translate(4.9949994 7.7719293)" id="Shape" fill="#EADFDA" fill-rule="evenodd" stroke="none" />
          <path d="M2.43953 3.29352C2.81443 3.05257 2.92301 2.55336 2.68206 2.17846L1.52025 0.370739C1.2793 -0.00415916 0.78009 -0.112738 0.405192 0.12821L0 0.388611C0.360659 0.218916 0.799984 0.338306 1.02136 0.682734L2.18318 2.49046C2.42412 2.86535 2.31551 3.36456 1.94065 3.60551L2.43953 3.29352Z" id="Shape" fill="#EADFDA" fill-rule="evenodd" stroke="none" />
        </g>
      </g>
    </g>
  </g>
</svg>