<?xml version="1.0" encoding="utf-8"?>
<svg width="75px" height="75px" viewbox="0 0 75 75" version="1.1" xmlns:xlink="http://www.w3.org/1999/xlink" xmlns="http://www.w3.org/2000/svg">
  <defs>
    <path d="M0 0L75 0L75 75L0 75L0 0Z" id="path_1" />
    <clipPath id="mask_1">
      <use xlink:href="#path_1" />
    </clipPath>
  </defs>
  <g id="patients">
    <path d="M0 0L75 0L75 75L0 75L0 0Z" id="Background" fill="none" fill-rule="evenodd" stroke="none" />
    <g clip-path="url(#mask_1)">
      <path d="M23.7551 0L19.4681 0C18.1206 0.568067 16.6855 0.868358 15.2156 0.868358C13.7457 0.868358 12.3105 0.568065 10.963 0L7.7543 0C8.12945 0.511377 8.354 1.14038 8.354 1.82256C8.354 3.5231 6.9753 4.90664 5.28062 4.90664L4.44156 4.90664C4.37754 4.90664 4.32115 4.94809 4.30196 5.00903C3.4875 7.5854 1.94898 9.78032 0 11.3534L0 13.2731L1.42236 13.2731C5.02295 13.2731 7.9522 16.2129 7.9522 19.8264L7.9522 23.3711L29.6555 23.3711C30.0847 23.3711 30.4317 23.0225 30.4317 22.5923L30.4317 6.69976C30.4314 3.00542 27.4364 0 23.7551 0L23.7551 0Z" transform="translate(44.166626 33.216064)" id="Shape" fill="#FB8276" fill-rule="evenodd" stroke="none" />
      <path d="M5.2374 1.33931C3.40327 1.33931 1.62246 0.874803 0 0.000145286L4.55493 8.98872C4.93023 9.72979 5.54472 9.72979 5.92002 8.98872L10.4748 0C8.8522 0.874657 7.07153 1.33931 5.2374 1.33931L5.2374 1.33931Z" transform="translate(54.144897 32.745117)" id="Shape" fill="#FFB98A" fill-rule="evenodd" stroke="none" />
      <path d="M0 0L4.55493 8.98858C4.93023 9.72964 5.54473 9.72964 5.92002 8.98858L6.80332 7.24541L3.75718 1.23399C2.4479 1.05381 1.18184 0.637061 0 0L0 0Z" transform="translate(54.144897 32.74524)" id="Shape" fill="#000000" fill-opacity="0.1" fill-rule="evenodd" stroke="none" />
      <path d="M1.00049 0L0.637941 0L0.637941 2.45742C0.637941 3.81108 0.415286 5.16489 0 6.46128L1.00049 6.46128C2.77895 6.46128 4.2205 5.01533 4.2205 3.23071C4.22051 1.44653 2.77881 0 1.00049 0L1.00049 0Z" transform="translate(70.77948 18.710938)" id="Shape" fill="#FFB98A" fill-rule="evenodd" stroke="none" />
      <path d="M12.1819 0C5.45361 0 0 4.72734 0 11.6043L0 13.0935C1.48901 15.1822 2.50019 17.7434 2.8229 20.5708C2.83008 20.6344 2.87798 20.6861 2.94097 20.6981C3.93896 20.8888 4.66318 21.7639 4.66318 22.7788L4.66318 23.7382C4.66318 24.3854 4.37109 24.9649 3.91289 25.3541C6.08496 27.5521 8.98974 28.9453 12.1821 28.9453C18.9098 28.9453 24.3637 22.7597 24.3637 15.8827L24.3637 11.6043C24.3636 4.72734 18.9095 0 12.1819 0L12.1819 0Z" transform="translate(47.200317 5.2856445)" id="Shape" fill="#FFD5B3" fill-rule="evenodd" stroke="none" />
      <path d="M12.1819 0C5.45361 0 0 4.72734 0 11.6043L0 13.0935C0.0600591 13.1777 0.1188 13.2631 0.177245 13.349L8.1813 13.349C11.8298 13.349 14.9574 11.1139 16.2809 7.93403C17.6023 11.1091 20.7224 13.3418 24.3637 13.3487L24.3637 11.6045C24.3636 4.72734 18.9095 0 12.1819 0L12.1819 0Z" transform="translate(47.200317 5.2856445)" id="Shape" fill="#F7931E" fill-rule="evenodd" stroke="none" />
      <g id="Group" transform="translate(52.187256 20.862183)">
        <path d="M2.56084 5.27856L1.82974 5.27856C0.820751 5.27856 0 4.44683 0 3.42466L0 1.09863C0 0.491895 0.491747 0 1.09863 0C1.70552 0 2.19727 0.491895 2.19727 1.09863L2.19727 3.0813L2.56084 3.0813C3.16772 3.0813 3.65947 3.57319 3.65947 4.17993C3.65947 4.78667 3.16772 5.27856 2.56084 5.27856L2.56084 5.27856Z" transform="translate(5.4974365 0.10595703)" id="Shape" fill="#775436" fill-rule="evenodd" stroke="none" />
        <path d="M1.09863 3.70986C0.491895 3.70986 0 3.21797 0 2.61123L0 1.09863C0 0.491895 0.491895 0 1.09863 0C1.70552 0 2.19727 0.491895 2.19727 1.09863L2.19727 2.61123C2.19727 3.21797 1.70537 3.70986 1.09863 3.70986L1.09863 3.70986Z" id="Shape" fill="#775436" fill-rule="evenodd" stroke="none" />
        <path d="M1.09863 3.70986C0.491747 3.70986 0 3.21797 0 2.61123L0 1.09863C0 0.491895 0.491747 0 1.09863 0C1.70552 0 2.19727 0.491895 2.19727 1.09863L2.19727 2.61123C2.19727 3.21797 1.70552 3.70986 1.09863 3.70986L1.09863 3.70986Z" transform="translate(11.78894 0)" id="Shape" fill="#775436" fill-rule="evenodd" stroke="none" />
        <path d="M4.10259 5.21177C1.84043 5.21177 0 3.36665 0 1.09863C0 0.491895 0.491747 0 1.09863 0C1.70552 0 2.19727 0.491895 2.19727 1.09863C2.19727 2.15508 3.052 3.0145 4.10259 3.0145C5.15332 3.0145 6.00805 2.15508 6.00805 1.09863C6.00805 0.491895 6.4998 0 7.10669 0C7.71357 0 8.20532 0.491895 8.20532 1.09863C8.20532 3.36665 6.36474 5.21177 4.10259 5.21177L4.10259 5.21177Z" transform="translate(3.0924072 6.149536)" id="Shape" fill="#775436" fill-rule="evenodd" stroke="none" />
      </g>
      <path d="M3.47124 9.18223C3.23569 9.18223 3.04336 8.9899 3.04336 8.75332L3.04336 6.12993L0.427589 6.12993C0.191456 6.12993 0 5.93745 0 5.70103L0 3.48091C0 3.24448 0.191456 3.0523 0.427589 3.0523L3.04336 3.0523L3.04336 0.42876C3.04336 0.192332 3.23569 0 3.47124 0L5.68506 0C5.9209 0 6.1125 0.192332 6.1125 0.42876L6.1125 3.05244L8.72871 3.05244C8.96455 3.05244 9.1563 3.24463 9.1563 3.48106L9.1563 5.70117C9.1563 5.93774 8.96455 6.13008 8.72871 6.13008L6.1125 6.13008L6.1125 8.75347C6.1125 8.99004 5.9209 9.18238 5.68506 9.18238L3.47124 9.18238L3.47124 9.18223L3.47124 9.18223Z" transform="translate(62.29071 41.67798)" id="Shape" fill="#FFFFFF" fill-rule="evenodd" stroke="none" />
      <path d="M18.985 22.3402C19.5817 21.7443 20.3754 21.416 21.2196 21.416C21.3404 21.416 21.4598 21.4247 21.578 21.4378L21.578 19.8265C21.578 16.213 24.5074 13.2732 28.108 13.2732L30.4317 13.2732L30.4317 12.019C28.0567 10.4314 26.1645 7.97124 25.2281 5.00903C25.2089 4.9481 25.1524 4.90664 25.0885 4.90664L24.2486 4.90664C22.5546 4.90664 21.1762 3.52309 21.1762 1.82256C21.1762 1.14038 21.4006 0.511231 21.7758 0L19.4685 0C18.121 0.568067 16.6859 0.868358 15.2161 0.868358C13.7461 0.868358 12.311 0.568065 10.9635 0L6.67647 0C2.99502 0 0 3.00557 0 6.69976L0 22.5923C0 23.0225 0.347314 23.3711 0.776367 23.3711L18.2963 23.3711C18.4529 22.99 18.6847 22.64 18.985 22.3402L18.985 22.3402Z" transform="translate(0.40179443 33.216064)" id="Shape" fill="#FCDB67" fill-rule="evenodd" stroke="none" />
      <g id="Group" transform="translate(0.40179443 33.216064)" opacity="0.1">
        <path d="M3.14443 22.5923L3.14443 6.69976C3.14443 3.00542 6.13945 0 9.8209 0L6.67646 0C2.99502 0 0 3.00557 0 6.69976L0 22.5923C0 23.0225 0.347314 23.3711 0.776367 23.3711L3.9208 23.3711C3.49175 23.3713 3.14443 23.0225 3.14443 22.5923L3.14443 22.5923Z" id="Shape" fill="#000000" fill-rule="evenodd" stroke="none" />
      </g>
      <path d="M5.23726 1.33946C3.40312 1.33946 1.62231 0.874955 0 0.000149757L4.55493 8.98872C4.93037 9.72979 5.54487 9.72979 5.92002 8.98872L10.4747 0C8.8522 0.874809 7.07153 1.33946 5.23726 1.33946L5.23726 1.33946Z" transform="translate(10.380493 32.744995)" id="Shape" fill="#FFB98A" fill-rule="evenodd" stroke="none" />
      <path d="M0 0L4.55493 8.98857C4.93037 9.72964 5.54487 9.72964 5.92002 8.98857L6.8042 7.24365L3.75908 1.23428C2.44893 1.05425 1.18242 0.637501 0 0L0 0Z" transform="translate(10.380493 32.745117)" id="Shape" fill="#000000" fill-opacity="0.1" fill-rule="evenodd" stroke="none" />
      <path d="M3.58228 2.45742L3.58228 0L3.21885 0C1.44111 0 0 1.44653 0 3.23071C0 5.01533 1.44111 6.46128 3.21885 6.46128L4.22036 6.46128C3.80493 5.16489 3.58228 3.81108 3.58228 2.45742L3.58228 2.45742Z" transform="translate(0 18.710938)" id="Shape" fill="#FFB98A" fill-rule="evenodd" stroke="none" />
      <path d="M18.7992 23.7382L18.7992 22.7788C18.7992 21.7639 19.5234 20.8888 20.5213 20.6981C20.5843 20.6859 20.6322 20.6344 20.6394 20.5708C21.0233 17.2052 22.3831 14.2176 24.3637 11.955L24.3637 11.6043C24.3637 4.72749 18.9097 0 12.1819 0C5.45376 0 0 4.72734 0 11.6043L0 15.8827C0 22.7596 5.45376 28.9453 12.1819 28.9453C15.2061 28.9453 17.9725 27.6949 20.1022 25.6944C19.3378 25.3742 18.7992 24.6182 18.7992 23.7382L18.7992 23.7382Z" transform="translate(3.435913 5.2856445)" id="Shape" fill="#FFD5B3" fill-rule="evenodd" stroke="none" />
      <g id="Group" transform="translate(3.435791 5.2856445)" opacity="0.1">
        <path d="M3.12861 15.8827L3.12861 11.6043C3.12861 5.26963 7.75752 0.762158 13.7462 0.0902345C13.2338 0.032666 12.7124 0 12.1819 0C5.45376 0 0 4.72734 0 11.6043L0 15.8827C0 22.7596 5.45376 28.9453 12.1819 28.9453C12.7119 28.9453 13.2341 28.9068 13.7462 28.8327C7.75693 27.9662 3.12861 22.2179 3.12861 15.8827L3.12861 15.8827Z" id="Shape" fill="#000000" fill-rule="evenodd" stroke="none" />
      </g>
      <g id="Group" transform="translate(8.422852 18.777954)">
        <path d="M2.56099 5.27856L1.82988 5.27856C0.820752 5.27856 0 4.44683 0 3.42466L0 1.09863C0 0.491895 0.491749 0 1.09863 0C1.70552 0 2.19727 0.491895 2.19727 1.09863L2.19727 3.0813L2.56099 3.0813C3.16787 3.0813 3.65962 3.57319 3.65962 4.17993C3.65962 4.78667 3.16772 5.27856 2.56099 5.27856L2.56099 5.27856Z" transform="translate(5.4974365 0.10559082)" id="Shape" fill="#775436" fill-rule="evenodd" stroke="none" />
        <path d="M1.09863 3.70972C0.491748 3.70972 0 3.21782 0 2.61108L0 1.09863C0 0.491895 0.491748 0 1.09863 0C1.70552 0 2.19727 0.491895 2.19727 1.09863L2.19727 2.61108C2.19727 3.21782 1.70552 3.70972 1.09863 3.70972L1.09863 3.70972Z" id="Shape" fill="#775436" fill-rule="evenodd" stroke="none" />
        <path d="M1.09863 3.70972C0.491747 3.70972 0 3.21782 0 2.61108L0 1.09863C0 0.491895 0.491747 0 1.09863 0C1.70552 0 2.19727 0.491895 2.19727 1.09863L2.19727 2.61108C2.19727 3.21782 1.70537 3.70972 1.09863 3.70972L1.09863 3.70972Z" transform="translate(11.78894 0)" id="Shape" fill="#775436" fill-rule="evenodd" stroke="none" />
        <path d="M4.10259 5.21177C1.84043 5.21177 0 3.36665 0 1.09863C0 0.491895 0.491748 0 1.09863 0C1.70552 0 2.19727 0.491895 2.19727 1.09863C2.19727 2.15508 3.052 3.0145 4.10259 3.0145C5.15332 3.0145 6.00806 2.15508 6.00806 1.09863C6.00806 0.491895 6.49981 0 7.10669 0C7.71358 0 8.20532 0.491895 8.20532 1.09863C8.20532 3.3665 6.36489 5.21177 4.10259 5.21177L4.10259 5.21177Z" transform="translate(3.0922852 6.149414)" id="Shape" fill="#775436" fill-rule="evenodd" stroke="none" />
      </g>
      <path d="M3.47124 9.18223C3.2354 9.18223 3.04321 8.9899 3.04321 8.75347L3.04321 6.13008L0.427441 6.13008C0.191455 6.13008 0 5.9376 0 5.70132L0 3.48106C0 3.24478 0.191455 3.05259 0.427441 3.05259L3.04321 3.05259L3.04321 0.428907C3.04321 0.19248 3.2354 0 3.47124 0L5.68506 0C5.92075 0 6.11235 0.192332 6.11235 0.428907L6.11235 3.05259L8.72857 3.05259C8.96455 3.05259 9.15615 3.24478 9.15615 3.48106L9.15615 5.70132C9.15615 5.93775 8.96455 6.13008 8.72857 6.13008L6.11235 6.13008L6.11235 8.75347C6.11235 8.99004 5.92075 9.18223 5.68506 9.18223L3.47124 9.18223L3.47124 9.18223Z" transform="translate(3.9243164 42.002075)" id="Shape" fill="#FFFFFF" fill-rule="evenodd" stroke="none" />
      <path d="M23.7555 0L19.3992 0C18.0718 0.549169 16.6607 0.838624 15.2161 0.838624C13.7714 0.838624 12.3602 0.549026 11.0328 0L6.67647 0C2.99502 0 0 3.00542 0 6.69975L0 8.29966C0.764208 8.35005 1.47612 8.66777 2.02251 9.21343L3.00938 10.1987C3.03779 10.2272 3.07529 10.2416 3.11279 10.2416C3.15029 10.2416 3.18765 10.2274 3.21621 10.1988L4.20337 9.21357C4.79971 8.61753 5.59321 8.28941 6.43755 8.28941C7.28188 8.28941 8.07554 8.61753 8.67217 9.21357C9.26894 9.80932 9.59751 10.6015 9.59751 11.4444C9.59751 12.2873 9.2688 13.0796 8.67202 13.6755L3.45923 18.8421C3.36152 18.9394 3.23174 18.9927 3.09375 18.9927C2.95503 18.9927 2.82451 18.9388 2.72637 18.841L2.23517e-06 16.1186L2.23517e-06 22.5924C2.23517e-06 23.0227 0.347462 23.3714 0.776515 23.3714L29.6556 23.3714C30.0848 23.3714 30.4318 23.0227 30.4318 22.5924L30.4318 6.69975C30.4318 3.00542 27.4368 0 23.7555 0L23.7555 0Z" transform="translate(21.83319 46.342773)" id="Shape" fill="#48C1E1" fill-rule="evenodd" stroke="none" />
      <g id="Group" transform="translate(21.83319 46.343018)" opacity="0.1">
        <path d="M2.02251 9.21328L3.00938 10.1985C3.0378 10.2271 3.0753 10.2415 3.1128 10.2415C3.12246 10.2415 3.13198 10.2378 3.14151 10.2359L3.14151 6.69976C3.14151 3.00542 6.13638 0 9.81782 0L6.67646 0C2.99502 0 0 3.00542 0 6.69976L0 8.29966C0.76436 8.3499 1.47627 8.66762 2.02251 9.21328L2.02251 9.21328Z" id="Shape" fill="#000000" fill-rule="evenodd" stroke="none" />
        <path d="M3.1415 6.47387L3.1415 2.86948C3.12568 2.87095 3.10986 2.87417 3.09375 2.87417C2.95503 2.87417 2.82451 2.82026 2.72637 2.72241L0 0L0 6.47388C0 6.9041 0.34746 7.25288 0.776513 7.25288L3.91787 7.25288C3.48882 7.25288 3.1415 6.9041 3.1415 6.47387L3.1415 6.47387Z" transform="translate(0.00012207031 16.118286)" id="Shape" fill="#000000" fill-rule="evenodd" stroke="none" />
      </g>
      <path d="M6.61099 10.9961C6.4333 10.9961 6.26602 10.927 6.14019 10.8016L0.967089 5.63614C0.343505 5.01328 0 4.18404 0 3.30147C0 2.41905 0.343506 1.5898 0.967089 0.966945C1.5917 0.343363 2.42197 0 3.30527 0C4.18843 0 5.01885 0.343359 5.64331 0.966945L6.63003 1.9522L7.61719 0.966945C8.24121 0.343363 9.07178 0 9.95478 0C10.8381 0 11.6685 0.343359 12.293 0.966945C12.9176 1.59038 13.2612 2.41963 13.2612 3.30147C13.2612 4.18345 12.9174 5.01241 12.2927 5.63614L7.07959 10.8031C6.95449 10.9276 6.78779 10.9961 6.61099 10.9961L6.61099 10.9961Z" transform="translate(18.316101 54.485718)" id="Shape" fill="#FB8276" fill-rule="evenodd" stroke="none" />
      <g id="Group" transform="translate(18.315979 54.485718)" opacity="0.1">
        <path d="M4.02261 5.63614C3.39888 5.01328 3.05552 4.18404 3.05552 3.30147C3.05552 2.41905 3.39888 1.5898 4.02261 0.966945C4.2646 0.725395 4.53823 0.527054 4.83296 0.373243C4.3667 0.130078 3.84639 0 3.30527 0C2.42197 0 1.5917 0.343359 0.967089 0.966945C0.343505 1.5898 0 2.41904 0 3.30147C0 4.18418 0.343506 5.01343 0.967089 5.63614L6.14019 10.8016C6.26587 10.927 6.4333 10.9961 6.61099 10.9961C6.78779 10.9961 6.95449 10.9276 7.07959 10.8031L8.14234 9.74986L4.02261 5.63614L4.02261 5.63614Z" id="Shape" fill="#000000" fill-rule="evenodd" stroke="none" />
      </g>
      <g id="Group" transform="translate(21.431519 31.807861)">
        <path d="M3.58228 2.45742L3.58228 0L3.21885 0C1.44111 0 0 1.44668 0 3.23071C0 5.01519 1.44111 6.46128 3.21885 6.46128L4.22021 6.46128C3.80478 5.16489 3.58228 3.81123 3.58228 2.45742L3.58228 2.45742Z" id="Shape" fill="#FFB98A" fill-rule="evenodd" stroke="none" />
        <path d="M1.00063 0L0.638084 0L0.638084 2.45742C0.638084 3.81108 0.415429 5.16489 0 6.46128L1.00049 6.46128C2.77881 6.46128 4.22036 5.01519 4.22036 3.23071C4.22051 1.44668 2.77881 0 1.00063 0L1.00063 0Z" transform="translate(27.014954 0)" id="Shape" fill="#FFB98A" fill-rule="evenodd" stroke="none" />
        <path d="M5.23755 1.33931C3.40342 1.33931 1.62246 0.874807 0 0L4.55493 8.98872C4.93037 9.72979 5.54473 9.72979 5.92017 8.98872L10.4747 0.000147522C8.85235 0.874803 7.07154 1.33931 5.23755 1.33931L5.23755 1.33931Z" transform="translate(10.38031 14.03418)" id="Shape" fill="#FFB98A" fill-rule="evenodd" stroke="none" />
      </g>
      <path d="M0 0L4.55493 8.98872C4.93037 9.72979 5.54473 9.72979 5.92017 8.98872L6.80273 7.24658L3.75586 1.23399C2.44687 1.05381 1.18139 0.636913 0 0L0 0Z" transform="translate(31.81189 45.842163)" id="Shape" fill="#000000" fill-opacity="0.1" fill-rule="evenodd" stroke="none" />
      <path d="M1.65366 4.73921C2.69062 4.44097 3.77607 4.28159 4.89419 4.28159C6.0123 4.28159 7.09746 4.44082 8.13442 4.73906C9.14736 3.72993 9.78765 2.25791 9.78765 0.619922C9.78765 0.277441 9.51094 0 9.17007 0L0.617724 0C0.276563 0 0 0.277442 0 0.619922C0.000147521 2.25791 0.640429 3.73008 1.65366 4.73921L1.65366 4.73921Z" transform="translate(32.155212 8.588257)" id="Shape" fill="#D5E962" fill-rule="evenodd" stroke="none" />
      <path d="M1.65366 4.73906C2.5251 4.48843 3.43096 4.33652 4.36157 4.29448C3.58066 3.31948 3.10254 2.03247 3.10254 0.619922C3.10254 0.277441 3.37895 0 3.72012 0L0.617724 0C0.276563 0 0 0.277442 0 0.619922C0.000147522 2.25776 0.640429 3.72993 1.65366 4.73906L1.65366 4.73906Z" transform="translate(32.155212 8.588379)" id="Shape" fill="#000000" fill-opacity="0.1" fill-rule="evenodd" stroke="none" />
      <path d="M0 0L0 3.13945C0 10.0163 5.45391 16.2021 12.1821 16.2021C18.9098 16.2021 24.3637 10.0163 24.3637 3.13945L24.3637 0L0 0L0 0Z" transform="translate(24.86731 31.125854)" id="Shape" fill="#FFD5B3" fill-rule="evenodd" stroke="none" />
      <g id="Group" transform="translate(24.86731 31.125854)" opacity="0.1">
        <path d="M3.12568 3.13945L3.12568 0L0 0L0 3.13945C0 10.0163 5.45391 16.2021 12.1821 16.2021C12.7115 16.2021 13.2331 16.1635 13.7448 16.0896C7.75474 15.224 3.12568 9.4752 3.12568 3.13945L3.12568 3.13945Z" id="Shape" fill="#000000" fill-rule="evenodd" stroke="none" />
      </g>
      <g id="Group" transform="translate(27.530212 33.629883)">
        <path d="M3.2753 3.1028C3.27515 3.1028 3.27515 3.1028 3.2753 3.1028C2.15923 3.1028 1.10982 2.66642 0.320417 1.87394C-0.107903 1.44416 -0.106584 0.748502 0.323054 0.320327C0.75284 -0.107847 1.44849 -0.106674 1.87681 0.323258C2.25108 0.698843 2.74766 0.905679 3.27515 0.905679C3.80279 0.905679 4.29937 0.698843 4.67379 0.323258C5.10196 -0.106528 5.79761 -0.107845 6.2274 0.320475C6.65733 0.748795 6.65836 1.4443 6.23018 1.87409C5.44063 2.66642 4.39107 3.1028 3.2753 3.1028L3.2753 3.1028Z" id="Shape" fill="#775436" fill-rule="evenodd" stroke="none" />
        <path d="M3.27516 3.1028C3.27501 3.1028 3.27501 3.1028 3.27516 3.1028C2.15909 3.1028 1.10982 2.66642 0.320421 1.87394C-0.107901 1.44416 -0.106582 0.748502 0.323059 0.320327C0.75299 -0.107847 1.44864 -0.106674 1.87682 0.323258C2.25108 0.698843 2.74752 0.905534 3.27501 0.905679C3.27516 0.905679 3.27516 0.905679 3.27516 0.905679C3.8028 0.905679 4.29938 0.698843 4.67379 0.32311C5.10212 -0.106676 5.79777 -0.107847 6.2274 0.320473C6.65734 0.748792 6.65836 1.44445 6.23019 1.87423C5.44049 2.66642 4.39092 3.1028 3.27516 3.1028L3.27516 3.1028Z" transform="translate(11.730896 0)" id="Shape" fill="#775436" fill-rule="evenodd" stroke="none" />
        <path d="M2.56113 5.27857L1.82988 5.27857C0.820751 5.27857 0 4.44683 0 3.42466L0 1.09863C0 0.491895 0.491747 0 1.09863 0C1.70552 0 2.19727 0.491895 2.19727 1.09863L2.19727 3.08145L2.56113 3.08145C3.16802 3.08145 3.65977 3.57334 3.65977 4.18008C3.65977 4.78667 3.16802 5.27857 2.56113 5.27857L2.56113 5.27857Z" transform="translate(8.041748 0.8930664)" id="Shape" fill="#775436" fill-rule="evenodd" stroke="none" />
        <path d="M4.642 3.67173L4.64185 3.67173C3.00972 3.67173 1.47515 3.03335 0.320271 1.87422C-0.107903 1.44443 -0.106584 0.748774 0.323202 0.320457C0.752988 -0.107865 1.4485 -0.106689 1.87696 0.323385C2.61641 1.06548 3.5983 1.47431 4.64185 1.47431C5.68555 1.47431 6.66773 1.06562 7.40748 0.323237C7.83551 -0.106694 8.53116 -0.107865 8.96109 0.320452C9.39087 0.748774 9.39204 1.44428 8.96387 1.87421C7.80899 3.03335 6.27413 3.67173 4.642 3.67173L4.642 3.67173Z" transform="translate(4.876892 7.2148438)" id="Shape" fill="#775436" fill-rule="evenodd" stroke="none" />
      </g>
      <path d="M0.445897 13.3059L25.8398 13.3059C25.9923 13.3059 26.1415 13.3216 26.2856 13.3507C25.5209 5.83447 19.9291 0 13.143 0C6.35669 0 0.764649 5.83447 0 13.3507C0.144432 13.3216 0.293407 13.3059 0.445897 13.3059L0.445897 13.3059Z" transform="translate(23.90625 12.696777)" id="Shape" fill="#89C947" fill-rule="evenodd" stroke="none" />
      <path d="M0.44575 13.3059L3.12773 13.3059C3.84931 6.39624 8.64961 0.917285 14.7031 0.105176C14.1913 0.0364747 13.6708 0 13.143 0C6.35669 0 0.764649 5.83447 0 13.3507C0.144285 13.3216 0.293259 13.3059 0.44575 13.3059L0.44575 13.3059Z" transform="translate(23.906433 12.696777)" id="Shape" fill="#000000" fill-opacity="0.1" fill-rule="evenodd" stroke="none" />
      <path d="M29.9212 3.22529C29.9212 4.47158 28.9025 5.49126 27.6576 5.49126L2.26348 5.49126C1.01851 5.49126 0 4.47158 0 3.22529L0 2.26582C0 1.01968 1.01851 0 2.26348 0L27.6574 0C28.9024 0 29.921 1.01968 29.921 2.26582L29.9212 3.22529L29.9212 3.22529L29.9212 3.22529Z" transform="translate(22.088684 25.798584)" id="Shape" fill="#D5E962" fill-rule="evenodd" stroke="none" />
      <g id="Group" transform="translate(22.088684 25.798584)" opacity="0.1">
        <path d="M3.14619 3.22529L3.14619 2.26582C3.14619 1.01968 4.16484 0 5.40981 0L2.26348 0C1.01851 0 0 1.01968 0 2.26582L0 3.22529C0 4.47158 1.01851 5.49126 2.26348 5.49126L5.40981 5.49126C4.16484 5.49126 3.14619 4.47158 3.14619 3.22529L3.14619 3.22529Z" id="Shape" fill="#000000" fill-rule="evenodd" stroke="none" />
      </g>
      <path d="M3.47124 9.18237C3.2354 9.18237 3.04336 8.99004 3.04336 8.75346L3.04336 6.13022L0.427441 6.13022C0.191456 6.13022 0 5.93789 0 5.70131L0 3.4812C0 3.24477 0.191456 3.05259 0.427441 3.05259L3.04336 3.05259L3.04336 0.42876C3.04336 0.19248 3.2354 0 3.47124 0L5.68506 0C5.92075 0 6.1125 0.19248 6.1125 0.42876L6.1125 3.05259L8.72857 3.05259C8.96455 3.05259 9.15615 3.24477 9.15615 3.4812L9.15615 5.70131C9.15615 5.93774 8.96455 6.13022 8.72857 6.13022L6.1125 6.13022L6.1125 8.75346C6.1125 8.99003 5.92075 9.18237 5.68506 9.18237L3.47124 9.18237L3.47124 9.18237Z" transform="translate(39.47168 55.07361)" id="Shape" fill="#FFFFFF" fill-rule="evenodd" stroke="none" />
    </g>
  </g>
</svg>