<?xml version="1.0" encoding="utf-8"?>
<svg width="50px" height="50px" viewbox="0 0 50 50" version="1.1" xmlns:xlink="http://www.w3.org/1999/xlink" xmlns="http://www.w3.org/2000/svg">
  <defs>
    <path d="M0 0L40 0L40 40L0 40L0 0Z" id="path_1" />
    <rect width="50" height="50" id="artboard_1" />
    <clipPath id="clip_1">
      <use xlink:href="#artboard_1" clip-rule="evenodd" />
    </clipPath>
    <clipPath id="mask_1">
      <use xlink:href="#path_1" />
    </clipPath>
  </defs>
  <g id="Pixelbook" clip-path="url(#clip_1)">
    <g id="d0641c8419d15654f00e34f51fb730b5" transform="translate(5 5)">
      <path d="M0 0L40 0L40 40L0 40L0 0Z" id="Background" fill="none" fill-rule="evenodd" stroke="none" />
      <g clip-path="url(#mask_1)">
        <g id="Group" transform="translate(4.3408203 0.40011597)">
          <g id="Group">
            <path d="M6.08904 0.0786776C4.16784 0.285877 2.51984 0.923479 1.59224 1.83428C0.631444 2.78668 0.201044 3.97108 0.0434436 6.09908C-0.0725561 7.71388 0.0598437 12.8651 0.250644 13.9415C0.598642 15.8879 1.56744 18.0079 2.85944 19.6559L3.24864 20.1527L3.14104 21.4779C3.08304 22.2067 3.02504 22.9687 3.00864 23.1755L2.98384 23.5399L5.63384 25.0555C7.09144 25.8835 8.31704 26.5627 8.36664 26.5711C8.40824 26.5711 9.63384 25.8919 11.083 25.0639L13.7162 23.5647L13.6746 23.1839C13.6498 22.9771 13.567 22.2067 13.5006 21.4863L13.3682 20.1695L13.625 19.8715C13.7574 19.7059 14.097 19.2423 14.3786 18.8363C15.6206 17.0063 16.3414 15.0019 16.5154 12.8987C16.6478 11.2671 16.6974 7.26748 16.6066 6.00868C16.4494 3.97988 16.0102 2.77908 15.0746 1.84308C14.1386 0.907476 12.4826 0.277877 10.4038 0.0706759C9.40144 -0.0289237 7.09944 -0.0205228 6.08904 0.0786776L6.08904 0.0786776Z" transform="translate(7.326956 0)" id="Shape" fill="#FFFFFF" fill-rule="evenodd" stroke="none" />
            <path d="M10.1116 0.225217C9.9128 0.556416 9.4408 0.821616 8.944 0.904417C8.2816 1.00402 6.6832 1.42602 5.7888 1.73242C3.412 2.56042 1.5488 3.79442 0.704 5.11962C0.5468 5.36802 0.3232 5.84842 0.2072 6.18802C0 6.80922 0 6.82562 0 9.82362C0 13.2272 0.0163998 13.3268 0.588 13.9808C0.77 14.188 1.1264 14.4528 1.3912 14.5852L1.8632 14.8172L15.6516 14.8172L29.44 14.8172L29.912 14.5852C30.4832 14.3036 30.9968 13.7488 31.1708 13.2268C31.3612 12.672 31.3696 7.18162 31.1792 6.46922C30.6576 4.46522 28.7112 2.84202 25.5064 1.73242C24.5376 1.40122 22.6988 0.912417 22.6328 0.978818C22.5664 1.03682 21.7548 0.771616 21.5312 0.614417C21.4152 0.531616 21.266 0.366018 21.2 0.241616C21.134 0.117217 21.0344 0.0344165 20.9516 0.0596167C20.8852 0.0760181 19.6764 0.747217 18.2684 1.55842L15.7096 3.02442L13.1756 1.58362C11.7844 0.788418 10.5588 0.0928174 10.4592 0.0432178C10.302 -0.0399829 10.2608 -0.0151831 10.1116 0.225217L10.1116 0.225217ZM11.5112 3.59562C12.4884 4.52322 13.4656 5.45082 13.6728 5.64922L14.062 6.01362L14.3272 5.50842C14.4764 5.22682 14.6252 5.02802 14.6584 5.06122C14.6916 5.09442 14.7992 5.34282 14.9068 5.60762C15.0892 6.07122 15.0892 6.12922 14.998 6.89122C14.7496 8.95322 14.2112 12.8372 14.17 12.8868C14.112 12.9532 11.8512 8.92842 11.1392 7.50402C10.8908 6.99042 10.4932 6.11282 10.2612 5.55802C9.85559 4.57242 8.9444 1.84802 8.82039 1.27642L8.76239 0.986416L9.25119 1.45042C9.5156 1.69922 10.534 2.66802 11.5112 3.59562L11.5112 3.59562ZM22.0284 2.86682C21.7384 3.83562 21.4568 4.68882 21.4072 4.75482C21.3492 4.82122 21.192 5.18562 21.0428 5.55802C20.8936 5.93042 20.5128 6.76722 20.19 7.42122C19.5772 8.67162 17.3 12.7876 17.2168 12.7876C17.192 12.7876 17.1256 12.4812 17.0844 12.1004C17.0348 11.7276 16.8444 10.2124 16.6456 8.73002L16.2976 6.03842L16.5376 5.50002L16.7776 4.97002L17.0592 5.48322L17.3324 5.99682L18.2104 5.16882C18.6908 4.71322 19.85 3.60362 20.786 2.69282C21.7216 1.79002 22.5004 1.06122 22.5168 1.07802C22.5336 1.09442 22.3184 1.89802 22.0284 2.86682L22.0284 2.86682Z" transform="translate(0 24.38306)" id="Shape" fill="#FFFFFF" fill-rule="evenodd" stroke="none" />
          </g>
        </g>
      </g>
    </g>
  </g>
</svg>