<?xml version="1.0" encoding="utf-8"?>
<svg width="150px" height="150px" viewbox="0 0 150 150" version="1.1" xmlns:xlink="http://www.w3.org/1999/xlink" xmlns="http://www.w3.org/2000/svg">
  <defs>
    <path d="M0 0L150 0L150 150L0 150L0 0Z" id="path_1" />
    <clipPath id="mask_1">
      <use xlink:href="#path_1" />
    </clipPath>
  </defs>
  <g id="assasin">
    <path d="M0 0L150 0L150 150L0 150L0 0Z" id="Background" fill="none" fill-rule="evenodd" stroke="none" />
    <g clip-path="url(#mask_1)">
      <g id="Group" transform="translate(5.897522 -7.6293945E-05)">
        <g id="Group" transform="translate(0 55.310883)">
          <g id="Group">
            <path d="M0 7.43973L9.32352 0L47.2644 47.5477L37.9409 54.9875L0 7.43973Z" transform="translate(3.9184687 4.8209577)" id="Shape" fill="#766D78" fill-rule="evenodd" stroke="none" />
            <path d="M3.21764 1.86498C-0.472305 4.80785 -1.07787 10.185 1.865 13.8749C4.80787 17.5649 10.185 18.1707 13.875 15.2279C17.5649 12.285 18.1708 6.90785 15.2279 3.2179C12.2847 -0.472328 6.90758 -1.07789 3.21764 1.86498L3.21764 1.86498Z" id="Shape" fill="#6FBBC6" fill-rule="evenodd" stroke="none" />
          </g>
          <g id="Group" transform="translate(87.14364 0)">
            <path d="M0 47.5477L37.9409 0L47.2645 7.43973L9.32353 54.9875L0 47.5477Z" transform="translate(0 4.841101)" id="Shape" fill="#766D78" fill-rule="evenodd" stroke="none" />
            <path d="M13.8751 1.86498C17.5651 4.80785 18.1706 10.185 15.2278 13.8749C12.2849 17.5649 6.90776 18.1707 3.21782 15.2279C-0.472123 12.285 -1.07798 6.90785 1.86489 3.2179C4.80805 -0.472328 10.1852 -1.07789 13.8751 1.86498L13.8751 1.86498Z" transform="translate(33.968605 0)" id="Shape" fill="#6FBBC6" fill-rule="evenodd" stroke="none" />
          </g>
        </g>
        <path d="M95.9802 60.1638L75.4774 60.1638L35.5053 60.1638L15.0025 60.1638C-15.9213 60.1638 3.62796 6.32586 49.2678 0.380346C53.1734 -0.126779 57.809 -0.126779 61.7146 0.380346C107.354 6.32586 126.904 60.1638 95.9802 60.1638L95.9802 60.1638Z" transform="translate(13.611164 89.83623)" id="Shape" fill="#EBEBEB" fill-rule="evenodd" stroke="none" />
        <path d="M50.4271 25.2979C50.4271 44.6953 44.0343 50.8553 37.7055 54.8452L14.273 54.8452C-10.9132 54.8452 -0.675719 17.1882 28.6513 0C41.1309 7.98897 50.4271 19.6087 50.4271 25.2979L50.4271 25.2979Z" transform="translate(11.411226 95.154854)" id="Shape" fill="#5D91B9" fill-rule="evenodd" stroke="none" />
        <path d="M36.1541 54.8452L12.7216 54.8452C6.39258 50.8553 0 44.6953 0 25.2979C0 19.6087 9.29619 7.98897 21.7761 0C51.1028 17.1882 61.3404 54.8452 36.1541 54.8452L36.1541 54.8452Z" transform="translate(76.36696 95.154854)" id="Shape" fill="#5D91B9" fill-rule="evenodd" stroke="none" />
        <path d="M4.5252 8.9407e-06C2.9628 1.0002 1.45049 2.05724 0 3.15236C25.5272 21.3859 33.2637 54.8452 9.52236 54.8452L18.9035 54.8452C44.0897 54.8452 33.8522 17.1882 4.52519 0L4.5252 8.9407e-06Z" transform="translate(93.617546 95.154854)" id="Shape" fill="#4980AC" fill-rule="evenodd" stroke="none" />
        <path d="M0 20.5228C20.2746 24.798 39.4966 45.242 39.4966 53.4234C39.4966 42.353 40.5038 28.1206 32.0713 15.7664L42.7843 0C24.097 0 2.53916 11.4542 0 20.5228L0 20.5228Z" transform="translate(22.341759 67.029274)" id="Shape" fill="#D09180" fill-rule="evenodd" stroke="none" />
        <path d="M42.7843 20.5228C40.2451 11.4542 18.6873 0 0 0L10.713 15.7664C2.28048 28.1206 3.2877 42.3527 3.2877 53.4234C3.2877 45.242 22.5097 24.798 42.7843 20.5228L42.7843 20.5228Z" transform="translate(73.07897 67.029274)" id="Shape" fill="#D09180" fill-rule="evenodd" stroke="none" />
        <path d="M95.7366 8.27439C80.0888 9.08826 45.3049 2.70711 32.1873 0.157399C28.8764 -0.486253 25.4979 0.877223 23.5661 3.64197C21.7201 6.28367 19.495 9.89275 17.8221 13.9389C16.2627 14.4657 8.66158 18.3229 2.90826 21.874C0.382579 23.4329 -0.664198 26.5808 0.432971 29.3386C4.25621 38.9482 6.11188 55.8379 6.11188 62.0093L82.9552 62.0093C82.9552 54.7548 85.5407 32.7042 90.8297 25.0489C93.2387 21.5617 94.63 19.5235 98.5792 13.0372C99.8906 10.8836 98.2549 8.14343 95.7366 8.27439L95.7366 8.27439Z" transform="translate(24.56895 0)" id="Shape" fill="#766D78" fill-rule="evenodd" stroke="none" />
        <g id="Group" transform="translate(23.849962 54.570194)">
          <path d="M13.4792 0L0 0L0 14.5093L13.4792 14.5093C17.0692 14.5093 19.9799 11.5989 19.9799 8.0086L19.9799 6.50069C19.9799 2.91065 17.0692 4.47035e-06 13.4792 4.47035e-06L13.4792 0Z" transform="translate(70.52521 0)" id="Shape" fill="#FFCDBE" fill-rule="evenodd" stroke="none" />
          <path d="M6.50069 0L19.9799 0L19.9799 14.5093L6.50068 14.5093C2.91064 14.5093 0 11.5989 0 8.0086L0 6.50069C0 2.91065 2.91064 4.47035e-06 6.50068 4.47035e-06L6.50069 0Z" id="Shape" fill="#FFCDBE" fill-rule="evenodd" stroke="none" />
        </g>
        <path d="M58.8858 9.88974C60.5511 10.4528 61.672 12.0152 61.672 13.7733L61.672 37.171C61.672 44.4234 58.6298 51.341 53.2878 56.2485L39.8874 68.5503C37.8199 70.4546 35.1097 71.5081 32.2998 71.5081L29.3722 71.5081C26.5623 71.5081 23.8521 70.4549 21.7846 68.5503L8.38418 56.2485C3.04219 51.341 0 44.4234 0 37.171L0 15.6199C0 14.3927 0.550197 13.2331 1.49766 12.4532C6.40078 8.4167 11.707 2.86758 13.1408 0C21.6337 8.69824 34.5393 12.329 34.5393 12.329L34.5393 1.65703L58.8858 9.88974Z" transform="translate(38.266384 27.932598)" id="Shape" fill="#FFCDBE" fill-rule="evenodd" stroke="none" />
        <path d="M31.8656 1.71797L26.7856 0C27.6686 0.793359 28.2044 1.93799 28.2044 3.17695L28.2044 27.5572C28.2044 35.1144 25.0345 42.3223 19.4681 47.4357L5.50488 60.254C3.94863 61.6875 2.04199 62.6552 0 63.0838C0.767872 63.2484 1.55566 63.336 2.35225 63.336L5.27988 63.336C8.08975 63.336 10.8 62.2828 12.8675 60.3782L26.2679 48.0765C31.6099 43.1689 34.652 36.2514 34.652 28.9989L34.652 5.60126C34.652 3.84345 33.5312 2.28134 31.8656 1.71796L31.8656 1.71797Z" transform="translate(65.28658 36.104374)" id="Shape" fill="#EBAE9D" fill-rule="evenodd" stroke="none" />
        <path d="M28.2199 4.47035e-06C20.8125 4.47035e-06 6.00088 5.13838 0 15.7072C1.40654 18.5956 3.35098 21.2285 5.76826 23.4492L19.1687 35.751C21.2361 37.6553 23.9464 38.7088 26.7563 38.7088L29.6839 38.7088C32.4938 38.7088 35.204 37.6556 37.2715 35.751L50.6719 23.4492C53.0889 21.2288 55.0333 18.5956 56.4401 15.7072C50.439 5.13867 35.6273 0 28.2199 0L28.2199 4.47035e-06Z" transform="translate(40.882584 60.731907)" id="Shape" fill="#766D78" fill-rule="evenodd" stroke="none" />
        <path d="M27.1793 12.7354C29.1003 10.7892 30.7649 8.48379 32.0358 5.87432C30.791 3.68232 29.1639 1.72734 27.3059 0C25.9983 4.93857 23.3019 9.45381 19.4681 12.9756L5.50489 25.7938C3.94863 27.2273 2.04199 28.195 0 28.6236C1.57676 28.9617 2.60713 28.8735 5.27988 28.8759C8.08975 28.8782 10.8 27.8227 12.8675 25.9181C12.8672 25.9178 27.1506 12.7643 27.1793 12.7353L27.1793 12.7354Z" transform="translate(65.28659 70.56512)" id="Shape" fill="#655E67" fill-rule="evenodd" stroke="none" />
        <path d="M5.73742 2.72787C5.99348 1.50414 5.20949 0.304431 3.98576 0.0483781C2.76321 -0.20738 1.56232 0.576308 1.30627 1.80004C-0.474101 10.3011 -0.426053 17.6526 1.39826 22.8988L6.29055 22.8988C4.15393 18.5831 3.94797 11.2723 5.73742 2.72787L5.73742 2.72787Z" transform="translate(26.257656 127.1013)" id="Shape" fill="#4980AC" fill-rule="evenodd" stroke="none" />
        <path d="M2.30479 0.0483871C1.08106 0.304735 0.297073 1.50444 0.553125 2.72788C2.34258 11.2723 2.13662 18.5831 0 22.8988L4.89229 22.8988C6.7166 17.6526 6.76465 10.3011 4.98428 1.80005C4.72793 0.576022 3.5291 -0.207371 2.30479 0.0483871L2.30479 0.0483871Z" transform="translate(105.65681 127.101295)" id="Shape" fill="#4980AC" fill-rule="evenodd" stroke="none" />
        <g id="Group" transform="translate(45.551853 45.661156)">
          <g id="Group" transform="translate(4.926048 7.739506)">
            <path d="M2.26348 6.83701C1.01308 6.83701 0 5.82363 0 4.57353L0 2.26348C0 1.01338 1.01338 0 2.26348 0C3.51387 0 4.52695 1.01338 4.52695 2.26348L4.52695 4.57353C4.52695 5.82334 3.51387 6.83701 2.26348 6.83701L2.26348 6.83701Z" id="Shape" fill="#544F56" fill-rule="evenodd" stroke="none" />
            <path d="M2.26348 6.83701C1.01309 6.83701 0 5.82363 0 4.57353L0 2.26348C0 1.01338 1.01338 0 2.26348 0C3.51358 0 4.52696 1.01338 4.52696 2.26348L4.52696 4.57353C4.52696 5.82334 3.51387 6.83701 2.26348 6.83701L2.26348 6.83701Z" transform="translate(32.722267 0)" id="Shape" fill="#544F56" fill-rule="evenodd" stroke="none" />
          </g>
          <g id="Group">
            <path d="M2.26354 5.30501C1.30261 5.30501 0.411102 4.68831 0.106122 3.72356C-0.271221 2.53177 0.389716 1.2597 1.58151 0.882644C5.30192 -0.293921 9.07565 -0.294507 12.7975 0.882644C13.9893 1.2597 14.6503 2.53147 14.2729 3.72356C13.8962 4.91536 12.6238 5.576 11.4323 5.19925C8.57702 4.29603 5.80114 4.29632 2.94674 5.19925C2.71969 5.27073 2.48971 5.30501 2.26354 5.30501L2.26354 5.30501Z" transform="translate(0 0.0005140901)" id="Shape" fill="#655E67" fill-rule="evenodd" stroke="none" />
            <path d="M12.1155 5.30552C11.8893 5.30552 11.6593 5.27124 11.4323 5.19947C8.57761 4.29654 5.80231 4.29625 2.94675 5.19947C1.75583 5.57652 0.483173 4.91587 0.106117 3.72378C-0.271225 2.53199 0.389707 1.25991 1.58151 0.882863C5.3028 -0.294288 9.07653 -0.294288 12.7975 0.882863C13.9893 1.25991 14.6503 2.53198 14.2729 3.72378C13.9679 4.68882 13.0764 5.30552 12.1155 5.30552L12.1155 5.30552Z" transform="translate(32.72228 0)" id="Shape" fill="#655E67" fill-rule="evenodd" stroke="none" />
          </g>
        </g>
        <path d="M32.0982 4.52696L2.26348 4.52696C1.01308 4.52696 0 3.51358 0 2.26348C0 1.01338 1.01338 0 2.26348 0L32.098 0C33.3483 0 34.3614 1.01338 34.3614 2.26348C34.3617 3.51328 33.3483 4.52696 32.0982 4.52696L32.0982 4.52696Z" transform="translate(51.921642 124.412766)" id="Shape" fill="#655E67" fill-rule="evenodd" stroke="none" />
        <g id="Group" transform="translate(42.414516 120.0361)">
          <path d="M0 6.63985C0 2.97276 2.97276 0 6.63984 0C10.3069 0 13.2797 2.97276 13.2797 6.63985C13.2797 10.3069 10.3069 13.2797 6.63984 13.2797C2.97276 13.2797 0 10.3069 0 6.63985Z" id="Circle" fill="#F3D69E" fill-rule="evenodd" stroke="none" />
          <path d="M0 6.63985C0 2.97276 2.97276 0 6.63984 0C10.3069 0 13.2797 2.97276 13.2797 6.63985C13.2797 10.3069 10.3069 13.2797 6.63984 13.2797C2.97276 13.2797 0 10.3069 0 6.63985Z" transform="translate(40.096294 0)" id="Circle" fill="#F3D69E" fill-rule="evenodd" stroke="none" />
        </g>
      </g>
    </g>
  </g>
</svg>