<?xml version="1.0" encoding="utf-8"?>
<svg width="68px" height="68px" viewbox="0 0 68 68" version="1.1" xmlns:xlink="http://www.w3.org/1999/xlink" xmlns="http://www.w3.org/2000/svg">
  <g id="flat">
    <path d="M0 0L49.2188 0L49.2188 67.9688L0 67.9688L0 0Z" id="Shape" fill="#F4F4E6" fill-rule="evenodd" stroke="none" />
    <path d="M0 0L2.34375 0L2.34375 2.34375L0 2.34375L0 0Z" transform="translate(43.359375 62.109375)" id="Shape" fill="#2D75BB" fill-rule="evenodd" stroke="none" />
    <path d="M0 0L2.34375 0L2.34375 2.34375L0 2.34375L0 0Z" transform="translate(38.671875 62.109375)" id="Shape" fill="#2D75BB" fill-rule="evenodd" stroke="none" />
    <path d="M0 12.8906L12.8906 0L16.4063 3.51563L7.03125 12.8906L0 12.8906Z" transform="translate(43.359375 24.609375)" id="Shape" fill="#195C85" fill-rule="evenodd" stroke="none" />
    <path d="M3.51563 0L0 3.51563L3.51563 7.03125L10.5469 0L3.51563 0Z" transform="translate(36.328125 42.1875)" id="Shape" fill="#195C85" fill-rule="evenodd" stroke="none" />
    <path d="M3.17227 0L0 5.03086L1.65703 6.68789L6.68789 3.51563L3.17227 0Z" transform="translate(33.15576 45.703125)" id="Shape" fill="#50B4F8" fill-rule="evenodd" stroke="none" />
    <path d="M0 3.51539L3.51539 0L7.03078 3.51539L3.51539 7.03078L0 3.51539Z" transform="translate(56.2417 21.097412)" id="Shape" fill="#50B4F8" fill-rule="evenodd" stroke="none" />
    <path d="M11.7188 0L1.17188 2.34375L0 8.20313L3.51563 8.20313L11.7188 0Z" transform="translate(39.84375 29.296875)" id="Shape" fill="#F9BB4B" fill-rule="evenodd" stroke="none" />
    <path d="M0 0L1.17188 0L4.6875 4.6875L4.6875 5.85938C4.6875 7.15379 3.63817 8.20313 2.34375 8.20313C1.04933 8.20313 0 7.15379 0 5.85938L0 0Z" transform="translate(49.21875 42.1875)" id="Shape" fill="#F4AA34" fill-rule="evenodd" stroke="none" />
    <path d="M4.6875 0L4.6875 5.85938C4.6875 7.15379 3.63817 8.20313 2.34375 8.20313C1.04933 8.20313 0 7.15379 0 5.85938L0 2.34375L2.34375 0L4.6875 0Z" transform="translate(44.53125 42.1875)" id="Shape" fill="#F9BB4B" fill-rule="evenodd" stroke="none" />
    <path d="M26.9531 8.20313L19.9219 0L12.8906 7.03125L2.34375 7.03125C1.04933 7.03125 0 8.08058 0 9.375C0 10.6694 1.04933 11.7188 2.34375 11.7188L12.8906 11.7188L19.9219 21.0938L24.6094 21.0938L30.4688 23.4375L30.4688 8.20313L26.9531 8.20313Z" transform="translate(37.5 30.46875)" id="Shape" fill="#FFD782" fill-rule="evenodd" stroke="none" />
    <path d="M6.79688 6.5625L4.45312 6.5625C4.08427 6.5625 3.73693 6.38884 3.51562 6.09375L0 1.40625L1.875 0L5.03906 4.21875L6.79688 4.21875L6.79688 6.5625Z" transform="translate(57.65625 37.96875)" id="Shape" fill="#F9BB4B" fill-rule="evenodd" stroke="none" />
    <path d="M0 7.03125C0 3.148 3.148 0 7.03125 0C10.9145 0 14.0625 3.148 14.0625 7.03125C14.0625 10.9145 10.9145 14.0625 7.03125 14.0625C3.148 14.0625 0 10.9145 0 7.03125Z" transform="translate(17.578125 4.6875)" id="Circle" fill="#F98C96" fill-rule="evenodd" stroke="none" />
    <g id="Group" transform="translate(4.6875 22.265625)">
      <path d="M0 0L35.1563 0L35.1563 2.34375L0 2.34375L0 0Z" transform="translate(4.6875 0)" id="Shape" fill="#394D5C" fill-rule="evenodd" stroke="none" />
      <path d="M0 0L21.0938 0L21.0938 2.34375L0 2.34375L0 0Z" transform="translate(0 4.6875)" id="Shape" fill="#394D5C" fill-rule="evenodd" stroke="none" />
      <path d="M0 0L16.4063 0L16.4063 2.34375L0 2.34375L0 0Z" transform="translate(23.4375 4.6875)" id="Shape" fill="#394D5C" fill-rule="evenodd" stroke="none" />
      <path d="M0 0L9.375 0L9.375 2.34375L0 2.34375L0 0Z" transform="translate(0 9.375)" id="Shape" fill="#394D5C" fill-rule="evenodd" stroke="none" />
      <path d="M0 0L21.0938 0L21.0938 2.34375L0 2.34375L0 0Z" transform="translate(11.71875 9.375)" id="Shape" fill="#394D5C" fill-rule="evenodd" stroke="none" />
      <path d="M0 0L16.4063 0L16.4063 2.34375L0 2.34375L0 0Z" transform="translate(0 14.0625)" id="Shape" fill="#394D5C" fill-rule="evenodd" stroke="none" />
      <path d="M0 0L10.5469 0L10.5469 2.34375L0 2.34375L0 0Z" transform="translate(18.75 14.0625)" id="Shape" fill="#394D5C" fill-rule="evenodd" stroke="none" />
    </g>
    <path d="M0.740625 15.078L0 12.8514C1.85443 12.2088 3.65109 11.4103 5.37069 10.4643C4.50639 10.1103 3.72033 9.58943 3.05742 8.93148C1.78455 7.66542 1.39355 5.76023 2.06484 4.09516C2.83515 1.91496 4.75281 0.34318 7.0418 0.0158608C9.08932 -0.147513 11.0271 0.962864 11.9215 2.81196C12.7075 4.0535 12.8659 5.59179 12.3492 6.96743C12.1006 7.61384 11.751 8.21666 11.3133 8.75337C12.2459 8.64383 13.1663 8.44767 14.0625 8.16742C14.5635 7.99768 15.116 8.18681 15.4078 8.62797C15.6422 8.9643 16.3008 9.6686 16.8633 9.6686C17.3742 9.6686 17.884 9.01587 18.1418 8.62797C18.3602 8.30152 18.7276 8.10616 19.1203 8.10766L19.1273 8.10766C19.5213 8.1102 19.8876 8.31054 20.1023 8.64087C20.3367 8.99243 21.0164 9.73774 21.5859 9.73891C22.0793 9.73891 22.5785 9.10259 22.8316 8.72173C22.8749 8.65795 22.9239 8.59832 22.9781 8.5436L25.3219 6.19985L26.9789 7.85688L24.7148 10.1221C24.0762 11.267 22.897 12.0064 21.5883 12.0827L21.5684 12.0827C20.6641 12.0438 19.804 11.6811 19.1449 11.0608C18.5351 11.6599 17.718 12.0011 16.8633 12.0135C15.7653 11.9517 14.739 11.4483 14.018 10.6178C12.2675 11.0797 10.4569 11.2725 8.64844 11.1897C6.19501 12.828 3.53612 14.1354 0.740619 15.078L0.740625 15.078ZM7.50582 2.34082C7.42848 2.34082 7.35114 2.34082 7.27145 2.35254C5.88792 2.59712 4.74235 3.56593 4.27145 4.88965C3.91757 5.70169 4.0924 6.64728 4.71324 7.2791C5.61821 8.11003 6.76582 8.6288 7.98746 8.75918C8.92522 8.09797 9.67185 7.20096 10.1519 6.15879C10.4269 5.45147 10.3395 4.65444 9.91754 4.02363C9.48272 3.06316 8.55735 2.41747 7.50582 2.34082L7.50582 2.34082Z" transform="translate(7.8327637 44.53418)" id="Shape" fill="#2D75BB" fill-rule="evenodd" stroke="none" />
  </g>
</svg>