<?xml version="1.0" encoding="utf-8"?>
<svg width="118px" height="141px" viewbox="0 0 118 141" version="1.1" xmlns:xlink="http://www.w3.org/1999/xlink" xmlns="http://www.w3.org/2000/svg">
  <g id="Contact_form">
    <path d="M67.9687 18.75L2.34375 18.75C1.04933 18.75 0 17.7007 0 16.4063L0 2.34375C0 1.04933 1.04933 0 2.34375 0L67.9687 0C69.2632 0 70.3125 1.04933 70.3125 2.34375L70.3125 16.4063C70.3125 17.7007 69.2632 18.75 67.9687 18.75L67.9687 18.75ZM4.6875 14.0625L65.625 14.0625L65.625 4.6875L4.6875 4.6875L4.6875 14.0625Z" transform="translate(14.0625 9.375)" id="Shape" fill="#006C76" fill-rule="evenodd" stroke="none" />
    <path d="M2.34375 21.0649L16.4063 21.0649C17.7007 21.0649 18.75 20.0156 18.75 18.7212C18.75 17.4268 17.7007 16.3774 16.4063 16.3774L4.6875 16.3774L4.6875 7.00242L15.4359 7.00242L11.7188 10.7196L8.68828 7.68914C8.09983 7.07985 7.22841 6.83548 6.40895 7.04997C5.5895 7.26446 4.94954 7.90442 4.73505 8.72388C4.52056 9.54333 4.76493 10.4148 5.37422 11.0032L10.0617 15.6907C10.977 16.6057 12.4605 16.6057 13.3758 15.6907L25.0945 3.97195C25.9827 3.05231 25.97 1.59052 25.066 0.686471C24.1619 -0.217583 22.7001 -0.230299 21.7805 0.657888L18.5883 3.85008C18.2516 2.93391 17.3823 2.32235 16.4063 2.31492L2.34375 2.31492C1.04933 2.31492 0 3.36425 0 4.65867L0 18.7212C0 20.0156 1.04933 21.0649 2.34375 21.0649L2.34375 21.0649Z" transform="translate(14.0625 32.84131)" id="Shape" fill="#006C76" fill-rule="evenodd" stroke="none" />
    <path d="M21.7805 0.657888L18.5883 3.85007C18.2516 2.93392 17.3823 2.32235 16.4063 2.31492L2.34375 2.31492C1.04933 2.31492 0 3.36425 0 4.65867L0 18.7212C0 20.0156 1.04933 21.0649 2.34375 21.0649L16.4063 21.0649C17.7007 21.0649 18.75 20.0156 18.75 18.7212C18.75 17.4268 17.7007 16.3774 16.4063 16.3774L4.6875 16.3774L4.6875 7.00242L15.4359 7.00242L11.7188 10.7196L8.68828 7.68914C8.09983 7.07985 7.22841 6.83548 6.40895 7.04997C5.5895 7.26446 4.94954 7.90442 4.73505 8.72388C4.52056 9.54333 4.76493 10.4148 5.37422 11.0032L10.0617 15.6907C10.977 16.6057 12.4605 16.6057 13.3758 15.6907L25.0945 3.97195C25.9827 3.05231 25.97 1.59052 25.066 0.686471C24.1619 -0.217585 22.7001 -0.230299 21.7805 0.657888L21.7805 0.657888Z" transform="translate(14.0625 56.27887)" id="Shape" fill="#006C76" fill-rule="evenodd" stroke="none" />
    <path d="M21.7805 0.657955L18.5883 3.85014C18.2516 2.93398 17.3823 2.32242 16.4062 2.31499L2.34375 2.31499C1.04933 2.31499 0 3.36432 0 4.65874L0 18.7212C0 20.0157 1.04933 21.065 2.34375 21.065L16.4062 21.065C17.7007 21.065 18.75 20.0157 18.75 18.7212C18.75 17.4268 17.7007 16.3775 16.4062 16.3775L4.6875 16.3775L4.6875 7.00249L15.4359 7.00249L11.7187 10.7197L8.68828 7.6892C8.09982 7.07996 7.22841 6.83562 6.40898 7.05011C5.58955 7.26461 4.94961 7.90455 4.73512 8.72398C4.52063 9.54341 4.76497 10.4148 5.37422 11.0033L10.0617 15.6908C10.977 16.6057 12.4605 16.6057 13.3758 15.6908L25.0945 3.97202C25.9828 3.05238 25.9701 1.59055 25.066 0.686467C24.1619 -0.217608 22.7001 -0.230294 21.7805 0.657955L21.7805 0.657955Z" transform="translate(14.0625 79.71625)" id="Shape" fill="#006C76" fill-rule="evenodd" stroke="none" />
    <path d="M39.8437 4.6875L2.34375 4.6875C1.04933 4.6875 0 3.63817 0 2.34375C0 1.04933 1.04933 0 2.34375 0L39.8437 0C41.1382 0 42.1875 1.04933 42.1875 2.34375C42.1875 3.63817 41.1382 4.6875 39.8437 4.6875L39.8437 4.6875Z" transform="translate(42.1875 49.21869)" id="Shape" fill="#006C76" fill-rule="evenodd" stroke="none" />
    <path d="M39.8437 4.6875L2.34375 4.6875C1.04933 4.6875 0 3.63817 0 2.34375C0 1.04933 1.04933 0 2.34375 0L39.8437 0C41.1382 0 42.1875 1.04933 42.1875 2.34375C42.1875 3.63817 41.1382 4.6875 39.8437 4.6875L39.8437 4.6875Z" transform="translate(42.1875 49.21869)" id="Shape" fill="#006C76" fill-rule="evenodd" stroke="none" />
    <path d="M23.4375 4.6875L2.34375 4.6875C1.04933 4.6875 0 3.63817 0 2.34375C0 1.04933 1.04933 0 2.34375 0L23.4375 0C24.7319 0 25.7812 1.04933 25.7812 2.34375C25.7812 3.63817 24.7319 4.6875 23.4375 4.6875L23.4375 4.6875Z" transform="translate(42.1875 72.65619)" id="Shape" fill="#006C76" fill-rule="evenodd" stroke="none" />
    <path d="M111.009 75.2813L98.4375 62.7094L98.4375 2.34375C98.4375 1.04933 97.3882 0 96.0937 0L2.34375 0C1.04933 0 0 1.04933 0 2.34375L0 112.5C0 113.794 1.04933 114.844 2.34375 114.844L70.0172 114.844C69.0704 121.148 70.5132 127.579 74.0625 132.874L75 134.299L75 138.281C75 139.576 76.0493 140.625 77.3437 140.625C78.6382 140.625 79.6875 139.576 79.6875 138.281L79.6875 133.594C79.6875 133.133 79.5515 132.682 79.2964 132.298L77.9555 130.275C74.9231 125.743 73.7826 120.205 74.7773 114.844L82.7719 114.844C83.3217 117.456 84.4751 119.903 86.1399 121.99L87.2414 123.349C87.7603 124.024 88.6044 124.365 89.4464 124.239C90.2884 124.113 90.9958 123.54 91.2944 122.743C91.593 121.945 91.4357 121.049 90.8836 120.401L89.7937 119.053C86.0742 114.407 86.1725 107.776 90.0281 103.242C90.8233 102.312 90.7692 100.927 89.9039 100.062L77.6016 87.7641C75.7867 85.9258 75.7784 82.9727 77.5828 81.1242C79.4488 79.3579 82.368 79.3518 84.2414 81.1101L100.812 97.6805C101.731 98.5688 103.193 98.5561 104.097 97.652C105.001 96.7479 105.014 95.286 104.126 94.3664L98.4375 88.6781L98.4375 69.3375L107.695 78.5953C110.781 81.6663 112.511 85.8434 112.5 90.1969L112.5 122.306C112.503 124.621 111.818 126.884 110.531 128.808L109.001 131.107C108.226 132.271 107.818 133.641 107.829 135.04L107.845 138.295C107.852 139.585 108.899 140.627 110.189 140.627L110.201 140.627C111.488 140.616 112.525 139.568 112.523 138.281L112.5 135.014C112.498 134.547 112.635 134.09 112.894 133.702L114.424 131.405C116.228 128.712 117.19 125.544 117.187 122.304L117.187 90.1945C117.202 84.5974 114.977 79.2274 111.009 75.2809L111.009 75.2813ZM87.5414 77.782C83.8228 74.2448 77.9808 74.254 74.2734 77.8031C70.6468 81.4823 70.6468 87.3919 74.2734 91.0711L85.1508 101.953C83.562 104.41 82.6351 107.236 82.4602 110.156L4.6875 110.156L4.6875 4.6875L93.75 4.6875L93.75 83.9906L87.5414 77.782Z" id="Shape" fill="#006C76" fill-rule="evenodd" stroke="none" />
    <path d="M0 2.34375C0 3.63817 1.04933 4.6875 2.34375 4.6875L30.4687 4.6875C31.7632 4.6875 32.8125 3.63817 32.8125 2.34375C32.8125 1.04933 31.7632 0 30.4687 0L2.34375 0C1.04933 0 0 1.04933 0 2.34375L0 2.34375Z" transform="translate(42.1875 96.09369)" id="Shape" fill="#006C76" fill-rule="evenodd" stroke="none" />
    <path d="M39.8437 4.6875L2.34375 4.6875C1.04933 4.6875 0 3.63817 0 2.34375C0 1.04933 1.04933 0 2.34375 0L39.8437 0C41.1382 0 42.1875 1.04933 42.1875 2.34375C42.1875 3.63817 41.1382 4.6875 39.8437 4.6875L39.8437 4.6875Z" transform="translate(42.1875 39.84375)" id="Shape" fill="#006C76" fill-rule="evenodd" stroke="none" />
    <path d="M39.8437 4.6875L2.34375 4.6875C1.04933 4.6875 0 3.63817 0 2.34375C0 1.04933 1.04933 0 2.34375 0L39.8437 0C41.1382 0 42.1875 1.04933 42.1875 2.34375C42.1875 3.63817 41.1382 4.6875 39.8437 4.6875L39.8437 4.6875Z" transform="translate(42.1875 63.28119)" id="Shape" fill="#006C76" fill-rule="evenodd" stroke="none" />
    <path d="M23.4375 4.6875L2.34375 4.6875C1.04933 4.6875 0 3.63817 0 2.34375C0 1.04933 1.04933 0 2.34375 0L23.4375 0C24.7319 0 25.7812 1.04933 25.7812 2.34375C25.7812 3.63817 24.7319 4.6875 23.4375 4.6875L23.4375 4.6875Z" transform="translate(42.1875 86.71869)" id="Shape" fill="#006C76" fill-rule="evenodd" stroke="none" />
  </g>
</svg>