<?xml version="1.0" encoding="utf-8"?>
<svg width="30px" height="30px" viewBox="0 0 30 30" version="1.1" xmlns:xlink="http://www.w3.org/1999/xlink" xmlns="http://www.w3.org/2000/svg">
  <desc>Created with Lunacy</desc>
  <defs>
    <path d="M0 0L30 0L30 30L0 30L0 0Z" id="path_1" />
    <clipPath id="mask_1">
      <use xlink:href="#path_1" />
    </clipPath>
  </defs>
  <g id="fullscreen_1">
    <path d="M0 0L30 0L30 30L0 30L0 0Z" id="Background" fill="none" fill-rule="evenodd" stroke="none" />
    <g clip-path="url(#mask_1)">
      <g id="Solid" transform="translate(1.40625 1.40625)">
        <path d="M4.6875 2.8125L7.5 2.8125C8.27665 2.8125 8.90625 2.1829 8.90625 1.40625C8.90625 0.629599 8.27665 0 7.5 0L1.40625 0C0.629599 0 0 0.6296 0 1.40625L0 7.5C0 8.27665 0.629599 8.90625 1.40625 8.90625C2.1829 8.90625 2.8125 8.27665 2.8125 7.5L2.8125 4.6875L9.60938 11.4844C9.85801 11.733 10.1952 11.8727 10.5469 11.8727C10.8985 11.8727 11.2357 11.733 11.4844 11.4844C11.733 11.2357 11.8727 10.8985 11.8727 10.5469C11.8727 10.1952 11.733 9.85801 11.4844 9.60938L4.6875 2.8125Z" id="Shape" fill="#000000" fill-rule="evenodd" stroke="none" />
        <path d="M11.4844 0.388336C11.2357 0.139689 10.8985 0 10.5469 0C10.1952 0 9.85801 0.139689 9.60938 0.388336L2.8125 7.18521L2.8125 4.37271C2.8125 3.59606 2.1829 2.96646 1.40625 2.96646C0.629599 2.96646 0 3.59606 0 4.37271L0 10.4665C0 11.2431 0.629599 11.8727 1.40625 11.8727L7.5 11.8727C8.27665 11.8727 8.90625 11.2431 8.90625 10.4665C8.90625 9.68981 8.27665 9.06021 7.5 9.06021L4.6875 9.06021L11.4844 2.26334C11.733 2.0147 11.8727 1.67747 11.8727 1.32584C11.8727 0.974203 11.733 0.636973 11.4844 0.388336L11.4844 0.388336Z" transform="translate(0 15.31479)" id="Shape" fill="#000000" fill-rule="evenodd" stroke="none" />
        <path d="M10.4665 0L4.37271 0C3.59606 0 2.96646 0.6296 2.96646 1.40625C2.96646 2.1829 3.59606 2.8125 4.37271 2.8125L7.18521 2.8125L0.388336 9.60938C0.139689 9.85801 0 10.1952 0 10.5469C0 10.8985 0.139689 11.2357 0.388336 11.4844C0.636973 11.733 0.974203 11.8727 1.32584 11.8727C1.67747 11.8727 2.0147 11.733 2.26334 11.4844L9.06021 4.6875L9.06021 7.5C9.06021 8.27665 9.68981 8.90625 10.4665 8.90625C11.2431 8.90625 11.8727 8.27665 11.8727 7.5L11.8727 1.40625C11.8727 0.629599 11.2431 0 10.4665 0L10.4665 0Z" transform="translate(15.314819 0)" id="Shape" fill="#000000" fill-rule="evenodd" stroke="none" />
        <path d="M10.4665 2.96646C9.68981 2.96646 9.06021 3.59606 9.06021 4.37271L9.06021 7.18521L2.26334 0.388336C2.0147 0.139689 1.67747 0 1.32584 0C0.974203 0 0.636973 0.139689 0.388336 0.388336C0.139689 0.636973 0 0.974203 0 1.32584C0 1.67747 0.139689 2.0147 0.388336 2.26334L7.18521 9.06021L4.37271 9.06021C3.59606 9.06021 2.96646 9.68981 2.96646 10.4665C2.96646 11.2431 3.59606 11.8727 4.37271 11.8727L10.4665 11.8727C11.2431 11.8727 11.8727 11.2431 11.8727 10.4665L11.8727 4.37271C11.8727 3.59606 11.2431 2.96646 10.4665 2.96646L10.4665 2.96646Z" transform="translate(15.314819 15.314789)" id="Shape" fill="#000000" fill-rule="evenodd" stroke="none" />
      </g>
    </g>
  </g>
</svg>