<?xml version="1.0" encoding="utf-8"?>
<svg width="34px" height="40px" viewbox="0 0 34 40" version="1.1" xmlns:xlink="http://www.w3.org/1999/xlink" xmlns="http://www.w3.org/2000/svg">
  <path d="M9.63436 19.2681C12.2814 19.2681 14.5736 18.3187 16.4465 16.4456C18.3193 14.5727 19.2687 12.2811 19.2687 9.63375C19.2687 6.98728 18.3193 4.69542 16.4462 2.82195C14.573 0.949398 12.2811 0 9.63436 0C6.98697 0 4.69542 0.949398 2.82256 2.82225C0.949703 4.69511 0 6.98697 0 9.63375C0 12.2811 0.949703 14.573 2.82286 16.4459C4.69603 18.3184 6.98789 19.2681 9.63436 19.2681L9.63436 19.2681Z" transform="translate(6.799286 0)" id="Shape" fill="#FFFFFF" fill-rule="evenodd" stroke="none" />
  <path d="M33.2912 11.4364C33.2372 10.657 33.1279 9.80678 32.9671 8.90896C32.8047 8.00442 32.5957 7.14932 32.3455 6.36777C32.087 5.55998 31.7354 4.76225 31.3008 3.99779C30.8498 3.20433 30.32 2.51342 29.7255 1.94488C29.1039 1.35009 28.3428 0.871884 27.4627 0.523069C26.5856 0.176086 25.6136 0.000305175 24.5739 0.000305175C24.1656 0.000305175 23.7707 0.167846 23.008 0.664365C22.5387 0.970455 21.9897 1.32446 21.3769 1.716C20.8529 2.04986 20.143 2.36266 19.2663 2.64586C18.4109 2.92266 17.5424 3.06304 16.6851 3.06304C15.8279 3.06304 14.9597 2.92266 14.1033 2.64586C13.2275 2.36297 12.5177 2.05016 11.9943 1.7163C11.3873 1.32842 10.838 0.974422 10.3616 0.66406C9.59988 0.167541 9.20468 0 8.79635 0C7.75632 0 6.78464 0.176086 5.90788 0.523374C5.02836 0.871579 4.26695 1.34979 3.6447 1.94518C3.05053 2.51403 2.52044 3.20464 2.07 3.99779C1.63574 4.76225 1.28417 5.55967 1.02539 6.36808C0.775449 7.14963 0.566404 8.00442 0.404051 8.90896C0.243224 9.80556 0.133972 10.6561 0.0799558 11.4373C0.0268554 12.2027 0 12.9971 0 13.7994C0 15.8874 0.663755 17.5777 1.97265 18.8244C3.26537 20.0545 4.97587 20.6786 7.05594 20.6786L26.3161 20.6786C28.3962 20.6786 30.1061 20.0549 31.3991 18.8244C32.7083 17.5787 33.3721 15.888 33.3721 13.7991C33.3718 12.9931 33.3446 12.1981 33.2912 11.4364L33.2912 11.4364Z" transform="translate(0 19.321518)" id="Shape" fill="#FFFFFF" fill-rule="evenodd" stroke="none" />
</svg>