<?xml version="1.0" encoding="utf-8"?>
<svg width="64px" height="64px" viewbox="0 0 64 64" version="1.1" xmlns:xlink="http://www.w3.org/1999/xlink" xmlns="http://www.w3.org/2000/svg">
  <defs>
    <rect width="64" height="64" id="artboard_1" />
    <clipPath id="clip_1">
      <use xlink:href="#artboard_1" clip-rule="evenodd" />
    </clipPath>
  </defs>
  <g id="Quad-HD-Copy" clip-path="url(#clip_1)">
    <g id="Group" transform="translate(4 4)">
      <path d="M0 27.5C0 12.3122 12.3122 0 27.5 0C42.6878 0 55 12.3122 55 27.5C55 42.6878 42.6878 55 27.5 55C12.3122 55 0 42.6878 0 27.5Z" id="Ellipse" fill="none" fill-rule="evenodd" stroke="#006C76" stroke-width="2" />
      <g id="planning" transform="translate(12.5 12.5)">
        <g id="Group" transform="translate(17.578125 17.695312)">
          <g id="Group">
            <path d="M6.15234 0C2.76029 0 0 2.76029 0 6.15234C0 9.54439 2.76029 12.3047 6.15234 12.3047C9.54439 12.3047 12.4219 9.54439 12.4219 6.15234C12.4219 2.76029 9.54439 0 6.15234 0L6.15234 0ZM7.91016 7.03125L6.15234 7.03125C5.66654 7.03125 5.27344 6.63814 5.27344 6.15234L5.27344 4.39453C5.27344 3.90873 5.66654 3.51563 6.15234 3.51563C6.63815 3.51563 7.03125 3.90873 7.03125 4.39453L7.03125 5.27344L7.91016 5.27344C8.39596 5.27344 8.78906 5.66654 8.78906 6.15234C8.78906 6.63814 8.39596 7.03125 7.91016 7.03125L7.91016 7.03125Z" id="Shape" fill="#006C76" fill-rule="evenodd" stroke="none" />
          </g>
        </g>
        <g id="Group" transform="translate(0 22.089844)">
          <g id="Group">
            <path d="M3.51563 0L1.75781 0C0.786973 0 0 0.786972 0 1.75781C0 2.72853 0.786973 3.51562 1.75781 3.51562L3.51563 3.51562C4.48647 3.51562 5.27344 2.72853 5.27344 1.75781C5.27344 0.786972 4.48647 0 3.51563 0L3.51563 0Z" id="Shape" fill="#006C76" fill-rule="evenodd" stroke="none" />
          </g>
        </g>
        <g id="Group" transform="translate(0 13.300781)">
          <g id="Group">
            <path d="M3.51563 0L1.75781 0C0.786973 0 0 0.786973 0 1.75781C0 2.72853 0.786973 3.51563 1.75781 3.51563L3.51563 3.51563C4.48647 3.51563 5.27344 2.72853 5.27344 1.75781C5.27344 0.786973 4.48647 0 3.51563 0L3.51563 0Z" id="Shape" fill="#006C76" fill-rule="evenodd" stroke="none" />
          </g>
        </g>
        <g id="Group" transform="translate(0 4.3945312)">
          <g id="Group">
            <path d="M3.51563 0L1.75781 0C0.786973 0 0 0.786973 0 1.75781C0 2.72854 0.786973 3.51563 1.75781 3.51563L3.51563 3.51563C4.48647 3.51563 5.27344 2.72854 5.27344 1.75781C5.27344 0.786973 4.48647 0 3.51563 0L3.51563 0Z" id="Shape" fill="#006C76" fill-rule="evenodd" stroke="none" />
          </g>
        </g>
        <g id="Group" transform="translate(3.515625 0)">
          <g id="Group">
            <path d="M21.9727 0L2.63672 0C1.18277 0 0 1.18277 0 2.63672C1.93893 2.63672 3.51563 4.21342 3.51563 6.15234C3.51563 8.09127 1.93893 9.66797 0 9.66797L0 11.543C1.93893 11.543 3.51563 13.1197 3.51563 15.0586C3.51563 16.9975 1.93893 18.5742 0 18.5742L0 20.332C1.93893 20.332 3.51563 21.9087 3.51563 23.8477C3.51563 25.7866 1.93893 27.3633 0 27.3633C0 28.8172 1.18277 30 2.63672 30L15.3043 30C13.491 28.5492 12.3047 26.3453 12.3047 23.8477C12.3047 19.4858 15.853 15.9375 20.2148 15.9375C21.8404 15.9375 23.4685 16.4325 24.7266 17.2765L24.7266 2.63672C24.7266 1.18277 23.4266 0 21.9727 0L21.9727 0ZM12.0472 19.1956L8.53154 22.7112C8.35986 22.8829 8.13498 22.9688 7.91016 22.9688C7.68533 22.9688 7.46039 22.8829 7.28877 22.7112L5.28375 20.7062C4.94045 20.3629 4.94045 19.8067 5.28375 19.4634C5.62705 19.1201 6.18328 19.1201 6.52658 19.4634L7.91016 20.847L10.8044 17.9528C11.1477 17.6095 11.7039 17.6095 12.0472 17.9528C12.3905 18.2961 12.3905 18.8523 12.0472 19.1956L12.0472 19.1956ZM12.0472 12.1644L8.53161 15.68C8.35993 15.8517 8.13505 15.9375 7.91022 15.9375C7.6854 15.9375 7.46046 15.8517 7.28884 15.68L5.28382 13.675C4.9404 13.3317 4.9404 12.7755 5.28376 12.4322C5.62706 12.0889 6.18329 12.0889 6.52659 12.4322L7.91016 13.8158L10.8044 10.9215C11.1477 10.5782 11.7039 10.5782 12.0472 10.9215C12.3905 11.2648 12.3905 11.8211 12.0472 12.1644L12.0472 12.1644ZM12.0472 5.01592L8.53161 8.53154C8.35993 8.70322 8.13505 8.78906 7.91022 8.78906C7.6854 8.78906 7.46046 8.70322 7.28884 8.53154L5.28382 6.52652C4.9404 6.18322 4.9404 5.62705 5.28376 5.28375C5.62706 4.94045 6.18329 4.94045 6.52659 5.28375L7.91016 6.66732L10.8044 3.77309C11.1477 3.42978 11.7039 3.42978 12.0472 3.77309C12.3905 4.11639 12.3905 4.67262 12.0472 5.01592L12.0472 5.01592ZM20.2148 14.1797L14.9414 14.1797C14.4556 14.1797 14.0625 13.7866 14.0625 13.3008C14.0625 12.815 14.4556 12.4219 14.9414 12.4219L20.2148 12.4219C20.7006 12.4219 21.0938 12.815 21.0938 13.3008C21.0938 13.7866 20.7006 14.1797 20.2148 14.1797L20.2148 14.1797ZM20.2148 7.03125L14.9414 7.03125C14.4556 7.03125 14.0625 6.63814 14.0625 6.15234C14.0625 5.66654 14.4556 5.27344 14.9414 5.27344L20.2148 5.27344C20.7006 5.27344 21.0938 5.66654 21.0938 6.15234C21.0938 6.63814 20.7006 7.03125 20.2148 7.03125L20.2148 7.03125Z" id="Shape" fill="#006C76" fill-rule="evenodd" stroke="none" />
          </g>
        </g>
      </g>
    </g>
  </g>
</svg>