<?xml version="1.0" encoding="utf-8"?>
<svg width="50px" height="50px" viewbox="0 0 50 50" version="1.1" xmlns:xlink="http://www.w3.org/1999/xlink" xmlns="http://www.w3.org/2000/svg">
  <defs>
    <path d="M0 0L40 0L40 39.9999L0 39.9999L0 0Z" id="path_1" />
    <rect width="50" height="50" id="artboard_1" />
    <clipPath id="clip_1">
      <use xlink:href="#artboard_1" clip-rule="evenodd" />
    </clipPath>
    <clipPath id="mask_1">
      <use xlink:href="#path_1" />
    </clipPath>
  </defs>
  <g id="Pixelbook" clip-path="url(#clip_1)">
    <g id="home-(1)" transform="translate(5 5)">
      <path d="M0 0L40 0L40 39.9999L0 39.9999L0 0Z" id="Background" fill="none" fill-rule="evenodd" stroke="none" />
      <g clip-path="url(#mask_1)">
        <g id="Group" transform="translate(-4.863739E-05 4.0837936)">
          <g id="Group">
            <path d="M14.2908 0L0.0250268 11.7606C0.0250268 11.7772 0.0208559 11.8017 0.0125134 11.8349C0.00434461 11.868 0 11.892 0 11.909L0 23.8179C0 24.2479 0.157202 24.6205 0.471521 24.9343C0.785752 25.2483 1.15786 25.4062 1.58793 25.4062L11.1148 25.4062L11.1148 15.8788L17.4669 15.8788L17.4669 25.4066L26.9937 25.4066C27.4237 25.4066 27.7963 25.249 28.1101 24.9343C28.4245 24.6208 28.5822 24.2479 28.5822 23.8179L28.5822 11.909C28.5822 11.8429 28.5731 11.7931 28.5571 11.7606L14.2908 0L14.2908 0Z" transform="translate(5.70922 6.4258385)" id="Shape" fill="#006C76" fill-rule="evenodd" stroke="none" />
            <path d="M39.7241 15.5068L34.2909 10.9913L34.2909 0.868567C34.2909 0.637152 34.2165 0.44684 34.0672 0.297893C33.9191 0.14912 33.7288 0.0747336 33.4969 0.0747336L28.7333 0.0747336C28.5017 0.0747336 28.3114 0.14912 28.1624 0.297893C28.0137 0.44684 27.9394 0.637239 27.9394 0.868567L27.9394 5.70656L21.8858 0.64506C21.3571 0.214991 20.7284 0 20.0006 0C19.2728 0 18.6442 0.214991 18.115 0.64506L0.275696 15.5068C0.110325 15.6389 0.0196879 15.8167 0.00282925 16.04C-0.0139425 16.2632 0.0438462 16.4581 0.176369 16.6234L1.71459 18.4594C1.84711 18.6082 2.02057 18.6992 2.23564 18.7325C2.43421 18.7492 2.63278 18.6911 2.83134 18.5588L20 4.24273L37.1689 18.5588C37.3015 18.6742 37.4749 18.7318 37.69 18.7318L37.7645 18.7318C37.9793 18.6991 38.1524 18.6075 38.2856 18.4591L39.824 16.6233C39.9563 16.4577 40.0142 16.2631 39.997 16.0397C39.9801 15.817 39.8891 15.6392 39.7241 15.5068L39.7241 15.5068Z" id="Shape" fill="#006C76" fill-rule="evenodd" stroke="none" />
          </g>
        </g>
      </g>
    </g>
  </g>
</svg>