<?xml version="1.0" encoding="utf-8"?>
<svg width="30px" height="30px" viewbox="0 0 30 30" version="1.1" xmlns:xlink="http://www.w3.org/1999/xlink" xmlns="http://www.w3.org/2000/svg">
  <defs>
    <path d="M0 0L30 0L30 30L0 30L0 0Z" id="path_1" />
    <clipPath id="mask_1">
      <use xlink:href="#path_1" />
    </clipPath>
  </defs>
  <g id="digital-signature">
    <path d="M0 0L30 0L30 30L0 30L0 0Z" id="Background" fill="none" fill-rule="evenodd" stroke="none" />
    <g clip-path="url(#mask_1)">
      <g id="Digital_signature" transform="translate(0.9375 0.9375)">
        <path d="M0 4.77656L3.09375 2.23125L4.17656 0.356247L2.0625 0.356247C1.71986 0.355595 1.38946 0.228775 1.13437 0L0.656251 0.824997L0 4.77656Z" transform="translate(11.062502 16.987505)" id="Shape" fill="#9BC9FF" fill-rule="evenodd" stroke="none" />
        <path d="M1.42031 1.87523C1.68281 1.8735 1.93271 1.76245 2.10992 1.56879C2.28712 1.37513 2.3756 1.11637 2.35406 0.854757C2.29351 0.358922 1.86722 -0.0104392 1.36782 0.000225306L1.08281 0.0002262L0 1.87523L1.42031 1.87523Z" transform="translate(16.860939 12.656025)" id="Shape" fill="#9BC9FF" fill-rule="evenodd" stroke="none" />
        <path d="M0 0L3.75 0L3.75 3.75L0 3.75L0 0Z" transform="translate(4.218752 5.156251)" id="Shape" fill="none" fill-rule="evenodd" stroke="none" />
        <path d="M0 0L3.75 0L3.75 3.75L0 3.75L0 0Z" transform="translate(4.218752 5.156251)" id="Shape" fill="none" fill-rule="evenodd" stroke="none" />
        <path d="M13.5938 25.3125L2.34375 25.3125C2.08487 25.3125 1.875 25.1026 1.875 24.8438L1.875 2.34375C1.875 2.08487 2.08487 1.875 2.34375 1.875L4.21875 1.875C4.22031 2.39215 4.63915 2.81097 5.15627 2.8125L10.7813 2.8125C11.2984 2.81096 11.7172 2.39213 11.7188 1.875L13.5938 1.875C13.8526 1.875 14.0625 2.08487 14.0625 2.34375L14.0625 8.58703C14.3737 8.48946 14.6978 8.43906 15.0239 8.4375L15.9375 8.4375L15.9375 1.875C15.9375 0.839466 15.098 0 14.0625 0L1.875 0C0.839466 0 0 0.839466 0 1.875L0 25.3125C0 26.348 0.839466 27.1875 1.875 27.1875L14.0625 27.1875C15.098 27.1875 15.9375 26.348 15.9375 25.3125L15.9375 16.875L14.7703 16.875L14.0625 18.1008L14.0625 24.8438C14.0625 25.1026 13.8526 25.3125 13.5938 25.3125L13.5938 25.3125Z" transform="translate(0.46875203 0.46875113)" id="Shape" fill="#9BC9FF" fill-rule="evenodd" stroke="none" />
        <path d="M8.5125 1.40625L6.075 0L3.24844 4.89375L1.85625 7.30312L0 10.5187L3.24844 10.5187L4.33125 8.64375L6.49688 4.89375L8.5125 1.40625Z" transform="translate(13.612502 4.0125017)" id="Shape" fill="#9BC9FF" fill-rule="evenodd" stroke="none" />
        <path d="M1.17188 0.704141L0 2.73383L2.4375 4.14008L3.60938 2.11039C3.9977 1.43729 3.76685 0.576842 3.09375 0.188516C2.42065 -0.199809 1.5602 0.0310443 1.17188 0.704141L1.17188 0.704141Z" transform="translate(19.687502 1.2763284)" id="Shape" fill="#9BC9FF" fill-rule="evenodd" stroke="none" />
        <path d="M0 0L3.75 0L3.75 3.75L0 3.75L0 0Z" transform="translate(4.218752 5.156251)" id="Shape" fill="#9BC9FF" fill-rule="evenodd" stroke="none" />
        <g id="Group">
          <path d="M27.6563 17.8125L22.448 17.8125C21.9386 17.812 21.4362 17.6934 20.9803 17.4661L20.6888 17.3203C20.1026 17.0282 19.4569 16.8758 18.802 16.875L13.125 16.875C12.8972 16.8737 12.6778 16.789 12.5081 16.6369C12.4703 16.6051 12.4348 16.5704 12.4022 16.5333C12.2661 16.3678 12.1904 16.161 12.1875 15.9469C12.1899 15.7105 12.2872 15.485 12.4575 15.3211C12.6563 15.1185 12.9274 15.003 13.2113 15L18.2813 15C18.6525 15.0027 19.009 14.8549 19.2694 14.5903C19.5681 14.2983 19.7198 13.8875 19.6823 13.4714C19.6246 12.9133 19.2425 12.4421 18.7083 12.2705L20.3813 9.375L21.1828 9.375C21.8786 9.37434 22.5386 9.68361 22.9833 10.2187L23.6395 11.0072C24.2623 11.7564 25.1867 12.1891 26.1609 12.1875L27.6563 12.1875C27.9151 12.1875 28.125 11.9776 28.125 11.7187C28.125 11.4599 27.9151 11.25 27.6563 11.25L26.1609 11.25C25.4651 11.2507 24.8052 10.9414 24.3605 10.4062L23.7042 9.61781C23.0814 8.86859 22.1571 8.43591 21.1828 8.4375L20.9227 8.4375L23.7009 3.62109C24.2104 2.7251 23.9011 1.5859 23.0085 1.07054C22.1159 0.555182 20.9747 0.856917 20.4534 1.74609L16.875 7.94531L16.875 2.34375C16.8733 1.04975 15.8248 0.00142783 14.531 0L2.34375 6.70552e-07C1.04998 0.00154987 0.00154942 1.04998 0 2.34375L2.23517e-07 25.7813C0.00167146 27.0752 1.0502 28.1236 2.34397 28.125L14.5313 28.125C15.825 28.1235 16.8734 27.075 16.875 25.7813L16.875 17.8125L18.802 17.8125C19.3114 17.813 19.8138 17.9316 20.2697 18.1589L20.5613 18.3047C21.1474 18.5968 21.7931 18.7492 22.448 18.75L27.6563 18.75C27.9151 18.75 28.125 18.5401 28.125 18.2813C28.125 18.0224 27.9151 17.8125 27.6563 17.8125L27.6563 17.8125ZM14.0625 8.72297C13.2962 9.03877 12.6557 9.5991 12.2409 10.3167L9.34406 15.3581C9.15757 15.6816 9.10737 16.066 9.20453 16.4265C9.30169 16.787 9.53824 17.0941 9.86203 17.28C10.2158 17.4855 10.6177 17.5939 11.0269 17.5941C11.1233 17.5933 11.2196 17.5864 11.3152 17.5734L11.3152 17.5772C11.2866 17.6259 11.2673 17.6794 11.2584 17.7352L10.6022 21.6872C10.5704 21.8798 10.6612 22.0719 10.8303 22.1695C10.9993 22.2671 11.2111 22.2498 11.362 22.1259L14.0625 19.9031L14.0625 25.3125L2.8125 25.3125L2.8125 2.8125L4.29891 2.8125C4.49829 3.37392 5.02923 3.74927 5.625 3.75L11.25 3.75C11.8458 3.74927 12.3767 3.37392 12.5761 2.8125L14.0625 2.8125L14.0625 8.72297ZM14.4267 17.8125L13.793 18.9108L11.7305 20.6081L12.1683 17.9738L12.3619 17.6391C12.6009 17.7508 12.8612 17.8099 13.125 17.8125L14.4267 17.8125ZM11.7914 14.6616C11.4442 15.0028 11.2491 15.4694 11.25 15.9563C11.2537 16.1781 11.2965 16.3976 11.3766 16.6045C11.0233 16.6992 10.647 16.6502 10.3298 16.4681C10.1055 16.3394 10.0279 16.0532 10.1564 15.8288L13.0542 10.7859C13.5567 9.91438 14.4857 9.37668 15.4917 9.375L16.0481 9.375L13.3416 14.0625L13.2113 14.0625C12.6773 14.0662 12.1667 14.2817 11.7914 14.6616L11.7914 14.6616ZM18.2288 13.125C18.485 13.1145 18.7087 13.297 18.75 13.5502C18.7632 13.6901 18.7114 13.8284 18.6094 13.9252C18.5236 14.0142 18.4049 14.0639 18.2813 14.0625L17.6719 14.0625L18.2133 13.125L18.2288 13.125ZM16.5905 14.0625L14.4248 14.0625L19.8591 4.65281L21.4842 5.59031L16.5905 14.0625ZM21.2653 2.21484C21.5259 1.77026 22.0965 1.61939 22.5429 1.87707C22.9892 2.13475 23.1438 2.70435 22.8891 3.15235L21.9516 4.77609L20.3278 3.83859L21.2653 2.21484ZM15.9375 25.7813C15.9375 26.5579 15.3079 27.1875 14.5313 27.1875L2.34375 27.1875C1.5671 27.1875 0.937502 26.5579 0.937502 25.7813L0.937502 2.34375C0.937502 1.5671 1.5671 0.937501 2.34375 0.937501L14.5313 0.937501C15.3079 0.937501 15.9375 1.5671 15.9375 2.34375L15.9375 8.4375L15.4927 8.4375C15.3279 8.43757 15.1633 8.44853 15 8.47031L15 2.8125C15 2.29473 14.5803 1.875 14.0625 1.875L12.1875 1.875C11.9286 1.875 11.7188 2.08487 11.7188 2.34375C11.7188 2.60263 11.5089 2.8125 11.25 2.8125L5.625 2.8125C5.36612 2.8125 5.15625 2.60263 5.15625 2.34375C5.15625 2.08487 4.94639 1.875 4.6875 1.875L2.8125 1.875C2.29473 1.875 1.875 2.29473 1.875 2.8125L1.875 25.3125C1.875 25.8303 2.29473 26.25 2.8125 26.25L14.0625 26.25C14.5803 26.25 15 25.8303 15 25.3125L15 18.75C14.9979 18.7363 14.9951 18.7227 14.9916 18.7092L15.5095 17.8125L15.9375 17.8125L15.9375 25.7813Z" id="Shape" fill="#1E81CE" fill-rule="evenodd" stroke="none" />
          <path d="M4.72707 1.75642L4.15801 2.13564C4.4182 1.32068 4.00714 0.442783 3.21458 0.120748C2.42203 -0.201287 1.51514 0.141102 1.13317 0.906576L0.0494152 3.07408C-0.0254519 3.22398 -0.0146502 3.40243 0.077751 3.54221C0.170152 3.68199 0.330111 3.76184 0.49736 3.75169C0.66461 3.74154 0.813734 3.64292 0.88855 3.49299L1.97223 1.32564C2.13674 0.99795 2.52627 0.852787 2.86511 0.992902C3.20395 1.13302 3.3772 1.5109 3.26223 1.85908L2.8366 3.13548C2.77416 3.32496 2.83849 3.53319 2.99691 3.65444C3.15534 3.77569 3.37315 3.78338 3.53973 3.67361L5.24504 2.53642C5.37191 2.45183 5.532 2.43424 5.67421 2.48926C5.81642 2.54428 5.92298 2.66503 5.95988 2.81298L6.10613 3.39752C6.15855 3.60676 6.34699 3.75322 6.5627 3.75236L8.90645 3.75236C9.16533 3.75236 9.3752 3.54249 9.3752 3.28361C9.3752 3.02473 9.16533 2.81486 8.90645 2.81486L6.92879 2.81486L6.8716 2.58564C6.76077 2.14188 6.44104 1.77974 6.01442 1.61478C5.58781 1.44982 5.10762 1.50266 4.72707 1.75642L4.72707 1.75642Z" transform="translate(3.749805 20.622644)" id="Shape" fill="#1E81CE" fill-rule="evenodd" stroke="none" />
          <path d="M0.46875 4.6875L4.21875 4.6875C4.47763 4.6875 4.6875 4.47763 4.6875 4.21875L4.6875 0.46875C4.6875 0.209866 4.47763 0 4.21875 0L0.46875 0C0.209866 0 0 0.209867 0 0.46875L0 4.21875C0 4.47763 0.209866 4.6875 0.46875 4.6875L0.46875 4.6875ZM0.9375 0.9375L3.75 0.9375L3.75 3.75L0.9375 3.75L0.9375 0.9375Z" transform="translate(3.750002 4.687501)" id="Shape" fill="#1E81CE" fill-rule="evenodd" stroke="none" />
          <path d="M0 0.46875C0 0.727633 0.209867 0.9375 0.46875 0.9375L3.28125 0.9375C3.54013 0.9375 3.75 0.727634 3.75 0.46875C3.75 0.209866 3.54013 0 3.28125 0L0.46875 0C0.209867 0 0 0.209867 0 0.46875L0 0.46875Z" transform="translate(9.375002 4.687501)" id="Shape" fill="#1E81CE" fill-rule="evenodd" stroke="none" />
          <path d="M3.28125 0L0.46875 0C0.209867 0 0 0.209867 0 0.46875C0 0.727633 0.209867 0.9375 0.46875 0.9375L3.28125 0.9375C3.54013 0.9375 3.75 0.727633 3.75 0.46875C3.75 0.209867 3.54013 0 3.28125 0L3.28125 0Z" transform="translate(9.375002 6.562501)" id="Shape" fill="#1E81CE" fill-rule="evenodd" stroke="none" />
          <path d="M2.34375 0L0.46875 0C0.209867 0 0 0.209867 0 0.46875C0 0.727633 0.209867 0.9375 0.46875 0.9375L2.34375 0.9375C2.60263 0.9375 2.8125 0.727633 2.8125 0.46875C2.8125 0.209867 2.60263 0 2.34375 0L2.34375 0Z" transform="translate(9.375002 8.437501)" id="Shape" fill="#1E81CE" fill-rule="evenodd" stroke="none" />
          <path d="M5.625 0L0.46875 0C0.209866 0 0 0.209867 0 0.46875C0 0.727633 0.209866 0.9375 0.46875 0.9375L5.625 0.9375C5.88388 0.9375 6.09375 0.727633 6.09375 0.46875C6.09375 0.209867 5.88388 0 5.625 0L5.625 0Z" transform="translate(3.750002 11.250001)" id="Shape" fill="#1E81CE" fill-rule="evenodd" stroke="none" />
          <path d="M0.46875 0.9375L4.21875 0.9375C4.47763 0.9375 4.6875 0.727633 4.6875 0.46875C4.6875 0.209867 4.47763 0 4.21875 0L0.46875 0C0.209866 0 0 0.209867 0 0.46875C0 0.727633 0.209866 0.9375 0.46875 0.9375L0.46875 0.9375Z" transform="translate(3.750002 13.125001)" id="Shape" fill="#1E81CE" fill-rule="evenodd" stroke="none" />
          <path d="M0.46875 0.9375L4.21875 0.9375C4.47763 0.9375 4.6875 0.727633 4.6875 0.46875C4.6875 0.209867 4.47763 0 4.21875 0L0.46875 0C0.209866 0 0 0.209867 0 0.46875C0 0.727633 0.209866 0.9375 0.46875 0.9375L0.46875 0.9375Z" transform="translate(3.750002 15.000002)" id="Shape" fill="#1E81CE" fill-rule="evenodd" stroke="none" />
          <path d="M0.46875 0.9375L4.21875 0.9375C4.47763 0.9375 4.6875 0.727633 4.6875 0.46875C4.6875 0.209867 4.47763 0 4.21875 0L0.46875 0C0.209866 0 0 0.209867 0 0.46875C0 0.727633 0.209866 0.9375 0.46875 0.9375L0.46875 0.9375Z" transform="translate(3.750002 16.875002)" id="Shape" fill="#1E81CE" fill-rule="evenodd" stroke="none" />
        </g>
      </g>
    </g>
  </g>
</svg>