<?xml version="1.0" encoding="utf-8"?>
<svg width="30px" height="30px" viewbox="0 0 30 30" version="1.1" xmlns:xlink="http://www.w3.org/1999/xlink" xmlns="http://www.w3.org/2000/svg">
  <defs>
    <path d="M0 0L30 0L30 30L0 30L0 0Z" id="path_1" />
    <clipPath id="mask_1">
      <use xlink:href="#path_1" />
    </clipPath>
  </defs>
  <g id="pdf">
    <path d="M0 0L30 0L30 30L0 30L0 0Z" id="Background" fill="none" fill-rule="evenodd" stroke="none" />
    <g clip-path="url(#mask_1)">
      <g id="Group" transform="translate(0.0126953125 0)">
        <path d="M17.4069 24.3543C17.4069 20.5176 20.5177 17.4068 24.3544 17.4068C25.0036 17.4068 25.6312 17.5032 26.2278 17.67L26.2278 8.40416L17.7909 0L1.87349 0C0.83934 0 0 0.838371 0 1.87339L0 28.1012C0 29.1362 0.839243 29.9746 1.87339 29.9746L20.2816 29.9746C18.5421 28.7119 17.4069 26.669 17.4069 24.3543L17.4069 24.3543Z" id="Shape" fill="#E2574C" fill-rule="evenodd" stroke="none" />
        <path d="M8.40319 8.41162L1.87339 8.41162C0.839242 8.41162 0 7.57238 0 6.53822L0 0L8.40319 8.41162L8.40319 8.41162Z" transform="translate(17.797588 0.018705841)" id="Shape" fill="#B53629" fill-rule="evenodd" stroke="none" />
        <path d="M5.62028 0C8.72448 0 11.2406 2.51695 11.2406 5.62028C11.2406 8.72264 8.72458 11.2406 5.62028 11.2406C2.51792 11.2406 0 8.72274 0 5.62028C0 2.51695 2.51792 0 5.62028 0L5.62028 0Z" transform="translate(18.73414 18.759438)" id="Shape" fill="#3DB39E" fill-rule="evenodd" stroke="none" />
        <path d="M4.68373 1.87349L3.74698 1.87349L3.74698 0.936745C3.74698 0.4187 3.32828 0 2.81024 0C2.29219 0 1.87349 0.418701 1.87349 0.936745L1.87349 1.87349L0.936745 1.87349C0.4187 1.87349 0 2.29219 0 2.81024C0 3.32915 0.418701 3.74698 0.936745 3.74698L1.87349 3.74698L1.87349 4.68373C1.87349 5.20265 2.29219 5.62048 2.81024 5.62048C3.32819 5.62048 3.74698 5.20274 3.74698 4.68373L3.74698 3.74698L4.68373 3.74698C5.20177 3.74698 5.62048 3.32925 5.62048 2.81024C5.62038 2.29316 5.20177 1.87349 4.68373 1.87349L4.68373 1.87349Z" transform="translate(21.544186 21.569483)" id="Shape" fill="#FFFFFF" fill-rule="evenodd" stroke="none" />
        <path d="M12.6343 1.07815C12.9481 1.07815 13.1017 0.804642 13.1017 0.539562C13.1017 0.26508 12.9415 0 12.6343 0L10.8471 0C10.4977 0 10.3028 0.289408 10.3028 0.60886L10.3028 5.00105C10.3028 5.39261 10.5258 5.60991 10.8274 5.60991C11.1272 5.60991 11.3511 5.39261 11.3511 5.00105L11.3511 3.79554L12.432 3.79554C12.7674 3.79554 12.935 3.52106 12.935 3.24852C12.935 2.98159 12.7674 2.71642 12.432 2.71642L11.3511 2.71642L11.3511 1.07815C11.3511 1.07815 12.6343 1.07815 12.6343 1.07815L12.6343 1.07815ZM6.59347 0L5.28581 0C4.93078 0 4.67879 0.243564 4.67879 0.60508L4.67879 5.00483C4.67879 5.45348 5.04127 5.59401 5.30073 5.59401L6.67304 5.59401C8.29725 5.59401 9.36979 4.52526 9.36979 2.87566C9.36901 1.13156 8.35919 0 6.59347 0L6.59347 0ZM6.65627 4.50937L5.8591 4.50937L5.8591 1.08474L6.57757 1.08474C7.66513 1.08474 8.13811 1.81447 8.13811 2.82138C8.13811 3.76375 7.67356 4.50937 6.65627 4.50937L6.65627 4.50937ZM1.86593 0L0.57048 0C0.204214 0 0 0.241625 0 0.60886L0 5.00105C0 5.39261 0.234162 5.60991 0.548866 5.60991C0.863571 5.60991 1.09773 5.39261 1.09773 5.00105L1.09773 3.71868L1.90984 3.71868C2.9121 3.71868 3.73923 3.00863 3.73923 1.8668C3.73933 0.749396 2.94128 0 1.86593 0L1.86593 0ZM1.84442 2.68841L1.09783 2.68841L1.09783 1.03134L1.84442 1.03134C2.30528 1.03134 2.59846 1.39102 2.59846 1.86031C2.5975 2.32873 2.30528 2.68841 1.84442 2.68841L1.84442 2.68841Z" transform="translate(6.566332 13.125103)" id="Shape" fill="#FFFFFF" fill-rule="evenodd" stroke="none" />
      </g>
    </g>
  </g>
</svg>