<?xml version="1.0" encoding="utf-8"?>
<svg width="30px" height="30px" viewbox="0 0 30 30" version="1.1" xmlns:xlink="http://www.w3.org/1999/xlink" xmlns="http://www.w3.org/2000/svg">
  <defs>
    <filter id="filter_1">
      <feColorMatrix in="SourceGraphic" type="matrix" values="0 0 0 0 0 0 0 0 0 0.52156866 0 0 0 0 0.5686275 0 0 0 1 0" />
    </filter>
    <path d="M0 0L30 0L30 30L0 30L0 0Z" id="path_1" />
    <clipPath id="mask_1">
      <use xlink:href="#path_1" />
    </clipPath>
  </defs>
  <g id="approve" filter="url(#filter_1)">
    <path d="M0 0L30 0L30 30L0 30L0 0Z" id="Background" fill="none" fill-rule="evenodd" stroke="none" />
    <g clip-path="url(#mask_1)">
      <g id="Group" transform="translate(0 2.6428833)">
        <g id="Group">
          <path d="M5.53922 0C3.40483 0 1.37578 1.02861 0.111448 2.7515C-0.0171652 2.92682 -0.0358567 3.15627 0.0626403 3.35039C0.161254 3.54469 0.357601 3.66533 0.575277 3.66533L0.576038 3.66533L10.4946 3.65256C10.7125 3.65226 10.9089 3.53109 11.0071 3.33627C11.1051 3.14191 11.0858 2.91246 10.9567 2.73756C9.69205 1.0234 7.66682 -4.47035e-07 5.53922 -4.47035e-07L5.53922 0ZM1.22069 2.78484C2.32231 1.58221 3.89485 0.879727 5.53928 0.879727C7.17774 0.879727 8.74647 1.57811 9.84762 2.77365L1.22069 2.78484Z" transform="translate(9.46529 3.8028517)" id="Shape" fill="#000000" fill-rule="evenodd" stroke="none" />
          <path d="M0.0626394 0.314941C-0.0358567 0.509062 -0.0171652 0.738516 0.111448 0.913828C1.37578 2.63672 3.40483 3.66533 5.53922 3.66533C7.66682 3.66533 9.69199 2.64193 10.9567 0.927831C11.0858 0.752871 11.1051 0.523417 11.0071 0.329062C10.9089 0.134237 10.7125 0.0130659 10.4946 0.0127727L0.576038 0C0.575804 0 0.57557 0 0.575277 0C0.357659 0 0.161254 0.120587 0.0626403 0.314941L0.0626394 0.314941ZM9.84756 0.891679C8.74641 2.08728 7.17768 2.7856 5.53922 2.7856C3.89485 2.7856 2.32225 2.08312 1.22063 0.880487L9.84756 0.891679Z" transform="translate(9.465291 17.246073)" id="Shape" fill="#000000" fill-rule="evenodd" stroke="none" />
          <path d="M28.6903 12.41C28.6751 12.3764 28.6751 12.3379 28.6903 12.3043L29.9099 9.60686C30.0516 9.29356 30.0248 8.93397 29.8384 8.6451C29.652 8.35617 29.3354 8.18367 28.9915 8.18367L26.6346 8.18367C26.2814 7.19883 25.8018 6.25787 25.2011 5.38113C25.0638 5.18068 24.7901 5.12947 24.5897 5.26688C24.3892 5.40416 24.3381 5.67791 24.4754 5.8783C24.9725 6.60381 25.3803 7.37672 25.6954 8.18367L24.4262 8.18367C22.8209 4.57213 19.2002 2.04697 15 2.04697C10.7997 2.04697 7.17861 4.57201 5.57344 8.18361L4.30898 8.18361C5.98207 3.9126 10.1431 0.879668 15 0.879668C18.1033 0.879668 21.009 2.09783 23.1844 4.31051L23.2131 4.34584C23.3664 4.53434 23.6435 4.56287 23.8319 4.40953C24.0203 4.25625 24.0489 3.97916 23.8956 3.79078L23.8539 3.73951C23.8453 3.72902 23.8363 3.71889 23.8268 3.70922C21.483 1.3173 18.3483 0 14.9999 0C9.65027 0 5.08465 3.41754 3.3692 8.18373L1.00845 8.18373C0.664568 8.18373 0.347986 8.35623 0.161541 8.64516C-0.0249045 8.93408 -0.0516232 9.29367 0.0900565 9.60691L1.30974 12.3044C1.32492 12.3379 1.32492 12.3764 1.30974 12.41L0.0900565 15.1073C-0.0516232 15.4206 -0.0249044 15.7802 0.161541 16.0692C0.347986 16.3581 0.664568 16.5306 1.00845 16.5306L3.36937 16.5306C5.08482 21.2967 9.65033 24.7143 15 24.7143C20.3496 24.7143 24.9148 21.2967 26.6303 16.5306L28.9915 16.5306C29.3354 16.5306 29.652 16.3581 29.8385 16.0692C30.0249 15.7802 30.0517 15.4207 29.91 15.1073L28.6903 12.41ZM15 2.9267C18.7024 2.9267 21.913 5.07147 23.4553 8.18367L6.54533 8.18367C8.0877 5.07158 11.2978 2.9267 15 2.9267L15 2.9267ZM15 23.8346C10.143 23.8346 5.98166 20.8017 4.30863 16.5306L5.57303 16.5306C7.1782 20.1422 10.7996 22.6673 15 22.6673C19.2003 22.6673 22.8213 20.1422 24.4264 16.5306L25.6911 16.5306C24.0181 20.8017 19.857 23.8346 15 23.8346L15 23.8346ZM29.0993 15.5922C29.0852 15.6141 29.0524 15.6509 28.9915 15.6509L10.4023 15.6509C10.1594 15.6509 9.96246 15.8479 9.96246 16.0908C9.96246 16.3337 10.1594 16.5306 10.4023 16.5306L23.4546 16.5306C21.9121 19.6427 18.7022 21.7876 15 21.7876C11.2977 21.7876 8.0874 19.6428 6.54498 16.5306L8.36426 16.5306C8.60719 16.5306 8.80412 16.3337 8.80412 16.0908C8.80412 15.8479 8.60719 15.6509 8.36426 15.6509L1.00846 15.6509C0.947637 15.6509 0.914883 15.6141 0.900703 15.5922C0.886582 15.5703 0.866543 15.5252 0.891621 15.4699L2.11125 12.7725C2.23066 12.5085 2.23066 12.2058 2.11125 11.9419L0.891563 9.24445C0.866543 9.18908 0.886523 9.14402 0.900645 9.12211C0.914766 9.1002 0.947578 9.0634 1.0084 9.0634L28.9915 9.0634C29.0523 9.0634 29.0851 9.1002 29.0992 9.12211C29.1134 9.14402 29.1334 9.18908 29.1083 9.24445L27.8886 11.9419C27.7693 12.2058 27.7693 12.5084 27.8886 12.7724L29.1083 15.4699C29.1335 15.5252 29.1134 15.5703 29.0993 15.5922L29.0993 15.5922Z" id="Shape" fill="#000000" fill-rule="evenodd" stroke="none" />
          <path d="M2.11989 0.327247C2.11837 0.323204 2.11673 0.319102 2.11509 0.315118C2.03628 0.123575 1.85159 0 1.64394 0C1.43669 0.000234246 1.252 0.124336 1.17361 0.316231C1.17226 0.319512 1.17097 0.322852 1.16968 0.326192C1.16968 0.326192 0.0307343 3.31664 0.0272772 3.32566C-0.079422 3.60574 0.141359 3.92221 0.438254 3.92221C0.6155 3.92221 0.782551 3.81428 0.849406 3.63879L1.02601 3.17508L2.25425 3.17508L2.4288 3.63756C2.51452 3.86478 2.76823 3.97963 2.99564 3.89379C3.22292 3.80801 3.33765 3.55424 3.25187 3.32695L2.11989 0.327247ZM1.36105 2.29523L1.64294 1.55508L1.92226 2.29523L1.36105 2.29523Z" transform="translate(2.897958 10.396171)" id="Shape" fill="#000000" fill-rule="evenodd" stroke="none" />
          <path d="M1.71006 0.879727C1.95299 0.879727 2.14992 0.682793 2.14992 0.439864C2.14992 0.196934 1.95299 0 1.71006 0L0.439863 0C0.196933 0 0 0.196934 0 0.439864L0 3.4544C0 3.69732 0.196933 3.89426 0.439863 3.89426L1.71006 3.89426C1.95299 3.89426 2.14992 3.69732 2.14992 3.4544C2.14992 3.21147 1.95299 3.01453 1.71006 3.01453L0.879727 3.01453L0.879727 2.38699L1.61643 2.38699C1.85936 2.38699 2.05629 2.19006 2.05629 1.94713C2.05629 1.7042 1.85936 1.50727 1.61643 1.50727L0.879727 1.50727L0.879727 0.879728L1.71006 0.879727Z" transform="translate(24.953615 10.423887)" id="Shape" fill="#000000" fill-rule="evenodd" stroke="none" />
          <path d="M2.74189 0.0280434C2.51115 -0.048539 2.26236 0.0762659 2.18578 0.306832L1.53715 2.25941L0.855525 0.295698C0.775838 0.0661862 0.525232 -0.0551614 0.295721 0.024409C0.0662095 0.104097 -0.0551981 0.354702 0.0244314 0.584214L1.06564 3.58386C1.13765 3.7866 1.3299 3.92212 1.54482 3.92212L1.54834 3.92212C1.76461 3.92066 1.95668 3.78208 2.02728 3.57437L3.02062 0.584156C3.09721 0.35359 2.9724 0.104625 2.74189 0.0280434L2.74189 0.0280434Z" transform="translate(21.163424 10.396078)" id="Shape" fill="#000000" fill-rule="evenodd" stroke="none" />
          <path d="M2.52451 1.23053C2.52451 0.552011 1.95246 0 1.24928 0L0.440801 0C0.440624 0 0.440449 0 0.440332 0C0.440156 0 0.440039 0 0.439864 0C0.196934 0 0 0.196933 0 0.439863L0 3.48217C0 3.7251 0.196934 3.92203 0.439864 3.92203C0.682793 3.92203 0.879727 3.7251 0.879727 3.48217L0.879727 2.77881L1.75453 3.77274C1.84149 3.87153 1.96283 3.92197 2.08488 3.92197C2.18807 3.92197 2.29178 3.88588 2.37533 3.81229C2.55768 3.6518 2.57543 3.37389 2.41488 3.19149L1.70139 2.38078C2.18197 2.20441 2.52451 1.75547 2.52451 1.23053L2.52451 1.23053ZM1.24922 1.58133C1.16238 1.58133 1.02264 1.58186 0.88377 1.5825C0.883126 1.44803 0.882598 1.31385 0.882598 1.23053C0.882598 1.15916 0.882305 1.02094 0.881895 0.879726L1.24916 0.879726C1.46356 0.879726 1.64473 1.04039 1.64473 1.23053C1.64479 1.42066 1.46361 1.58133 1.24922 1.58133L1.24922 1.58133Z" transform="translate(13.617949 10.396113)" id="Shape" fill="#000000" fill-rule="evenodd" stroke="none" />
          <path d="M1.28701 8.9407e-07L0.439864 8.9407e-07C0.214922 8.9407e-07 0.00925809 0.194122 0.000820309 0.423751C0.000644624 0.429141 0 3.48217 0 3.48217C0 3.7251 0.196934 3.92203 0.439863 3.92203C0.682793 3.92203 0.879727 3.7251 0.879727 3.48217L0.879727 2.59816C1.03289 2.5974 1.19098 2.59682 1.28701 2.59682C2.01223 2.59682 2.60221 2.01434 2.60221 1.29844C2.60221 0.58254 2.01223 0 1.28701 0L1.28701 8.9407e-07ZM1.28701 1.71709C1.19168 1.71709 1.03553 1.71774 0.883242 1.71844C0.88248 1.56024 0.881836 1.3967 0.881836 1.29838C0.881836 1.21453 0.881484 1.04566 0.881015 0.879669L1.28701 0.879669C1.52309 0.879669 1.72254 1.07145 1.72254 1.29838C1.72254 1.52531 1.52309 1.71709 1.28701 1.71709L1.28701 1.71709Z" transform="translate(6.903751 10.3961115)" id="Shape" fill="#000000" fill-rule="evenodd" stroke="none" />
          <path d="M1.28891 -5.68434e-14L0.441767 -5.68434e-14C0.237451 -5.68434e-14 0.0807121 0.125391 0.0300291 0.320332C-0.0109282 0.477773 0.00190437 0.644648 0.00190437 0.805547L0.00190437 1.74223L0.00190437 3.48217C0.00190437 3.7251 0.198838 3.92203 0.441768 3.92203C0.684698 3.92203 0.881631 3.7251 0.881631 3.48217L0.881631 2.59816C1.0348 2.5974 1.19288 2.59682 1.28892 2.59682C2.01413 2.59682 2.60411 2.01433 2.60411 1.29844C2.60411 0.582539 2.01413 -8.9407e-07 1.28892 -8.9407e-07L1.28891 -5.68434e-14ZM1.28891 1.71709C1.19358 1.71709 1.03743 1.71773 0.885145 1.71844C0.884383 1.56023 0.883739 1.3967 0.883739 1.29838C0.883739 1.21453 0.883387 1.04566 0.882918 0.879668L1.28891 0.879668C1.52499 0.879668 1.72444 1.07144 1.72444 1.29838C1.72444 1.52531 1.52499 1.71709 1.28891 1.71709L1.28891 1.71709Z" transform="translate(10.263722 10.396113)" id="Shape" fill="#000000" fill-rule="evenodd" stroke="none" />
          <path d="M1.96101 8.9407e-07C0.879725 8.9407e-07 0 0.879727 0 1.96102C0 3.04231 0.879727 3.92203 1.96101 3.92203C3.0423 3.92203 3.92203 3.0423 3.92203 1.96102C3.92203 0.879727 3.0423 0 1.96101 0L1.96101 8.9407e-07ZM1.96101 3.04231C1.36477 3.04231 0.879725 2.55721 0.879725 1.96102C0.879725 1.36477 1.36482 0.879728 1.96101 0.879728C2.55726 0.879728 3.0423 1.36483 3.0423 1.96102C3.0423 2.55727 2.55726 3.04231 1.96101 3.04231L1.96101 3.04231Z" transform="translate(16.793674 10.3961115)" id="Shape" fill="#000000" fill-rule="evenodd" stroke="none" />
        </g>
      </g>
    </g>
  </g>
</svg>