<?xml version="1.0" encoding="utf-8"?>
<svg width="30px" height="30px" viewbox="0 0 30 30" version="1.1" xmlns:xlink="http://www.w3.org/1999/xlink" xmlns="http://www.w3.org/2000/svg">
  <g id="patient">
    <path d="M8.22581 0.483871L8.22581 15.4839L5.32258 15.4839L5.32258 15.1644C5.32258 14.2307 4.6549 13.4274 3.73559 13.258L0 12.5806L0 11.129C1.27252 11.129 2.52591 10.8339 3.66778 10.2629L3.87097 10.1613L4.53865 10.829C4.73216 11.0225 4.99346 11.129 5.26446 11.129C5.54514 11.129 5.80645 11.0128 5.99027 10.829C6.17408 10.6452 6.29032 10.3839 6.29032 10.1032L6.29032 0L7.74194 0C8.00797 0 8.22581 0.217836 8.22581 0.483871L8.22581 0.483871Z" transform="translate(12.581055 1.9354858)" id="Shape" fill="#FCD770" fill-rule="evenodd" stroke="none" />
    <path d="M8.22581 11.129L8.22581 12.5806L4.49022 13.258C3.57091 13.4274 2.90323 14.2307 2.90323 15.1644L2.90323 15.4839L0 15.4839L0 0.483871C0 0.217836 0.217836 0 0.483871 0L1.93548 0L1.93548 10.1032C1.93548 10.6693 2.39526 11.129 2.96135 11.129C3.23234 11.129 3.49365 11.0225 3.68715 10.829L4.35484 10.1613L4.55803 10.2629C5.6999 10.8339 6.95328 11.129 8.22581 11.129L8.22581 11.129Z" transform="translate(0.484375 1.9354858)" id="Shape" fill="#FCD770" fill-rule="evenodd" stroke="none" />
    <path d="M17.4194 0L17.4194 4.35484C17.4194 4.88714 16.9839 5.32258 16.4516 5.32258L12.3387 5.32258C11.671 5.32258 11.129 4.78059 11.129 4.1129C11.129 3.77906 11.2644 3.47428 11.4822 3.25644C11.7001 3.03861 12.0049 2.90323 12.3387 2.90323L15 2.90323L15 0L5.32258 0L5.32258 2.90323L7.98387 2.90323C8.65156 2.90323 9.19355 3.44522 9.19355 4.1129C9.19355 4.44675 9.05817 4.75153 8.84033 4.96936C8.6225 5.1872 8.31771 5.32258 7.98387 5.32258L3.87097 5.32258C3.33866 5.32258 2.90323 4.88714 2.90323 4.35484L2.90323 0L0 0L0 12.0968L20.3226 12.0968L20.3226 0L17.4194 0Z" transform="translate(0.484375 17.419342)" id="Shape" fill="#CCD1D9" fill-rule="evenodd" stroke="none" />
    <path d="M2.41935 0L2.41935 2.41936L1.20968 2.41936C0.541992 2.41936 0 1.87736 0 1.20968C0 0.875835 0.13538 0.571053 0.353216 0.353216C0.571053 0.13538 0.875835 0 1.20968 0L2.41935 0Z" transform="translate(11.612305 20.32257)" id="Shape" fill="#5CD6B3" fill-rule="evenodd" stroke="none" />
    <path d="M14.5161 2.90323L14.5161 7.25806C14.5161 7.79037 14.0807 8.2258 13.5484 8.2258L10.6452 8.2258L10.6452 5.80645L12.0968 5.80645L12.0968 2.90323L2.41935 2.90323L2.41935 5.80645L5.08065 5.80645C5.74833 5.80645 6.29032 6.34844 6.29032 7.01613C6.29032 7.34997 6.15494 7.65475 5.93711 7.87259C5.71927 8.09042 5.41449 8.2258 5.08065 8.2258L0.967742 8.2258C0.435437 8.2258 0 7.79037 0 7.25806L0 2.58379C0 1.65008 0.667685 0.846774 1.58699 0.677372L5.32258 0C5.32258 0 5.80645 0.967742 7.25806 0.967742C8.70968 0.967742 9.19355 0 9.19355 0L12.9291 0.677372C13.8484 0.846774 14.5161 1.65008 14.5161 2.58379L14.5161 2.90323Z" transform="translate(3.3876953 14.516113)" id="Shape" fill="#5CD6B3" fill-rule="evenodd" stroke="none" />
    <path d="M0 1.48067L0 0.0290606L0.0144122 0C0.58074 0.329117 1.23378 0.512932 1.93548 0.512932C2.63719 0.512932 3.29023 0.324156 3.85656 0L3.87097 0.0290606L3.87097 1.48067C3.87097 1.48067 3.3871 2.44842 1.93548 2.44842C0.483871 2.44842 0 1.48067 0 1.48067L0 1.48067Z" transform="translate(8.709961 13.035461)" id="Shape" fill="#F0D0B4" fill-rule="evenodd" stroke="none" />
    <path d="M12.0677 9.67742C12.0871 9.5177 12.0968 9.35799 12.0968 9.19355L12.0968 5.13877C12.0968 4.65962 11.8258 4.21946 11.3951 4.00635C11.2209 3.91444 11.0662 3.78875 10.9499 3.63376L10.742 3.35331C10.408 2.90795 9.97748 2.55473 9.48864 2.3128C9.00477 2.06614 8.45805 1.93548 7.90165 1.93548C5.94183 1.93548 4.35484 3.52248 4.35484 5.4823L4.35484 9.19355C4.35484 9.35799 4.36453 9.5177 4.3839 9.67742C4.53865 10.9112 5.26942 11.9614 6.30473 12.5516L6.29032 12.5806C5.0178 12.5806 3.76441 12.2856 2.62254 11.7145L2.41935 11.6129L1.75167 12.2806C1.55817 12.4741 1.29686 12.5806 1.02586 12.5806C0.459772 12.5806 0 12.1209 0 11.5548L0 1.02586C0 0.74518 0.116242 0.483871 0.300057 0.300057C0.483871 0.116242 0.74518 0 1.02586 0C1.29686 0 1.55817 0.106556 1.75167 0.300057L2.41935 0.967742C3.69188 0.329117 5.09506 2.8841e-08 6.51785 2.8841e-08L9.93377 2.8841e-08C11.3566 2.8841e-08 12.7597 0.329117 14.0323 0.967742L14.6999 0.300057C14.8934 0.106556 15.1548 2.8841e-08 15.4257 2.8841e-08C15.9918 2.8841e-08 16.4516 0.459772 16.4516 1.02586L16.4516 11.5548C16.4516 11.8355 16.3354 12.0968 16.1516 12.2806C15.9677 12.4644 15.7064 12.5806 15.4257 12.5806C15.1548 12.5806 14.8934 12.4741 14.6999 12.2806L14.0323 11.6129L13.8291 11.7145C12.6872 12.2856 11.4338 12.5806 10.1613 12.5806L10.1469 12.5516C11.1822 11.9614 11.913 10.9112 12.0677 9.67742L12.0677 9.67742Z" transform="translate(2.4189453 0.48388672)" id="Shape" fill="#FFEAA7" fill-rule="evenodd" stroke="none" />
    <path d="M7.74193 3.20328L7.74193 3.87097L0 3.87097L0 3.54681C0 1.58699 1.58699 0 3.54681 0C4.10322 0 4.64993 0.130655 5.1338 0.377315C5.62264 0.619251 6.05311 0.972467 6.38719 1.41783L6.5951 1.69827C6.71135 1.85326 6.8661 1.97896 7.04023 2.07086C7.47094 2.28397 7.74193 2.72414 7.74193 3.20328L7.74193 3.20328Z" transform="translate(6.774414 2.419342)" id="Shape" fill="#B27946" fill-rule="evenodd" stroke="none" />
    <path d="M0 0L7.68382 0C7.52906 1.23378 6.79829 2.28397 5.76298 2.87417C5.19665 3.19832 4.54362 3.3871 3.84191 3.3871C3.1402 3.3871 2.48716 3.20328 1.92084 2.87417C0.885522 2.28397 0.154754 1.23378 0 0L0 0Z" transform="translate(6.803711 10.161285)" id="Shape" fill="#E6E9ED" fill-rule="evenodd" stroke="none" />
    <path d="M7.74193 0L7.74193 3.3871C7.74193 3.55154 7.73225 3.71125 7.71287 3.87097L0.0290606 3.87097C0.00968687 3.71125 0 3.55154 0 3.3871L0 0L7.74193 0Z" transform="translate(6.774414 6.290344)" id="Shape" fill="#F0D0B4" fill-rule="evenodd" stroke="none" />
    <path d="M5.80645 0L0.967742 0C0.435437 0 0 0.435437 0 0.967742L0 8.19202C0 8.38056 0.0531597 8.55965 0.150028 8.70968C0.222562 8.82096 0.314469 8.91783 0.430711 8.99509L2.41935 10.6452L2.41935 12.5806L4.35484 12.5806L4.35484 10.6452L6.34348 8.99509C6.45972 8.91783 6.55163 8.82096 6.62416 8.70968C6.72103 8.55965 6.77419 8.38056 6.77419 8.19202L6.77419 0.967742C6.77419 0.435437 6.33876 0 5.80645 0L5.80645 0Z" transform="translate(22.742188 0.48388672)" id="Shape" fill="#FF826E" fill-rule="evenodd" stroke="none" />
    <path d="M0 0L0.967742 0L0.967742 0.967741L0 0.967741L0 0Z" transform="translate(12.09668 7.7419434)" id="Shape" fill="#000000" fill-rule="evenodd" stroke="none" />
    <path d="M0 0L0.967742 0L0.967742 0.967741L0 0.967741L0 0Z" transform="translate(8.225586 7.7419434)" id="Shape" fill="#000000" fill-rule="evenodd" stroke="none" />
    <path d="M0 0L0.967743 0L0.967743 0.967742L0 0.967742L0 0Z" transform="translate(25.645508 15.967743)" id="Shape" fill="#000000" fill-rule="evenodd" stroke="none" />
    <path d="M0 0L0.967743 0L0.967743 0.967743L0 0.967743L0 0Z" transform="translate(25.645508 17.903229)" id="Shape" fill="#000000" fill-rule="evenodd" stroke="none" />
    <path d="M25.6452 23.7097C25.6452 23.9762 25.4283 24.1935 25.1613 24.1935L21.2903 24.1935L21.2903 2.41935C21.2903 1.88563 20.8563 1.45161 20.3226 1.45161L19.3489 1.45161C19.3175 0.646421 18.6571 0 17.8446 0C17.447 0 17.0579 0.161133 16.7767 0.442288L16.3514 0.867565C15.1006 0.299112 13.7256 0 12.3522 0L8.93767 0C7.56426 0 6.1892 0.299112 4.93841 0.867565L4.51314 0.442288C4.23245 0.161133 3.84332 0 3.44569 0C2.63317 0 1.97329 0.646421 1.94139 1.45161L0.967742 1.45161C0.434019 1.45161 0 1.88563 0 2.41935L0 30L21.2903 30L21.2903 25.1613L25.1613 25.1613C25.9615 25.1613 26.6129 24.5099 26.6129 23.7097L26.6129 19.8387L25.6452 19.8387L25.6452 23.7097ZM20.3226 24.1935L15 24.1935C14.733 24.1935 14.5161 23.9762 14.5161 23.7097L14.5161 23.2258L16.9355 23.2258C17.7357 23.2258 18.3871 22.5744 18.3871 21.7742L18.3871 17.9032L20.3226 17.9032L20.3226 24.1935ZM14.5161 20.8064L15.9677 20.8064L15.9677 16.9355L5.32258 16.9355L5.32258 20.8064L8.46774 20.8064C8.86797 20.8064 9.19355 21.132 9.19355 21.5323C9.19355 21.9325 8.86797 22.2581 8.46774 22.2581L4.35484 22.2581C4.08786 22.2581 3.87097 22.0407 3.87097 21.7742L3.87097 17.099C3.87097 16.397 4.37232 15.7964 5.06269 15.6708L8.49397 15.047C8.80111 15.4137 9.46124 15.9677 10.6452 15.9677C11.8291 15.9677 12.4892 15.4137 12.7964 15.047L16.2276 15.6708C16.918 15.7964 17.4194 16.3975 17.4194 17.099L17.4194 21.7742C17.4194 22.0407 17.2025 22.2581 16.9355 22.2581L14.5161 22.2581L14.5161 20.8064ZM13.5484 22.2581L12.8226 22.2581C12.4223 22.2581 12.0968 21.9325 12.0968 21.5323C12.0968 21.132 12.4223 20.8064 12.8226 20.8064L13.5484 20.8064L13.5484 22.2581ZM14.0323 5.80645L7.26633 5.80645C7.35092 4.19182 8.687 2.90323 10.3224 2.90323C11.2819 2.90323 12.1988 3.36134 12.7737 4.12897L12.9818 4.40611C13.1444 4.62253 13.3577 4.80043 13.5992 4.9214C13.8664 5.05489 14.0323 5.32305 14.0323 5.62169L14.0323 5.80645ZM7.25806 6.77419L14.0323 6.77419L14.0323 9.67742L7.25806 9.67742L7.25806 6.77419ZM13.8896 10.6452C13.4718 12.0427 12.1762 13.0645 10.6452 13.0645C9.11416 13.0645 7.81849 12.0427 7.40077 10.6452L13.8896 10.6452ZM9.19355 13.7783C9.64836 13.9399 10.1355 14.0323 10.6452 14.0323C11.1548 14.0323 11.642 13.9399 12.0968 13.7783L12.0968 14.3739C11.9633 14.5568 11.5496 15 10.6452 15C9.74074 15 9.32704 14.5568 9.19355 14.3739L9.19355 13.7783ZM20.3226 16.9355L18.3727 16.9355C18.298 15.838 17.4968 14.9183 16.4008 14.7188L13.0645 14.1126L13.0645 13.5349C14.2026 13.4704 15.3291 13.18 16.3552 12.6851L16.7767 13.1066C17.0579 13.3873 17.447 13.5484 17.8446 13.5484C18.6775 13.5484 19.3548 12.871 19.3548 12.0382L19.3548 2.41935L20.3226 2.41935L20.3226 16.9355ZM2.90323 1.51021C2.90323 1.21109 3.14658 0.967742 3.44569 0.967742C3.58839 0.967742 3.72826 1.02586 3.82938 1.12651L4.74349 2.04039L5.0556 1.88469C6.25441 1.28457 7.59734 0.967742 8.93814 0.967742L12.3526 0.967742C13.6935 0.967742 15.0364 1.28457 16.2354 1.88469L16.5475 2.04039L17.4614 1.12651C17.5621 1.02586 17.7019 0.967742 17.8446 0.967742C18.1437 0.967742 18.3871 1.21109 18.3871 1.51021L18.3871 12.0382C18.3871 12.3373 18.1437 12.5806 17.8446 12.5806C17.7019 12.5806 17.5621 12.5225 17.4609 12.4219L16.5468 11.508L16.0311 11.7658C15.3957 12.0838 14.7125 12.3 14.0143 12.4325C14.6298 11.6817 15 10.7222 15 9.67742L15 5.62169C15 4.95424 14.6288 4.35437 14.0323 4.05573C13.9238 4.00162 13.8286 3.92224 13.7565 3.82537L13.5484 3.54823C12.7912 2.53843 11.5848 1.93548 10.3224 1.93548C8.09893 1.93548 6.29032 3.74409 6.29032 5.96758L6.29032 9.67742C6.29032 10.7222 6.66055 11.6817 7.27649 12.433C6.57786 12.3004 5.89505 12.0843 5.25973 11.7662L4.74397 11.5085L3.82986 12.4223C3.72826 12.5225 3.58839 12.5806 3.44569 12.5806C3.14658 12.5806 2.90323 12.3373 2.90323 12.0382L2.90323 1.51021ZM0.967742 2.41935L1.93548 2.41935L1.93548 12.0382C1.93548 12.871 2.61286 13.5484 3.44569 13.5484C3.84332 13.5484 4.23245 13.3873 4.51361 13.1061L4.93511 12.6846C5.96121 13.1796 7.08772 13.4699 8.22581 13.5344L8.22581 14.1121L4.88951 14.7184C3.79347 14.9183 2.9923 15.838 2.91764 16.9355L0.967742 16.9355L0.967742 2.41935ZM20.3226 29.0323L0.967742 29.0323L0.967742 17.9032L2.90323 17.9032L2.90323 21.7742C2.90323 22.5744 3.55461 23.2258 4.35484 23.2258L8.46774 23.2258C9.4017 23.2258 10.1613 22.4662 10.1613 21.5323C10.1613 20.5983 9.4017 19.8387 8.46774 19.8387L6.29032 19.8387L6.29032 17.9032L15 17.9032L15 19.8387L12.8226 19.8387C11.8886 19.8387 11.129 20.5983 11.129 21.5323C11.129 22.4662 11.8886 23.2258 12.8226 23.2258L13.5484 23.2258L13.5484 23.7097C13.5484 24.5099 14.1998 25.1613 15 25.1613L20.3226 25.1613L20.3226 29.0323Z" id="Shape" fill="#000000" fill-rule="evenodd" stroke="none" />
    <path d="M6.29032 0L1.45161 0C0.651383 0 0 0.651383 0 1.45161L0 8.67589C0 9.15291 0.232249 9.59662 0.62374 9.86808L2.41936 11.3566L2.41936 13.5484L3.3871 13.5484L3.3871 15L4.35484 15L4.35484 13.5484L5.32258 13.5484L5.32258 11.3566L7.1182 9.86808C7.50969 9.59662 7.74194 9.15291 7.74194 8.67589L7.74194 1.45161C7.74194 0.651383 7.09055 0 6.29032 0L6.29032 0ZM0.967742 1.45161C0.967742 1.18511 1.18463 0.967742 1.45161 0.967742L6.29032 0.967742C6.5573 0.967742 6.77419 1.18511 6.77419 1.45161L6.77419 8.67589C6.77419 8.68747 6.77089 8.69857 6.76994 8.70968L4.35484 8.70968L4.35484 9.67742L5.83457 9.67742L4.66458 10.6452L3.07735 10.6452L1.90973 9.67742L3.3871 9.67742L3.3871 8.70968L0.971995 8.70968C0.97105 8.6981 0.967742 8.68747 0.967742 8.67589L0.967742 1.45161ZM3.3871 12.5806L3.3871 11.6129L4.35484 11.6129L4.35484 12.5806L3.3871 12.5806Z" transform="translate(22.257812 0)" id="Shape" fill="#000000" fill-rule="evenodd" stroke="none" />
    <path d="M0.967742 2.90323L1.93548 2.90323L1.93548 1.93548L2.90323 1.93548L2.90323 0.967742L1.93548 0.967742L1.93548 0L0.967742 0L0.967742 0.967742L0 0.967742L0 1.93548L0.967742 1.93548L0.967742 2.90323Z" transform="translate(24.677734 3.8709717)" id="Shape" fill="#000000" fill-rule="evenodd" stroke="none" />
  </g>
</svg>