<?xml version="1.0" encoding="utf-8"?>
<svg width="36px" height="36px" viewbox="0 0 36 36" version="1.1" xmlns:xlink="http://www.w3.org/1999/xlink" xmlns="http://www.w3.org/2000/svg">
  <defs>
    <path d="M0 17.5C0 7.83502 7.83502 0 17.5 0C27.165 0 35 7.83502 35 17.5C35 27.165 27.165 35 17.5 35C7.83502 35 0 27.165 0 17.5Z" id="path_1" />
    <clipPath id="mask_1">
      <use xlink:href="#path_1" />
    </clipPath>
  </defs>
  <g id="medprofile_icon-Mask" transform="translate(0.5 0.5)">
    <path d="M0 17.5C0 7.83502 7.83502 0 17.5 0C27.165 0 35 7.83502 35 17.5C35 27.165 27.165 35 17.5 35C7.83502 35 0 27.165 0 17.5Z" id="Mask" fill="#FFFFFF" fill-rule="evenodd" stroke="#00C7D9" stroke-width="1" stroke-dasharray="2 2" />
    <g clip-path="url(#mask_1)">
      <g id="medprofile_icon" transform="translate(9 7)">
        <g id="Mask-group">
          <g id="Pixelbook">
            <g id="medprofile_icon">
              <g id="Mask-group">
                <g id="Mask-group">
                  <g id="Group">
                    <g id="Pixelbook#1">
                      <g id="medprofile_icon#1">
                        <g id="Insurance-7">
                          <g id="nurse">
                            <g id="Mask-group#1">
                              <g id="Mask-group#2">
                                <g id="Mask-group">
                                  <g id="Group">
                                    <g id="Group">
                                      <g id="Group#1">
                                        <g id="surface1">
                                          <path d="M0 1.3284C0.129314 4.85796 2.31065 7.66672 4.98768 7.66672C6.36766 7.66672 7.61767 6.92003 8.52099 5.71332C9.43704 4.43196 9.94403 2.90323 9.97535 1.3284L4.98768 0L0 1.3284L0 1.3284L0 1.3284L0 1.3284Z" transform="translate(3.345581 7)" id="Shape" fill="#00DDC2" fill-rule="evenodd" stroke="none" />
                                          <path d="M11.25 4.66659C11.6406 4.68831 11.9757 4.39055 11.9999 4.00006L11.9999 1.33335L5.99996 0L0 1.33335L0 4.00006C0.0243893 4.39055 0.359267 4.68831 0.750027 4.66659L11.25 4.66659L11.25 4.66659L11.25 4.66659L11.25 4.66659ZM5.99996 3.66665L5.99996 2.33331L5.99996 3.66665L5.99996 3.66665L5.99996 3.66665L5.99996 3.66665Z" transform="translate(2.333374 0.3333435)" id="Shape#1" fill="#FFE477" fill-rule="evenodd" stroke="none" />
                                          <path d="M1.00008 5.32574L1.00008 7.99995C1.00008 11.8597 3.39275 14.9999 6.33336 14.9999C7.77633 14.9999 9.12599 14.2586 10.1333 12.9134C11.1586 11.4826 11.6962 9.75992 11.6667 7.99995L11.6667 5.32574C12.2088 5.30859 12.6454 4.87535 12.6668 4.33343L12.6668 1.66672C12.6669 1.51034 12.5584 1.375 12.4057 1.34096L6.40571 0.00773871C6.35801 -0.00257953 6.30869 -0.00257953 6.261 0.00773871L0.261042 1.34108C0.10841 1.375 0 1.51034 0 1.66672L0 4.33343C0.0213067 4.87535 0.457896 5.30859 1.00008 5.32574L1.00008 5.32574L1.00008 5.32574L1.00008 5.32574L1.00008 5.32574ZM6.4195 6.67771C6.36309 6.6627 6.30386 6.6627 6.24744 6.67771L1.66687 7.89997L1.66687 5.33337L11.0001 5.33337L11.0001 7.89997L6.4195 6.67771L6.4195 6.67771L6.4195 6.67771L6.4195 6.67771ZM9.59997 12.5134C8.7211 13.6873 7.5614 14.3333 6.33337 14.3333C3.90506 14.3333 1.9061 11.8023 1.68848 8.58232L6.33337 7.34506L10.9787 8.58273C10.9069 9.9982 10.4283 11.3631 9.59997 12.5134L9.59997 12.5134L9.59997 12.5134L9.59997 12.5134L9.59997 12.5134ZM0.666626 1.93339L6.33332 0.674683L11.9999 1.93339L11.9999 4.33343C11.972 4.53765 11.7889 4.68425 11.5833 4.6667L1.08338 4.6667C0.877822 4.68425 0.694633 4.53765 0.666626 4.33343L0.666626 1.93339L0.666626 1.93339L0.666626 1.93339L0.666626 1.93339Z" transform="translate(2 0)" id="Shape#2" fill="#006C76" fill-rule="evenodd" stroke="none" />
                                          <path d="M1.00008 2.66671L1.66676 2.66671L1.66676 1.66676L2.66671 1.66676L2.66671 1.00008L1.66676 1.00008L1.66676 0L1.00008 0L1.00008 1.00008L0 1.00008L0 1.66676L1.00008 1.66676L1.00008 2.66671L1.00008 2.66671L1.00008 2.66671L1.00008 2.66671Z" transform="translate(7 1.3333435)" id="Shape#3" fill="#007C88" fill-rule="evenodd" stroke="none" />
                                          <path d="M12.8645 0L12.5019 0.559339C14.5872 1.90354 15.8893 4.17747 15.9929 6.6563L0.673656 6.6563C0.777242 4.17747 2.07923 1.90354 4.16463 0.559339L3.80201 0C1.42771 1.53102 -0.00481204 4.16462 1.2029e-05 6.98971C1.2029e-05 7.1737 0.149161 7.32298 0.333283 7.32298L16.3333 7.32298C16.5173 7.32298 16.6665 7.1737 16.6665 6.98971C16.6713 4.16462 15.2388 1.53102 12.8645 0L12.8645 0L12.8645 0L12.8645 0L12.8645 0Z" transform="translate(0 12.677032)" id="Shape#4" fill="#006C76" fill-rule="evenodd" stroke="none" />
                                        </g>
                                      </g>
                                    </g>
                                  </g>
                                </g>
                              </g>
                            </g>
                          </g>
                        </g>
                      </g>
                    </g>
                  </g>
                </g>
              </g>
            </g>
          </g>
        </g>
      </g>
    </g>
  </g>
</svg>