<?xml version="1.0" encoding="utf-8"?>
<svg width="30px" height="30px" viewbox="0 0 30 30" version="1.1" xmlns:xlink="http://www.w3.org/1999/xlink" xmlns="http://www.w3.org/2000/svg">
  <defs>
    <path d="M0 0L30 0L30 30L0 30L0 0Z" id="path_1" />
    <clipPath id="mask_1">
      <use xlink:href="#path_1" />
    </clipPath>
  </defs>
  <g id="form">
    <path d="M0 0L30 0L30 30L0 30L0 0Z" id="Background" fill="none" fill-rule="evenodd" stroke="none" />
    <g clip-path="url(#mask_1)">
      <path d="M0 0L29.1194 0L29.1194 26.3014L0 26.3014L0 0Z" transform="translate(0.4404297 1.8493347)" id="Rectangle" fill="#F3F1F1" fill-rule="evenodd" stroke="none" />
      <path d="M0 0L1.87869 0L1.87869 26.3014L0 26.3014L0 0Z" transform="translate(0.4404297 1.8493347)" id="Rectangle" fill="#E6E3E2" fill-rule="evenodd" stroke="none" />
      <path d="M0 0L29.1194 0L29.1194 3.75732L0 3.75732L0 0Z" transform="translate(0.4404297 1.8493347)" id="Rectangle" fill="#C4A0DE" fill-rule="evenodd" stroke="none" />
      <path d="M0 0L1.87869 0L1.87869 3.75732L0 3.75732L0 0Z" transform="translate(0.4404297 1.8493347)" id="Rectangle" fill="#AE85CC" fill-rule="evenodd" stroke="none" />
      <path d="M4.22701 2.81801L1.409 2.81801C0.63082 2.81801 0 2.18719 0 1.409L0 1.409C0 0.63082 0.630821 0 1.409 0L4.22701 0C5.00519 0 5.63601 0.63082 5.63601 1.409L5.63601 1.409C5.63601 2.18719 5.00519 2.81801 4.22701 2.81801L4.22701 2.81801Z" transform="translate(12.181641 22.514648)" id="Shape" fill="#A89C9A" fill-rule="evenodd" stroke="none" />
      <path d="M4.6967 1.52402L1.87869 1.52402C1.10051 1.52402 0.469688 0.893204 0.469688 0.11502L0.469688 0.11502C0.469688 0.0762892 0.47168 0.0379693 0.474727 0C0.183633 0.258164 0 0.634688 0 1.05434L0 1.05434C0 1.83252 0.630821 2.46334 1.409 2.46334L4.22701 2.46334C4.96647 2.46334 5.57238 1.89363 5.63098 1.16935C5.38225 1.3899 5.05524 1.52402 4.6967 1.52402L4.6967 1.52402Z" transform="translate(12.181641 22.869324)" id="Shape" fill="#9B8E8B" fill-rule="evenodd" stroke="none" />
      <path d="M0 0L15.0294 0L15.0294 9.39334L0 9.39334L0 0Z" transform="translate(7.4853516 11.242676)" id="Rectangle" fill="#CDC6C5" fill-rule="evenodd" stroke="none" />
      <path d="M0 0L1.99266 7.30629L3.98525 5.31363L7.30635 8.63473L8.63473 7.30629L5.31363 3.98525L7.30635 1.9926L0 0Z" transform="translate(18.576172 16.228302)" id="Polygon" fill="#FFC44F" fill-rule="evenodd" stroke="none" />
      <path d="M3.93803 3.93803L2.54859 5.15139L1.03078 0.281074L0 0L1.99266 7.30629L3.98525 5.31363L7.30635 8.63473L7.97051 7.97051L3.93803 3.93803Z" transform="translate(18.576172 16.228302)" id="Polygon" fill="#FFB357" fill-rule="evenodd" stroke="none" />
      <path d="M29.5597 0L0.440332 0C0.197168 0 0 0.197168 0 0.440332L0 26.7417C0 26.9849 0.197168 27.1821 0.440332 27.1821L29.5597 27.1821C29.8029 27.1821 30.0001 26.9849 30.0001 26.7417L30.0001 0.440332C30 0.197168 29.8028 0 29.5597 0L29.5597 0ZM0.880605 26.3014L0.880605 4.63799L3.82582 4.63799C4.06898 4.63799 4.26615 4.44082 4.26615 4.19766C4.26615 3.95449 4.06898 3.75732 3.82582 3.75732L0.880605 3.75732L0.880605 0.880605L29.1193 0.880605L29.1193 3.75732L5.86102 3.75732C5.61785 3.75732 5.42068 3.95449 5.42068 4.19766C5.42068 4.44082 5.61785 4.63799 5.86102 4.63799L29.1193 4.63799L29.1193 26.3014L0.880605 26.3014L0.880605 26.3014Z" transform="translate(0 1.4089966)" id="Shape" fill="#000000" fill-rule="evenodd" stroke="none" />
      <path d="M4.66734 0L1.84934 0C0.829629 0 0 0.829629 0 1.84934C0 2.86904 0.829629 3.69867 1.84934 3.69867L4.66734 3.69867C5.68705 3.69867 6.51668 2.86904 6.51668 1.84934C6.51668 0.829629 5.68705 0 4.66734 0L4.66734 0ZM4.66734 2.81801L1.84934 2.81801C1.3152 2.81801 0.880664 2.38342 0.880664 1.84933C0.880664 1.31525 1.3152 0.880662 1.84934 0.880662L4.66734 0.880662C5.20148 0.880662 5.63602 1.31525 5.63602 1.84933C5.63602 2.38342 5.20148 2.81801 4.66734 2.81801L4.66734 2.81801Z" transform="translate(11.741211 22.074371)" id="Shape" fill="#000000" fill-rule="evenodd" stroke="none" />
      <path d="M0.440333 0.880664L0.499044 0.880664C0.742208 0.880664 0.939377 0.683496 0.939377 0.440332C0.939377 0.197168 0.74221 0 0.499044 0L0.440333 0C0.197169 0 0 0.197168 0 0.440332C0 0.683496 0.197169 0.880664 0.440333 0.880664L0.440333 0.880664Z" transform="translate(25.30371 3.2876282)" id="Shape" fill="#000000" fill-rule="evenodd" stroke="none" />
      <path d="M0.440333 0.880664L0.499044 0.880664C0.742208 0.880664 0.939377 0.683496 0.939377 0.440332C0.939377 0.197168 0.74221 0 0.499044 0L0.440333 0C0.197169 0 0 0.197168 0 0.440332C0 0.683496 0.197169 0.880664 0.440333 0.880664L0.440333 0.880664Z" transform="translate(27.18164 3.2876282)" id="Shape" fill="#000000" fill-rule="evenodd" stroke="none" />
      <path d="M0.440333 0.880664L0.499044 0.880664C0.742208 0.880664 0.939377 0.683496 0.939377 0.440332C0.939377 0.197168 0.74221 0 0.499044 0L0.440333 0C0.197169 0 0 0.197168 0 0.440332C0 0.683496 0.19711 0.880664 0.440333 0.880664L0.440333 0.880664Z" transform="translate(23.36621 3.2876282)" id="Shape" fill="#000000" fill-rule="evenodd" stroke="none" />
      <path d="M17.468 9.41127L19.1493 7.72998C19.3842 7.49502 19.2737 7.08105 18.9538 6.99381L15.91 6.16365L15.91 0.440332C15.91 0.197168 15.7129 0 15.4697 0L0.440332 0C0.197168 0 0 0.197168 0 0.440332L0 9.83367C0 10.0768 0.197168 10.274 0.440332 10.274L12.3974 10.274L13.0995 12.8481C13.1867 13.1681 13.6007 13.2786 13.8356 13.0436L15.5169 11.3623L18.5266 14.372C18.6962 14.5416 18.9796 14.5416 19.1493 14.372L20.4776 13.0436C20.6496 12.8716 20.6496 12.5929 20.4776 12.4209L17.468 9.41127L17.468 9.41127ZM0.880606 9.3934L0.880606 0.880665L15.0294 0.880665L15.0294 5.92348L11.6474 5.00115C11.3248 4.91314 11.0188 5.21918 11.1068 5.5418L12.1572 9.39334L0.880606 9.39334L0.880606 9.3934ZM18.8379 13.4381L15.8283 10.4284C15.6587 10.2587 15.3752 10.2588 15.2056 10.4284L13.7494 11.8845L12.1592 6.05361L17.9901 7.64385L16.534 9.10002C16.362 9.27199 16.362 9.55078 16.534 9.7227L19.5437 12.7324L18.8379 13.4381L18.8379 13.4381Z" transform="translate(7.044922 10.802277)" id="Shape" fill="#000000" fill-rule="evenodd" stroke="none" />
      <path d="M0.440332 0.880664L9.83367 0.880664C10.0768 0.880664 10.274 0.683496 10.274 0.440332C10.274 0.197168 10.0768 0 9.83367 0L0.440332 0C0.197168 0 0 0.197168 0 0.440332C0 0.683496 0.197109 0.880664 0.440332 0.880664L0.440332 0.880664Z" transform="translate(7.044922 8.923645)" id="Shape" fill="#000000" fill-rule="evenodd" stroke="none" />
      <path d="M0.440333 0.880664L5.13703 0.880664C5.3802 0.880664 5.57736 0.683496 5.57736 0.440332C5.57736 0.197168 5.3802 0 5.13703 0L0.440333 0C0.197169 0 0 0.197168 0 0.440332C0 0.683496 0.197112 0.880664 0.440333 0.880664L0.440333 0.880664Z" transform="translate(17.847656 8.923645)" id="Shape" fill="#000000" fill-rule="evenodd" stroke="none" />
    </g>
  </g>
</svg>