<?xml version="1.0" encoding="utf-8"?>
<svg width="60px" height="83px" viewbox="0 0 60 83" version="1.1" xmlns:xlink="http://www.w3.org/1999/xlink" xmlns="http://www.w3.org/2000/svg">
  <defs>
    <path d="M0 0L56.4417 0L56.4417 80L0 80L0 0Z" id="path_1" />
    <path d="M0 0L29.5583 0L29.5583 29.5583L0 29.5583L0 0Z" id="path_2" />
    <clipPath id="mask_1">
      <use xlink:href="#path_1" />
    </clipPath>
    <clipPath id="mask_2">
      <use xlink:href="#path_2" />
    </clipPath>
  </defs>
  <g id="icons_patient" transform="translate(1.5 1.5)">
    <path d="M0 0L56.4417 0L56.4417 80L0 80L0 0Z" id="Background" fill="none" fill-rule="evenodd" stroke="none" />
    <g clip-path="url(#mask_1)">
      <path d="M28.125 1.98926e-06C12.6091 1.98926e-06 0 12.6094 0 28.125C0 33.375 1.45345 38.4845 4.2189 42.8908L26.2184 78.893C26.5938 79.5025 27.1563 79.8775 27.8126 79.9712C28.703 80.1116 29.6878 79.7366 30.2033 78.8463L52.2657 42.5156C54.8905 38.2033 56.25 33.1876 56.25 28.125C56.25 12.6094 43.6409 1.98926e-06 28.125 1.98926e-06L28.125 1.98926e-06ZM28.125 42.1875C20.2503 42.1875 14.0625 35.8125 14.0625 28.125C14.0625 20.3905 20.3905 14.0625 28.125 14.0625C35.8595 14.0625 42.1877 20.3905 42.1877 28.125C42.1877 35.7656 36.0936 42.1875 28.125 42.1875L28.125 42.1875Z" transform="translate(0.19171143 -0.21664429)" id="Shape" fill="#FF0000" fill-rule="evenodd" stroke="none" />
      <path d="M18.8957 37.7914C29.3315 37.7914 37.7914 29.3315 37.7914 18.8957C37.7914 8.45988 29.3315 0 18.8957 0C8.45988 0 0 8.45988 0 18.8957C0 29.3315 8.45988 37.7914 18.8957 37.7914L18.8957 37.7914Z" transform="translate(9.570557 9.570557)" id="Shape" fill="#FFFFFF" fill-rule="evenodd" stroke="#FF0000" stroke-width="3" />
      <g id="Mask-group" transform="translate(13.687103 12.687103)">
        <path d="M0 0L29.5583 0L29.5583 29.5583L0 29.5583L0 0Z" id="Rectangle" fill="none" fill-rule="evenodd" stroke="none" />
        <g clip-path="url(#mask_2)">
          <g id="Group" transform="translate(5.0150757 0)">
            <path d="M0 5.24857L0 10.7888L18.6616 10.7888L18.6616 5.24857C18.6616 2.34988 16.3117 0 13.4131 0L5.24857 0C2.34988 0 0 2.34988 0 5.24857L0 5.24857L0 5.24857Z" transform="translate(0.4333282 18.336557)" id="Shape" fill="#FFF7F7" fill-rule="evenodd" stroke="none" />
            <path d="M0 0C1.04045 0.959041 1.6924 2.33326 1.6924 3.85988L1.6924 10.5664L3.73358 10.5664L3.73358 5.02626C3.73358 2.65434 2.15997 0.650221 0 0L0 0L0 0Z" transform="translate(15.361307 18.558868)" id="Shape" fill="#E2D7D8" fill-rule="evenodd" stroke="none" />
            <path d="M4.02393 4.02387C6.24277 4.02387 8.04786 2.21872 8.04786 0L0 0C0 2.21872 1.80509 4.02387 4.02393 4.02387L4.02393 4.02387Z" transform="translate(5.7400193 18.336557)" id="Shape" fill="#E4F6FF" fill-rule="evenodd" stroke="none" />
            <path d="M0 0L0 2.3327C0 3.52439 0.966062 4.49046 2.15775 4.49046C3.34945 4.49046 4.31551 3.52439 4.31551 2.3327L4.31551 0L0 0L0 0Z" transform="translate(7.60639 16.003775)" id="Shape" fill="#FFDDCE" fill-rule="evenodd" stroke="none" />
            <path d="M0 1.49946C0.675838 1.73667 1.40186 1.86617 2.15775 1.86617C2.91365 1.86617 3.63967 1.73667 4.31551 1.49946L4.31551 0L0 0L0 1.49946L0 1.49946Z" transform="translate(7.60639 16.003775)" id="Shape" fill="#FFCBBE" fill-rule="evenodd" stroke="none" />
            <path d="M0 0L0 5.46908C0 8.0457 2.08878 10.1345 4.66547 10.1345C7.24209 10.1345 9.33087 8.0457 9.33087 5.46908L9.33087 0L0 0L0 0Z" transform="translate(5.0986996 6.4525204)" id="Shape" fill="#FFDDCE" fill-rule="evenodd" stroke="none" />
            <path d="M5.48189 0L0 0L0 3.59952C0.769623 4.15934 1.71641 4.49046 2.74098 4.49046C3.76554 4.49046 4.71227 4.15934 5.48195 3.59952L5.48195 0L5.48189 0L5.48189 0Z" transform="translate(7.0230417 12.096546)" id="Shape" fill="#FF0000" fill-rule="evenodd" stroke="none" />
            <path d="M2.0131 0L2.0131 6.09239C2.0131 7.68343 1.21608 9.08776 0 9.9298C1.90836 9.34467 3.29606 7.56908 3.29606 5.46908L3.29606 0L2.0131 0L2.0131 0Z" transform="translate(11.133361 6.4525204)" id="Shape" fill="#FFCBBE" fill-rule="evenodd" stroke="none" />
            <path d="M13.063 6.53158L13.063 9.7974L11.1969 10.7305L8.57264 6.60277L7.17712 7.75024C6.75967 8.09349 6.236 8.28112 5.69557 8.28112L3.7906 8.28112L1.86611 10.7305L0 9.7974L0 6.53158C-6.10761e-05 2.9243 2.92418 0 6.53146 0C10.1388 0 13.063 2.9243 13.063 6.53158L13.063 6.53158L13.063 6.53158Z" transform="translate(3.232712 0.4329453)" id="Shape" fill="#090808" fill-rule="evenodd" stroke="none" />
            <path d="M0 0C1.27451 1.192 2.07142 2.88834 2.07142 4.77108L2.07142 8.32848L3.93753 8.32848L3.93753 5.99571C3.93753 3.31022 2.31663 1.00363 0 0L0 0L0 0Z" transform="translate(12.3580675 0.9688525)" id="Shape" fill="#C4C4C4" fill-rule="evenodd" stroke="none" />
            <path d="M0.933116 2.7993L0 2.7993L0 0L0.933116 0C1.44842 0 1.86617 0.417758 1.86617 0.933119L1.86617 1.86624C1.86611 2.38154 1.44842 2.7993 0.933116 2.7993L0.933116 2.7993L0.933116 2.7993Z" transform="translate(14.4294815 8.364188)" id="Shape" fill="#FFDDCE" fill-rule="evenodd" stroke="none" />
            <path d="M0.933055 2.7993L1.86617 2.7993L1.86617 0L0.933055 0C0.417756 0 0 0.417758 0 0.933119L0 1.86624C6.10761e-05 2.38154 0.417756 2.7993 0.933055 2.7993L0.933055 2.7993L0.933055 2.7993Z" transform="translate(3.2324057 8.364188)" id="Shape" fill="#FFDDCE" fill-rule="evenodd" stroke="none" />
            <path d="M19.0951 0.410986C18.856 0.410986 18.6622 0.604776 18.6622 0.843954L18.6622 2.91593L15.7373 2.91593L15.7373 0.43303C15.7373 0.193856 15.5435 0 15.3043 0C15.0651 0 14.8713 0.193856 14.8713 0.43303L14.8713 2.91593L4.65691 2.91593L4.65691 0.43303C4.65691 0.193856 4.46306 0 4.22394 0C3.98476 0 3.79091 0.193856 3.79091 0.43303L3.79091 2.91593L0.865996 2.91593L0.865996 0.843954C0.865996 0.604776 0.672143 0.410986 0.433027 0.410986C0.193914 0.410986 0 0.604776 0 0.843954L0 3.34889C0 3.58807 0.193914 3.78186 0.433027 3.78186L19.0951 3.78186C19.3343 3.78186 19.5281 3.58807 19.5281 3.34889L19.5281 0.843954C19.5281 0.604837 19.3343 0.410986 19.0951 0.410986L19.0951 0.410986Z" transform="translate(0 25.776424)" id="Shape" fill="#000000" fill-rule="evenodd" stroke="none" />
            <path d="M13.8462 17.9035L12.3548 17.9035L12.3548 16.311C13.8546 15.4224 14.8625 13.7876 14.8625 11.9215L14.8625 11.5964L15.3626 11.5964C16.1159 11.5964 16.7287 10.9836 16.7287 10.2303L16.7288 6.96461C16.7288 5.95273 16.5166 4.97731 16.0982 4.0655C15.9984 3.84818 15.7416 3.75273 15.5241 3.85255C15.3067 3.95231 15.2114 4.20935 15.3111 4.42666C15.6772 5.22436 15.8628 6.07829 15.8628 6.96461L15.8628 8.02643C15.7078 7.96516 15.5392 7.93117 15.3627 7.93117L14.4296 7.93117C14.1904 7.93117 13.9966 8.12496 13.9966 8.36413L13.9966 9.67535L12.1706 6.80339C12.1041 6.69877 11.996 6.62764 11.8735 6.60812C11.7509 6.58854 11.6261 6.62247 11.5303 6.70123L10.1348 7.84871C9.79574 8.12748 9.36727 8.28106 8.92833 8.28106L7.02329 8.28106C6.89047 8.28106 6.76491 8.34209 6.68288 8.44653L5.53183 9.91145L5.53183 8.36407C5.53183 8.12489 5.33798 7.9311 5.0988 7.9311L4.16575 7.9311C3.9892 7.9311 3.82053 7.9651 3.66547 8.02637L3.66547 6.96467C3.66535 3.60186 6.40122 0.865935 9.76409 0.865935C11.3929 0.865935 12.9244 1.50039 14.0763 2.65236C14.1429 2.71887 14.2087 2.78796 14.272 2.85767C14.4328 3.03483 14.7067 3.04801 14.8836 2.88735C15.0607 2.72663 15.074 2.45284 14.9133 2.27574C14.8407 2.19569 14.7652 2.11637 14.6887 2.03995C13.3732 0.724485 11.6242 0 9.76409 0C5.92373 0 2.79941 3.12437 2.79941 6.96467L2.79954 10.2304C2.79954 10.9836 3.41232 11.5965 4.16562 11.5965L4.66571 11.5965L4.66571 11.9216C4.66571 13.7876 5.67359 15.4224 7.17336 16.311L7.17336 17.9035L5.6819 17.9035C2.54891 17.9035 0 20.4521 0 23.5849L0 24.5998C0 24.8389 0.193914 25.0327 0.433027 25.0327C0.672143 25.0327 0.865996 24.8389 0.865996 24.5998L0.865996 23.5849C0.865996 21.0483 2.83815 18.9649 5.32967 18.7838C5.55474 21.0321 7.45749 22.7934 9.76409 22.7934C12.0707 22.7934 13.9735 21.0321 14.1985 18.7838C16.69 18.9649 18.6622 21.0483 18.6622 23.5849L18.6622 24.5998C18.6622 24.8389 18.856 25.0327 19.0951 25.0327C19.3343 25.0327 19.5281 24.8389 19.5281 24.5998L19.5281 23.5849C19.5281 20.4522 16.9793 17.9035 13.8462 17.9035L13.8462 17.9035L13.8462 17.9035ZM7.45606 15.4667L7.45606 12.5295L12.072 12.5295L12.072 15.4667C11.4076 15.9007 10.615 16.154 9.76401 16.154C8.91304 16.154 8.12045 15.9007 7.45606 15.4667L7.45606 15.4667L7.45606 15.4667ZM12.938 14.7171L12.938 12.3678L13.9966 11.8546L13.9966 11.9216C13.9965 12.9924 13.596 13.9709 12.938 14.7171L12.938 14.7171L12.938 14.7171ZM14.8625 8.79717L15.3626 8.79717C15.6382 8.79717 15.8626 9.02157 15.8626 9.29732L15.8626 10.2304C15.8626 10.5061 15.6382 10.7305 15.3626 10.7305L14.8625 10.7305L14.8625 8.79717L14.8625 8.79717ZM7.23352 9.14707L8.92814 9.14707C9.56721 9.14707 10.1911 8.92354 10.6847 8.51766L11.7022 7.68098L13.8035 10.9858L12.4055 11.6636L7.12256 11.6636L5.77119 11.0084L7.23352 9.14707L7.23352 9.14707ZM3.66547 10.2304L3.66547 9.29732C3.66547 9.02157 3.8898 8.79717 4.16562 8.79717L4.6657 8.79717L4.6657 10.7305L4.16562 10.7305C3.8898 10.7305 3.66547 10.5061 3.66547 10.2304L3.66547 10.2304L3.66547 10.2304ZM5.53165 11.9216L5.53165 11.8546L6.59014 12.3678L6.59014 14.7171C5.9321 13.9708 5.53165 12.9923 5.53165 11.9216L5.53165 11.9216ZM9.76408 17.0199C10.3692 17.0199 10.9499 16.9137 11.4889 16.7194L11.4889 18.3365C11.4889 19.2876 10.7151 20.0613 9.76408 20.0613C8.81299 20.0613 8.0393 19.2876 8.0393 18.3365L8.0393 16.7194C8.57831 16.9138 9.159 17.0199 9.76408 17.0199L9.76408 17.0199L9.76408 17.0199ZM9.76408 21.9274C7.93066 21.9274 6.41476 20.546 6.20015 18.7695L7.21024 18.7695C7.41697 19.9926 8.48316 20.9273 9.76408 20.9273C11.0451 20.9273 12.1112 19.9926 12.3179 18.7695L13.3279 18.7695C13.1134 20.546 11.5975 21.9274 9.76408 21.9274L9.76408 21.9274Z" id="Shape" fill="#000000" fill-rule="evenodd" stroke="none" />
          </g>
        </g>
      </g>
    </g>
  </g>
</svg>