<?xml version="1.0" encoding="utf-8"?>
<svg width="30px" height="30px" viewBox="0 0 30 30" version="1.1" xmlns:xlink="http://www.w3.org/1999/xlink" xmlns="http://www.w3.org/2000/svg">
  <desc>Created with Lunacy</desc>
  <defs>
    <linearGradient x1="0.58752185" y1="-0.05298517" x2="0.29529804" y2="0.9124483" id="gradient_1">
      <stop offset="0" stop-color="#515BD4" />
      <stop offset="0.26" stop-color="#9510B8" />
      <stop offset="0.65999997" stop-color="#E51804" />
      <stop offset="1" stop-color="#FEDA77" />
    </linearGradient>
    <linearGradient x1="0.67043716" y1="-0.5768653" x2="0.10137004" y2="1.3031883" id="gradient_2">
      <stop offset="0" stop-color="#515BD4" />
      <stop offset="0.26" stop-color="#9510B8" />
      <stop offset="0.65999997" stop-color="#E51804" />
      <stop offset="1" stop-color="#FFBF00" />
    </linearGradient>
    <linearGradient x1="-0.99482435" y1="-1.8840685" x2="-3.430013" y2="6.1613092" id="gradient_3">
      <stop offset="0" stop-color="#515BD4" />
      <stop offset="0.26" stop-color="#9510B8" />
      <stop offset="0.65999997" stop-color="#E51804" />
      <stop offset="1" stop-color="#FFBF00" />
    </linearGradient>
    <path d="M0 0L30 0L30 30L0 30L0 0Z" id="path_1" />
    <clipPath id="mask_1">
      <use xlink:href="#path_1" />
    </clipPath>
  </defs>
  <g id="instagram">
    <path d="M0 0L30 0L30 30L0 30L0 0Z" id="Background" fill="none" fill-rule="evenodd" stroke="none" />
    <g clip-path="url(#mask_1)">
      <g id="Group">
        <path d="M15 5.37839e-07C10.9262 5.37839e-07 10.4154 0.0172857 8.81549 0.0902935C7.21893 0.163126 6.1285 0.416661 5.17436 0.787501C4.18799 1.17082 3.35145 1.68375 2.5176 2.51766C1.68369 3.3515 1.17076 4.18805 0.787441 5.17441C0.416602 6.1285 0.163066 7.21893 0.0902344 8.81549C0.0172266 10.4154 0 10.9262 0 15C0 19.0737 0.0172266 19.5845 0.0902344 21.1844C0.163066 22.781 0.416602 23.8714 0.787441 24.8255C1.17076 25.8118 1.68369 26.6484 2.5176 27.4823C3.35145 28.3162 4.18799 28.8291 5.17436 29.2124C6.1285 29.5832 7.21893 29.8368 8.81549 29.9096C10.4154 29.9826 10.9262 29.9999 15 29.9999C19.0737 29.9999 19.5845 29.9826 21.1844 29.9096C22.781 29.8368 23.8714 29.5832 24.8255 29.2124C25.8118 28.8291 26.6484 28.3162 27.4823 27.4823C28.3162 26.6484 28.8291 25.8118 29.2124 24.8255C29.5832 23.8714 29.8368 22.781 29.9096 21.1844C29.9826 19.5845 29.9999 19.0737 29.9999 15C29.9999 10.9262 29.9826 10.4154 29.9096 8.81549C29.8368 7.21893 29.5832 6.1285 29.2124 5.17441C28.8291 4.18805 28.3162 3.3515 27.4823 2.51766C26.6484 1.68375 25.8118 1.17082 24.8255 0.7875C23.8714 0.41666 22.781 0.163125 21.1844 0.090293C19.5845 0.0172852 19.0737 0 15 0L15 5.37839e-07ZM14.9999 2.70276C19.0051 2.70276 19.4795 2.71799 21.0612 2.79018C22.5236 2.85692 23.3179 3.10125 23.8464 3.30663C24.5466 3.57874 25.0463 3.90381 25.5711 4.4287C26.0961 4.95358 26.4211 5.45333 26.6932 6.1534C26.8986 6.68198 27.143 7.47622 27.2097 8.93866C27.2818 10.5204 27.2971 10.9948 27.2971 15C27.2971 19.0051 27.2818 19.4796 27.2097 21.0612C27.143 22.5237 26.8986 23.3179 26.6932 23.8465C26.4211 24.5466 26.0961 25.0463 25.5711 25.5712C25.0463 26.0961 24.5466 26.4212 23.8464 26.6933C23.3179 26.8987 22.5236 27.143 21.0612 27.2097C19.4797 27.2819 19.0054 27.2972 14.9999 27.2972C10.9944 27.2972 10.5202 27.2819 8.93859 27.2097C7.47615 27.143 6.68191 26.8987 6.15334 26.6933C5.4532 26.4212 4.95352 26.0961 4.42857 25.5712C3.90369 25.0463 3.57861 24.5466 3.30656 23.8465C3.10113 23.3179 2.8568 22.5237 2.79006 21.0612C2.71787 19.4796 2.70264 19.0051 2.70264 15C2.70264 10.9948 2.71787 10.5204 2.79006 8.93866C2.8568 7.47622 3.10113 6.68198 3.30656 6.1534C3.57861 5.45333 3.90369 4.95358 4.42857 4.4287C4.95352 3.90381 5.4532 3.57874 6.15334 3.30663C6.68191 3.10126 7.47615 2.85692 8.93859 2.79018C10.5203 2.71799 10.9948 2.70276 14.9999 2.70276L14.9999 2.70276Z" id="Shape" fill="url(#gradient_1)" fill-rule="evenodd" stroke="none" />
        <path d="M7.70268 12.7026C4.94121 12.7026 2.70264 10.464 2.70264 7.70268C2.70264 4.94121 4.94121 2.70264 7.70268 2.70264C10.464 2.70264 12.7026 4.94121 12.7026 7.70268C12.7026 10.464 10.464 12.7026 7.70268 12.7026L7.70268 12.7026ZM7.70273 0C3.44859 0 0 3.44859 0 7.70273C0 11.9568 3.44859 15.4054 7.70273 15.4054C11.9568 15.4054 15.4054 11.9568 15.4054 7.70273C15.4054 3.44859 11.9568 0 7.70273 0L7.70273 0Z" transform="translate(7.2973633 7.297241)" id="Shape" fill="url(#gradient_2)" fill-rule="evenodd" stroke="none" />
        <path d="M3.6 1.79994C3.6 2.7941 2.7941 3.59994 1.8 3.59994C0.805898 3.59994 0 2.7941 0 1.79994C0 0.80584 0.805898 0 1.8 0C2.7941 0 3.6 0.80584 3.6 1.79994L3.6 1.79994Z" transform="translate(21.207031 5.192993)" id="Shape" fill="url(#gradient_3)" fill-rule="evenodd" stroke="none" />
      </g>
    </g>
  </g>
</svg>