<?xml version="1.0" encoding="utf-8"?>
<svg width="25px" height="25px" viewbox="0 0 25 25" version="1.1" xmlns:xlink="http://www.w3.org/1999/xlink" xmlns="http://www.w3.org/2000/svg">
  <defs>
    <filter id="filter_1">
      <feColorMatrix in="SourceGraphic" type="matrix" values="0 0 0 0 0 0 0 0 0 0.42352942 0 0 0 0 0.4627451 0 0 0 1 0" />
    </filter>
    <path d="M0 0L21 0L21 21L0 21L0 0Z" id="path_1" />
    <path d="M0 0L21 0L21 21L0 21L0 0L0 0L0 0Z" id="path_2" />
    <rect width="25" height="25" id="artboard_1" />
    <clipPath id="clip_1">
      <use xlink:href="#artboard_1" clip-rule="evenodd" />
    </clipPath>
    <clipPath id="mask_1">
      <use xlink:href="#path_1" />
    </clipPath>
    <clipPath id="mask_2">
      <use xlink:href="#path_2" />
    </clipPath>
  </defs>
  <g id="Pixelbook" clip-path="url(#clip_1)">
    <use xlink:href="#artboard_1" stroke="none" fill="#FFFFFF" />
    <g id="insurance_icon" transform="translate(2 2)">
      <g id="Mask-group">
        <path d="M0 0L21 0L21 21L0 21L0 0Z" id="artboard_1" fill="none" fill-rule="evenodd" stroke="none" />
        <g clip-path="url(#mask_1)">
          <g id="Pixelbook">
            <path d="M0 0L21 0L21 21L0 21L0 0Z" id="artboard_1" fill="#FFFFFF" fill-rule="evenodd" stroke="none" />
            <g id="insurance_icon">
              <g id="Insurance">
                <g id="Insurance#1">
                  <path d="M0 0L21 0L21 21L0 21L0 0L0 0L0 0Z" id="Background" fill="none" fill-rule="evenodd" stroke="none" />
                  <g id="Mask-group">
                    <path d="M0 0L21 0L21 21L0 21L0 0L0 0L0 0Z" id="path_2" fill="none" fill-rule="evenodd" stroke="none" />
                    <g id="Mask-group">
                      <path d="M0 0L21 0L21 21L0 21L0 0L0 0L0 0Z" id="path_1" fill="none" fill-rule="evenodd" stroke="none" />
                      <g clip-path="url(#mask_2)">
                        <g id="Group" transform="translate(0.984375 0.98440707)">
                          <g id="Group">
                            <g id="Group#1">
                              <path d="M0 0L7.13671 0C7.36324 0 7.54687 0.183633 7.54687 0.410156L7.54687 15.9961C7.54687 16.2226 7.36324 16.4063 7.13671 16.4063L0 16.4063L0 0L0 0L0 0L0 0Z" transform="translate(11.484375 2.6249359)" id="Shape" fill="#006C76" fill-rule="evenodd" stroke="none" />
                              <g id="Group#2">
                                <g id="Group#3">
                                  <path d="M0 0.820312L0 0.410156C0 0.296895 0.0400438 0.200221 0.120132 0.120132C0.200221 0.0400439 0.296895 0 0.410156 0L12.0586 0C12.1719 0 12.2685 0.0400439 12.3487 0.120132C12.4287 0.200221 12.4688 0.296895 12.4688 0.410156L12.4688 17.3086C12.4688 17.4218 12.4287 17.5185 12.3487 17.5986C12.2685 17.6787 12.1719 17.7188 12.0586 17.7188L0.410156 17.7188C0.296895 17.7188 0.200221 17.6787 0.120132 17.5986C0.0400438 17.5185 0 17.4218 0 17.3086L0 0.820312L0 0.820312L0 0.820312Z" transform="translate(0 1.312436)" id="Rectangle#1" fill="#00C7D9" fill-rule="evenodd" stroke="none" />
                                  <path d="M9.84379 14.7656L9.84379 15.0937L0 15.0937L0 0L9.84379 0L9.84379 8.20313" transform="translate(1.3125 2.6249359)" id="Shape#1" fill="#FFFCF8" fill-rule="evenodd" stroke="none" />
                                  <path d="M4.88053 0.984312C4.73071 0.404818 4.20793 0 3.60937 0C3.01082 0 2.48804 0.404818 2.33822 0.984312L0 0.984312L0 3.19916C0 3.42568 0.183633 3.60931 0.410156 3.60931L6.80859 3.60931C7.03512 3.60931 7.21875 3.42568 7.21875 3.19916L7.21875 0.984312L4.88053 0.984312L4.88053 0.984312L4.88053 0.984312Z" transform="translate(2.625 0)" id="Shape#2" fill="#0097A4" fill-rule="evenodd" stroke="none" />
                                  <g id="Group#4" transform="translate(2.296875 12.14056)" filter="url(#filter_1)">
                                    <path d="M0 0L3.9375 0L3.9375 1.05L0 1.05L0 0L0 0L0 0Z" id="Shape#3" fill="#FDBF44" fill-rule="evenodd" stroke="none" />
                                    <path d="M0 0L1.3125 0L1.3125 1.05L0 1.05L0 0L0 0L0 0Z" transform="translate(4.59375 0)" id="Shape#4" fill="#FDBF44" fill-rule="evenodd" stroke="none" />
                                    <path d="M0 0L1.96875 0L1.96875 1.05L0 1.05L0 0L0 0L0 0Z" transform="translate(0 1.6406246)" id="Shape#5" fill="#FDBF44" fill-rule="evenodd" stroke="none" />
                                    <path d="M0 0L3.60937 0L3.60937 1.05L0 1.05L0 0L0 0L0 0Z" transform="translate(2.625 1.6406246)" id="Shape#6" fill="#FDBF44" fill-rule="evenodd" stroke="none" />
                                    <path d="M0 0L3.9375 0L3.9375 1.05L0 1.05L0 0L0 0L0 0Z" transform="translate(0 3.2812493)" id="Shape#7" fill="#FDBF44" fill-rule="evenodd" stroke="none" />
                                    <path d="M0 0L1.96875 0L1.96875 1.05L0 1.05L0 0L0 0L0 0Z" transform="translate(4.59375 3.2812493)" id="Shape#8" fill="#FDBF44" fill-rule="evenodd" stroke="none" />
                                  </g>
                                </g>
                                <g id="Group#5" transform="translate(2.953125 4.593686)">
                                  <path d="M0 1.96875C0 0.881437 0.881437 0 1.96875 0C3.05605 0 3.9375 0.881437 3.9375 1.96875C3.9375 3.05605 3.05605 3.9375 1.96875 3.9375C0.881437 3.9375 0 3.05605 0 1.96875L0 1.96875L0 1.96875Z" transform="translate(1.3125 1.3124998)" id="Circle" fill="#0097A4" fill-rule="evenodd" stroke="none" />
                                  <path d="M6.5625 3.9375L6.5625 2.625L5.90625 2.625L5.90625 2.95313L5.55475 2.95313C5.50003 2.57325 5.35051 2.21327 5.11998 1.90641L5.36931 1.65711L5.60134 1.88914L6.06535 1.42509L5.13729 0.497027L4.67323 0.961036L4.90526 1.19306L4.65597 1.4424C4.34913 1.21194 3.9892 1.06247 3.60938 1.00776L3.60938 0.65625L3.9375 0.65625L3.9375 0L2.625 0L2.625 0.65625L2.95313 0.65625L2.95313 1.00776C2.57325 1.06247 2.21327 1.212 1.90641 1.44252L1.65711 1.19319L1.88914 0.961161L1.42509 0.497151L0.497027 1.4252L0.961036 1.88927L1.19306 1.65724L1.4424 1.90652C1.21194 2.21337 1.06247 2.5733 1.00776 2.95313L0.65625 2.95313L0.65625 2.625L0 2.625L0 3.9375L0.65625 3.9375L0.65625 3.60938L1.00776 3.60938C1.06247 3.98925 1.21199 4.34923 1.44252 4.65609L1.19319 4.90539L0.961162 4.67336L0.497151 5.13741L1.4252 6.06547L1.88927 5.60146L1.65724 5.36944L1.90652 5.1201C2.21337 5.35056 2.5733 5.50003 2.95313 5.55475L2.95313 5.90625L2.625 5.90625L2.625 6.5625L3.9375 6.5625L3.9375 5.90625L3.60938 5.90625L3.60938 5.55475C3.98925 5.50003 4.34923 5.35051 4.65609 5.11998L4.90539 5.36931L4.67337 5.60134L5.13741 6.06535L6.06547 5.13729L5.60146 4.67323L5.36944 4.90526L5.1201 4.65597C5.35056 4.34913 5.50003 3.9892 5.55475 3.60938L5.90625 3.60938L5.90625 3.9375L6.5625 3.9375L6.5625 3.9375L6.5625 3.9375ZM3.28125 4.92188C2.37515 4.92188 1.64063 4.18733 1.64063 3.28125C1.64063 2.37515 2.37517 1.64063 3.28125 1.64063C4.18733 1.64063 4.92188 2.37515 4.92188 3.28125C4.92089 4.18686 4.18697 4.92083 3.2813 4.92188L3.28125 4.92188L3.28125 4.92188L3.28125 4.92188Z" id="Shape#9" fill="#006C76" fill-rule="evenodd" stroke="none" />
                                  <g id="Group#6" transform="translate(2.296875 2.2968748)">
                                    <path d="M0 0L1.05 0L1.05 1.05L0 1.05L0 0L0 0L0 0Z" transform="translate(0 0.6562501)" id="Shape#10" fill="#FFFBFA" fill-rule="evenodd" stroke="none" />
                                    <path d="M0 0L1.05 0L1.05 1.05L0 1.05L0 0L0 0L0 0Z" transform="translate(0.984375 0)" id="Shape#11" fill="#FFFBFA" fill-rule="evenodd" stroke="none" />
                                    <path d="M0 0L1.05 0L1.05 1.05L0 1.05L0 0L0 0L0 0Z" transform="translate(0.984375 1.3124993)" id="Shape#12" fill="#FFFBFA" fill-rule="evenodd" stroke="none" />
                                  </g>
                                </g>
                                <g id="Group#7" transform="translate(3.609375 0.98431087)">
                                  <path d="M0 0L1.05 0L1.05 1.05L0 1.05L0 0L0 0L0 0Z" transform="translate(0 0.9843752)" id="Shape#13" fill="#FFFBFA" fill-rule="evenodd" stroke="none" />
                                  <path d="M0 0L1.05 0L1.05 1.05L0 1.05L0 0L0 0L0 0Z" transform="translate(4.5937505 0.9843752)" id="Shape#14" fill="#FFFBFA" fill-rule="evenodd" stroke="none" />
                                  <path d="M0 0L1.05 0L1.05 1.05L0 1.05L0 0L0 0L0 0Z" transform="translate(2.2968752 0)" id="Shape#15" fill="#FFFBFA" fill-rule="evenodd" stroke="none" />
                                </g>
                              </g>
                              <g id="Group#8" transform="translate(9.165967 9.812091)">
                                <path d="M2.99796 8.29496C1.61278 7.29783 0.683156 5.85285 0.380379 4.22621L0.377344 4.20869L0 1.8662L4.28174 0L8.56355 1.8662L8.18151 4.2322L8.17991 4.2409C7.87418 5.88213 6.93249 7.33556 5.52825 8.33339L4.2817 9.21908L2.99796 8.29496L2.99796 8.29496L2.99796 8.29496Z" id="Shape#16" fill="#002427" fill-rule="evenodd" stroke="none" />
                                <path d="M4.59375 1.64062L2.95312 1.64062L2.95312 0L1.64062 0L1.64062 1.64062L0 1.64062L0 2.95312L1.64062 2.95312L1.64062 4.59375L2.95312 4.59375L2.95312 2.95312L4.59375 2.95312L4.59375 1.64062L4.59375 1.64062L4.59375 1.64062Z" transform="translate(1.9902833 2.0003452)" id="Shape#17" fill="#FAFEFF" fill-rule="evenodd" stroke="none" />
                              </g>
                              <g id="Group#9" transform="translate(13.453125 3.9374359)">
                                <path d="M0 0L4.59375 0L4.59375 1.05L0 1.05L0 0L0 0L0 0Z" id="Shape#18" fill="#FFFDFA" fill-rule="evenodd" stroke="none" />
                                <path d="M0 0L2.625 0L2.625 1.05L0 1.05L0 0L0 0L0 0Z" transform="translate(0 1.6406248)" id="Shape#19" fill="#FFFDFA" fill-rule="evenodd" stroke="none" />
                                <path d="M0 0L1.3125 0L1.3125 1.05L0 1.05L0 0L0 0L0 0Z" transform="translate(3.2812507 1.6406248)" id="Shape#20" fill="#FFFDFA" fill-rule="evenodd" stroke="none" />
                                <path d="M0 0L2.625 0L2.625 1.05L0 1.05L0 0L0 0L0 0Z" transform="translate(1.9687504 3.2812495)" id="Shape#21" fill="#FFFDFA" fill-rule="evenodd" stroke="none" />
                                <path d="M0 0L1.3125 0L1.3125 1.05L0 1.05L0 0L0 0L0 0Z" transform="translate(0 3.2812495)" id="Shape#22" fill="#FFFDFA" fill-rule="evenodd" stroke="none" />
                                <path d="M0 0L2.95313 0L2.95313 1.05L0 1.05L0 0L0 0L0 0Z" transform="translate(1.6406254 4.921875)" id="Shape#23" fill="#FFFDFA" fill-rule="evenodd" stroke="none" />
                              </g>
                            </g>
                          </g>
                        </g>
                      </g>
                    </g>
                  </g>
                </g>
              </g>
            </g>
          </g>
        </g>
      </g>
    </g>
  </g>
</svg>