<?xml version="1.0" encoding="utf-8"?>
<svg width="30px" height="30px" viewbox="0 0 30 30" version="1.1" xmlns:xlink="http://www.w3.org/1999/xlink" xmlns="http://www.w3.org/2000/svg">
  <defs>
    <path d="M0 0L18 0L18 18L0 18L0 0Z" id="path_1" />
    <clipPath id="mask_1">
      <use xlink:href="#path_1" />
    </clipPath>
  </defs>
  <g id="join-meeting" transform="translate(0.5 0.5)">
    <path d="M0 14.5C0 6.5 6.5 0 14.5 0C22.5 0 29 6.5 29 14.5C29 22.5 22.5 29 14.5 29C6.5 29 0 22.5 0 14.5L0 14.5Z" id="Ellipse" fill="#FFFFFF" fill-rule="evenodd" stroke="#006C76" stroke-width="1" />
    <g id="link" transform="translate(5 5)">
      <path d="M0 0L18 0L18 18L0 18L0 0Z" id="Background" fill="none" fill-rule="evenodd" stroke="none" />
      <g clip-path="url(#mask_1)">
        <g id="Group" transform="translate(0.0014038086 5.7861633)">
          <g id="Group">
            <path d="M10.9813 1.2298C10.7681 1.01531 10.5317 0.825188 10.2765 0.6629C9.60047 0.230028 8.81459 7.50884e-06 8.01187 7.50884e-06C6.89772 -0.00206654 5.82884 0.440612 5.0424 1.2298L1.22709 5.0481C0.441976 5.83472 0.000703884 6.90051 8.69466e-07 8.01188C-0.00147543 10.3311 1.87736 12.2123 4.19655 12.2138C5.30898 12.2177 6.37687 11.7771 7.16303 10.99L10.3125 7.84059C10.3697 7.78386 10.4016 7.70646 10.4012 7.62589C10.4002 7.46023 10.2652 7.32673 10.0995 7.32768L9.97952 7.32768C9.32152 7.33 8.66938 7.20364 8.05988 6.95576C7.94758 6.90954 7.81851 6.93562 7.73295 7.02174L5.46835 9.28933C4.76514 9.99254 3.62501 9.99254 2.9218 9.28933C2.21859 8.58612 2.21859 7.44599 2.9218 6.74279L6.75213 2.91548C7.45478 2.21372 8.59304 2.21372 9.29568 2.91548C9.76922 3.36115 10.5079 3.36115 10.9814 2.91548C11.1851 2.71158 11.3086 2.44114 11.3293 2.15361C11.3512 1.81002 11.2245 1.47353 10.9813 1.2298L10.9813 1.2298Z" id="Shape" fill="#006C76" fill-rule="evenodd" stroke="none" />
          </g>
        </g>
        <g id="Group" transform="translate(6.7089233 0.037597656)">
          <g id="Group">
            <path d="M10.1077 1.22999C8.4677 -0.409998 5.80875 -0.409998 4.16876 1.22999L1.02232 4.37342C0.935919 4.46024 0.910997 4.59082 0.959328 4.70337C1.0071 4.81624 1.11873 4.88868 1.24127 4.88632L1.35223 4.88632C2.00947 4.88513 2.66055 5.01248 3.26889 5.26127C3.38119 5.30749 3.51026 5.28141 3.59582 5.19529L5.85441 2.93969C6.55762 2.23648 7.69775 2.23648 8.40096 2.93969C9.10417 3.6429 9.10417 4.78302 8.40096 5.48623L5.58745 8.29671L5.56344 8.32371L4.57963 9.30154C3.87698 10.0033 2.73872 10.0033 2.03607 9.30154C1.56254 8.85588 0.823895 8.85588 0.35039 9.30154C0.14536 9.507 0.0217375 9.77979 0.00244037 10.0694C-0.0194929 10.413 0.107222 10.7495 0.35039 10.9932C0.697565 11.3419 1.10376 11.6262 1.55016 11.8331C1.61315 11.8631 1.67614 11.8871 1.73913 11.9141C1.80212 11.9411 1.86809 11.962 1.93108 11.986C1.99407 12.0101 2.06005 12.031 2.12304 12.049L2.30002 12.097C2.41998 12.127 2.53998 12.151 2.66294 12.172C2.81106 12.194 2.96024 12.208 3.10987 12.214L3.31982 12.214L3.33782 12.214L3.51779 12.193C3.58376 12.19 3.65276 12.175 3.73076 12.175L3.83273 12.175L4.03969 12.145L4.13568 12.127L4.30964 12.091L4.34265 12.091C5.07943 11.906 5.7522 11.5245 6.28929 10.9872L10.1076 7.16893C11.7477 5.52894 11.7477 2.86998 10.1077 1.22999L10.1077 1.22999Z" id="Shape" fill="#006C76" fill-rule="evenodd" stroke="none" />
          </g>
        </g>
      </g>
    </g>
  </g>
</svg>