<?xml version="1.0" encoding="utf-8"?>
<svg width="30px" height="30px" viewBox="0 0 30 30" version="1.1" xmlns:xlink="http://www.w3.org/1999/xlink" xmlns="http://www.w3.org/2000/svg">
  <desc>Created with Lunacy</desc>
  <g id="linkedin">
    <g id="_14-linkedin">
      <path d="M0 10.5L0 5.25C0 3.80025 0.512563 2.56282 1.53769 1.53769C2.56282 0.512563 3.80025 0 5.25 0L24.75 0C26.1997 0 27.4372 0.512563 28.4623 1.53769C29.4874 2.56282 30 3.80025 30 5.25L30 24.75C30 26.1997 29.4874 27.4372 28.4623 28.4623C27.4372 29.4874 26.1997 30 24.75 30L5.25 30C3.80025 30 2.56282 29.4874 1.53769 28.4623C0.512563 27.4372 0 26.1997 0 24.75L0 10.5Z" id="Rectangle" fill="#007FB5" fill-rule="evenodd" stroke="none" />
      <path d="M0 0L4.23281 0L4.23281 15.3375L0 15.3375L0 0Z" transform="translate(4.213867 11.034424)" id="Rectangle" fill="#FFFFFF" fill-rule="evenodd" stroke="none" />
      <path d="M10.5656 0.364044C7.44375 -0.826582 5.18437 1.18904 4.21875 2.31404L4.21875 0.364044L0 0.364044L0 15.7015L4.21875 15.7015L4.21875 7.61092C4.19473 6.58548 4.56945 5.59069 5.26405 4.83593C5.66487 4.36412 6.24403 4.08048 6.8625 4.05311C7.5539 4.03984 8.22084 4.30899 8.70938 4.79842C9.23366 5.34632 9.5201 6.07927 9.50625 6.83748L9.50625 15.7015L14.2687 15.7015L14.2687 6.20467C14.2687 6.20467 14.7984 1.94842 10.5656 0.364044L10.5656 0.364044Z" transform="translate(12.02832 10.670288)" id="Shape" fill="#FFFFFF" fill-rule="evenodd" stroke="none" />
      <path d="M0 2.64375C0 1.18365 1.18365 0 2.64375 0C4.10385 0 5.2875 1.18365 5.2875 2.64375C5.2875 4.10385 4.10385 5.2875 2.64375 5.2875C1.18365 5.2875 0 4.10385 0 2.64375Z" transform="translate(3.6845703 3.6281738)" id="Circle" fill="#FFFFFF" fill-rule="evenodd" stroke="none" />
    </g>
  </g>
</svg>