<svg width="85" height="85" viewBox="0 0 85 85" fill="none" xmlns="http://www.w3.org/2000/svg">
<path d="M82.875 19.8333H68.7084V5.66667C68.7084 2.53707 66.1713 0 63.0417 0H20.5417C17.4121 0 14.875 2.53707 14.875 5.66667V35.4167H2.12504C1.34269 35.4167 0.708374 36.051 0.708374 36.8333V59.5C0.708374 60.2824 1.34269 60.9167 2.12504 60.9167H14.875V79.3333C14.875 82.4629 17.4121 85 20.5417 85H63.0417C66.1713 85 68.7084 82.4629 68.7084 79.3333V48.7532L72.1282 45.3333H82.875C83.6574 45.3333 84.2917 44.699 84.2917 43.9167V21.25C84.2917 20.4676 83.6574 19.8333 82.875 19.8333ZM17.7084 5.66667C17.7084 4.10178 18.9768 2.83333 20.5417 2.83333H63.0417C64.6066 2.83333 65.875 4.10178 65.875 5.66667V11.3333H17.7084V5.66667ZM3.54171 58.0833V38.25H36.125V58.0833H29.0417C28.6659 58.0833 28.3057 58.2328 28.0401 58.4984L24.7917 61.7468L21.5433 58.4984C21.2777 58.2328 20.9175 58.0833 20.5417 58.0833H3.54171ZM65.875 79.3333C65.875 80.8982 64.6066 82.1667 63.0417 82.1667H20.5417C18.9768 82.1667 17.7084 80.8982 17.7084 79.3333V73.6667H65.875V79.3333ZM65.875 70.8333H17.7084V60.9167H19.9552L23.7901 64.7516C24.3433 65.3046 25.2401 65.3046 25.7933 64.7516L29.6282 60.9167H37.5417C38.3241 60.9167 38.9584 60.2824 38.9584 59.5V36.8333C38.9584 36.051 38.3241 35.4167 37.5417 35.4167H17.7084V14.1667H65.875V19.8333H47.4584C46.676 19.8333 46.0417 20.4676 46.0417 21.25V43.9167C46.0417 44.699 46.676 45.3333 47.4584 45.3333H62.4552L65.875 48.7532V70.8333ZM81.4584 42.5H71.5417C71.1659 42.5 70.8057 42.6495 70.5401 42.9151L67.2917 46.1635L64.0433 42.9151C63.7777 42.6495 63.4175 42.5 63.0417 42.5H48.875V22.6667H81.4584V42.5Z" fill="#006C76"/>
</svg>
