<?xml version="1.0" encoding="utf-8"?>
<svg width="120px" height="120px" viewBox="0 0 120 120" version="1.1" xmlns:xlink="http://www.w3.org/1999/xlink" xmlns="http://www.w3.org/2000/svg">
  <desc>Created with Lunacy</desc>
  <defs>
    <path d="M0 0L120 0L120 120L0 120L0 0Z" id="path_1" />
    <clipPath id="mask_1">
      <use xlink:href="#path_1" />
    </clipPath>
  </defs>
  <g id="online-order">
    <path d="M0 0L120 0L120 120L0 120L0 0Z" id="Background" fill="none" fill-rule="evenodd" stroke="none" />
    <g clip-path="url(#mask_1)">
      <g id="Group" transform="translate(0 11.742676)">
        <g id="Group" transform="translate(46.7536 74.15161)">
          <path d="M0 0L26.4926 0L26.4926 20.6048L0 20.6048L0 0Z" id="Shape" fill="#365E7D" fill-rule="evenodd" stroke="none" />
        </g>
        <g id="Group" transform="translate(64.80542 74.15161)">
          <path d="M0 0L8.44102 0L8.44102 20.6048L0 20.6048L0 0Z" id="Shape" fill="#2B4D66" fill-rule="evenodd" stroke="none" />
        </g>
        <g id="Group" transform="translate(1.7580566 1.7580566)">
          <path d="M116.484 65.7286L116.484 3.51609C116.484 1.5743 114.91 0 112.968 0L3.51609 0C1.5743 0 0 1.5743 0 3.51609L0 65.7286L116.484 65.7286Z" id="Shape" fill="#CBE2FF" fill-rule="evenodd" stroke="none" />
        </g>
        <g id="Group" transform="translate(109.961975 1.7580566)">
          <path d="M4.7639 4.47035e-06L0 4.47035e-06L0 65.7286L8.28 65.7286L8.28 3.51609C8.28 1.5743 6.7057 0 4.7639 0L4.7639 4.47035e-06Z" id="Shape" fill="#BED8FB" fill-rule="evenodd" stroke="none" />
        </g>
        <g id="Group" transform="translate(1.7580566 62.476196)">
          <path d="M0 0L0 18.3717C0 20.3135 1.5743 21.8878 3.51609 21.8878L112.968 21.8878C114.91 21.8878 116.484 20.3135 116.484 18.3717L116.484 0L0 0Z" id="Shape" fill="#365E7D" fill-rule="evenodd" stroke="none" />
        </g>
        <g id="Group" transform="translate(1.7580566 62.476196)">
          <path d="M108.204 0L108.204 10.0917C108.204 12.0335 106.63 13.6078 104.688 13.6078L0 13.6078L0 18.3717C0 20.3135 1.5743 21.8878 3.51609 21.8878L112.968 21.8878C114.91 21.8878 116.484 20.3135 116.484 18.3717L116.484 0L108.204 0Z" id="Shape" fill="#2B4D66" fill-rule="evenodd" stroke="none" />
        </g>
        <g id="Group" transform="translate(57.808105 69.6698)">
          <path d="M0 2.56359C0 1.14776 1.14776 0 2.56359 0C3.97943 0 5.12719 1.14776 5.12719 2.56359C5.12719 3.97943 3.97943 5.12719 2.56359 5.12719C1.14776 5.12719 0 3.97943 0 2.56359Z" id="Circle" fill="#365E7D" fill-rule="evenodd" stroke="none" />
        </g>
        <g id="Group" transform="translate(69.17224 34.622314)">
          <path d="M6.46758 0C2.89571 0 0 2.8957 0 6.46758C0 9.39375 4.34039 17.9262 5.90977 20.9154C6.14601 21.3652 6.78891 21.3652 7.02516 20.9154C8.59453 17.9262 12.9349 9.39375 12.9349 6.46758C12.9352 2.89547 10.0395 3.57628e-06 6.46758 3.57628e-06L6.46758 0ZM6.46758 8.89921C5.32828 8.89921 4.40485 7.97577 4.40485 6.83648C4.40485 5.69718 5.32828 4.77374 6.46758 4.77374C7.60687 4.77374 8.53031 5.69718 8.53031 6.83648C8.53031 7.97554 7.60687 8.89921 6.46758 8.89921L6.46758 8.89921Z" id="Shape" fill="#E28086" fill-rule="evenodd" stroke="none" />
        </g>
        <g id="Group" transform="translate(34.140015 46.32776)">
          <path d="M0 4.1925C0 1.87705 1.87705 0 4.1925 0C6.50795 0 8.385 1.87705 8.385 4.1925C8.385 6.50795 6.50795 8.385 4.1925 8.385C1.87705 8.385 0 6.50795 0 4.1925Z" id="Circle" fill="#365E7D" fill-rule="evenodd" stroke="none" />
        </g>
        <g id="Group" transform="translate(18.185608 46.32776)">
          <path d="M0 4.1925C0 1.87705 1.87705 0 4.1925 0C6.50795 0 8.385 1.87705 8.385 4.1925C8.385 6.50795 6.50795 8.385 4.1925 8.385C1.87705 8.385 0 6.50795 0 4.1925Z" id="Circle" fill="#365E7D" fill-rule="evenodd" stroke="none" />
        </g>
        <g id="Group">
          <path d="M22.4588 0L1.75805 0C0.787032 0 0 0.787032 0 1.75805C0 2.72906 0.787032 3.51609 1.75805 3.51609L22.4588 3.51609C23.4281 3.51609 24.2168 4.30477 24.2168 5.27414L24.2168 50.3653C24.2168 51.3363 25.0038 52.1234 25.9748 52.1234C26.9459 52.1234 27.7329 51.3363 27.7329 50.3653L27.7329 5.27414C27.7329 2.36602 25.3669 2.68221e-06 22.4588 2.68221e-06L22.4588 0Z" transform="translate(92.26709 0)" id="Shape" fill="#000000" fill-rule="evenodd" stroke="none" />
          <path d="M118.242 56.9142C117.271 56.9142 116.484 57.7012 116.484 58.6723L116.484 60.7179L3.51609 60.7179L3.51609 5.27414C3.51609 4.30476 4.30476 3.51609 5.27414 3.51609L85.5211 3.51609C86.4921 3.51609 87.2791 2.72906 87.2791 1.75805C87.2791 0.787032 86.4921 0 85.5211 0L5.27414 0C2.36602 0 0 2.36602 0 5.27414L0 80.8477C0 83.7558 2.36602 86.1218 5.27414 86.1218L17.3735 86.1218C18.3445 86.1218 19.1316 85.3348 19.1316 84.3637C19.1316 83.3927 18.3445 82.6057 17.3735 82.6057L5.27414 82.6057C4.30477 82.6057 3.51609 81.817 3.51609 80.8476L3.51609 64.234L116.484 64.234L116.484 80.8476C116.484 81.817 115.695 82.6057 114.726 82.6057L25.6598 82.6057C24.6888 82.6057 23.9018 83.3927 23.9018 84.3637C23.9018 85.3348 24.6888 86.1218 25.6598 86.1218L44.9955 86.1218L44.9955 92.9984L34.4789 92.9984C33.5079 92.9984 32.7209 93.7854 32.7209 94.7564C32.7209 95.7274 33.5079 96.5145 34.4789 96.5145L85.5211 96.5145C86.4921 96.5145 87.2791 95.7274 87.2791 94.7564C87.2791 93.7854 86.4921 92.9984 85.5211 92.9984L75.0042 92.9984L75.0042 86.1218L114.726 86.1218C117.634 86.1218 120 83.7558 120 80.8477L120 58.6723C120 57.7012 119.213 56.9142 118.242 56.9142L118.242 56.9142ZM71.4881 92.9986L48.5117 92.9986L48.5117 86.1221L71.4881 86.1221L71.4881 92.9986Z" id="Shape" fill="#000000" fill-rule="evenodd" stroke="none" />
          <path d="M5.3772 20.8557C6.33931 20.8269 7.0811 19.9874 7.0811 19.0248L7.0811 18.5992C9.12977 17.911 10.4395 16.0862 10.7423 14.2843C11.1604 11.7967 9.81321 9.54972 7.38978 8.69308C6.16048 8.25855 4.80439 7.73613 4.06611 7.15722C3.9529 7.0684 3.869 6.77965 3.93673 6.41964C3.97048 6.24035 4.12681 5.64129 4.71767 5.46339C6.01329 5.07222 6.83806 5.72168 6.92782 5.79691L6.8997 5.77183L7.27306 5.95512C9.02103 6.81293 10.6398 4.58472 9.28376 3.18738C8.85204 2.78918 8.08118 2.30636 7.0811 2.03566L7.0811 1.83176C7.0811 0.869179 6.3393 0.0296473 5.3772 0.000818968C4.38158 -0.0291824 3.56501 0.7691 3.56501 1.75816L3.56501 2.14394C1.98087 2.67785 0.805013 4.05246 0.481574 5.76879C0.173135 7.40566 0.715248 8.99777 1.89626 9.92402C3.03158 10.8144 4.64431 11.4519 6.21814 12.0083C7.26462 12.3782 7.37056 13.1333 7.27494 13.7014C7.14088 14.4997 6.46916 15.3625 5.31111 15.37C4.04455 15.3765 3.69462 15.3278 2.77517 14.7329C1.9729 14.214 0.87322 14.3732 0.322673 15.1539C-0.254123 15.9714 -0.0342822 17.0968 0.795879 17.6399C1.84916 18.3289 2.6519 18.6486 3.56502 18.7883L3.56502 19.0984C3.56502 20.0875 4.38158 20.8855 5.37721 20.8557L5.3772 20.8557Z" transform="translate(90.15735 35.81543)" id="Shape" fill="#000000" fill-rule="evenodd" stroke="none" />
          <path d="M5.12719 2.56383C5.12719 1.14797 3.97945 0 2.56359 0C1.14774 0 0 1.14774 0 2.56383C0 3.97992 1.14774 5.12742 2.56359 5.12742C3.97946 5.12742 5.12719 3.97968 5.12719 2.56383L5.12719 2.56383Z" transform="translate(57.808105 69.669556)" id="Shape" fill="#000000" fill-rule="evenodd" stroke="none" />
          <path d="M6.11133 23.4905C6.52524 24.2789 7.33524 24.7687 8.22563 24.7687C9.11601 24.7687 9.92602 24.2789 10.3399 23.4905C13.1278 18.1798 16.451 11.2205 16.451 8.22539C16.451 3.69 12.761 0 8.22563 0C3.69 0 0 3.68976 0 8.22539C0.000236034 11.2205 3.32344 18.1798 6.11133 23.4905L6.11133 23.4905ZM8.22589 3.51611C10.8225 3.51611 12.9352 5.62877 12.9352 8.22541C12.9352 9.73361 11.1188 14.2207 8.22589 19.9217C5.33276 14.221 3.51636 9.73362 3.51636 8.22541C3.51636 5.62877 5.62902 3.51612 8.22589 3.51612L8.22589 3.51611Z" transform="translate(67.414246 32.864258)" id="Shape" fill="#000000" fill-rule="evenodd" stroke="none" />
          <path d="M37.4769 3.51609L45.924 3.51609C46.8951 3.51609 47.6821 2.72906 47.6821 1.75805C47.6821 0.787032 46.8951 0 45.924 0L37.0761 0C35.6734 0 34.469 0.953438 34.1467 2.31891L32.0896 11.0405L2.46201 11.0405C1.71552 11.0405 1.01802 11.3733 0.548568 11.9536C0.0788802 12.5339 -0.100885 13.2853 0.0547403 14.0156L4.51091 34.8968C4.59271 35.2805 4.76521 35.6269 5.00052 35.9189C3.93435 36.9947 3.27458 38.4738 3.27458 40.1046C3.27458 43.3859 5.94388 46.0552 9.22513 46.0552C12.5064 46.0552 15.1757 43.3859 15.1757 40.1046C15.1757 38.9016 14.8157 37.7817 14.1995 36.8447L20.2051 36.8447C19.589 37.7817 19.229 38.9018 19.229 40.1046C19.229 43.3859 21.8983 46.0552 25.1795 46.0552C28.4608 46.0552 31.1301 43.3859 31.1301 40.1046C31.1301 38.5334 30.5167 37.1032 29.5183 36.0384C29.7904 35.738 29.9905 35.3667 30.0894 34.9481L37.4769 3.51609ZM29.4873 22.1845L24.009 22.1845L24.5647 14.5565L31.2864 14.5565L29.4873 22.1845ZM15.0524 33.3286L14.4967 25.7006L20.2276 25.7006L19.6719 33.3286L15.0524 33.3286ZM7.77153 33.3286L6.1438 25.7006L10.9712 25.7006L11.5269 33.3286L7.77153 33.3286ZM14.2405 22.1845L13.6848 14.5565L21.0397 14.5565L20.484 22.1845L14.2405 22.1845ZM23.1971 33.3286L23.7528 25.7006L28.6578 25.7006L26.8588 33.3286L23.1971 33.3286ZM10.1594 14.5568L10.7151 22.1847L5.39336 22.1847L3.76563 14.5568L10.1594 14.5568ZM9.22535 42.5391C7.88308 42.5391 6.79089 41.4469 6.79089 40.1046C6.79089 38.7624 7.88285 37.6704 9.22535 37.6704C10.5678 37.6704 11.6598 38.7624 11.6598 40.1046C11.6598 41.4471 10.5676 42.5391 9.22535 42.5391L9.22535 42.5391ZM25.1798 42.5391C23.8375 42.5391 22.7453 41.4469 22.7453 40.1046C22.7453 38.7624 23.8373 37.6704 25.1798 37.6704C26.5223 37.6704 27.6142 38.7624 27.6142 40.1046C27.6142 41.4471 26.522 42.5391 25.1798 42.5391L25.1798 42.5391Z" transform="translate(13.152771 10.415405)" id="Shape" fill="#000000" fill-rule="evenodd" stroke="none" />
          <path d="M30.094 0L1.75805 0C0.787032 0 0 0.787032 0 1.75805C0 2.72906 0.787032 3.51609 1.75805 3.51609L30.094 3.51609C31.065 3.51609 31.852 2.72906 31.852 1.75805C31.852 0.787032 31.065 0 30.094 0L30.094 0Z" transform="translate(67.50214 14.493042)" id="Shape" fill="#000000" fill-rule="evenodd" stroke="none" />
          <path d="M10.2982 3.5161C11.2692 3.5161 12.0563 2.72907 12.0563 1.75805C12.0563 0.787032 11.2692 0 10.2982 0L1.75805 0C0.787032 0 0 0.787032 0 1.75805C0 2.72907 0.787032 3.5161 1.75805 3.5161L10.2982 3.5161Z" transform="translate(67.50214 22.628906)" id="Shape" fill="#000000" fill-rule="evenodd" stroke="none" />
          <path d="M20.6468 1.75805C20.6468 0.787032 19.8598 0 18.8888 0L1.75805 0C0.787032 0 0 0.787032 0 1.75805C0 2.72907 0.787032 3.5161 1.75805 3.5161L18.8888 3.5161C19.8598 3.5161 20.6468 2.72907 20.6468 1.75805L20.6468 1.75805Z" transform="translate(85.240295 22.628906)" id="Shape" fill="#000000" fill-rule="evenodd" stroke="none" />
          <path d="M0 2.06273C0 0.923518 0.923517 0 2.06273 0C3.20195 0 4.12547 0.923518 4.12547 2.06273C4.12547 3.20195 3.20195 4.12547 2.06273 4.12547C0.923517 4.12547 0 3.20195 0 2.06273Z" transform="translate(73.57709 39.39612)" id="Circle" fill="#000000" fill-rule="evenodd" stroke="none" />
        </g>
      </g>
    </g>
  </g>
</svg>