<?xml version="1.0" encoding="utf-8"?>
<svg width="64px" height="64px" viewbox="0 0 64 64" version="1.1" xmlns:xlink="http://www.w3.org/1999/xlink" xmlns="http://www.w3.org/2000/svg">
  <defs>
    <path d="M0 0L35 0L35 49.2896L0 49.2896L0 0Z" id="path_1" />
    <rect width="64" height="64" id="artboard_1" />
    <clipPath id="clip_1">
      <use xlink:href="#artboard_1" clip-rule="evenodd" />
    </clipPath>
    <clipPath id="mask_1">
      <use xlink:href="#path_1" />
    </clipPath>
  </defs>
  <g id="Quad-HD-Copy" clip-path="url(#clip_1)">
    <path d="M0 27.5C0 12.3122 12.3122 0 27.5 0C42.6878 0 55 12.3122 55 27.5C55 42.6878 42.6878 55 27.5 55C12.3122 55 0 42.6878 0 27.5Z" transform="translate(4 4)" id="Ellipse" fill="none" fill-rule="evenodd" stroke="#FFFFFF" stroke-width="2" />
    <g id="noun_Doctor_22779" transform="translate(14 14.855188)">
      <path d="M0 0L35 0L35 49.2896L0 49.2896L0 0Z" id="Background" fill="none" fill-rule="evenodd" stroke="none" />
      <g clip-path="url(#mask_1)">
        <g id="Group" transform="translate(0 4.928961)">
          <path d="M25.3848 1.0024C26.8604 2.4955 27.9153 4.4044 28.3566 6.5387C29.6936 6.65035 30.7443 7.7693 30.7443 9.13465C30.7443 10.5746 29.5771 11.7418 28.1372 11.7418C26.6973 11.7418 25.5301 10.5746 25.5301 9.13465C25.5301 7.9191 26.363 6.9013 27.4887 6.61255C26.9059 3.8913 25.2627 1.5218 23.017 0.0223997C22.995 0.0150497 22.9736 0.00700016 22.9516 0L17.3334 9.9561L12.0071 0.0129522C11.5937 0.148752 11.187 0.299952 10.788 0.465152C8.6128 2.22005 7.38885 4.963 7.2877 8.33735C9.49655 8.53055 11.249 11.2616 11.249 14.6125L10.4321 15.3069C10.5014 15.4137 10.5423 15.54 10.5423 15.6769C10.5423 16.0528 10.2375 16.3573 9.8616 16.3573C9.48605 16.3573 9.1812 16.0528 9.1812 15.6769C9.1812 15.301 9.48605 14.9965 9.8616 14.9965C9.99285 14.9965 10.1146 15.0353 10.2189 15.1001L10.9207 14.6125C10.9207 11.4079 9.18295 8.80985 7.0392 8.80985C4.89545 8.80985 3.1577 11.4079 3.1577 14.6125L3.79995 15.0584C3.8857 15.0196 3.98055 14.9961 4.081 14.9961C4.4569 14.9961 4.76175 15.3006 4.76175 15.6765C4.76175 16.0524 4.4569 16.3569 4.081 16.3569C3.7051 16.3569 3.40025 16.0524 3.40025 15.6765C3.40025 15.5085 3.4636 15.3563 3.56475 15.2376L2.82905 14.6122C2.82905 11.4492 4.3911 8.83925 6.4239 8.39265C6.52645 5.51355 7.37485 2.9141 9.26765 1.0003C4.00785 3.64245 0.60585 8.84275 0 14.9702C3.4811 20.3501 10.0142 22.5141 17.5 22.5141C24.9854 22.5141 31.5189 20.3501 35 14.9706C34.3941 8.84345 30.6428 3.64455 25.3848 1.0024L25.3848 1.0024ZM24.6442 15.3559L22.8994 15.3559L22.8994 17.1003L21.4123 17.1003L21.4123 15.3559L19.6675 15.3559L19.6675 13.8688L21.4123 13.8688L21.4123 12.124L22.8994 12.124L22.8994 13.8688L24.6442 13.8688L24.6442 15.3559L24.6442 15.3559Z" transform="translate(0 16.917599)" id="Shape" fill="#FFFFFF" fill-rule="evenodd" stroke="none" />
          <path d="M2.08005 0.0416511C1.9614 0.015752 1.83925 0 1.7129 0C1.53825 0 1.3727 0.03395 1.2138 0.0822502C0.513101 0.2968 0 0.941151 0 1.7122C0 2.65825 0.766851 3.42545 1.7129 3.42545C2.65895 3.42545 3.42545 2.6586 3.42545 1.7122C3.42545 0.892851 2.849 0.209999 2.08005 0.0416511L2.08005 0.0416511Z" transform="translate(26.424301 24.34005)" id="Shape" fill="#FFFFFF" fill-rule="evenodd" stroke="none" />
          <path d="M8.4588 0C3.787 0 0 3.787 0 8.45845C0 11.4604 1.5652 14.0948 3.92245 15.5963C4.0887 15.702 4.2574 15.8042 4.431 15.8984C5.6287 16.548 7.0007 16.9172 8.45915 16.9172C9.82485 16.9172 11.1142 16.5914 12.2566 16.0163C12.5107 15.8882 12.7571 15.7482 12.9955 15.596C15.3524 14.0948 16.9176 11.46 16.9176 8.4581C16.9172 3.787 13.1302 0 8.4588 0L8.4588 0Z" transform="translate(9.041199 0)" id="Shape" fill="#FFFFFF" fill-rule="evenodd" stroke="none" />
        </g>
      </g>
    </g>
  </g>
</svg>