<?xml version="1.0" encoding="utf-8"?>
<!-- Generator: Adobe Illustrator 21.0.0, SVG Export Plug-In . SVG Version: 6.00 Build 0)  -->
<svg version="1.1" id="Layer_1" xmlns="http://www.w3.org/2000/svg" xmlns:xlink="http://www.w3.org/1999/xlink" x="0px" y="0px"
	 viewBox="0 0 18 18" style="enable-background:new 0 0 18 18;" xml:space="preserve">
<style type="text/css">
	.st0{fill:#880000;}
</style>
<desc>Created with Lunacy</desc>
<path id="Shape" class="st0" d="M13.7,12.8l-1.7-0.6L11.5,11c0.5-0.6,0.9-1.3,1-2l0.1-0.4h0.6c0.6,0,1.1-0.5,1.1-1.1V5.3
	C14.3,2.4,11.9,0,9,0C6.1,0,3.7,2.4,3.7,5.3v2.2c0,0.5,0.3,0.8,0.7,1v0.4c0,0.6,0.5,1.1,1.1,1.1h0.3c0.2,0.3,0.3,0.6,0.6,0.9
	c0,0.1,0.1,0.1,0.2,0.2l-0.6,1.2l-1.7,0.6c-1.9,0.6-3.4,2.7-3.4,4.9c0,0.2,0.2,0.4,0.4,0.4h15.5c0.2,0,0.4-0.2,0.4-0.4
	C17.1,15.5,15.7,13.4,13.7,12.8L13.7,12.8z M13.6,7.5c0,0.2-0.2,0.4-0.4,0.4h-0.5c0.1-0.7,0.1-1.4,0.2-2.2c0,0,0,0,0-0.1h0.7V7.5
	L13.6,7.5z M4.8,7.8c-0.2,0-0.4-0.2-0.4-0.4V5.6h0.7c0,0,0,0.1,0,0.1c0,0,0,0,0,0c0,0,0,0,0,0c0,0.7,0.1,1.4,0.2,2.1L4.8,7.8
	L4.8,7.8L4.8,7.8z M5.5,9.2c-0.2,0-0.4-0.2-0.4-0.4V8.5h0.3L5.5,9C5.5,9.1,5.5,9.2,5.5,9.2L5.5,9.2L5.5,9.2z M5.1,4.9H4.4
	C4.6,2.6,6.6,0.7,9,0.7c2.4,0,4.4,1.9,4.6,4.2h-0.7c0-1.9-1.6-3.5-3.6-3.5H8.7C6.7,1.4,5.2,3,5.1,4.9L5.1,4.9z M8.7,2.1h0.6
	c1.6,0,2.9,1.3,2.8,2.9c0,0.1,0,0.2,0,0.3c0,0,0,0,0,0l-0.4-0.1C10.5,5,9.4,4.5,8.5,3.6C8.5,3.6,8.4,3.5,8.3,3.5
	c-0.9,0-1.8,0.4-2.4,1.2C6,3.2,7.2,2.1,8.7,2.1L8.7,2.1z M6.3,9.2C6.1,8.7,5.9,6.9,5.9,5.8l0.5-0.6c0.4-0.6,1.1-0.9,1.8-1
	c0.9,0.9,2.2,1.5,3.5,1.7L12.1,6c0,0.7-0.1,1.5-0.2,2.1c0,0,0,0,0,0c0,0.2-0.1,0.4-0.1,0.7c-0.2,1.1-1,2.1-2.1,2.4
	c-0.5,0.1-0.9,0.1-1.4,0C7.6,11.1,7,10.6,6.6,9.9h0.7c0.1,0.4,0.5,0.7,1,0.7H9c0.6,0,1.1-0.5,1.1-1.1C10.1,9,9.6,8.5,9,8.5H8.3
	c-0.5,0-0.9,0.3-1,0.7H6.3L6.3,9.2z M8.3,12C8.5,12,8.8,12.1,9,12.1c0.2,0,0.4,0,0.6,0L9,12.7L8.3,12L8.3,12z M8.5,13.2l-1.1,1.2
	c-0.3-0.6-0.6-1.2-0.8-1.8L7,11.7L8.5,13.2L8.5,13.2z M11,11.6l0.5,1c-0.2,0.6-0.5,1.2-0.8,1.8l-1.2-1.2L11,11.6L11,11.6z M7.9,9.6
	c0-0.2,0.2-0.4,0.4-0.4H9c0.2,0,0.4,0.2,0.4,0.4c0,0.2-0.2,0.4-0.4,0.4H8.3C8.1,9.9,7.9,9.8,7.9,9.6L7.9,9.6z M1.6,17.3
	c0.1-1.7,1.3-3.3,2.9-3.8L6,13c0.3,0.7,0.6,1.5,1,2.2c0,0,0,0,0,0c0,0,0,0,0,0c0.3,0.5,0.6,1,1,1.5l0.4,0.7H1.6L1.6,17.3z M9,17
	l-0.5-0.8c0,0,0,0,0,0C8.2,15.8,8,15.4,7.7,15L9,13.7l1.3,1.3c-0.2,0.4-0.5,0.8-0.8,1.2C9.5,16.2,9.5,16.2,9,17L9,17z M9.6,17.3
	l0.4-0.7c0.4-0.5,0.7-1,1-1.5c0,0,0,0,0,0c0,0,0,0,0,0c0.4-0.7,0.7-1.4,1-2.2l1.5,0.5c1.6,0.5,2.7,2.1,2.9,3.8L9.6,17.3L9.6,17.3z"
	/>
</svg>
