<?xml version="1.0" encoding="utf-8"?>
<svg width="120px" height="120px" viewBox="0 0 120 120" version="1.1" xmlns:xlink="http://www.w3.org/1999/xlink" xmlns="http://www.w3.org/2000/svg">
  <desc>Created with Lunacy</desc>
  <g id="Page-1">
    <g id="023---Schedule-Deadline">
      <path d="M67.998 48.0008C68.0162 64.8876 55.6377 79.2287 38.9294 81.678C22.2211 84.1272 6.24728 73.9424 1.418 57.7608C0.662479 55.2363 0.20602 52.6318 0.0580025 50.0008C-1.302 26.6608 21.618 7.16077 30.518 0.480766C30.9421 0.156494 31.4643 -0.0128899 31.998 0.000766754C33.1719 0.0354424 34.1548 0.900768 34.338 2.06077C35.318 7.82077 38.378 12.0208 41.998 12.0208C44.5754 11.7452 46.7945 10.0791 47.778 7.68077C47.922 7.39725 48.1956 7.20211 48.5106 7.15825C48.8255 7.1144 49.142 7.22738 49.358 7.46077C58.638 17.5208 67.998 34.6008 67.998 48.0008L67.998 48.0008Z" transform="translate(50.001953 35.99922)" id="Shape" fill="#FF9801" fill-rule="evenodd" stroke="none" />
      <path d="M7.64001 12.0229C8.7308 12.0009 9.78662 11.634 10.656 10.9749C8.0212 8.70657 6.34921 5.51991 5.98 2.06288C5.8607 1.22203 5.30589 0.50684 4.5211 0.18224C3.73631 -0.142361 2.83841 -0.0280304 2.16 0.482876C1.512 0.968876 0.782005 1.53288 0 2.15088C0.996002 7.86488 4.04 12.0229 7.64 12.0229L7.64001 12.0229Z" transform="translate(78.359985 35.99713)" id="Shape#1" fill="#F57C00" fill-rule="evenodd" stroke="none" />
      <path d="M18.134 0.311817C17.918 0.0784264 17.6015 -0.0345535 17.2866 0.00930023C16.9716 0.053154 16.698 0.248299 16.554 0.531818C16.0406 1.50456 15.3794 2.39177 14.594 3.16182C22.998 13.3878 30.774 28.6398 30.774 40.8518C30.7696 58.3765 17.4457 73.027 0 74.6898C9.46117 75.4716 18.8179 72.2594 25.8039 65.8312C32.7898 59.403 36.7677 50.3452 36.774 40.8518C36.774 27.4518 27.414 10.3718 18.134 0.311817L18.134 0.311817Z" transform="translate(81.22595 43.14818)" id="Shape#2" fill="#F57C00" fill-rule="evenodd" stroke="none" />
      <path d="M0 26C0 11.6406 11.6406 0 26 0C40.3594 0 52 11.6406 52 26C52 40.3594 40.3594 52 26 52C11.6406 52 0 40.3594 0 26Z" transform="translate(57.998047 58.003998)" id="Oval" fill="#02A9F4" fill-rule="evenodd" stroke="none" />
      <path d="M3 0.000274658C1.99722 0.00517273 0.995552 0.0679436 0 0.188274C13.1085 1.70407 22.9992 12.8045 22.9992 26.0003C22.9992 39.1961 13.1085 50.2965 0 51.8123C9.60658 52.973 19.063 48.7028 24.5446 40.7287C30.0262 32.7546 30.6259 22.3961 26.1013 13.8426C21.5767 5.2892 12.6763 -0.0439224 3 0.000274658L3 0.000274658Z" transform="translate(81 57.999725)" id="Shape#3" fill="#0377BC" fill-rule="evenodd" stroke="none" />
      <path d="M80 4L80 14L0 14L0 4C0.00658965 1.7936 1.7936 0.00658989 4 0L76 0C78.2064 0.00658941 79.9934 1.7936 80 4L80 4Z" transform="translate(2 6)" id="Shape#4" fill="#F44335" fill-rule="evenodd" stroke="none" />
      <path d="M6 0L0 0C2.20641 0.00658941 3.99341 1.7936 4 4L4 14L10 14L10 4C9.99341 1.7936 8.20641 0.00658989 6 0L6 0Z" transform="translate(72 6)" id="Shape#5" fill="#C81E1E" fill-rule="evenodd" stroke="none" />
      <path d="M80 0L80 16C79.4663 15.9863 78.9441 16.1557 78.52 16.48C69.62 23.16 46.7 42.66 48.06 66L4 66C1.7936 65.9934 0.00658965 64.2064 0 62L0 0L80 0Z" transform="translate(2 20)" id="Shape#6" fill="#F5F5F5" fill-rule="evenodd" stroke="none" />
      <path d="M31.998 0L31.998 16C31.4643 15.9863 30.9421 16.1557 30.518 16.48C21.618 23.16 -1.302 42.66 0.0580025 66L6.058 66C4.698 42.66 27.618 23.16 36.518 16.48C36.9421 16.1557 37.4643 15.9863 37.998 16L37.998 0L31.998 0Z" transform="translate(44.001953 20)" id="Shape#7" fill="#CFD8DC" fill-rule="evenodd" stroke="none" />
      <path d="M0 4L0 2C0 1.44772 0.195262 0.976311 0.585786 0.585786C0.976311 0.195262 1.44772 0 2 0L9.968 0C10.5203 0 10.9917 0.195262 11.3822 0.585786C11.7727 0.976311 11.968 1.44772 11.968 2L11.968 8C11.968 8.55228 11.7727 9.02369 11.3822 9.41421C10.9917 9.80474 10.5203 10 9.968 10L2 10C1.44772 10 0.976311 9.80474 0.585786 9.41421C0.195262 9.02369 0 8.55228 0 8L0 4Z" transform="translate(12.031982 28)" id="Rectangle-path" fill="#9E9E9E" fill-rule="evenodd" stroke="none" />
      <path d="M0 4L0 2C0 1.44772 0.195262 0.976311 0.585786 0.585786C0.976311 0.195262 1.44772 0 2 0L9.968 0C10.5203 0 10.9917 0.195262 11.3822 0.585786C11.7727 0.976311 11.968 1.44772 11.968 2L11.968 8C11.968 8.55228 11.7727 9.02369 11.3822 9.41421C10.9917 9.80474 10.5203 10 9.968 10L2 10C1.44772 10 0.976311 9.80474 0.585786 9.41421C0.195262 9.02369 0 8.55228 0 8L0 4Z" transform="translate(36 28)" id="Rectangle-path#1" fill="#9E9E9E" fill-rule="evenodd" stroke="none" />
      <path d="M0 4L0 2C0 1.44772 0.195262 0.976311 0.585786 0.585786C0.976311 0.195262 1.44772 0 2 0L9.968 0C10.5203 0 10.9917 0.195262 11.3822 0.585786C11.7727 0.976311 11.968 1.44772 11.968 2L11.968 8C11.968 8.55228 11.7727 9.02369 11.3822 9.41421C10.9917 9.80474 10.5203 10 9.968 10L2 10C1.44772 10 0.976311 9.80474 0.585786 9.41421C0.195262 9.02369 0 8.55228 0 8L0 4Z" transform="translate(60 28)" id="Rectangle-path#2" fill="#9E9E9E" fill-rule="evenodd" stroke="none" />
      <path d="M0 4L0 2C0 1.44772 0.195262 0.976311 0.585786 0.585786C0.976311 0.195262 1.44772 0 2 0L9.968 0C10.5203 0 10.9917 0.195262 11.3822 0.585786C11.7727 0.976311 11.968 1.44772 11.968 2L11.968 8C11.968 8.55228 11.7727 9.02369 11.3822 9.41421C10.9917 9.80474 10.5203 10 9.968 10L2 10C1.44772 10 0.976311 9.80474 0.585786 9.41421C0.195262 9.02369 0 8.55228 0 8L0 4Z" transform="translate(12.031982 46)" id="Rectangle-path#3" fill="#9E9E9E" fill-rule="evenodd" stroke="none" />
      <path d="M0 4L0 2C0 1.44772 0.195262 0.976311 0.585786 0.585786C0.976311 0.195262 1.44772 0 2 0L9.968 0C10.5203 0 10.9917 0.195262 11.3822 0.585786C11.7727 0.976311 11.968 1.44772 11.968 2L11.968 8C11.968 8.55228 11.7727 9.02369 11.3822 9.41421C10.9917 9.80474 10.5203 10 9.968 10L2 10C1.44772 10 0.976311 9.80474 0.585786 9.41421C0.195262 9.02369 0 8.55228 0 8L0 4Z" transform="translate(36 46)" id="Rectangle-path#4" fill="#9E9E9E" fill-rule="evenodd" stroke="none" />
      <path d="M0 4L0 2C0 1.44772 0.195262 0.976311 0.585786 0.585786C0.976311 0.195262 1.44772 0 2 0L9.968 0C10.5203 0 10.9917 0.195262 11.3822 0.585786C11.7727 0.976311 11.968 1.44772 11.968 2L11.968 8C11.968 8.55228 11.7727 9.02369 11.3822 9.41421C10.9917 9.80474 10.5203 10 9.968 10L2 10C1.44772 10 0.976311 9.80474 0.585786 9.41421C0.195262 9.02369 0 8.55228 0 8L0 4Z" transform="translate(36 64)" id="Rectangle-path#5" fill="#9E9E9E" fill-rule="evenodd" stroke="none" />
      <path d="M0 4L0 2C0 1.44772 0.195262 0.976311 0.585786 0.585786C0.976311 0.195262 1.44772 0 2 0L9.968 0C10.5203 0 10.9917 0.195262 11.3822 0.585786C11.7727 0.976311 11.968 1.44772 11.968 2L11.968 8C11.968 8.55228 11.7727 9.02369 11.3822 9.41421C10.9917 9.80474 10.5203 10 9.968 10L2 10C1.44772 10 0.976311 9.80474 0.585786 9.41421C0.195262 9.02369 0 8.55228 0 8L0 4Z" transform="translate(12.031982 64)" id="Rectangle-path#6" fill="#9E9E9E" fill-rule="evenodd" stroke="none" />
      <g id="Group">
        <path d="M98.28 41.176C97.3197 41.2996 96.4781 41.879 96.02 42.732C94.888 44.824 93.42 46.024 92 46.024C89.52 46.024 87.128 42.536 86.308 37.712C86.0659 36.3611 85.2143 35.1974 84 34.558L84 10C84 6.68629 81.3137 4 78 4L74 4L74 2C74 0.89543 73.1046 0 72 0C70.8954 0 70 0.895431 70 2L70 4L62 4L62 2C62 0.89543 61.1046 0 60 0C58.8954 0 58 0.895431 58 2L58 4L50 4L50 2C50 0.89543 49.1046 0 48 0C46.8954 0 46 0.895431 46 2L46 4L38 4L38 2C38 0.89543 37.1046 0 36 0C34.8954 0 34 0.895431 34 2L34 4L26 4L26 2C26 0.89543 25.1046 0 24 0C22.8954 0 22 0.895431 22 2L22 4L14 4L14 2C14 0.89543 13.1046 0 12 0C10.8954 0 10 0.895431 10 2L10 4L6 4C2.68629 4 0 6.68629 0 10L0 82C0 85.3137 2.68629 88 6 88L48.23 88C48.4686 90.1414 48.8929 92.2581 49.498 94.326C53.4962 107.896 65.1148 117.835 79.14 119.684C80.7169 119.892 82.3055 119.997 83.896 120C93.4618 120.028 102.645 116.247 109.419 109.493C116.193 102.738 120 93.5659 120 84C120 70.138 110.356 52.432 100.832 42.108C100.185 41.3979 99.232 41.0497 98.28 41.176L98.28 41.176ZM6 8L10 8L10 10C10 11.1046 10.8954 12 12 12C13.1046 12 14 11.1046 14 10L14 8L22 8L22 10C22 11.1046 22.8954 12 24 12C25.1046 12 26 11.1046 26 10L26 8L34 8L34 10C34 11.1046 34.8954 12 36 12C37.1046 12 38 11.1046 38 10L38 8L46 8L46 10C46 11.1046 46.8954 12 48 12C49.1046 12 50 11.1046 50 10L50 8L58 8L58 10C58 11.1046 58.8954 12 60 12C61.1046 12 62 11.1046 62 10L62 8L70 8L70 10C70 11.1046 70.8954 12 72 12C73.1046 12 74 11.1046 74 10L74 8L78 8C79.1046 8 80 8.89543 80 10L80 18L4 18L4 10C4 8.89543 4.89543 8 6 8L6 8ZM4 82L4 22L80 22L80 34.494C79.7619 34.6068 79.5343 34.7407 79.32 34.894C69.152 42.498 47.904 61.164 47.982 84L6 84C4.89543 84 4 83.1046 4 82L4 82ZM105.106 108.052C98.1502 114.201 88.8529 117.001 79.658 115.716C67.2486 113.975 56.9778 105.19 53.334 93.2C45.734 67.474 73.134 44.514 81.722 38.088C81.7823 38.0344 81.8593 38.0033 81.94 38C81.9858 38.0009 82.0311 38.0097 82.074 38.026C82.2299 38.0905 82.3412 38.2314 82.368 38.398C83.55 45.352 87.42 50.024 92 50.024C94.8262 49.862 97.3815 48.2898 98.8 45.84C107.5 55.702 116 71.6 116 84C116 93.2116 112.03 101.976 105.106 108.052L105.106 108.052Z" id="Shape#8" fill="#000000" fill-rule="evenodd" stroke="none" />
        <path d="M28 0C12.536 0 0 12.536 0 28C0 43.464 12.536 56 28 56C43.464 56 56 43.464 56 28C55.9473 12.5579 43.4421 0.0526733 28 0L28 0ZM41.678 47.694L40.732 46.052C40.1797 45.0949 38.9561 44.7667 37.999 45.319C37.0419 45.8713 36.7137 47.0949 37.266 48.052L38.21 49.688C35.6287 50.9136 32.8475 51.6636 30 51.902L30 50C30 48.8954 29.1046 48 28 48C26.8955 48 26 48.8954 26 50L26 51.898C23.1521 51.6611 20.3702 50.9124 17.788 49.688L18.732 48.052C19.2843 47.0949 18.9561 45.8713 17.999 45.319C17.0419 44.7667 15.8183 45.0949 15.266 46.052L14.32 47.694C11.976 46.0601 9.93994 44.024 8.30602 41.68L9.94602 40.732C10.8944 40.176 11.2163 38.9587 10.6666 38.0066C10.1169 37.0545 8.90174 36.7246 7.94602 37.268L6.31202 38.212C5.08693 35.6298 4.33696 32.8481 4.09802 30L6.00002 30C7.10459 30 8.00002 29.1046 8.00002 28C8.00002 26.8954 7.10459 26 6.00002 26L4.10002 26C4.33864 23.1562 5.08725 20.3786 6.31002 17.8L7.94402 18.744C8.56316 19.107 9.32932 19.1104 9.95165 18.7529C10.574 18.3955 10.9571 17.7319 10.9555 17.0142C10.9539 16.2966 10.5679 15.6347 9.94402 15.28L8.30402 14.332C9.93742 11.9876 11.9736 9.9514 14.318 8.318L15.264 9.96C15.8163 10.9171 17.0399 11.2453 17.997 10.693C18.9541 10.1407 19.2823 8.91711 18.73 7.96L17.786 6.324C20.3683 5.09656 23.1509 4.34518 26 4.106L26 6C26 7.10457 26.8955 8 28 8C29.1046 8 30 7.10457 30 6L30 4.10201C32.8439 4.34032 35.6216 5.08894 38.2 6.312L37.256 7.94801C36.7037 8.90512 37.0319 10.1287 37.989 10.681C38.9461 11.2333 40.1697 10.9051 40.722 9.948L41.668 8.306C44.0124 9.9394 46.0486 11.9756 47.682 14.32L46.042 15.268C45.4181 15.6227 45.0321 16.2845 45.0305 17.0022C45.029 17.7199 45.4121 18.3834 46.0344 18.7409C46.6567 19.0984 47.4229 19.095 48.042 18.732L49.676 17.788C50.9037 20.3696 51.6557 23.1515 51.896 26L50 26C48.8955 26 48 26.8954 48 28C48 29.1046 48.8955 30 50 30L51.898 30C51.6597 32.8479 50.9104 35.6297 49.686 38.212L48.052 37.268C47.4329 36.905 46.6667 36.9016 46.0444 37.2591C45.4221 37.6166 45.039 38.2801 45.0405 38.9978C45.0421 39.7155 45.4281 40.3773 46.052 40.732L47.692 41.68C46.0579 44.0256 44.0211 46.0631 41.676 47.698L41.678 47.694Z" transform="translate(56 56)" id="Shape#9" fill="#000000" fill-rule="evenodd" stroke="none" />
        <path d="M4.30231 13.4624L7.90231 2.63441C8.12811 1.9556 7.97461 1.2079 7.49964 0.672958C7.02467 0.138016 6.3004 -0.102905 5.59964 0.0409546C4.89888 0.184814 4.3281 0.691597 4.10231 1.3704L0.10231 13.3704C-0.136757 14.089 0.0506058 14.8811 0.586311 15.4164L6.58631 21.4164C7.36448 22.2012 8.63152 22.2066 9.41631 21.4284C10.2011 20.6502 10.2065 19.3832 9.42831 18.5984L4.30231 13.4624Z" transform="translate(81.98364 70.00159)" id="Shape#10" fill="#000000" fill-rule="evenodd" stroke="none" />
        <path d="M11.968 0L4 0C1.79086 0 0 1.79086 0 4L0 10C0 12.2091 1.79086 14 4 14L11.968 14C14.1771 14 15.968 12.2091 15.968 10L15.968 4C15.968 1.79086 14.1771 0 11.968 0L11.968 0ZM4 10L4 4L11.968 4L11.968 10L4 10Z" transform="translate(10.031982 26)" id="Shape#11" fill="#000000" fill-rule="evenodd" stroke="none" />
        <path d="M4 14L11.968 14C14.1771 14 15.968 12.2091 15.968 10L15.968 4C15.968 1.79086 14.1771 0 11.968 0L4 0C1.79086 0 0 1.79086 0 4L0 10C0 12.2091 1.79086 14 4 14L4 14ZM4 4L11.968 4L11.968 10L4 10L4 4Z" transform="translate(34 26)" id="Shape#12" fill="#000000" fill-rule="evenodd" stroke="none" />
        <path d="M4 14L8.032 14C9.13657 14 10.032 13.1046 10.032 12C10.032 10.8954 9.13657 10 8.032 10L4 10L4 4L12.032 4L12.032 6C12.032 7.10457 12.9274 8 14.032 8C15.1366 8 16.032 7.10457 16.032 6L16.032 4C16.032 1.79086 14.2411 0 12.032 0L4 0C1.79086 0 0 1.79086 0 4L0 10C0 12.2091 1.79086 14 4 14L4 14Z" transform="translate(57.968018 26)" id="Shape#13" fill="#000000" fill-rule="evenodd" stroke="none" />
        <path d="M11.968 0L4 0C1.79086 0 0 1.79086 0 4L0 10C0 12.2091 1.79086 14 4 14L11.968 14C14.1771 14 15.968 12.2091 15.968 10L15.968 4C15.968 1.79086 14.1771 0 11.968 0L11.968 0ZM4 10L4 4L11.968 4L11.968 10L4 10Z" transform="translate(10.031982 44)" id="Shape#14" fill="#000000" fill-rule="evenodd" stroke="none" />
        <path d="M4 14L11.968 14C14.1771 14 15.968 12.2091 15.968 10L15.968 4C15.968 1.79086 14.1771 0 11.968 0L4 0C1.79086 0 0 1.79086 0 4L0 10C0 12.2091 1.79086 14 4 14L4 14ZM4 4L11.968 4L11.968 10L4 10L4 4Z" transform="translate(34 44)" id="Shape#15" fill="#000000" fill-rule="evenodd" stroke="none" />
        <path d="M11.968 0L4 0C1.79086 0 0 1.79086 0 4L0 10C0 12.2091 1.79086 14 4 14L11.968 14C14.1771 14 15.968 12.2091 15.968 10L15.968 4C15.968 1.79086 14.1771 0 11.968 0L11.968 0ZM4 10L4 4L11.968 4L11.968 10L4 10Z" transform="translate(10.031982 62)" id="Shape#16" fill="#000000" fill-rule="evenodd" stroke="none" />
        <path d="M11.968 4C13.0726 4 13.968 3.10457 13.968 2C13.968 0.895432 13.0726 0 11.968 0L4 0C1.79086 0 0 1.79086 0 4L0 10C0 12.2091 1.79086 14 4 14L10 14C11.1046 14 12 13.1046 12 12C12 10.8954 11.1046 10 10 10L4 10L4 4L11.968 4Z" transform="translate(34 62)" id="Shape#17" fill="#000000" fill-rule="evenodd" stroke="none" />
      </g>
    </g>
  </g>
</svg>