<?xml version="1.0" encoding="utf-8"?>
<svg width="64px" height="64px" viewbox="0 0 64 64" version="1.1" xmlns:xlink="http://www.w3.org/1999/xlink" xmlns="http://www.w3.org/2000/svg">
  <defs>
    <path d="M27.499 0L27.501 0Q28.1761 0 28.8503 0.0331238Q29.5246 0.0662475 30.1964 0.132415Q30.8682 0.198583 31.5359 0.297635Q32.2037 0.396687 32.8658 0.528386Q33.5279 0.660084 34.1827 0.824111Q34.8375 0.988137 35.4835 1.1841Q36.1295 1.38006 36.7651 1.60748Q37.4007 1.8349 38.0244 2.09324Q38.6481 2.35157 39.2583 2.6402Q39.8686 2.92882 40.4639 3.24705Q41.0593 3.56527 41.6383 3.91232Q42.2173 4.25937 42.7786 4.63442Q43.3399 5.00946 43.8821 5.4116Q44.4243 5.81373 44.9462 6.24199Q45.468 6.67024 45.9682 7.12359Q46.4684 7.57693 46.9457 8.05427Q47.4231 8.53161 47.8764 9.0318Q48.3298 9.53199 48.758 10.0538Q49.1863 10.5756 49.5884 11.1179Q49.9905 11.6601 50.3656 12.2214Q50.7406 12.7827 51.0877 13.3617Q51.4347 13.9407 51.7529 14.5361Q52.0712 15.1314 52.3598 15.7417Q52.6484 16.3519 52.9068 16.9756Q53.1651 17.5993 53.3925 18.2349Q53.6199 18.8705 53.8159 19.5165Q54.0119 20.1625 54.1759 20.8173Q54.3399 21.4721 54.4716 22.1342Q54.6033 22.7963 54.7024 23.4641Q54.8014 24.1318 54.8676 24.8036Q54.9338 25.4754 54.9669 26.1497Q55 26.8239 55 27.499L55 27.501Q55 28.1761 54.9669 28.8503Q54.9338 29.5246 54.8676 30.1964Q54.8014 30.8682 54.7024 31.5359Q54.6033 32.2037 54.4716 32.8658Q54.3399 33.5279 54.1759 34.1827Q54.0119 34.8375 53.8159 35.4835Q53.6199 36.1295 53.3925 36.7651Q53.1651 37.4007 52.9068 38.0244Q52.6484 38.6481 52.3598 39.2583Q52.0712 39.8686 51.7529 40.4639Q51.4347 41.0593 51.0877 41.6383Q50.7406 42.2173 50.3656 42.7786Q49.9905 43.3399 49.5884 43.8821Q49.1863 44.4243 48.758 44.9462Q48.3298 45.468 47.8764 45.9682Q47.4231 46.4684 46.9457 46.9457Q46.4684 47.4231 45.9682 47.8764Q45.468 48.3298 44.9462 48.758Q44.4243 49.1863 43.8821 49.5884Q43.3399 49.9905 42.7786 50.3656Q42.2173 50.7406 41.6383 51.0877Q41.0593 51.4347 40.4639 51.7529Q39.8686 52.0712 39.2583 52.3598Q38.6481 52.6484 38.0244 52.9068Q37.4007 53.1651 36.7651 53.3925Q36.1295 53.6199 35.4835 53.8159Q34.8375 54.0119 34.1827 54.1759Q33.5279 54.3399 32.8658 54.4716Q32.2037 54.6033 31.5359 54.7024Q30.8682 54.8014 30.1964 54.8676Q29.5246 54.9338 28.8503 54.9669Q28.1761 55 27.501 55L27.499 55Q26.8239 55 26.1497 54.9669Q25.4754 54.9338 24.8036 54.8676Q24.1318 54.8014 23.4641 54.7024Q22.7963 54.6033 22.1342 54.4716Q21.4721 54.3399 20.8173 54.1759Q20.1625 54.0119 19.5165 53.8159Q18.8705 53.6199 18.2349 53.3925Q17.5993 53.1651 16.9756 52.9068Q16.3519 52.6484 15.7417 52.3598Q15.1314 52.0712 14.5361 51.7529Q13.9407 51.4347 13.3617 51.0877Q12.7827 50.7406 12.2214 50.3656Q11.6601 49.9905 11.1179 49.5884Q10.5756 49.1863 10.0538 48.758Q9.53199 48.3298 9.0318 47.8764Q8.53161 47.4231 8.05427 46.9457Q7.57693 46.4684 7.12359 45.9682Q6.67024 45.468 6.24199 44.9462Q5.81373 44.4243 5.4116 43.8821Q5.00946 43.3399 4.63442 42.7786Q4.25937 42.2173 3.91232 41.6383Q3.56527 41.0593 3.24705 40.4639Q2.92882 39.8686 2.6402 39.2583Q2.35157 38.6481 2.09324 38.0244Q1.8349 37.4007 1.60748 36.7651Q1.38006 36.1295 1.1841 35.4835Q0.988137 34.8375 0.824111 34.1827Q0.660084 33.5279 0.528386 32.8658Q0.396687 32.2037 0.297635 31.5359Q0.198583 30.8682 0.132415 30.1964Q0.0662475 29.5246 0.0331238 28.8503Q0 28.1761 0 27.501L0 27.499Q0 26.8239 0.0331238 26.1497Q0.0662475 25.4754 0.132415 24.8036Q0.198583 24.1318 0.297635 23.4641Q0.396687 22.7963 0.528386 22.1342Q0.660084 21.4721 0.824111 20.8173Q0.988137 20.1625 1.1841 19.5165Q1.38006 18.8705 1.60748 18.2349Q1.8349 17.5993 2.09324 16.9756Q2.35157 16.3519 2.6402 15.7417Q2.92882 15.1314 3.24705 14.5361Q3.56527 13.9407 3.91232 13.3617Q4.25937 12.7827 4.63442 12.2214Q5.00946 11.6601 5.4116 11.1179Q5.81373 10.5756 6.24199 10.0538Q6.67024 9.53199 7.12359 9.0318Q7.57693 8.53161 8.05427 8.05427Q8.53161 7.57693 9.0318 7.12359Q9.53199 6.67024 10.0538 6.24199Q10.5756 5.81373 11.1179 5.4116Q11.6601 5.00946 12.2214 4.63442Q12.7827 4.25937 13.3617 3.91232Q13.9407 3.56527 14.5361 3.24705Q15.1314 2.92882 15.7417 2.6402Q16.3519 2.35157 16.9756 2.09324Q17.5993 1.8349 18.2349 1.60748Q18.8705 1.38006 19.5165 1.1841Q20.1625 0.988137 20.8173 0.824111Q21.4721 0.660084 22.1342 0.528386Q22.7963 0.396687 23.4641 0.297635Q24.1318 0.198583 24.8036 0.132415Q25.4754 0.0662475 26.1497 0.0331238Q26.8239 0 27.499 0L27.499 0Z" id="path_1" />
    <rect width="64" height="64" id="artboard_1" />
    <clipPath id="clip_1">
      <use xlink:href="#artboard_1" clip-rule="evenodd" />
    </clipPath>
    <clipPath id="mask_1">
      <use xlink:href="#path_1" />
    </clipPath>
  </defs>
  <g id="Quad-HD-Copy" clip-path="url(#clip_1)">
    <g id="patient-(1)-Mask" transform="translate(4 4)">
      <g id="Mask">
        <g clip-path="url(#mask_1)">
          <use xlink:href="#path_1" fill="none" stroke="#006C76" stroke-width="4" />
        </g>
      </g>
      <g clip-path="url(#mask_1)">
        <g id="patient-(1)" transform="translate(5 5)">
          <path d="M10.0833 14.6673C9.47283 14.6673 8.899 14.3629 8.558 13.8514L5.43583 9.16725L1.83333 9.16725C0.821333 9.16725 0 8.34592 0 7.33392C0 6.32192 0.821333 5.50059 1.83333 5.50059L6.41667 5.50059C7.029 5.50059 7.601 5.80675 7.942 6.31642L9.856 9.18742L13.9425 1.01259C14.2432 0.41492 14.8427 0.026254 15.5118 0.000587463C16.2232 -0.0159122 16.8098 0.315922 17.1545 0.887919L22.121 9.16725L25.6667 9.16725C26.6787 9.16725 27.5 9.98859 27.5 11.0006C27.5 12.0126 26.6787 12.8339 25.6667 12.8339L21.0833 12.8339C20.4398 12.8339 19.8422 12.4966 19.5122 11.9448L15.73 5.64175L11.7242 13.6553C11.4308 14.2401 10.8497 14.6251 10.197 14.6654C10.1603 14.6673 10.1218 14.6673 10.0833 14.6673L10.0833 14.6673Z" transform="translate(16.5 29.332748)" id="Shape" fill="#006C76" fill-rule="evenodd" stroke="none" />
          <path d="M0 9.16667C0 4.10406 4.10406 0 9.16667 0C14.2293 0 18.3333 4.10406 18.3333 9.16667C18.3333 14.2293 14.2293 18.3333 9.16667 18.3333C4.10406 18.3333 0 14.2293 0 9.16667Z" transform="translate(7.3333282 0)" id="Circle" fill="#006C76" fill-rule="evenodd" stroke="none" />
          <path d="M12.8333 14.6667C12.8333 11.6343 15.301 9.16667 18.3333 9.16667L22.9167 9.16667C23.8682 9.16667 24.7848 9.4105 25.5897 9.85783L27.1645 6.70633C27.9657 5.1095 29.491 4.06267 31.2235 3.784C29.5552 1.5015 26.8785 0 23.8333 0L9.16667 0C4.10483 0 0 4.10483 0 9.16667L0 15.125C0 15.884 0.616 16.5 1.375 16.5L13.1707 16.5C12.9653 15.9243 12.8333 15.312 12.8333 14.6667L12.8333 14.6667Z" transform="translate(0 22)" id="Shape" fill="#006C76" fill-rule="evenodd" stroke="none" />
        </g>
      </g>
    </g>
  </g>
</svg>