<?xml version="1.0" encoding="utf-8"?>
<svg width="50px" height="50px" viewBox="0 0 50 50" version="1.1" xmlns:xlink="http://www.w3.org/1999/xlink" xmlns="http://www.w3.org/2000/svg">
  <desc>Created with Lunacy</desc>
  <defs>
    <path d="M0 0L50 0L50 50L0 50L0 0Z" id="path_1" />
    <clipPath id="mask_1">
      <use xlink:href="#path_1" />
    </clipPath>
  </defs>
  <g id="hospitalisation">
    <path d="M0 0L50 0L50 50L0 50L0 0Z" id="Background" fill="none" fill-rule="evenodd" stroke="none" />
    <g clip-path="url(#mask_1)">
      <g id="Group" transform="translate(0 4.561035)">
        <g id="Group" transform="translate(0.7385254 14.246582)">
          <path d="M37.9274 1.49012e-06L1.31328 1.49012e-06C0.587988 1.49012e-06 0 0.587989 0 1.31328L0 21.794L39.2406 21.794L39.2406 1.31318C39.2407 0.587891 38.6527 0 37.9274 0L37.9274 1.49012e-06Z" id="Shape" fill="#EEDFDA" fill-rule="evenodd" stroke="none" />
        </g>
        <g id="Group" transform="translate(36.511963 14.246582)">
          <path d="M2.14297 1.49012e-06L0 1.49012e-06C0.731444 1.49012e-06 1.32432 0.592872 1.32432 1.32432L1.32432 21.794L3.46728 21.794L3.46728 1.32432C3.46728 0.592871 2.87432 0 2.14297 0L2.14297 1.49012e-06Z" id="Shape" fill="#C9BEB9" fill-rule="evenodd" stroke="none" />
        </g>
        <g id="Group" transform="translate(4.6191406 7.9699707)">
          <path d="M30.8806 17.5738C30.7859 17.1346 30.8069 16.6782 30.943 16.2499C31.14 15.6294 31.2465 14.9688 31.2465 14.283L31.2465 6.64386C31.2465 5.96427 31.142 5.30909 30.9485 4.69337C30.8144 4.2669 30.7939 3.8129 30.8881 3.37589L31.4327 0.849815C31.5401 0.35167 31.0973 -0.0912011 30.5991 0.0162214L28.1433 0.545713C27.694 0.642589 27.2269 0.618857 26.7906 0.474131C26.1481 0.260849 25.4612 0.144736 24.7471 0.144736L6.70187 0.144736C5.98771 0.144736 5.30089 0.260849 4.65831 0.474131C4.22208 0.618955 3.75499 0.642589 3.30567 0.545713L0.849815 0.0162214C0.35167 -0.0912003 -0.0912011 0.35167 0.016221 0.849815L0.56085 3.37589C0.655088 3.8129 0.63458 4.2669 0.500498 4.69337C0.306944 5.30909 0.202452 5.96427 0.202452 6.64386L0.202452 14.283C0.202452 14.9688 0.308995 15.6294 0.505967 16.2499C0.642003 16.6782 0.662999 17.1346 0.56837 17.5738L0.0162214 20.1351C-0.0912003 20.6332 0.351671 21.0761 0.849815 20.9687L3.41105 20.4165C3.8503 20.3218 4.30665 20.3429 4.73497 20.4789C5.35548 20.6759 6.01612 20.7824 6.70187 20.7824L24.7471 20.7824C25.4328 20.7824 26.0935 20.6759 26.714 20.4789C27.1423 20.3429 27.5986 20.3219 28.0379 20.4165L30.5991 20.9687C31.0973 21.0761 31.5401 20.6332 31.4327 20.1351L30.8806 17.5738Z" id="Shape" fill="#80B4FB" fill-rule="evenodd" stroke="none" />
        </g>
        <g id="Group" transform="translate(4.6191406 7.9699707)">
          <path d="M30.8805 17.5738C30.7858 17.1346 30.8069 16.6782 30.9429 16.2499C31.1399 15.6294 31.2464 14.9688 31.2464 14.283L31.2464 6.64386C31.2464 5.96427 31.1419 5.30909 30.9484 4.69337C30.8143 4.2669 30.7938 3.8129 30.888 3.37589L31.4326 0.849815C31.5401 0.35167 31.0972 -0.0912011 30.599 0.0162214L28.1432 0.545713C27.7106 0.638975 27.2615 0.619249 26.8394 0.488487C26.8508 0.533116 26.8627 0.57755 26.8765 0.621593C27.07 1.23732 27.1745 1.89249 27.1745 2.57208L27.1745 10.2112C27.1745 10.897 27.068 11.5577 26.871 12.1781C26.7351 12.6065 26.714 13.0628 26.8086 13.5021L27.3608 16.0633C27.4682 16.5614 27.0253 17.0043 26.5272 16.8969L23.9659 16.3447C23.5267 16.25 23.0703 16.2711 22.642 16.4071C22.0215 16.6041 21.3609 16.7107 20.6751 16.7107L2.62999 16.7107C1.94425 16.7107 1.2836 16.6041 0.663096 16.4071C0.622568 16.3943 0.581553 16.3834 0.540537 16.3726C0.643955 16.7648 0.654111 17.1763 0.568369 17.5739L0.0162207 20.1352C-0.0912011 20.6333 0.35167 21.0762 0.849814 20.9688L3.41105 20.4166C3.8503 20.3219 4.30665 20.343 4.73497 20.479C5.35548 20.676 6.01612 20.7825 6.70187 20.7825L24.7471 20.7825C25.4328 20.7825 26.0935 20.676 26.714 20.479C27.1423 20.3431 27.5986 20.322 28.0379 20.4166L30.5991 20.9688C31.0973 21.0762 31.5401 20.6333 31.4327 20.1352L30.8805 17.5738Z" id="Shape" fill="#61A2F9" fill-rule="evenodd" stroke="none" />
        </g>
        <g id="Group" transform="translate(3.503418 22.913818)">
          <path d="M25.0623 0L8.61816 0C3.8585 0 0 3.8585 0 8.61816L0 12.8642L33.6805 12.8642L33.6805 8.61816C33.6805 3.8585 29.822 0 25.0623 0L25.0623 0Z" id="Shape" fill="#F9F5F5" fill-rule="evenodd" stroke="none" />
        </g>
        <g id="Group" transform="translate(24.854736 22.913818)">
          <path d="M3.63818 0L0 0C4.7999 0 8.69102 3.89111 8.69102 8.69102L8.69102 12.8643L12.3292 12.8643L12.3292 8.69102C12.3292 3.89102 8.43809 0 3.63818 0L3.63818 0Z" id="Shape" fill="#EEDFDA" fill-rule="evenodd" stroke="none" />
        </g>
        <g id="Group" transform="translate(16.102295 19.168213)">
          <path d="M7.14922 6.06611L1.3335 6.06611C0.59707 6.06611 0 5.46914 0 4.73262L0 0L8.48271 0L8.48271 4.73262C8.48271 5.46904 7.88564 6.06611 7.14922 6.06611L7.14922 6.06611Z" id="Shape" fill="#FFCBBE" fill-rule="evenodd" stroke="none" />
        </g>
        <g id="Group" transform="translate(21.052979 19.168213)">
          <path d="M1.34473 0L1.34473 4.72129C1.34473 5.46397 0.742677 6.06602 0 6.06602L2.1873 6.06602C2.92998 6.06602 3.53203 5.46396 3.53203 4.72129L3.53203 0L1.34473 0Z" id="Shape" fill="#FFA68D" fill-rule="evenodd" stroke="none" />
        </g>
        <g id="Group" transform="translate(11.576416 4.786743)">
          <g id="Group" transform="translate(2.338562 0)">
            <path d="M9.73223 7.45058e-07L3.125 7.45058e-07C1.39912 7.45058e-07 0 1.39912 0 3.125L0 7.68262L12.8572 7.68262L12.8572 3.125C12.8572 1.39912 11.4581 0 9.73223 0L9.73223 7.45058e-07Z" id="Shape" fill="#C56E37" fill-rule="evenodd" stroke="none" />
          </g>
          <g id="Group" transform="translate(10.459259 0)">
            <path d="M1.58516 0L0 0C1.62373 0 2.94004 1.31631 2.94004 2.94004L2.94004 7.68262L4.73662 7.68262L4.73662 3.15137C4.73652 1.41094 3.32559 7.45058e-07 1.58516 7.45058e-07L1.58516 0Z" id="Shape" fill="#8F4E24" fill-rule="evenodd" stroke="none" />
          </g>
          <g id="Group" transform="translate(0 7.4079742)">
            <path d="M3.03133 2.11068C3.41424 3.28802 3.80711 4.49301 2.80291 4.81957C1.79871 5.14613 0.511116 3.95482 0.128206 2.77738C-0.254704 1.60004 0.249104 0.380798 1.2533 0.0542358C2.2575 -0.272229 2.64842 0.933337 3.03133 2.11068L3.03133 2.11068Z" id="Shape" fill="#FFCBBE" fill-rule="evenodd" stroke="none" />
          </g>
          <g id="Group" transform="translate(14.095261 7.4079742)">
            <path d="M0.407749 2.11068C0.0248402 3.28802 -0.368032 4.49301 0.636166 4.81957C1.64036 5.14613 2.92796 3.95482 3.31087 2.77738C3.69378 1.60004 3.18998 0.380798 2.18578 0.0542358C1.18158 -0.272229 0.790659 0.933337 0.407749 2.11068L0.407749 2.11068Z" id="Shape" fill="#FFCBBE" fill-rule="evenodd" stroke="none" />
          </g>
          <g id="Group" transform="translate(2.338562 3.8413086)">
            <path d="M9.31065 0L3.54658 0C1.58779 0 0 1.58789 0 3.54658L0 7.72227C0 11.243 2.8541 14.0971 6.37481 14.0971L6.48252 14.0971C10.0032 14.0971 12.8573 11.243 12.8573 7.72227L12.8573 3.54658C12.8572 1.58789 11.2693 0 9.31065 0L9.31065 0Z" id="Shape" fill="#FFCBBE" fill-rule="evenodd" stroke="none" />
          </g>
          <g id="Group" transform="translate(3.1884613 3.9947205)">
            <path d="M9.46816 1.49012e-06C9.56758 0.32842 9.62158 0.676563 9.62158 1.0374L9.62158 5.1293C9.62158 8.67969 6.74336 11.5579 3.19297 11.5579C2.03047 11.5579 0.941016 11.2478 0 10.708C1.10859 12.6407 3.19082 13.9437 5.57871 13.9437C9.1291 13.9437 12.0073 11.0654 12.0073 7.51504L12.0073 3.42315C12.0073 1.80869 10.9375 0.44463 9.46816 0L9.46816 1.49012e-06Z" id="Shape" fill="#FFA68D" fill-rule="evenodd" stroke="none" />
          </g>
        </g>
        <g id="Group" transform="translate(25.67163 12.194702)">
          <path d="M0.40775 2.11068C0.0248402 3.28802 -0.368032 4.49301 0.636167 4.81957C1.64037 5.14613 2.92796 3.95482 3.31088 2.77738C3.69378 1.60004 3.18998 0.380798 2.18578 0.0542358C1.18158 -0.272229 0.790659 0.933337 0.40775 2.11068L0.40775 2.11068Z" id="Shape" fill="#FFA68D" fill-rule="evenodd" stroke="none" />
        </g>
        <g id="Group" transform="translate(42.019287 4.077759)">
          <path d="M3.65098 10.6982L3.59033 10.6982C1.60742 10.6982 0 9.09082 0 7.10791L0 0.645508C0 0.288965 0.289062 0 0.645506 0L6.5958 0C6.95234 0 7.24131 0.289062 7.24131 0.645508L7.24131 7.10791C7.24131 9.09072 5.63388 10.6982 3.65098 10.6982L3.65098 10.6982Z" id="Shape" fill="#F9F5F5" fill-rule="evenodd" stroke="none" />
        </g>
        <g id="Group" transform="translate(44.55957 4.0776367)">
          <path d="M4.0501 1.49012e-06L1.88926 1.49012e-06C2.24883 1.49012e-06 2.54023 0.291505 2.54023 0.650978L2.54023 7.07764C2.54023 8.70098 1.47187 10.0747 0 10.5343C0.34121 10.6408 0.7041 10.6983 1.08047 10.6983C3.08008 10.6983 4.70117 9.07734 4.70117 7.07764L4.70117 0.650976C4.70107 0.291504 4.40967 0 4.0501 0L4.0501 1.49012e-06Z" id="Shape" fill="#EEDFDA" fill-rule="evenodd" stroke="none" />
        </g>
        <g id="Group" transform="translate(42.019287 7.592285)">
          <path d="M0 0L0 3.56299C0 5.5626 1.621 7.18369 3.6207 7.18369C5.62031 7.18369 7.24141 5.5627 7.24141 3.56299L7.24141 0L0 0Z" id="Shape" fill="#BED8FB" fill-rule="evenodd" stroke="none" />
        </g>
        <g id="Group" transform="translate(44.55957 7.592285)">
          <path d="M2.54023 1.49012e-06L2.54023 3.56299C2.54023 5.18633 1.47187 6.56006 0 7.01963C0.34121 7.12617 0.7041 7.18369 1.08047 7.18369C3.08008 7.18369 4.70117 5.5627 4.70117 3.56299L4.70117 0L2.54023 1.49012e-06Z" id="Shape" fill="#9DC6FB" fill-rule="evenodd" stroke="none" />
        </g>
        <g id="Group" transform="translate(0.7570801 28.439941)">
          <path d="M26.8067 0L12.374 0C8.2166 0 4.44199 1.63779 1.65937 4.30303C0.598437 5.31924 0 6.72578 0 8.19492L0 11.1463C0 11.4518 0.247656 11.6994 0.553125 11.6994L38.6578 11.6994C38.9633 11.6994 39.2109 11.4518 39.2109 11.1463L39.2109 8.22334C39.2109 6.75909 38.6155 5.35772 37.5616 4.34111C34.7752 1.65332 30.9841 0 26.8067 0L26.8067 0Z" id="Shape" fill="#80B4FB" fill-rule="evenodd" stroke="none" />
        </g>
        <g id="Group" transform="translate(20.497314 28.440063)">
          <path d="M17.8213 4.34111C15.0348 1.65322 11.2437 0 7.06641 0L0 0C4.17734 0 7.96846 1.65332 10.7549 4.34111C11.8088 5.35771 12.4042 6.75908 12.4042 8.22334L12.4042 11.1463C12.4042 11.4518 12.1565 11.6994 11.8511 11.6994L18.9175 11.6994C19.2229 11.6994 19.4706 11.4518 19.4706 11.1463L19.4706 8.22334C19.4706 6.75908 18.8752 5.35762 17.8213 4.34111L17.8213 4.34111Z" id="Shape" fill="#61A2F9" fill-rule="evenodd" stroke="none" />
        </g>
        <g id="Group">
          <path d="M0.00441372 0.972667C-0.0439778 0.486307 0.311066 0.0528052 0.797427 0.00441372C1.28379 -0.0439778 1.71729 0.311065 1.76568 0.797425C1.81407 1.28379 1.45903 1.71729 0.972669 1.76568C0.486308 1.81407 0.0528052 1.45903 0.00441372 0.972667Z" transform="translate(16.451904 12.85144)" id="Ellipse" fill="#000000" fill-rule="evenodd" stroke="none" />
          <path d="M0.00441372 0.972667C-0.0439778 0.486307 0.311066 0.0528052 0.797427 0.00441372C1.28379 -0.0439778 1.71729 0.311065 1.76568 0.797425C1.81407 1.28379 1.45903 1.71729 0.972669 1.76568C0.486308 1.81407 0.0528052 1.45903 0.00441372 0.972667Z" transform="translate(22.476562 12.848633)" id="Ellipse" fill="#000000" fill-rule="evenodd" stroke="none" />
          <path d="M3.39756 0L0.738575 0C0.330664 0 0 0.330664 0 0.738575C0 1.14658 0.330664 1.47715 0.738575 1.47715L3.39756 1.47715C3.80547 1.47715 4.13613 1.14649 4.13613 0.738575C4.13613 0.330664 3.80547 0 3.39756 0L3.39756 0Z" transform="translate(18.161133 16.88086)" id="Shape" fill="#000000" fill-rule="evenodd" stroke="none" />
          <path d="M48.6097 3.33906L46.3785 3.33906L46.3785 1.47715L49.2606 1.47715C49.6686 1.47715 49.9992 1.14649 49.9992 0.738575C49.9992 0.330665 49.6686 1.11759e-06 49.2606 1.11759e-06L11.2982 1.11759e-06C10.8903 1.11759e-06 10.5597 0.330665 10.5597 0.738575C10.5597 1.14649 10.8903 1.47715 11.2982 1.47715L44.9014 1.47715L44.9014 3.33906L42.6703 3.33906C41.9041 3.33906 41.2808 3.9625 41.2808 4.72862L41.2808 11.1553C41.2976 11.8726 41.4353 12.6179 41.9128 13.414C42.3112 14.069 42.8776 14.611 43.5515 14.9805L43.069 15.7561C42.3496 16.9127 42.2827 18.3872 42.8944 19.6042L44.9005 23.595C45.3857 24.5604 45.1755 25.7504 44.3894 26.4909L40.7179 29.8127L40.7179 15.5709C40.7179 14.4334 39.7925 13.508 38.655 13.508L36.52 13.508C36.4645 13.1468 36.3819 12.7905 36.2723 12.4416C36.1769 12.1384 36.162 11.8132 36.2293 11.5013L36.7738 8.9753C36.8773 8.49502 36.7318 8.00098 36.3845 7.65352C36.0371 7.30615 35.5429 7.16016 35.0625 7.26406C34.297 7.36494 32.4229 8.0293 31.6425 7.74287C31.3512 7.64619 31.0511 7.56758 30.7507 7.50899C30.3505 7.43164 29.9625 7.69258 29.8846 8.09297C29.8066 8.49336 30.0681 8.88116 30.4685 8.95908C30.7071 9.00557 30.9456 9.06807 31.1772 9.14493C31.7364 9.33047 32.3384 9.3626 32.9182 9.2375L35.3177 8.72022L34.7853 11.19C34.5083 12.249 35.1479 13.3901 35.127 14.6138L35.127 22.2529C35.127 22.8478 35.0365 23.4343 34.8581 23.9964C34.8012 24.1756 34.7616 24.3592 34.736 24.5445C33.0718 23.0713 30.8853 22.1754 28.493 22.1754L25.3237 22.1754L25.3237 21.4495C26.3511 20.4573 27.086 19.1579 27.3746 17.6857C28.442 17.3275 29.3487 16.235 29.6852 15.2007C30.1934 13.638 29.476 11.9988 28.0861 11.5468C28.086 11.5467 28.086 11.5467 28.086 11.5467C27.9345 11.4976 27.7349 11.454 27.511 11.4572L27.511 7.93828C27.511 5.79336 25.766 4.04824 23.621 4.04824L17.0664 4.04824C15.1125 4.04824 13.4909 5.49658 13.2176 7.37588L11.321 7.37588C10.2763 7.26973 9.2207 7.90244 8.08057 7.79355L5.62461 7.26396C5.14434 7.16035 4.6501 7.30615 4.30283 7.65351C3.95547 8.00098 3.80996 8.49502 3.91348 8.97529L4.45801 11.5014C4.52529 11.8133 4.51045 12.1384 4.41504 12.4417C4.30537 12.7905 4.22275 13.1468 4.16728 13.508L2.29316 13.508L2.29316 3.06875C2.29316 2.19121 3.00713 1.47715 3.88467 1.47715L7.90068 1.47715C8.30859 1.47715 8.63926 1.14648 8.63926 0.738574C8.63926 0.330664 8.30859 0 7.90068 0L3.88467 0C2.19258 0 0.815918 1.37666 0.815918 3.06875L0.815918 13.9314C0.321191 14.3086 0 14.9022 0 15.5709L0.0183594 39.5862C0.0183594 40.2984 0.597852 40.878 1.31006 40.878L39.4147 40.878C40.127 40.878 40.7064 40.2985 40.7064 39.5862L40.7178 31.8047L45.3855 27.5815C45.3888 27.5786 45.392 27.5757 45.3951 27.5727C46.6589 26.3879 46.9981 24.4794 46.2202 22.9315L44.2142 18.9407C43.8319 18.1803 43.8737 17.259 44.3232 16.5362L44.9892 15.4657C45.2016 15.4977 45.4187 15.5145 45.6399 15.5145C45.8611 15.5145 45.6399 15.5145 45.6399 15.5145C47.2174 15.5145 48.6018 14.6723 49.3672 13.414C49.6485 12.9987 50.0182 11.9951 49.9992 11.1553L49.9992 4.72871C49.9993 3.9625 49.3759 3.33907 48.6097 3.33907L48.6097 3.33906ZM39.2407 15.5708L39.2407 31.149L38.4335 31.8793C38.265 31.7272 38.0942 31.5784 37.9204 31.434C37.8887 29.663 37.3666 28.0099 36.4841 26.6046C36.3753 25.9616 36.0466 25.1591 36.2661 24.4432C36.4905 23.7365 36.6043 22.9995 36.6043 22.2528L36.6043 14.9851L38.6551 14.9851C38.978 14.9851 39.2407 15.2479 39.2407 15.5708L39.2407 15.5708ZM16.8408 22.5482C17.8809 23.1319 19.0773 23.4636 20.3436 23.4636C21.6099 23.4636 22.8063 23.1319 23.8463 22.5482L23.8463 23.8894C23.8463 24.2236 23.5743 24.4956 23.2401 24.4956L17.447 24.4956C17.1127 24.4956 16.8408 24.2236 16.8408 23.8894L16.8408 22.5482ZM27.629 12.9514C28.2444 13.1515 28.5365 13.9556 28.2802 14.7438C28.029 15.5159 27.2402 16.3012 26.6876 16.3291C26.3282 16.3472 26.034 16.6218 25.9913 16.9791C25.6502 19.8338 23.2223 21.9865 20.3437 21.9865C17.4651 21.9865 15.037 19.8338 14.696 16.9791C14.6534 16.6217 14.3592 16.3472 13.9997 16.3291C13.4471 16.3012 12.6582 15.516 12.4072 14.7438C12.1508 13.9556 12.443 13.1515 13.0582 12.9515C13.0892 12.9414 13.1135 12.9335 13.1366 12.9335C13.1847 12.9335 13.2273 12.968 13.3135 13.0889C13.4999 13.3507 13.8339 13.4622 14.14 13.3641C14.5212 13.2556 14.7264 12.7179 14.6537 12.2046C14.6537 10.6397 15.9268 9.3667 17.4917 9.3667L23.1958 9.3667C24.7607 9.3667 26.0338 10.6397 26.0338 12.2046C26.0171 12.5978 25.9878 13.1228 26.5476 13.3641C26.8536 13.4622 27.1877 13.3507 27.3741 13.0889C27.5013 12.9101 27.5335 12.9205 27.629 12.9514L27.629 12.9514ZM14.6536 7.93818C14.6536 6.60771 15.736 5.52539 17.0664 5.52539L23.6208 5.52539C24.9512 5.52539 26.0336 6.60771 26.0336 7.93818L26.0336 8.95781C25.2744 8.29336 24.2815 7.88955 23.1957 7.88955L17.4916 7.88955C16.4057 7.88955 15.4128 8.29336 14.6536 8.95781L14.6536 7.93818ZM7.76929 9.2375C8.34898 9.36231 8.95093 9.33027 9.5103 9.14482C10.0935 8.95127 10.7028 8.85303 11.3211 8.85303L13.1765 8.85303L13.1765 11.457C12.9529 11.4537 12.753 11.4973 12.6014 11.5467C11.2116 11.9987 10.4942 13.6378 11.0024 15.2006C11.3387 16.2351 12.2454 17.3275 13.3129 17.6856C13.6015 19.1578 14.3365 20.4572 15.3638 21.4494L15.3638 22.1753L12.1946 22.1753C9.80239 22.1753 7.61577 23.0712 5.95151 24.5445C5.92593 24.3591 5.88628 24.1755 5.82944 23.9964C5.65103 23.4344 5.5605 22.8477 5.5605 22.2529L5.5605 14.6138C5.4979 13.5573 6.17593 12.4056 5.9023 11.19L5.36987 8.72021L7.76929 9.2375ZM1.47715 15.5709C1.47715 15.2479 1.73984 14.9852 2.06289 14.9852L4.08301 14.9852L4.08301 22.2529C4.08301 22.9996 4.19678 23.7366 4.42119 24.4433C4.64443 24.8937 4.30508 26.1171 4.20312 26.6048C3.31953 28.0119 2.79717 29.6674 2.7668 31.4409C2.47168 31.6862 2.18428 31.9425 1.90527 32.2096C1.7543 32.3543 1.61152 32.5063 1.47705 32.6648L1.47705 15.5709L1.47715 15.5709ZM39.2293 39.4008L1.49561 39.4008L1.49561 36.6349C1.49561 35.372 2.01748 34.148 2.92725 33.2764C4.96914 31.3205 7.50625 29.9998 10.2642 29.4568C10.6644 29.378 10.925 28.9897 10.8462 28.5895C10.7674 28.1891 10.3789 27.9282 9.97881 28.0074C7.96738 28.4033 6.06426 29.1771 4.35469 30.2786C4.98809 26.5231 8.26143 23.6525 12.1943 23.6525L15.3636 23.6525L15.3636 23.8895C15.3636 25.0383 16.2981 25.9729 17.447 25.9729L23.2401 25.9729C24.389 25.9729 25.3234 25.0383 25.3234 23.8895L25.3234 23.6525L28.4927 23.6525C32.4223 23.6525 35.6932 26.5181 36.3306 30.269C33.7356 28.5987 30.7119 27.7014 27.5635 27.7014L13.5664 27.7014C13.1585 27.7014 12.8278 28.0321 12.8278 28.44C12.8278 28.848 13.1585 29.1785 13.5664 29.1785L27.5638 29.1785C30.9162 29.1785 34.1134 30.2972 36.7102 32.3543C36.717 32.36 36.7242 32.3653 36.7313 32.3707C37.1022 32.6657 37.4609 32.9799 37.806 33.3127C38.7106 34.1853 39.2294 35.4065 39.2294 36.6633L39.2294 39.4008L39.2293 39.4008ZM48.522 4.81628L48.522 6.85369L42.7578 6.85369L42.7578 4.81628L48.522 4.81628ZM48.2951 12.276C48.0094 13.1186 46.7627 14.0988 45.6398 14.0373C44.0507 14.0373 42.7578 12.7444 42.7578 11.1552L42.7578 8.33081L48.522 8.33081L48.522 11.1552C48.4802 11.5506 48.5415 11.6118 48.2951 12.276L48.2951 12.276Z" id="Shape" fill="#000000" fill-rule="evenodd" stroke="none" />
        </g>
      </g>
    </g>
  </g>
</svg>