<?xml version="1.0" encoding="utf-8"?>
<svg width="150px" height="150px" viewbox="0 0 150 150" version="1.1" xmlns:xlink="http://www.w3.org/1999/xlink" xmlns="http://www.w3.org/2000/svg">
  <defs>
    <path d="M0 0L150 0L150 150L0 150L0 0Z" id="path_1" />
    <clipPath id="mask_1">
      <use xlink:href="#path_1" />
    </clipPath>
  </defs>
  <g id="patient">
    <path d="M0 0L150 0L150 150L0 150L0 0Z" id="Background" fill="none" fill-rule="evenodd" stroke="none" />
    <g clip-path="url(#mask_1)">
      <g id="Group" transform="translate(19.71289 0)">
        <g id="Group" transform="translate(20.384766 112.33154)">
          <path d="M68.7412 24.8115C64.2154 10.43 50.776 0 34.9001 0C17.6958 0 3.35202 12.2484 0.113551 28.5006C-0.605978 32.1111 2.1866 35.4712 5.86834 35.4712L61.0112 35.4712L68.7412 24.8115Z" id="Shape" fill="#E0B8FF" fill-rule="evenodd" stroke="none" />
        </g>
        <g id="Group" transform="translate(20.386719 112.33154)">
          <path d="M43.2605 0.992578C40.5796 0.344825 37.7803 0 34.9001 0C17.6958 0 3.35202 12.2484 0.113551 28.5006C-0.605978 32.1111 2.1866 35.4712 5.86834 35.4712L16.146 35.4712C16.1457 18.7597 27.7033 4.7499 43.2605 0.992578L43.2605 0.992578Z" id="Shape" fill="#D2A0F5" fill-rule="evenodd" stroke="none" />
        </g>
        <g id="Group" transform="translate(8.412109 12.744446)">
          <g id="Group">
            <path d="M46.875 0C20.9865 0 0 20.9865 0 46.875L0 51.3413L93.75 51.3413L93.75 46.8747C93.75 20.9865 72.7632 2.23517e-06 46.875 2.23517e-06L46.875 0Z" id="Shape" fill="#FFF48F" fill-rule="evenodd" stroke="none" />
          </g>
        </g>
        <g id="Group" transform="translate(25.035156 2.1972656)">
          <path d="M57.5847 11.3218C56.066 9.45674 49.1493 9.46963 42.6545 9.94248C37.9596 4.11357 33.1324 0 30.2513 0C27.37 0 22.5427 4.11357 17.8482 9.94248C11.3534 9.46992 4.43669 9.45703 2.91794 11.3218C-0.0993445 15.0267 -8.56702 64.3066 30.2513 64.3066C69.0697 64.3066 60.6017 15.0267 57.5847 11.3218L57.5847 11.3218Z" id="Shape" fill="#FFF8AB" fill-rule="evenodd" stroke="none" />
        </g>
        <g id="Group" transform="translate(87.234375 63.00293)">
          <path d="M0 10.5706C0 4.73262 4.73262 0 10.5706 0C16.4086 0 21.1412 4.73262 21.1412 10.5706C21.1412 16.4086 16.4086 21.1412 10.5706 21.1412C4.73262 21.1412 0 16.4086 0 10.5706Z" id="Circle" fill="#FFE4C2" fill-rule="evenodd" stroke="none" />
        </g>
        <g id="Group" transform="translate(2.1972656 63.00293)">
          <path d="M0 10.5706C0 4.73262 4.73262 0 10.5706 0C16.4086 0 21.1412 4.73262 21.1412 10.5706C21.1412 16.4086 16.4086 21.1412 10.5706 21.1412C4.73262 21.1412 0 16.4086 0 10.5706Z" id="Circle" fill="#F2D1A5" fill-rule="evenodd" stroke="none" />
        </g>
        <g id="Group" transform="translate(12.806641 39.631714)">
          <g id="Group">
            <path d="M38.3424 0.955555C26.3441 -2.42589 9.53447 2.73094 1.30556 23.4553C0.439545 26.8657 -0.0151433 30.4405 0.00038445 34.124C0.0991143 57.5146 19.7377 76.7653 43.126 76.417C66.2895 76.0719 84.961 57.1871 84.961 33.9412C84.961 30.3222 84.5072 26.8095 83.6556 23.4553C75.4267 2.73124 58.617 -2.42589 46.6187 0.955555C43.9082 1.71962 41.0532 1.71962 38.3424 0.955555L38.3424 0.955555Z" id="Shape" fill="#FFF2DE" fill-rule="evenodd" stroke="none" />
          </g>
        </g>
        <g id="Group" transform="translate(12.806641 39.633545)">
          <g id="Group">
            <path d="M14.6485 33.9391C14.6485 20.0688 21.2977 7.7536 31.5809 0.00135005C20.6526 -0.107928 8.07548 6.40389 1.30556 23.4535C0.439545 26.864 -0.0151433 30.4388 0.00038445 34.1223C0.0991143 57.5129 19.7377 76.7636 43.126 76.4152C45.3997 76.3812 47.6295 76.1662 49.8033 75.7886C29.8334 72.3169 14.6485 54.9022 14.6485 33.9391L14.6485 33.9391Z" id="Shape" fill="#FFE4C2" fill-rule="evenodd" stroke="none" />
          </g>
        </g>
        <g id="Group" transform="translate(21.970703 70.53052)">
          <g id="Group" transform="translate(0 4.0376587)">
            <g id="Group" transform="translate(0 0.045715332)">
              <path d="M0 7.15078C0 3.20151 4.02026 0 8.97949 0C13.9387 0 17.959 3.20151 17.959 7.15078C17.959 11.1 13.9387 14.3016 8.97949 14.3016C4.02026 14.3016 0 11.1 0 7.15078Z" id="Ellipse" fill="#FFA1AC" fill-rule="evenodd" stroke="none" />
            </g>
            <g id="Group" transform="translate(48.671875 0)">
              <path d="M0 7.15078C0 3.20151 4.02026 0 8.97949 0C13.9387 0 17.959 3.20151 17.959 7.15078C17.959 11.1 13.9387 14.3016 8.97949 14.3016C4.02026 14.3016 0 11.1 0 7.15078Z" id="Ellipse" fill="#FFA1AC" fill-rule="evenodd" stroke="none" />
            </g>
          </g>
          <g id="Group" transform="translate(8.880859 0.03591919)">
            <path d="M5.3211 5.82196C3.49004 5.82196 1.74834 5.03007 0.542191 3.64843C-0.256151 2.73436 -0.161813 1.34628 0.752248 0.54823C1.6666 -0.249526 3.05469 -0.155479 3.85244 0.758287C4.22393 1.18368 4.75918 1.42743 5.32139 1.42743L5.32315 1.42743C5.88565 1.42684 6.4212 1.18192 6.79209 0.755355C7.58838 -0.160173 8.97646 -0.257143 9.89199 0.539437C10.8075 1.33573 10.9045 2.72352 10.1082 3.63934C8.90322 5.02478 7.16064 5.82019 5.32725 5.82195C5.3249 5.82195 5.32314 5.82195 5.3211 5.82195L5.3211 5.82196Z" id="Shape" fill="#000000" fill-rule="evenodd" stroke="none" />
          </g>
          <g id="Group" transform="translate(47.085938 0)">
            <path d="M5.32114 5.82184C3.48949 5.82184 1.74809 5.02995 0.54194 3.64831C-0.256106 2.73395 -0.161773 1.34616 0.752288 0.547814C1.66664 -0.250232 3.05414 -0.155604 3.85278 0.758167C4.22397 1.18356 4.75922 1.42731 5.32143 1.42731L5.32319 1.42731C5.8857 1.42672 6.42095 1.1818 6.79214 0.755234C7.58843 -0.160293 8.97622 -0.256974 9.89204 0.539316C10.8076 1.33561 10.9045 2.7234 10.108 3.63922C8.90327 5.02466 7.1604 5.82007 5.3273 5.82183C5.32495 5.82183 5.3229 5.82183 5.32115 5.82183L5.32114 5.82184Z" id="Shape" fill="#000000" fill-rule="evenodd" stroke="none" />
          </g>
        </g>
        <g id="Group" transform="translate(29.246094 72.54462)">
          <path d="M26.0394 0C11.6581 0 0 23.0745 0 37.4558C0 41.2333 2.80342 44.5638 6.5707 47.3341C18.1143 55.8223 33.9642 55.8223 45.508 47.3341C49.2753 44.5641 52.079 41.2333 52.079 37.4558C52.0787 23.0745 40.4206 4.47035e-06 26.0394 4.47035e-06L26.0394 0Z" id="Shape" fill="#BFE1FF" fill-rule="evenodd" stroke="none" />
        </g>
        <g id="Group" transform="translate(29.246094 72.54462)">
          <path d="M32.6104 47.3338C28.8431 44.5638 26.0394 41.233 26.0394 37.4558C26.0394 27.8177 31.2762 14.2758 39.0592 6.39112C35.2289 2.51074 30.7825 0 26.0394 0C11.6581 0 0 23.0745 0 37.4558C0 41.2333 2.80342 44.5638 6.5707 47.3341C16.0831 54.3287 28.5176 55.5536 39.0589 51.0208C36.808 50.0525 34.6415 48.8273 32.6104 47.3338L32.6104 47.3338Z" id="Shape" fill="#A3D4FF" fill-rule="evenodd" stroke="none" />
        </g>
        <g id="Group" transform="translate(40.63867 86.60364)">
          <path d="M0 14.6484C0 6.55833 6.55833 0 14.6484 0C22.7385 0 29.2969 6.55833 29.2969 14.6484C29.2969 22.7385 22.7385 29.2969 14.6484 29.2969C6.55833 29.2969 0 22.7385 0 14.6484Z" id="Circle" fill="#87C7FF" fill-rule="evenodd" stroke="none" />
        </g>
        <g id="Group" transform="translate(49.427734 95.3927)">
          <path d="M11.7188 17.5781L11.7188 5.85937C11.7188 2.62325 9.09551 0 5.85938 0C2.62324 0 0 2.62325 0 5.85937L0 17.5781C0 27.2862 7.87002 35.1562 17.5781 35.1562L26.1105 35.1562C29.3467 35.1562 31.9699 37.7795 31.9699 41.0156L31.9699 52.4101L37.8293 52.4101C41.0654 52.4101 43.6887 49.7868 43.6887 46.5507L43.6887 41.0156C43.6887 31.3075 35.8186 23.4375 26.1105 23.4375L17.5781 23.4375C14.342 23.4375 11.7188 20.814 11.7188 17.5781L11.7188 17.5781Z" id="Shape" fill="#F5FAFC" fill-rule="evenodd" stroke="none" />
        </g>
        <g id="Group" transform="translate(49.427734 95.3927)">
          <path d="M15.985 29.2969C15.985 26.0607 18.6082 23.4375 21.8443 23.4375L17.5781 23.4375C14.342 23.4375 11.7187 20.8143 11.7187 17.5781L11.7187 5.85937C11.7187 2.62324 9.0955 0 5.85937 0C2.62324 0 0 2.62324 0 5.85937L0 17.5781C0 27.2862 7.87002 35.1562 17.5781 35.1562L21.8443 35.1562C18.6082 35.1562 15.985 32.5327 15.985 29.2969L15.985 29.2969Z" id="Shape" fill="#E1F1FA" fill-rule="evenodd" stroke="none" />
        </g>
        <path d="M98.1264 86.3332C105.018 86.1612 110.572 80.5058 110.572 73.5735C110.572 68.9285 108.078 64.856 104.359 62.6218L104.359 59.6191C104.359 45.249 98.1073 31.6898 87.1957 22.3421C86.5195 17.2269 85.3447 13.3852 84.3237 12.1315C83.0692 10.5917 80.2072 9.1333 68.671 9.87012C65.3019 5.82129 59.6906 0 55.2864 0C50.8825 0 45.2713 5.82129 41.9019 9.87012C30.3656 9.13184 27.5033 10.5914 26.2494 12.1315C25.2293 13.384 24.0545 17.2263 23.378 22.3424C12.4629 31.6916 6.21416 45.235 6.21416 59.6191L6.21416 62.6209C2.49463 64.8548 0 68.9279 0 73.5735C0 80.5204 5.57783 86.1853 12.4895 86.3344C15.0258 94.7344 20.0546 102.292 27.1116 108.074C27.0718 108.728 27.0492 109.371 27.0492 110C27.0492 113.05 28.4502 116.007 31.2196 118.825C24.5748 124.34 20.035 131.917 18.3442 140.403C17.8743 142.761 18.4822 145.182 20.0118 147.046C21.552 148.924 23.8269 150 26.2538 150L87.2561 150C91.6983 150 95.3127 146.386 95.3127 141.944L95.3127 136.408C95.3127 132.446 94.1443 128.621 91.9342 125.35C91.2545 124.345 89.8887 124.081 88.8832 124.76C87.8777 125.439 87.6135 126.805 88.2926 127.811C90.0103 130.353 90.9182 133.325 90.9182 136.408L90.9182 141.943C90.9182 143.963 89.2755 145.605 87.2561 145.605L83.594 145.605L83.594 136.408C83.594 131.966 79.9796 128.351 75.5373 128.351L67.0049 128.351C58.524 128.351 51.624 121.451 51.624 112.971L51.624 101.252C51.624 99.2323 53.2667 97.5896 55.2861 97.5896C57.3056 97.5896 58.9483 99.2323 58.9483 101.252L58.9483 112.971C58.9483 117.413 62.5626 121.027 67.0049 121.027L75.5373 121.027C77.9338 121.027 80.2289 121.562 82.3582 122.618C83.4454 123.157 84.7638 122.713 85.3028 121.625C85.8419 120.538 85.3972 119.22 84.31 118.681C83.1413 118.102 81.9325 117.652 80.6939 117.317C82.5732 114.958 83.5228 112.508 83.5228 110C83.5228 109.424 83.5037 108.835 83.47 108.238C90.5657 102.469 95.606 94.8527 98.1264 86.3332L98.1264 86.3332ZM99.2053 81.8276C99.7048 79.1358 99.9652 76.3758 99.9652 73.573C99.9652 70.7977 99.7083 68.0323 99.2012 65.3188C103.156 65.9856 106.179 69.4324 106.179 73.5735C106.179 77.7135 103.158 81.1591 99.2053 81.8276L99.2053 81.8276ZM99.9646 59.6191L99.9646 60.992C99.2905 60.8765 98.5994 60.8127 97.8939 60.8077C95.0056 54.1098 91.0273 48.6439 86.1816 44.6742C87.4924 39.4008 87.8762 33.8792 87.7224 28.8949C95.5546 37.1569 99.9646 48.1025 99.9646 59.6191L99.9646 59.6191ZM42.724 14.3312C43.4436 14.3818 44.1423 14.0798 44.5946 13.5179C49.9858 6.82412 53.9424 4.39453 55.2862 4.39453C56.6304 4.39453 60.5869 6.82412 65.9781 13.5179C66.4302 14.0795 67.131 14.3821 67.8487 14.3312C78.4557 13.5589 80.6477 14.7375 80.926 14.9273C81.966 16.6348 84.9156 29.3558 82.3015 41.9294C81.6657 41.545 81.0194 41.1814 80.3606 40.8431C73.5192 37.3292 65.8733 36.4875 58.8285 38.4724C56.5117 39.126 54.0616 39.126 51.7442 38.4724C44.7007 36.4875 37.0536 37.3295 30.2125 40.8431C29.5536 41.1814 28.907 41.5453 28.2713 41.9297C25.6574 29.3552 28.6079 16.6333 29.6471 14.9273C29.926 14.7375 32.1165 13.5589 42.724 14.3312L42.724 14.3312ZM10.6097 59.6192C10.6097 48.0911 15.0186 37.1564 22.8522 28.8961C22.6984 33.8807 23.0819 39.4017 24.3927 44.6745C19.547 48.6443 15.5687 54.1099 12.6804 60.808C11.9749 60.813 11.2835 60.8769 10.6094 60.992L10.6094 59.6192L10.6097 59.6192ZM4.39453 73.5735C4.39453 69.4321 7.41738 65.9854 11.3719 65.3188C10.8533 68.0941 10.597 70.9242 10.609 73.7651C10.6204 76.4991 10.8873 79.1959 11.3877 81.8314C7.42529 81.1711 4.39453 77.7205 4.39453 73.5735L4.39453 73.5735ZM75.5368 132.746C77.5563 132.746 79.199 134.389 79.199 136.408L79.199 145.605L26.2534 145.605C25.1477 145.605 24.1109 145.114 23.4089 144.259C22.7175 143.416 22.4421 142.323 22.6536 141.262C24.1964 133.519 28.4272 126.632 34.6211 121.723C40.4843 126.002 47.4101 128.312 54.6942 128.43C58.075 131.128 62.353 132.746 67.0041 132.746L75.5368 132.746L75.5368 132.746ZM64.3288 115.463C69.1279 112.397 72.1314 107.031 72.1314 101.252C72.1314 98.5366 71.4693 95.8374 70.2172 93.4456C69.6538 92.3704 68.3252 91.9562 67.2512 92.5184C66.1763 93.0815 65.7611 94.4092 66.3239 95.4844C67.2614 97.2744 67.7369 99.2151 67.7369 101.252C67.7369 104.941 66.0784 108.399 63.3424 110.734L63.3424 101.252C63.3424 96.8095 59.728 93.1952 55.2857 93.1952C50.8432 93.1952 47.2291 96.8095 47.2291 101.252L47.2291 110.748C44.4863 108.419 42.8346 104.968 42.8346 101.252C42.8346 94.3861 48.42 88.8006 55.2857 88.8006C57.3307 88.8006 59.3574 89.3066 61.1469 90.2631C62.2171 90.8359 63.5486 90.4322 64.1205 89.362C64.693 88.292 64.2892 86.9605 63.2193 86.3883C60.7947 85.0916 58.0514 84.4061 55.2857 84.4061C45.9969 84.4061 38.44 91.9629 38.44 101.252C38.44 107.56 41.9586 113.302 47.4954 116.191C47.9422 118.906 48.9447 121.436 50.3811 123.661C45.5908 122.899 41.075 121.017 37.1187 118.108C33.3529 115.339 31.4434 112.611 31.4434 110C31.4434 103.168 34.3065 94.1561 38.738 87.0411C43.606 79.2247 49.6373 74.7419 55.2854 74.7419C60.9336 74.7419 66.9649 79.2249 71.8329 87.0411C76.2644 94.1561 79.1275 103.168 79.1275 110C79.1275 112.136 77.835 114.366 75.2844 116.633L67.0045 116.633C65.9483 116.633 64.9979 116.181 64.3288 115.463L64.3288 115.463ZM82.8037 102.995C81.6283 96.9003 79.0713 90.3489 75.5644 84.7181C69.7932 75.4509 62.5918 70.3474 55.2866 70.3474C47.9817 70.3474 40.7803 75.4509 35.0088 84.7181C31.5318 90.3009 28.9891 96.7887 27.8009 102.839C19.673 95.2277 15.0509 84.813 15.0043 73.7461C14.9899 70.3708 15.3948 67.0137 16.2072 63.7652C23.8443 44.683 38.9486 39.4313 50.5525 42.702C53.6501 43.575 56.9243 43.575 60.0213 42.702C71.6243 39.4324 86.7298 44.6824 94.3669 63.7649C95.1655 66.9583 95.5701 70.2571 95.5701 73.573C95.5704 84.859 90.9588 95.3897 82.8037 102.995L82.8037 102.995Z" id="Shape" fill="#000000" fill-rule="evenodd" stroke="none" />
      </g>
    </g>
  </g>
</svg>