<?xml version="1.0" encoding="utf-8"?>
<!-- Generator: Adobe Illustrator 21.0.0, SVG Export Plug-In . SVG Version: 6.00 Build 0)  -->
<svg version="1.1" id="Layer_1" xmlns="http://www.w3.org/2000/svg" xmlns:xlink="http://www.w3.org/1999/xlink" x="0px" y="0px"
	 viewBox="0 0 15 14.4" style="enable-background:new 0 0 15 14.4;" xml:space="preserve">
<style type="text/css">
	.st0{fill:#0081FF;}
</style>
<desc>Created with Lunacy</desc>
<g id="Group">
	<path id="Shape" class="st0" d="M12.7,10.8H11c-0.3,0-0.5-0.2-0.5-0.5V8.6c0-0.3,0.2-0.5,0.5-0.5s0.5,0.2,0.5,0.5v1.3h1.3
		c0.3,0,0.5,0.2,0.5,0.5S12.9,10.8,12.7,10.8L12.7,10.8z"/>
	<path id="Shape_1_" class="st0" d="M10.9,14.4c-2.2,0-4.1-1.8-4.1-4.1s1.8-4.1,4.1-4.1S15,8.1,15,10.3S13.2,14.4,10.9,14.4
		L10.9,14.4z M10.9,7.2c-1.7,0-3.1,1.4-3.1,3.1s1.4,3.1,3.1,3.1S14,12,14,10.3S12.7,7.2,10.9,7.2L10.9,7.2z"/>
	<path id="Shape_2_" class="st0" d="M5.8,8.8H1.4C0.6,8.8,0,8.1,0,7.3V1.4C0,0.6,0.6,0,1.4,0h10.9c0.8,0,1.4,0.6,1.4,1.4v3.8
		c0,0.3-0.2,0.5-0.5,0.5s-0.5-0.2-0.5-0.5V1.4c0-0.3-0.2-0.5-0.5-0.5H1.4c-0.3,0-0.5,0.2-0.5,0.5v5.9c0,0.3,0.2,0.5,0.5,0.5h4.4
		C6,7.8,6.3,8,6.3,8.3S6,8.8,5.8,8.8L5.8,8.8z"/>
	<path id="Shape_3_" class="st0" d="M6.9,5.5c-0.3,0-0.5-0.1-0.7-0.2L0.3,2.4C0,2.3-0.1,2,0,1.8s0.4-0.3,0.6-0.2l5.9,2.9
		c0.2,0.1,0.4,0.1,0.6,0L13,1.6c0.2-0.1,0.5,0,0.6,0.2s0,0.5-0.2,0.6L7.6,5.3C7.4,5.5,7.1,5.5,6.9,5.5L6.9,5.5z"/>
</g>
</svg>
