<?xml version="1.0" encoding="utf-8"?>
<svg width="75px" height="75px" viewbox="0 0 75 75" version="1.1" xmlns:xlink="http://www.w3.org/1999/xlink" xmlns="http://www.w3.org/2000/svg">
  <defs>
    <path d="M0 0L75 0L75 75L0 75L0 0Z" id="path_1" />
    <clipPath id="mask_1">
      <use xlink:href="#path_1" />
    </clipPath>
  </defs>
  <g id="permission">
    <path d="M0 0L75 0L75 75L0 75L0 0Z" id="Background" fill="none" fill-rule="evenodd" stroke="none" />
    <g clip-path="url(#mask_1)">
      <path d="M19.9219 0L17.5781 2.34375L0 2.34375L0 11.7188L0 42.1875L0 44.5313L2.34375 44.5313L38.6602 44.5313L38.6719 44.5313L62.1094 44.5313L62.1211 44.5313L67.9687 44.5313L70.3125 44.5313L70.3125 42.1875L70.3125 11.7188L70.3125 0L19.9219 0Z" transform="translate(2.34375 9.375)" id="Shape" fill="#E6E9ED" fill-rule="evenodd" stroke="none" />
      <path d="M33.0469 2.09766L31.6523 1.69922L31.6406 1.69922L25.7109 0L24.6094 9.90234L21.6094 7.65235L19.9219 6.38672L15.2344 9.90234L14.1328 0L8.20312 1.69922L8.1914 1.69922L6.79687 2.09766C2.77734 3.24609 0 6.92578 0 11.1094L0 20.4492L7.03125 20.4492L19.9219 20.4492L32.8125 20.4492L39.8438 20.4492L39.8438 11.1094C39.8438 6.92578 37.0664 3.24609 33.0469 2.09766L33.0469 2.09766Z" transform="translate(32.8125 52.207153)" id="Shape" fill="#FF826E" fill-rule="evenodd" stroke="none" />
      <path d="M5.78906 0.64453L4.6875 10.5469L1.6875 8.29688L0 7.03125L3.51563 0L5.78906 0.64453Z" transform="translate(52.734375 51.5625)" id="Shape" fill="#FC6E51" fill-rule="evenodd" stroke="none" />
      <path d="M2.27344 0L5.78906 7.03125L1.10156 10.5469L0 0.64453L2.27344 0Z" transform="translate(46.945435 51.5625)" id="Shape" fill="#FC6E51" fill-rule="evenodd" stroke="none" />
      <path d="M28.125 5.85937L28.125 12.2695C28.125 20.6016 23.5898 28.2891 16.3008 32.3203C15.5977 32.6484 14.8359 32.8125 14.0625 32.8125C13.2891 32.8125 12.5273 32.6484 11.8242 32.3203C8.17969 30.3047 5.22656 27.375 3.17578 23.9063C1.13672 20.4375 0 16.4297 0 12.2695L0 5.85938L1.875 5.85938C5.13281 5.85938 8.21484 4.37109 10.2539 1.82812C11.1797 0.667968 12.5859 0 14.0625 0C15.5391 0 16.9453 0.667968 17.8711 1.82812C18.8906 3.09375 20.168 4.10156 21.6094 4.79297C23.0391 5.48438 24.6211 5.85938 26.25 5.85938L28.125 5.85937Z" transform="translate(7.03125 16.40625)" id="Shape" fill="#AAB2BD" fill-rule="evenodd" stroke="none" />
      <path d="M0 9.375L0 2.34375C0 1.05469 1.05469 0 2.34375 0L67.9688 0C69.2578 0 70.3125 1.05469 70.3125 2.34375L70.3125 7.03125L19.9219 7.03125L17.5781 9.375L0 9.375Z" transform="translate(2.34375 2.34375)" id="Shape" fill="#FCD770" fill-rule="evenodd" stroke="none" />
      <g id="Group" transform="translate(39.84375 31.640625)">
        <path d="M7.03125 0L7.03125 3.36328L3.51563 10.3945L0 3.36328L0 0L3.51563 2.1914C4.81641 1.62891 6 0.890623 7.03125 0L7.03125 0Z" transform="translate(9.375 16.558594)" id="Shape" fill="#F0D0B4" fill-rule="evenodd" stroke="none" />
        <path d="M1.86328 0.0937499C2.83594 0.0937499 3.71485 0.492188 4.34765 1.125C4.98046 1.75781 5.37891 2.63672 5.37891 3.60937C5.37891 4.58203 4.98047 5.46094 4.34765 6.09375C3.71484 6.72656 2.83594 7.125 1.86328 7.125L0 7.125C0.457031 5.77734 0.691406 4.34766 0.691406 2.88281L0.691406 0.011719L0.691406 0C1.07813 0.0703119 1.46484 0.0937499 1.86328 0.0937499L1.86328 0.0937499Z" transform="translate(20.402344 3.421875)" id="Shape" fill="#F0D0B4" fill-rule="evenodd" stroke="none" />
        <path d="M15.7148 10.5469C14.9531 12.8672 13.5703 14.9531 11.7188 16.5586C10.6875 17.4492 9.50391 18.1875 8.20313 18.75L4.6875 16.5586L2.23828 13.7578C1.58203 12.7617 1.05469 11.6836 0.691406 10.5469C0.234376 9.19922 0 7.76953 0 6.30469L0 3.51563L2.0625 3.51563C5.23828 3.51563 8.29687 2.25 10.5469 0L11.5781 1.03125C12.8906 2.34375 14.5898 3.1875 16.4063 3.42187L16.4063 3.43359L16.4063 6.30468C16.4063 7.76953 16.1719 9.19922 15.7148 10.5469L15.7148 10.5469Z" transform="translate(4.6875 0)" id="Shape" fill="#F0D0B4" fill-rule="evenodd" stroke="none" />
        <path d="M5.37891 7.03125L3.51562 7.03125C1.57031 7.03125 0 5.46094 0 3.51562C0 2.54296 0.398438 1.66406 1.03125 1.03125C1.66406 0.398438 2.54297 0 3.51562 0L4.6875 0L4.6875 2.78906C4.6875 4.25391 4.92188 5.68359 5.37891 7.03125L5.37891 7.03125Z" transform="translate(0 3.515625)" id="Shape" fill="#F0D0B4" fill-rule="evenodd" stroke="none" />
      </g>
      <path d="M25.7812 10.6875L25.7812 18.75C25.7812 17.7773 25.3828 16.8984 24.75 16.2656C24.1172 15.6328 23.2383 15.2344 22.2656 15.2344C21.8672 15.2344 21.4805 15.2109 21.0937 15.1406C19.2773 14.9063 17.5781 14.0625 16.2656 12.75L15.2344 11.7188C12.9844 13.9688 9.92578 15.2344 6.75 15.2344L4.6875 15.2344L3.51563 15.2344C2.54297 15.2344 1.66406 15.6328 1.03125 16.2656C0.398442 16.8984 0 17.7773 0 18.75L0 11.7188C0 5.25 5.25 0 11.7188 0C13.5703 0 15.3516 0.433595 16.957 1.24219C18.5625 2.03906 19.9922 3.21094 21.0938 4.6875C22.4766 5.03906 23.6484 5.82422 24.4688 6.87891C25.3008 7.94531 25.7813 9.26953 25.7813 10.6875L25.7812 10.6875Z" transform="translate(39.84375 19.921875)" id="Shape" fill="#B27946" fill-rule="evenodd" stroke="none" />
      <path d="M0 0L2.34375 0L2.34375 2.34375L0 2.34375L0 0Z" transform="translate(5.859375 5.859375)" id="Shape" fill="#000000" fill-rule="evenodd" stroke="none" />
      <path d="M0 0L2.34375 0L2.34375 2.34375L0 2.34375L0 0Z" transform="translate(10.546875 5.859375)" id="Shape" fill="#000000" fill-rule="evenodd" stroke="none" />
      <path d="M0 0L2.34375 0L2.34375 2.34375L0 2.34375L0 0Z" transform="translate(15.234375 5.859375)" id="Shape" fill="#000000" fill-rule="evenodd" stroke="none" />
      <path d="M2.34375 6.13828L2.34375 5.10938C4.74727 4.51641 7.00195 3.38555 8.91094 1.80586L7.41797 0C5.56289 1.53398 3.33047 2.57461 0.960937 3.01055L0 3.18633L0 6.13828C0 7.62187 0.171094 9.10312 0.507421 10.5445L2.78906 10.0113C2.49375 8.74453 2.34375 7.44258 2.34375 6.13828L2.34375 6.13828Z" transform="translate(10.546875 22.535156)" id="Shape" fill="#000000" fill-rule="evenodd" stroke="none" />
      <path d="M19.957 2.26992C18.8027 0.827344 17.0813 0 15.2344 0C13.3875 0 11.666 0.827344 10.5117 2.26992C8.68711 4.55156 5.96484 5.85938 3.04336 5.85938L0 5.85938L0 13.4391C0 22.2012 4.7625 30.2789 12.5074 34.5574C13.357 34.9488 14.3004 35.1563 15.2344 35.1563C16.1684 35.1563 17.1117 34.9488 18.0375 34.5188C25.7063 30.2777 30.4688 22.2 30.4688 13.4391L30.4688 5.85938L27.4254 5.85938C24.5039 5.85938 21.7816 4.55156 19.957 2.26992L19.957 2.26992ZM28.125 13.4391C28.125 21.348 23.8254 28.6395 16.9805 32.4293C15.8766 32.9391 14.516 32.8992 13.5656 32.468C6.64336 28.6395 2.34375 21.348 2.34375 13.4391L2.34375 8.20313L3.04336 8.20313C6.68086 8.20313 10.0699 6.57422 12.3422 3.73477C13.0488 2.85117 14.1035 2.34375 15.2344 2.34375C16.3652 2.34375 17.4199 2.85117 18.1277 3.73359C20.3988 6.57422 23.7879 8.20313 27.4254 8.20313L28.125 8.20313L28.125 13.4391Z" transform="translate(5.859375 15.234375)" id="Shape" fill="#000000" fill-rule="evenodd" stroke="none" />
      <path d="M5.51602 12.0621L1.65703 8.20313L0 9.86016L5.51601 15.3762L19.2352 1.65703L17.5781 0L5.51602 12.0621Z" transform="translate(13.233887 27.296387)" id="Shape" fill="#000000" fill-rule="evenodd" stroke="none" />
      <path d="M72.6563 50.3906L72.6563 3.51563C72.6563 1.57734 71.0789 0 69.1406 0L3.51563 0C1.57734 0 0 1.57734 0 3.51563L0 50.3906C0 52.3289 1.57734 53.9063 3.51563 53.9063L34.4555 53.9063C32.0016 55.8691 30.4688 58.8832 30.4688 62.1492L30.4688 72.6563L72.6563 72.6563L72.6563 62.1492C72.6563 58.882 71.1234 55.8691 68.6695 53.9063L69.1406 53.9063C71.0789 53.9063 72.6563 52.3289 72.6563 50.3906L72.6563 50.3906ZM3.51563 2.34375L69.1406 2.34375C69.7863 2.34375 70.3125 2.86992 70.3125 3.51563L70.3125 7.03125L20.6086 7.03125L18.2648 9.375L2.34375 9.375L2.34375 3.51563C2.34375 2.86992 2.86992 2.34375 3.51563 2.34375L3.51563 2.34375ZM2.34375 50.3906L2.34375 11.7188L19.2352 11.7188L21.5789 9.375L70.3125 9.375L70.3125 50.3906C70.3125 51.0363 69.7863 51.5625 69.1406 51.5625L63.4453 51.5625L56.25 49.507L56.25 47.5371C57.852 46.0465 59.1023 44.2195 59.9051 42.1875L60.9375 42.1875C63.5227 42.1875 65.625 40.0852 65.625 37.5L65.625 29.441C65.625 26.1984 63.5191 23.3672 60.4547 22.4133C58.023 19.3781 54.2918 17.5781 50.3906 17.5781C43.2832 17.5781 37.5 23.3613 37.5 30.4688L37.5 37.5C37.5 40.0852 39.6023 42.1875 42.1875 42.1875L43.2199 42.1875C44.0227 44.2195 45.273 46.0453 46.875 47.5371L46.875 49.507L39.6809 51.5625L3.51563 51.5625C2.86992 51.5625 2.34375 51.0363 2.34375 50.3906L2.34375 50.3906ZM51.5625 54.8016L49.2188 50.1141L49.2188 49.3219C49.8164 49.6875 50.4434 50.0145 51.1008 50.2957L51.5625 50.4938L52.0242 50.2957C52.6816 50.0145 53.3086 49.6875 53.9063 49.3219L53.9063 50.1141L51.5625 54.8016ZM42.5145 39.8438L42.1875 39.8438C40.8949 39.8438 39.8438 38.7926 39.8438 37.5C39.8438 36.2074 40.8949 35.1563 42.1875 35.1563L42.1875 36.7781C42.1875 37.8234 42.3023 38.8488 42.5145 39.8438L42.5145 39.8438ZM60.9375 36.7781L60.9375 35.1563C62.2301 35.1563 63.2813 36.2074 63.2813 37.5C63.2813 38.7926 62.2301 39.8438 60.9375 39.8438L60.6105 39.8438C60.8227 38.8488 60.9375 37.8234 60.9375 36.7781L60.9375 36.7781ZM63.2813 33.4641C62.5887 33.0609 61.7953 32.8125 60.9375 32.8125C58.984 32.8125 57.1465 32.0519 55.7648 30.6703L53.9063 28.8117L53.0777 29.6402C51.0316 31.6863 48.3117 32.8125 45.4184 32.8125L42.1875 32.8125C41.3297 32.8125 40.5363 33.0609 39.8438 33.4641L39.8438 30.4688C39.8438 24.6539 44.5758 19.9219 50.3906 19.9219C53.693 19.9219 56.8465 21.4992 58.8281 24.1406L59.0777 24.4734L59.4809 24.5742C61.7191 25.1344 63.2813 27.1348 63.2813 29.441L63.2813 33.4641ZM44.5313 35.1563L45.4184 35.1563C48.5438 35.1563 51.5027 34.0758 53.8699 32.0895L54.1078 32.3274C55.3652 33.5848 56.9109 34.4414 58.5938 34.8598L58.5938 36.7781C58.5938 41.5606 55.8504 45.8848 51.5625 47.9321C47.2746 45.8848 44.5313 41.5606 44.5313 36.7782L44.5313 35.1563ZM47.434 51.7852L50.0777 57.0715L47.8137 58.7695L47.0496 51.8953L47.434 51.7852ZM55.691 51.7852L56.0754 51.8953L55.3113 58.7695L53.0473 57.0715L55.691 51.7852ZM70.3125 62.1493L70.3125 70.3125L65.625 70.3125L65.625 58.5938L63.2813 58.5938L63.2813 70.3125L39.8438 70.3125L39.8438 58.5938L37.5 58.5938L37.5 70.3125L32.8125 70.3125L32.8125 62.1493C32.8125 58.5059 35.2594 55.2633 38.7621 54.2626L44.7633 52.5481L45.9363 63.1067L51.5625 58.8868L57.1887 63.1067L58.3617 52.5481L64.3641 54.2626C67.8656 55.2633 70.3125 58.5059 70.3125 62.1493L70.3125 62.1493Z" transform="translate(1.171875 1.171875)" id="Shape" fill="#000000" fill-rule="evenodd" stroke="none" />
      <path d="M0 0L2.34375 0L2.34375 2.34375L0 2.34375L0 0Z" transform="translate(51.5625 66.796875)" id="Shape" fill="#000000" fill-rule="evenodd" stroke="none" />
      <path d="M0 0L2.34375 0L2.34375 2.34375L0 2.34375L0 0Z" transform="translate(51.5625 62.109375)" id="Shape" fill="#000000" fill-rule="evenodd" stroke="none" />
      <path d="M0 0L11.7188 0L11.7188 2.34375L0 2.34375L0 0Z" transform="translate(57.421875 12.890625)" id="Shape" fill="#000000" fill-rule="evenodd" stroke="none" />
      <path d="M0 0L9.375 0L9.375 2.34375L0 2.34375L0 0Z" transform="translate(59.765625 17.578125)" id="Shape" fill="#000000" fill-rule="evenodd" stroke="none" />
      <path d="M0 0L2.34375 0L2.34375 2.34375L0 2.34375L0 0Z" transform="translate(5.859375 48.046875)" id="Shape" fill="#000000" fill-rule="evenodd" stroke="none" />
      <path d="M0 0L2.34375 0L2.34375 2.34375L0 2.34375L0 0Z" transform="translate(5.859375 43.359375)" id="Shape" fill="#000000" fill-rule="evenodd" stroke="none" />
    </g>
  </g>
</svg>