<?xml version="1.0" encoding="utf-8"?>
<svg width="20px" height="20px" viewBox="0 0 20 20" version="1.1" xmlns:xlink="http://www.w3.org/1999/xlink" xmlns="http://www.w3.org/2000/svg">
  <desc>Created with Lunacy</desc>
  <g id="phone">
    <path d="M16.25 20L3.75 20C1.67875 20 0 18.3212 0 16.25L0 3.75C0 1.67875 1.67875 0 3.75 0L16.25 0C18.3212 0 20 1.67875 20 3.75L20 16.25C20 18.3212 18.3212 20 16.25 20L16.25 20Z" id="Shape" fill="#FFE6E2" fill-rule="evenodd" stroke="none" />
    <path d="M9.04256 10C9.01756 10 8.99194 9.99875 8.96694 9.99687C4.20006 9.62813 0.346936 5.77625 0.00256091 1.03813C-0.0168142 0.7725 0.0744358 0.509375 0.253186 0.315625C0.430686 0.123125 0.673186 0.01625 0.935061 0.0143749L2.89444 0C3.32944 0 3.70569 0.291875 3.81069 0.71L4.22006 2.33562C4.31256 2.70375 4.17506 3.0875 3.87006 3.31437L3.08318 3.90062C3.76194 5.14625 4.80569 6.195 6.05881 6.89187L6.66756 6.08625C6.89568 5.78438 7.28006 5.64812 7.64881 5.74L9.28568 6.14625C9.70631 6.25 10.0001 6.62437 10.0001 7.05625L10.0001 9.06187C10.0001 9.32375 9.89381 9.56562 9.70131 9.74375C9.52318 9.90875 9.28693 10 9.04256 10L9.04256 10Z" transform="translate(4.999939 5)" id="Shape" fill="#FC573B" fill-rule="evenodd" stroke="none" />
  </g>
</svg>