<?xml version="1.0" encoding="utf-8"?>
<svg width="15px" height="15px" viewbox="0 0 15 15" version="1.1" xmlns:xlink="http://www.w3.org/1999/xlink" xmlns="http://www.w3.org/2000/svg">
  <g id="phone">
    <path d="M12.1875 15L2.8125 15C1.25906 15 0 13.7409 0 12.1875L0 2.8125C0 1.25906 1.25906 0 2.8125 0L12.1875 0C13.7409 0 15 1.25906 15 2.8125L15 12.1875C15 13.7409 13.7409 15 12.1875 15L12.1875 15Z" id="Shape" fill="#001E76" fill-rule="evenodd" stroke="none" />
    <path d="M6.78192 7.5C6.76317 7.5 6.74395 7.49906 6.7252 7.49766C3.15005 7.22109 0.260202 4.33219 0.00192069 0.778594C-0.0126106 0.579375 0.0558268 0.382032 0.189889 0.236719C0.323015 0.092344 0.504889 0.0121875 0.701295 0.0107811L2.17083 0C2.49708 0 2.77926 0.218906 2.85801 0.5325L3.16505 1.75172C3.23442 2.02781 3.13129 2.31562 2.90254 2.48578L2.31239 2.92547C2.82145 3.85969 3.60426 4.64625 4.54411 5.16891L5.00067 4.56469C5.17176 4.33828 5.46004 4.23609 5.73661 4.305L6.96426 4.60969C7.27973 4.6875 7.50004 4.96828 7.50004 5.29219L7.50004 6.79641C7.50004 6.99281 7.42036 7.17422 7.27598 7.30781C7.14239 7.43156 6.9652 7.5 6.78192 7.5L6.78192 7.5Z" transform="translate(3.75 3.75)" id="Shape" fill="#FFFFFF" fill-rule="evenodd" stroke="none" />
  </g>
</svg>