<?xml version="1.0" encoding="utf-8"?>
<svg width="25px" height="25px" viewbox="0 0 25 25" version="1.1" xmlns:xlink="http://www.w3.org/1999/xlink" xmlns="http://www.w3.org/2000/svg">
  <defs>
    <path d="M0 0L25 0L25 25L0 25L0 0L0 0Z" id="path_1" />
    <rect width="25" height="25" id="artboard_1" />
    <clipPath id="clip_1">
      <use xlink:href="#artboard_1" clip-rule="evenodd" />
    </clipPath>
    <clipPath id="mask_1">
      <use xlink:href="#path_1" />
    </clipPath>
  </defs>
  <g id="Pixelbook" clip-path="url(#clip_1)">
    <use xlink:href="#artboard_1" stroke="none" fill="#FFFFFF" />
  </g>
  <g id="physician_icon">
    <g id="Insurance-5">
      <g id="doctor">
        <g id="Mask-group">
          <path d="M0 0L25 0L25 25L0 25L0 0L0 0Z" id="path_2" fill="none" fill-rule="evenodd" stroke="none" />
          <g clip-path="url(#mask_1)">
            <g id="Group" transform="translate(3.2226562 0)">
              <g id="Group">
                <g id="Group#1" transform="translate(0.4882812 0.48828125)">
                  <path d="M14.2241 0.397949C11.5899 0.0216293 12.435 0.142384 12.2622 0.117676C12.1123 0.0961924 11.9688 0.0566411 11.834 0L5.74414 0C5.60938 0.0566411 5.46582 0.0961924 5.31592 0.117676C5.14502 0.14209 5.98824 0.0216293 3.354 0.397949C1.4292 0.672851 0 2.3208 0 4.26465L0 8.29883L17.5781 8.29883L17.5781 4.26465C17.5781 2.3208 16.1489 0.672851 14.2241 0.397949L14.2241 0.397949L14.2241 0.397949Z" transform="translate(0 15.724602)" id="Shape" fill="#B3F1FF" fill-rule="evenodd" stroke="none" />
                  <path d="M5.85937 0C2.62354 0 0 2.62354 0 5.85938L0.0849616 7.8125L11.6338 7.8125L11.7187 5.85938C11.7187 2.62354 9.09521 0 5.85937 0L5.85937 0L5.85937 0Z" transform="translate(2.9296873 0)" id="Shape#1" fill="#C1B0B5" fill-rule="evenodd" stroke="none" />
                  <path d="M12.6074 3.96875L12.6104 3.90625C11.5781 3.90185 10.7422 3.06299 10.7422 2.02979L10.7422 1.95313L9.02051 1.95313C7.68164 1.95313 6.45801 1.19727 5.85937 0C5.85937 1.07861 4.98486 1.95313 3.90625 1.95313L2.92969 1.95313L2.92969 2.02979C2.92969 3.06299 2.09375 3.90185 1.06152 3.90625L1.06445 3.96875C0.45166 4.14355 0 4.70215 0 5.3711C0 6.18017 0.655761 6.83594 1.46485 6.83594L1.98389 6.83594C2.68018 8.24072 3.69385 9.49462 4.8833 10.1831L4.88281 10.1836C4.88281 10.9126 4.43896 11.5503 3.79101 11.8184L6.83594 15.625L9.88086 11.8184C9.23291 11.5503 8.78906 10.9126 8.78906 10.1836L8.78858 10.1831C9.97802 9.49462 10.9917 8.24072 11.688 6.83594L12.207 6.83594C13.0161 6.83594 13.6719 6.18017 13.6719 5.37109C13.6719 4.70215 13.2202 4.14355 12.6074 3.96875L12.6074 3.96875L12.6074 3.96875Z" transform="translate(1.9531248 3.90625)" id="Shape#2" fill="#FCE8D0" fill-rule="evenodd" stroke="none" />
                  <path d="M0 0.976563C0 0.437222 0.437222 0 0.976563 0C1.5159 0 1.95313 0.437222 1.95313 0.976563C1.95313 1.5159 1.5159 1.95313 0.976563 1.95313C0.437222 1.95313 0 1.5159 0 0.976563L0 0.976563Z" transform="translate(12.695312 20.117188)" id="Circle" fill="#F3EFF0" fill-rule="evenodd" stroke="none" />
                </g>
                <g id="Group#2">
                  <path d="M0 0.625C0 0.279822 0.279822 0 0.625 0C0.970178 0 1.25 0.279822 1.25 0.625C1.25 0.970178 0.970178 1.25 0.625 1.25C0.279822 1.25 0 0.970178 0 0.625L0 0.625Z" transform="translate(10.742187 8.300781)" id="Circle#1" fill="#000000" fill-rule="evenodd" stroke="none" />
                  <path d="M0 0.625C0 0.279822 0.279822 0 0.625 0C0.970178 0 1.25 0.279822 1.25 0.625C1.25 0.970178 0.970178 1.25 0.625 1.25C0.279822 1.25 0 0.970178 0 0.625L0 0.625Z" transform="translate(6.835937 8.300781)" id="Circle#2" fill="#000000" fill-rule="evenodd" stroke="none" />
                  <path d="M1.86976 1.95323C2.69589 1.95323 3.43602 1.42998 3.71146 0.65117C3.80135 0.396922 3.66815 0.117917 3.4139 0.0280249C3.1598 -0.0617695 2.8807 0.071336 2.79076 0.325583C2.65306 0.715036 2.2829 0.976658 1.86976 0.976658C1.45663 0.976658 1.08646 0.715036 0.948766 0.325583C0.858874 0.071336 0.57987 -0.0617695 0.325622 0.0280249C0.0713742 0.117918 -0.0618291 0.396922 0.0280642 0.65117C0.303503 1.42998 1.04364 1.95323 1.86976 1.95323L1.86976 1.95323L1.86976 1.95323Z" transform="translate(7.4075313 11.718674)" id="Shape#3" fill="#000000" fill-rule="evenodd" stroke="none" />
                  <path d="M0 0.625C0 0.279822 0.279822 0 0.625 0C0.970178 0 1.25 0.279822 1.25 0.625C1.25 0.970178 0.970178 1.25 0.625 1.25C0.279822 1.25 0 0.970178 0 0.625L0 0.625Z" transform="translate(13.671874 24.023438)" id="Circle#3" fill="#000000" fill-rule="evenodd" stroke="none" />
                  <path d="M16.3574 24.0235C16.0877 24.0235 15.8691 24.2421 15.8691 24.5117C15.8691 24.7814 16.0877 25 16.3574 25L18.0664 25C18.3361 25 18.5547 24.7814 18.5547 24.5117L18.5547 20.4775C18.5547 18.289 16.944 16.4364 14.7816 16.1275L12.8199 15.8472C12.2884 15.7709 11.8528 15.3708 11.7448 14.8329C12.7739 14.1559 13.7122 13.0676 14.4276 11.7188L14.6485 11.7188C15.7254 11.7188 16.6016 10.8426 16.6016 9.76563C16.6016 9.03565 16.185 8.3729 15.5517 8.04121C15.5517 8.04121 15.625 6.35474 15.625 6.34766C15.625 2.84751 12.7775 0 9.27735 0C5.77725 0 2.92969 2.84751 2.92969 6.34766C2.92969 6.35474 2.92984 6.36181 2.93012 6.3689L3.00287 8.04121C2.36972 8.3729 1.95312 9.03565 1.95312 9.76563C1.95312 10.8426 2.8293 11.7188 3.90625 11.7188L4.127 11.7188C4.84247 13.0676 5.78086 14.156 6.80991 14.8329C6.70254 15.367 6.2688 15.7705 5.73525 15.8472L3.77324 16.1275C1.60707 16.4369 0 18.2926 0 20.4775L0 24.5117C0 24.7814 0.218604 25 0.488281 25L11.9629 25C12.2326 25 12.4512 24.7814 12.4512 24.5117C12.4512 24.2421 12.2326 24.0234 11.9629 24.0234L9.76562 24.0234L9.76562 20.1908L12.4952 16.7784C12.5566 16.7924 12.6185 16.8049 12.6815 16.8139L13.6719 16.9554L13.6719 20.2011C13.1036 20.4028 12.6954 20.9455 12.6954 21.582C12.6954 22.3897 13.3525 23.0469 14.1601 23.0469C14.9679 23.0469 15.625 22.3897 15.625 21.582C15.625 20.9455 15.2167 20.4028 14.6485 20.2011L14.6485 17.0951C16.319 17.3363 17.5781 18.7894 17.5781 20.4775L17.5781 24.0234L16.3574 24.0235L16.3574 24.0235ZM9.27724 19.2379L6.96259 16.3441C7.30219 16.0742 7.5557 15.7126 7.69379 15.3027C8.21487 15.5165 8.7452 15.625 9.27724 15.625C9.80926 15.625 10.3395 15.5165 10.8606 15.3029C10.9988 15.7131 11.2524 16.0749 11.5918 16.3445L9.27724 19.2379L9.27724 19.2379ZM9.27735 0.976564C12.2355 0.976564 14.6429 3.38032 14.6485 6.33726L14.5879 7.72945C14.0545 7.5355 13.6719 7.02305 13.6719 6.42431L13.6719 6.34766C13.6719 6.07802 13.4532 5.85938 13.1836 5.85938L11.4619 5.85938C10.3005 5.85938 9.25659 5.2144 8.7375 4.17618C8.63622 3.97364 8.40889 3.86739 8.18857 3.91929C7.96821 3.97134 7.8125 4.16806 7.8125 4.39454C7.8125 5.20225 7.15537 5.85938 6.34766 5.85938L5.3711 5.85938C5.10141 5.85938 4.88281 6.07802 4.88281 6.34766L4.88281 6.42431C4.88281 7.02334 4.4998 7.53604 3.96699 7.72974L3.90625 6.33726C3.91181 3.38032 6.31914 0.976563 9.27734 0.976563L9.27735 0.976564L9.27735 0.976564ZM4.86279 11.0136C4.78037 10.8474 4.61084 10.7422 4.42529 10.7422L3.90625 10.7422C3.36777 10.7422 2.92969 10.3041 2.92969 9.76564C2.92969 8.98805 3.67075 8.8381 3.77187 8.77233C4.80855 8.65035 5.64346 7.85367 5.82339 6.83595L6.34766 6.83595C7.27949 6.83595 8.09111 6.31114 8.50244 5.54161C9.25117 6.35796 10.313 6.83595 11.4619 6.83595L12.7313 6.83595C12.9111 7.85294 13.7452 8.64927 14.7825 8.77207C14.8809 8.83624 15.625 8.99151 15.625 9.76564C15.625 10.3041 15.1869 10.7422 14.6485 10.7422L14.1294 10.7422C13.9439 10.7422 13.7744 10.8474 13.6919 11.0136C12.8326 12.7471 11.2137 14.6485 9.27735 14.6485C7.34659 14.6485 5.73511 12.7735 4.86279 11.0136L4.86279 11.0136L4.86279 11.0136ZM0.976562 24.0234L0.976562 20.4775C0.976562 18.7895 2.2356 17.3364 3.90625 17.0951L3.90625 18.6038C2.79321 18.8306 1.95312 19.817 1.95312 20.9961L1.95312 22.5586C1.95312 22.8283 2.17172 23.0469 2.44141 23.0469L3.41797 23.0469C3.68765 23.0469 3.90625 22.8283 3.90625 22.5586C3.90625 22.289 3.68765 22.0703 3.41797 22.0703L2.92969 22.0703L2.92969 20.9961C2.92969 20.1884 3.58681 19.5313 4.39454 19.5313C5.20225 19.5313 5.85937 20.1884 5.85937 20.9961L5.85937 22.0703L5.3711 22.0703C5.10141 22.0703 4.88281 22.289 4.88281 22.5586C4.88281 22.8283 5.10141 23.0469 5.3711 23.0469L6.34766 23.0469C6.61734 23.0469 6.83594 22.8283 6.83594 22.5586L6.83594 20.9961C6.83594 19.8171 5.99585 18.8306 4.88281 18.6038L4.88281 16.9555L5.87354 16.8139C5.93632 16.8049 5.99815 16.7924 6.05932 16.7784L8.78906 20.1908L8.78906 24.0234L0.976562 24.0234L0.976562 24.0234ZM14.2968 22.3438C13.9522 22.3438 13.6719 22.0633 13.6719 21.7187C13.6719 21.3741 13.9522 21.0938 14.2968 21.0938C14.6414 21.0938 14.9219 21.3741 14.9219 21.7187C14.9219 22.0633 14.6414 22.3438 14.2968 22.3438L14.2968 22.3438L14.2968 22.3438Z" id="Shape#4" fill="#007C88" fill-rule="evenodd" stroke="none" />
                </g>
              </g>
            </g>
          </g>
        </g>
      </g>
    </g>
  </g>
</svg>