<?xml version="1.0" encoding="utf-8"?>
<svg width="15px" height="15px" viewbox="0 0 15 15" version="1.1" xmlns:xlink="http://www.w3.org/1999/xlink" xmlns="http://www.w3.org/2000/svg">
  <g id="blood">
    <g id="Group">
      <path d="M0 15L0 0L15 0L15 15L0 15Z" id="Shape" fill="none" fill-rule="evenodd" stroke="none" />
      <g id="Group" transform="translate(3.4375 1.25)">
        <path d="M8.125 8.4375C8.125 10.6875 6.3125 12.5 4.0625 12.5C1.8125 12.5 0 10.6875 0 8.4375C0 6.1875 4.0625 0 4.0625 0C4.0625 0 8.125 6.1875 8.125 8.4375L8.125 8.4375Z" id="Shape" fill="#DD2C00" fill-rule="evenodd" stroke="none" />
        <path d="M2.5 3.125C1.125 3.125 0 2 0 0.625C0 0.28125 0.28125 0 0.625001 0C0.968751 0 1.25 0.28125 1.25 0.625C1.25 1.3125 1.8125 1.875 2.5 1.875C2.84375 1.875 3.125 2.15625 3.125 2.5C3.125 2.84375 2.84375 3.125 2.5 3.125L2.5 3.125Z" transform="translate(1.5625 7.8125)" id="Shape" fill="#FFCCBC" fill-rule="evenodd" stroke="none" />
      </g>
    </g>
  </g>
</svg>