<?xml version="1.0" encoding="utf-8"?>
<svg width="31px" height="31px" viewbox="0 0 31 31" version="1.1" xmlns:xlink="http://www.w3.org/1999/xlink" xmlns="http://www.w3.org/2000/svg">
  <g id="print" transform="translate(0.25 0.25)">
    <g id="Group">
      <g id="Group">
        <g id="Group">
          <path d="M14.9993 0C14.3521 0 13.8274 0.524624 13.8274 1.17182C13.8274 1.81901 14.3521 2.34363 14.9993 2.34363C21.9937 2.34363 27.6549 8.00397 27.6549 14.9993C27.6549 21.9937 21.9945 27.6549 14.9993 27.6549C8.0048 27.6549 2.34363 21.9945 2.34363 14.9993C2.34363 14.3521 1.81901 13.8274 1.17182 13.8274C0.524622 13.8274 2.59206e-11 14.3521 2.6148e-11 14.9993C2.6148e-11 23.2889 6.70847 29.9985 14.9993 29.9985C23.2889 29.9985 29.9985 23.29 29.9985 14.9993C29.9985 6.70964 23.29 0 14.9993 0L14.9993 0Z" transform="matrix(-4.371139E-08 1 -1 -4.371139E-08 29.998535 0)" id="Shape" fill="#006C76" fill-rule="evenodd" stroke="#FFFFFF" stroke-width="0.5" />
          <g id="printer" transform="translate(7.4992676 7.4992676)">
            <g id="Group">
              <path d="M12.8027 3.7793L12.3926 3.7793L12.3926 2.19727C12.3926 0.985693 11.4069 0 10.1953 0L4.80469 0C3.59312 0 2.60742 0.985693 2.60742 2.19727L2.60742 3.7793L2.19727 3.7793C0.985693 3.7793 0 4.76499 0 5.97656L0 9.49219C0 10.7038 0.985693 11.6895 2.19727 11.6895L2.60742 11.6895L2.60742 13.6816C2.60742 14.4086 3.19884 15 3.92578 15L11.0742 15C11.8012 15 12.3926 14.4086 12.3926 13.6816L12.3926 11.6895L12.8027 11.6895C14.0143 11.6895 15 10.7038 15 9.49219L15 5.97656C15 4.76499 14.0143 3.7793 12.8027 3.7793L12.8027 3.7793ZM3.48633 2.19727C3.48633 1.47032 4.07774 0.878906 4.80469 0.878906L10.1953 0.878906C10.9223 0.878906 11.5137 1.47032 11.5137 2.19727L11.5137 3.7793L3.48633 3.7793L3.48633 2.19727ZM11.5137 13.6816C11.5137 13.924 11.3165 14.1211 11.0742 14.1211L3.92578 14.1211C3.68347 14.1211 3.48633 13.924 3.48633 13.6816L3.48633 9.3457L11.5137 9.3457L11.5137 13.6816ZM14.1211 9.49219C14.1211 10.2191 13.5297 10.8105 12.8027 10.8105L12.3926 10.8105L12.3926 9.3457L12.6563 9.3457C12.8989 9.3457 13.0957 9.14894 13.0957 8.90625C13.0957 8.66356 12.8989 8.4668 12.6563 8.4668L2.34375 8.4668C2.10105 8.4668 1.9043 8.66356 1.9043 8.90625C1.9043 9.14894 2.10105 9.3457 2.34375 9.3457L2.60742 9.3457L2.60742 10.8105L2.19727 10.8105C1.47032 10.8105 0.878906 10.2191 0.878906 9.49219L0.878906 5.97656C0.878906 5.24962 1.47032 4.6582 2.19727 4.6582L12.8027 4.6582C13.5297 4.6582 14.1211 5.24962 14.1211 5.97656L14.1211 9.49219Z" id="Shape" fill="#006C76" fill-rule="evenodd" stroke="none" />
              <path d="M2.7832 0L0.439453 0C0.196758 0 0 0.196758 0 0.439453C0 0.682148 0.196758 0.878906 0.439453 0.878906L2.7832 0.878906C3.0259 0.878906 3.22266 0.682148 3.22266 0.439453C3.22266 0.196758 3.0259 0 2.7832 0L2.7832 0Z" transform="translate(5.888672 10.341797)" id="Shape" fill="#006C76" fill-rule="evenodd" stroke="none" />
              <path d="M2.7832 0L0.439453 0C0.196758 0 0 0.196758 0 0.439453C0 0.682148 0.196758 0.878906 0.439453 0.878906L2.7832 0.878906C3.0259 0.878906 3.22266 0.682148 3.22266 0.439453C3.22266 0.196758 3.0259 0 2.7832 0L2.7832 0Z" transform="translate(5.888672 12.216797)" id="Shape" fill="#006C76" fill-rule="evenodd" stroke="none" />
              <path d="M1.8457 0L0.439453 0C0.196758 0 0 0.196758 0 0.439453C0 0.682148 0.196758 0.878906 0.439453 0.878906L1.8457 0.878906C2.0884 0.878906 2.28516 0.682148 2.28516 0.439453C2.28516 0.196758 2.0884 0 1.8457 0L1.8457 0Z" transform="translate(1.9042969 5.654297)" id="Shape" fill="#006C76" fill-rule="evenodd" stroke="none" />
            </g>
          </g>
        </g>
      </g>
    </g>
  </g>
</svg>