<?xml version="1.0" encoding="utf-8"?>
<svg width="30px" height="30px" viewbox="0 0 30 30" version="1.1" xmlns:xlink="http://www.w3.org/1999/xlink" xmlns="http://www.w3.org/2000/svg">
  <defs>
    <path d="M0 0L30 0L30 30L0 30L0 0Z" id="path_1" />
    <clipPath id="mask_1">
      <use xlink:href="#path_1" />
    </clipPath>
  </defs>
  <g id="pulse-oximeter">
    <path d="M0 0L30 0L30 30L0 30L0 0Z" id="Background" fill="none" fill-rule="evenodd" stroke="none" />
    <g clip-path="url(#mask_1)">
      <g id="Group" transform="translate(7.097534 3.8371887)">
        <path d="M0.410156 13.8874C0.183633 13.8874 0 13.7038 0 13.4773L0 5.09766C8.9407e-07 2.2823 2.2823 0 5.09766 0C7.91302 0 10.1953 2.2823 10.1953 5.09766L10.1953 5.33203C10.1953 5.55855 10.0117 5.74219 9.78516 5.74219C9.55863 5.74219 9.375 5.55855 9.375 5.33203L9.375 5.09766C9.375 2.73534 7.45997 0.820313 5.09766 0.820313C2.73535 0.820313 0.820313 2.73534 0.820313 5.09766L0.820313 13.4773C0.820379 13.5861 0.777188 13.6904 0.700258 13.7673C0.623327 13.8443 0.518967 13.8875 0.410168 13.8874L0.410156 13.8874Z" transform="translate(2.1972656 0)" id="Shape" fill="#FC0023" fill-rule="evenodd" stroke="none" />
        <path d="M0 1.07226L0 7.06664C1.78814e-06 7.38227 0.123564 7.68514 0.344208 7.91054C0.564575 8.13604 0.687933 8.43884 0.687892 8.75414L0.687892 14.1867C0.687892 14.7494 1.14404 15.2055 1.70672 15.2055L5.93766 15.2055C6.50034 15.2055 6.95649 14.7494 6.95649 14.1867L6.95649 8.75367C6.95649 8.43804 7.08005 8.13517 7.30069 7.90977C7.52121 7.68435 7.64467 7.38152 7.64461 7.06617L7.64461 1.07227C7.64461 0.48007 7.16454 8.9407e-07 6.57235 0L1.07133 0C0.4795 0.000517666 1.78814e-06 0.480436 3.57628e-06 1.07227L0 1.07226Z" transform="translate(8.160278 6.7096863)" id="Shape" fill="#6CF7EC" fill-rule="evenodd" stroke="none" />
        <path d="M0 0L4.18945 0L4.18945 5.44922L0 5.44922L0 0Z" transform="translate(9.887329 8.379608)" id="Shape" fill="#A2FAF3" fill-rule="evenodd" stroke="none" />
        <path d="M0 1.61133C0 0.721416 0.721416 0 1.61133 0C2.50124 0 3.22266 0.721416 3.22266 1.61133C3.22266 2.50124 2.50124 3.22266 1.61133 3.22266C0.721416 3.22266 0 2.50124 0 1.61133Z" transform="translate(10.370605 16.572891)" id="Circle" fill="#414851" fill-rule="evenodd" stroke="none" />
        <path d="M0 0L1.37695 0L1.37695 1.37695L0 1.37695L0 0Z" transform="translate(11.293579 5.332733)" id="Shape" fill="#FDA789" fill-rule="evenodd" stroke="none" />
        <path d="M4.39922 3.57628e-06L0.815625 3.57628e-06C0.365168 3.57628e-06 8.9407e-07 0.365172 1.3411e-06 0.815629L4.47035e-07 7.03125L5.21484 7.03125L5.21484 0.815628C5.21484 0.365168 4.84968 0 4.39922 0L4.39922 3.57628e-06Z" transform="translate(0 14.88398)" id="Shape" fill="#FC0023" fill-rule="evenodd" stroke="none" />
        <path d="M1.33301 0C0.596873 0 0.000118017 0.596754 0.000117123 1.33289L0.000118017 3.44227C-0.00625312 3.92272 0.246415 4.36943 0.661469 4.61151C1.07652 4.8536 1.58974 4.85359 2.00479 4.61151C2.41984 4.36942 2.67251 3.92272 2.66613 3.44227L2.66613 1.33289C2.66601 0.978885 2.52543 0.639871 2.27533 0.389986C2.02523 0.140101 1.68609 -0.000184178 1.33255 0L1.33301 0Z" transform="translate(1.2744141 17.139374)" id="Shape" fill="#FFD0B0" fill-rule="evenodd" stroke="none" />
        <path d="M0 0L1.40672 0L1.40672 1.40672L0 1.40672L0 0Z" transform="translate(1.9041748 13.477264)" id="Shape" fill="#FC0023" fill-rule="evenodd" stroke="none" />
      </g>
    </g>
  </g>
</svg>