<?xml version="1.0" encoding="utf-8"?>
<svg width="30px" height="30px" viewbox="0 0 30 30" version="1.1" xmlns:xlink="http://www.w3.org/1999/xlink" xmlns="http://www.w3.org/2000/svg">
  <g id="add_more_item-3">
    <g id="Group" transform="matrix(1 -3.274622E-09 3.274622E-09 1 0 0)">
      <g id="Group">
        <g id="Group">
          <path d="M1.62071 2.88284L3.13647 2.25495C3.73436 2.00722 4.01836 1.32173 3.77063 0.723778C3.5229 0.125829 2.83747 -0.158293 2.23946 0.0896176L0.723696 0.717508C0.125805 0.965243 -0.158198 1.65073 0.0895357 2.24868C0.33645 2.84464 1.02082 3.13116 1.62071 2.88284L1.62071 2.88284Z" transform="translate(7.7783203 0.73828125)" id="Shape" fill="#006C76" fill-rule="evenodd" stroke="none" />
          <path d="M15 0C14.3528 0 13.8281 0.524648 13.8281 1.17188C13.8281 1.8191 14.3528 2.34375 15 2.34375C21.9948 2.34375 27.6563 8.00438 27.6563 15C27.6563 21.9948 21.9956 27.6563 15 27.6563C8.0052 27.6563 2.34375 21.9956 2.34375 15C2.34375 14.3528 1.8191 13.8281 1.17188 13.8281C0.524648 13.8281 0 14.3528 0 15C0 23.29 6.70881 30 15 30C23.29 30 30 23.2912 30 15C30 6.70998 23.2912 0 15 0L15 0Z" id="Shape" fill="#006C76" fill-rule="evenodd" stroke="none" />
          <path d="M2.00058 3.16066L3.16068 2.00056C3.61835 1.54288 3.61835 0.800852 3.16068 0.343235C2.703 -0.114382 1.96097 -0.114441 1.50335 0.343235L0.343257 1.50333C-0.114419 1.96101 -0.114419 2.70304 0.343257 3.16066C0.800815 3.61822 1.54291 3.61833 2.00058 3.16066L2.00058 3.16066Z" transform="translate(3.46875 3.4700928)" id="Shape" fill="#006C76" fill-rule="evenodd" stroke="none" />
          <path d="M0.723696 3.77066C1.32293 4.01887 2.00772 3.73305 2.25487 3.1365L2.88276 1.62068C3.13049 1.02273 2.84649 0.337247 2.2486 0.0895116C1.65053 -0.158165 0.965161 0.125781 0.717426 0.723672L0.0895358 2.23943C-0.158198 2.83744 0.125805 3.52293 0.723696 3.77066L0.723696 3.77066Z" transform="translate(0.73828125 7.778137)" id="Shape" fill="#006C76" fill-rule="evenodd" stroke="none" />
        </g>
      </g>
    </g>
  </g>
  <path d="M0.999 0L11.001 0Q11.0994 0 11.1959 0.0191955Q11.2924 0.038391 11.3833 0.0760443Q11.4742 0.113698 11.556 0.168362Q11.6378 0.223026 11.7074 0.2926Q11.777 0.362175 11.8316 0.443985Q11.8863 0.525796 11.924 0.616699Q11.9616 0.707602 11.9808 0.804105Q12 0.900607 12 0.999L12 1.001Q12 1.09939 11.9808 1.1959Q11.9616 1.2924 11.924 1.3833Q11.8863 1.4742 11.8316 1.55601Q11.777 1.63783 11.7074 1.7074Q11.6378 1.77697 11.556 1.83164Q11.4742 1.8863 11.3833 1.92396Q11.2924 1.96161 11.1959 1.9808Q11.0994 2 11.001 2L0.999 2Q0.900607 2 0.804105 1.9808Q0.707602 1.96161 0.616699 1.92396Q0.525796 1.8863 0.443985 1.83164Q0.362175 1.77697 0.2926 1.7074Q0.223026 1.63783 0.168362 1.55601Q0.113698 1.4742 0.0760443 1.3833Q0.038391 1.2924 0.0191955 1.1959Q0 1.09939 0 1.001L0 0.999Q0 0.900607 0.0191955 0.804105Q0.038391 0.707602 0.0760443 0.616699Q0.113698 0.525796 0.168362 0.443985Q0.223026 0.362175 0.2926 0.2926Q0.362175 0.223026 0.443985 0.168362Q0.525796 0.113698 0.616699 0.0760443Q0.707602 0.038391 0.804105 0.0191955Q0.900607 0 0.999 0Z" transform="translate(8.900024 14)" id="Rectangle" fill="#006C76" fill-rule="evenodd" stroke="none" />
</svg>