<?xml version="1.0" encoding="utf-8"?>
<svg width="50px" height="50px" viewbox="0 0 50 50" version="1.1" xmlns:xlink="http://www.w3.org/1999/xlink" xmlns="http://www.w3.org/2000/svg">
  <defs>
    <rect width="50" height="50" id="artboard_1" />
    <clipPath id="clip_1">
      <use xlink:href="#artboard_1" clip-rule="evenodd" />
    </clipPath>
  </defs>
  <g id="Pixelbook" clip-path="url(#clip_1)">
    <g id="interview-(3)" transform="translate(5 5)">
      <path d="M20 0L4.93744 0C2.21039 0 0 2.20642 0 4.93744L0 27.5311C0 28.4897 1.09924 29.0503 1.875 28.4686L6.58325 24.9374L20 24.9374C22.7271 24.9374 24.9374 22.731 24.9374 20L24.9374 4.93744C24.9374 2.21039 22.731 0 20 0L20 0ZM11.2967 18.6615L6.19263 18.6615C5.54535 18.6615 5.02075 18.1369 5.02075 17.4896C5.02075 16.8423 5.54535 16.3177 6.19263 16.3177L11.2967 16.3177C11.944 16.3177 12.4686 16.8423 12.4686 17.4896C12.4686 18.1369 11.944 18.6615 11.2967 18.6615L11.2967 18.6615ZM18.7448 13.6407L6.19263 13.6407C5.54535 13.6407 5.02075 13.1158 5.02075 12.4689C5.02075 11.8216 5.54535 11.297 6.19263 11.297L18.7448 11.297C19.3918 11.297 19.9167 11.8216 19.9167 12.4689C19.9167 13.1158 19.3921 13.6407 18.7448 13.6407L18.7448 13.6407ZM18.7448 8.61969L6.19263 8.61969C5.54535 8.61969 5.02075 8.09509 5.02075 7.44781C5.02075 6.80084 5.54535 6.27594 6.19263 6.27594L18.7448 6.27594C19.3918 6.27594 19.9167 6.80084 19.9167 7.44781C19.9167 8.09509 19.3921 8.61969 18.7448 8.61969L18.7448 8.61969Z" transform="translate(15.062561 0)" id="Shape" fill="#006C76" fill-rule="evenodd" stroke="none" />
      <path d="M11.0791 5.53986C11.0791 8.59924 8.59894 11.0794 5.53955 11.0794C2.48016 11.0794 0 8.59924 0 5.53986C0 2.48016 2.48016 0 5.53955 0C8.59894 0 11.0791 2.48016 11.0791 5.53986L11.0791 5.53986Z" transform="translate(1.9082642 18.82721)" id="Shape" fill="#006C76" fill-rule="evenodd" stroke="none" />
      <path d="M7.44781 0C3.33466 0 0 3.33466 0 7.44782L0 8.92151C0 9.56879 0.524597 10.0934 1.17188 10.0934L13.7241 10.0934C14.371 10.0934 14.8959 9.56879 14.8959 8.92151L14.8959 7.44782C14.8959 3.33466 11.5613 0 7.44781 0L7.44781 0Z" transform="translate(0 29.906616)" id="Shape" fill="#006C76" fill-rule="evenodd" stroke="none" />
    </g>
  </g>
</svg>