<?xml version="1.0" encoding="utf-8"?>
<svg width="86px" height="26px" viewbox="0 0 86 26" version="1.1" xmlns:xlink="http://www.w3.org/1999/xlink" xmlns="http://www.w3.org/2000/svg">
  <g id="Request-RoadL" transform="translate(0.5 0.5)">
    <g id="R---ADL" fill="#FF0000" transform="translate(0 2.7000008)">
      <path d="M4.824 13.952L6.768 13.952L9.054 17.3L12.87 17.3L10.152 13.34Q11.34 12.764 11.979 11.747Q12.618 10.73 12.618 9.362Q12.618 7.94 11.934 6.887Q11.25 5.834 9.99 5.267Q8.73 4.7 7.02 4.7L1.26 4.7L1.26 17.3L4.824 17.3L4.824 13.952ZM32.418 17.3L33.408 14.852L38.736 14.852L39.726 17.3L43.434 17.3L37.854 4.7L34.344 4.7L28.782 17.3L32.418 17.3ZM44.442 4.7L50.4 4.7Q52.47 4.7 54.072 5.474Q55.674 6.248 56.556 7.67Q57.438 9.092 57.438 11Q57.438 12.908 56.556 14.33Q55.674 15.752 54.072 16.526Q52.47 17.3 50.4 17.3L44.442 17.3L44.442 4.7ZM62.874 4.7L59.31 4.7L59.31 17.3L68.886 17.3L68.886 14.474L62.874 14.474L62.874 4.7ZM8.46 7.994Q9.018 8.48 9.018 9.362Q9.018 10.244 8.46 10.721Q7.902 11.198 6.804 11.198L4.824 11.198L4.824 7.508L6.804 7.508Q7.902 7.508 8.46 7.994ZM50.256 14.456Q51.876 14.456 52.857 13.538Q53.838 12.62 53.838 11Q53.838 9.38 52.857 8.462Q51.876 7.544 50.256 7.544L48.006 7.544L48.006 14.456L50.256 14.456ZM36.072 8.192L37.692 12.224L34.452 12.224L36.072 8.192Z" />
    </g>
    <g id="Alert" transform="translate(9.941755 0)">
      <path d="M6.0565 0C2.71215 0 0 2.436 0 5.43971L0 12.1773L6.05655 12.1773L6.0565 0Z" transform="translate(5.474119 7.822708)" id="Shape" fill="#F10909" fill-rule="evenodd" stroke="none" />
      <path d="M6.05637 5.43972C6.05637 2.436 3.34422 0 7.21982e-07 0L7.21982e-07 1.35918C2.50897 1.36217 4.53978 3.18621 4.54311 5.43972C4.53978 3.18621 2.50897 1.36217 7.21982e-07 1.35918L0 12.1773L6.05642 12.1773L6.05637 5.43972Z" transform="translate(11.530668 7.822708)" id="Shape" fill="#FF0000" fill-rule="evenodd" stroke="none" />
      <path d="M0.380011 6.12223C0.170301 6.12223 0 5.96927 0 5.78102L0 0.341203C0 0.152961 0.170301 0 0.380011 0C0.589592 0 0.759893 0.152961 0.759893 0.341203L0.759893 5.78102C0.759893 5.96927 0.589592 6.12223 0.380011 6.12223L0.380011 6.12223Z" transform="translate(11.150892 0)" id="Shape" fill="#FF5023" fill-rule="evenodd" stroke="#FF5023" stroke-width="1" />
      <path d="M3.40921 5.39212C3.27486 5.39212 3.14717 5.32742 3.08166 5.22146L0.0518111 0.511394C-0.0529796 0.349584 0.00587719 0.140656 0.18603 0.0465355C0.366183 -0.0475855 0.598796 0.00527854 0.703586 0.167088C0.703586 0.167088 0.706913 0.170076 0.706913 0.170076L3.73676 4.88313C3.84155 5.04494 3.77937 5.25387 3.59921 5.34799C3.54023 5.37741 3.47472 5.39212 3.40921 5.39212L3.40921 5.39212Z" transform="translate(4.7150726 1.5480013)" id="Shape" fill="#FF5023" fill-rule="evenodd" stroke="#FF5023" stroke-width="1" />
      <path d="M5.62834 3.40246C5.56283 3.40246 5.49732 3.38775 5.43833 3.35833L0.19099 0.636986C0.010837 0.542865 -0.0546733 0.336926 0.0501175 0.172128C0.154908 0.00744501 0.384194 -0.0485219 0.567674 0.0457139C0.567674 0.0457139 0.570873 0.048587 0.570873 0.048587L5.81822 2.76993C5.99837 2.86405 6.06068 3.07298 5.95589 3.23479C5.88705 3.33776 5.76256 3.40246 5.62834 3.40246L5.62834 3.40246Z" transform="translate(0 5.7794304)" id="Shape" fill="#FF5023" fill-rule="evenodd" stroke="#FF5023" stroke-width="1" />
      <path d="M0.380011 3.40333C0.170429 3.40333 0 3.25037 0 3.06213C0 2.94146 0.0721636 2.82964 0.190005 2.76793L5.43735 0.0465863C5.6175 -0.0476494 5.85011 0.00532949 5.95491 0.167139C6.0597 0.328949 6.00084 0.537876 5.82069 0.631997C5.82069 0.631997 5.81736 0.634985 5.81736 0.634985L0.570016 3.3592C0.511031 3.38862 0.445521 3.40333 0.380011 3.40333L0.380011 3.40333Z" transform="translate(17.053282 5.778572)" id="Shape" fill="#FF5023" fill-rule="evenodd" stroke="#FF5023" stroke-width="1" />
      <path d="M0.376732 5.39345C0.167022 5.39345 -0.00327871 5.24049 4.79811e-05 5.05213C4.79811e-05 4.99329 0.0164255 4.93445 0.0491806 4.88159L3.07903 0.168416C3.18382 0.00660654 3.41643 -0.0492454 3.59658 0.0478634C3.77674 0.141984 3.83559 0.347924 3.73413 0.509734L0.704283 5.22279C0.638773 5.32875 0.514278 5.39644 0.376732 5.39345L0.376732 5.39345Z" transform="translate(14.560476 1.5466852)" id="Shape" fill="#FF5023" fill-rule="evenodd" stroke="#FF5023" stroke-width="1" />
      <path d="M4.92632 4.76603C4.71674 4.76603 4.54631 4.61307 4.54631 4.42472C4.54311 2.35946 2.67927 0.685508 0.379882 0.68252C0.170301 0.68252 0 0.529559 0 0.341317C0 0.152961 0.170301 0 0.379882 0C3.09856 0.00298796 5.29967 1.97999 5.303 4.42184C5.30633 4.61307 5.1359 4.76603 4.92632 4.76603L4.92632 4.76603Z" transform="translate(11.147573 8.837727)" id="Shape" fill="#FFFFFF" fill-rule="evenodd" stroke="#FFFFFF" stroke-width="0.5" />
    </g>
  </g>
</svg>