<?xml version="1.0" encoding="utf-8"?>
<svg width="64px" height="64px" viewbox="0 0 64 64" version="1.1" xmlns:xlink="http://www.w3.org/1999/xlink" xmlns="http://www.w3.org/2000/svg">
  <defs>
    <path d="M0 27.5C0 12.3122 12.3122 0 27.5 0C42.6878 0 55 12.3122 55 27.5C55 42.6878 42.6878 55 27.5 55C12.3122 55 0 42.6878 0 27.5Z" id="path_1" />
    <path d="M0 0L35 0L35 35L0 35L0 0Z" id="path_2" />
    <rect width="64" height="64" id="artboard_1" />
    <clipPath id="clip_1">
      <use xlink:href="#artboard_1" clip-rule="evenodd" />
    </clipPath>
    <clipPath id="mask_1">
      <use xlink:href="#path_1" />
    </clipPath>
    <clipPath id="mask_2">
      <use xlink:href="#path_2" />
    </clipPath>
  </defs>
  <g id="Quad-HD-Copy" clip-path="url(#clip_1)">
    <g id="request" transform="translate(4 4)">
      <path d="M0 27.5C0 12.3122 12.3122 0 27.5 0C42.6878 0 55 12.3122 55 27.5C55 42.6878 42.6878 55 27.5 55C12.3122 55 0 42.6878 0 27.5Z" id="Mask" fill="none" fill-rule="evenodd" stroke="#006C76" stroke-width="2" />
      <g clip-path="url(#mask_1)">
        <g id="contact" transform="translate(8 15)">
          <path d="M0 0L35 0L35 35L0 35L0 0Z" id="Background" fill="none" fill-rule="evenodd" stroke="none" />
          <g clip-path="url(#mask_2)">
            <g id="Group" transform="translate(-3.0517578E-05 0.9367237)">
              <g id="Group">
                <g id="Group">
                  <path d="M26.6593 22.2983L20.7593 18.3649C20.4953 18.1907 20.1418 18.248 19.9466 18.4968L18.2286 20.7054C17.6718 21.431 16.667 21.6381 15.8687 21.1918L15.5511 21.0173C14.4052 20.3922 12.9786 19.6145 10.1468 16.7826C7.31486 13.9507 6.53655 12.5241 5.91201 11.3776L5.73697 11.06C5.29068 10.2619 5.49779 9.25724 6.22332 8.70073L8.43136 6.98219C8.68038 6.78705 8.73782 6.43341 8.56325 6.16949L4.63045 0.268782C4.45158 0.00102454 4.09419 -0.0795214 3.81775 0.0856045L1.34906 1.56593C0.819429 1.87505 0.429896 2.37706 0.261967 2.96686C-0.548826 5.91944 0.133216 11.0893 7.98562 18.9424C15.838 26.7955 21.0068 27.4788 23.9618 26.6673C24.5518 26.4992 25.0537 26.1094 25.3627 25.5795L26.8425 23.1109C27.008 22.8346 26.9274 22.477 26.6593 22.2983L26.6593 22.2983Z" transform="translate(0 6.1969967)" id="Shape" fill="#006C76" fill-rule="evenodd" stroke="none" />
                  <path d="M28.1428 0.0995756C28.0781 0.0348927 27.99 -0.0010042 27.8985 2.13881e-05L1.70497 2.13881e-05C1.61349 -0.00100426 1.52542 0.0348927 1.46074 0.0995756C1.39606 0.164258 1.36016 0.252326 1.36118 0.343812L1.36118 9.44468L2.8465 11.6727C3.38222 12.4821 3.20615 13.5672 2.44206 14.1658L0.235936 15.8843C-0.000232139 16.0635 -0.0688806 16.3889 0.0746387 16.6483L0.254671 16.9765C0.82868 18.0681 1.52884 19.0887 2.3408 20.0172L27.8985 20.0172C28.0861 20.0185 28.2396 19.8684 28.2424 19.6808L28.2424 0.343812C28.2434 0.252326 28.2075 0.164258 28.1428 0.0995756L28.1428 0.0995756ZM10.3814 11.4689L10.3814 11.4657L3.97743 18.3267C3.74194 18.5793 3.34632 18.5931 3.09381 18.3577C2.84124 18.1222 2.82742 17.7265 3.06284 17.474L9.46678 10.6162C9.70227 10.3636 10.0979 10.3498 10.3504 10.5852C10.603 10.8207 10.6169 11.2163 10.3814 11.4689L10.3814 11.4689ZM14.8017 10.9763C14.3512 10.9783 13.9123 10.8335 13.5514 10.5637L3.10283 2.6406C2.82769 2.43103 2.77449 2.03808 2.98406 1.76287C3.19363 1.48773 3.58658 1.43453 3.86179 1.6441L14.3061 9.56721C14.6017 9.78197 15.0019 9.78197 15.2976 9.56721L25.7449 1.6441C26.0201 1.43542 26.4123 1.4893 26.6211 1.76444C26.8298 2.03958 26.7759 2.43185 26.5007 2.6406L16.0521 10.5637C15.6912 10.8335 15.2523 10.9783 14.8017 10.9763L14.8017 10.9763ZM26.5495 18.3574C26.4283 18.4706 26.267 18.531 26.1011 18.5252C25.9353 18.5195 25.7786 18.4481 25.6655 18.3267L19.2622 11.4658C19.0446 11.2108 19.0669 10.8296 19.3126 10.6017C19.5583 10.3738 19.9401 10.3802 20.178 10.6162L26.5801 17.474C26.8155 17.7264 26.8018 18.1218 26.5495 18.3574L26.5495 18.3574Z" transform="translate(6.7576294 0)" id="Shape" fill="#006C76" fill-rule="evenodd" stroke="none" />
                </g>
              </g>
            </g>
          </g>
        </g>
      </g>
    </g>
  </g>
</svg>