<?xml version="1.0" encoding="utf-8"?>
<svg width="90px" height="50px" viewbox="0 0 90 50" version="1.1" xmlns:xlink="http://www.w3.org/1999/xlink" xmlns="http://www.w3.org/2000/svg">
  <defs>
    <rect width="90" height="50" id="artboard_1" />
    <clipPath id="clip_1">
      <use xlink:href="#artboard_1" clip-rule="evenodd" />
    </clipPath>
  </defs>
  <g id="Pixelbook" clip-path="url(#clip_1)">
    <g id="Request-RoadL" transform="translate(2 12)">
      <g id="ROAD---L" fill="#FF0000" transform="translate(0 3.1398735)">
        <path d="M20.934 17.552Q18.936 17.552 17.343 16.706Q15.75 15.86 14.841 14.366Q13.932 12.872 13.932 11Q13.932 9.128 14.841 7.634Q15.75 6.14 17.343 5.294Q18.936 4.448 20.934 4.448Q22.932 4.448 24.525 5.294Q26.118 6.14 27.027 7.634Q27.936 9.128 27.936 11Q27.936 12.872 27.027 14.366Q26.118 15.86 24.525 16.706Q22.932 17.552 20.934 17.552ZM6.768 13.952L4.824 13.952L4.824 17.3L1.26 17.3L1.26 4.7L7.02 4.7Q8.73 4.7 9.99 5.267Q11.25 5.834 11.934 6.887Q12.618 7.94 12.618 9.362Q12.618 10.73 11.979 11.747Q11.34 12.764 10.152 13.34L12.87 17.3L9.054 17.3L6.768 13.952ZM32.922 14.852L38.25 14.852L39.24 17.3L42.948 17.3L37.368 4.7L33.858 4.7L28.296 17.3L31.932 17.3L32.922 14.852ZM43.956 4.7L49.914 4.7Q51.984 4.7 53.586 5.474Q55.188 6.248 56.07 7.67Q56.952 9.092 56.952 11Q56.952 12.908 56.07 14.33Q55.188 15.752 53.586 16.526Q51.984 17.3 49.914 17.3L43.956 17.3L43.956 4.7ZM78.102 4.7L74.538 4.7L74.538 17.3L84.114 17.3L84.114 14.474L78.102 14.474L78.102 4.7ZM20.934 14.6Q21.888 14.6 22.662 14.15Q23.436 13.7 23.886 12.881Q24.336 12.062 24.336 11Q24.336 9.938 23.886 9.119Q23.436 8.3 22.662 7.85Q21.888 7.4 20.934 7.4Q19.98 7.4 19.206 7.85Q18.432 8.3 17.982 9.119Q17.532 9.938 17.532 11Q17.532 12.062 17.982 12.881Q18.432 13.7 19.206 14.15Q19.98 14.6 20.934 14.6ZM9.018 9.362Q9.018 8.48 8.46 7.994Q7.902 7.508 6.804 7.508L4.824 7.508L4.824 11.198L6.804 11.198Q7.902 11.198 8.46 10.721Q9.018 10.244 9.018 9.362ZM49.77 14.456Q51.39 14.456 52.371 13.538Q53.352 12.62 53.352 11Q53.352 9.38 52.371 8.462Q51.39 7.544 49.77 7.544L47.52 7.544L47.52 14.456L49.77 14.456ZM35.586 8.192L37.206 12.224L33.966 12.224L35.586 8.192Z" />
      </g>
      <g id="Alert" transform="translate(52.970703 0)">
        <path d="M5.79341 0C2.59434 0 0 2.436 0 5.43971L0 12.1773L5.79346 12.1773L5.79341 0Z" transform="translate(5.236328 7.822708)" id="Shape" fill="#F10909" fill-rule="evenodd" stroke="none" />
        <path d="M5.79329 5.43972C5.79329 2.436 3.19895 0 6.90619e-07 0L6.90619e-07 1.35918C2.39998 1.36217 4.34258 3.18621 4.34576 5.43972C4.34258 3.18621 2.39998 1.36217 6.90619e-07 1.35918L0 12.1773L5.79333 12.1773L5.79329 5.43972Z" transform="translate(11.029785 7.822708)" id="Shape" fill="#FF0000" fill-rule="evenodd" stroke="none" />
        <path d="M0.363503 6.12223C0.162903 6.12223 0 5.96927 0 5.78102L0 0.341203C0 0.152961 0.162903 0 0.363503 0C0.563981 0 0.726884 0.152961 0.726884 0.341203L0.726884 5.78102C0.726884 5.96927 0.563981 6.12223 0.363503 6.12223L0.363503 6.12223Z" transform="translate(10.666504 0)" id="Shape" fill="#FF5023" fill-rule="evenodd" stroke="#FF5023" stroke-width="1" />
        <path d="M3.26112 5.39212C3.1326 5.39212 3.01046 5.32742 2.94779 5.22146L0.0495605 0.511394C-0.0506782 0.349584 0.00562188 0.140656 0.177949 0.0465355C0.350277 -0.0475855 0.572784 0.00527854 0.673023 0.167088C0.673023 0.167088 0.676205 0.170076 0.676205 0.170076L3.57444 4.88313C3.67468 5.04494 3.61519 5.25387 3.44287 5.34799C3.38644 5.37741 3.32378 5.39212 3.26112 5.39212L3.26112 5.39212Z" transform="translate(4.510254 1.5480022)" id="Shape" fill="#FF5023" fill-rule="evenodd" stroke="#FF5023" stroke-width="1" />
        <path d="M5.38385 3.40246C5.32118 3.40246 5.25852 3.38775 5.2021 3.35833L0.182694 0.636986C0.0103662 0.542865 -0.0522983 0.336926 0.0479404 0.172128C0.148179 0.00744501 0.367505 -0.0485219 0.543015 0.0457139C0.543015 0.0457139 0.546074 0.048587 0.546074 0.048587L5.56548 2.76993C5.7378 2.86405 5.79741 3.07298 5.69717 3.23479C5.63132 3.33776 5.51224 3.40246 5.38385 3.40246L5.38385 3.40246Z" transform="translate(0 5.7794304)" id="Shape" fill="#FF5023" fill-rule="evenodd" stroke="#FF5023" stroke-width="1" />
        <path d="M0.363503 3.40333C0.163026 3.40333 0 3.25037 0 3.06213C0 2.94146 0.0690289 2.82964 0.181752 2.76793L5.20115 0.0465864C5.37348 -0.0476494 5.59599 0.00532949 5.69623 0.167139C5.79647 0.328949 5.74017 0.537876 5.56784 0.631997C5.56784 0.631997 5.56466 0.634985 5.56466 0.634985L0.545255 3.3592C0.488832 3.38862 0.426168 3.40333 0.363503 3.40333L0.363503 3.40333Z" transform="translate(16.3125 5.778572)" id="Shape" fill="#FF5023" fill-rule="evenodd" stroke="#FF5023" stroke-width="1" />
        <path d="M0.360367 5.39345C0.159767 5.39345 -0.00313628 5.24049 4.58968e-05 5.05213C4.58968e-05 4.99329 0.015712 4.93445 0.0470443 4.88159L2.94528 0.168416C3.04552 0.00660654 3.26802 -0.0492454 3.44035 0.0478634C3.61268 0.141984 3.66898 0.347924 3.57192 0.509734L0.673689 5.22279C0.611025 5.32875 0.491938 5.39644 0.360367 5.39345L0.360367 5.39345Z" transform="translate(13.9279785 1.5466833)" id="Shape" fill="#FF5023" fill-rule="evenodd" stroke="#FF5023" stroke-width="1" />
        <path d="M4.71232 4.76603C4.51184 4.76603 4.34882 4.61307 4.34882 4.42472C4.34576 2.35946 2.56288 0.685508 0.363381 0.68252C0.162903 0.68252 0 0.529559 0 0.341317C0 0.152961 0.162903 0 0.363381 0C2.96396 0.00298796 5.06946 1.97999 5.07264 4.42184C5.07582 4.61307 4.9128 4.76603 4.71232 4.76603L4.71232 4.76603Z" transform="translate(10.66333 8.837727)" id="Shape" fill="#FFFFFF" fill-rule="evenodd" stroke="#FFFFFF" stroke-width="0.5" />
      </g>
    </g>
  </g>
</svg>