<?xml version="1.0" encoding="utf-8"?>
<svg width="144px" height="24px" viewbox="0 0 144 24" version="1.1" xmlns:xlink="http://www.w3.org/1999/xlink" xmlns="http://www.w3.org/2000/svg">
  <g id="Request-RoadL" transform="translate(0.5 0.5)">
    <g id="REQUEST-R---ADL" transform="translate(0 2.0142822)">
      <g id="REQUEST" fill="#07737A">
        <path d="M32.864 16.464C33.6 16.464 34.24 16.16 34.784 15.568L35.744 16.72C35.008 17.584 34 18.048 32.816 18.048C31.296 18.048 30.16 17.456 28.512 15.728C25.376 15.456 23.12 13.104 23.12 10C23.12 6.688 25.68 4.24 29.152 4.24C32.624 4.24 35.184 6.672 35.184 10C35.184 12.704 33.488 14.816 30.992 15.52C31.632 16.208 32.208 16.464 32.864 16.464ZM64.208 15.76C67.28 15.76 68.736 14.224 68.736 12.432C68.736 8.32 62.096 9.872 62.096 7.488C62.096 6.64 62.8 5.968 64.528 5.968C65.504 5.968 66.608 6.256 67.616 6.848L68.272 5.232C67.296 4.592 65.888 4.24 64.544 4.24C61.472 4.24 60.032 5.776 60.032 7.584C60.032 11.744 66.688 10.16 66.688 12.576C66.688 13.408 65.952 14.032 64.208 14.032C62.832 14.032 61.408 13.52 60.512 12.8L59.792 14.416C60.72 15.216 62.464 15.76 64.208 15.76ZM11.072 15.6L8.496 11.92C10.016 11.328 10.88 10.08 10.88 8.384C10.88 5.904 9.056 4.4 6.112 4.4L1.504 4.4L1.504 15.6L3.584 15.6L3.584 12.336L6.112 12.336C6.256 12.336 6.4 12.336 6.544 12.32L8.832 15.6L11.072 15.6ZM15.28 13.856L15.28 10.768L20.688 10.768L20.688 9.056L15.28 9.056L15.28 6.144L21.376 6.144L21.376 4.4L13.2 4.4L13.2 15.6L21.6 15.6L21.6 13.856L15.28 13.856ZM42.208 15.76C45.264 15.76 47.104 13.984 47.104 10.72L47.104 4.4L45.056 4.4L45.056 10.64C45.056 12.944 44.032 13.936 42.224 13.936C40.416 13.936 39.376 12.944 39.376 10.64L39.376 4.4L37.296 4.4L37.296 10.72C37.296 13.984 39.136 15.76 42.208 15.76ZM52.096 10.768L52.096 13.856L58.416 13.856L58.416 15.6L50.016 15.6L50.016 4.4L58.192 4.4L58.192 6.144L52.096 6.144L52.096 9.056L57.504 9.056L57.504 10.768L52.096 10.768ZM75.152 15.6L73.072 15.6L73.072 6.16L69.36 6.16L69.36 4.4L78.864 4.4L78.864 6.16L75.152 6.16L75.152 15.6ZM29.152 6.064C26.896 6.064 25.216 7.712 25.216 10C25.216 12.288 26.896 13.936 29.152 13.936C31.408 13.936 33.088 12.288 33.088 10C33.088 7.712 31.408 6.064 29.152 6.064ZM8.784 8.384C8.784 9.792 7.84 10.624 6.016 10.624L3.584 10.624L3.584 6.16L6.016 6.16C7.84 6.16 8.784 6.976 8.784 8.384Z" />
      </g>
      <g id="R" fill="#FF0000">
        <path d="M94.416 15.6L91.84 11.92C93.36 11.328 94.224 10.08 94.224 8.384C94.224 5.904 92.4 4.4 89.456 4.4L84.848 4.4L84.848 15.6L86.928 15.6L86.928 12.336L89.456 12.336C89.6 12.336 89.744 12.336 89.888 12.32L92.176 15.6L94.416 15.6ZM92.128 8.384C92.128 9.792 91.184 10.624 89.36 10.624L86.928 10.624L86.928 6.16L89.36 6.16C91.184 6.16 92.128 6.976 92.128 8.384Z" />
      </g>
      <g id="AD" fill="#FF0000">
        <path d="M120.352 15.6L118.176 15.6L117.056 13.008L111.456 13.008L110.352 15.6L108.208 15.6L113.248 4.4L115.296 4.4L120.352 15.6ZM126.672 15.6L121.776 15.6L121.776 4.4L126.672 4.4C130.304 4.4 132.784 6.64 132.784 10C132.784 13.36 130.304 15.6 126.672 15.6ZM123.856 6.16L123.856 13.84L126.576 13.84C129.072 13.84 130.688 12.32 130.688 10C130.688 7.68 129.072 6.16 126.576 6.16L123.856 6.16ZM114.256 6.48L112.16 11.376L116.368 11.376L114.256 6.48Z" />
      </g>
      <g id="L" fill="#07737A">
        <path d="M134.992 15.6L142.928 15.6L142.928 13.84L137.072 13.84L137.072 4.4L134.992 4.4L134.992 15.6Z" />
      </g>
    </g>
    <g id="Alert" transform="translate(94.00006 0)">
      <path d="M3.93965 0C1.76421 0 0 2.40053 0 5.36051L0 12L3.93969 12L3.93965 0Z" transform="translate(3.5610352 5.6654053)" id="Shape" fill="#F10909" fill-rule="evenodd" stroke="none" />
      <path d="M3.93957 5.36052C3.93957 2.40053 2.17536 0 4.69637e-07 0L4.69637e-07 1.33939C1.63204 1.34234 2.95306 3.13982 2.95522 5.36052C2.95306 3.13982 1.63204 1.34234 4.69637e-07 1.33939L0 12L3.9396 12L3.93957 5.36052Z" transform="translate(7.5006714 5.6654053)" id="Shape" fill="#FF0000" fill-rule="evenodd" stroke="none" />
      <path d="M0.247191 4.43387C0.110778 4.43387 0 4.32309 0 4.18676L0 0.247107C0 0.110778 0.110778 0 0.247191 0C0.38352 0 0.494298 0.110778 0.494298 0.247107L0.494298 4.18676C0.494298 4.32309 0.38352 4.43387 0.247191 4.43387L0.247191 4.43387Z" transform="translate(7.253296 0)" id="Shape" fill="#FF5023" fill-rule="evenodd" stroke="#FF5023" stroke-width="1" />
      <path d="M2.21764 3.90511C2.13024 3.90511 2.04718 3.85825 2.00457 3.78151L0.0337023 0.370364C-0.0344624 0.253177 0.00382301 0.101867 0.12101 0.0337021C0.238196 -0.0344626 0.389507 0.00382285 0.457672 0.121009C0.457672 0.121009 0.459836 0.123173 0.459836 0.123173L2.4307 3.53648C2.49887 3.65367 2.45842 3.80498 2.34123 3.87315C2.30286 3.89445 2.26025 3.90511 2.21764 3.90511L2.21764 3.90511Z" transform="translate(3.0670776 1.1210938)" id="Shape" fill="#FF5023" fill-rule="evenodd" stroke="#FF5023" stroke-width="1" />
      <path d="M3.66114 2.46415C3.61853 2.46415 3.57592 2.45349 3.53755 2.43219L0.124236 0.461321C0.00704926 0.393156 -0.0355641 0.24401 0.0326006 0.124659C0.100765 0.00539186 0.249912 -0.0351407 0.369263 0.0331072C0.369263 0.0331072 0.371343 0.0351879 0.371343 0.0351879L3.78465 2.00605C3.90184 2.07422 3.94237 2.22553 3.87421 2.34272C3.82943 2.41729 3.74845 2.46415 3.66114 2.46415L3.66114 2.46415Z" transform="translate(0 4.185608)" id="Shape" fill="#FF5023" fill-rule="evenodd" stroke="#FF5023" stroke-width="1" />
      <path d="M0.247191 2.46478C0.110861 2.46478 0 2.354 0 2.21767C0 2.13028 0.0469412 2.0493 0.123595 2.00461L3.53691 0.033739C3.65409 -0.0345089 3.8054 0.00385975 3.87357 0.121046C3.94173 0.238233 3.90345 0.389544 3.78626 0.457708C3.78626 0.457708 3.7841 0.459872 3.7841 0.459872L0.370786 2.43282C0.332417 2.45413 0.289804 2.46478 0.247191 2.46478L0.247191 2.46478Z" transform="translate(11.092712 4.1849976)" id="Shape" fill="#FF5023" fill-rule="evenodd" stroke="#FF5023" stroke-width="1" />
      <path d="M0.245058 3.90607C0.108645 3.90607 -0.00213275 3.79529 3.1211e-05 3.65888C3.1211e-05 3.61626 0.0106845 3.57365 0.0319912 3.53537L2.00286 0.121971C2.07102 0.00478462 2.22233 -0.0356647 2.33952 0.0346639C2.45671 0.102829 2.49499 0.251975 2.42899 0.369162L0.458125 3.78247C0.415511 3.85921 0.334529 3.90823 0.245058 3.90607L0.245058 3.90607Z" transform="translate(9.4713745 1.1201477)" id="Shape" fill="#FF5023" fill-rule="evenodd" stroke="#FF5023" stroke-width="1" />
      <path d="M3.20449 3.45168C3.06816 3.45168 2.9573 3.3409 2.9573 3.20449C2.95522 1.70878 1.74282 0.496462 0.247107 0.494298C0.110778 0.494298 0 0.38352 0 0.247191C0 0.110778 0.110778 0 0.247107 0C2.01556 0.00216396 3.44735 1.43395 3.44951 3.20241C3.45168 3.3409 3.34082 3.45168 3.20449 3.45168L3.20449 3.45168Z" transform="translate(7.2512817 6.400482)" id="Shape" fill="#FFFFFF" fill-rule="evenodd" stroke="#FFFFFF" stroke-width="0.5" />
    </g>
  </g>
</svg>