<?xml version="1.0" encoding="utf-8"?>
<svg width="40px" height="40px" viewbox="0 0 40 40" version="1.1" xmlns:xlink="http://www.w3.org/1999/xlink" xmlns="http://www.w3.org/2000/svg">
  <defs>
    <path d="M0 0L40 0L40 40L0 40L0 0Z" id="path_1" />
    <rect width="40" height="40" id="artboard_1" />
    <clipPath id="clip_1">
      <use xlink:href="#artboard_1" clip-rule="evenodd" />
    </clipPath>
    <clipPath id="mask_1">
      <use xlink:href="#path_1" />
    </clipPath>
  </defs>
  <g id="Pixelbook" clip-path="url(#clip_1)">
    <g id="940046a67034939bd86774c98aadd192">
      <path d="M0 0L40 0L40 40L0 40L0 0Z" id="Background" fill="none" fill-rule="evenodd" stroke="none" />
      <g clip-path="url(#mask_1)">
        <g id="Group" transform="translate(0.3999939 4.335602)">
          <g id="Group">
            <path d="M0 1.2768L0 2.5536L0.5928 2.5536L1.1856 2.5536L1.1856 1.2768L1.1856 0L0.5928 0L0 0L0 1.2768L0 1.2768Z" transform="translate(25.5832 0)" id="Shape" fill="#006C76" fill-rule="evenodd" stroke="none" />
            <path d="M0.255703 0.474799C0.109702 0.739199 -0.00869873 0.957998 0.00050293 0.967198C0.00970215 0.976399 0.511304 1.2592 1.1041 1.5964C2.3173 2.2896 2.2257 2.2988 2.6273 1.5324L2.8005 1.1948L2.4993 1.0216C1.7969 0.592799 0.702503 0 0.620501 0C0.574902 0.000397949 0.410501 0.219199 0.255703 0.474799L0.255703 0.474799Z" transform="translate(21.141098 2.279601)" id="Shape" fill="#006C76" fill-rule="evenodd" stroke="none" />
            <path d="M1.03938 0.5564C0.510579 0.8572 0.0541797 1.14 0.0085791 1.1764C-0.0642236 1.2492 0.346177 2.052 0.491777 2.1432C0.592178 2.2072 2.68058 1.0216 2.68058 0.912C2.68058 0.756799 2.20618 0 2.10618 0C2.04258 0 1.56858 0.2552 1.03938 0.5564L1.03938 0.5564Z" transform="translate(28.465422 2.2799988)" id="Shape" fill="#006C76" fill-rule="evenodd" stroke="none" />
            <path d="M1.286 0.121106C0.528801 0.358307 0 1.08791 0 1.89951L0 2.35551L1.87 2.35551L3.7396 2.35551L3.7396 1.91791C3.7304 1.06071 3.1376 0.285107 2.3168 0.084707C1.8424 -0.0336938 1.7876 -0.0336938 1.286 0.121106L1.286 0.121106Z" transform="translate(24.306 3.8460922)" id="Shape" fill="#006C76" fill-rule="evenodd" stroke="none" />
            <path d="M2.5904 0.2096C1.5052 0.583601 0.7756 1.2312 0.2828 2.2708L0 2.8728L0 10.4428L0 18.0128L0.292 18.6056C0.912 19.8732 1.9884 20.6212 3.466 20.8312L3.84 20.886L3.9404 20.2112C4.2868 18.0224 6.0564 16.5084 8.2544 16.5084C10.4252 16.5084 12.2308 18.068 12.5592 20.2296L12.6688 20.8864L19.3268 20.868L25.994 20.8408L26.058 20.2936C26.1764 19.2356 26.6236 18.3784 27.4444 17.6304C28.3564 16.7912 29.3688 16.454 30.7188 16.536C31.4304 16.5724 31.6128 16.618 32.2784 16.9464C33.5916 17.6032 34.5584 18.9348 34.6772 20.248C34.7136 20.64 34.7776 20.8316 34.8688 20.868C34.9508 20.8952 35.3432 20.868 35.7444 20.8132C37.1308 20.6124 38.2432 19.8192 38.836 18.6152L39.128 18.0132L39.1552 15.888L39.1824 13.772L25.7744 13.772L12.3676 13.772L12.1212 13.5624C11.802 13.2888 11.7836 12.842 12.0756 12.5592L12.2764 12.3584L25.7384 12.3312L39.2004 12.3128L39.1456 11.784C39.0452 10.58 38.334 9.8776 36.9932 9.6316L36.3912 9.5224L34.1472 5.4176C31.7576 1.0396 31.5204 0.7024 30.6448 0.273601L30.1888 0.0456006L16.6904 0.0271997L3.192 0L2.5904 0.2096L2.5904 0.2096ZM29.35 2.3896C29.5596 2.5448 33.1532 9.3852 33.1532 9.622C33.1532 9.7316 33.1076 9.8592 33.0436 9.9228C32.8884 10.078 23.2936 10.078 23.1388 9.9228C23.0568 9.8408 23.0292 8.8832 23.0292 6.1924L23.0292 2.5624L23.23 2.4256C23.4032 2.298 23.8592 2.2796 26.3128 2.2796C28.4744 2.28 29.2312 2.3072 29.35 2.3896L29.35 2.3896ZM12.3584 3.8304L12.3584 5.0164L13.544 5.0164L14.7388 5.0164L14.7116 6.1748L14.6844 7.3424L13.526 7.3696L12.3676 7.3972L12.3404 8.5556L12.3132 9.714L11.1548 9.7412L9.9872 9.7684L9.9872 8.5736L9.9872 7.388L8.8016 7.388L7.616 7.388L7.616 6.2024L7.616 5.026L8.7836 4.9988L9.942 4.9716L9.9692 3.804L9.9968 2.6456L11.1732 2.6456L12.3588 2.6456L12.3588 3.8304L12.3584 3.8304ZM9.9868 12.4312C10.3516 12.6136 10.4976 12.96 10.3608 13.2976C10.1692 13.7628 9.996 13.7808 6.9864 13.7536L4.2228 13.7264L4.0496 13.5076C3.7304 13.1244 3.8764 12.5956 4.3416 12.4132C4.688 12.276 9.7044 12.2852 9.9868 12.4312L9.9868 12.4312Z" transform="translate(0 7.1139984)" id="Shape" fill="#006C76" fill-rule="evenodd" stroke="none" />
            <path d="M2.46665 0.104849C0.414648 0.770447 -0.588552 3.07805 0.359848 4.93885C0.642648 5.49525 1.37225 6.20645 1.95585 6.50765C2.43905 6.74485 2.56705 6.77205 3.39705 6.77205C4.24505 6.77205 4.35465 6.75365 4.92025 6.47125C7.50145 5.20325 7.51065 1.60085 4.92945 0.324048C4.43705 0.0868481 4.20905 0.0320483 3.59785 0.00484863C3.13265 -0.0139526 2.70385 0.0224487 2.46665 0.104849L2.46665 0.104849ZM3.98065 2.42125C4.29985 2.59445 4.62825 3.07805 4.62825 3.37885C4.62825 3.94445 4.04465 4.53725 3.47905 4.53725C3.14145 4.53725 2.62185 4.20885 2.46665 3.89885C2.19305 3.37005 2.46665 2.63125 3.01385 2.39405C3.40625 2.22045 3.61585 2.22965 3.98065 2.42125L3.98065 2.42125Z" transform="translate(4.811352 24.55715)" id="Shape" fill="#006C76" fill-rule="evenodd" stroke="none" />
            <path d="M2.5444 0.0859625C1.614 0.313963 0.7204 1.05276 0.264399 1.96476C0.0272021 2.45716 0 2.60316 0 3.42396C0 4.27236 0.0184009 4.38156 0.300801 4.94716C0.647202 5.65876 1.2128 6.20597 1.9608 6.56157C2.3984 6.77117 2.5808 6.79876 3.3744 6.79876C4.1768 6.79876 4.3504 6.77157 4.8064 6.55236C6.7216 5.65876 7.3784 3.24157 6.1836 1.48156C5.4172 0.359564 3.8848 -0.233237 2.5444 0.0859625L2.5444 0.0859625ZM4.058 2.53916C4.1856 2.63036 4.3408 2.87676 4.4136 3.07716C4.532 3.39637 4.532 3.49676 4.4136 3.79756C4.2584 4.20796 3.7844 4.56356 3.4012 4.56356C2.8084 4.56356 2.234 3.99796 2.234 3.42356C2.234 3.04956 2.544 2.57556 2.8996 2.41117C3.2556 2.25637 3.7388 2.31117 4.058 2.53916L4.058 2.53916Z" transform="translate(26.9972 24.530436)" id="Shape" fill="#006C76" fill-rule="evenodd" stroke="none" />
          </g>
        </g>
      </g>
    </g>
  </g>
</svg>