<?xml version="1.0" encoding="utf-8"?>
<!-- Generator: Adobe Illustrator 21.0.0, SVG Export Plug-In . SVG Version: 6.00 Build 0)  -->
<svg version="1.1" id="Layer_1" xmlns="http://www.w3.org/2000/svg" xmlns:xlink="http://www.w3.org/1999/xlink" x="0px" y="0px"
	 viewBox="0 0 15 16" style="enable-background:new 0 0 15 16;" xml:space="preserve">
<style type="text/css">
	.st0{fill:#007C88;}
</style>
<desc>Created with Lunacy</desc>
<g id="Group_1_" transform="translate(3.2142334 0)">
	<g id="Group">
		<path id="Shape" class="st0" d="M0.5,0C0.2,0,0,0.2,0,0.5v1.1h1.1V0.5C1.1,0.2,0.8,0,0.5,0L0.5,0z"/>
	</g>
</g>
<g id="Group_3_" transform="translate(10.714233 0)">
	<g id="Group_2_">
		<path id="Shape_1_" class="st0" d="M0.5,0C0.2,0,0,0.2,0,0.5v1.1h1.1V0.5C1.1,0.2,0.8,0,0.5,0L0.5,0z"/>
	</g>
</g>
<g id="Group_5_" transform="translate(0 1.6071777)">
	<g id="Group_4_">
		<path id="Shape_2_" class="st0" d="M13.4,0h-1.6v2.1c0,0.3-0.2,0.5-0.5,0.5s-0.5-0.2-0.5-0.5V0H4.3v2.1c0,0.3-0.2,0.5-0.5,0.5
			c-0.3,0-0.5-0.2-0.5-0.5V0H1.6C0.7,0,0,0.7,0,1.6v10.2c0,0.9,0.7,1.6,1.6,1.6h11.8c0.9,0,1.6-0.7,1.6-1.6V1.6
			C15,0.7,14.3,0,13.4,0L13.4,0z M13.9,11.8c0,0.3-0.2,0.5-0.5,0.5H1.6c-0.3,0-0.5-0.2-0.5-0.5v-7h12.9V11.8L13.9,11.8z"/>
	</g>
</g>
<g id="Group_7_" transform="translate(3.749878 7.500244)">
	<g id="Group_6_">
		<path id="Shape_3_" class="st0" d="M7.3,0.2c-0.2-0.2-0.5-0.2-0.8,0L2.7,4.1L0.9,2.3c-0.2-0.2-0.5-0.2-0.8,0
			c-0.2,0.2-0.2,0.5,0,0.8l2.1,2.1c0.2,0.2,0.5,0.2,0.8,0l4.3-4.3C7.6,0.7,7.6,0.4,7.3,0.2L7.3,0.2z"/>
	</g>
</g>
</svg>
