<?xml version="1.0" encoding="utf-8"?>
<svg width="15px" height="15px" viewbox="0 0 15 15" version="1.1" xmlns:xlink="http://www.w3.org/1999/xlink" xmlns="http://www.w3.org/2000/svg">
  <defs>
    <path d="M0 0L15 0L15 15L0 15L0 0L0 0L0 0Z" id="path_1" />
    <rect width="15" height="15" id="artboard_1" />
    <clipPath id="clip_1">
      <use xlink:href="#artboard_1" clip-rule="evenodd" />
    </clipPath>
    <clipPath id="mask_1">
      <use xlink:href="#path_1" />
    </clipPath>
  </defs>
  <g id="MacBook-Pro-15&quot;" clip-path="url(#clip_1)">
    <g id="smart-call-hover">
      <g id="smart-call">
        <g id="smartphone">
          <path d="M0 0L15 0L15 15L0 15L0 0L0 0L0 0Z" id="Background" fill="none" fill-rule="evenodd" stroke="none" />
          <g id="Mask-group">
            <path d="M0 0L15 0L15 15L0 15L0 0L0 0L0 0Z" id="path_1#1" fill="none" fill-rule="evenodd" stroke="none" />
            <g id="Mask-group">
              <path d="M0 0L15 0L15 15L0 15L0 0L0 0L0 0Z" id="path_1" fill="none" fill-rule="evenodd" stroke="none" />
              <g clip-path="url(#mask_1)">
                <g id="Group">
                  <g id="Group">
                    <g id="Group#1">
                      <path d="M0 0.439453C0 0.19675 0.19675 0 0.439453 0C0.682158 0 0.878904 0.19675 0.878904 0.439453C0.878904 0.682158 0.682158 0.878904 0.439453 0.878904C0.19675 0.878904 0 0.682158 0 0.439453L0 0.439453L0 0.439453Z" transform="translate(2.1972654 1.7578125)" id="Circle" fill="#FFFFFF" fill-rule="evenodd" stroke="none" />
                      <path d="M8.05668 0L1.61133 0C0.722838 0 0 0.722838 0 1.61133L0 13.3886C0 14.2772 0.722838 15 1.61133 15L8.05668 15C8.94516 15 9.66798 14.2772 9.66798 13.3886L9.66798 1.61133C9.66798 0.722838 8.94516 0 8.05668 0L8.05668 0L8.05668 0L8.05668 0ZM8.78904 13.3886C8.78904 13.7926 8.46048 14.1211 8.05668 14.1211L1.61133 14.1211C1.20747 14.1211 0.878904 13.7926 0.878904 13.3886L0.878904 13.2422L8.78904 13.2422L8.78904 13.3886L8.78904 13.3886L8.78904 13.3886ZM8.78904 12.3633L0.878904 12.3633L0.878904 1.61133C0.878904 1.20747 1.20747 0.878904 1.61133 0.878904L8.05668 0.878904C8.46048 0.878904 8.78904 1.20747 8.78904 1.61133L8.78904 12.3633L8.78904 12.3633L8.78904 12.3633Z" id="Shape" fill="#FFFFFF" fill-rule="evenodd" stroke="none" />
                      <path d="M0.439453 0.878904L1.61133 0.878904C1.85402 0.878904 2.05078 0.682152 2.05078 0.439453C2.05078 0.196758 1.85402 0 1.61133 0L0.439453 0C0.196758 0 0 0.196758 0 0.439453C0 0.682152 0.196758 0.878904 0.439453 0.878904L0.439453 0.878904L0.439453 0.878904L0.439453 0.878904Z" transform="translate(3.8085938 1.7578125)" id="Shape#1" fill="#FFFFFF" fill-rule="evenodd" stroke="none" />
                      <path d="M3.70898 2.66359C3.95326 2.38105 4.10156 2.01328 4.10156 1.61133C4.10156 0.722838 3.37872 0 2.49023 0C1.60175 0 0.878904 0.722838 0.878904 1.61133C0.878904 2.01328 1.02721 2.38105 1.27148 2.66359C0.5134 3.09097 0 3.90343 0 4.83398L0 5.12695C0 5.36965 0.196758 5.5664 0.439453 5.5664L4.54102 5.5664C4.78371 5.5664 4.98047 5.36965 4.98047 5.12695L4.98047 4.83398C4.98047 3.90343 4.46707 3.09097 3.70898 2.66359L3.70898 2.66359L3.70898 2.66359L3.70898 2.66359ZM2.49023 0.878904C2.89409 0.878904 3.22265 1.20747 3.22265 1.61133C3.22265 2.01518 2.89409 2.34375 2.49023 2.34375C2.08637 2.34375 1.75781 2.01518 1.75781 1.61133C1.75781 1.20747 2.08637 0.878904 2.49023 0.878904L2.49023 0.878904L2.49023 0.878904L2.49023 0.878904ZM0.885498 4.6875C0.959706 3.86737 1.65109 3.22265 2.49023 3.22265C3.32938 3.22265 4.02076 3.86737 4.09497 4.6875L0.885498 4.6875L0.885498 4.6875L0.885498 4.6875Z" transform="translate(2.3437498 3.8671875)" id="Shape#2" fill="#FFFFFF" fill-rule="evenodd" stroke="none" />
                      <path d="M4.54102 0L0.439453 0C0.196758 0 0 0.196758 0 0.439453C0 0.682153 0.196758 0.878904 0.439453 0.878904L4.54102 0.878904C4.78371 0.878904 4.98047 0.682153 4.98047 0.439453C4.98047 0.196758 4.78371 0 4.54102 0L4.54102 0L4.54102 0L4.54102 0Z" transform="translate(2.3437498 10.312499)" id="Shape#3" fill="#FFFFFF" fill-rule="evenodd" stroke="none" />
                      <path d="M0 0.439453C0 0.19675 0.196749 0 0.439453 0C0.682153 0 0.878904 0.19675 0.878904 0.439453C0.878904 0.682152 0.682153 0.878904 0.439453 0.878904C0.196749 0.878904 0 0.682152 0 0.439453L0 0.439453L0 0.439453Z" transform="translate(10.605468 2.5445213)" id="Circle#1" fill="#FFFFFF" fill-rule="evenodd" stroke="none" />
                      <path d="M0.750193 0.128705C0.578631 -0.0429164 0.300367 -0.042887 0.128716 0.128705C-0.042905 0.300326 -0.042905 0.57856 0.128716 0.75018C0.642733 1.26419 0.642733 2.10062 0.128716 2.61464C-0.042905 2.78626 -0.042905 3.06449 0.128716 3.23611C0.214527 3.32192 0.326998 3.36481 0.439438 3.36481C0.551881 3.36481 0.664381 3.32189 0.750163 3.23608C1.60686 2.37938 1.60686 0.985404 0.750193 0.128705L0.750193 0.128705L0.750193 0.128705L0.750193 0.128705Z" transform="translate(11.848432 1.3015685)" id="Shape#4" fill="#FFFFFF" fill-rule="evenodd" stroke="none" />
                      <path d="M0.750192 0.128716C0.578601 -0.0429054 0.300338 -0.0429054 0.128716 0.128716C-0.042905 0.300337 -0.042905 0.57857 0.128716 0.750192C0.709734 1.33117 1.02971 2.10367 1.02971 2.92537C1.02971 3.74705 0.709734 4.51955 0.128716 5.10055C-0.042905 5.27215 -0.042905 5.55045 0.128716 5.72205C0.214528 5.80785 0.326998 5.8508 0.439438 5.8508C0.551881 5.8508 0.66438 5.80785 0.750162 5.72205C1.4972 4.975 1.90862 3.98181 1.90862 2.92537C1.90862 1.86892 1.4972 0.87573 0.750192 0.128716L0.750192 0.128716L0.750192 0.128716L0.750192 0.128716Z" transform="translate(13.091381 0.058608517)" id="Shape#5" fill="#FFFFFF" fill-rule="evenodd" stroke="none" />
                    </g>
                  </g>
                </g>
              </g>
            </g>
          </g>
        </g>
      </g>
    </g>
  </g>
</svg>