<?xml version="1.0" encoding="utf-8"?>
<svg width="100px" height="100px" viewBox="0 0 100 100" version="1.1" xmlns:xlink="http://www.w3.org/1999/xlink" xmlns="http://www.w3.org/2000/svg">
  <desc>Created with Lunacy</desc>
  <defs>
    <path d="M0 0L100 0L100 100L0 100L0 0Z" id="path_1" />
    <clipPath id="mask_1">
      <use xlink:href="#path_1" />
    </clipPath>
  </defs>
  <g id="stay-home">
    <path d="M0 0L100 0L100 100L0 100L0 0Z" id="Background" fill="none" fill-rule="evenodd" stroke="none" />
    <g clip-path="url(#mask_1)">
      <g id="Group" transform="translate(3.125 3.1244278)">
        <path d="M90.625 31.25L90.625 28.125L45.3125 0L0 28.125L0 31.25L9.375 31.25L9.375 84.375L3.125 84.375L3.125 90.625L87.5 90.625L87.5 84.375L81.25 84.375L81.25 31.25L90.625 31.25Z" transform="translate(1.5625019 1.5630748)" id="Shape" fill="#79D8EB" fill-rule="evenodd" stroke="none" />
        <g id="Group">
          <path d="M0 14.1826L6.25 50.1201L29.6875 64.1826L53.125 50.1201L59.375 14.1826L29.9287 0L0 14.1826Z" transform="translate(17.1875 15.625572)" id="Shape" fill="#55E1B2" fill-rule="evenodd" stroke="none" />
          <path d="M4.94551 39.3055L0 10.8684L22.9348 0L45.4363 10.8379L40.4854 39.3055L22.7154 49.9674L4.94551 39.3055Z" transform="translate(24.159573 22.552137)" id="Shape" fill="#E8FAF8" fill-rule="evenodd" stroke="none" />
          <g id="Group" transform="translate(28.125002 26.683195)">
            <path d="M0 12.5L0 9.97754C0 8.63069 0.693828 7.37885 1.83595 6.66503L12.5 0L25 0L35.6641 6.66504C36.8062 7.37886 37.5 8.6307 37.5 9.97753L37.5 12.5L18.75 23.4375L0 12.5Z" transform="translate(0 29.687498)" id="Shape" fill="#FAC850" fill-rule="evenodd" stroke="none" />
            <g id="Group" transform="translate(10.9375 7.8125005)">
              <path d="M12.5 6.25L6.25 12.5L0 6.25L1.5625 0L10.9375 0L12.5 6.25Z" transform="translate(1.5625004 15.625)" id="Shape" fill="#FFD4CF" fill-rule="evenodd" stroke="none" />
              <path d="M15.625 0L0 0L0 10.6221C0 11.8086 0.539386 12.9309 1.46597 13.6722L5.37227 16.7973C6.79891 17.9386 8.82609 17.9386 10.2527 16.7973L14.159 13.6723C15.0856 12.931 15.625 11.8087 15.625 10.6221L15.625 0Z" id="Shape" fill="#FFD4CF" fill-rule="evenodd" stroke="none" />
              <path d="M7.8125 3.43457L0 0.000587106L0 3.11914C0 4.30571 0.539386 5.428 1.46597 6.1693L5.37227 9.29434C6.79891 10.4357 8.82609 10.4357 10.2527 9.29434L14.159 6.16934C15.0856 5.42805 15.625 4.30577 15.625 3.11914L15.625 0L7.8125 3.43457Z" transform="translate(0 7.5029297)" id="Shape" fill="#55E1B2" fill-rule="evenodd" stroke="none" />
            </g>
            <g id="Group" transform="translate(7.812501 0)">
              <path d="M0 10.9375L0 3.90625C0 1.74889 1.74889 0 3.90625 0L14.0625 0L14.0625 7.03125C14.0625 9.18861 12.3136 10.9375 10.1563 10.9375L0 10.9375Z" id="Shape" fill="#D76B4C" fill-rule="evenodd" stroke="none" />
              <path d="M6.25 6.25L0 6.25L0 0L4.77051 1.19277C5.6399 1.41008 6.24986 2.19116 6.25 3.0873L6.25 6.25Z" transform="translate(14.062503 1.5625001)" id="Shape" fill="#D76B4C" fill-rule="evenodd" stroke="none" />
            </g>
          </g>
          <g id="Group">
            <path d="M12.5 18.407L3.125 18.407L3.125 17.7137L27.3865 2.65508L25.7385 0L0.738477 15.5172C0.279353 15.8022 7.18981e-05 16.3042 3.72529e-07 16.8445L0 19.9695C0 20.8325 0.699555 21.532 1.5625 21.532L12.5 21.532L12.5 18.407Z" transform="translate(0 12.843543)" id="Shape" fill="#000000" fill-rule="evenodd" stroke="none" />
            <path d="M64.582 28.3599L19.2695 0.234949C18.7648 -0.0783164 18.1262 -0.0783164 17.6215 0.234949L0 11.1724L1.64863 13.8287L18.4455 3.40272L62.1955 30.5572L62.1955 31.2506L52.8205 31.2506L52.8205 34.3756L63.758 34.3756C64.621 34.3756 65.3205 33.676 65.3205 32.8131L65.3205 29.6881C65.3207 29.1474 65.0414 28.645 64.582 28.3599L64.582 28.3599Z" transform="translate(28.429493 0)" id="Shape" fill="#000000" fill-rule="evenodd" stroke="none" />
            <path d="M85.9375 46.875L81.25 46.875L81.25 0L78.125 0L78.125 46.875L9.375 46.875L9.375 0L6.25 0L6.25 46.875L1.5625 46.875C0.699555 46.875 0 47.5746 0 48.4375L0 54.6875C0 55.5504 0.699555 56.25 1.5625 56.25L15.625 56.25L15.625 53.125L3.125 53.125L3.125 50L84.375 50L84.375 53.125L18.75 53.125L18.75 56.25L85.9375 56.25C86.8004 56.25 87.5 55.5504 87.5 54.6875L87.5 48.4375C87.5 47.5746 86.8004 46.875 85.9375 46.875L85.9375 46.875Z" transform="translate(3.125002 37.500572)" id="Shape" fill="#000000" fill-rule="evenodd" stroke="none" />
            <path d="M44.5088 55.9679L46.1166 58.6476L55.4916 53.0226C55.8808 52.7891 56.1493 52.3978 56.2271 51.9505L62.4771 16.013C62.5968 15.3248 62.2451 14.6408 61.6158 14.3376L32.1695 0.15482C31.744 -0.0501603 31.2486 -0.0516683 30.8218 0.150718L0.893518 14.3333C0.258923 14.634 -0.0971034 15.3212 0.0232056 16.013L6.27321 51.9505C6.35101 52.3978 6.61948 52.7891 7.00875 53.0226L30.4462 67.0851C30.9411 67.382 31.5592 67.382 32.0541 67.0851L42.6711 60.715L41.0632 58.0353L31.2502 63.9232L14.0627 53.6107L14.0627 52.2853C14.0601 51.4765 14.477 50.7242 15.1642 50.2978L24.7736 44.2915L30.1447 49.6626C30.4377 49.9557 30.8352 50.1203 31.2496 50.1203C31.664 50.1203 32.0614 49.9557 32.3545 49.6626L37.7255 44.2915L47.3349 50.2978C48.0226 50.724 48.44 51.4763 48.4377 52.2853L48.4377 53.6107L44.5088 55.9679ZM21.8752 21.9952L21.8752 16.5265C21.8766 15.2328 22.9251 14.1843 24.2189 14.1827L32.8127 14.1827L32.8127 19.6515C32.8113 20.9452 31.7628 21.9938 30.469 21.9952L21.8752 21.9952ZM30.4689 25.1202C32.5809 25.1187 34.5037 23.9027 35.4103 21.9952L37.5002 21.9952L37.5002 27.1876L31.2502 29.6876L25.0002 27.1876L25.0002 25.1202L30.4689 25.1202ZM39.0627 18.8702L35.9377 18.8702L35.9377 16.1841L38.7668 16.8913C38.9406 16.9348 39.0626 17.091 39.0627 17.2702L39.0627 18.8702ZM25.0002 30.5531L30.6699 32.821C31.0424 32.97 31.4579 32.97 31.8304 32.821L37.5002 30.5531L37.5002 31.0548C37.5019 31.7671 37.1782 32.4411 36.6212 32.8849L32.715 36.0099C31.8606 36.6995 30.6408 36.6995 29.7865 36.0099L25.8802 32.8849C25.3228 32.4413 24.9987 31.7672 25.0002 31.0548L25.0002 30.5531ZM31.2502 46.3478L26.7306 41.8281L27.6181 38.2779L27.833 38.4503C29.8263 40.0594 32.6723 40.0594 34.6656 38.4503L34.8804 38.2779L35.7679 41.8281L31.2502 46.3478ZM48.9923 47.6474L38.8631 41.3165L37.5666 36.1304L38.5728 35.3253C39.8732 34.2899 40.6291 32.717 40.6252 31.0548L40.6252 21.9952C41.4881 21.9952 42.1877 21.2957 42.1877 20.4327L42.1877 17.2702C42.1893 15.6561 41.0906 14.2491 39.5245 13.8594L35.9377 12.9628L35.9377 12.6202C35.9377 11.7573 35.2381 11.0577 34.3752 11.0577L24.2189 11.0577C21.2 11.0612 18.7536 13.5076 18.7502 16.5265L18.7502 23.5577C18.7502 24.4207 19.4497 25.1202 20.3127 25.1202L21.8752 25.1202L21.8752 31.0548C21.8713 32.717 22.6272 34.2898 23.9275 35.3252L24.9338 36.1302L23.6373 41.3163L13.508 47.6478C12.0653 48.5429 11.1238 50.0609 10.9632 51.7511L9.22946 50.7109L3.30563 16.6484L31.4861 3.29427L59.1961 16.6408L53.2709 50.7109L51.5371 51.7511C51.3765 50.0609 50.4351 48.5429 48.9923 47.6478L48.9923 47.6474Z" transform="translate(15.624836 14.062941)" id="Shape" fill="#000000" fill-rule="evenodd" stroke="none" />
            <path d="M0 0L3.125 0L3.125 3.125L0 3.125L0 0Z" transform="translate(65.62499 32.933193)" id="Shape" fill="#000000" fill-rule="evenodd" stroke="none" />
            <path d="M0 0L3.125 0L3.125 3.125L0 3.125L0 0Z" transform="translate(65.62499 39.183193)" id="Shape" fill="#000000" fill-rule="evenodd" stroke="none" />
            <path d="M0 0L3.125 0L3.125 3.125L0 3.125L0 0Z" transform="translate(62.499996 36.058193)" id="Shape" fill="#000000" fill-rule="evenodd" stroke="none" />
            <path d="M0 0L3.125 0L3.125 3.125L0 3.125L0 0Z" transform="translate(68.74999 36.058193)" id="Shape" fill="#000000" fill-rule="evenodd" stroke="none" />
            <path d="M0 0L3.125 0L3.125 3.125L0 3.125L0 0Z" transform="translate(26.562502 42.308193)" id="Shape" fill="#000000" fill-rule="evenodd" stroke="none" />
            <path d="M0 0L3.125 0L3.125 3.125L0 3.125L0 0Z" transform="translate(26.562502 48.55819)" id="Shape" fill="#000000" fill-rule="evenodd" stroke="none" />
            <path d="M0 0L3.125 0L3.125 3.125L0 3.125L0 0Z" transform="translate(23.437502 45.43319)" id="Shape" fill="#000000" fill-rule="evenodd" stroke="none" />
            <path d="M0 0L3.125 0L3.125 3.125L0 3.125L0 0Z" transform="translate(29.687502 45.43319)" id="Shape" fill="#000000" fill-rule="evenodd" stroke="none" />
          </g>
        </g>
      </g>
    </g>
  </g>
</svg>