<?xml version="1.0" encoding="utf-8"?>
<svg width="15px" height="15px" viewbox="0 0 15 15" version="1.1" xmlns:xlink="http://www.w3.org/1999/xlink" xmlns="http://www.w3.org/2000/svg">
  <defs>
    <path d="M0 0L15 0L15 15L0 15L0 0Z" id="path_1" />
    <clipPath id="mask_1">
      <use xlink:href="#path_1" />
    </clipPath>
  </defs>
  <g id="blood-test">
    <path d="M0 0L15 0L15 15L0 15L0 0Z" id="Background" fill="none" fill-rule="evenodd" stroke="none" />
    <g clip-path="url(#mask_1)">
      <path d="M0 3.02044L1.23161 3.02044L3.25516 1.93268L4.69208 0C5.41523 0.32135 5.73109 1.17577 5.39085 1.89022L4.81064 3.10844L9.53075 3.10844C9.93565 3.10844 10.2639 3.43666 10.2639 3.84155C10.2639 4.24644 9.93565 4.57478 9.53075 4.57478L7.01797 4.57478L7.01797 5.89439L6.69331 5.89439L6.69331 7.1553L6.0442 7.1553L6.0442 8.38703L2.70092 8.38703L0.850639 7.59521L0 7.59521L0 3.02044Z" transform="translate(3.8711548 2.0009995)" id="Shape" fill="#F7E0BA" fill-rule="evenodd" stroke="none" />
      <path d="M0 0L3.87096 0L3.87096 5.45448L0 5.45448L0 0Z" transform="translate(0 4.581642)" id="Shape" fill="#F8E868" fill-rule="evenodd" stroke="none" />
      <path d="M1.46625 0L0.228573 1.91322C-0.387119 2.86491 0.313374 4.10557 1.46625 4.10557C2.61924 4.10557 3.31962 2.86491 2.70405 1.91322L1.46625 0Z" transform="translate(11.847382 8.9217)" id="Shape" fill="#E46A4A" fill-rule="evenodd" stroke="none" />
      <path d="M1.17302 0.58651C1.17302 0.910378 0.910492 1.17302 0.58651 1.17302C0.262642 1.17302 0 0.910378 0 0.58651C0 0.262642 0.262642 0 0.58651 0C0.910492 0 1.17302 0.262642 1.17302 0.58651L1.17302 0.58651Z" transform="translate(1.8180847 5.4613495)" id="Shape" fill="#FFFFFF" fill-rule="evenodd" stroke="none" />
      <path d="M0 0L3.87096 0L3.87096 0.879822L0 0.879822L0 0Z" transform="translate(0 9.156303)" id="Shape" fill="#E0C938" fill-rule="evenodd" stroke="none" />
      <path d="M2.88116 0.791702L1.031 0L0 0L0 0.879707L0.850639 0.879707L2.70092 1.67152L6.0442 1.67152L6.0442 0.791702L2.88116 0.791702Z" transform="translate(3.8711548 8.716507)" id="Shape" fill="#F5CC89" fill-rule="evenodd" stroke="none" />
      <path d="M1.46621 0.990944C0.7822 0.990944 0.257373 0.554123 0.0723222 0C-0.227971 0.88726 0.439792 1.87065 1.46621 1.87065C2.49263 1.87065 3.1604 0.88726 2.86022 0C2.67517 0.554123 2.15034 0.990944 1.46621 0.990944L1.46621 0.990944Z" transform="translate(11.847382 11.156616)" id="Shape" fill="#DB380E" fill-rule="evenodd" stroke="none" />
      <path d="M6.24252 0.953064C6.24252 0.427551 5.81497 0 5.28946 0L4.08543 0L4.08543 0.439911L5.28946 0.439911C5.57247 0.439911 5.80273 0.670166 5.80273 0.953064C5.80273 1.23608 5.57247 1.46633 5.28946 1.46633L0.533867 1.46633L0.533867 1.90613L2.55672 1.90613L2.55672 2.78595L0.533867 2.78595L0.533867 3.22586L2.23217 3.22586L2.23217 4.04697L0.533867 4.04697L0.533867 4.48677L1.58295 4.48677L1.58295 5.27859L0 5.27859L0 5.7185L2.02274 5.7185L2.02274 4.48677L2.67197 4.48677L2.67197 3.22586L2.99652 3.22586L2.99652 1.90613L5.28946 1.90613C5.81497 1.90613 6.24252 1.47869 6.24252 0.953064L6.24252 0.953064Z" transform="translate(8.112335 4.889488)" id="Shape" fill="#000000" fill-rule="evenodd" stroke="none" />
      <path d="M4.76669 7.64774L4.09092 7.64774L4.09092 3.51288L5.15797 3.51288L7.27341 2.37579L8.62678 0.555382C8.96679 0.770874 9.17885 1.14853 9.17885 1.55891C9.17885 1.73573 9.13994 1.90704 9.06315 2.06818L8.33324 3.60088L11.7578 3.60088L11.7578 3.16097L9.02996 3.16097L9.46026 2.25735C9.56543 2.03671 9.61876 1.80164 9.61876 1.55891C9.61876 0.916328 9.23939 0.332451 8.6523 0.0715256L8.49152 0L6.97872 2.03476L5.04719 3.07308L4.09092 3.07308L4.09092 2.63317L0 2.63317L0 3.07308L3.65101 3.07308L3.65101 8.08765L0 8.08765L0 8.52757L4.09092 8.52757L4.09092 8.08765L4.67651 8.08765L6.52668 8.87947L7.67235 8.87947L7.67235 8.43956L6.61686 8.43956L4.76669 7.64774Z" transform="translate(0 1.7285156)" id="Shape" fill="#000000" fill-rule="evenodd" stroke="none" />
      <path d="M0 0L0.439796 0L0.439796 0.439911L0 0.439911L0 0Z" transform="translate(13.093872 7.470131)" id="Shape" fill="#000000" fill-rule="evenodd" stroke="none" />
      <path d="M3.10856 2.19875L2.91664 1.90201L2.54734 2.14096L2.73926 2.43759C2.86755 2.63592 2.93255 2.8513 2.93255 3.078C2.93255 3.66119 2.45602 4.29062 1.68617 4.29062C0.916328 4.29062 0.439911 3.66119 0.439911 3.078C0.439911 2.85461 0.506744 2.63317 0.633202 2.43759L1.68617 0.809898L2.30839 1.77166L2.67769 1.53271L1.68617 0L0.263901 2.19875C0.0912094 2.46552 0 2.76958 0 3.078C0 3.98918 0.756454 4.73042 1.68617 4.73042C2.616 4.73042 3.37246 3.98918 3.37246 3.078C3.37246 2.76958 3.28125 2.46552 3.10856 2.19875L3.10856 2.19875Z" transform="translate(11.627502 8.516808)" id="Shape" fill="#000000" fill-rule="evenodd" stroke="none" />
      <path d="M1.61282 0.806465C1.61282 0.361862 1.25107 0 0.806351 0C0.361748 0 0 0.361862 0 0.806465C0 1.25118 0.361748 1.61293 0.806351 1.61293C1.25107 1.61293 1.61282 1.25118 1.61282 0.806465L1.61282 0.806465ZM0.439796 0.806465C0.439796 0.604362 0.604248 0.439911 0.806351 0.439911C1.00857 0.439911 1.17302 0.604362 1.17302 0.806465C1.17302 1.00857 1.00857 1.17302 0.806351 1.17302C0.604248 1.17302 0.439796 1.00857 0.439796 0.806465L0.439796 0.806465Z" transform="translate(1.5983582 5.241394)" id="Shape" fill="#000000" fill-rule="evenodd" stroke="none" />
      <g id="Group" transform="translate(1.3931274 8.936462)">
        <path d="M1.31962 0.439796L0.879707 0.439796L0.879707 0L1.31962 0L1.31962 0.439796ZM0.439911 0.439796L0 0.439796L0 0L0.439911 0L0.439911 0.439796Z" id="Shape" fill="#FFFFFF" fill-rule="evenodd" stroke="none" />
        <path d="M0 0.238953L0.369301 0L0.838509 0.725327L0.469208 0.964165L0 0.238953Z" transform="translate(11.794739 1.5758514)" id="Shape" fill="#FFFFFF" fill-rule="evenodd" stroke="none" />
      </g>
    </g>
  </g>
</svg>