<?xml version="1.0" encoding="utf-8"?>
<svg width="150px" height="150px" viewbox="0 0 150 150" version="1.1" xmlns:xlink="http://www.w3.org/1999/xlink" xmlns="http://www.w3.org/2000/svg">
  <defs>
    <path d="M0 0L150 0L150 150L0 150L0 0Z" id="path_1" />
    <clipPath id="mask_1">
      <use xlink:href="#path_1" />
    </clipPath>
  </defs>
  <g id="clipboard">
    <path d="M0 0L150 0L150 150L0 150L0 0Z" id="Background" fill="none" fill-rule="evenodd" stroke="none" />
    <g clip-path="url(#mask_1)">
      <path d="M12.5 121.875C5.60625 121.875 0 116.269 0 109.375L0 12.5C0 5.60625 5.60625 0 12.5 0L90.625 0C97.5188 0 103.125 5.60625 103.125 12.5L103.125 109.375C103.125 116.269 97.5188 121.875 90.625 121.875L12.5 121.875Z" transform="translate(23.4375 23.4375)" id="Shape" fill="#CFD8DC" fill-rule="evenodd" stroke="none" />
      <path d="M6.25 28.125C2.80625 28.125 0 25.325 0 21.875L0 12.5L13.5687 12.5L14.5375 9.09375C16.05 3.74375 21 0 26.5625 0C32.125 0 37.075 3.74375 38.5875 9.09375L39.5562 12.5L53.125 12.5L53.125 21.875C53.125 25.325 50.3187 28.125 46.875 28.125L6.25 28.125Z" transform="translate(48.4375 4.6875)" id="Shape" fill="#607D8B" fill-rule="evenodd" stroke="none" />
      <path d="M23.4375 65.625C10.5125 65.625 0 54.9188 0 41.7625C0 29.9438 15.3313 9.28125 23.4375 0C31.5438 9.275 46.875 29.9438 46.875 41.7625C46.875 54.9188 36.3625 65.625 23.4375 65.625L23.4375 65.625Z" transform="translate(51.5625 54.650024)" id="Shape" fill="#F44336" fill-rule="evenodd" stroke="none" />
      <path d="M95.3125 131.25L17.1875 131.25C7.70625 131.25 0 123.544 0 114.063L0 17.1875C0 7.70625 7.70625 0 17.1875 0L28.125 0C30.7125 0 32.8125 2.1 32.8125 4.6875C32.8125 7.275 30.7125 9.375 28.125 9.375L17.1875 9.375C12.8812 9.375 9.375 12.8812 9.375 17.1875L9.375 114.063C9.375 118.369 12.8812 121.875 17.1875 121.875L95.3125 121.875C99.6187 121.875 103.125 118.369 103.125 114.063L103.125 17.1875C103.125 12.8812 99.6187 9.375 95.3125 9.375L84.375 9.375C81.7875 9.375 79.6875 7.275 79.6875 4.6875C79.6875 2.1 81.7875 0 84.375 0L95.3125 0C104.794 0 112.5 7.70625 112.5 17.1875L112.5 114.063C112.5 123.544 104.794 131.25 95.3125 131.25L95.3125 131.25Z" transform="translate(18.75 18.75)" id="Shape" fill="#000000" fill-rule="evenodd" stroke="none" />
      <path d="M51.5625 37.5L10.9375 37.5C4.90625 37.5 0 32.5938 0 26.5625L0 17.1875C0 14.6 2.1 12.5 4.6875 12.5L14.7125 12.5C16.7563 5.29375 23.4 0 31.25 0C39.1 0 45.7438 5.29375 47.7875 12.5L57.8125 12.5C60.4 12.5 62.5 14.6 62.5 17.1875L62.5 26.5625C62.5 32.5938 57.5938 37.5 51.5625 37.5L51.5625 37.5ZM9.375 21.875L9.375 26.5625C9.375 27.425 10.075 28.125 10.9375 28.125L51.5625 28.125C52.425 28.125 53.125 27.425 53.125 26.5625L53.125 21.875L43.75 21.875C41.1625 21.875 39.0625 19.775 39.0625 17.1875C39.0625 12.8812 35.5563 9.375 31.25 9.375C26.9438 9.375 23.4375 12.8812 23.4375 17.1875C23.4375 19.775 21.3375 21.875 18.75 21.875L9.375 21.875Z" transform="translate(43.75 0)" id="Shape" fill="#000000" fill-rule="evenodd" stroke="none" />
      <path d="M28.125 74.9219C12.6188 74.9219 0 62.1094 0 46.3719C0 30.1719 22.075 4.40938 24.5937 1.52813C26.375 -0.509375 29.875 -0.509375 31.6562 1.52813C34.175 4.40938 56.25 30.1719 56.25 46.3719C56.25 62.1094 43.6312 74.9219 28.125 74.9219L28.125 74.9219ZM28.125 11.9406C20.825 21.0531 9.375 37.2844 9.375 46.3719C9.375 56.9469 17.7875 65.5469 28.125 65.5469C38.4625 65.5469 46.875 56.9469 46.875 46.3719C46.875 37.2844 35.425 21.0531 28.125 11.9406L28.125 11.9406Z" transform="translate(46.875 50.07811)" id="Shape" fill="#000000" fill-rule="evenodd" stroke="none" />
    </g>
  </g>
</svg>