<?xml version="1.0" encoding="utf-8"?>
<svg width="150px" height="150px" viewbox="0 0 150 150" version="1.1" xmlns:xlink="http://www.w3.org/1999/xlink" xmlns="http://www.w3.org/2000/svg">
  <defs>
    <path d="M0 0L150 0L150 150L0 150L0 0Z" id="path_1" />
    <clipPath id="mask_1">
      <use xlink:href="#path_1" />
    </clipPath>
  </defs>
  <g id="tuberculosis">
    <path d="M0 0L150 0L150 150L0 150L0 0Z" id="Background" fill="none" fill-rule="evenodd" stroke="none" />
    <g clip-path="url(#mask_1)">
      <g id="Group" transform="translate(0 4.6875)">
        <path d="M38.0701 17.5781L38.0701 0L29.2811 0L20.492 0L20.492 17.5781C20.492 29.736 11.8746 40.5463 0 43.28L2.12871 60.7808C12.9478 58.7552 22.5908 52.6869 29.2814 43.7048C35.354 51.8543 43.6409 57.515 53.2538 60.0683L57.6741 43.0781C46.1297 40.0787 38.0701 29.5901 38.0701 17.5781L38.0701 17.5781Z" transform="translate(45.71894 0)" id="Shape" fill="#FFBB99" fill-rule="evenodd" stroke="none" />
        <path d="M23.9725 60.0686L28.3928 43.0784C16.8486 40.0787 8.78906 29.5901 8.78906 17.5781L8.78906 0L0 0L0 43.7051C6.07266 51.8546 14.3596 57.515 23.9725 60.0686L23.9725 60.0686Z" transform="translate(74.99999 0)" id="Shape" fill="#FF9680" fill-rule="evenodd" stroke="none" />
        <g id="Group" transform="translate(88.18359 26.367188)">
          <path d="M48.3398 114.258C21.6852 114.258 0 92.5726 0 65.918L0 13.1836C0 5.91387 5.91387 0 13.1836 0C39.8382 0 61.8164 21.6853 61.8164 48.3398L61.8164 101.074C61.8164 108.344 55.6096 114.258 48.3398 114.258L48.3398 114.258Z" id="Shape" fill="#F25A3C" fill-rule="evenodd" stroke="none" />
        </g>
        <g id="Group" transform="translate(105.76172 70.3125)">
          <path d="M13.1836 26.3672C5.91387 26.3672 0 20.4533 0 13.1836C0 5.91387 5.91387 0 13.1836 0C20.4533 0 26.3672 5.91387 26.3672 13.1836L17.5781 13.1836C17.5781 10.759 15.6082 8.78906 13.1836 8.78906C10.759 8.78906 8.78906 10.759 8.78906 13.1836C8.78906 15.6082 10.759 17.5781 13.1836 17.5781L13.1836 26.3672Z" id="Shape" fill="#D94141" fill-rule="evenodd" stroke="none" />
        </g>
        <path d="M61.8164 13.1836C61.8164 12.034 61.6222 10.9386 61.3444 9.8748L55.684 10.5264L52.7581 0.725976C51.4523 0.291795 50.0824 0 48.6328 0C21.9782 0 0 21.6853 0 48.3398L0 101.074C0 108.344 6.20684 114.258 13.4766 114.258C28.1065 114.258 41.211 107.7 50.0827 97.3986L44.2383 92.0481L55.3872 89.9057C59.4545 82.8278 61.8164 74.6508 61.8164 65.918L61.8164 65.4358L53.0273 60.9768L61.8164 56.5591L61.8164 13.1836Z" transform="translate(0 26.367188)" id="Shape" fill="#FF7F40" fill-rule="evenodd" stroke="none" />
        <g id="Group" transform="translate(15.600874 27.092869)">
          <path d="M30.1696 22.1054C27.3114 25.9163 23.7167 28.8639 19.7004 30.9519L15.6255 22.7962L7.76338 26.7272L11.3156 33.8367C8.04551 34.4499 4.64707 34.6049 1.18447 34.1303L0 42.842C14.5436 44.8107 28.706 38.705 37.1991 27.3797C41.2813 21.9369 43.7218 15.6847 44.6191 9.14912C43.4915 4.82695 40.2401 1.39863 36.0328 0C36.9621 7.91894 35.0235 15.6319 30.1696 22.1054L30.1696 22.1054Z" transform="translate(1.1241227 0)" id="Shape" fill="#F25A3C" fill-rule="evenodd" stroke="none" />
          <path d="M19.8483 12.9466L19.8483 0L11.0593 0L11.0593 10.0163L2.78086 7.25683L0 15.5909L34.4818 27.0858C36.4784 24.7679 38.2523 22.2615 39.786 19.5929L19.8483 12.9466Z" transform="translate(0 69.58682)" id="Shape" fill="#F25A3C" fill-rule="evenodd" stroke="none" />
          <path d="M5.09824 8.9407e-06L0 7.1584C8.89043 13.4921 19.4423 16.118 29.7876 15.0533L29.7876 6.17696C21.237 7.27999 12.4603 5.23887 5.09824 0L5.09824 8.9407e-06Z" transform="translate(16.428223 49.657024)" id="Shape" fill="#F25A3C" fill-rule="evenodd" stroke="none" />
        </g>
        <g id="Group" transform="translate(105.76172 52.734375)">
          <path d="M0 0L8.78906 0L8.78906 8.78906L0 8.78906L0 0Z" id="Shape" fill="#D94141" fill-rule="evenodd" stroke="none" />
        </g>
        <g id="Group" transform="translate(114.55078 105.46875)">
          <path d="M0 0L8.78906 0L8.78906 8.78906L0 8.78906L0 0Z" id="Shape" fill="#D94141" fill-rule="evenodd" stroke="none" />
        </g>
        <g id="Group" transform="translate(123.33984 96.67969)">
          <path d="M0 0L8.78906 0L8.78906 8.78906L0 8.78906L0 0Z" id="Shape" fill="#D94141" fill-rule="evenodd" stroke="none" />
        </g>
      </g>
    </g>
  </g>
</svg>