<?xml version="1.0" encoding="utf-8"?>
<svg width="30px" height="30px" viewbox="0 0 30 30" version="1.1" xmlns:xlink="http://www.w3.org/1999/xlink" xmlns="http://www.w3.org/2000/svg">
  <defs>
    <path d="M0 0L18.7482 0L18.7482 18.7248L0 18.7248L0 0Z" id="path_1" />
    <clipPath id="mask_1">
      <use xlink:href="#path_1" />
    </clipPath>
  </defs>
  <g id="update">
    <g id="Group">
      <g id="Group">
        <g id="Group">
          <path d="M14.9798 0C14.3334 0 13.8095 0.52457 13.8095 1.1717C13.8095 1.81883 14.3334 2.3434 14.9798 2.3434C21.9651 2.3434 27.6189 8.00317 27.6189 14.9977C27.6189 21.9915 21.9659 27.6521 14.9798 27.6521C7.99439 27.6521 2.34059 21.9923 2.34059 14.9977C2.34059 14.3506 1.81665 13.826 1.17029 13.826C0.52394 13.826 0 14.3506 0 14.9977C0 23.2865 6.69975 29.9955 14.9798 29.9955C23.2586 29.9955 29.9595 23.2877 29.9595 14.9977C29.9595 6.70897 23.2598 0 14.9798 0L14.9798 0Z" transform="matrix(-4.371139E-08 1 -1 -4.371139E-08 29.995483 0.037475586)" id="Shape" fill="#006C76" fill-rule="evenodd" stroke="none" />
          <g id="edit" transform="translate(11.25177 0)">
            <path d="M0 0L18.7482 0L18.7482 18.7248L0 18.7248L0 0Z" id="Background" fill="none" fill-rule="evenodd" stroke="none" />
            <g clip-path="url(#mask_1)">
              <g id="Group" transform="translate(0 2)">
                <g id="Group">
                  <path d="M5.78989 13.7828C5.57825 13.7828 5.3664 13.7022 5.20545 13.5403L0.242339 8.57836C-0.0807798 8.25512 -0.0807798 7.73139 0.242339 7.40834C0.565459 7.0853 1.08932 7.0853 1.41243 7.40834L5.7911 11.786L17.3374 0.242281C17.6607 -0.0807603 18.1845 -0.0807603 18.5077 0.242281C18.8308 0.565322 18.8308 1.08905 18.5077 1.41209L6.37555 13.5413C6.21338 13.7022 6.00174 13.7828 5.78989 13.7828L5.78989 13.7828Z" id="Shape-2" fill="#006C76" fill-rule="evenodd" stroke="none" />
                </g>
              </g>
            </g>
          </g>
        </g>
      </g>
    </g>
  </g>
</svg>