<?xml version="1.0" encoding="utf-8"?>
<svg width="64px" height="64px" viewbox="0 0 64 64" version="1.1" xmlns:xlink="http://www.w3.org/1999/xlink" xmlns="http://www.w3.org/2000/svg">
  <defs>
    <rect width="64" height="64" id="artboard_1" />
    <clipPath id="clip_1">
      <use xlink:href="#artboard_1" clip-rule="evenodd" />
    </clipPath>
  </defs>
  <g id="Pixelbook" clip-path="url(#clip_1)">
    <g id="Group" transform="translate(10 10)">
      <g id="ancient-scroll">
        <path d="M39.3594 32.7519L39.3594 14.0652C39.3594 13.7903 39.2278 13.5318 39.0056 13.37L36.884 11.8275L38.5544 10.7835C38.7941 10.6338 38.9448 10.3756 38.9576 10.0933C38.97 9.81097 38.8431 9.54041 38.6178 9.36987L37.0676 8.19528L37.0676 7.64844L38.5 7.64844C38.9747 7.64844 39.3594 7.26373 39.3594 6.78906L39.3594 5.07031C39.3594 2.27466 37.0847 0 34.2891 0L4.98438 0C4.97565 0 4.96759 0.00100708 4.9592 0.00134277C4.93939 0.00100708 4.92026 0 4.90045 0C3.54727 0 2.2901 0.668366 1.36057 1.88223C0.483063 3.02795 0 4.53857 0 6.1358C0 9.00732 1.87955 11.3438 4.18979 11.3438L8.94421 11.3438L8.94421 24.9648C8.94421 25.2562 9.09158 25.5275 9.33597 25.6859L11.0208 26.7783L9.2309 28.3775C9.04861 28.5403 8.94421 28.7736 8.94421 29.0183L8.94421 36.466C8.94421 36.5124 8.94891 36.5577 8.95596 36.602C8.94891 36.6466 8.94421 36.692 8.94421 36.7383C8.94421 38.9247 9.50885 40.7649 10.5767 42.06C11.6083 43.3108 13.0753 44 14.7071 44L38.3281 44C41.4558 44 44 41.4558 44 38.3281C44 35.5529 41.9959 33.2383 39.3594 32.7519L39.3594 32.7519ZM7.05325 9.625C7.30637 9.14798 7.44971 8.59744 7.44971 8.00595C7.44971 6.02469 6.16635 4.64063 4.32843 4.64063C3.85376 4.64063 3.46906 5.02533 3.46906 5.5C3.46906 5.97467 3.85376 6.35938 4.32843 6.35938C5.2066 6.35938 5.73096 6.97504 5.73096 8.00595C5.73096 9.05768 4.93671 9.625 4.18979 9.625C2.85037 9.625 1.71875 8.0271 1.71875 6.1358C1.71875 3.70035 3.14612 1.71875 4.90045 1.71875C6.11566 1.71875 7.06567 2.09641 7.7233 2.84097C8.53366 3.75775 8.94421 5.24521 8.94421 7.26172L8.94421 9.625L7.05325 9.625ZM11.9027 40.9663C11.0916 39.9828 10.663 38.5208 10.663 36.7383C10.663 36.692 10.6583 36.6466 10.6512 36.602C10.6583 36.5577 10.663 36.5124 10.663 36.466L10.663 29.4027L13.0048 27.31C13.2045 27.1317 13.3099 26.8702 13.2891 26.603C13.2686 26.3362 13.1246 26.0938 12.9 25.9481L10.663 24.4979L10.663 7.26172C10.663 4.82358 10.1114 2.95914 9.02478 1.71875L34.2891 1.71875C36.1371 1.71875 37.6406 3.22232 37.6406 5.07031L37.6406 5.92969L36.2082 5.92969C35.7339 5.92969 35.3488 6.31439 35.3488 6.78906L35.3488 8.62228C35.3488 8.89151 35.4751 9.14496 35.6896 9.30743L36.5862 9.98688L34.8936 11.0446C34.6513 11.196 34.5002 11.4579 34.4901 11.7432C34.4801 12.0286 34.6127 12.3005 34.8436 12.4683L37.6406 14.5026L37.6406 32.6563L15.7924 32.6563C15.7501 32.6563 15.7084 32.6603 15.6675 32.6663C15.5849 32.6603 15.5016 32.6563 15.4174 32.6563C13.5895 32.6563 12.1575 34.1226 12.1575 35.994C12.1575 37.9756 13.4408 39.3594 15.2787 39.3594C15.7534 39.3594 16.1381 38.9747 16.1381 38.5C16.1381 38.0253 15.7534 37.6406 15.2787 37.6406C14.4006 37.6406 13.8762 37.025 13.8762 35.994C13.8762 34.9423 14.6705 34.375 15.4174 34.375C16.7568 34.375 17.8884 35.9729 17.8884 37.8642C17.8884 40.2997 16.4614 42.2813 14.7071 42.2813C13.5818 42.2813 12.612 41.8267 11.9027 40.9663L11.9027 40.9663ZM38.3281 42.2813L18.115 42.2813C18.1593 42.2275 18.2036 42.1738 18.2466 42.1178C19.0704 41.0422 19.5464 39.6447 19.6018 38.1563L33 38.1563C33.4747 38.1563 33.8594 37.7715 33.8594 37.2969C33.8594 36.8222 33.4747 36.4375 33 36.4375L19.446 36.4375C19.2681 35.6614 18.9492 34.9581 18.5249 34.375L38.3281 34.375C40.5078 34.375 42.2813 36.1485 42.2813 38.3281C42.2813 40.5078 40.5078 42.2813 38.3281 42.2813L38.3281 42.2813Z" id="Shape" fill="#FFFFFF" fill-rule="evenodd" stroke="none" />
        <path d="M0.859375 1.71875C1.0853 1.71875 1.30618 1.62677 1.46698 1.46698C1.62677 1.30719 1.71875 1.0853 1.71875 0.859375C1.71875 0.633453 1.62677 0.41156 1.46698 0.25177C1.30618 0.09198 1.0853 0 0.859375 0C0.632446 0 0.41156 0.09198 0.25177 0.25177C0.09198 0.41156 0 0.633453 0 0.859375C0 1.0853 0.09198 1.30719 0.25177 1.46698C0.41156 1.62677 0.632446 1.71875 0.859375 1.71875L0.859375 1.71875Z" transform="translate(15.413696 6.703125)" id="Shape" fill="#FFFFFF" fill-rule="evenodd" stroke="none" />
        <path d="M0.859375 1.71875L13.2649 1.71875C13.7396 1.71875 14.1243 1.33405 14.1243 0.859375C14.1243 0.384705 13.7396 0 13.2649 0L0.859375 0C0.384705 0 0 0.384705 0 0.859375C0 1.33405 0.384705 1.71875 0.859375 1.71875L0.859375 1.71875Z" transform="translate(19.078125 6.703125)" id="Shape" fill="#FFFFFF" fill-rule="evenodd" stroke="none" />
        <path d="M0.859375 1.71875L16.9297 1.71875C17.4044 1.71875 17.7891 1.33405 17.7891 0.859375C17.7891 0.384705 17.4044 0 16.9297 0L0.859375 0C0.38504 0 0 0.384705 0 0.859375C0 1.33405 0.38504 1.71875 0.859375 1.71875L0.859375 1.71875Z" transform="translate(15.413361 11.515625)" id="Shape" fill="#FFFFFF" fill-rule="evenodd" stroke="none" />
        <path d="M0.859375 1.71875L16.9297 1.71875C17.4044 1.71875 17.7891 1.33405 17.7891 0.859375C17.7891 0.384705 17.4044 0 16.9297 0L0.859375 0C0.38504 0 0 0.384705 0 0.859375C0 1.33405 0.38504 1.71875 0.859375 1.71875L0.859375 1.71875Z" transform="translate(15.413361 16.328125)" id="Shape" fill="#FFFFFF" fill-rule="evenodd" stroke="none" />
        <path d="M0.859375 1.71875L16.9297 1.71875C17.4044 1.71875 17.7891 1.33405 17.7891 0.859375C17.7891 0.384705 17.4044 0 16.9297 0L0.859375 0C0.38504 0 0 0.384705 0 0.859375C0 1.33405 0.38504 1.71875 0.859375 1.71875L0.859375 1.71875Z" transform="translate(15.413361 21.140625)" id="Shape" fill="#FFFFFF" fill-rule="evenodd" stroke="none" />
        <path d="M0.859375 1.71875L16.9297 1.71875C17.4044 1.71875 17.7891 1.33405 17.7891 0.859375C17.7891 0.384705 17.4044 0 16.9297 0L0.859375 0C0.38504 0 0 0.384705 0 0.859375C0 1.33405 0.38504 1.71875 0.859375 1.71875L0.859375 1.71875Z" transform="translate(15.413361 25.953125)" id="Shape" fill="#FFFFFF" fill-rule="evenodd" stroke="none" />
        <path d="M0.859375 0C0.633118 0 0.41156 0.09198 0.25177 0.25177C0.09198 0.41156 0 0.633453 0 0.859375C0 1.0853 0.0916443 1.30719 0.25177 1.46698C0.41156 1.62677 0.633118 1.71875 0.859375 1.71875C1.0853 1.71875 1.30685 1.62677 1.46664 1.46698C1.62677 1.30719 1.71875 1.0853 1.71875 0.859375C1.71875 0.633453 1.62677 0.41156 1.46664 0.25177C1.30685 0.09198 1.0853 0 0.859375 0L0.859375 0Z" transform="translate(35.48111 36.4375)" id="Shape" fill="#FFFFFF" fill-rule="evenodd" stroke="none" />
      </g>
      <path d="M0 11.5C0 5.14873 5.14873 0 11.5 0C17.8513 0 23 5.14873 23 11.5C23 17.8513 17.8513 23 11.5 23C5.14873 23 0 17.8513 0 11.5Z" transform="translate(25.5 6.5)" id="Ellipse" fill="#FFFFFF" fill-rule="evenodd" stroke="#000000" stroke-width="1" />
      <g id="V" transform="translate(31 8)">
        <path d="M12.096 4.4L7.248 15.6L4.688 15.6L-0.144 4.4L2.656 4.4L6.064 12.4L9.52 4.4L12.096 4.4Z" />
      </g>
    </g>
  </g>
</svg>