<?xml version="1.0" encoding="utf-8"?>
<svg width="30px" height="25px" viewbox="0 0 30 25" version="1.1" xmlns:xlink="http://www.w3.org/1999/xlink" xmlns="http://www.w3.org/2000/svg">
  <g id="Group">
    <path d="M21.7557 24.9609L8.24432 24.9609C3.69111 24.9609 0 21.2698 0 16.7166L0 3.16236C0 1.4158 1.4158 0 3.16236 0L26.8377 0C28.5842 0 30 1.4158 30 3.16236L30 16.7167C30 21.2698 26.3089 24.9609 21.7557 24.9609L21.7557 24.9609Z" id="Shape" fill="#E0E0E0" fill-rule="evenodd" stroke="none" />
    <path d="M6.89578 2.23517e-07L5.08494 2.23517e-07C6.83244 2.23517e-07 8.24912 1.41498 8.24912 3.16049L8.24912 16.7214C8.24912 21.272 4.55584 24.9609 0 24.9609L1.81084 24.9609C6.36674 24.9609 10.06 21.272 10.06 16.7214L10.06 3.16049C10.06 1.41498 8.64328 0 6.89578 0L6.89578 2.23517e-07Z" transform="translate(19.940063 0)" id="Shape" fill="#BDBDBD" fill-rule="evenodd" stroke="none" />
    <path d="M0 14.9089L0 1.35252C0 0.605508 0.605567 0 1.35252 0L25.0257 0C25.7727 0 26.3782 0.605566 26.3782 1.35252L26.3782 14.9089C26.3782 18.4625 23.4974 21.3434 19.9437 21.3434L6.43453 21.3434C2.88082 21.3434 3.35276e-07 18.4625 3.35276e-07 14.9089L0 14.9089Z" transform="translate(1.810791 1.8087921)" id="Shape" fill="#FC0023" fill-rule="evenodd" stroke="none" />
    <path d="M6.89572 4.47035e-07L5.08488 4.47035e-07C5.8323 4.47035e-07 6.43822 0.605215 6.43822 1.35176L6.43822 14.9127C6.43822 18.4643 3.55576 21.3434 0 21.3434L1.81084 21.3434C5.36654 21.3434 8.24906 18.4643 8.24906 14.9127L8.24906 1.35176C8.24906 0.605215 7.64314 0 6.89572 0L6.89572 4.47035e-07Z" transform="translate(19.940063 1.8087311)" id="Shape" fill="#FC4850" fill-rule="evenodd" stroke="none" />
    <path d="M10.3726 4.46678L0.492597 4.46678C0.220546 4.46678 0 4.24623 0 3.97418L0 2.05254C0 0.918984 0.918926 0 2.05254 0L8.81268 0C9.94623 0 10.8652 0.918926 10.8652 2.05254L10.8652 3.97418C10.8652 4.24623 10.6446 4.46678 10.3726 4.46678L10.3726 4.46678Z" transform="translate(9.567383 3.6072693)" id="Shape" fill="#BBF7FF" fill-rule="evenodd" stroke="none" />
    <path d="M0.905449 8.08852C0.405411 8.08852 0 7.68316 0 7.18307L0 0.905449C0 0.405411 0.405351 0 0.905449 0C1.40549 0 1.8109 0.405352 1.8109 0.905449L1.8109 7.18313C1.8109 7.68316 1.40549 8.08852 0.905449 8.08852L0.905449 8.08852Z" transform="translate(14.094482 11.152496)" id="Shape" fill="#546E7A" fill-rule="evenodd" stroke="none" />
    <path d="M2.41539 1.79395L0.750161 0.128716C0.57854 -0.0429055 0.300279 -0.0429055 0.128716 0.128716C-0.0429055 0.300337 -0.0429055 0.578598 0.128716 0.750161L1.79395 2.4154C1.87973 2.50118 1.99223 2.54413 2.10467 2.54413C2.21711 2.54413 2.32961 2.50124 2.41539 2.4154C2.58707 2.24383 2.58707 1.96557 2.41539 1.79395L2.41539 1.79395Z" transform="translate(12.390625 4.568573)" id="Shape" fill="#F74F68" fill-rule="evenodd" stroke="none" />
    <g id="Group" transform="translate(9.12793 3.1677551)">
      <path d="M1.9316 1.8109L0 1.8109L0 0.965801C0 0.432422 0.432422 0 0.965801 0C1.49918 0 1.9316 0.432422 1.9316 0.965801L1.9316 1.8109Z" transform="translate(4.90625 3.095398)" id="Shape" fill="#546E7A" fill-rule="evenodd" stroke="none" />
      <path d="M9.25219 0L2.49199 0C1.11791 0 0 1.11791 0 2.49199L0 4.41363C0 4.92756 0.418125 5.34568 0.932051 5.34568L10.8121 5.34568C11.3261 5.34568 11.7441 4.92756 11.7441 4.41363L11.7441 2.49199C11.7441 1.11791 10.6263 0 9.25219 0L9.25219 0ZM10.8652 4.41369C10.8652 4.44299 10.8414 4.46684 10.8121 4.46684L0.932051 4.46684C0.902754 4.46684 0.878906 4.44299 0.878906 4.41369L0.878906 2.49205C0.878906 1.6026 1.60254 0.878967 2.49199 0.878967L9.25213 0.878967C10.1416 0.878967 10.8652 1.6026 10.8652 2.49205L10.8652 4.41369Z" id="Shape" fill="#546E7A" fill-rule="evenodd" stroke="none" />
    </g>
  </g>
</svg>