<?xml version="1.0" encoding="utf-8"?>
<svg width="45px" height="45px" viewbox="0 0 45 45" version="1.1" xmlns:xlink="http://www.w3.org/1999/xlink" xmlns="http://www.w3.org/2000/svg">
  <defs>
    <rect width="45" height="45" id="artboard_1" />
    <clipPath id="clip_1">
      <use xlink:href="#artboard_1" clip-rule="evenodd" />
    </clipPath>
  </defs>
  <g id="Pixelbook" clip-path="url(#clip_1)">
    <use xlink:href="#artboard_1" stroke="none" fill="#FFFFFF" />
    <g id="x-ray">
      <g id="x-ray">
        <g id="Group">
          <path d="M43.6764 14.1177L28.6071 14.1177C33.5982 8.80615 29.8491 0 22.5 0C15.1524 0 11.4011 8.80546 16.3929 14.1177L1.32353 14.1177C0.592588 14.1177 0 14.7102 0 15.4412L0 43.6764C0 44.4074 0.592588 45 1.32353 45L43.6764 45C44.4074 45 45 44.4074 45 43.6764L45 15.4412C45 14.7102 44.4074 14.1177 43.6764 14.1177L43.6764 14.1177L43.6764 14.1177ZM22.4999 2.64703C25.6624 2.64703 28.2352 5.21988 28.2352 8.38232C28.2352 11.5448 25.6624 14.1176 22.4999 14.1176C19.3375 14.1176 16.7646 11.5448 16.7646 8.38232C16.7646 5.21988 19.3375 2.64703 22.4999 2.64703L22.4999 2.64703L22.4999 2.64703ZM42.3529 42.353L2.64703 42.353L2.64703 16.7647L12.1019 16.7647C11.1734 17.8441 10.5209 19.1783 10.2328 20.6184C8.04074 31.5764 8.85967 27.1146 7.07677 37.8118C6.95658 38.5328 7.44369 39.2148 8.16473 39.335C8.8857 39.455 9.56769 38.9681 9.68788 38.247C11.461 27.6081 10.7494 31.5308 12.8284 21.1377C13.3652 18.4538 15.5567 16.7647 17.6021 16.7647L21.1764 16.7647L21.1764 22.5883L20.1393 22.5883C19.6395 22.5883 19.1856 22.3649 18.9831 22.0191C18.6135 21.3885 17.8027 21.1767 17.1721 21.5463C16.5414 21.9159 16.3297 22.7267 16.6993 23.3574C17.378 24.5157 18.6961 25.2353 20.1393 25.2353L21.1764 25.2353L21.1764 29.647L19.0901 29.647C18.2505 29.647 17.4311 28.9421 17.0024 27.8512C16.735 27.1709 15.9667 26.836 15.2865 27.1035C14.6062 27.3709 14.2714 28.1391 14.5387 28.8195C15.381 30.9628 17.1251 32.2941 19.0901 32.2941L21.1764 32.2941L21.1764 36.7059L18.5655 36.7059C17.4269 36.7059 16.4054 36.1245 15.8997 35.1887C15.5522 34.5456 14.7491 34.3059 14.1061 34.6535C13.463 35.0009 13.2234 35.8039 13.5709 36.447C14.5394 38.2394 16.4532 39.3529 18.5655 39.3529L26.4345 39.3529C28.5468 39.3529 30.4606 38.2394 31.4291 36.447C31.7766 35.8039 31.537 35.0009 30.8939 34.6535C30.2508 34.306 29.4477 34.5456 29.1003 35.1887C28.5946 36.1245 27.5732 36.7059 26.4345 36.7059L23.8235 36.7059L23.8235 32.2941L25.9099 32.2941C27.875 32.2941 29.619 30.9628 30.4613 28.8195C30.7286 28.1391 30.3938 27.3709 29.7136 27.1035C29.0334 26.8361 28.265 27.1709 27.9976 27.8512C27.5688 28.9421 26.7494 29.647 25.9099 29.647L23.8235 29.647L23.8235 25.2353L24.8606 25.2353C26.3037 25.2353 27.6218 24.5157 28.3006 23.3574C28.6702 22.7268 28.4586 21.9159 27.828 21.5463C27.1972 21.1767 26.3865 21.3884 26.0169 22.0191C25.8144 22.3647 25.3605 22.5883 24.8607 22.5883L23.8235 22.5883L23.8235 16.7647L27.3979 16.7647C29.4424 16.7647 31.6347 18.4535 32.1716 21.1377C34.2505 31.53 33.5388 27.6074 35.3122 38.247C35.4201 38.8944 35.9808 39.3532 36.6161 39.3532C37.4376 39.3532 38.0573 38.6163 37.9232 37.8119C36.1412 27.1193 36.9606 31.5828 34.7672 20.6186C34.4791 19.1784 33.8266 17.8442 32.8981 16.7648L42.3529 16.7648L42.3529 42.353L42.3529 42.353Z" id="Shape" fill="#AD4800" fill-rule="evenodd" stroke="none" />
        </g>
      </g>
    </g>
  </g>
</svg>