<?xml version="1.0" encoding="utf-8"?>
<svg width="30px" height="30px" viewBox="0 0 30 30" version="1.1" xmlns:xlink="http://www.w3.org/1999/xlink" xmlns="http://www.w3.org/2000/svg">
  <desc>Created with Lunacy</desc>
  <g id="youtube">
    <g id="Group">
      <path d="M30 15C30 23.2852 23.2852 30 15 30C6.71484 30 0 23.2852 0 15C0 6.71484 6.71484 0 15 0C23.2852 0 30 6.71484 30 15L30 15Z" id="Shape" fill="#CD201F" fill-rule="evenodd" stroke="none" />
      <g id="Group" transform="translate(7.0634766 9.216797)">
        <path d="M15.8525 2.18555C15.7178 1.01953 15.4365 0.679688 15.2373 0.521485C14.9209 0.275391 14.3467 0.187501 13.5791 0.134766C12.3486 0.0527349 10.2568 0 8.00098 0C5.73926 0 3.65332 0.0468752 2.42285 0.134766C1.65527 0.1875 1.08106 0.27539 0.764649 0.521485C0.56543 0.679688 0.290039 1.01953 0.149414 2.18555C-0.0498046 3.86719 -0.0498046 7.69922 0.149414 9.38086C0.290039 10.5469 0.56543 10.8867 0.764649 11.0449C1.08105 11.291 1.65527 11.3789 2.42285 11.4316C3.65332 11.5137 5.73926 11.5664 8.00098 11.5664C10.2627 11.5664 12.3486 11.5137 13.5791 11.4316C14.3467 11.3789 14.9209 11.291 15.2373 11.0449C15.4365 10.8926 15.7119 10.5469 15.8525 9.38086C16.0518 7.69922 16.0518 3.86719 15.8525 2.18555L15.8525 2.18555ZM6.06738 8.29688L6.06738 3.26367L10.8955 5.77734L6.06738 8.29688L6.06738 8.29688Z" id="Shape" fill="#FFFFFF" fill-rule="evenodd" stroke="none" />
      </g>
    </g>
  </g>
</svg>