<?xml version="1.0" encoding="utf-8"?>
<svg width="20px" height="19px" viewbox="0 0 20 19" version="1.1" xmlns:xlink="http://www.w3.org/1999/xlink" xmlns="http://www.w3.org/2000/svg">
  <path d="M11.2407 9.5L18.6389 2.1015C19.1204 1.6203 19.1204 0.842199 18.6389 0.360899C18.1577 -0.1203 17.3796 -0.1203 16.8983 0.360899L9.49993 7.7594L2.10172 0.360899C1.62022 -0.1203 0.842325 -0.1203 0.361124 0.360899C-0.120375 0.842199 -0.120375 1.6203 0.361124 2.1015L7.75933 9.5L0.361124 16.8984C-0.120375 17.3796 -0.120375 18.1577 0.361124 18.639C0.600925 18.879 0.916325 18.9996 1.23142 18.9996C1.54652 18.9996 1.86163 18.879 2.10172 18.639L9.49993 11.2405L16.8983 18.639C17.1384 18.879 17.4535 18.9996 17.7686 18.9996C18.0837 18.9996 18.3989 18.879 18.6389 18.639C19.1204 18.1577 19.1204 17.3796 18.6389 16.8984L11.2407 9.5L11.2407 9.5Z" id="Shape" fill="#FFFFFF" fill-rule="evenodd" stroke="none" />
</svg>