<?xml version="1.0" encoding="utf-8"?>
<svg width="25px" height="24px" viewbox="0 0 25 24" version="1.1" xmlns:xlink="http://www.w3.org/1999/xlink" xmlns="http://www.w3.org/2000/svg">
  <defs>
    <path d="M0 0L25 0L25 24L0 24L0 0Z" id="path_1" />
    <path d="M0 0L23.2991 0L23.2991 23.2991L0 23.2991L0 0Z" id="path_2" />
    <clipPath id="mask_1">
      <use xlink:href="#path_1" />
    </clipPath>
    <clipPath id="mask_2">
      <use xlink:href="#path_2" />
    </clipPath>
  </defs>
  <g id="video">
    <path d="M0 0L25 0L25 24L0 24L0 0Z" id="Background" fill="none" fill-rule="evenodd" stroke="none" />
    <g clip-path="url(#mask_1)">
      <g id="Mask-group" transform="translate(0.8769531 0.4263687)">
        <path d="M0 0L23.2991 0L23.2991 23.2991L0 23.2991L0 0Z" id="Rectangle" fill="none" fill-rule="evenodd" stroke="none" />
        <g clip-path="url(#mask_2)">
          <g id="Group" transform="translate(0 4.160521)">
            <path d="M22.9046 1.78824C22.6593 1.63656 22.3529 1.62271 22.0949 1.75162L16.6421 4.47842L16.6421 2.49633C16.6421 1.11764 15.5245 0 14.1458 0L2.49633 0C1.11765 0 0 1.11764 0 2.49633L0 12.4816C0 13.8603 1.11765 14.9779 2.49633 14.9779L14.1458 14.9779C15.5245 14.9779 16.6421 13.8603 16.6421 12.4816L16.6421 10.4995L22.0949 13.2305C22.506 13.4359 23.0058 13.2692 23.2113 12.8581C23.2697 12.7413 23.2998 12.6122 23.299 12.4816L23.299 2.49633C23.2992 2.20789 23.1499 1.93997 22.9046 1.78824L22.9046 1.78824ZM14.9779 12.4816C14.9779 12.9412 14.6054 13.3137 14.1458 13.3137L2.49633 13.3137C2.03675 13.3137 1.6642 12.9412 1.6642 12.4816L1.6642 2.49633C1.6642 2.03675 2.03675 1.6642 2.49633 1.6642L14.1458 1.6642C14.6054 1.6642 14.9779 2.03675 14.9779 2.49633L14.9779 12.4816L14.9779 12.4816ZM21.6348 11.1353L16.6421 8.63901L16.6421 6.33911L21.6348 3.84274L21.6348 11.1353L21.6348 11.1353Z" id="Shape" fill="#006C76" fill-rule="evenodd" stroke="none" />
            <path d="M3.32845 0C1.49019 0 0 1.49023 0 3.32843C0 5.16673 1.49019 6.65693 3.32845 6.65693C5.16676 6.65693 6.65686 5.16673 6.65686 3.32843C6.65686 1.49023 5.16666 0 3.32845 0L3.32845 0ZM3.32845 4.99263C2.40935 4.99263 1.66425 4.24753 1.66425 3.32843C1.66425 2.40933 2.40935 1.66423 3.32845 1.66423C4.24756 1.66423 4.99266 2.40933 4.99266 3.32843C4.99266 4.24753 4.24756 4.99263 3.32845 4.99263L3.32845 4.99263Z" transform="translate(4.992187 4.1605797)" id="Shape" fill="#006C76" fill-rule="evenodd" stroke="none" />
          </g>
        </g>
      </g>
    </g>
  </g>
</svg>