<?xml version="1.0" encoding="utf-8"?>
<svg width="25px" height="25px" viewbox="0 0 25 25" version="1.1" xmlns:xlink="http://www.w3.org/1999/xlink" xmlns="http://www.w3.org/2000/svg">
  <defs>
    <path d="M0 0L25 0L25 25L0 25L0 0Z" id="path_1" />
    <clipPath id="mask_1">
      <use xlink:href="#path_1" />
    </clipPath>
  </defs>
  <g id="call">
    <path d="M0 0L25 0L25 25L0 25L0 0Z" id="Background" fill="none" fill-rule="evenodd" stroke="none" />
    <g clip-path="url(#mask_1)">
      <g id="Group" transform="translate(3.0517578E-05 0)">
        <path d="M17.9674 25C17.1604 25 16.3602 24.8573 15.5778 24.5731C12.1308 23.3209 8.9312 21.2814 6.32487 18.6751C3.71853 16.0688 1.67906 12.8692 0.426914 9.42217C0.0245382 8.3144 -0.094207 7.1709 0.0740967 6.02329C0.231756 4.94833 0.648145 3.90477 1.2783 3.00539C1.91123 2.10206 2.75504 1.35073 3.71848 0.832632C4.74588 0.280164 5.86727 0 7.05159 0C7.41994 0 7.73828 0.257362 7.81548 0.617504L9.0417 6.33988C9.09721 6.599 9.01758 6.86861 8.83023 7.05601L6.73496 9.15124C8.71154 13.0811 11.9188 16.2883 15.8486 18.2649L17.9439 16.1696C18.1312 15.9823 18.4009 15.9028 18.66 15.9582L24.3824 17.1844C24.7426 17.2616 24.9999 17.5799 24.9999 17.9483C24.9999 19.1326 24.7197 20.2541 24.1672 21.2815C23.6491 22.2449 22.8978 23.0887 21.9944 23.7216C21.0951 24.3518 20.0515 24.7682 18.9765 24.9258C18.6397 24.9753 18.3029 24.9999 17.9674 25L17.9674 25ZM6.42741 1.59662C4.86521 1.76907 3.47865 2.58789 2.55789 3.90204C1.52248 5.37976 1.28104 7.19732 1.89546 8.88875C4.30279 15.5157 9.48426 20.6972 16.1112 23.1045C17.8026 23.719 19.6202 23.4776 21.0979 22.4421C22.4121 21.5213 23.2309 20.1348 23.4034 18.5726L18.7482 17.5751L16.56 19.7633C16.3272 19.9961 15.9734 20.058 15.6755 19.9179C11.0277 17.7344 7.26555 13.9723 5.08205 9.32453C4.94207 9.02654 5.00388 8.67274 5.23673 8.43994L7.42492 6.25175L6.42741 1.59662Z" id="Shape" fill="#006C76" fill-rule="evenodd" stroke="none" />
        <path d="M12.4995 13.2807C12.0681 13.2807 11.7183 12.9309 11.7183 12.4995C11.7183 6.46878 6.81193 1.56244 0.781218 1.56244C0.34979 1.56244 0 1.21265 0 0.781218C0 0.34979 0.34979 0 0.781218 0C4.12 0 7.25888 1.30014 9.61972 3.66098C11.9806 6.02182 13.2807 9.16071 13.2807 12.4995C13.2807 12.9309 12.931 13.2807 12.4995 13.2807L12.4995 13.2807Z" transform="translate(11.719223 0)" id="Shape" fill="#006C76" fill-rule="evenodd" stroke="none" />
        <path d="M9.37462 10.1558C8.94319 10.1558 8.5934 9.80604 8.5934 9.37462C8.5934 5.06698 5.08885 1.56244 0.781218 1.56244C0.34979 1.56244 0 1.21265 0 0.781218C0 0.34979 0.34979 0 0.781218 0C5.95039 0 10.1558 4.20544 10.1558 9.37462C10.1558 9.80604 9.80609 10.1558 9.37462 10.1558L9.37462 10.1558Z" transform="translate(11.719223 3.124878)" id="Shape" fill="#006C76" fill-rule="evenodd" stroke="none" />
        <path d="M6.24974 7.03096C5.81832 7.03096 5.46853 6.68117 5.46853 6.24974C5.46853 3.66513 3.36583 1.56244 0.781218 1.56244C0.34979 1.56244 0 1.21265 0 0.781218C0 0.34979 0.34979 0 0.781218 0C4.22737 0 7.03096 2.8036 7.03096 6.24974C7.03096 6.68117 6.68122 7.03096 6.24974 7.03096L6.24974 7.03096Z" transform="translate(11.719223 6.2497406)" id="Shape" fill="#006C76" fill-rule="evenodd" stroke="none" />
      </g>
    </g>
  </g>
</svg>