<svg width="61" height="50" viewBox="0 0 61 50" fill="none" xmlns="http://www.w3.org/2000/svg">
<rect width="100" height="50" rx="25" fill="url(#paint0_linear)"/>
<g clip-path="url(#clip0)">
<path d="M34.1819 8C30.363 8.00409 27.2683 11.0989 27.2642 14.9178V18.3948C27.411 18.4079 27.5572 18.3609 27.6686 18.2641C27.7798 18.1673 27.847 18.0295 27.8543 17.8821L27.976 15.2073C27.9816 15.0877 28.0342 14.9754 28.1228 14.895C28.2114 14.8145 28.3284 14.7727 28.4477 14.7789C29.7164 14.816 30.986 14.7505 32.2441 14.5826C34.1661 14.3299 36.8591 13.7204 38.7732 12.2526C38.9004 12.1508 39.0724 12.126 39.223 12.1871C39.3736 12.2485 39.4795 12.3866 39.4997 12.548C39.5196 12.7094 39.4508 12.8691 39.3198 12.9653C38.3725 13.6915 37.2051 14.2779 35.8308 14.7198C36.6137 15.4281 38.348 16.6716 41.1 16.9688V14.9178C41.0959 11.0989 38.0011 8.00409 34.1819 8Z" fill="#E5E6E6"/>
<path d="M40.4857 23.2314C40.4887 23.2171 40.4919 23.2031 40.496 23.189L40.8656 21.9174C40.8969 21.7294 41.0434 21.5814 41.2312 21.5486C41.6134 21.4808 41.9503 21.2576 42.1621 20.9327C42.3741 20.6075 42.442 20.2095 42.3501 19.8325C42.2621 19.4704 41.9694 19.1941 41.6026 19.1271C41.5906 19.1286 41.5786 19.13 41.5661 19.1303C41.5 19.1329 39.9157 19.1882 37.7875 18.7732C35.857 18.3968 33.11 17.5452 30.8779 15.6235C29.9974 15.6869 29.2846 15.6937 28.8533 15.6881L28.7515 17.9228C28.731 18.4079 28.4666 18.8496 28.0484 19.0964C27.6305 19.3432 27.1161 19.3619 26.6815 19.1455C26.3484 19.2335 26.0907 19.4973 26.0109 19.8325C25.9188 20.2095 25.9866 20.6078 26.1983 20.9327C26.4104 21.2579 26.7473 21.4808 27.1295 21.5486C27.3173 21.5814 27.4638 21.7294 27.4951 21.9174L27.8648 23.189C27.8689 23.2028 27.8724 23.2171 27.875 23.2314C28.4459 26.2639 31.0947 28.4603 34.1804 28.4603C37.2661 28.4603 39.9149 26.2639 40.4857 23.2314Z" fill="#E5E6E6"/>
<path d="M41.1 17.8733C37.4668 17.5145 35.4483 15.6656 34.8344 15.0049C34.0143 15.2111 33.1829 15.3682 32.3441 15.4755C32.2842 15.4831 32.2248 15.4907 32.166 15.498C35.4977 17.9201 39.7485 18.2056 41.1 18.2325V17.8733Z" fill="#E5E6E6"/>
<path d="M31.353 30.7803C33.1394 31.6425 35.2216 31.6425 37.008 30.7803V28.791C35.1994 29.55 33.1616 29.55 31.353 28.791V30.7803Z" fill="#E5E6E6"/>
<path d="M46.1001 26.7321L41.1728 30.5645C41.8697 31.512 42.6181 32.4207 43.415 33.2858C43.5782 33.463 43.5727 33.7373 43.4025 33.9076L35.5562 41.7539L35.7638 42.7924L36.8023 43L37.5688 42.2332C37.6653 42.1373 37.7996 42.0899 37.9347 42.1042L38.641 42.1806L38.5822 41.443C38.5723 41.3166 38.6161 41.1921 38.703 41.0996C38.7896 41.0066 38.9115 40.9552 39.0384 40.9584L39.8538 40.9733L39.7465 40.3208C39.7231 40.1781 39.7699 40.0328 39.8722 39.9304L44.6486 35.154C44.8191 34.9835 45.0935 34.9779 45.2707 35.1411C46.1358 35.9381 47.0444 36.6865 47.992 37.3834L51.8185 32.4634C51.104 31.9762 49.7698 31.0178 48.7664 30.0144C47.7431 28.9917 46.6601 27.5241 46.1001 26.7321ZM49.8506 32.4263C50.0295 32.5827 50.0556 32.8521 49.9093 33.0401L49.0314 34.1687C48.898 34.3404 48.6608 34.3919 48.4684 34.291L45.8345 32.9114C45.7535 32.8687 45.6874 32.8027 45.645 32.7219L44.2652 30.0881C44.1643 29.8953 44.2158 29.6585 44.3875 29.5251L45.5163 28.6468C45.7041 28.5009 45.9735 28.5266 46.1302 28.7059L46.9582 29.652C47.563 30.3431 48.2131 30.9932 48.9042 31.598L49.8506 32.4263Z" fill="#E5E6E6"/>
<path d="M42.4646 33.5753C42.3043 33.3966 42.1461 33.2162 41.9899 33.0337L37.5034 31.5375C35.412 32.5877 32.9472 32.5874 30.8561 31.5363L25.6179 33.2349C24.5051 33.5955 23.6631 34.4585 23.3651 35.5441C23.3534 35.5868 23.3423 35.6295 23.3324 35.6725C23.2791 35.9106 23.2534 36.1536 23.256 36.3975V39.6467H36.3929L42.4646 33.5753Z" fill="#E5E6E6"/>
<path d="M46.2821 30.2437L45.7331 29.6163L45.2354 30.0036L46.3756 32.1803L48.5527 33.3206L48.9399 32.8228L48.3126 32.2742C47.5917 31.6428 46.9132 30.9646 46.2821 30.2437Z" fill="#E5E6E6"/>
</g>
<defs>
<linearGradient id="paint0_linear" x1="-10.5" y1="11.6667" x2="41.602" y2="59.2043" gradientUnits="userSpaceOnUse">
<stop stop-color="#077883"/>
<stop offset="1" stop-color="#2EC2D0"/>
</linearGradient>
<clipPath id="clip0">
<rect width="35" height="35" fill="white" transform="translate(20 8)"/>
</clipPath>
</defs>
</svg>
