<?xml version="1.0" encoding="utf-8"?>
<svg width="25px" height="25px" viewbox="0 0 25 25" version="1.1" xmlns:xlink="http://www.w3.org/1999/xlink" xmlns="http://www.w3.org/2000/svg">
  <g id="add_permission">
    <path d="M0 12.5C0 5.59644 5.59644 0 12.5 0C19.4036 0 25 5.59644 25 12.5C25 19.4036 19.4036 25 12.5 25C5.59644 25 0 19.4036 0 12.5Z" id="Circle" fill="#006C76" fill-rule="evenodd" stroke="none" />
    <path d="M8.9375 4.125L5.5 4.125L5.5 0.6875C5.5 0.308 5.192 0 4.8125 0C4.433 0 4.125 0.308 4.125 0.6875L4.125 4.125L0.6875 4.125C0.308 4.125 0 4.433 0 4.8125C0 5.192 0.308 5.5 0.6875 5.5L4.125 5.5L4.125 8.9375C4.125 9.317 4.433 9.625 4.8125 9.625C5.192 9.625 5.5 9.317 5.5 8.9375L5.5 5.5L8.9375 5.5C9.317 5.5 9.625 5.192 9.625 4.8125C9.625 4.433 9.317 4.125 8.9375 4.125L8.9375 4.125Z" transform="translate(7.6875 7.6875)" id="Shape" fill="#FFFFFF" fill-rule="evenodd" stroke="none" />
  </g>
</svg>