<svg width="20" height="20" viewBox="0 0 20 20" fill="none" xmlns="http://www.w3.org/2000/svg">
<g clip-path="url(#clip0)">
<path d="M2.85236 6.71301C2.5234 6.71301 2.24428 6.82773 2.01484 7.05717C1.78541 7.2866 1.67065 7.56192 1.67065 7.88326V12.817C1.67065 13.1464 1.78537 13.4253 2.01484 13.6547C2.24428 13.8842 2.5234 13.9989 2.85236 13.9989C3.18109 13.9989 3.45851 13.8842 3.68439 13.6547C3.90982 13.4253 4.02285 13.1464 4.02285 12.817V7.88326C4.02285 7.56189 3.90813 7.2866 3.67866 7.05717C3.44919 6.82773 3.1737 6.71301 2.85236 6.71301Z" fill="#BFC0C0"/>
<path d="M12.3528 2.28399L13.1675 0.781151C13.2209 0.681656 13.2019 0.605362 13.1102 0.551713C13.0107 0.505453 12.9342 0.528894 12.8808 0.620379L12.0547 2.13523C11.3278 1.81386 10.5591 1.65288 9.74837 1.65288C8.9375 1.65288 8.16865 1.81389 7.44205 2.13523L6.61596 0.620379C6.56228 0.528894 6.48581 0.50566 6.38653 0.551713C6.29463 0.605603 6.27561 0.681656 6.32929 0.781151L7.14399 2.28399C6.3179 2.70527 5.65996 3.29198 5.17043 4.0454C4.6809 4.79923 4.43604 5.62301 4.43604 6.51818H15.0492C15.0492 5.62322 14.8043 4.79941 14.3148 4.0454C13.8252 3.29198 13.1711 2.70527 12.3528 2.28399ZM7.64277 4.46989C7.55467 4.5582 7.44944 4.60214 7.32713 4.60214C7.20457 4.60214 7.10149 4.5582 7.01739 4.46989C6.9333 4.38199 6.89125 4.27718 6.89125 4.15446C6.89125 4.03214 6.9333 3.92712 7.01739 3.83902C7.10149 3.75113 7.20482 3.70718 7.32713 3.70718C7.44944 3.70718 7.55467 3.75113 7.64277 3.83902C7.73066 3.92733 7.77482 4.03214 7.77482 4.15446C7.77458 4.27698 7.73046 4.38199 7.64277 4.46989ZM12.4789 4.46989C12.3946 4.5582 12.2913 4.60214 12.1692 4.60214C12.0466 4.60214 11.9414 4.5582 11.8535 4.46989C11.7654 4.38199 11.7215 4.27718 11.7215 4.15446C11.7215 4.03214 11.7654 3.92712 11.8535 3.83902C11.9414 3.75113 12.0466 3.70718 12.1692 3.70718C12.2915 3.70718 12.3946 3.75113 12.4789 3.83902C12.5631 3.92733 12.605 4.03214 12.605 4.15446C12.605 4.27698 12.563 4.38199 12.4789 4.46989Z" fill="#BFC0C0"/>
<path d="M4.48169 14.5725C4.48169 14.9247 4.604 15.2229 4.84866 15.4675C5.09353 15.7122 5.39167 15.8345 5.74363 15.8345H6.59274L6.60438 18.4394C6.60438 18.7683 6.7191 19.0476 6.94853 19.2771C7.17797 19.5066 7.4535 19.6213 7.77463 19.6213C8.10338 19.6213 8.38267 19.5066 8.61214 19.2771C8.84161 19.0476 8.95633 18.7683 8.95633 18.4394V15.8347H10.5397V18.4394C10.5397 18.7683 10.6544 19.0476 10.8838 19.2771C11.1133 19.5066 11.3923 19.6213 11.7213 19.6213C12.0501 19.6213 12.3294 19.5066 12.5589 19.2771C12.7883 19.0476 12.903 18.7683 12.903 18.4394V15.8347H13.7636C14.1078 15.8347 14.4021 15.7124 14.6472 15.4677C14.8918 15.2231 15.0142 14.9249 15.0142 14.5728V6.93082H4.48169V14.5725Z" fill="#BFC0C0"/>
<path d="M16.6442 6.71301C16.3228 6.71301 16.0475 6.82604 15.818 7.05147C15.5886 7.27732 15.4739 7.55474 15.4739 7.88326V12.817C15.4739 13.1464 15.5886 13.4253 15.818 13.6547C16.0475 13.8842 16.323 13.9989 16.6442 13.9989C16.9729 13.9989 17.2522 13.8842 17.4817 13.6547C17.7111 13.4253 17.8258 13.1464 17.8258 12.817V7.88326C17.8258 7.55471 17.7111 7.27732 17.4817 7.05147C17.2522 6.82604 16.9729 6.71301 16.6442 6.71301Z" fill="#BFC0C0"/>
</g>
<defs>
<clipPath id="clip0">
<rect width="19.0926" height="19.0926" fill="white" transform="translate(0.201904 0.528625)"/>
</clipPath>
</defs>
</svg>
