<?xml version="1.0" encoding="utf-8"?>
<svg width="150px" height="150px" viewbox="0 0 150 150" version="1.1" xmlns:xlink="http://www.w3.org/1999/xlink" xmlns="http://www.w3.org/2000/svg">
  <defs>
    <path d="M0 0L150 0L150 150L0 150L0 0Z" id="path_1" />
    <clipPath id="mask_1">
      <use xlink:href="#path_1" />
    </clipPath>
  </defs>
  <g id="annual">
    <path d="M0 0L150 0L150 150L0 150L0 0Z" id="Background" fill="none" fill-rule="evenodd" stroke="none" />
    <g clip-path="url(#mask_1)">
      <g id="Group" transform="translate(2.34375 2.34375)">
        <g id="Group" transform="translate(2.34375 2.3437512)">
          <g id="Group" transform="translate(0 14.0625)">
            <path d="M75 8.90625L75 0L2.34375 0C1.05469 0 0 1.05469 0 2.34375L0 18.75L76.7109 18.75C75.6094 15.6563 75 12.3516 75 8.90625L75 8.90625Z" id="Shape" fill="#CCD1D9" fill-rule="evenodd" stroke="none" />
          </g>
          <g id="Group" transform="translate(0 32.8125)">
            <g id="Group" transform="translate(8.940697E-06 0)">
              <path d="M9.37499 37.5L9.37499 9.375L82.2187 9.375C79.8281 6.63281 77.9531 3.46875 76.7109 0L0 0L0 60.9375L9.375 64.2891L9.37499 37.5Z" id="Shape" fill="#E6E9ED" fill-rule="evenodd" stroke="none" />
            </g>
            <g id="Group" transform="translate(0 60.9375)">
              <path d="M0 25.7813C0 27.0703 1.05469 28.125 2.34375 28.125L28.125 28.125L0 0L0 25.7813Z" id="Shape" fill="#E6E9ED" fill-rule="evenodd" stroke="none" />
            </g>
            <g id="Group" transform="translate(28.125 79.6875)">
              <path d="M0.609376 0L0 4.28907L0 9.375L75 9.375L75 0L0.609376 0Z" id="Shape" fill="#E6E9ED" fill-rule="evenodd" stroke="none" />
            </g>
          </g>
          <g id="Group" transform="translate(9.375005 42.1875)">
            <path d="M91.4063 18.75C90.1172 18.75 89.0625 17.6953 89.0625 16.4063L89.0625 9.375C82.5938 8.08594 76.9687 4.6875 72.8438 0L0 0L0 28.125L0 54.9141L23.4375 63.2813C21.4688 65.25 20.0625 67.6875 19.3594 70.3125L93.75 70.3125L93.75 32.8125L93.75 18.75L91.4063 18.75Z" id="Shape" fill="#FCD770" fill-rule="evenodd" stroke="none" />
          </g>
          <g id="Group" transform="translate(0 93.75)">
            <path d="M28.7344 18.75L28.125 23.0391L28.125 28.125L0 0L9.375 3.35156L32.8125 11.7188C30.8438 13.6875 29.4375 16.125 28.7344 18.75L28.7344 18.75Z" id="Shape" fill="#FF826E" fill-rule="evenodd" stroke="none" />
          </g>
          <g id="Group" transform="translate(56.25 4.6875)">
            <path d="M9.375 9.375L9.375 16.4063C9.375 17.6953 8.32031 18.75 7.03125 18.75L2.34375 18.75C1.05469 18.75 0 17.6953 0 16.4063L0 9.375L0 2.34375C0 1.05469 1.05469 0 2.34375 0L7.03125 0C8.32031 0 9.375 1.05469 9.375 2.34375L9.375 9.375Z" id="Shape" fill="#B4DD7F" fill-rule="evenodd" stroke="none" />
          </g>
          <g id="Group" transform="translate(32.8125 4.6875)">
            <path d="M9.375 9.375L9.375 16.4063C9.375 17.6953 8.32031 18.75 7.03125 18.75L2.34375 18.75C1.05469 18.75 0 17.6953 0 16.4063L0 9.375L0 2.34375C0 1.05469 1.05469 0 2.34375 0L7.03125 0C8.32031 0 9.375 1.05469 9.375 2.34375L9.375 9.375Z" id="Shape" fill="#B4DD7F" fill-rule="evenodd" stroke="none" />
          </g>
          <g id="Group" transform="translate(9.375 4.6875)">
            <path d="M9.375 9.375L9.375 16.4063C9.375 17.6953 8.32031 18.75 7.03125 18.75L2.34375 18.75C1.05469 18.75 0 17.6953 0 16.4063L0 9.375L0 2.34375C0 1.05469 1.05469 0 2.34375 0L7.03125 0C8.32031 0 9.375 1.05469 9.375 2.34375L9.375 9.375Z" id="Shape" fill="#B4DD7F" fill-rule="evenodd" stroke="none" />
          </g>
          <g id="Group" transform="translate(107.8125 0)">
            <path d="M9.375 4.6875L9.375 7.03125C9.375 8.32031 8.32031 9.375 7.03125 9.375L2.34375 9.375C1.05469 9.375 0 8.32031 0 7.03125L0 2.34375C0 1.05469 1.05469 0 2.34375 0L7.03125 0C8.32031 0 9.375 1.05469 9.375 2.34375L9.375 4.6875Z" id="Shape" fill="#AAB2BD" fill-rule="evenodd" stroke="none" />
          </g>
          <g id="Group" transform="translate(89.0625 0)">
            <path d="M9.375 2.34375L9.375 7.03125C9.375 8.32031 8.32031 9.375 7.03125 9.375L2.34375 9.375C1.05469 9.375 0 8.32031 0 7.03125L0 4.6875L0 2.34375C0 1.05469 1.05469 0 2.34375 0L7.03125 0C8.32031 0 9.375 1.05469 9.375 2.34375L9.375 2.34375Z" id="Shape" fill="#AAB2BD" fill-rule="evenodd" stroke="none" />
          </g>
          <g id="Group" transform="translate(98.4375 46.875)">
            <path d="M9.375 4.6875L9.375 11.7188C9.375 13.0078 8.32031 14.0625 7.03125 14.0625L4.6875 14.0625L2.34375 14.0625C1.05469 14.0625 0 13.0078 0 11.7188L0 4.6875L0 2.34375C0 1.05469 1.05469 0 2.34375 0L7.03125 0C8.32031 0 9.375 1.05469 9.375 2.34375L9.375 4.6875Z" id="Shape" fill="#AAB2BD" fill-rule="evenodd" stroke="none" />
          </g>
          <g id="Group" transform="translate(112.5 75)">
            <path d="M14.0625 0C21.8203 0 28.125 6.30468 28.125 14.0625C28.125 21.8203 21.8203 28.125 14.0625 28.125C6.30468 28.125 0 21.8203 0 14.0625C0 6.30468 6.30468 0 14.0625 0L14.0625 0Z" id="Shape" fill="#CCD1D9" fill-rule="evenodd" stroke="none" />
          </g>
          <g id="Group" transform="translate(121.875 84.375)">
            <path d="M0 4.6875C0 2.09866 2.09866 0 4.6875 0C7.27633 0 9.375 2.09866 9.375 4.6875C9.375 7.27633 7.27633 9.375 4.6875 9.375C2.09866 9.375 0 7.27633 0 4.6875Z" id="Circle" fill="#E6E9ED" fill-rule="evenodd" stroke="none" />
          </g>
        </g>
        <g id="Group">
          <path d="M7.03125 0C3.15469 0 0 3.15469 0 7.03125C0 10.9078 3.15469 14.0625 7.03125 14.0625C10.9078 14.0625 14.0625 10.9078 14.0625 7.03125C14.0625 3.15469 10.9078 0 7.03125 0L7.03125 0ZM7.03125 9.375C5.73985 9.375 4.6875 8.32265 4.6875 7.03125C4.6875 5.73985 5.73985 4.6875 7.03125 4.6875C8.32265 4.6875 9.375 5.73985 9.375 7.03125C9.375 8.32265 8.32265 9.375 7.03125 9.375L7.03125 9.375Z" transform="translate(121.875 84.375)" id="Shape" fill="#000000" fill-rule="evenodd" stroke="none" />
          <path d="M145.313 91.4063C145.313 82.3594 137.953 75 128.906 75C119.859 75 112.5 82.3594 112.5 91.4063C112.5 99.6539 118.624 106.481 126.563 107.625L126.563 131.25C126.563 136.42 122.358 140.625 117.187 140.625C112.017 140.625 107.813 136.42 107.813 131.25L107.813 65.625C110.398 65.625 112.5 63.5227 112.5 60.9375L112.5 55.7391C126.185 52.1086 135.937 39.6258 135.937 25.3148L135.937 14.0625C135.937 8.89219 131.733 4.6875 126.563 4.6875L121.875 4.6875C121.875 2.10234 119.773 0 117.187 0L112.5 0C109.915 0 107.813 2.10234 107.813 4.6875L107.813 9.375C107.813 11.9602 109.915 14.0625 112.5 14.0625L117.187 14.0625C119.773 14.0625 121.875 11.9602 121.875 9.375L126.563 9.375C129.148 9.375 131.25 11.4773 131.25 14.0625L131.25 25.3172C131.25 37.1016 123.483 47.4328 112.432 50.8922C112.104 48.6258 110.168 46.875 107.813 46.875L103.125 46.875C100.77 46.875 98.8336 48.6258 98.5055 50.8922C87.4547 47.4305 79.6875 37.0992 79.6875 25.3172L79.6875 14.0625C79.6875 11.4773 81.7898 9.375 84.375 9.375L89.0625 9.375C89.0625 11.9602 91.1648 14.0625 93.75 14.0625L98.4375 14.0625C101.023 14.0625 103.125 11.9602 103.125 9.375L103.125 4.6875C103.125 2.10235 101.023 3.35276e-06 98.4375 3.35276e-06L93.75 3.35276e-06C91.1648 3.35276e-06 89.0625 2.10235 89.0625 4.6875L84.375 4.6875C79.2047 4.6875 75 8.89219 75 14.0625L70.3125 14.0625L70.3125 9.375C70.3125 6.78985 68.2102 4.6875 65.625 4.6875L60.9375 4.6875C58.3523 4.6875 56.25 6.78985 56.25 9.375L56.25 14.0625L46.875 14.0625L46.875 9.375C46.875 6.78985 44.7727 4.6875 42.1875 4.6875L37.5 4.6875C34.9148 4.6875 32.8125 6.78985 32.8125 9.375L32.8125 14.0625L23.4375 14.0625L23.4375 9.375C23.4375 6.78985 21.3352 4.6875 18.75 4.6875L14.0625 4.6875C11.4773 4.6875 9.375 6.78985 9.375 9.375L9.375 14.0625L4.6875 14.0625C2.10234 14.0625 0 16.1648 0 18.75L0 121.875C0 124.46 2.10234 126.563 4.6875 126.563L103.125 126.563L103.125 131.25C103.125 139.005 109.432 145.313 117.187 145.313C124.943 145.313 131.25 139.005 131.25 131.25L131.25 107.625C139.188 106.481 145.313 99.6539 145.313 91.4063L145.313 91.4063ZM117.188 9.375L112.5 9.375L112.5 4.6875L117.188 4.6875L117.188 9.375ZM93.75 4.6875L98.4375 4.6875L98.4398 9.375L93.75 9.375L93.75 4.6875ZM103.125 51.5625L107.813 51.5625L107.815 60.9375L103.125 60.9375L103.125 51.5625ZM98.4375 55.7391L98.4375 60.9375C98.4375 63.5227 100.54 65.625 103.125 65.625L103.125 75L78.1008 75L70.282 94.5492L54.0281 55.0781L39.7594 85.9945L31.9172 70.3125L14.0625 70.3125L14.0625 46.875L83.5899 46.875C87.5344 51.0727 92.6297 54.1992 98.4375 55.7391L98.4375 55.7391ZM11.3719 101.808L31.2352 108.902C29.3109 111.757 28.2656 115.097 28.1648 118.601L11.3719 101.808ZM14.0625 97.7906L14.0625 75L29.0203 75L39.9281 96.8156L53.7844 66.7969L70.3453 107.016L81.2742 79.6875L103.125 79.6875L103.125 112.5L34.5328 112.5C35.1445 111.403 35.9016 110.381 36.8133 109.47L39.4336 106.852L14.0625 97.7906ZM79.957 42.1875L9.375 42.1875L9.375 96.1148L4.6875 94.4414L4.6875 37.5L77.4961 37.5C78.1875 39.1359 79.0102 40.6992 79.957 42.1875L79.957 42.1875ZM60.9375 9.375L65.625 9.375L65.6273 23.4375L60.9375 23.4375L60.9375 9.375ZM37.5 9.375L42.1875 9.375L42.1898 23.4375L37.5 23.4375L37.5 9.375ZM14.0625 9.375L18.75 9.375L18.7523 23.4375L14.0625 23.4375L14.0625 9.375ZM9.375 18.75L9.375 23.4375C9.375 26.0227 11.4773 28.125 14.0625 28.125L18.75 28.125C21.3352 28.125 23.4375 26.0227 23.4375 23.4375L23.4375 18.75L32.8125 18.75L32.8125 23.4375C32.8125 26.0227 34.9148 28.125 37.5 28.125L42.1875 28.125C44.7727 28.125 46.875 26.0227 46.875 23.4375L46.875 18.75L56.25 18.75L56.25 23.4375C56.25 26.0227 58.3523 28.125 60.9375 28.125L65.625 28.125C68.2102 28.125 70.3125 26.0227 70.3125 23.4375L70.3125 18.75L75 18.75L75 25.3172C75 27.8906 75.3352 30.3984 75.9328 32.8125L4.6875 32.8125L4.6875 18.75L9.375 18.75ZM4.6875 101.752L24.8109 121.875L4.6875 121.875L4.6875 101.752ZM32.8125 121.875L32.8125 119.13C32.8125 118.474 32.8734 117.827 32.9648 117.188L103.125 117.188L103.125 121.875L32.8125 121.875ZM128.906 103.125C122.445 103.125 117.188 97.868 117.188 91.4063C117.188 84.9445 122.445 79.6875 128.906 79.6875C135.368 79.6875 140.625 84.9445 140.625 91.4063C140.625 97.868 135.368 103.125 128.906 103.125L128.906 103.125Z" id="Shape" fill="#000000" fill-rule="evenodd" stroke="none" />
        </g>
      </g>
    </g>
  </g>
</svg>