<svg width="20" height="20" viewBox="0 0 20 20" fill="none" xmlns="http://www.w3.org/2000/svg">
<g clip-path="url(#clip0)">
<path d="M7.08511 19.0926C4.24355 19.0763 1.89307 13.2757 1.89307 10.3216C1.89307 5.49606 5.51302 4.43963 6.90813 4.43963C7.53684 4.43963 8.20818 4.68653 8.80031 4.90501C9.21439 5.05741 9.64263 5.21474 9.8808 5.21474C10.0234 5.21474 10.3593 5.08091 10.6559 4.96348C11.2885 4.71166 12.0756 4.39868 12.9922 4.39868C12.9938 4.39868 12.996 4.39868 12.9976 4.39868C13.6821 4.39868 15.7573 4.54889 17.0049 6.4225L17.2971 6.86167L16.8765 7.17905C16.2757 7.63242 15.1793 8.45945 15.1793 10.0976C15.1793 12.0379 16.421 12.7841 17.0175 13.143C17.2808 13.3014 17.5533 13.4647 17.5533 13.8219C17.5533 14.0552 15.6917 19.0637 12.9884 19.0637C12.3269 19.0637 11.8593 18.8649 11.4468 18.6895C11.0295 18.512 10.6695 18.3591 10.0747 18.3591C9.77314 18.3591 9.39185 18.5016 8.98818 18.6529C8.43655 18.8588 7.81216 19.0926 7.10368 19.0926H7.08511Z" fill="#006C76"/>
<path d="M13.2786 0C13.349 2.53858 11.5335 4.29972 9.72013 4.18927C9.42132 2.1634 11.5333 0 13.2786 0Z" fill="#006C76"/>
</g>
<defs>
<clipPath id="clip0">
<rect width="19.0926" height="19.0926" fill="white" transform="translate(0.177002)"/>
</clipPath>
</defs>
</svg>
