<?xml version="1.0" encoding="utf-8"?>
<svg width="25px" height="24px" viewbox="0 0 25 24" version="1.1" xmlns:xlink="http://www.w3.org/1999/xlink" xmlns="http://www.w3.org/2000/svg">
  <defs>
    <path d="M0 0L20 0L20 20L0 20L0 0Z" id="path_1" />
    <rect width="25" height="24" id="artboard_1" />
    <clipPath id="clip_1">
      <use xlink:href="#artboard_1" clip-rule="evenodd" />
    </clipPath>
    <clipPath id="mask_1">
      <use xlink:href="#path_1" />
    </clipPath>
  </defs>
  <g id="Pixelbook" clip-path="url(#clip_1)">
    <use xlink:href="#artboard_1" stroke="none" fill="#FFFFFF" />
    <g id="apllicant" transform="translate(2 2)">
      <path d="M0 0L20 0L20 20L0 20L0 0Z" id="Background" fill="none" fill-rule="evenodd" stroke="none" />
      <g clip-path="url(#mask_1)">
        <path d="M1.75781 20L13.4766 20C14.4459 20 15.2344 19.2115 15.2344 18.2422L15.2344 5.85938L11.1328 5.85938C10.1635 5.85938 9.375 5.07086 9.375 4.10156L9.375 0L1.75781 0C0.788516 0 0 0.788516 0 1.75781L0 18.2422C0 19.2115 0.788516 20 1.75781 20L1.75781 20ZM4.10156 8.24219L11.1328 8.24219C11.4567 8.24219 11.7188 8.50426 11.7188 8.82813C11.7188 9.15199 11.4567 9.41406 11.1328 9.41406L4.10156 9.41406C3.7777 9.41406 3.51563 9.15199 3.51563 8.82813C3.51563 8.50426 3.7777 8.24219 4.10156 8.24219L4.10156 8.24219ZM4.10156 10.5859L11.1328 10.5859C11.4567 10.5859 11.7188 10.848 11.7188 11.1719C11.7188 11.4957 11.4567 11.7578 11.1328 11.7578L4.10156 11.7578C3.7777 11.7578 3.51563 11.4957 3.51563 11.1719C3.51563 10.848 3.7777 10.5859 4.10156 10.5859L4.10156 10.5859ZM4.10156 12.9297L11.1328 12.9297C11.4567 12.9297 11.7188 13.1918 11.7188 13.5156C11.7188 13.8395 11.4567 14.1016 11.1328 14.1016L4.10156 14.1016C3.7777 14.1016 3.51563 13.8395 3.51563 13.5156C3.51563 13.1918 3.7777 12.9297 4.10156 12.9297L4.10156 12.9297ZM4.10156 15.2734L8.78906 15.2734C9.11293 15.2734 9.375 15.5355 9.375 15.8594C9.375 16.1832 9.11293 16.4453 8.78906 16.4453L4.10156 16.4453C3.7777 16.4453 3.51563 16.1832 3.51563 15.8594C3.51563 15.5355 3.7777 15.2734 4.10156 15.2734L4.10156 15.2734Z" transform="translate(2.3828125 0)" id="Shape" fill="#17A2B8" fill-rule="evenodd" stroke="none" />
        <path d="M0.585938 4.34418L4.34418 4.34418L0 0L0 3.75824C0 4.08152 0.262656 4.34418 0.585938 4.34418L0.585938 4.34418Z" transform="translate(12.9296875 0.34332275)" id="Shape" fill="#17A2B8" fill-rule="evenodd" stroke="none" />
      </g>
    </g>
  </g>
</svg>