<?xml version="1.0" encoding="utf-8"?>
<svg width="30px" height="30px" viewbox="0 0 30 30" version="1.1" xmlns:xlink="http://www.w3.org/1999/xlink" xmlns="http://www.w3.org/2000/svg">
  <defs>
    <path d="M0 0L20 0L20 20L0 20L0 0Z" id="path_1" />
    <path d="M0 0L16 0L16 16L0 16L0 0Z" id="path_2" />
    <clipPath id="mask_1">
      <use xlink:href="#path_1" />
    </clipPath>
    <clipPath id="mask_2">
      <use xlink:href="#path_2" />
    </clipPath>
  </defs>
  <g id="deactive" transform="translate(0.5 0.5)">
    <path d="M0 14.5C0 6.5 6.5 0 14.5 0C22.5 0 29 6.5 29 14.5C29 22.5 22.5 29 14.5 29C6.5 29 0 22.5 0 14.5L0 14.5Z" id="Ellipse" fill="#FFFFFF" fill-rule="evenodd" stroke="#006C76" stroke-width="1" />
    <g id="d" transform="translate(5 5)">
      <path d="M0 0L20 0L20 20L0 20L0 0Z" id="Background" fill="none" fill-rule="evenodd" stroke="none" />
      <g clip-path="url(#mask_1)">
        <g id="appointment" transform="translate(2 2)">
          <path d="M0 0L16 0L16 16L0 16L0 0Z" id="Background" fill="none" fill-rule="evenodd" stroke="none" />
          <g clip-path="url(#mask_2)">
            <g id="Group" transform="translate(0 0.6390381)">
              <path d="M14.4316 0L14.2488 0L14.2488 0.910625C14.2488 1.16937 14.0388 1.37937 13.78 1.37937C13.5209 1.37937 13.3113 1.16937 13.3113 0.910625L13.3113 0L11.9369 0L11.9369 0.910625C11.9369 1.16937 11.7269 1.37937 11.4681 1.37937C11.2091 1.37937 10.9994 1.16937 10.9994 0.910625L10.9994 0L9.625 0L9.625 0.910625C9.625 1.16937 9.415 1.37937 9.15625 1.37937C8.8975 1.37937 8.6875 1.16937 8.6875 0.910625L8.6875 0L7.3125 0L7.3125 0.910625C7.3125 1.16937 7.1025 1.37937 6.84375 1.37937C6.585 1.37937 6.375 1.16937 6.375 0.910625L6.375 0L5.00062 0L5.00062 0.910625C5.00062 1.16937 4.79094 1.37937 4.53187 1.37937C4.27312 1.37937 4.06312 1.16937 4.06312 0.910625L4.06312 0L2.68875 0L2.68875 0.910625C2.68875 1.16937 2.47906 1.37937 2.22 1.37937C1.96125 1.37937 1.75125 1.16937 1.75125 0.910625L1.75125 0L1.56813 0C0.703438 0 0 0.703438 0 1.56844L0 2.5L16 2.5L16 1.56844C16 0.703438 15.2963 0 14.4316 0L14.4316 0Z" transform="translate(0 1.379362)" id="Shape" fill="#006C76" fill-rule="evenodd" stroke="none" />
              <path d="M1.9775 3.37906L1.9775 4.8875L2.91094 4.8875L2.91094 3.37906C2.91094 3.12031 3.12062 2.91031 3.37969 2.91031L4.88781 2.91031L4.88781 1.97719L3.37969 1.97719C3.12062 1.97719 2.91094 1.76719 2.91094 1.50844L2.91094 0L1.9775 0L1.9775 1.50844C1.9775 1.76719 1.7675 1.97719 1.50875 1.97719L0 1.97719L0 2.91031L1.50875 2.91031C1.7675 2.91031 1.9775 3.12031 1.9775 3.37906L1.9775 3.37906Z" transform="translate(5.5559244 7.3256183)" id="Shape" fill="#006C76" fill-rule="evenodd" stroke="none" />
              <path d="M0 8.33656C0 9.20156 0.703438 9.905 1.56813 9.905L14.4316 9.905C15.2963 9.905 16 9.20156 16 8.33656L16 0L0 0L0 8.33656ZM4.61842 4.01719C4.61842 3.75813 4.82842 3.54844 5.08717 3.54844L6.59592 3.54844L6.59592 2.04001C6.59592 1.78094 6.80561 1.57126 7.06467 1.57126L8.93561 1.57126C9.19436 1.57126 9.40436 1.78094 9.40436 2.04001L9.40436 3.54844L10.9125 3.54844C11.1712 3.54844 11.3812 3.75813 11.3812 4.01719L11.3812 5.88782C11.3812 6.14688 11.1712 6.35657 10.9125 6.35657L9.40436 6.35657L9.40436 7.86501C9.40436 8.12407 9.19436 8.33376 8.93561 8.33376L7.06467 8.33376C6.80561 8.33376 6.59592 8.12407 6.59592 7.86501L6.59592 6.35657L5.08717 6.35657C4.82842 6.35657 4.61842 6.14688 4.61842 5.88782L4.61842 4.01719Z" transform="translate(0 4.8168626)" id="Shape" fill="#006C76" fill-rule="evenodd" stroke="none" />
              <path d="M0.9375 0.46875C0.9375 0.21 0.7275 0 0.46875 0C0.21 0 0 0.21 0 0.46875L0 1.37937L0.9375 1.37937L0.9375 0.46875Z" transform="translate(6.3750005 0)" id="Shape" fill="#006C76" fill-rule="evenodd" stroke="none" />
              <path d="M0.9375 0.46875C0.9375 0.21 0.727812 0 0.46875 0C0.21 0 0 0.21 0 0.46875L0 1.37937L0.9375 1.37937L0.9375 0.46875Z" transform="translate(4.063151 0)" id="Shape" fill="#006C76" fill-rule="evenodd" stroke="none" />
              <path d="M0.9375 0.46875C0.9375 0.21 0.727812 0 0.46875 0C0.21 0 0 0.21 0 0.46875L0 1.37937L0.9375 1.37937L0.9375 0.46875Z" transform="translate(1.751237 0)" id="Shape" fill="#006C76" fill-rule="evenodd" stroke="none" />
              <path d="M0.937501 0.46875C0.937501 0.21 0.727501 0 0.46875 0C0.209687 0 0 0.21 0 0.46875L0 1.37937L0.937501 1.37937L0.937501 0.46875Z" transform="translate(13.311265 0)" id="Shape" fill="#006C76" fill-rule="evenodd" stroke="none" />
              <path d="M0.9375 0.46875C0.9375 0.21 0.7275 0 0.46875 0C0.209687 0 0 0.21 0 0.46875L0 1.37937L0.9375 1.37937L0.9375 0.46875Z" transform="translate(10.99935 0)" id="Shape" fill="#006C76" fill-rule="evenodd" stroke="none" />
              <path d="M0.9375 0.46875C0.9375 0.21 0.7275 0 0.46875 0C0.21 0 0 0.21 0 0.46875L0 1.37937L0.9375 1.37937L0.9375 0.46875Z" transform="translate(8.6875 0)" id="Shape" fill="#006C76" fill-rule="evenodd" stroke="none" />
            </g>
          </g>
        </g>
      </g>
    </g>
  </g>
</svg>