<?xml version="1.0" encoding="utf-8"?>
<svg width="15px" height="16px" viewbox="0 0 15 16" version="1.1" xmlns:xlink="http://www.w3.org/1999/xlink" xmlns="http://www.w3.org/2000/svg">
  <defs>
    <filter id="filter_1">
      <feColorMatrix in="SourceGraphic" type="matrix" values="0 0 0 0 0 0 0 0 0 0.5058824 0 0 0 0 1 0 0 0 1 0" />
    </filter>
    <rect width="15" height="15" id="artboard_1" />
    <clipPath id="clip_1">
      <use xlink:href="#artboard_1" clip-rule="evenodd" />
    </clipPath>
  </defs>
  <g id="Pixelbook" clip-path="url(#clip_1)">
    <use xlink:href="#artboard_1" stroke="none" fill="#FFFFFF" />
    <g id="calendar-(1)" filter="url(#filter_1)">
      <g id="Group">
        <g id="Group">
          <g id="Group">
            <path d="M0 0.585938C0 0.262333 0.262333 0 0.585938 0C0.909542 0 1.17188 0.262333 1.17188 0.585938C1.17188 0.909542 0.909542 1.17188 0.585938 1.17188C0.262333 1.17188 0 0.909542 0 0.585938Z" transform="translate(10.722656 5.5664062)" id="Circle" fill="#000000" fill-rule="evenodd" stroke="none" />
            <path d="M12.6563 1.17188L11.8945 1.17188L11.8945 0.585938C11.8945 0.262324 11.6322 0 11.3086 0C10.985 0 10.7227 0.262324 10.7227 0.585938L10.7227 1.17188L8.05664 1.17188L8.05664 0.585938C8.05664 0.262324 7.79432 0 7.4707 0C7.14709 0 6.88477 0.262324 6.88477 0.585938L6.88477 1.17188L4.24805 1.17188L4.24805 0.585938C4.24805 0.262324 3.98572 0 3.66211 0C3.3385 0 3.07617 0.262324 3.07617 0.585938L3.07617 1.17188L2.34375 1.17188C1.05141 1.17188 0 2.22328 0 3.51563L0 12.6563C0 13.9486 1.05141 15 2.34375 15L6.82617 15C7.14979 15 7.41211 14.7377 7.41211 14.4141C7.41211 14.0904 7.14979 13.8281 6.82617 13.8281L2.34375 13.8281C1.69758 13.8281 1.17188 13.3024 1.17188 12.6563L1.17188 3.51563C1.17188 2.86945 1.69758 2.34375 2.34375 2.34375L3.07617 2.34375L3.07617 2.92969C3.07617 3.2533 3.3385 3.51563 3.66211 3.51563C3.98572 3.51563 4.24805 3.2533 4.24805 2.92969L4.24805 2.34375L6.88477 2.34375L6.88477 2.92969C6.88477 3.2533 7.14709 3.51563 7.4707 3.51563C7.79432 3.51563 8.05664 3.2533 8.05664 2.92969L8.05664 2.34375L10.7227 2.34375L10.7227 2.92969C10.7227 3.2533 10.985 3.51563 11.3086 3.51563C11.6322 3.51563 11.8945 3.2533 11.8945 2.92969L11.8945 2.34375L12.6563 2.34375C13.3024 2.34375 13.8281 2.86945 13.8281 3.51563L13.8281 6.85547C13.8281 7.17908 14.0904 7.44141 14.4141 7.44141C14.7377 7.44141 15 7.17908 15 6.85547L15 3.51563C15 2.22328 13.9486 1.17188 12.6563 1.17188L12.6563 1.17188Z" id="Shape" fill="#000000" fill-rule="evenodd" stroke="none" />
            <path d="M3.54492 0C1.59023 0 0 1.59023 0 3.54492C0 5.49961 1.59023 7.08984 3.54492 7.08984C5.49961 7.08984 7.08984 5.49961 7.08984 3.54492C7.08984 1.59023 5.49961 0 3.54492 0L3.54492 0ZM3.54492 5.91797C2.23644 5.91797 1.17188 4.85344 1.17188 3.54492C1.17188 2.23641 2.23644 1.17188 3.54492 1.17188C4.85341 1.17188 5.91797 2.23641 5.91797 3.54492C5.91797 4.85344 4.85341 5.91797 3.54492 5.91797L3.54492 5.91797Z" transform="translate(7.9101562 7.9101562)" id="Shape" fill="#000000" fill-rule="evenodd" stroke="none" />
            <path d="M1.43555 1.20117L1.17188 1.20117L1.17188 0.585938C1.17188 0.262325 0.909551 0 0.585938 0C0.262325 0 0 0.262325 0 0.585938L0 1.78711C0 2.11072 0.262325 2.37305 0.585938 2.37305L1.43555 2.37305C1.75916 2.37305 2.02148 2.11072 2.02148 1.78711C2.02148 1.4635 1.75916 1.20117 1.43555 1.20117L1.43555 1.20117Z" transform="translate(10.869141 9.667969)" id="Shape" fill="#000000" fill-rule="evenodd" stroke="none" />
            <path d="M0 0.585938C0 0.262333 0.262333 0 0.585938 0C0.909542 0 1.17188 0.262333 1.17188 0.585938C1.17188 0.909542 0.909542 1.17188 0.585938 1.17188C0.262333 1.17188 0 0.909542 0 0.585938Z" transform="translate(8.173828 5.5664062)" id="Circle" fill="#000000" fill-rule="evenodd" stroke="none" />
            <path d="M0 0.585938C0 0.262333 0.262333 0 0.585938 0C0.909542 0 1.17188 0.262333 1.17188 0.585938C1.17188 0.909542 0.909542 1.17188 0.585938 1.17188C0.262333 1.17188 0 0.909542 0 0.585938Z" transform="translate(5.625 8.115234)" id="Circle" fill="#000000" fill-rule="evenodd" stroke="none" />
            <path d="M0 0.585938C0 0.262333 0.262333 0 0.585938 0C0.909542 0 1.17188 0.262333 1.17188 0.585938C1.17188 0.909542 0.909542 1.17188 0.585938 1.17188C0.262333 1.17188 0 0.909542 0 0.585938Z" transform="translate(3.0761719 5.5664062)" id="Circle" fill="#000000" fill-rule="evenodd" stroke="none" />
            <path d="M0 0.585938C0 0.262333 0.262333 0 0.585938 0C0.909542 0 1.17188 0.262333 1.17188 0.585938C1.17188 0.909542 0.909542 1.17188 0.585938 1.17188C0.262333 1.17188 0 0.909542 0 0.585938Z" transform="translate(3.0761719 8.115234)" id="Circle" fill="#000000" fill-rule="evenodd" stroke="none" />
            <path d="M0 0.585938C0 0.262333 0.262333 0 0.585938 0C0.909542 0 1.17188 0.262333 1.17188 0.585938C1.17188 0.909542 0.909542 1.17188 0.585938 1.17188C0.262333 1.17188 0 0.909542 0 0.585938Z" transform="translate(3.0761719 10.6640625)" id="Circle" fill="#000000" fill-rule="evenodd" stroke="none" />
            <path d="M0 0.585938C0 0.262333 0.262333 0 0.585938 0C0.909542 0 1.17188 0.262333 1.17188 0.585938C1.17188 0.909542 0.909542 1.17188 0.585938 1.17188C0.262333 1.17188 0 0.909542 0 0.585938Z" transform="translate(5.625 10.6640625)" id="Circle" fill="#000000" fill-rule="evenodd" stroke="none" />
            <path d="M0 0.585938C0 0.262333 0.262333 0 0.585938 0C0.909542 0 1.17188 0.262333 1.17188 0.585938C1.17188 0.909542 0.909542 1.17188 0.585938 1.17188C0.262333 1.17188 0 0.909542 0 0.585938Z" transform="translate(5.625 5.5664062)" id="Circle" fill="#000000" fill-rule="evenodd" stroke="none" />
          </g>
        </g>
      </g>
    </g>
  </g>
</svg>