<svg width="27" height="27" viewBox="0 0 27 27" fill="none" xmlns="http://www.w3.org/2000/svg">
<path d="M27 8.91211C27 7.15025 27 5.91769 27 5.80078C27 4.49228 25.9355 3.42773 24.627 3.42773H24.3105V6.32812C24.3105 6.76498 23.9564 7.11914 23.5195 7.11914C23.0827 7.11914 22.7285 6.76498 22.7285 6.32812C22.7285 5.44013 22.7285 2.99362 22.7285 2.10938C22.7285 1.67252 22.3744 1.31836 21.9375 1.31836C21.5006 1.31836 21.1465 1.67252 21.1465 2.10938V3.42773H15.873V6.32812C15.873 6.76498 15.5189 7.11914 15.082 7.11914C14.6452 7.11914 14.291 6.76498 14.291 6.32812C14.291 5.44013 14.291 2.99362 14.291 2.10938C14.291 1.67252 13.9369 1.31836 13.5 1.31836C13.0631 1.31836 12.709 1.67252 12.709 2.10938V3.42773H7.43555V6.32812C7.43555 6.76498 7.08138 7.11914 6.64453 7.11914C6.20768 7.11914 5.85352 6.76498 5.85352 6.32812C5.85352 5.44013 5.85352 2.99362 5.85352 2.10938C5.85352 1.67252 5.49935 1.31836 5.0625 1.31836C4.62565 1.31836 4.27148 1.67252 4.27148 2.10938V3.42773H2.37305C1.06455 3.42773 0 4.49228 0 5.80078V8.91211H27Z" fill="#077883"/>
<path d="M0 10.4941V23.3086C0 24.6171 1.06455 25.6816 2.37305 25.6816H24.627C25.9355 25.6816 27 24.6171 27 23.3086C27 22.9698 27 15.5666 27 10.4941C26.5077 10.4941 0.27232 10.4941 0 10.4941ZM7.59375 21.4629H5.90625C5.4694 21.4629 5.11523 21.1087 5.11523 20.6719C5.11523 20.235 5.4694 19.8809 5.90625 19.8809H7.59375C8.0306 19.8809 8.38477 20.235 8.38477 20.6719C8.38477 21.1087 8.0306 21.4629 7.59375 21.4629ZM7.59375 18.0879H5.90625C5.4694 18.0879 5.11523 17.7337 5.11523 17.2969C5.11523 16.86 5.4694 16.5059 5.90625 16.5059H7.59375C8.0306 16.5059 8.38477 16.86 8.38477 17.2969C8.38477 17.7337 8.0306 18.0879 7.59375 18.0879ZM7.59375 14.7129H5.90625C5.4694 14.7129 5.11523 14.3587 5.11523 13.9219C5.11523 13.485 5.4694 13.1309 5.90625 13.1309H7.59375C8.0306 13.1309 8.38477 13.485 8.38477 13.9219C8.38477 14.3587 8.0306 14.7129 7.59375 14.7129ZM14.3438 21.4629H12.6562C12.2194 21.4629 11.8652 21.1087 11.8652 20.6719C11.8652 20.235 12.2194 19.8809 12.6562 19.8809H14.3438C14.7806 19.8809 15.1348 20.235 15.1348 20.6719C15.1348 21.1087 14.7806 21.4629 14.3438 21.4629ZM14.3438 18.0879H12.6562C12.2194 18.0879 11.8652 17.7337 11.8652 17.2969C11.8652 16.86 12.2194 16.5059 12.6562 16.5059H14.3438C14.7806 16.5059 15.1348 16.86 15.1348 17.2969C15.1348 17.7337 14.7806 18.0879 14.3438 18.0879ZM14.3438 14.7129H12.6562C12.2194 14.7129 11.8652 14.3587 11.8652 13.9219C11.8652 13.485 12.2194 13.1309 12.6562 13.1309H14.3438C14.7806 13.1309 15.1348 13.485 15.1348 13.9219C15.1348 14.3587 14.7806 14.7129 14.3438 14.7129ZM21.0938 21.4629H19.4062C18.9694 21.4629 18.6152 21.1087 18.6152 20.6719C18.6152 20.235 18.9694 19.8809 19.4062 19.8809H21.0938C21.5306 19.8809 21.8848 20.235 21.8848 20.6719C21.8848 21.1087 21.5306 21.4629 21.0938 21.4629ZM21.0938 18.0879H19.4062C18.9694 18.0879 18.6152 17.7337 18.6152 17.2969C18.6152 16.86 18.9694 16.5059 19.4062 16.5059H21.0938C21.5306 16.5059 21.8848 16.86 21.8848 17.2969C21.8848 17.7337 21.5306 18.0879 21.0938 18.0879ZM21.0938 14.7129H19.4062C18.9694 14.7129 18.6152 14.3587 18.6152 13.9219C18.6152 13.485 18.9694 13.1309 19.4062 13.1309H21.0938C21.5306 13.1309 21.8848 13.485 21.8848 13.9219C21.8848 14.3587 21.5306 14.7129 21.0938 14.7129Z" fill="#077883"/>
</svg>
