<svg id="Capa_1" enable-background="new 0 0 512 512" height="512" viewBox="0 0 512 512" width="512" xmlns="http://www.w3.org/2000/svg"><g><path d="m361 45v422c0 24.899-20.099 45-45 45h-210c-24.901 0-45-20.101-45-45v-422c0-24.901 20.099-45 45-45h210c24.901 0 45 20.099 45 45z" fill="#51489a"/><path d="m361 45v422c0 24.899-20.099 45-45 45h-105v-512h105c24.901 0 45 20.099 45 45z" fill="#39326c"/><path d="m331 45v422c0 8.399-6.599 15-15 15h-210c-8.401 0-15-6.601-15-15v-422c0-8.401 6.599-15 15-15h210c8.401 0 15 6.599 15 15z" fill="#f3f5f9"/><path d="m331 45v422c0 8.399-6.599 15-15 15h-105v-452h105c8.401 0 15 6.599 15 15z" fill="#e2dff4"/><path d="m241 75c0 8.401-6.599 15-15 15h-30c-8.401 0-15-6.599-15-15s6.599-15 15-15h30c8.401 0 15 6.599 15 15z" fill="#51489a"/><path d="m241 437c0 8.399-6.599 15-15 15h-30c-8.401 0-15-6.601-15-15 0-8.401 6.599-15 15-15h30c8.401 0 15 6.599 15 15z" fill="#51489a"/><path d="m241 437c0 8.399-6.599 15-15 15h-15v-30h15c8.401 0 15 6.599 15 15z" fill="#39326c"/><path d="m226 90h-15v-30h15c8.401 0 15 6.599 15 15s-6.599 15-15 15z" fill="#39326c"/><path d="m346 151c-57.9 0-105 47.1-105 105 0 16.199 3.6 31.5 10.499 45.899 5.402 11.1 3.301 24.3-5.999 33.6-4.501 4.2-5.7 10.501-3.301 16.201 2.401 5.7 7.801 9.3 13.801 9.3h90c57.9 0 105-47.1 105-105s-47.1-105-105-105z" fill="#ff6b6b"/><path d="m451 256c0 57.9-47.1 105-105 105v-210c57.9 0 105 47.1 105 105z" fill="#e62e77"/><path d="m391 256c0 8.399-6.599 15-15 15h-15v15c0 8.399-6.599 15-15 15s-15-6.601-15-15v-15h-15c-8.401 0-15-6.601-15-15 0-8.401 6.599-15 15-15h15v-15c0-8.401 6.599-15 15-15s15 6.599 15 15v15h15c8.401 0 15 6.599 15 15z" fill="#f3f5f9"/><path d="m391 256c0 8.399-6.599 15-15 15h-15v15c0 8.399-6.599 15-15 15v-90c8.401 0 15 6.599 15 15v15h15c8.401 0 15 6.599 15 15z" fill="#e2dff4"/></g></svg>