<?xml version="1.0" encoding="utf-8"?>
<!-- Generator: Adobe Illustrator 21.0.0, SVG Export Plug-In . SVG Version: 6.00 Build 0)  -->
<svg version="1.1" id="Layer_1" xmlns="http://www.w3.org/2000/svg" xmlns:xlink="http://www.w3.org/1999/xlink" x="0px" y="0px"
	 viewBox="0 0 15 15" style="enable-background:new 0 0 15 15;" xml:space="preserve">
<style type="text/css">
	.st0{fill:#E67307;}
</style>
<desc>Created with Lunacy</desc>
<g id="Group_1_">
	<g id="Group">
		<path id="Shape" class="st0" d="M12.8,2.2c-2.9-2.9-7.7-2.9-10.6,0C0.8,3.6,0,5.5,0,7.5c0,2,0.8,3.9,2.2,5.3
			C3.7,14.3,5.6,15,7.5,15c1.9,0,3.8-0.7,5.3-2.2C15.7,9.9,15.7,5.1,12.8,2.2L12.8,2.2z M12,12c-2.5,2.5-6.5,2.5-9,0
			c-1.2-1.2-1.9-2.8-1.9-4.5S1.8,4.2,3,3c2.5-2.5,6.5-2.5,9,0C14.5,5.5,14.5,9.5,12,12L12,12z"/>
	</g>
</g>
<g id="Group_2_" transform="translate(4.899536 4.82666)">
	<path id="Shape_1_" class="st0" d="M5.1,4.3L3.5,2.6L5.1,1c0.2-0.2,0.2-0.6,0-0.8c-0.2-0.2-0.6-0.2-0.8,0L2.6,1.8L1,0.2
		c-0.2-0.2-0.6-0.2-0.8,0c-0.2,0.2-0.2,0.6,0,0.8l1.6,1.6L0.2,4.3c-0.2,0.2-0.2,0.6,0,0.8c0.1,0.1,0.3,0.2,0.4,0.2S0.9,5.2,1,5.1
		l1.6-1.6l1.6,1.6c0.1,0.1,0.3,0.2,0.4,0.2c0.1,0,0.3-0.1,0.4-0.2C5.3,4.9,5.3,4.5,5.1,4.3L5.1,4.3z"/>
</g>
</svg>
