<?xml version="1.0" encoding="utf-8"?>
<svg width="50px" height="50px" viewbox="0 0 50 50" version="1.1" xmlns:xlink="http://www.w3.org/1999/xlink" xmlns="http://www.w3.org/2000/svg">
  <defs>
    <path d="M0 0L35 0L35 35L0 35L0 0Z" id="path_1" />
    <rect width="50" height="50" id="artboard_1" />
    <clipPath id="clip_1">
      <use xlink:href="#artboard_1" clip-rule="evenodd" />
    </clipPath>
    <clipPath id="mask_1">
      <use xlink:href="#path_1" />
    </clipPath>
  </defs>
  <g id="Pixelbook" clip-path="url(#clip_1)">
    <g id="man" transform="translate(7 7)">
      <path d="M0 0L35 0L35 35L0 35L0 0Z" id="Background" fill="none" fill-rule="evenodd" stroke="none" />
      <g clip-path="url(#mask_1)">
        <path d="M21.4375 6.38313C21.4375 13.7936 21.4386 13.3314 21.4352 13.4091C21.4166 13.831 20.7813 13.8098 20.7813 13.3875L20.7813 10.5897C20.7813 7.69511 18.426 5.33969 15.5313 5.33969L8.09375 5.33969C5.19954 5.33969 2.84375 7.6946 2.84375 10.5897L2.84375 13.3875C2.84375 13.8098 2.20835 13.8309 2.18983 13.4091C2.18641 13.3314 2.1875 13.8076 2.1875 6.19792C2.1875 4.92552 3.12375 3.8675 4.34365 3.67646C5.39073 1.43135 7.62198 0 10.1245 0L15.0544 0C18.5797 0 21.4375 2.85782 21.4375 6.38313L21.4375 6.38313ZM15.5312 6.50636L8.09375 6.50636C5.84208 6.50636 4.01042 8.33875 4.01042 10.5897C4.01042 10.6068 4.00998 15.4274 4.01114 15.4445C4.0775 19.6904 7.55198 23.1233 11.8125 23.1233C16.0942 23.1233 19.581 19.6569 19.6146 15.3825L19.6146 10.5897C19.6146 8.33802 17.7829 6.50635 15.5312 6.50635L15.5312 6.50636ZM18.0104 25.2948L18.0104 27.4598C18.0104 27.7104 18.1703 27.9336 18.4082 28.0123C19.658 28.425 20.5625 29.6034 20.5625 30.9896L20.5625 33.6675C20.5625 33.9782 20.3281 34.2495 20.018 34.2696C19.6782 34.2915 19.3958 34.0225 19.3958 33.6875L19.3958 31.0315C19.3958 29.9602 18.5575 29.0535 17.4867 29.0217C16.374 28.9887 15.4583 29.8842 15.4583 30.9896L15.4583 33.6675C15.4583 33.9782 15.2239 34.2495 14.9138 34.2696C14.5741 34.2915 14.2917 34.0225 14.2917 33.6875L14.2917 30.9896C14.2917 29.6034 15.1962 28.425 16.4459 28.0123C16.6839 27.9336 16.8438 27.7104 16.8438 27.4598L16.8438 24.9476C16.8438 24.8082 16.6817 24.7304 16.5725 24.8136C11.8014 28.4506 12.0851 28.2933 11.8129 28.2917C11.5289 28.29 11.8547 28.474 7.05192 24.8133C6.9467 24.733 6.78125 24.8028 6.78125 24.9471L6.78125 28.259C6.78125 28.4842 6.91024 28.6907 7.11455 28.7854C7.89644 29.1476 8.42997 29.958 8.3825 30.8852C8.32628 31.9828 7.44114 32.8816 6.34448 32.9534C5.07223 33.0369 4.01042 32.0255 4.01042 30.7708C4.01042 29.8937 4.52944 29.136 5.2764 28.7877C5.48224 28.6918 5.61458 28.4862 5.61458 28.2591L5.61458 25.2853C5.61458 25.1118 5.46372 24.9745 5.29149 24.9952C2.30883 25.3549 0 27.8906 0 30.9706L0 34.4167C0 34.7388 0.261188 35 0.583333 35L23.0417 35C23.3638 35 23.625 34.7388 23.625 34.4167L23.625 30.9438C23.625 27.8748 21.3076 25.3966 18.3366 25.0051C18.1634 24.9823 18.0104 25.12 18.0104 25.2948L18.0104 25.2948ZM12.1661 26.7054L15.2782 24.3333C15.5932 24.0931 15.3273 23.5885 14.9545 23.7226C12.763 24.5107 10.5957 24.4441 8.68095 23.7261C8.29412 23.5811 8.03213 24.0935 8.34626 24.3329L11.4589 26.7054C11.6678 26.8645 11.9572 26.8645 12.1661 26.7054L12.1661 26.7054ZM5.17708 30.7708C5.17708 31.3337 5.635 31.7917 6.19792 31.7917C6.76083 31.7917 7.21875 31.3337 7.21875 30.7708C7.21875 30.2079 6.76083 29.75 6.19792 29.75C5.635 29.75 5.17708 30.2079 5.17708 30.7708L5.17708 30.7708Z" transform="translate(5.6875 0)" id="Shape" fill="#006C76" fill-rule="evenodd" stroke="none" />
      </g>
    </g>
  </g>
</svg>