<?xml version="1.0" encoding="utf-8"?>
<svg width="80px" height="80px" viewBox="0 0 80 80" version="1.1" xmlns:xlink="http://www.w3.org/1999/xlink" xmlns="http://www.w3.org/2000/svg">
  <desc>Created with Lunacy</desc>
  <defs>
    <filter id="filter_1">
      <feColorMatrix in="SourceGraphic" type="matrix" values="0 0 0 0 0 0 0 0 0 0.42352942 0 0 0 0 0.4627451 0 0 0 1 0" />
    </filter>
    <path d="M0 0L80 0L80 80L0 80L0 0Z" id="path_1" />
    <clipPath id="mask_1">
      <use xlink:href="#path_1" />
    </clipPath>
  </defs>
  <g id="cloud-computing" filter="url(#filter_1)">
    <path d="M0 0L80 0L80 80L0 80L0 0Z" id="Background" fill="none" fill-rule="evenodd" stroke="none" />
    <g clip-path="url(#mask_1)">
      <g id="Group" transform="translate(0 3.333374)">
        <g id="Group">
          <path d="M62.82 20.0767C60.5033 8.53672 50.2133 0 38.3333 0C24.5466 0 13.3333 11.2133 13.3333 25C13.3333 25.5633 13.3566 26.14 13.4066 26.75C5.88328 27.55 0 33.9334 0 41.6667C0 49.9367 6.73 56.6667 15 56.6667C15.92 56.6667 16.6667 55.92 16.6667 55C16.6667 54.08 15.92 53.3333 15 53.3333C8.56672 53.3333 3.33328 48.1 3.33328 41.6666C3.33328 35.2331 8.56656 29.9998 14.8866 29.9933C14.9598 30.0066 15.1666 30.0266 15.2398 30.0266C15.7066 29.9766 16.1966 29.8298 16.5198 29.4633C16.8431 29.0967 16.9898 28.6066 16.9198 28.1233C16.7466 26.9333 16.6666 25.94 16.6666 25C16.6666 13.0533 26.3866 3.33328 38.3333 3.33328C49.0366 3.33328 58.2466 11.3266 59.7566 21.9266C59.8766 22.7599 60.8966 23.3633 61.6666 23.3333C69.9366 23.3333 76.6666 30.0633 76.6666 38.3333C76.6666 46.6033 69.9366 53.3333 61.6666 53.3333C60.7466 53.3333 59.9998 54.08 59.9998 55C59.9998 55.92 60.7466 56.6667 61.6666 56.6667C71.7733 56.6667 80 48.4434 80 38.3334C80 28.6967 72.5267 20.7734 62.82 20.0767L62.82 20.0767Z" id="Shape" fill="#000000" fill-rule="evenodd" stroke="none" />
        </g>
      </g>
      <g id="Group" transform="translate(20 40)">
        <g id="Group">
          <path d="M18.3333 0C8.22672 0 0 8.22328 0 18.3333C0 28.4433 8.22672 36.6666 18.3333 36.6666C28.4398 36.6666 36.6666 28.4433 36.6666 18.3333C36.6666 8.22328 28.44 0 18.3333 0L18.3333 0ZM18.3333 33.3333C10.0633 33.3333 3.33331 26.6033 3.33331 18.3333C3.33331 10.0633 10.0633 3.33325 18.3333 3.33325C26.6033 3.33325 33.3333 10.0633 33.3333 18.3333C33.3333 26.6033 26.6033 33.3333 18.3333 33.3333L18.3333 33.3333Z" id="Shape" fill="#000000" fill-rule="evenodd" stroke="none" />
        </g>
      </g>
      <g id="Group" transform="translate(36.666565 46.666748)">
        <g id="Group">
          <path d="M1.66672 0C0.74672 0 0 0.746717 0 1.66672L0 21.6667C0 22.5867 0.74672 23.3334 1.66672 23.3334C2.58672 23.3334 3.33344 22.5866 3.33344 21.6666L3.33344 1.66656C3.33344 0.746565 2.58672 0 1.66672 0L1.66672 0Z" id="Shape" fill="#000000" fill-rule="evenodd" stroke="none" />
        </g>
      </g>
      <g id="Group" transform="translate(30.00238 46.665894)">
        <g id="Group">
          <path d="M16.1777 7.15421L9.51094 0.487499C8.86094 -0.162501 7.80422 -0.162501 7.15422 0.487499L0.487499 7.15421C-0.162501 7.80421 -0.162501 8.86093 0.487499 9.51093C1.1375 10.1609 2.19422 10.1609 2.84422 9.51093L8.33094 4.02422L13.8177 9.51421C14.1444 9.83749 14.5709 10.0009 14.9977 10.0009C15.4244 10.0009 15.8509 9.83765 16.1777 9.51093C16.8277 8.86093 16.8277 7.80421 16.1777 7.15421L16.1777 7.15421Z" id="Shape" fill="#000000" fill-rule="evenodd" stroke="none" />
        </g>
      </g>
    </g>
  </g>
</svg>