<?xml version="1.0" encoding="utf-8"?>
<svg width="50px" height="50px" viewbox="0 0 50 50" version="1.1" xmlns:xlink="http://www.w3.org/1999/xlink" xmlns="http://www.w3.org/2000/svg">
  <defs>
    <rect width="50" height="50" id="artboard_1" />
    <clipPath id="clip_1">
      <use xlink:href="#artboard_1" clip-rule="evenodd" />
    </clipPath>
  </defs>
  <g id="Pixelbook" clip-path="url(#clip_1)">
    <g id="patient-(2)" transform="translate(5 5)">
      <path d="M10.4167 20L9.58333 20C7.975 20 6.66667 18.6917 6.66667 17.0833L6.66667 13.3333L2.91667 13.3333C1.30833 13.3333 0 12.025 0 10.4167L0 9.58333C0 7.975 1.30833 6.66667 2.91667 6.66667L6.66667 6.66667L6.66667 2.91667C6.66667 1.30833 7.975 0 9.58333 0L10.4167 0C12.025 0 13.3333 1.30833 13.3333 2.91667L13.3333 6.66667L17.0833 6.66667C18.6917 6.66667 20 7.975 20 9.58333L20 10.4167C20 12.025 18.6917 13.3333 17.0833 13.3333L13.3333 13.3333L13.3333 17.0833C13.3333 18.6917 12.025 20 10.4167 20L10.4167 20Z" transform="translate(20 20)" id="Shape" fill="#006C76" fill-rule="evenodd" stroke="none" />
      <path d="M0 8.33333C0 3.73096 3.73096 0 8.33333 0C12.9357 0 16.6667 3.73096 16.6667 8.33333C16.6667 12.9357 12.9357 16.6667 8.33333 16.6667C3.73096 16.6667 0 12.9357 0 8.33333Z" transform="translate(6.666666 0)" id="Circle" fill="#006C76" fill-rule="evenodd" stroke="none" />
      <path d="M16.6667 10.4167L16.6667 9.58333C16.6667 6.13667 19.47 3.33333 22.9167 3.33333L23.3333 3.33333L23.3333 2.91667C23.3333 1.99667 23.545 1.13 23.9033 0.341667C23.1867 0.141667 22.4467 0 21.6667 0L8.33333 0C3.73167 0 0 3.73167 0 8.33333L0 13.75C0 14.44 0.56 15 1.25 15L18.7 15C17.4583 13.8567 16.6667 12.2333 16.6667 10.4167L16.6667 10.4167Z" transform="translate(0 20)" id="Shape" fill="#006C76" fill-rule="evenodd" stroke="none" />
    </g>
  </g>
</svg>