<?xml version="1.0" encoding="utf-8"?>
<!-- Generator: Adobe Illustrator 21.0.0, SVG Export Plug-In . SVG Version: 6.00 Build 0)  -->
<svg version="1.1" id="Layer_1" xmlns="http://www.w3.org/2000/svg" xmlns:xlink="http://www.w3.org/1999/xlink" x="0px" y="0px"
	 viewBox="0 0 25 25" style="enable-background:new 0 0 25 25;" xml:space="preserve">
<style type="text/css">
	.st0{fill:#083863;}
	.st1{fill:#CAFBFF;}
</style>
<desc>Created with Lunacy</desc>
<g id="Group">
	<path class="st0" d="M16.7,25H8.6c-1.6,0-3-1.2-3.2-2.8L3.8,7.6c0-0.2,0-0.4,0.2-0.5C4,7,4.2,6.9,4.4,6.9h16.2
		c0.2,0,0.4,0.1,0.5,0.2c0.1,0.1,0.2,0.3,0.2,0.5l-1.4,14.4C19.7,23.7,18.3,25,16.7,25L16.7,25z"/>
	<path class="st1" d="M5.1,8.2L6.7,22c0.1,1,0.9,1.7,1.9,1.7h8.1c1,0,1.8-0.7,1.9-1.7l1.3-13.8L5.1,8.2L5.1,8.2z"/>
	<path id="Shape_1_" class="st0" d="M22.9,2.9h-6.6v-1c0-1-0.7-1.8-1.7-1.9c0,0-0.1,0-0.1,0h-4c-1,0-1.8,0.8-1.8,1.8
		c0,0,0,0.1,0,0.1v1H2.1c-0.4,0-0.6,0.3-0.6,0.6s0.3,0.6,0.6,0.6h20.8c0.4,0,0.6-0.3,0.6-0.6S23.3,2.9,22.9,2.9L22.9,2.9z M9.9,2.9
		v-1c0-0.3,0.2-0.5,0.4-0.6c0,0,0.1,0,0.1,0h4c0.3,0,0.5,0.2,0.5,0.5c0,0,0,0.1,0,0.1v1L9.9,2.9L9.9,2.9z"/>
</g>
</svg>
