<?xml version="1.0" encoding="utf-8"?>
<svg width="31px" height="31px" viewbox="0 0 31 31" version="1.1" xmlns:xlink="http://www.w3.org/1999/xlink" xmlns="http://www.w3.org/2000/svg">
  <g id="add_more_item-2" transform="translate(0.5 0.5)">
    <g id="Group">
      <g id="Group">
        <g id="Group">
          <path d="M15 0C14.3528 0 13.8281 0.524648 13.8281 1.17188C13.8281 1.8191 14.3528 2.34375 15 2.34375C21.9948 2.34375 27.6563 8.00438 27.6563 15C27.6563 21.9948 21.9956 27.6563 15 27.6563C8.0052 27.6563 2.34375 21.9956 2.34375 15C2.34375 14.3528 1.8191 13.8281 1.17188 13.8281C0.524648 13.8281 0 14.3528 0 15C0 23.29 6.70881 30 15 30C23.29 30 30 23.2912 30 15C30 6.70998 23.2912 0 15 0L15 0Z" transform="matrix(-4.371139E-08 1 -1 -4.371139E-08 30 0)" id="Shape" fill="#006C76" fill-rule="evenodd" stroke="#FFFFFF" stroke-width="1" />
          <g id="delete-icon-new" transform="translate(7 6)">
            <g id="Group">
              <path d="M8.79546 12.3409L3.27273 12.3409C2.18182 12.3409 1.22727 11.5227 1.09091 10.4318L0 0.477272C0 0.340909 0 0.204545 0.136364 0.136363C0.136364 0.0681817 0.272727 0 0.409091 0L11.4545 0C11.5909 0 11.7273 0.0681817 11.7955 0.136363C11.8636 0.204545 11.9318 0.340909 11.9318 0.477272L10.9773 10.2955C10.8409 11.4545 9.88636 12.3409 8.79546 12.3409L8.79546 12.3409L8.79546 12.3409Z" transform="translate(1.5681821 4.7045455)" id="Shape" fill="#083863" fill-rule="evenodd" stroke="none" />
              <path d="M0 0L1.09091 9.40909C1.15909 10.0909 1.70455 10.5682 2.38636 10.5682L7.90909 10.5682C8.59091 10.5682 9.13636 10.0909 9.20455 9.40909L10.0909 0L0 0L0 0L0 0Z" transform="translate(2.4545457 5.590909)" id="Shape" fill="#CAFBFF" fill-rule="evenodd" stroke="none" />
              <path d="M14.5909 1.97727L10.0909 1.97727L10.0909 1.29545C10.0909 0.613636 9.61364 0.0681818 8.93182 0C8.93182 0 8.86364 0 8.86364 0L6.13636 0C5.45455 0 4.90909 0.545455 4.90909 1.22727C4.90909 1.22727 4.90909 1.29545 4.90909 1.29545L4.90909 1.97727L0.409091 1.97727C0.136364 1.97727 0 2.18182 0 2.38636C0 2.59091 0.204546 2.79545 0.409091 2.79545L14.5909 2.79545C14.8636 2.79545 15 2.59091 15 2.38636C15 2.18182 14.8636 1.97727 14.5909 1.97727L14.5909 1.97727L14.5909 1.97727ZM5.72727 1.97727L5.72727 1.29545C5.72727 1.09091 5.86364 0.954545 6 0.886364C6 0.886364 6.06818 0.886364 6.06818 0.886364L8.79545 0.886364C9 0.886364 9.13636 1.02273 9.13636 1.22727C9.13636 1.22727 9.13636 1.29545 9.13636 1.29545L9.13636 1.97727L5.72727 1.97727L5.72727 1.97727L5.72727 1.97727Z" id="Shape_1_" fill="#083863" fill-rule="evenodd" stroke="none" />
            </g>
          </g>
        </g>
      </g>
    </g>
  </g>
</svg>