<?xml version="1.0" encoding="utf-8"?>
<svg width="40px" height="45px" viewbox="0 0 40 45" version="1.1" xmlns:xlink="http://www.w3.org/1999/xlink" xmlns="http://www.w3.org/2000/svg">
  <defs>
    <path d="M0 0L40 0L40 44L0 44L0 0Z" id="path_1" />
    <clipPath id="mask_1">
      <use xlink:href="#path_1" />
    </clipPath>
  </defs>
  <g id="add-button">
    <path d="M0 0L40 0L40 44L0 44L0 0Z" id="Background" fill="none" fill-rule="evenodd" stroke="none" />
    <g clip-path="url(#mask_1)">
      <path d="M0 20C0 8.9543 8.9543 0 20 0C31.0457 0 40 8.9543 40 20C40 31.0457 31.0457 40 20 40C8.9543 40 0 31.0457 0 20Z" transform="translate(0 2)" id="Circle" fill="#000000" fill-rule="evenodd" stroke="none" />
      <path d="M17.136 10.512L10.872 10.512L6.228 10.512L6.228 16.632L6.228 10.512L0 10.512L0 6.12L10.8757 6.12L10.872 6.03131L10.872 0L10.872 6.12L10.872 6.12L17.136 6.12L17.136 10.512L17.136 10.512Z" transform="translate(11.232002 14.084015)" id="Shape" fill="#FFFFFF" fill-rule="evenodd" stroke="none" />
    </g>
  </g>
</svg>