<?xml version="1.0" encoding="utf-8"?>
<svg width="120px" height="120px" viewBox="0 0 120 120" version="1.1" xmlns:xlink="http://www.w3.org/1999/xlink" xmlns="http://www.w3.org/2000/svg">
  <desc>Created with Lunacy</desc>
  <defs>
    <path d="M0 0L120 0L120 120L0 120L0 0Z" id="path_1" />
    <clipPath id="mask_1">
      <use xlink:href="#path_1" />
    </clipPath>
  </defs>
  <g id="population">
    <path d="M0 0L120 0L120 120L0 120L0 0Z" id="Background" fill="none" fill-rule="evenodd" stroke="none" />
    <g clip-path="url(#mask_1)">
      <g id="Group" transform="translate(1.9985657 5.340576E-05)">
        <g id="Group" transform="translate(1.9999695 39.99775)">
          <path d="M28.0008 14.0003L28.0008 26.0006L1.99997 26.0006C0.896742 25.9973 0.00328132 25.1038 0 24.0006L0 14.0003C-0.000468951 7.42285 4.57605 1.73138 11.0002 0.319935C11.9865 0.110395 12.992 0.00328311 14.0003 7.15274e-06C17.7143 -0.00280387 21.2769 1.47145 23.9031 4.09769C26.5293 6.72369 28.0034 10.2865 28.0008 14.0003L28.0008 14.0003Z" transform="translate(0 52.00139)" id="Shape" fill="#2E7D32" fill-rule="evenodd" stroke="none" />
          <path d="M28.0006 14.0003L28.0006 26.0006L0 26.0006L0 14.0003C-0.000468504 7.42286 4.57605 1.73138 11.0002 0.319935C11.9865 0.110395 12.992 0.00328311 14.0003 7.15274e-06C17.7143 -0.00280387 21.2769 1.47145 23.9031 4.09769C26.5291 6.7237 28.0034 10.2865 28.0006 14.0003L28.0006 14.0003Z" transform="translate(28.000763 52.00139)" id="Shape" fill="#FDD834" fill-rule="evenodd" stroke="none" />
          <path d="M28.0008 14.0003L28.0008 26.0006L0 26.0006L0 14.0003C-0.000468504 7.42286 4.57605 1.73138 11.0002 0.319935C11.9865 0.110395 12.992 0.00328311 14.0003 7.15274e-06C17.7143 -0.00280387 21.2769 1.47145 23.9031 4.09769C26.5293 6.7237 28.0036 10.2865 28.0008 14.0003L28.0008 14.0003Z" transform="translate(56.001343 52.00139)" id="Shape" fill="#AD1457" fill-rule="evenodd" stroke="none" />
          <path d="M28.0008 14.0003L28.0008 24.0006C27.9975 25.1039 27.1041 25.9973 26.0008 26.0006L0 26.0006L0 14.0003C-0.000472081 7.42286 4.57605 1.73138 11.0002 0.319935C11.9865 0.110395 12.992 0.00328311 14.0003 7.15274e-06C17.7143 -0.00280387 21.2769 1.47145 23.9031 4.09769C26.5293 6.7237 28.0034 10.2865 28.0008 14.0003L28.0008 14.0003Z" transform="translate(84.00214 52.00139)" id="Shape" fill="#00838F" fill-rule="evenodd" stroke="none" />
          <path d="M22.0006 13.6803L22.0006 25.6806L1.99997 25.6806C0.896742 25.6774 0.00328132 24.7839 0 23.6807L0 13.6803C-0.000468952 7.10292 4.57605 1.41144 11.0002 0C17.4246 1.41144 22.0011 7.10291 22.0006 13.6803L22.0006 13.6803Z" transform="translate(0 52.32135)" id="Shape" fill="#4CAF50" fill-rule="evenodd" stroke="none" />
          <path d="M22.0006 13.6804L22.0006 25.6807L0 25.6807L0 13.6804C-0.000468504 7.10292 4.57605 1.41144 11.0002 0C17.4246 1.41145 22.0013 7.10292 22.0006 13.6804L22.0006 13.6804Z" transform="translate(28.00055 52.32132)" id="Shape" fill="#FFEB3A" fill-rule="evenodd" stroke="none" />
          <path d="M22.0006 13.6804L22.0006 25.6807L0 25.6807L0 13.6804C-0.000468504 7.10292 4.57605 1.41144 11.0002 0C17.4246 1.41145 22.0011 7.10292 22.0006 13.6804L22.0006 13.6804Z" transform="translate(56.001343 52.32132)" id="Shape" fill="#E91E63" fill-rule="evenodd" stroke="none" />
          <path d="M22.0006 13.6804L22.0006 23.6807C21.9974 24.7839 21.1039 25.6774 20.0007 25.6807L0 25.6807L0 13.6804C-0.000472081 7.10292 4.57605 1.41144 11.0002 0C17.4246 1.41146 22.0011 7.10293 22.0006 13.6804L22.0006 13.6804Z" transform="translate(84.00214 52.32132)" id="Shape" fill="#00BCD4" fill-rule="evenodd" stroke="none" />
          <path d="M96.0096 30.0008C95.2879 30.0038 94.5679 30.0718 93.8582 30.2037L93.8694 30.2007C93.3899 26.9927 91.6288 24.1166 88.9894 22.231C86.35 20.3454 83.0586 19.6116 79.8682 20.1975C79.388 16.9903 77.6266 14.1151 74.9877 12.23C72.3486 10.3449 69.0576 9.6115 65.8679 10.1972C64.9792 4.33371 59.9388 0 54.0083 0C48.0777 0 43.0376 4.33371 42.1486 10.1972C38.9589 9.61126 35.6679 10.3449 33.0288 12.23C30.3897 14.1151 28.6285 16.9903 28.1483 20.1975C24.9579 19.6116 21.6665 20.3454 19.0271 22.231C16.3878 24.1166 14.6269 26.9927 14.1471 30.2007L14.1583 30.2037C9.34087 29.3215 4.4709 31.456 1.85474 35.5964C-0.761186 39.7367 -0.597822 45.0515 2.26772 49.0234C5.13326 52.9952 10.1253 54.8264 14.8793 53.6498C19.6332 52.4732 23.1949 48.5248 23.8769 43.6748C23.8706 43.7156 23.8741 43.7601 23.8671 43.8006C25.2814 44.0674 26.7329 44.0674 28.1471 43.8006C28.1401 43.7601 28.1436 43.7156 28.1373 43.6748C28.9649 49.5955 34.0292 54.0009 40.0073 54.0009C45.9854 54.0009 51.0497 49.5955 51.8773 43.6748C51.8709 43.7156 51.8745 43.7601 51.8674 43.8006C53.2817 44.0674 54.7332 44.0674 56.1474 43.8006C56.1404 43.7601 56.1439 43.7156 56.1376 43.6748C56.9652 49.5955 62.0295 54.0009 68.0076 54.0009C73.9857 54.0009 79.05 49.5955 79.8776 43.6748C79.8713 43.7156 79.8748 43.7601 79.8677 43.8006C81.282 44.0674 82.7335 44.0674 84.1478 43.8006C84.1407 43.7601 84.1443 43.7156 84.1379 43.6748C85.0354 50.0183 90.7597 54.5367 97.1381 53.9362C103.517 53.3357 108.297 47.8287 107.995 41.4292C107.694 35.0301 102.416 29.9977 96.0096 30.0008L96.0096 30.0008ZM16.3355 30.9669C16.2576 30.8867 16.1794 30.8096 16.1011 30.7325L16.3355 30.9669L16.3355 30.9669ZM18.2406 31.8528C18.1616 31.7758 18.0852 31.6937 18.0062 31.6185C18.0852 31.6937 18.1616 31.7758 18.2406 31.8528L18.2406 31.8528ZM22.3077 35.8669C22.385 35.9459 22.4661 36.0218 22.5421 36.1012C22.4667 36.0218 22.385 35.9451 22.3077 35.8669L22.3077 35.8669L22.3077 35.8669ZM23.2047 37.7126C23.2867 37.7904 23.3616 37.8684 23.4391 37.947C23.3616 37.8684 23.2861 37.7902 23.2047 37.7126L23.2047 37.7126L23.2047 37.7126ZM23.7928 39.7698C23.8888 39.8473 23.9407 39.9262 24.0272 40.0042C23.9391 39.9264 23.8872 39.847 23.7928 39.7698L23.7928 39.7698L23.7928 39.7698ZM77.9163 20.7364C78.3101 20.603 78.7104 20.4903 79.1159 20.3987C78.7106 20.4903 78.3101 20.603 77.9163 20.7364L77.9163 20.7364L77.9163 20.7364ZM80.0285 40.0042C79.942 39.9264 79.8885 39.847 79.7941 39.7698C79.8901 39.8473 79.942 39.9262 80.0285 40.0042L80.0285 40.0042L80.0285 40.0042ZM79.4407 37.947C79.3639 37.8684 79.2877 37.7902 79.2063 37.7126C79.2877 37.7904 79.3632 37.8682 79.4407 37.947L79.4407 37.947L79.4407 37.947ZM78.5437 36.101C78.4683 36.022 78.3866 35.9453 78.3093 35.8666C78.386 35.9456 78.4677 36.0216 78.5437 36.101L78.5437 36.101L78.5437 36.101ZM76.093 21.5893C76.4364 21.3938 76.7966 21.2312 77.1599 21.0697C76.7975 21.2314 76.4357 21.3936 76.093 21.5893L76.093 21.5893L76.093 21.5893ZM75.4009 22.0332C75.0751 22.25 74.7557 22.475 74.4533 22.7216C74.7562 22.4745 75.074 22.2502 75.4009 22.0332L75.4009 22.0332L75.4009 22.0332ZM73.8383 23.2642C73.553 23.5311 73.2814 23.8114 73.0238 24.1053C73.2826 23.811 73.5523 23.5316 73.8383 23.2642L73.8383 23.2642L73.8383 23.2642ZM70.6296 28.2312C70.4133 28.8727 70.2525 29.5318 70.1489 30.2009L70.1602 30.204C70.0929 30.1918 70.024 30.184 69.9563 30.1728C70.0195 30.1843 70.0863 30.188 70.1489 30.2007C70.2525 29.5318 70.4133 28.8727 70.6296 28.2312L70.6296 28.2312L70.6296 28.2312ZM72.5028 24.7295C72.2605 25.0455 72.0425 25.3792 71.832 25.7186C72.039 25.3781 72.2628 25.0478 72.5028 24.7295L72.5028 24.7295L72.5028 24.7295ZM71.4232 26.3969C71.225 26.783 71.0482 27.1795 70.8933 27.5848C71.048 27.1795 71.225 26.783 71.4232 26.3969L71.4232 26.3969L71.4232 26.3969ZM74.2419 31.8528C74.1629 31.7758 74.0865 31.6937 74.0075 31.6185C74.087 31.6937 74.1629 31.7758 74.2419 31.8528L74.2419 31.8528L74.2419 31.8528ZM72.3371 30.9671C72.2592 30.8869 72.1809 30.8098 72.1027 30.7327L72.3371 30.9671L72.3371 30.9671ZM62.0928 11.589C62.4361 11.3935 62.7964 11.2308 63.1597 11.0694C62.7971 11.2311 62.4354 11.3935 62.0928 11.589L62.0928 11.589L62.0928 11.589ZM62.994 24.1051C62.7357 23.8117 62.4643 23.5314 62.1795 23.2639C62.4657 23.5316 62.7355 23.811 62.994 24.1051L62.994 24.1051L62.994 24.1051ZM56.1494 20.1975C56.2529 19.5295 56.4135 18.8716 56.6291 18.2308C56.4133 18.8714 56.2527 19.5295 56.1494 20.1975L56.1494 20.1975ZM57.857 35.8666C57.7797 35.9453 57.698 36.022 57.6226 36.101C57.6986 36.0216 57.7797 35.9456 57.857 35.8666L57.857 35.8666ZM56.961 37.7124C56.8796 37.7899 56.8034 37.8682 56.7266 37.9468C56.8041 37.8682 56.8796 37.7904 56.961 37.7124L56.961 37.7124L56.961 37.7124ZM56.4233 39.7698C56.3289 39.847 56.2754 39.9264 56.1889 40.0042C56.2754 39.9262 56.3258 39.8473 56.4233 39.7698L56.4233 39.7698L56.4233 39.7698ZM56.9019 20.3987C57.3074 20.4903 57.7077 20.6028 58.1015 20.7364C57.7077 20.603 57.3074 20.4903 56.9019 20.3987L56.9019 20.3987L56.9019 20.3987ZM58.8578 21.0697C59.2213 21.2312 59.5816 21.3938 59.9247 21.5893C59.5823 21.3936 59.2204 21.2314 58.8578 21.0697L58.8578 21.0697ZM65.3884 28.2312C65.6045 28.8729 65.7653 29.5318 65.8689 30.2009C65.9314 30.188 65.9985 30.1845 66.0615 30.173C65.9938 30.184 65.9249 30.192 65.8576 30.2042L65.8689 30.2011C65.7655 29.5318 65.6047 28.8727 65.3884 28.2312L65.3884 28.2312ZM64.0037 30.7325C63.9254 30.8106 63.8472 30.8867 63.7693 30.9669L64.0037 30.7325L64.0037 30.7325ZM62.139 31.6185C62.0594 31.6937 61.9836 31.7758 61.9046 31.8528C61.9836 31.7759 62.06 31.6937 62.139 31.6185L62.139 31.6185ZM60.6171 22.0332C60.9439 22.2502 61.2617 22.4745 61.5647 22.7216C61.2624 22.4748 60.9429 22.25 60.6171 22.0332L60.6171 22.0332ZM63.5152 24.7295C63.7552 25.0478 63.9791 25.3781 64.186 25.7186C63.9756 25.3792 63.7576 25.0455 63.5152 24.7295L63.5152 24.7295L63.5152 24.7295ZM64.5948 26.3969C64.7928 26.783 64.9698 27.1795 65.1247 27.5848C64.97 27.1795 64.7931 26.783 64.5948 26.3969L64.5948 26.3969ZM63.916 10.7361C64.3098 10.6027 64.7101 10.49 65.1156 10.3983C64.7101 10.49 64.3098 10.6027 63.916 10.7361L63.916 10.7361L63.916 10.7361ZM61.4004 12.0329C61.0746 12.2497 60.7551 12.4747 60.4528 12.7213C60.7558 12.4742 61.0737 12.2499 61.4004 12.0329L61.4004 12.0329L61.4004 12.0329ZM59.838 13.2638C59.5528 13.5308 59.2811 13.8111 59.0236 14.105C59.2821 13.8109 59.5519 13.5313 59.838 13.2638L59.838 13.2638L59.838 13.2638ZM56.8928 17.5844C57.0477 17.1792 57.2246 16.7826 57.4227 16.3966C57.2246 16.7826 57.0477 17.1792 56.8928 17.5844L56.8928 17.5844ZM57.8315 15.7185C58.0385 15.3777 58.2623 15.0477 58.5023 14.7294C58.26 15.0451 58.042 15.3789 57.8315 15.7185L57.8315 15.7185ZM45.8375 23.2642C45.5522 23.5311 45.2806 23.8114 45.023 24.1053C45.2817 23.811 45.5515 23.5316 45.8375 23.2642L45.8375 23.2642L45.8375 23.2642ZM44.8576 11.0694C45.2211 11.2308 45.5813 11.3935 45.9245 11.589C45.5818 11.3935 45.2199 11.2311 44.8576 11.0694L44.8576 11.0694L44.8576 11.0694ZM52.0277 40.0044C51.9412 39.9267 51.8877 39.8473 51.7933 39.77C51.8893 39.8473 51.9412 39.9262 52.0277 40.0044L52.0277 40.0044L52.0277 40.0044ZM51.4397 37.947C51.3629 37.8684 51.2867 37.7902 51.2053 37.7126C51.2873 37.7904 51.3629 37.8682 51.4397 37.947L51.4397 37.947L51.4397 37.947ZM50.5427 36.101C50.4673 36.022 50.3856 35.9453 50.3083 35.8666C50.3862 35.9456 50.4673 36.0216 50.5427 36.101L50.5427 36.101L50.5427 36.101ZM48.0923 21.5893C48.4356 21.3938 48.7959 21.2312 49.1592 21.0697C48.7968 21.2314 48.4349 21.3936 48.0923 21.5893L48.0923 21.5893L48.0923 21.5893ZM49.9155 20.7364C50.3092 20.603 50.7096 20.4903 51.115 20.3987C50.7098 20.4903 50.3092 20.603 49.9155 20.7364L49.9155 20.7364L49.9155 20.7364ZM51.8677 20.1975C51.7643 19.5295 51.6037 18.8716 51.3879 18.2308C51.6037 18.8716 51.7643 19.5295 51.8677 20.1975L51.8677 20.1975ZM48.1792 13.2638C48.4651 13.5313 48.7349 13.8109 48.9937 14.105C48.7356 13.8116 48.464 13.5313 48.1792 13.2638L48.1792 13.2638L48.1792 13.2638ZM49.5147 14.7292C49.7547 15.0475 49.9785 15.3777 50.1855 15.7183C49.9752 15.3789 49.7573 15.0452 49.5147 14.7292L49.5147 14.7292L49.5147 14.7292ZM50.5945 16.3966C50.7925 16.7826 50.9695 17.1792 51.1244 17.5844C50.9695 17.1792 50.7925 16.7826 50.5945 16.3966L50.5945 16.3966L50.5945 16.3966ZM47.4001 22.0332C47.0743 22.25 46.7549 22.475 46.4525 22.7216C46.7556 22.4745 47.0734 22.2502 47.4001 22.0332L47.4001 22.0332ZM46.6168 12.0329C46.9435 12.2499 47.2614 12.4742 47.5644 12.7213C47.2618 12.4747 46.9426 12.2497 46.6168 12.0329L46.6168 12.0329ZM44.1012 10.7361C43.7075 10.6027 43.3072 10.49 42.9017 10.3983C43.3072 10.49 43.7075 10.6027 44.1012 10.7361L44.1012 10.7361ZM42.6288 28.2312C42.4125 28.8727 42.2517 29.5318 42.1483 30.2009L42.1596 30.204C42.0923 30.1918 42.0234 30.184 41.9557 30.1728C42.0189 30.1843 42.0857 30.188 42.1483 30.2007C42.2517 29.5318 42.4125 28.8727 42.6288 28.2312L42.6288 28.2312ZM44.502 24.7295C44.2596 25.0455 44.0416 25.3792 43.8312 25.7186C44.0381 25.3778 44.262 25.0478 44.502 24.7295L44.502 24.7295ZM43.4225 26.3969C43.2244 26.783 43.0474 27.1795 42.8925 27.5848C43.0474 27.1795 43.2242 26.783 43.4225 26.3969L43.4225 26.3969L43.4225 26.3969ZM46.2411 31.8528C46.1621 31.7758 46.0857 31.6937 46.0067 31.6185C46.0862 31.6937 46.1626 31.7758 46.2411 31.8528L46.2411 31.8528L46.2411 31.8528ZM44.3363 30.9669C44.2584 30.8867 44.1802 30.8096 44.1019 30.7325L44.3363 30.9669L44.3363 30.9669ZM34.9932 24.1051C34.7351 23.8117 34.4635 23.5314 34.1787 23.2639C34.4649 23.5316 34.7346 23.811 34.9932 24.1051L34.9932 24.1051L34.9932 24.1051ZM37.8681 30.2009C37.9307 30.188 37.9977 30.1845 38.0607 30.173C37.993 30.184 37.9241 30.192 37.8568 30.2042L37.8681 30.2009C37.7647 29.5317 37.6039 28.8727 37.3876 28.2312C37.6039 28.8727 37.7647 29.5318 37.8681 30.2009L37.8681 30.2009ZM37.1239 27.5848C36.969 27.1795 36.792 26.783 36.594 26.3969C36.7923 26.783 36.9692 27.1795 37.1239 27.5848L37.1239 27.5848L37.1239 27.5848ZM36.1852 25.7189C35.9748 25.3795 35.7568 25.0457 35.5144 24.7298C35.7544 25.0478 35.9783 25.3781 36.1852 25.7189L36.1852 25.7189L36.1852 25.7189ZM36.0029 30.7327C35.9247 30.8108 35.8464 30.8869 35.7685 30.9671L36.0029 30.7327L36.0029 30.7327ZM34.1384 31.6185C34.0589 31.6937 33.983 31.7758 33.904 31.8528C33.9825 31.7759 34.0589 31.6937 34.1384 31.6185L34.1384 31.6185L34.1384 31.6185ZM30.8573 21.0697C31.2208 21.2312 31.581 21.3938 31.9242 21.5893C31.5815 21.3936 31.2196 21.2314 30.8573 21.0697L30.8573 21.0697L30.8573 21.0697ZM32.6165 22.0332C32.9433 22.2502 33.2611 22.4745 33.5641 22.7216C33.2616 22.4748 32.9423 22.25 32.6165 22.0332L32.6165 22.0332L32.6165 22.0332ZM30.1009 20.7364C29.7072 20.603 29.3068 20.4903 28.9014 20.3987C29.3068 20.4903 29.7072 20.603 30.1009 20.7364L30.1009 20.7364L30.1009 20.7364ZM29.8565 35.8669C29.7792 35.9455 29.6974 36.0222 29.6221 36.1012C29.6974 36.0214 29.7785 35.9455 29.8565 35.8669L29.8565 35.8669L29.8565 35.8669ZM28.9604 37.7126C28.8791 37.7902 28.8029 37.8684 28.726 37.947C28.8029 37.8682 28.8784 37.7904 28.9604 37.7126L28.9604 37.7126L28.9604 37.7126ZM28.4225 39.7698C28.3281 39.847 28.2747 39.9264 28.1881 40.0042C28.2747 39.9262 28.3266 39.8473 28.4225 39.7698L28.4225 39.7698L28.4225 39.7698ZM38.8342 30.2351C39.2181 30.0851 39.6096 30.0008 40.0082 30.0008C40.4072 30.0008 40.7983 30.0851 41.1823 30.2351C40.7958 30.0869 40.4046 30.0008 40.0082 30.0008C39.6119 30.0008 39.2207 30.0869 38.8342 30.2351L38.8342 30.2351ZM51.9276 20.2349C53.3032 19.9224 54.7139 19.9224 56.0895 20.2349C54.7139 19.9224 53.3032 19.9224 51.9276 20.2349L51.9276 20.2349ZM66.835 30.2351C67.2189 30.0851 67.6103 30.0008 68.009 30.0008C68.4077 30.0008 68.7991 30.0851 69.183 30.2351C68.7965 30.0869 68.4053 30.0008 68.009 30.0008C67.6126 30.0008 67.2215 30.0869 66.835 30.2351L66.835 30.2351ZM92.0042 30.7325C91.926 30.8106 91.8477 30.8867 91.7699 30.9669L92.0042 30.7325L92.0042 30.7325ZM90.1397 31.6185C90.0602 31.6937 89.9844 31.7758 89.9054 31.8528C89.9844 31.7759 90.0607 31.6937 90.1397 31.6185L90.1397 31.6185L90.1397 31.6185ZM85.8578 35.8666C85.7805 35.9453 85.6988 36.022 85.6234 36.101C85.6994 36.0216 85.7805 35.9456 85.8578 35.8666L85.8578 35.8666ZM84.9618 37.7124C84.8804 37.7899 84.8043 37.8682 84.7274 37.9468C84.8049 37.8682 84.8798 37.7904 84.9618 37.7124L84.9618 37.7124L84.9618 37.7124ZM84.4239 39.7698C84.3295 39.847 84.2761 39.9264 84.1895 40.0042C84.276 39.9262 84.328 39.8473 84.4239 39.7698L84.4239 39.7698L84.4239 39.7698Z" transform="translate(1.9928284 0)" id="Shape" fill="#FFE0B2" fill-rule="evenodd" stroke="none" />
          <g id="Group" transform="translate(16.14038 20.000427)">
            <path d="M13.8604 22.0006C13.8557 22.6035 13.9025 23.2058 14.0003 23.8007C12.586 24.0674 11.1345 24.0674 9.72025 23.8007C9.81798 23.2058 9.86486 22.6035 9.86017 22.0006C9.85431 16.2023 5.70507 11.2367 0 10.2003C0.887601 4.33534 5.92867 0 11.8604 0C17.7921 0 22.8332 4.33558 23.7208 10.2003C18.0155 11.2367 13.8662 16.2023 13.8604 22.0006L13.8604 22.0006Z" id="Shape" fill="#795548" fill-rule="evenodd" stroke="none" />
            <path d="M9.8604 22.0006C9.86508 22.6035 9.81821 23.2058 9.72048 23.8007C11.1347 24.0674 12.5863 24.0674 14.0005 23.8007C13.9028 23.2058 13.8559 22.6035 13.8606 22.0006C13.8664 16.2023 18.0157 11.2367 23.7208 10.2003C22.8332 4.33534 17.7921 0 11.8604 0C5.92866 0 0.887598 4.33558 0 10.2003C5.70506 11.2367 9.85431 16.2023 9.8604 22.0006L9.8604 22.0006Z" transform="translate(56.001373 0)" id="Shape" fill="#795548" fill-rule="evenodd" stroke="none" />
            <path d="M9.86041 22.0006C9.86509 22.6035 9.81822 23.2058 9.72048 23.8007C11.1347 24.0674 12.5863 24.0674 14.0005 23.8007C13.9028 23.2058 13.8559 22.6035 13.8606 22.0006C13.8664 16.2023 18.0157 11.2367 23.7208 10.2003C22.8332 4.33534 17.7921 0 11.8604 0C5.92867 0 0.887598 4.33558 0 10.2003C5.7053 11.2367 9.85454 16.2023 9.86041 22.0006L9.86041 22.0006Z" transform="translate(28.00055 0)" id="Shape" fill="#795548" fill-rule="evenodd" stroke="none" />
          </g>
          <g id="Group" transform="translate(30.14093 10.000336)">
            <path d="M23.7205 10.2003C18.6778 11.1167 14.7733 15.1337 14.0003 20.2006C12.586 19.9339 11.1345 19.9339 9.72025 20.2006C8.94726 15.134 5.04271 11.1169 0 10.2003C0.887601 4.33535 5.92867 0 11.8604 0C17.7921 0 22.8329 4.33535 23.7205 10.2003L23.7205 10.2003Z" id="Shape" fill="#FFE0B2" fill-rule="evenodd" stroke="none" />
            <path d="M0 10.2003C5.0427 11.1167 8.94726 15.1337 9.72025 20.2006C11.1345 19.9339 12.586 19.9339 14.0003 20.2006C14.7733 15.134 18.6778 11.1169 23.7205 10.2003C22.8329 4.33535 17.7919 0 11.8601 0C5.92867 3.57637e-06 0.887605 4.33535 0 10.2003L0 10.2003Z" transform="translate(28.00055 0)" id="Shape" fill="#FFE0B2" fill-rule="evenodd" stroke="none" />
          </g>
          <path d="M0 10.2003C5.04271 11.1167 8.94726 15.1337 9.72025 20.2006C11.1345 19.9339 12.586 19.9339 14.0003 20.2006C14.7733 15.134 18.6778 11.1169 23.7205 10.2003C22.8329 4.33535 17.7919 0 11.8601 0C5.92844 0 0.887598 4.33534 0 10.2003L0 10.2003Z" transform="translate(44.141174 0)" id="Shape" fill="#795548" fill-rule="evenodd" stroke="none" />
        </g>
        <g id="Group">
          <path d="M7.98716 25.9975C8.51757 25.9977 9.02641 25.787 9.40165 25.4118C9.77666 25.0368 9.98737 24.5279 9.98737 23.9973L9.98737 6.82512L12.5735 9.41127C13.0777 9.92176 13.8167 10.1231 14.51 9.93887C15.2033 9.75464 15.7449 9.21299 15.9292 8.51969C16.1134 7.82639 15.912 7.08739 15.4016 6.58323L9.40306 0.584488C8.61999 -0.194829 7.35434 -0.194829 6.57151 0.584488L0.572995 6.583C-0.19601 7.36607 -0.190148 8.62235 0.585652 9.39838C1.36169 10.1744 2.61797 10.18 3.40103 9.41104L5.9872 6.82512L5.9872 23.9975C5.98696 24.5279 6.19767 25.0368 6.57291 25.412C6.94816 25.7872 7.45676 25.9977 7.98716 25.9975L7.98716 25.9975Z" transform="translate(50.01416 0)" id="Shape" fill="#000000" fill-rule="evenodd" stroke="none" />
          <path d="M7.98716 25.9975C8.51756 25.9977 9.0264 25.787 9.40165 25.4118C9.77666 25.0368 9.98737 24.5279 9.98737 23.9973L9.98737 6.82488L12.5735 9.41104C13.0777 9.92152 13.8167 10.1229 14.51 9.93863C15.2033 9.75441 15.7449 9.21276 15.9291 8.51946C16.1134 7.82616 15.912 7.08716 15.4016 6.583L9.40282 0.584488C8.61976 -0.194828 7.3541 -0.194828 6.57127 0.584488L0.572998 6.583C-0.196006 7.36607 -0.190148 8.62235 0.585651 9.39839C1.36169 10.1744 2.61796 10.18 3.40103 9.41104L5.98719 6.82512L5.98719 23.9975C5.98695 24.5279 6.19766 25.0368 6.5729 25.412C6.94792 25.7868 7.45676 25.9975 7.98716 25.9975L7.98716 25.9975Z" transform="translate(90.01523 22.000618)" id="Shape" fill="#000000" fill-rule="evenodd" stroke="none" />
          <path d="M7.98717 25.9975C8.51757 25.9977 9.02641 25.787 9.40166 25.4118C9.77667 25.0368 9.98738 24.5279 9.98738 23.9973L9.98738 6.82488L12.5735 9.41104C13.3559 10.1836 14.6152 10.1796 15.3929 9.40214C16.1703 8.62469 16.1743 7.36513 15.4018 6.58277L9.40283 0.584488C8.61976 -0.194828 7.3541 -0.194828 6.57127 0.584488L0.572994 6.583C-0.196009 7.36607 -0.19015 8.62235 0.585651 9.39839C1.36169 10.1744 2.61797 10.18 3.40103 9.41104L5.98719 6.82512L5.98719 23.9975C5.98696 24.5279 6.19767 25.0368 6.57291 25.412C6.94792 25.7868 7.45653 25.9975 7.98717 25.9975L7.98717 25.9975Z" transform="translate(10.013306 22.000618)" id="Shape" fill="#000000" fill-rule="evenodd" stroke="none" />
          <path d="M107.434 55.8448C112.725 52.5348 115.183 46.1198 113.458 40.122C111.733 34.1242 106.243 29.9949 100.002 30.001C99.8022 30.001 99.6074 30.0228 99.4094 30.031C97.6307 24.1042 92.19 20.0339 86.0021 20.0007C85.8024 20.0007 85.6065 20.0196 85.4084 20.0281C83.6288 14.1025 78.1888 10.0336 72.0018 10.0003C71.8021 10.0003 71.6062 10.0193 71.4081 10.0278C69.6573 4.08221 64.1995 0 58.0016 0C51.8036 0 46.3458 4.08221 44.595 10.0278C44.3969 10.0193 44.201 10.0003 44.0013 10.0003C37.8143 10.0334 32.3743 14.1025 30.5947 20.0281C30.3966 20.0196 30.2007 20.0007 30.001 20.0007C23.8131 20.0337 18.3724 24.104 16.5937 30.031C16.3957 30.0228 16.2009 30.001 16.0007 30.001C9.75963 29.9947 4.26972 34.124 2.54491 40.122C0.820106 46.1198 3.27782 52.5348 8.56874 55.8448C3.30547 58.6072 0.00632816 64.0582 0 70.0021L0 80.0024C0.00257812 82.2105 1.79184 84 4.00018 84.0026L112.003 84.0026C114.211 84 116.001 82.2107 116.003 80.0024L116.003 70.0021C115.997 64.0582 112.697 58.6072 107.434 55.8448L107.434 55.8448ZM110.003 44.0015C110.02 47.8153 107.867 51.3072 104.452 53.0038C101.036 54.7008 96.9531 54.307 93.9244 51.989C90.8957 49.6709 89.4494 45.8322 90.1952 42.092C90.2312 41.9059 90.2964 41.731 90.3426 41.5485C90.4455 41.1191 90.5767 40.697 90.7356 40.2849C90.8097 40.1 90.9037 39.9258 90.9883 39.7463C91.1678 39.3589 91.372 38.9832 91.5996 38.6217C91.7015 38.4621 91.8138 38.3105 91.9244 38.1574C92.1782 37.8059 92.4546 37.4709 92.7518 37.155C92.8774 37.0219 93.0051 36.8918 93.1378 36.7659C93.4523 36.4704 93.7856 36.1952 94.1353 35.9425C94.2919 35.8286 94.4454 35.7112 94.609 35.6064C94.9538 35.3908 95.3115 35.1965 95.6799 35.0245C95.8855 34.926 96.0835 34.8163 96.297 34.7317C96.6312 34.6077 96.972 34.5016 97.3178 34.4141C97.5924 34.3382 97.8585 34.2426 98.1432 34.1896C101.07 33.6116 104.102 34.3797 106.401 36.2817C108.7 38.1837 110.022 41.0178 110.003 44.0015L110.003 44.0015ZM29.4178 47.975C29.6131 47.9829 29.8001 48.0017 30.0005 48.0017C30.2009 48.0017 30.3882 47.983 30.5832 47.975C31.5584 51.2371 33.6857 54.034 36.569 55.845C33.8015 57.3043 31.5191 59.5379 30.0005 62.2734C28.482 59.5379 26.1996 57.3043 23.4322 55.845C26.3156 54.0337 28.4426 51.2371 29.4178 47.975L29.4178 47.975ZM34.0007 44.0015C34.0035 43.3603 34.0682 42.7209 34.1936 42.0923C34.2297 41.9062 34.2948 41.7313 34.341 41.5487C34.4439 41.1193 34.5752 40.6972 34.7341 40.2852C34.8081 40.1003 34.9021 39.9261 34.9867 39.7466C35.1663 39.3591 35.3704 38.9834 35.598 38.622C35.7 38.4624 35.812 38.3107 35.9229 38.1577C36.1767 37.8061 36.453 37.4712 36.7502 37.1553C36.8759 37.0221 37.0036 36.892 37.1363 36.7662C37.4508 36.4706 37.7841 36.1955 38.1338 35.9428C38.2903 35.8289 38.4439 35.7115 38.6075 35.6067C38.9522 35.3911 39.3099 35.1968 39.6783 35.0247C39.8839 34.9263 40.082 34.8166 40.2955 34.732C40.6297 34.608 40.9705 34.5018 41.3162 34.4144C41.5909 34.3385 41.8569 34.2428 42.1417 34.1899C42.7485 34.0708 43.3652 34.0085 43.9837 34.0035L44.0177 34.0035C44.6362 34.0084 45.2529 34.0708 45.8597 34.1899C46.1447 34.2428 46.4105 34.3382 46.6852 34.4144C47.0309 34.5018 47.3717 34.608 47.7059 34.732C47.9194 34.8166 48.1175 34.9263 48.323 35.0247C48.6915 35.1968 49.0491 35.3913 49.3939 35.6067C49.5575 35.7115 49.711 35.8289 49.8676 35.9428C50.2175 36.1957 50.5506 36.4706 50.8651 36.7662C50.998 36.8923 51.1255 37.0221 51.2511 37.1553C51.5483 37.4712 51.8247 37.8061 52.0785 38.1577C52.1891 38.311 52.3014 38.4626 52.4034 38.622C52.6309 38.9834 52.8351 39.3591 53.0146 39.7466C53.0992 39.9261 53.1932 40.1003 53.2673 40.2852C53.4262 40.6972 53.5574 41.1193 53.6603 41.5487C53.7065 41.7313 53.7719 41.9059 53.8078 42.0923C54.5358 45.8241 53.0838 49.6459 50.0612 51.9527C47.0386 54.2594 42.9691 54.6518 39.5616 52.9647C36.1544 51.2779 33.9991 47.8039 34.0007 44.0015L34.0007 44.0015ZM53.6802 25.012C54.0482 24.8306 54.427 24.6719 54.8144 24.5369C55.0999 24.4415 55.3985 24.3761 55.695 24.306C55.9047 24.2552 56.1091 24.1888 56.3236 24.1518C56.3991 24.1368 56.4865 24.1298 56.5659 24.1171C57.0333 24.0451 57.5053 24.0069 57.9783 24.003L58.0306 24.0034C58.501 24.0076 58.9707 24.0456 59.4357 24.1171C59.5154 24.1298 59.603 24.1368 59.679 24.1518C59.8932 24.1888 60.0976 24.2554 60.3076 24.306C60.6043 24.3761 60.9027 24.4415 61.1881 24.5369C61.5756 24.6719 61.9543 24.8306 62.3223 25.012C62.3969 25.0478 62.4765 25.0745 62.5499 25.112C63.9037 25.811 65.0826 26.8055 65.9998 28.0219L66.0143 28.0395C66.2646 28.3826 66.4927 28.7412 66.6975 29.1132C66.7488 29.2046 66.8107 29.2892 66.8592 29.3822C67.0062 29.6785 67.1384 29.982 67.2549 30.2916C67.3181 30.4501 67.3917 30.6027 67.4468 30.7649C67.3812 30.7874 67.3231 30.8228 67.2579 30.8462C66.7242 31.0381 66.2027 31.2627 65.6965 31.5184C65.5856 31.5739 65.4708 31.6213 65.3618 31.6799C64.8623 31.9541 64.38 32.2586 63.9177 32.5916C63.7232 32.7292 63.5345 32.871 63.3477 33.0182C62.9701 33.3152 62.6078 33.6313 62.2623 33.9653C62.0652 34.1566 61.881 34.3565 61.6956 34.5588C61.4235 34.8555 61.1642 35.1633 60.9177 35.4818C60.774 35.6683 60.6296 35.8521 60.4956 36.0457C60.1784 36.5023 59.889 36.9774 59.6286 37.4682C59.5402 37.6355 59.4638 37.8075 59.3822 37.9789C59.1652 38.431 58.973 38.8946 58.8061 39.3673C58.7618 39.4939 58.7089 39.6156 58.6681 39.7438C58.4808 40.3391 58.3341 40.9464 58.2286 41.5616C58.2019 41.7123 58.1806 41.8637 58.159 42.0158C58.0592 42.673 58.0067 43.3368 58.0013 44.0015C57.9961 43.3366 57.9434 42.6726 57.8438 42.0151C57.8222 41.8635 57.8009 41.7128 57.7744 41.5625C57.6689 40.9471 57.522 40.3396 57.3345 39.7437C57.2937 39.6158 57.2407 39.4939 57.1964 39.3673C57.0295 38.8944 56.8371 38.431 56.6203 37.9789C56.5387 37.8078 56.4623 37.6355 56.374 37.4681C56.1133 36.9769 55.8236 36.5016 55.5063 36.0448C55.3727 35.8514 55.2283 35.6683 55.0851 35.482C54.8388 35.1623 54.5795 34.8546 54.307 34.5585C54.1216 34.3563 53.9373 34.1561 53.7402 33.9651C53.3948 33.6311 53.0324 33.3149 52.6548 33.018C52.4682 32.871 52.2798 32.7294 52.0855 32.5919C51.6231 32.2588 51.1405 31.9541 50.6408 31.6799C50.5318 31.6213 50.4169 31.5742 50.3061 31.5184C49.7998 31.2627 49.2783 31.0381 48.7446 30.8462C48.6795 30.8227 48.6214 30.7874 48.5557 30.7649C48.6108 30.6027 48.6846 30.4499 48.7477 30.2916C48.8642 29.982 48.9964 29.6785 49.1433 29.3822C49.1918 29.2892 49.2537 29.2046 49.305 29.1132C49.5097 28.7412 49.7379 28.3824 49.9883 28.0395L50.0028 28.0219C50.9199 26.8055 52.0989 25.811 53.4526 25.112C53.5262 25.0743 53.6057 25.0476 53.6802 25.012L53.6802 25.012ZM57.4186 47.975C57.6139 47.9827 57.8005 48.0017 58.0013 48.0017C58.2022 48.0017 58.389 47.983 58.584 47.975C59.5592 51.2371 61.6865 54.0337 64.5698 55.8448C61.8023 57.304 59.5199 59.5377 58.0013 62.2731C56.4828 59.5377 54.2004 57.304 51.4328 55.8448C54.3162 54.034 56.4434 51.2371 57.4186 47.975L57.4186 47.975ZM62.0015 44.0015C62.0043 43.3603 62.069 42.7209 62.1944 42.0923C62.2305 41.9062 62.2957 41.7313 62.3418 41.5487C62.4447 41.1193 62.576 40.6972 62.7349 40.2852C62.809 40.1003 62.903 39.9261 62.9876 39.7466C63.1671 39.3591 63.3712 38.9834 63.5988 38.622C63.7008 38.4624 63.8128 38.3107 63.9237 38.1577C64.1775 37.8061 64.4538 37.4712 64.751 37.1553C64.8767 37.0221 65.0044 36.892 65.1371 36.7662C65.4516 36.4706 65.7849 36.1955 66.1346 35.9428C66.2912 35.8289 66.4447 35.7115 66.6083 35.6067C66.9531 35.3911 67.3107 35.1968 67.6792 35.0247C67.8847 34.9263 68.0828 34.8166 68.2963 34.732C68.6305 34.608 68.9713 34.5018 69.317 34.4144C69.5917 34.3385 69.8577 34.2428 70.1425 34.1899C70.7446 34.0722 71.3561 34.0103 71.9697 34.0052L72.029 34.0047C72.6438 34.0099 73.257 34.072 73.8605 34.1899C74.1455 34.2428 74.4113 34.3382 74.686 34.4144C75.0317 34.5018 75.3725 34.608 75.7067 34.732C75.9202 34.8166 76.1183 34.9263 76.3238 35.0247C76.6923 35.1968 77.0499 35.3913 77.3947 35.6067C77.5583 35.7115 77.7118 35.8289 77.8684 35.9428C78.2183 36.1957 78.5514 36.4706 78.8659 36.7662C78.9988 36.8923 79.1263 37.0221 79.252 37.1553C79.5492 37.4712 79.8255 37.8061 80.0793 38.1577C80.19 38.311 80.3022 38.4626 80.4042 38.622C80.6318 38.9834 80.8359 39.3591 81.0154 39.7466C81.1001 39.9261 81.194 40.1003 81.2681 40.2852C81.427 40.6972 81.5583 41.1193 81.6612 41.5487C81.7073 41.7313 81.7727 41.9059 81.8086 42.0923C82.537 45.8243 81.0853 49.6466 78.0625 51.9538C75.0397 54.2608 70.9699 54.6532 67.5622 52.9661C64.1545 51.2786 61.9992 47.8041 62.0015 44.0015L62.0015 44.0015ZM85.4195 47.975C85.6147 47.9827 85.8013 48.0017 86.0021 48.0017C86.203 48.0017 86.3898 47.983 86.5848 47.975C87.5601 51.2371 89.6873 54.0337 92.5706 55.8448C89.8031 57.304 87.5207 59.5377 86.0021 62.2731C84.4836 59.5377 82.2012 57.304 79.4338 55.8448C82.317 54.034 84.4442 51.2371 85.4195 47.975L85.4195 47.975ZM95.4594 30.7599C95.3898 30.7836 95.3279 30.8216 95.2587 30.8462C94.7251 31.0381 94.2036 31.2627 93.6973 31.5184C93.5864 31.5739 93.4714 31.6213 93.3626 31.6799C92.8631 31.9541 92.3808 32.2585 91.9186 32.5916C91.724 32.7292 91.5354 32.871 91.3486 33.0182C90.971 33.3151 90.6086 33.6313 90.2631 33.9653C90.066 34.1566 89.8818 34.3565 89.6964 34.5588C89.4243 34.8555 89.1651 35.1632 88.9185 35.4818C88.7748 35.6683 88.6304 35.8521 88.4964 36.0457C88.1793 36.5023 87.8898 36.9771 87.6294 37.4681C87.541 37.6355 87.4646 37.8075 87.3831 37.9789C87.166 38.431 86.9738 38.8946 86.807 39.3673C86.7627 39.4939 86.7097 39.6155 86.6689 39.7437C86.4816 40.3391 86.3349 40.9464 86.2294 41.5616C86.2027 41.7123 86.1814 41.8637 86.1598 42.0158C86.06 42.6733 86.0075 43.3368 86.0021 44.0015C85.9969 43.3366 85.9442 42.6726 85.8446 42.0151C85.823 41.8635 85.8017 41.7128 85.7752 41.5625C85.6697 40.947 85.5228 40.3395 85.3353 39.7437C85.2945 39.6158 85.2415 39.4939 85.1972 39.3673C85.0304 38.8943 84.8379 38.431 84.6211 37.9788C84.5396 37.8077 84.4632 37.6355 84.3748 37.4681C84.1142 36.9769 83.8245 36.5015 83.5071 36.0447C83.3735 35.8514 83.2291 35.6683 83.0859 35.482C82.8396 35.1623 82.5804 34.8545 82.3078 34.5585C82.1224 34.3563 81.9382 34.1561 81.7411 33.9651C81.3956 33.6311 81.0332 33.3149 80.6556 33.0179C80.4691 32.871 80.2806 32.7294 80.0863 32.5918C79.6237 32.2588 79.1413 31.9541 78.6416 31.6799C78.5326 31.6213 78.4178 31.5742 78.3069 31.5184C77.8006 31.2627 77.2791 31.0381 76.7455 30.8462C76.6803 30.8227 76.6222 30.7873 76.5565 30.7648C76.6116 30.6027 76.6855 30.4498 76.7485 30.2916C76.865 29.982 76.9972 29.6785 77.1441 29.3822C77.1927 29.2892 77.2545 29.2046 77.3059 29.1132C77.5105 28.7412 77.7388 28.3823 77.9891 28.0395L78.0036 28.0219C78.9208 26.8054 80.0997 25.811 81.4535 25.112C81.5271 25.0745 81.6065 25.0478 81.6811 25.0119C82.049 24.8305 82.4278 24.6719 82.8152 24.5369C83.1007 24.4415 83.3993 24.3761 83.6958 24.306C84.4496 24.1131 85.224 24.0107 86.0019 24.0011C90.2685 24.0217 94.0582 26.7302 95.4594 30.7599L95.4594 30.7599ZM81.4591 20.7617C81.3717 20.7915 81.2913 20.8346 81.2046 20.866C81.01 20.938 80.8209 21.0209 80.6301 21.1013C78.1522 22.1274 76.0236 23.8473 74.5001 26.0545C74.4431 26.1365 74.3892 26.2207 74.3339 26.3039C74.1457 26.5893 73.9594 26.8743 73.792 27.1741C73.586 27.5395 73.3962 27.9148 73.2227 28.3003C73.1468 28.4714 73.084 28.6488 73.0148 28.8237C72.8901 29.1345 72.7744 29.4488 72.6717 29.7701C72.6457 29.8526 72.6082 29.9297 72.5838 30.0129C72.4685 30.0083 72.3504 30.0148 72.2332 30.0129C72.1554 30.0115 72.0799 30.0012 72.0018 30.0012C71.9238 30.0012 71.8483 30.0115 71.7705 30.0129C71.6531 30.0148 71.5352 30.0083 71.4199 30.0129C71.3953 29.9297 71.3578 29.8526 71.332 29.7701C71.2293 29.4488 71.1138 29.1345 70.9889 28.8237C70.9195 28.6488 70.8569 28.4712 70.781 28.3003C70.6075 27.9148 70.4177 27.5391 70.2112 27.1732C70.0443 26.8741 69.858 26.5893 69.6702 26.3046C69.6149 26.2211 69.561 26.1368 69.5038 26.0547C67.9806 23.848 65.8524 22.1284 63.3752 21.1023C63.1837 21.0216 62.9944 20.9384 62.7991 20.8662C62.7164 20.8362 62.6395 20.795 62.5561 20.7666C62.609 20.611 62.68 20.4645 62.7403 20.3126C62.8591 19.9957 62.9941 19.6852 63.1446 19.3819C63.1917 19.2917 63.2515 19.2099 63.3012 19.1213C63.5067 18.747 63.7359 18.3862 63.9877 18.0412L64.0045 18.0211C64.9207 16.8053 66.0985 15.8116 67.4511 15.1131C67.5287 15.0735 67.6124 15.0451 67.6911 15.0076C68.0556 14.8281 68.4306 14.6711 68.814 14.5372C69.1016 14.4411 69.4023 14.3748 69.7014 14.3047C70.4535 14.1128 71.226 14.0108 72.0023 14.001C76.269 14.0207 80.0594 16.7303 81.4591 20.7617L81.4591 20.7617L81.4591 20.7617ZM48.5443 10.7614C49.9272 6.71758 53.7279 4.00064 58.0016 4.00064C62.2753 4.00064 66.076 6.71782 67.4588 10.7614C67.3714 10.7911 67.291 10.8343 67.2043 10.8657C67.0098 10.9376 66.8206 11.0206 66.6298 11.101C64.152 12.1271 62.0233 13.847 60.4998 16.0541C60.4429 16.1362 60.389 16.2203 60.3337 16.3035C60.1455 16.589 59.9591 16.874 59.7918 17.1738C59.5858 17.5392 59.3959 17.9144 59.2225 18.3C59.1465 18.4711 59.0837 18.6485 59.0146 18.8234C58.8899 19.1341 58.7741 19.4485 58.6714 19.7698C58.6454 19.8523 58.6079 19.9294 58.5836 20.0126C58.3921 20.0049 58.1987 20.0009 58.0016 20.0009C57.8042 20.0009 57.6109 20.0049 57.4196 20.0126C57.395 19.9294 57.3575 19.8523 57.3317 19.7698C57.2291 19.4485 57.1135 19.1339 56.9886 18.8234C56.9192 18.6485 56.8566 18.4708 56.7807 18.3C56.6073 17.9144 56.4174 17.5387 56.2109 17.1728C56.044 16.8738 55.8577 16.589 55.67 16.3042C55.6147 16.2208 55.5607 16.1364 55.5036 16.0544C53.9803 13.8477 51.8521 12.128 49.375 11.1019C49.1835 11.0213 48.9941 10.9381 48.7989 10.8659C48.7119 10.8343 48.6315 10.7911 48.5443 10.7614L48.5443 10.7614L48.5443 10.7614ZM34.5438 20.7617C35.9432 16.7303 39.7337 14.0207 44.001 14.0007C44.7773 14.0103 45.5496 14.1123 46.3017 14.3043C46.6008 14.3746 46.9015 14.4407 47.1891 14.5368C47.5725 14.6706 47.9475 14.8276 48.312 15.0072C48.3908 15.0447 48.4747 15.0733 48.552 15.1126C49.9044 15.8111 51.0824 16.8049 51.9986 18.0204L52.0155 18.0405C52.2669 18.3855 52.4964 18.7462 52.702 19.1206C52.7514 19.2091 52.8114 19.2909 52.8585 19.3812C53.009 19.6842 53.144 19.995 53.2631 20.3119C53.3233 20.464 53.3943 20.6103 53.4473 20.7659C53.3636 20.7945 53.2867 20.8355 53.204 20.8657C53.0095 20.9377 52.8203 21.0207 52.6295 21.1011C50.1517 22.1272 48.023 23.8471 46.4995 26.0542C46.4426 26.1363 46.3887 26.2204 46.3334 26.3036C46.1452 26.5891 45.9588 26.8741 45.7915 27.1739C45.5855 27.5393 45.3956 27.9145 45.2222 28.3001C45.1462 28.4712 45.0834 28.6486 45.0143 28.8235C44.8896 29.1342 44.7738 29.4485 44.6711 29.7699C44.6451 29.8524 44.6076 29.9295 44.5832 30.0127C44.392 30.0052 44.1986 30.0012 44.0013 30.0012C43.8039 30.0012 43.6106 30.0052 43.4193 30.0129C43.3947 29.9297 43.3572 29.8526 43.3314 29.7701C43.2288 29.4488 43.1132 29.1345 42.9883 28.8237C42.9189 28.6488 42.8563 28.4712 42.7804 28.3003C42.6069 27.9148 42.4171 27.539 42.2106 27.1732C42.0437 26.8741 41.8574 26.5893 41.6697 26.3046C41.6143 26.2211 41.5604 26.1367 41.5032 26.0547C39.98 23.848 37.8518 22.1284 35.3746 21.1022C35.1832 21.0216 34.9938 20.9384 34.7985 20.8662C34.7116 20.8343 34.631 20.7915 34.5438 20.7617L34.5438 20.7617L34.5438 20.7617ZM20.5435 30.7599C21.9437 26.7293 25.7339 24.0205 30.0008 24.0011C30.7747 24.0107 31.5446 24.1119 32.2949 24.3029C32.597 24.3737 32.9003 24.4408 33.1907 24.5378C33.5678 24.6698 33.9365 24.8242 34.2951 25.0002C34.3802 25.0405 34.4706 25.0715 34.5543 25.1141C35.8959 25.8079 37.0655 26.7925 37.9779 27.9963C37.9908 28.0132 38.0058 28.028 38.0185 28.0451C38.2622 28.3805 38.4849 28.7306 38.6853 29.0937C38.7413 29.1928 38.8083 29.2847 38.8608 29.386C39.012 29.674 39.1287 29.9811 39.2515 30.2848C39.316 30.4454 39.3903 30.6005 39.4463 30.7651C39.3807 30.7876 39.3226 30.823 39.2574 30.8464C38.7237 31.0386 38.2022 31.2629 37.696 31.5186C37.5851 31.5742 37.47 31.6215 37.3613 31.6801C36.8618 31.9543 36.3797 32.2588 35.9172 32.5918C35.7227 32.7294 35.534 32.8712 35.3472 33.0184C34.9696 33.3154 34.6073 33.6315 34.2618 33.9655C34.0647 34.1568 33.8805 34.3567 33.6951 34.559C33.423 34.8557 33.1637 35.1635 32.9172 35.482C32.7735 35.6685 32.6291 35.8523 32.495 36.0459C32.1779 36.5025 31.8885 36.9773 31.6281 37.4684C31.5397 37.6357 31.4633 37.8077 31.3817 37.9791C31.1647 38.4312 30.9725 38.8948 30.8056 39.3676C30.7613 39.4941 30.7084 39.6158 30.6676 39.744C30.4803 40.3393 30.3336 40.9466 30.2281 41.5618C30.2014 41.7125 30.1801 41.8639 30.1585 42.0161C30.0587 42.6733 30.0059 43.3368 30.0005 44.0017C29.9954 43.3368 29.9426 42.6728 29.843 42.0153C29.8215 41.8637 29.8001 41.713 29.7736 41.5628C29.6682 40.9473 29.5212 40.3398 29.3337 39.744C29.2929 39.616 29.24 39.4941 29.1957 39.3675C29.0288 38.8946 28.8364 38.4312 28.6196 37.9791C28.538 37.808 28.4616 37.6357 28.3732 37.4684C28.1126 36.9771 27.8229 36.5018 27.5055 36.045C27.3719 35.8516 27.2276 35.6685 27.0844 35.4822C26.838 35.1625 26.5788 34.8548 26.3062 34.5588C26.1208 34.3565 25.9366 34.1563 25.7395 33.9653C25.394 33.6313 25.0317 33.3151 24.6541 33.0182C24.4675 32.8712 24.2791 32.7296 24.0848 32.5921C23.6221 32.259 23.1397 31.9543 22.64 31.6801C22.531 31.6215 22.4162 31.5744 22.3053 31.5186C21.7991 31.2629 21.2776 31.0384 20.7439 30.8464C20.675 30.8216 20.6131 30.7836 20.5435 30.7599L20.5435 30.7599L20.5435 30.7599ZM6.00016 44.0015C5.98047 41.0178 7.30261 38.1835 9.60142 36.2815C11.9002 34.3795 14.9322 33.6114 17.8594 34.1894C18.1444 34.2424 18.4102 34.3377 18.6848 34.4139C19.0306 34.5016 19.3714 34.6075 19.7056 34.7315C19.9191 34.8161 20.1172 34.9258 20.3227 35.0243C20.6912 35.1963 21.0488 35.3908 21.3936 35.6062C21.5572 35.711 21.7107 35.8284 21.8673 35.9423C22.2172 36.1952 22.5503 36.4702 22.8648 36.7659C22.9977 36.892 23.1252 37.0219 23.2508 37.155C23.548 37.471 23.8244 37.8059 24.0782 38.1575C24.1888 38.3107 24.3011 38.4624 24.403 38.6218C24.6306 38.9832 24.8348 39.3589 25.0143 39.7463C25.0989 39.9259 25.1929 40.1 25.267 40.2849C25.4259 40.697 25.5571 41.1191 25.66 41.5485C25.7062 41.7311 25.7716 41.9057 25.8075 42.092C26.5359 45.8241 25.0837 49.6461 22.0611 51.9531C19.0385 54.2601 14.9687 54.6525 11.5611 52.9652C8.15341 51.2783 5.99805 47.8039 6.00016 44.0015L6.00016 44.0015ZM3.99997 70.0021C3.99997 63.3745 9.37269 58.0018 16.0003 58.0018C22.6279 58.0018 28.0006 63.3745 28.0006 70.0021L28.0006 80.0024L3.99997 80.0024L3.99997 70.0021L3.99997 70.0021ZM32.0008 70.0021C32.0008 63.3745 37.3735 58.0018 44.0011 58.0018C50.6287 58.0018 56.0014 63.3745 56.0014 70.0021L56.0014 80.0024L32.0008 80.0024L32.0008 70.0021L32.0008 70.0021ZM60.0015 70.0021C60.0015 63.3745 65.3742 58.0018 72.0018 58.0018C78.6294 58.0018 84.0021 63.3745 84.0021 70.0021L84.0021 80.0024L60.0015 80.0024L60.0015 70.0021L60.0015 70.0021ZM112.003 80.0024L88.002 80.0024L88.002 70.0021C88.002 63.3745 93.3748 58.0018 100.002 58.0018C106.63 58.0018 112.003 63.3745 112.003 70.0021L112.003 80.0024L112.003 80.0024Z" transform="translate(0 35.997322)" id="Shape" fill="#000000" fill-rule="evenodd" stroke="none" />
        </g>
      </g>
    </g>
  </g>
</svg>