<?xml version="1.0" encoding="utf-8"?>
<svg width="75px" height="75px" viewbox="0 0 75 75" version="1.1" xmlns:xlink="http://www.w3.org/1999/xlink" xmlns="http://www.w3.org/2000/svg">
  <defs>
    <path d="M16.999 0L58.001 0Q58.4183 0 58.8351 0.020476Q59.2519 0.0409521 59.6672 0.0818548Q60.0825 0.122758 60.4953 0.183988Q60.9081 0.245219 61.3173 0.326631Q61.7266 0.408043 62.1314 0.509439Q62.5362 0.610835 62.9356 0.731971Q63.3349 0.853108 63.7278 0.993692Q64.1207 1.13428 64.5062 1.29397Q64.8918 1.45367 65.269 1.63209Q65.6462 1.81051 66.0143 2.00722Q66.3823 2.20394 66.7402 2.41847Q67.0982 2.63301 67.4451 2.86485Q67.7921 3.09669 68.1273 3.34528Q68.4625 3.59386 68.785 3.8586Q69.1076 4.12333 69.4168 4.40357Q69.726 4.68382 70.0211 4.97889Q70.3162 5.27397 70.5964 5.58317Q70.8767 5.89237 71.1414 6.21495Q71.4061 6.53753 71.6547 6.87271Q71.9033 7.20789 72.1351 7.55486Q72.367 7.90183 72.5815 8.25977Q72.7961 8.6177 72.9928 8.98573Q73.1895 9.35375 73.3679 9.73099Q73.5463 10.1082 73.706 10.4938Q73.8657 10.8793 74.0063 11.2722Q74.1469 11.6651 74.268 12.0645Q74.3892 12.4638 74.4905 12.8686Q74.5919 13.2734 74.6734 13.6827Q74.7548 14.0919 74.816 14.5047Q74.8772 14.9175 74.9181 15.3328Q74.9591 15.7481 74.9795 16.1649Q75 16.5817 75 16.999L75 58.001Q75 58.4183 74.9795 58.8351Q74.9591 59.2519 74.9181 59.6672Q74.8772 60.0825 74.816 60.4953Q74.7548 60.9081 74.6734 61.3173Q74.5919 61.7266 74.4906 62.1314Q74.3892 62.5362 74.268 62.9356Q74.1469 63.3349 74.0063 63.7278Q73.8657 64.1207 73.706 64.5062Q73.5463 64.8918 73.3679 65.269Q73.1895 65.6462 72.9928 66.0143Q72.7961 66.3823 72.5815 66.7402Q72.367 67.0982 72.1351 67.4451Q71.9033 67.7921 71.6547 68.1273Q71.4061 68.4625 71.1414 68.785Q70.8767 69.1076 70.5964 69.4168Q70.3162 69.726 70.0211 70.0211Q69.726 70.3162 69.4168 70.5964Q69.1076 70.8767 68.785 71.1414Q68.4625 71.4061 68.1273 71.6547Q67.7921 71.9033 67.4451 72.1351Q67.0982 72.367 66.7402 72.5815Q66.3823 72.7961 66.0143 72.9928Q65.6462 73.1895 65.269 73.3679Q64.8918 73.5463 64.5062 73.706Q64.1207 73.8657 63.7278 74.0063Q63.3349 74.1469 62.9355 74.268Q62.5362 74.3892 62.1314 74.4905Q61.7266 74.5919 61.3173 74.6734Q60.9081 74.7548 60.4953 74.816Q60.0825 74.8772 59.6672 74.9181Q59.2519 74.959 58.8351 74.9795Q58.4183 75 58.001 75L16.999 75Q16.5817 75 16.1649 74.9795Q15.7481 74.959 15.3328 74.9181Q14.9175 74.8772 14.5047 74.816Q14.0919 74.7548 13.6827 74.6734Q13.2734 74.5919 12.8686 74.4906Q12.4638 74.3892 12.0645 74.268Q11.6651 74.1469 11.2722 74.0063Q10.8793 73.8657 10.4938 73.706Q10.1082 73.5463 9.73099 73.3679Q9.35375 73.1895 8.98573 72.9928Q8.6177 72.7961 8.25977 72.5815Q7.90183 72.367 7.55486 72.1351Q7.20789 71.9033 6.87271 71.6547Q6.53753 71.4061 6.21495 71.1414Q5.89237 70.8767 5.58317 70.5964Q5.27397 70.3162 4.97889 70.0211Q4.68382 69.726 4.40357 69.4168Q4.12333 69.1076 3.8586 68.785Q3.59386 68.4625 3.34528 68.1273Q3.09669 67.7921 2.86485 67.4451Q2.63301 67.0982 2.41847 66.7402Q2.20394 66.3823 2.00722 66.0143Q1.81051 65.6462 1.63209 65.269Q1.45367 64.8918 1.29397 64.5062Q1.13428 64.1207 0.993692 63.7278Q0.853108 63.3349 0.731971 62.9355Q0.610835 62.5362 0.509439 62.1314Q0.408043 61.7266 0.326631 61.3173Q0.245219 60.9081 0.183988 60.4953Q0.122758 60.0825 0.0818548 59.6672Q0.0409521 59.2519 0.020476 58.8351Q0 58.4183 0 58.001L0 16.999Q0 16.5817 0.020476 16.1649Q0.0409521 15.7481 0.0818548 15.3328Q0.122758 14.9175 0.183988 14.5047Q0.245219 14.0919 0.326631 13.6827Q0.408043 13.2734 0.509439 12.8686Q0.610835 12.4638 0.731971 12.0645Q0.853108 11.6651 0.993692 11.2722Q1.13428 10.8793 1.29397 10.4938Q1.45367 10.1082 1.63209 9.73099Q1.81051 9.35375 2.00722 8.98573Q2.20394 8.6177 2.41847 8.25977Q2.63301 7.90183 2.86485 7.55486Q3.09669 7.20789 3.34528 6.87271Q3.59386 6.53753 3.8586 6.21495Q4.12333 5.89237 4.40357 5.58317Q4.68382 5.27397 4.97889 4.97889Q5.27397 4.68382 5.58317 4.40357Q5.89237 4.12333 6.21495 3.8586Q6.53753 3.59386 6.87271 3.34528Q7.20789 3.09669 7.55486 2.86485Q7.90183 2.63301 8.25977 2.41847Q8.6177 2.20394 8.98573 2.00722Q9.35375 1.81051 9.73099 1.63209Q10.1082 1.45367 10.4938 1.29397Q10.8793 1.13428 11.2722 0.993692Q11.6651 0.853108 12.0645 0.731971Q12.4638 0.610835 12.8686 0.509439Q13.2734 0.408043 13.6827 0.326631Q14.0919 0.245219 14.5047 0.183988Q14.9175 0.122758 15.3328 0.0818548Q15.7481 0.0409521 16.1649 0.020476Q16.5817 0 16.999 0Z" id="path_1" />
    <clipPath id="mask_1">
      <use xlink:href="#path_1" />
    </clipPath>
  </defs>
  <g id="armchair">
    <path d="M16.999 0L58.001 0Q58.4183 0 58.8351 0.020476Q59.2519 0.0409521 59.6672 0.0818548Q60.0825 0.122758 60.4953 0.183988Q60.9081 0.245219 61.3173 0.326631Q61.7266 0.408043 62.1314 0.509439Q62.5362 0.610835 62.9356 0.731971Q63.3349 0.853108 63.7278 0.993692Q64.1207 1.13428 64.5062 1.29397Q64.8918 1.45367 65.269 1.63209Q65.6462 1.81051 66.0143 2.00722Q66.3823 2.20394 66.7402 2.41847Q67.0982 2.63301 67.4451 2.86485Q67.7921 3.09669 68.1273 3.34528Q68.4625 3.59386 68.785 3.8586Q69.1076 4.12333 69.4168 4.40357Q69.726 4.68382 70.0211 4.97889Q70.3162 5.27397 70.5964 5.58317Q70.8767 5.89237 71.1414 6.21495Q71.4061 6.53753 71.6547 6.87271Q71.9033 7.20789 72.1351 7.55486Q72.367 7.90183 72.5815 8.25977Q72.7961 8.6177 72.9928 8.98573Q73.1895 9.35375 73.3679 9.73099Q73.5463 10.1082 73.706 10.4938Q73.8657 10.8793 74.0063 11.2722Q74.1469 11.6651 74.268 12.0645Q74.3892 12.4638 74.4905 12.8686Q74.5919 13.2734 74.6734 13.6827Q74.7548 14.0919 74.816 14.5047Q74.8772 14.9175 74.9181 15.3328Q74.9591 15.7481 74.9795 16.1649Q75 16.5817 75 16.999L75 58.001Q75 58.4183 74.9795 58.8351Q74.9591 59.2519 74.9181 59.6672Q74.8772 60.0825 74.816 60.4953Q74.7548 60.9081 74.6734 61.3173Q74.5919 61.7266 74.4906 62.1314Q74.3892 62.5362 74.268 62.9356Q74.1469 63.3349 74.0063 63.7278Q73.8657 64.1207 73.706 64.5062Q73.5463 64.8918 73.3679 65.269Q73.1895 65.6462 72.9928 66.0143Q72.7961 66.3823 72.5815 66.7402Q72.367 67.0982 72.1351 67.4451Q71.9033 67.7921 71.6547 68.1273Q71.4061 68.4625 71.1414 68.785Q70.8767 69.1076 70.5964 69.4168Q70.3162 69.726 70.0211 70.0211Q69.726 70.3162 69.4168 70.5964Q69.1076 70.8767 68.785 71.1414Q68.4625 71.4061 68.1273 71.6547Q67.7921 71.9033 67.4451 72.1351Q67.0982 72.367 66.7402 72.5815Q66.3823 72.7961 66.0143 72.9928Q65.6462 73.1895 65.269 73.3679Q64.8918 73.5463 64.5062 73.706Q64.1207 73.8657 63.7278 74.0063Q63.3349 74.1469 62.9355 74.268Q62.5362 74.3892 62.1314 74.4905Q61.7266 74.5919 61.3173 74.6734Q60.9081 74.7548 60.4953 74.816Q60.0825 74.8772 59.6672 74.9181Q59.2519 74.959 58.8351 74.9795Q58.4183 75 58.001 75L16.999 75Q16.5817 75 16.1649 74.9795Q15.7481 74.959 15.3328 74.9181Q14.9175 74.8772 14.5047 74.816Q14.0919 74.7548 13.6827 74.6734Q13.2734 74.5919 12.8686 74.4906Q12.4638 74.3892 12.0645 74.268Q11.6651 74.1469 11.2722 74.0063Q10.8793 73.8657 10.4938 73.706Q10.1082 73.5463 9.73099 73.3679Q9.35375 73.1895 8.98573 72.9928Q8.6177 72.7961 8.25977 72.5815Q7.90183 72.367 7.55486 72.1351Q7.20789 71.9033 6.87271 71.6547Q6.53753 71.4061 6.21495 71.1414Q5.89237 70.8767 5.58317 70.5964Q5.27397 70.3162 4.97889 70.0211Q4.68382 69.726 4.40357 69.4168Q4.12333 69.1076 3.8586 68.785Q3.59386 68.4625 3.34528 68.1273Q3.09669 67.7921 2.86485 67.4451Q2.63301 67.0982 2.41847 66.7402Q2.20394 66.3823 2.00722 66.0143Q1.81051 65.6462 1.63209 65.269Q1.45367 64.8918 1.29397 64.5062Q1.13428 64.1207 0.993692 63.7278Q0.853108 63.3349 0.731971 62.9355Q0.610835 62.5362 0.509439 62.1314Q0.408043 61.7266 0.326631 61.3173Q0.245219 60.9081 0.183988 60.4953Q0.122758 60.0825 0.0818548 59.6672Q0.0409521 59.2519 0.020476 58.8351Q0 58.4183 0 58.001L0 16.999Q0 16.5817 0.020476 16.1649Q0.0409521 15.7481 0.0818548 15.3328Q0.122758 14.9175 0.183988 14.5047Q0.245219 14.0919 0.326631 13.6827Q0.408043 13.2734 0.509439 12.8686Q0.610835 12.4638 0.731971 12.0645Q0.853108 11.6651 0.993692 11.2722Q1.13428 10.8793 1.29397 10.4938Q1.45367 10.1082 1.63209 9.73099Q1.81051 9.35375 2.00722 8.98573Q2.20394 8.6177 2.41847 8.25977Q2.63301 7.90183 2.86485 7.55486Q3.09669 7.20789 3.34528 6.87271Q3.59386 6.53753 3.8586 6.21495Q4.12333 5.89237 4.40357 5.58317Q4.68382 5.27397 4.97889 4.97889Q5.27397 4.68382 5.58317 4.40357Q5.89237 4.12333 6.21495 3.8586Q6.53753 3.59386 6.87271 3.34528Q7.20789 3.09669 7.55486 2.86485Q7.90183 2.63301 8.25977 2.41847Q8.6177 2.20394 8.98573 2.00722Q9.35375 1.81051 9.73099 1.63209Q10.1082 1.45367 10.4938 1.29397Q10.8793 1.13428 11.2722 0.993692Q11.6651 0.853108 12.0645 0.731971Q12.4638 0.610835 12.8686 0.509439Q13.2734 0.408043 13.6827 0.326631Q14.0919 0.245219 14.5047 0.183988Q14.9175 0.122758 15.3328 0.0818548Q15.7481 0.0409521 16.1649 0.020476Q16.5817 0 16.999 0Z" id="Background" fill="none" fill-rule="evenodd" stroke="none" />
    <g clip-path="url(#mask_1)">
      <g id="Group" transform="translate(14.907043 0)">
        <g id="Group" transform="translate(1.3579712 32.871704)">
          <path d="M2.21436 0L6.73373 9.52694L4.51936 10.5774L0 1.05044L2.21436 0Z" transform="translate(0 0.0032958984)" id="Rectangle" fill="#F7F09A" fill-rule="evenodd" stroke="none" />
          <path d="M6.73373 1.05044L2.21436 10.5774L0 9.52694L4.51936 0L6.73373 1.05044Z" transform="translate(35.736755 0)" id="Rectangle" fill="#F7F09A" fill-rule="evenodd" stroke="none" />
        </g>
        <path d="M7.10753 2.11756L7.10753 6.37227L3.78905 6.37227L0 6.37227L0 2.11756C0 0.947671 0.949305 0 2.11919 0L4.98998 0C6.15986 0 7.10753 0.947671 7.10753 2.11756L7.10753 2.11756Z" transform="translate(0 28.856567)" id="Shape" fill="#61B0E0" fill-rule="evenodd" stroke="none" />
        <path d="M7.10753 2.11756L7.10753 6.37227L3.32012 6.37227L0 6.37227L0 2.11756C0 0.947671 0.949305 0 2.11919 0L4.98998 0C6.15986 0 7.10753 0.947671 7.10753 2.11756L7.10753 2.11756Z" transform="translate(38.07843 28.856567)" id="Shape" fill="#61B0E0" fill-rule="evenodd" stroke="none" />
        <path d="M22.3961 6.01118L0 6.01118C0 2.69106 2.69269 0 6.01281 0L8.19245 0L14.2053 0L16.3849 0C19.705 4.98632e-06 22.3961 2.69106 22.3961 6.01118L22.3961 6.01118Z" transform="translate(11.3949585 68.98877)" id="Shape" fill="#61B0E0" fill-rule="evenodd" stroke="none" />
        <path d="M0 0L6.01281 0L6.01281 22.3977L0 22.3977L0 0Z" transform="translate(19.587402 46.591064)" id="Rectangle" fill="#F7F09A" fill-rule="evenodd" stroke="none" />
        <path d="M0 0L6.01281 0L6.01281 8.38035L0 8.38035L0 0Z" transform="translate(19.587402 31.36792)" id="Rectangle" fill="#F7F09A" fill-rule="evenodd" stroke="none" />
        <path d="M26.0127 12.9864C26.0127 13.4357 25.9898 13.8899 25.9424 14.349L24.5258 27.9906C24.3265 29.9105 22.7089 31.3679 20.7793 31.3679L16.0131 31.3679L10.0003 31.3679L5.23419 31.3679C3.3029 31.3679 1.68532 29.9105 1.48598 27.9906L0.0710101 14.349C-0.726339 6.67618 5.29301 0 13.0067 0C20.2597 0 26.0127 5.9017 26.0127 12.9864L26.0127 12.9864Z" transform="translate(9.587036 0)" id="Shape" fill="#61B0E0" fill-rule="evenodd" stroke="none" />
        <path d="M32.376 2.49316e-06C34.2665 2.49316e-06 35.7991 1.53262 35.7991 3.42142C35.7991 4.36746 35.4151 5.22199 34.7959 5.84125C34.1766 6.46051 33.3204 6.84284 32.376 6.84284L20.906 6.84284L14.8931 6.84284L3.42142 6.84284C1.53261 6.84284 0 5.31186 0 3.42142C0 2.47702 0.38397 1.62248 1.00159 1.00159C1.62248 0.383971 2.47702 0 3.42142 0L14.8931 0L20.906 0L32.376 0L32.376 2.49316e-06Z" transform="translate(4.694214 39.74829)" id="Shape" fill="#61B0E0" fill-rule="evenodd" stroke="none" />
      </g>
    </g>
  </g>
</svg>