<?xml version="1.0" encoding="utf-8"?>
<svg width="30px" height="30px" viewbox="0 0 30 30" version="1.1" xmlns:xlink="http://www.w3.org/1999/xlink" xmlns="http://www.w3.org/2000/svg">
  <defs>
    <path d="M0 0L18.7482 0L18.7482 18.7248L0 18.7248L0 0Z" id="path_1" />
    <clipPath id="mask_1">
      <use xlink:href="#path_1" />
    </clipPath>
  </defs>
  <g id="edit">
    <g id="Group">
      <g id="Group">
        <g id="Group">
          <path d="M14.9798 0C14.3334 0 13.8095 0.52457 13.8095 1.1717C13.8095 1.81883 14.3334 2.3434 14.9798 2.3434C21.9651 2.3434 27.6189 8.00317 27.6189 14.9977C27.6189 21.9915 21.9659 27.6521 14.9798 27.6521C7.99439 27.6521 2.34059 21.9923 2.34059 14.9977C2.34059 14.3506 1.81665 13.826 1.17029 13.826C0.52394 13.826 0 14.3506 0 14.9977C0 23.2865 6.69975 29.9955 14.9798 29.9955C23.2586 29.9955 29.9595 23.2877 29.9595 14.9977C29.9595 6.70897 23.2598 0 14.9798 0L14.9798 0Z" transform="matrix(-4.371139E-08 1 -1 -4.371139E-08 29.995483 0.037475586)" id="Shape" fill="#006C76" fill-rule="evenodd" stroke="none" />
          <g id="edit" transform="translate(11.25177 0)">
            <path d="M0 0L18.7482 0L18.7482 18.7248L0 18.7248L0 0Z" id="Background" fill="none" fill-rule="evenodd" stroke="none" />
            <g clip-path="url(#mask_1)">
              <g id="Group">
                <g id="Group">
                  <path d="M17.6495 1.09737C16.941 0.38971 15.999 0 14.997 0C13.9951 0 13.053 0.38971 12.3445 1.09734L1.86111 11.5677C1.77191 11.6568 1.70728 11.7674 1.67345 11.8888L0.0268314 17.7972C-0.04417 18.052 0.0280764 18.3253 0.215888 18.5119C0.355034 18.6501 0.541491 18.7248 0.732415 18.7248C0.799132 18.7248 0.866435 18.7156 0.932456 18.6969L6.84828 17.0186C7.09786 16.9478 7.29135 16.7503 7.35682 16.4996C7.42229 16.2488 7.35001 15.9822 7.16681 15.7986L3.43724 12.0624L12.1271 3.3833L15.3589 6.61106L8.70647 13.2371C8.42009 13.5224 8.41946 13.9855 8.70508 14.2715C8.99066 14.5576 9.45442 14.5582 9.74077 14.2729L17.6494 6.39565C18.358 5.68802 18.7482 4.74721 18.7482 3.74649C18.7482 2.74578 18.358 1.80497 17.6495 1.09737L17.6495 1.09737ZM5.24979 15.9511L1.78694 16.9335L2.75675 13.4536L5.24979 15.9511L5.24979 15.9511ZM16.6134 5.36052L16.395 5.57808L13.1618 2.3489L13.3792 2.13174C13.8111 1.70041 14.3852 1.46287 14.996 1.46287C15.6067 1.46287 16.1809 1.70041 16.6127 2.13177C17.0446 2.56306 17.2824 3.13651 17.2824 3.74649C17.2824 4.35647 17.0446 4.92992 16.6134 5.36052L16.6134 5.36052Z" id="Shape" fill="#006C76" fill-rule="evenodd" stroke="none" />
                </g>
              </g>
            </g>
          </g>
        </g>
      </g>
    </g>
  </g>
</svg>