<?xml version="1.0" encoding="utf-8"?>
<svg width="30px" height="30px" viewbox="0 0 30 30" version="1.1" xmlns:xlink="http://www.w3.org/1999/xlink" xmlns="http://www.w3.org/2000/svg">
  <defs>
    <path d="M0 0L30 0L30 30L0 30L0 0Z" id="path_1" />
    <clipPath id="mask_1">
      <use xlink:href="#path_1" />
    </clipPath>
  </defs>
  <g id="cardiogram">
    <path d="M0 0L30 0L30 30L0 30L0 0Z" id="Background" fill="none" fill-rule="evenodd" stroke="none" />
    <g clip-path="url(#mask_1)">
      <g id="Group" transform="translate(0.46875 0.46829224)">
        <g id="Group" transform="translate(0.46875 0.46922302)">
          <g id="Group" transform="translate(24.375 8.760941)">
            <path d="M3.75 3.65156L3.75 12.8016L0 12.8016L0 4.80469C0 2.97187 0.740626 1.25156 1.99688 0C3.08438 0.871875 3.75 2.20312 3.75 3.65156L3.75 3.65156Z" id="Shape" fill="#F0D0B4" fill-rule="evenodd" stroke="none" />
          </g>
          <g id="Group" transform="translate(7.5 8.760941)">
            <path d="M3.75 4.80469L3.75 9.05156L0 9.05156L0 3.65156C0 2.20313 0.665625 0.871875 1.75312 0C3.00938 1.25156 3.75 2.97187 3.75 4.80469L3.75 4.80469Z" id="Shape" fill="#F0D0B4" fill-rule="evenodd" stroke="none" />
          </g>
          <g id="Group" transform="translate(13.425049 5.278122)">
            <path d="M8.775 1.88438L8.45625 2.51719C8.1375 3.15938 7.68281 3.69375 7.13437 4.11094C7.05 4.10156 6.96094 4.09688 6.87187 4.09688L6.70781 4.09688C6.12187 4.09688 5.55937 4.33125 5.14688 4.74375L4.85625 5.03438L4.56563 4.74375C4.15313 4.33125 3.59063 4.09688 3.00469 4.09688L2.84063 4.09688C2.5125 4.09688 2.19844 4.16719 1.91719 4.30313C1.24688 3.87188 0.689063 3.2625 0.31875 2.51719L0 1.88438L2.04375 1.28438L2.5125 0.0281252L2.52188 0C3.09844 0.225 3.73125 0.346875 4.3875 0.346875C5.04375 0.346875 5.67656 0.225 6.25313 0L6.2625 0.0281252L6.73125 1.28438L8.775 1.88438Z" id="Shape" fill="#F0D0B4" fill-rule="evenodd" stroke="none" />
          </g>
          <g id="Group" transform="translate(12.65625 0)">
            <path d="M10.3125 0L10.3125 0.46875C10.3125 1.89375 9.73594 3.18281 8.80312 4.11563C8.30156 4.61719 7.69687 5.01563 7.02187 5.27813C6.44531 5.50313 5.8125 5.625 5.15625 5.625C4.5 5.625 3.86719 5.50313 3.29063 5.27813C1.36406 4.53281 0 2.6625 0 0.46875L0 0.00937499L10.3125 0Z" id="Shape" fill="#F0D0B4" fill-rule="evenodd" stroke="none" />
          </g>
          <g id="Group" transform="translate(9.253174 7.162506)">
            <path d="M15.5063 0.754688L12.9469 0L12.6281 0.632813C12.3094 1.275 11.8547 1.80938 11.3062 2.22656C11.8125 2.2875 12.2625 2.51719 12.6 2.85938C13.0031 3.25313 13.2469 3.80625 13.2469 4.41563C13.2469 5.09531 12.9328 5.7375 12.3984 6.15469L9.02812 8.775L5.65781 6.15469C5.12344 5.7375 4.80938 5.09531 4.80938 4.41563C4.80938 3.525 5.33437 2.76094 6.08906 2.41875C5.41875 1.9875 4.86094 1.37813 4.49062 0.632814L4.17187 8.9407e-07L1.6125 0.754689C1.0125 0.932813 0.464062 1.22344 0 1.59844C1.25625 2.85 1.99688 4.57031 1.99688 6.40313L1.99688 10.65L3.87187 10.65C4.90781 10.65 5.74687 11.4891 5.74687 12.525L5.74687 14.4L13.2469 14.4L15.1219 14.4L15.1219 6.40313C15.1219 4.57031 15.8625 2.85 17.1188 1.59844C16.6547 1.22344 16.1062 0.932813 15.5063 0.754689L15.5063 0.754688Z" id="Shape" fill="#FCD770" fill-rule="evenodd" stroke="none" />
          </g>
          <g id="Group" transform="translate(14.746826 25.312485)">
            <path d="M3.06563 0.9375L3.06563 1.875L0 1.875C0.159375 1.59844 0.253125 1.27969 0.253125 0.9375L0.253125 0L3.06563 0L3.06563 0.9375Z" id="Shape" fill="#AAB2BD" fill-rule="evenodd" stroke="none" />
          </g>
          <g id="Group" transform="translate(0 17.8125)">
            <path d="M1.875 10.3125C0.839062 10.3125 0 9.47344 0 8.4375L0 1.875C0 0.839063 0.839062 0 1.875 0L7.5 0L11.25 0L13.125 0C14.1609 0 15 0.839063 15 1.875L15 3.75L15 7.5L15 8.4375C15 8.77969 14.9063 9.09844 14.7469 9.375C14.4234 9.9375 13.8187 10.3125 13.125 10.3125L1.875 10.3125Z" id="Shape" fill="#CCD1D9" fill-rule="evenodd" stroke="none" />
          </g>
          <g id="Group" transform="translate(1.875 19.6875)">
            <path d="M10.7813 0L0.46875 0C0.210937 0 0 0.210938 0 0.46875L0 1.875L0 4.21875C0 4.47656 0.210937 4.6875 0.46875 4.6875L10.7813 4.6875C11.0391 4.6875 11.25 4.47656 11.25 4.21875L11.25 2.8125L11.25 0.46875C11.25 0.210938 11.0391 0 10.7813 0L10.7813 0Z" id="Shape" fill="#69D6F4" fill-rule="evenodd" stroke="none" />
          </g>
          <g id="Group" transform="translate(14.0625 9.375)">
            <path d="M6.49688 0.0140628C7.00313 0.0749999 7.45313 0.304688 7.79062 0.646876C8.19375 1.04063 8.4375 1.59375 8.4375 2.20313C8.4375 2.88281 8.12344 3.525 7.58906 3.94219L4.21875 6.5625L0.848438 3.94219C0.314063 3.525 0 2.88281 0 2.20313C0 1.3125 0.524999 0.548438 1.27969 0.20625C1.56094 0.0703123 1.875 0 2.20313 0L2.36719 0C2.95312 0 3.51563 0.234375 3.92812 0.646875L4.21875 0.9375L4.50937 0.646875C4.92187 0.234375 5.48437 0 6.07031 0L6.23437 0C6.32343 0 6.4125 0.00468761 6.49687 0.0140628L6.49688 0.0140628Z" id="Shape" fill="#EF7385" fill-rule="evenodd" stroke="none" />
          </g>
        </g>
        <g id="Group">
          <path d="M11.25 0L0.9375 0C0.420469 0 0 0.420468 0 0.9375L0 4.6875C0 5.20453 0.420469 5.625 0.9375 5.625L11.25 5.625C11.767 5.625 12.1875 5.20453 12.1875 4.6875L12.1875 0.9375C12.1875 0.420468 11.767 0 11.25 0L11.25 0ZM11.25 0.9375L11.2505 2.8125L6.28781 2.8125L4.63687 1.16156L3.30375 2.93906L2.59453 1.875L0.9375 1.875L0.9375 0.9375L11.25 0.9375ZM0.9375 4.6875L0.9375 2.8125L2.09297 2.8125L3.25875 4.56094L4.73812 2.58844L5.89969 3.75L11.2509 3.75L11.2509 4.6875L0.9375 4.6875Z" transform="translate(1.875 19.687973)" id="Shape" fill="#000000" fill-rule="evenodd" stroke="none" />
          <path d="M0 0L0.9375 0L0.9375 0.9375L0 0.9375L0 0Z" transform="translate(1.875 26.250458)" id="Shape" fill="#000000" fill-rule="evenodd" stroke="none" />
          <path d="M0 0L0.9375 0L0.9375 0.9375L0 0.9375L0 0Z" transform="translate(5.625 26.250458)" id="Shape" fill="#000000" fill-rule="evenodd" stroke="none" />
          <path d="M0 0L0.9375 0L0.9375 0.9375L0 0.9375L0 0Z" transform="translate(3.75 26.250458)" id="Shape" fill="#000000" fill-rule="evenodd" stroke="none" />
          <path d="M3.75 0L2.8125 0C2.8125 0.517031 2.39203 0.9375 1.875 0.9375C1.35797 0.9375 0.9375 0.517031 0.9375 0L0 0C0 1.03406 0.840937 1.875 1.875 1.875C2.90906 1.875 3.75 1.03406 3.75 0L3.75 0Z" transform="translate(16.40625 2.812973)" id="Shape" fill="#000000" fill-rule="evenodd" stroke="none" />
          <path d="M20.625 23.438L22.0312 23.438C22.6416 23.438 23.1572 23.0447 23.3512 22.5005L29.0625 22.5005L29.0625 12.8827C29.0625 10.6111 27.5405 8.57672 25.3612 7.93594L20.9827 6.64781L20.7375 5.99063C22.6097 5.07656 23.9062 3.15844 23.9062 0.937969L23.9062 0L12.6562 0.00984376L12.6562 0.937969C12.6562 3.15844 13.9528 5.07656 15.8255 5.99063L15.5803 6.64781L11.2017 7.93594C9.02203 8.57719 7.5 10.6116 7.5 12.8827L7.5 17.813L2.34375 17.813C1.05141 17.813 0 18.8644 0 20.1567L0 26.7192C0 28.0116 1.05141 29.063 2.34375 29.063L13.5937 29.063C14.3564 29.063 15.0286 28.6913 15.4566 28.1255L18.75 28.1255L18.75 27.188L27.6563 27.188C28.4316 27.188 29.0625 26.557 29.0625 25.7817C29.0625 25.0064 28.4316 24.3755 27.6563 24.3755L20.625 24.3755C20.3662 24.3755 20.1563 24.1655 20.1563 23.9067C20.1563 23.648 20.3662 23.438 20.625 23.438L20.625 23.438ZM28.125 12.8827L28.125 21.563L25.3125 21.563L25.3125 14.0367C25.3125 12.495 25.8666 11.0414 26.8716 9.89156C27.6511 10.6678 28.125 11.738 28.125 12.8827L28.125 12.8827ZM26.1361 9.30797C24.9998 10.6238 24.375 12.2803 24.375 14.0367L24.375 21.563L23.3512 21.563C23.1572 21.0188 22.6416 20.6255 22.0313 20.6255L19.6875 20.6255C19.4288 20.6255 19.2188 20.4155 19.2188 20.1567L19.2188 16.6359L22.4063 14.1572C23.0616 13.6472 23.4375 12.8784 23.4375 12.0478C23.4375 10.9969 22.8263 10.0884 21.9422 9.6525C22.2712 9.3 22.5558 8.90625 22.7709 8.47594L22.9125 8.19328L25.0964 8.83547C25.4691 8.94516 25.8169 9.10735 26.1361 9.30797L26.1361 9.30797ZM16.7348 10.313L16.8998 10.313C17.363 10.313 17.7989 10.4934 18.1266 10.8211L18.75 11.4445L19.3734 10.8211C19.7011 10.4934 20.137 10.313 20.6002 10.313L20.7652 10.313C21.7219 10.313 22.5 11.0911 22.5 12.0478C22.5 12.5869 22.2558 13.0861 21.8302 13.417L18.75 15.8128L15.6698 13.417C15.2442 13.0861 15 12.5869 15 12.0478C15 11.0911 15.7781 10.313 16.7348 10.313L16.7348 10.313ZM13.5938 0.9464L22.9688 0.938431C22.9683 3.52265 20.8659 5.62546 18.2813 5.62546C15.6994 5.62546 13.5984 3.52687 13.5938 0.946399L13.5938 0.9464ZM16.2952 7.41515L16.6983 6.33234C17.2013 6.47999 17.7314 6.56296 18.2813 6.56296C18.8311 6.56296 19.3613 6.47999 19.8642 6.33234L20.2674 7.41515L21.9985 7.92421L21.9324 8.0564C21.6774 8.5664 21.3089 9.01827 20.8683 9.38062C20.8336 9.37921 20.7999 9.37546 20.7652 9.37546L20.6002 9.37546C19.905 9.37546 19.2497 9.63937 18.75 10.1194C18.2503 9.63937 17.595 9.37546 16.8999 9.37546L16.7349 9.37546C16.4349 9.37546 16.1471 9.42749 15.8775 9.5189C15.3535 9.13593 14.9213 8.63859 14.6302 8.0564L14.5641 7.92421L16.2952 7.41515ZM8.4375 12.8827C8.4375 11.738 8.91141 10.6678 9.69094 9.89156C10.6959 11.0419 11.25 12.495 11.25 14.0367L11.25 17.813L8.4375 17.813L8.4375 12.8827ZM15 26.7192C15 27.4945 14.3691 28.1255 13.5938 28.1255L2.34375 28.1255C1.56844 28.1255 0.9375 27.4945 0.9375 26.7192L0.9375 20.1567C0.9375 19.3814 1.56844 18.7505 2.34375 18.7505L13.5938 18.7505C14.3691 18.7505 15 19.3814 15 20.1567L15 26.7192ZM17.8125 27.188L15.8901 27.188C15.9211 27.0366 15.9375 26.8795 15.9375 26.7192L15.9375 26.2505L17.8125 26.2505L17.8125 27.188ZM20.625 25.313L27.6562 25.313C27.915 25.313 28.125 25.523 28.125 25.7817C28.125 26.0405 27.915 26.2505 27.6562 26.2505L18.75 26.2505L18.75 25.313L15.9375 25.313L15.9375 20.1567C15.9375 18.8644 14.8861 17.813 13.5937 17.813L12.1875 17.813L12.1875 14.0367C12.1875 12.2803 11.5626 10.6238 10.4264 9.30797C10.7456 9.10735 11.0934 8.94516 11.4661 8.83547L13.65 8.19328L13.7915 8.47594C14.0878 9.06797 14.4989 9.5925 14.9958 10.0233C14.4253 10.5136 14.0625 11.2383 14.0625 12.0478C14.0625 12.8784 14.4384 13.6472 15.0937 14.1572L18.2812 16.6359L18.2812 20.1567C18.2812 20.932 18.9122 21.563 19.6875 21.563L22.0312 21.563C22.29 21.563 22.5 21.773 22.5 22.0317C22.5 22.2905 22.29 22.5005 22.0312 22.5005L20.625 22.5005C19.8497 22.5005 19.2187 23.1314 19.2187 23.9067C19.2187 24.682 19.8497 25.313 20.625 25.313L20.625 25.313Z" id="Shape" fill="#000000" fill-rule="evenodd" stroke="none" />
        </g>
      </g>
    </g>
  </g>
</svg>