<?xml version="1.0" encoding="utf-8"?>
<svg width="100px" height="100px" viewBox="0 0 100 100" version="1.1" xmlns:xlink="http://www.w3.org/1999/xlink" xmlns="http://www.w3.org/2000/svg">
  <desc>Created with Lunacy</desc>
  <defs>
    <path d="M0 0L100 0L100 100L0 100L0 0Z" id="path_1" />
    <clipPath id="mask_1">
      <use xlink:href="#path_1" />
    </clipPath>
  </defs>
  <g id="health-insurance">
    <path d="M0 0L100 0L100 100L0 100L0 0Z" id="Background" fill="none" fill-rule="evenodd" stroke="none" />
    <g clip-path="url(#mask_1)">
      <g id="Group" transform="translate(1.5749512 1.5515747)">
        <g id="Group" transform="translate(1.5609248 1.5609145)">
          <g id="Group">
            <path d="M53.1907 48.4563C52.8 48.4563 52.425 48.4235 52.0657 48.361C49.0969 47.8266 46.8657 45.2297 46.8688 42.1203C46.8703 41.1516 47.1047 40.1828 47.5438 39.3078L48.186 38.011C48.5141 37.3391 48.8125 36.6516 49.0469 35.95C49.6735 34.1531 50.0047 32.2485 50.0063 30.3266L50.0094 28.1391C50.0125 25.5766 50.5766 23.1391 51.5797 20.9688C52.2063 19.6094 53.0047 18.3453 53.9438 17.2063C56.1188 14.5844 59.0578 12.6188 62.4188 11.6531C55.8625 4.49064 46.461 0.0125177 35.9766 1.71363e-05C23.0078 -0.0124829 11.625 6.85002 5.30159 17.1547C1.95159 22.6047 0.00783578 29.0235 2.34693e-05 35.8985C-0.00778884 42.7735 1.92346 49.1969 5.26096 54.6547C11.5625 64.9734 22.9297 71.861 35.8985 71.875C36.1016 71.875 36.3047 71.875 36.5078 71.8594C37.9141 71.7516 39.2891 71.3 40.5875 70.536L40.5875 70.411C40.5906 67.9422 41.2172 65.5516 42.3453 63.4438C43.4719 61.336 45.1313 59.4938 47.1797 58.1203C48.0547 57.5438 48.9938 57.0594 49.9625 56.686C51.025 56.2656 52.1516 55.9703 53.2922 55.7985L60.9188 54.7125L61.8297 50.1985C60.986 49.7281 60.2219 49.15 59.5344 48.461L53.1907 48.4563Z" id="Shape" fill="#69D6F4" fill-rule="evenodd" stroke="none" />
          </g>
          <g id="Group" transform="translate(40.567223 54.7172)">
            <path d="M34.975 0.31094L27.5891 25.4906C26.9344 24.2406 25.6531 23.4422 24.2312 23.4406C22.7938 23.4391 21.4797 24.25 20.8391 25.5312L20.3219 26.5625L18.7594 26.5609C17.0406 26.5594 15.6328 27.9641 15.6312 29.6828L15.6281 32.8078C15.6266 34.5266 17.0312 35.9344 18.75 35.9359L9.375 35.9266L0 35.9172L0.0203133 16.8703L0.0218749 15.8234L0.0218749 15.6984C0.0250012 13.2297 0.651562 10.8391 1.77969 8.73125C2.90625 6.62344 4.56563 4.78125 6.61407 3.40781C7.48907 2.83125 8.42813 2.34687 9.39687 1.97344C10.4594 1.55312 11.5844 1.25781 12.7266 1.08594L20.3531 0L20.7734 1.70313C21.4422 4.375 23.8469 6.25312 26.5969 6.25625C27.9719 6.25781 29.2531 5.79063 30.2859 4.99532C31.3188 4.18438 32.1 3.04375 32.4297 1.71563L32.8531 0.0125051L34.975 0.31094Z" id="Shape" fill="#FCD770" fill-rule="evenodd" stroke="none" />
          </g>
          <g id="Group" transform="translate(84.192215 56.725018)">
            <path d="M9.50782 26.15C9.50313 30.4625 6.00001 33.9594 1.6875 33.9547L0 33.9531C0.0781238 33.6406 0.125003 33.3125 0.126564 32.9844L0.13594 24.5781L0.1625 0C1.14688 0.376564 2.08281 0.860935 2.95781 1.44063C5.00312 2.81719 6.65781 4.66406 7.77969 6.77344C8.90313 8.88438 9.525 11.275 9.52188 13.7438L9.50782 26.15Z" id="Shape" fill="#FCD770" fill-rule="evenodd" stroke="none" />
          </g>
          <g id="Group" transform="translate(65.56562 55.02814)">
            <path d="M2.59066 25.1797L9.9766 0L15.475 0.803125C16.6157 0.96094 17.725 1.25937 18.786 1.68125L18.786 1.69687L18.7594 26.275L18.75 34.6813C18.75 35.0094 18.7032 35.3375 18.6235 35.65C18.2 37.4312 16.5735 38.7734 14.6516 38.7703L4.0891 38.7594C2.16722 38.7578 0.543785 37.4125 0.123471 35.6297C0.0453472 35.3172 -0.00153184 34.9891 3.57628e-05 34.6609L3.57628e-05 34.6453C3.57628e-05 34.2703 0.0640988 33.8797 0.157851 33.5047L2.59066 25.1797Z" id="Shape" fill="#E6E9ED" fill-rule="evenodd" stroke="none" />
          </g>
          <g id="Group" transform="translate(46.868767 10.971884)">
            <path d="M15.5484 0.68282C17.0641 0.231259 18.6734 -0.00155419 20.3453 7.45058e-06C29.8453 0.0109449 37.525 7.70626 37.5141 17.2063L37.5109 19.3938C37.5078 22.0656 38.1297 24.7063 39.3156 27.0828L39.9547 28.3797C40.3906 29.2547 40.625 30.2234 40.6234 31.1922C40.6203 34.6922 37.7891 37.5172 34.2891 37.5141L27.9453 37.5078C29.9781 35.5406 31.2469 32.7609 31.25 29.6984L31.2547 25.0109C31.2578 22.4172 30.2125 20.0719 28.5125 18.3828C26.8266 16.6781 24.4844 15.6281 21.8906 15.625C20.4203 17.5922 18.5125 19.1531 16.3703 20.2125C14.2281 21.2891 11.8531 21.8641 9.38438 21.8609L9.37657 29.6734C9.37344 32.7047 10.5891 35.425 12.5719 37.4109C12.6031 37.4422 12.6344 37.4734 12.6656 37.4891L6.32188 37.4828C5.93126 37.4828 5.55625 37.45 5.19688 37.3875C2.22813 36.8531 -0.00311732 34.2562 5.96046e-06 31.1469C0.0015676 30.1781 0.235945 29.2094 0.675005 28.3344L1.31719 27.0375C1.64531 26.3656 1.94375 25.6781 2.17813 24.9766C2.80469 23.1797 3.13594 21.275 3.1375 19.3531L3.14062 17.1656C3.14375 14.6031 3.70781 12.1656 4.71094 9.99531C5.3375 8.63593 6.13593 7.37187 7.075 6.23281C9.24843 3.6125 12.1891 1.64687 15.5484 0.68281L15.5484 0.68282Z" id="Shape" fill="#656D78" fill-rule="evenodd" stroke="none" />
          </g>
          <g id="Group" transform="translate(28.121906 28.121891)">
            <path d="M15.6297 7.825L15.625 10.95L10.9375 10.9453L10.9328 15.6328L4.68281 15.625L4.6875 10.9375L0 10.9328L0.00468791 7.80781L0.00781417 4.68281L4.69531 4.6875L4.7 0L10.95 0.00781119L10.9453 4.69531L15.6328 4.7L15.6297 7.825Z" id="Shape" fill="#E6E9ED" fill-rule="evenodd" stroke="none" />
          </g>
          <g id="Group" transform="translate(56.193768 78.156265)">
            <path d="M11.9625 2.05157L9.53126 10.3766C9.43751 10.7516 9.37345 11.1422 9.37345 11.5172L9.37345 11.5328C9.37345 11.8609 9.42032 12.1891 9.49688 12.5016L4.68438 12.4969L3.12188 12.4953C1.40313 12.4938 -0.00156164 11.0859 0 9.36719L0.00312328 6.24219C0.00468493 4.52345 1.4125 3.11875 3.13125 3.12032L4.69375 3.12188L5.21094 2.09063C5.85312 0.809378 7.16562 -0.00156164 8.60313 0C10.0281 0.00156164 11.3078 0.800002 11.9625 2.05156L11.9625 2.05157Z" id="Shape" fill="#F0D0B4" fill-rule="evenodd" stroke="none" />
          </g>
          <g id="Group" transform="translate(60.918774 50.200016)">
            <path d="M0.910944 0L6.25313 1.39688C8.20625 1.39844 10.0188 0.901562 11.5984 0.0124991L12.5 4.52968L12.0766 6.23281C11.7469 7.56093 10.9641 8.7 9.93281 9.5125C8.9 10.3078 7.61875 10.775 6.24375 10.7734C3.49376 10.7703 1.08907 8.89218 0.420314 6.2203L0 4.51718L0.910944 0Z" id="Shape" fill="#F0D0B4" fill-rule="evenodd" stroke="none" />
          </g>
          <g id="Group" transform="translate(56.24534 26.59846)">
            <path d="M19.1375 2.75781C20.8391 4.44687 21.8828 6.79218 21.8797 9.38593L21.875 14.0734C21.8719 17.1359 20.6031 19.9156 18.5703 21.8828C17.8828 22.5703 17.1156 23.1469 16.2719 23.6141C14.6922 24.5031 12.8797 25.0016 10.9266 24.9984L5.58438 23.6016C4.74063 23.1313 3.97657 22.5531 3.28907 21.8641C3.25782 21.8484 3.22657 21.8172 3.19532 21.7859C1.2125 19.8 -0.00312328 17.0797 5.96047e-06 14.0484L0.00782013 6.23594C2.47657 6.23907 4.85157 5.6625 6.99376 4.5875C9.13595 3.52656 11.0438 1.96719 12.5141 0C15.1094 0.00312626 17.4516 1.05156 19.1375 2.75781L19.1375 2.75781Z" id="Shape" fill="#F0D0B4" fill-rule="evenodd" stroke="none" />
          </g>
        </g>
        <g id="Group">
          <path d="M89.5719 58.4297C87.5531 57.0812 85.2188 56.1844 82.8188 55.8391L76.2953 54.9016L75.8219 52.5187C76.225 52.2406 76.6094 51.9328 76.9813 51.6047L82.7266 51.6109L82.7375 51.6109C84.8391 51.6109 86.8141 50.7937 88.3031 49.3078C89.7938 47.8203 90.6156 45.8422 90.6172 43.7375C90.6188 42.5203 90.3328 41.3 89.7891 40.2094L89.1469 38.9234C88.0719 36.7641 87.5031 34.3469 87.5063 31.9328L87.5078 29.7406C87.5141 24.7328 85.5688 20.0219 82.0297 16.4766C78.4922 12.9312 73.786 10.9766 68.7781 10.9719C68.7703 10.9719 68.7641 10.9719 68.7563 10.9719C67.286 10.9719 65.861 11.1594 64.486 11.4812C57.45 4.1875 47.6969 0.0109375 37.5406 0C37.5375 0 37.5328 0 37.5297 0C37.5188 0 37.5094 0 37.4985 0C27.4985 0 18.0922 3.88906 11.0125 10.9547C3.9219 18.0297 0.0109604 27.4422 2.29105e-05 37.4594C-0.0109145 47.475 3.87971 56.8953 10.9547 63.9875C18.0297 71.0781 27.4438 74.9891 37.4594 75L37.4688 75L37.4969 75C38.5297 75 39.5594 74.9437 40.586 74.8594L40.5656 93.7547L60.8766 93.7766L60.8781 93.7766L62.1203 93.7781L62.4406 93.7781L66.1938 93.7812C67.1266 95.6265 69.0188 96.9094 71.2266 96.9125L81.7735 96.9234L81.7813 96.9234C83.9828 96.9234 85.8766 95.6469 86.8125 93.8047L87.4406 93.8047L87.4547 93.8047C89.9531 93.8047 92.3047 92.8328 94.0735 91.0672C95.8453 89.2984 96.8235 86.9437 96.8266 84.4406L96.8391 72.0406C96.8422 66.5609 94.1281 61.4719 89.5719 58.4297L89.5719 58.4297ZM73.3781 56.25L73.0359 57.6109C72.5406 59.5891 70.7688 60.9687 68.7281 60.9687C68.7266 60.9687 68.725 60.9687 68.7235 60.9687C66.6813 60.9672 64.9125 59.5812 64.4188 57.6L64.0797 56.2375L64.536 53.9734C65.85 54.4453 67.2578 54.7172 68.7313 54.7187L68.7469 54.7187C70.1953 54.7187 71.6016 54.4594 72.9281 53.9891L73.3781 56.25ZM3.20002 39.025L18.786 39.0422C18.8906 44.5609 19.561 49.875 20.7719 54.6687L7.73752 54.6547C5.00002 49.9219 3.44221 44.5969 3.20002 39.025L3.20002 39.025ZM51.5016 22.3891C50.5438 24.6359 50.0094 27.1062 50.0063 29.7L50.0047 31.8922C50.0031 33.2609 49.7985 34.625 49.4406 35.9484L46.875 35.9453L46.8782 32.8203L42.1907 32.8156L42.1953 28.1281L32.8203 28.1187L32.8156 32.8062L28.1281 32.8016L28.125 35.9266L21.911 35.9203C22.0328 30.3516 22.7625 25.0328 24.0453 20.2969L50.9938 20.325C51.1735 20.9984 51.3422 21.6875 51.5016 22.3891L51.5016 22.3891ZM31.2485 39.0547L31.2516 35.9297L35.9391 35.9344L35.9438 31.2469L39.0688 31.25L39.0641 35.9375L43.7516 35.9422L43.7485 39.0672L39.061 39.0625L39.0547 43.75L35.9297 43.7469L35.936 39.0594L31.2485 39.0547ZM18.7875 35.9172L3.20158 35.9C3.45627 30.3281 5.02502 25.0078 7.77346 20.2797L20.8063 20.2937C19.5875 25.0844 18.9047 30.3984 18.7875 35.9172L18.7875 35.9172ZM21.9094 39.0453L28.1235 39.0516L28.1203 42.1766L32.8078 42.1812L32.8016 46.8687L42.1766 46.8781L42.1828 42.1906L46.8703 42.1953L46.8735 39.0703L48.25 39.0734L47.7047 40.1625C47.1578 41.2484 46.8688 42.4672 46.8672 43.6891C46.8657 45.7953 47.6828 47.775 49.1703 49.2656C49.9328 50.0281 50.825 50.6094 51.7953 51.0031C51.5406 52.2703 51.2578 53.5062 50.9344 54.7016L24.0094 54.6719C22.7375 49.9344 22.0188 44.6141 21.9094 39.0453L21.9094 39.0453ZM78.1188 42.2312C78.1156 44.7359 77.1391 47.0891 75.3656 48.8578C73.5922 50.6266 71.2531 51.5453 68.7344 51.5953C63.5641 51.5906 59.3641 47.3797 59.3688 42.2109L59.3766 35.8891C63.9016 35.475 68.1344 33.2609 71.05 29.7578C75.0172 30.1312 78.1281 33.4828 78.125 37.5437L78.1188 42.2312ZM60.4938 51.5859C60.861 51.9094 61.2422 52.2172 61.6453 52.4953L61.2 54.7109L54.1891 54.7031C54.4469 53.6906 54.6547 52.6328 54.8656 51.5781L60.4938 51.5859ZM68.7735 14.0953C72.9469 14.1 76.8703 15.7281 79.8172 18.6844C82.7656 21.6391 84.386 25.5641 84.3813 29.7391L84.3797 31.9312C84.3766 34.8266 85.0578 37.7266 86.35 40.3187L86.9922 41.6047C87.3203 42.2625 87.4922 42.9984 87.4906 43.7328C87.4891 45.0031 86.9938 46.1984 86.0938 47.0953C85.1953 47.9906 84.0016 48.4844 82.7344 48.4844C82.7328 48.4844 82.7297 48.4844 82.7281 48.4844L79.5516 48.4813C80.6438 46.6016 81.2406 44.4656 81.2422 42.2328L81.2485 37.5453C81.2531 31.5141 76.3516 26.6031 70.3219 26.5969L69.5406 26.5969L69.0703 27.2219C66.4297 30.7375 62.2281 32.8344 57.8313 32.8344C57.8266 32.8344 57.8203 32.8344 57.8157 32.8344L56.2532 32.8328L56.2422 42.2078C56.2391 44.4859 56.8594 46.6172 57.9266 48.4594L54.7438 48.4563C53.4735 48.4563 52.2782 47.9594 51.3813 47.0594C50.4844 46.1609 49.9891 44.9656 49.9907 43.6953C49.9922 42.9578 50.1657 42.2234 50.4969 41.5672L51.1391 40.2813C52.4375 37.6938 53.125 34.7953 53.1282 31.8969L53.1297 29.7047C53.1391 21.0953 60.1453 14.0969 68.7532 14.0969C68.7625 14.0953 68.7688 14.0953 68.7735 14.0953L68.7735 14.0953ZM54.836 17.2047L53.3469 17.2031C51.6047 11.6547 49.2 7.25937 46.3719 4.29374C51.8875 5.77187 56.986 8.61874 61.1703 12.5875C58.7422 13.6703 56.5922 15.2531 54.836 17.2047L54.836 17.2047ZM37.536 3.12499C42.4703 3.12968 47.1172 8.50156 50.05 17.2L25.0047 17.1734C25.5375 15.6187 26.1203 14.1266 26.7813 12.75C29.7157 6.63124 33.6328 3.12343 37.5282 3.12343C37.5313 3.12499 37.5344 3.12499 37.536 3.12499L37.536 3.12499ZM13.2188 13.1656C17.5719 8.82187 22.8953 5.82499 28.686 4.29687C26.9485 6.12343 25.3547 8.49843 23.9657 11.3969C23.1094 13.1812 22.3547 15.1172 21.7 17.1687L9.83128 17.1578C10.861 15.7625 11.9688 14.4141 13.2188 13.1656L13.2188 13.1656ZM9.78753 57.7812L21.6547 57.7937C22.3047 59.8469 23.0563 61.7844 23.9078 63.5703C25.2907 66.4719 26.8797 68.8516 28.6125 70.6812C22.825 69.1406 17.5094 66.1312 13.1657 61.7797C11.9188 60.5297 10.8157 59.1781 9.78753 57.7812L9.78753 57.7812ZM26.7282 62.225C26.0703 60.8469 25.4907 59.3531 24.961 57.7969L48.8344 57.8234C48.5141 58.0062 48.1891 58.1781 47.8828 58.3812C43.5657 61.2547 40.9203 65.9672 40.6422 71.1109C39.6 71.6078 38.5391 71.8719 37.4766 71.8734C37.4719 71.8734 37.4672 71.8734 37.4625 71.8734C33.5625 71.8703 29.65 68.3531 26.7281 62.225L26.7282 62.225ZM43.711 71.9828C43.7172 67.5516 45.9219 63.4391 49.611 60.9859C51.2453 59.9 53.136 59.1797 55.0797 58.9047L61.3016 58.0219L61.3844 58.3563C62.225 61.7313 65.2406 64.0906 68.7188 64.0953L68.7266 64.0953C70.7032 64.0953 72.5141 63.3156 73.8797 62.0391L68.961 78.8406C68.1813 78.4063 67.2938 78.1563 66.361 78.1563C66.3594 78.1563 66.3578 78.1563 66.3547 78.1563C64.3141 78.1563 62.4813 79.2891 61.5688 81.1109L61.4844 81.275L60.8875 81.275C60.886 81.275 60.8844 81.275 60.8828 81.275C58.3 81.275 56.1969 83.375 56.1953 85.9562L56.1907 89.0828C56.1907 89.6328 56.3016 90.1531 56.4766 90.6453L53.0641 90.6422L53.0891 68.7672L49.9641 68.7641L49.9391 90.6391L43.6891 90.6328L43.711 71.9828ZM65.6094 90.6547L62.1594 90.6516L60.8797 90.65C60.0172 90.6484 59.3188 89.9484 59.3188 89.0859L59.3235 85.9609C59.3235 85.1 60.025 84.4 60.886 84.4L60.8875 84.4L63.4156 84.4031L64.3641 82.5094C64.7422 81.7516 65.5063 81.2812 66.3547 81.2812L66.3578 81.2812C67.0094 81.2828 67.6063 81.5687 68.0235 82.0422L65.7938 89.6578C65.6984 89.9844 65.6438 90.3187 65.6094 90.6547L65.6094 90.6547ZM83.5703 93.0547C83.0907 93.5344 82.4547 93.7969 81.7782 93.7969C81.7782 93.7969 81.7766 93.7969 81.775 93.7969L71.2282 93.7859C70.5485 93.7844 69.9125 93.5203 69.4344 93.039C68.9547 92.5594 68.6907 91.9219 68.6922 91.2422C68.6922 91.0047 68.7266 90.764 68.7938 90.5344L78.2235 58.3359L82.3735 58.9328C83.0438 59.0297 83.7016 59.1969 84.3516 59.3969L84.3172 91.2609C84.3157 91.939 84.0516 92.575 83.5703 93.0547L83.5703 93.0547ZM93.7 84.4344C93.6985 86.1031 93.0469 87.6719 91.8641 88.8516C90.6844 90.0281 89.1172 90.6766 87.4516 90.6766C87.4485 90.6766 87.4453 90.6766 87.4438 90.6766L87.4485 85.7828L89.7063 87.2922L91.4422 84.6953L87.4531 82.0281L87.475 60.8125C87.5938 60.8859 87.7203 60.9484 87.836 61.025C91.5203 63.4875 93.7188 67.6031 93.7125 72.0344L93.7 84.4344Z" id="Shape" fill="#000000" fill-rule="evenodd" stroke="none" />
          <path d="M1.56406 2.98023e-06C0.701565 -0.00155866 0.00156164 0.698442 0 1.56094C-0.00156164 2.42344 0.698435 3.12344 1.56094 3.125C2.42344 3.12657 3.12344 2.42657 3.125 1.56407C3.12656 0.701565 2.42656 0.00156462 1.56406 2.98023e-06L1.56406 2.98023e-06Z" transform="translate(71.875015 35.97499)" id="Shape" fill="#000000" fill-rule="evenodd" stroke="none" />
          <path d="M1.56094 3.125C2.42344 3.12657 3.12344 2.42657 3.125 1.56407C3.12657 0.701565 2.42657 0.00156462 1.56406 2.98023e-06C0.701559 -0.00155866 0.00156164 0.698442 0 1.56094C0 2.42344 0.698436 3.12344 1.56094 3.125L1.56094 3.125Z" transform="translate(62.498455 35.965614)" id="Shape" fill="#000000" fill-rule="evenodd" stroke="none" />
          <path d="M8.45782 2.21875C7.86563 2.80781 7.09063 3.07031 6.24688 3.13125C4.52344 3.12969 3.12344 1.725 3.125 0.00156164L0 0C-0.00156164 3.44531 2.79844 6.25156 6.24375 6.25625L6.25 6.25625C7.91719 6.25625 9.48438 5.60781 10.6656 4.42969C11.8469 3.25 12.4984 1.68125 12.5 0.0109345L9.375 0.00937283C9.375 0.843748 9.04844 1.62812 8.45781 2.21875L8.45782 2.21875Z" transform="translate(62.493767 42.214058)" id="Shape" fill="#000000" fill-rule="evenodd" stroke="none" />
        </g>
      </g>
    </g>
  </g>
</svg>