<svg width="29" height="29" viewBox="0 0 29 29" fill="none" xmlns="http://www.w3.org/2000/svg">
<g clip-path="url(#clip0)">
<path d="M14.5004 6.04193C7.05597 6.04193 0.42232 13.78 0.143199 14.1099C-0.0477331 14.3346 -0.0477331 14.6645 0.143199 14.8904C0.309947 15.0874 2.74834 17.9184 6.26454 20.1731L10.0514 16.3863C9.80492 15.8063 9.66717 15.1695 9.66717 14.5001C9.66717 11.8346 11.8349 9.66687 14.5004 9.66687C15.1698 9.66687 15.8066 9.80462 16.3866 10.0511L19.5004 6.93729C17.9827 6.39474 16.3165 6.04193 14.5004 6.04193Z" fill="black"/>
<path d="M28.8926 14.1557C28.7379 13.9322 26.1727 10.3217 21.8602 7.99453L25.1988 4.65595C25.4344 4.42033 25.4344 4.03728 25.1988 3.80165C24.9632 3.56603 24.5801 3.56603 24.3445 3.80165L3.80318 24.3431C3.56756 24.5787 3.56756 24.9618 3.80318 25.1974C3.92037 25.3158 4.07505 25.375 4.22973 25.375C4.38442 25.375 4.53904 25.3158 4.65748 25.1986L8.44554 21.4105C10.3124 22.3215 12.3714 22.9583 14.5004 22.9583C21.9448 22.9583 28.5785 15.2203 28.8576 14.8904C29.0328 14.6814 29.0485 14.3805 28.8926 14.1557ZM14.5004 19.3334C13.3851 19.3334 12.3714 18.9383 11.5521 18.3027L18.303 11.5519C18.9385 12.3711 19.3336 13.3849 19.3336 14.5002C19.3336 17.1657 17.1659 19.3334 14.5004 19.3334Z" fill="black"/>
</g>
<defs>
<clipPath id="clip0">
<rect width="29" height="29" fill="white"/>
</clipPath>
</defs>
</svg>
