<?xml version="1.0" encoding="utf-8"?>
<svg width="25px" height="25px" viewbox="0 0 25 25" version="1.1" xmlns:xlink="http://www.w3.org/1999/xlink" xmlns="http://www.w3.org/2000/svg">
  <defs>
    <path d="M0 0L21 0L21 21L0 21L0 0Z" id="path_1" />
    <path d="M0 0L21 0L21 21L0 21L0 0L0 0L0 0Z" id="path_2" />
    <rect width="25" height="25" id="artboard_1" />
    <clipPath id="clip_1">
      <use xlink:href="#artboard_1" clip-rule="evenodd" />
    </clipPath>
    <clipPath id="mask_1">
      <use xlink:href="#path_1" />
    </clipPath>
    <clipPath id="mask_2">
      <use xlink:href="#path_2" />
    </clipPath>
  </defs>
  <g id="Pixelbook" clip-path="url(#clip_1)">
    <use xlink:href="#artboard_1" stroke="none" fill="#FFFFFF" />
    <g id="homecare_icon" transform="translate(2 2)">
      <g id="Mask-group">
        <path d="M0 0L21 0L21 21L0 21L0 0Z" id="artboard_1" fill="none" fill-rule="evenodd" stroke="none" />
        <g clip-path="url(#mask_1)">
          <g id="Pixelbook">
            <path d="M0 0L21 0L21 21L0 21L0 0Z" id="artboard_1" fill="#FFFFFF" fill-rule="evenodd" stroke="none" />
          </g>
        </g>
      </g>
      <g id="homecare_icon">
        <g id="Home-Care">
          <g id="stay-home">
            <path d="M0 0L21 0L21 21L0 21L0 0L0 0L0 0Z" id="Background" fill="none" fill-rule="evenodd" stroke="none" />
            <g id="Mask-group">
              <path d="M0 0L21 0L21 21L0 21L0 0L0 0L0 0Z" id="path_2" fill="none" fill-rule="evenodd" stroke="none" />
              <g id="Mask-group">
                <path d="M0 0L21 0L21 21L0 21L0 0L0 0L0 0Z" id="path_1" fill="none" fill-rule="evenodd" stroke="none" />
                <g clip-path="url(#mask_2)">
                  <g id="Group" transform="translate(0.65625 0.65625)">
                    <g id="Group">
                      <g id="quarantine-home-covid19-coronavirus-protect">
                        <path d="M9.5156 0L0 9.1875L1.96875 9.1875L1.96875 19.0313L16.7344 19.0313L16.7344 9.1875L19.0313 9.1875L9.5156 0L9.5156 0L9.5156 0ZM12.4688 11.1563C12.4688 11.5187 12.175 11.8125 11.8125 11.8125C11.45 11.8125 11.1563 11.5187 11.1563 11.1563L11.1563 17.7188L7.875 17.7188L7.875 11.1563C7.875 11.5187 7.58119 11.8125 7.21875 11.8125C6.85631 11.8125 6.5625 11.5187 6.5625 11.1563L6.5625 7.875C6.5625 7.15013 7.15012 6.5625 7.875 6.5625L8.53129 6.5625C8.71248 6.5625 8.8594 6.41559 8.8594 6.23438L8.8594 5.72906C8.34633 5.43538 8.0936 4.83444 8.2425 4.26235C8.35947 3.79567 8.72617 3.43274 9.19405 3.32063C9.82859 3.16146 10.4835 3.49384 10.7296 4.09996C10.9756 4.70608 10.7377 5.40088 10.1719 5.72906L10.1719 6.23438C10.1719 6.41559 10.3188 6.5625 10.5 6.5625L11.1563 6.5625C11.8811 6.5625 12.4688 7.15013 12.4688 7.875L12.4688 11.1563L12.4688 11.1563L12.4688 11.1563Z" transform="translate(0.328125 0.328125)" id="Shape" fill="#00E0F4" fill-rule="evenodd" stroke="none" />
                        <path d="M1.12029 0.192153C0.898869 -0.029198 0.551925 -0.0633138 0.291636 0.110669C0.0313433 0.284653 -0.0697971 0.618276 0.0500679 0.907511C0.169931 1.19674 0.477417 1.36102 0.784472 1.29987C1.09153 1.23874 1.31264 0.9692 1.31256 0.656121C1.31275 0.482006 1.24353 0.315039 1.12026 0.192127L1.12029 0.192153L1.12029 0.192153L1.12029 0.192153Z" transform="translate(14.765623 0.98450303)" id="Shape#1" fill="#00E0F4" fill-rule="evenodd" stroke="none" />
                        <path d="M0.656455 4.00543e-07C0.343373 -6.56891e-05 0.0738409 0.221039 0.0127004 0.528096C-0.0484401 0.835151 0.115839 1.14263 0.405069 1.2625C0.6943 1.38236 1.02793 1.28122 1.20191 1.02094C1.37589 0.760645 1.34177 0.413699 1.12043 0.192282C0.997509 0.0690188 0.830534 -0.000179043 0.656455 4.00543e-07L0.656455 4.00543e-07L0.656455 4.00543e-07L0.656455 4.00543e-07Z" transform="translate(17.390366 3.6093745)" id="Shape#2" fill="#00E0F4" fill-rule="evenodd" stroke="none" />
                        <path d="M1.12029 0.192153C0.898867 -0.0291981 0.551924 -0.0633139 0.291634 0.11067C0.0313425 0.284654 -0.0697979 0.618278 0.0500671 0.907511C0.169933 1.19674 0.477417 1.36102 0.784473 1.29987C1.09153 1.23874 1.31263 0.9692 1.31257 0.65612C1.31275 0.482046 1.24354 0.315072 1.12029 0.192153L1.12029 0.192153L1.12029 0.192153L1.12029 0.192153Z" transform="translate(3.609375 0.98450315)" id="Shape#3" fill="#00E0F4" fill-rule="evenodd" stroke="none" />
                        <path d="M0.192281 1.12043C0.413699 1.34177 0.760643 1.37589 1.02094 1.20191C1.28122 1.02793 1.38236 0.694299 1.2625 0.405068C1.14264 0.115839 0.83515 -0.0484409 0.528095 0.0127C0.221038 0.073841 -6.66905e-05 0.343372 4.00543e-07 0.656457C-0.000179844 0.830531 0.0690169 0.9975 0.19228 1.12043L0.192281 1.12043L0.192281 1.12043L0.192281 1.12043Z" transform="translate(0.98437506 3.6091826)" id="Shape#4" fill="#00E0F4" fill-rule="evenodd" stroke="none" />
                        <path d="M10.0712 0.0918833C9.94401 -0.0306277 9.74282 -0.0306277 9.61573 0.0918833L0.100085 9.2794C0.00397865 9.3723 -0.0261688 9.51418 0.0238716 9.63816C0.073912 9.76206 0.194138 9.84329 0.327804 9.84346L1.96842 9.84346L1.96842 19.3591C1.96842 19.5403 2.11534 19.6872 2.29655 19.6872L17.0622 19.6872C17.2434 19.6872 17.3903 19.5403 17.3903 19.3591L17.3903 9.84346L19.3591 9.84346C19.4927 9.84329 19.6129 9.76206 19.6631 9.63816C19.713 9.51418 19.6829 9.3723 19.5868 9.2794L10.0712 0.0918833L10.0712 0.0918833L10.0712 0.0918833ZM17.0622 9.18716C16.881 9.18716 16.7341 9.33408 16.7341 9.51535L16.7341 19.031L2.62467 19.031L2.62467 9.51535C2.62467 9.33408 2.47776 9.18716 2.29655 9.18716L1.14023 9.18716L9.84346 0.783911L18.5466 9.18716L17.0622 9.18716L17.0622 9.18716L17.0622 9.18716Z" transform="translate(0.000256598 0.00032058478)" id="Shape#5" fill="#005159" fill-rule="evenodd" stroke="none" />
                        <path d="M2.88455 0.0477828C2.29605 0.187804 1.83489 0.644537 1.68919 1.23166C1.52437 1.87556 1.76434 2.55529 2.29688 2.953L2.29688 3.28112L1.64063 3.28112C0.734982 3.28222 0.00108467 4.01612 0 4.92175L0 8.203C0 8.74667 0.440719 9.18742 0.984371 9.18742C1.09641 9.18632 1.20742 9.16583 1.3125 9.12702L1.3125 14.7655C1.3125 14.9468 1.45941 15.0936 1.64063 15.0936L4.92188 15.0936C5.10309 15.0936 5.25 14.9468 5.25 14.7655L5.25 9.12702C5.35508 9.16583 5.46609 9.18632 5.57812 9.18742C6.12179 9.18742 6.5625 8.74667 6.5625 8.203L6.5625 4.92175C6.56133 4.01596 5.82737 3.28212 4.92172 3.28112L4.26563 3.28112L4.26563 2.953C4.88987 2.48451 5.09766 1.6411 4.76246 0.936239C4.42729 0.231384 3.64193 -0.139758 2.88455 0.0487681L2.88455 0.0477828L2.88455 0.0477828L2.88455 0.0477828ZM3.89025 0.868081C4.14602 1.07012 4.2852 1.38566 4.26195 1.71078C4.23869 2.03587 4.05602 2.3284 3.77409 2.49198C3.67247 2.55065 3.60991 2.65911 3.61003 2.77646L3.61003 3.28112C3.61003 3.64355 3.90385 3.93737 4.26628 3.93737L4.92253 3.93737C5.46618 3.93737 5.9069 4.37809 5.9069 4.92174L5.9069 8.20299C5.9069 8.38421 5.76 8.53112 5.57878 8.53112C5.39757 8.53112 5.25065 8.38421 5.25065 8.20299L5.25065 5.24987C5.25065 5.06864 5.10375 4.92174 4.92253 4.92174C4.74132 4.92174 4.5944 5.06864 4.5944 5.24987L4.5944 14.4374L3.60938 14.4374L3.60938 9.18733C3.60938 9.00614 3.46247 8.85923 3.28125 8.85923C3.10003 8.85923 2.95313 9.00614 2.95313 9.18733L2.95313 14.4374L1.96875 14.4374L1.96875 5.24987C1.96875 5.06864 1.82184 4.92174 1.64063 4.92174C1.45941 4.92174 1.3125 5.06864 1.3125 5.24987L1.3125 8.20299C1.3125 8.38421 1.16559 8.53112 0.984379 8.53112C0.803156 8.53112 0.65625 8.38421 0.65625 8.20299L0.65625 4.92174C0.65625 4.37809 1.09696 3.93737 1.64063 3.93737L2.29688 3.93737C2.65931 3.93737 2.95313 3.64355 2.95313 3.28112L2.95313 2.7758C2.95336 2.65835 2.89078 2.54973 2.78906 2.49099C2.40491 2.26793 2.21694 1.81586 2.32969 1.38618C2.41886 1.04016 2.69127 0.771287 3.03844 0.686632C3.33503 0.610636 3.65009 0.677509 3.89025 0.867426L3.89025 0.868081L3.89025 0.868081L3.89025 0.868081Z" transform="translate(6.5625 3.281378)" id="Shape#6" fill="#005159" fill-rule="evenodd" stroke="none" />
                        <path d="M0.328125 1.96875L0.716625 1.96875C0.72766 2.00062 0.740478 2.03183 0.755016 2.06226L0.480705 2.33691C0.395408 2.41929 0.361202 2.54129 0.391231 2.656C0.421259 2.77073 0.510851 2.86032 0.62557 2.89035C0.740292 2.92038 0.862285 2.88616 0.944673 2.80087L1.21899 2.52624C1.24942 2.54076 1.28063 2.55359 1.3125 2.56462L1.3125 2.95313C1.3125 3.13434 1.45941 3.28125 1.64063 3.28125C1.82184 3.28125 1.96875 3.13434 1.96875 2.95313L1.96875 2.56462C2.00062 2.55359 2.03183 2.54076 2.06226 2.52624L2.33658 2.80087C2.41896 2.88616 2.54096 2.92038 2.65568 2.89035C2.7704 2.86032 2.85999 2.77072 2.89002 2.656C2.92004 2.54129 2.88584 2.41929 2.80055 2.33691L2.52656 2.06226C2.54099 2.03183 2.55369 2.00061 2.56463 1.96875L2.95313 1.96875C3.13434 1.96875 3.28125 1.82184 3.28125 1.64063C3.28125 1.45941 3.13434 1.3125 2.95313 1.3125L2.56463 1.3125C2.55359 1.28063 2.54077 1.24942 2.52624 1.21899L2.80055 0.944345C2.88584 0.861958 2.92005 0.739964 2.89002 0.625243C2.85999 0.510524 2.7704 0.420933 2.65568 0.390905C2.54096 0.360876 2.41896 0.395081 2.33658 0.480375L2.06226 0.755016C2.03183 0.740478 2.00062 0.727663 1.96875 0.716625L1.96875 0.328125C1.96875 0.146907 1.82184 0 1.64063 0C1.45941 0 1.3125 0.146907 1.3125 0.328125L1.3125 0.716625C1.28063 0.727661 1.24942 0.740478 1.21899 0.755015L0.944673 0.480375C0.862285 0.395081 0.740292 0.360876 0.625572 0.390905C0.510851 0.420933 0.421261 0.510524 0.391233 0.625243C0.361203 0.739964 0.395408 0.861958 0.480705 0.944345L0.755016 1.21899C0.740478 1.24942 0.72766 1.28063 0.716625 1.3125L0.328125 1.3125C0.146908 1.3125 0 1.45941 0 1.64063C0 1.82184 0.146908 1.96875 0.328125 1.96875L0.328125 1.96875L0.328125 1.96875L0.328125 1.96875ZM2.3625 1.8375C2.3625 2.12745 2.12745 2.3625 1.8375 2.3625C1.54755 2.3625 1.3125 2.12745 1.3125 1.8375C1.3125 1.54755 1.54755 1.3125 1.8375 1.3125C2.12745 1.3125 2.3625 1.54755 2.3625 1.8375L2.3625 1.8375L2.3625 1.8375L2.3625 1.8375Z" transform="translate(13.78125 0)" id="Shape#7" fill="#005159" fill-rule="evenodd" stroke="none" />
                        <path d="M0.480705 0.944345L0.755016 1.21899C0.740478 1.24942 0.72766 1.28063 0.716625 1.3125L0.328125 1.3125C0.146908 1.3125 0 1.45941 0 1.64063C0 1.82184 0.146908 1.96875 0.328125 1.96875L0.716625 1.96875C0.72766 2.00062 0.740478 2.03183 0.755016 2.06226L0.480705 2.33691C0.395408 2.41929 0.361202 2.54129 0.391231 2.656C0.421259 2.77073 0.510851 2.86032 0.62557 2.89035C0.740292 2.92038 0.862285 2.88616 0.944673 2.80087L1.21899 2.52624C1.24942 2.54077 1.28063 2.55359 1.3125 2.56462L1.3125 2.95313C1.3125 3.13434 1.45941 3.28125 1.64063 3.28125C1.82184 3.28125 1.96875 3.13434 1.96875 2.95313L1.96875 2.56462C2.00062 2.55359 2.03183 2.54077 2.06226 2.52624L2.33658 2.80087C2.41896 2.88616 2.54096 2.92038 2.65568 2.89035C2.7704 2.86032 2.85999 2.77073 2.89002 2.656C2.92005 2.54129 2.88584 2.41929 2.80055 2.33691L2.52624 2.06226C2.54077 2.03183 2.55359 2.00062 2.56463 1.96875L2.95313 1.96875C3.13434 1.96875 3.28125 1.82184 3.28125 1.64063C3.28125 1.45941 3.13434 1.3125 2.95313 1.3125L2.56463 1.3125C2.55359 1.28063 2.54077 1.24942 2.52624 1.21899L2.80055 0.944345C2.88584 0.861958 2.92005 0.739963 2.89002 0.625242C2.85999 0.510522 2.7704 0.420931 2.65568 0.390903C2.54096 0.360873 2.41896 0.395081 2.33658 0.480376L2.06226 0.755016C2.03183 0.740479 2.00062 0.727662 1.96875 0.716625L1.96875 0.328125C1.96875 0.146906 1.82184 0 1.64063 0C1.45941 0 1.3125 0.146906 1.3125 0.328125L1.3125 0.716625C1.28063 0.727662 1.24942 0.740479 1.21899 0.755015L0.944673 0.480376C0.862285 0.395083 0.740292 0.360877 0.625572 0.390906C0.510854 0.420936 0.421264 0.510525 0.391235 0.625245C0.361207 0.739964 0.39541 0.861958 0.480705 0.944345L0.480705 0.944345L0.480705 0.944345L0.480705 0.944345ZM2.3625 1.8375C2.3625 2.12745 2.12745 2.3625 1.8375 2.3625C1.54755 2.3625 1.3125 2.12745 1.3125 1.8375C1.3125 1.54755 1.54755 1.3125 1.8375 1.3125C2.12745 1.3125 2.3625 1.54755 2.3625 1.8375L2.3625 1.8375L2.3625 1.8375L2.3625 1.8375Z" transform="translate(16.40625 2.625)" id="Shape#8" fill="#005159" fill-rule="evenodd" stroke="none" />
                        <path d="M0.328125 1.96875L0.716625 1.96875C0.727662 2.00062 0.740479 2.03183 0.755015 2.06226L0.480703 2.33691C0.395406 2.41929 0.361196 2.54129 0.391225 2.656C0.421252 2.77073 0.510846 2.86033 0.625568 2.89036C0.74029 2.92039 0.862285 2.88618 0.944672 2.80087L1.21899 2.52624C1.24942 2.54076 1.28063 2.55359 1.3125 2.56462L1.3125 2.95313C1.3125 3.13434 1.45941 3.28125 1.64063 3.28125C1.82184 3.28125 1.96875 3.13434 1.96875 2.95313L1.96875 2.56462C2.00062 2.55359 2.03183 2.54076 2.06226 2.52624L2.33658 2.80087C2.41896 2.88618 2.54096 2.92039 2.65569 2.89036C2.7704 2.86033 2.86 2.77073 2.89002 2.656C2.92005 2.54129 2.88584 2.41929 2.80055 2.33691L2.52656 2.06226C2.54099 2.03183 2.55369 2.00061 2.56462 1.96875L2.95313 1.96875C3.13434 1.96875 3.28125 1.82184 3.28125 1.64063C3.28125 1.45941 3.13434 1.3125 2.95313 1.3125L2.56462 1.3125C2.55359 1.28063 2.54077 1.24942 2.52624 1.21899L2.80055 0.944345C2.92489 0.815594 2.92312 0.610943 2.79654 0.484374C2.66998 0.357806 2.46532 0.356026 2.33658 0.480375L2.06226 0.755016C2.03183 0.740478 2.00062 0.727663 1.96875 0.716625L1.96875 0.328125C1.96875 0.146907 1.82184 0 1.64063 0C1.45941 0 1.3125 0.146907 1.3125 0.328125L1.3125 0.716625C1.28063 0.727661 1.24942 0.740478 1.21899 0.755015L0.944672 0.480375C0.815922 0.356026 0.61127 0.357806 0.484703 0.484374C0.358134 0.610943 0.356354 0.815594 0.480704 0.944345L0.755016 1.21899C0.740479 1.24942 0.727662 1.28063 0.716625 1.3125L0.328125 1.3125C0.146906 1.3125 0 1.45941 0 1.64063C0 1.82184 0.146906 1.96875 0.328125 1.96875L0.328125 1.96875L0.328125 1.96875L0.328125 1.96875ZM2.3625 1.8375C2.3625 2.12745 2.12745 2.3625 1.8375 2.3625C1.54755 2.3625 1.3125 2.12745 1.3125 1.8375C1.3125 1.54755 1.54755 1.3125 1.8375 1.3125C2.12745 1.3125 2.3625 1.54755 2.3625 1.8375L2.3625 1.8375L2.3625 1.8375L2.3625 1.8375Z" transform="translate(2.625 0)" id="Shape#9" fill="#005159" fill-rule="evenodd" stroke="none" />
                        <path d="M0.328125 1.96875L0.716625 1.96875C0.727661 2.00062 0.740478 2.03183 0.755015 2.06226L0.480703 2.33691C0.395404 2.41929 0.361194 2.54129 0.391222 2.656C0.42125 2.77073 0.510844 2.86033 0.625566 2.89036C0.74029 2.92039 0.862285 2.88618 0.944672 2.80087L1.21899 2.52624C1.24942 2.54077 1.28063 2.55359 1.3125 2.56462L1.3125 2.95313C1.3125 3.13434 1.45941 3.28125 1.64063 3.28125C1.82184 3.28125 1.96875 3.13434 1.96875 2.95313L1.96875 2.56462C2.00062 2.55359 2.03183 2.54077 2.06226 2.52624L2.33658 2.80087C2.46532 2.92522 2.66998 2.92344 2.79654 2.79687C2.92312 2.67031 2.92489 2.46565 2.80055 2.33691L2.52656 2.06226C2.54099 2.03183 2.55369 2.00061 2.56462 1.96875L2.95313 1.96875C3.13434 1.96875 3.28125 1.82184 3.28125 1.64063C3.28125 1.45941 3.13434 1.3125 2.95313 1.3125L2.56462 1.3125C2.55359 1.28063 2.54076 1.24942 2.52624 1.21899L2.80055 0.944345C2.9249 0.815595 2.92312 0.610941 2.79654 0.484372C2.66998 0.357803 2.46532 0.356025 2.33658 0.480376L2.06226 0.755016C2.03183 0.740479 2.00062 0.727662 1.96875 0.716625L1.96875 0.328125C1.96875 0.146906 1.82184 0 1.64063 0C1.45941 0 1.3125 0.146906 1.3125 0.328125L1.3125 0.716625C1.28063 0.727662 1.24942 0.740479 1.21899 0.755015L0.944672 0.480376C0.862285 0.395078 0.74029 0.360871 0.625569 0.390898C0.510849 0.420926 0.421256 0.510519 0.391227 0.62524C0.361197 0.739963 0.395406 0.861958 0.480703 0.944345L0.755016 1.21899C0.740478 1.24942 0.727663 1.28063 0.716625 1.3125L0.328125 1.3125C0.146907 1.3125 0 1.45941 0 1.64063C0 1.82184 0.146907 1.96875 0.328125 1.96875L0.328125 1.96875L0.328125 1.96875L0.328125 1.96875ZM2.3625 1.8375C2.3625 2.12745 2.12745 2.3625 1.8375 2.3625C1.54755 2.3625 1.3125 2.12745 1.3125 1.8375C1.3125 1.54755 1.54755 1.3125 1.8375 1.3125C2.12745 1.3125 2.3625 1.54755 2.3625 1.8375L2.3625 1.8375L2.3625 1.8375L2.3625 1.8375Z" transform="translate(0 2.625)" id="Shape#10" fill="#005159" fill-rule="evenodd" stroke="none" />
                      </g>
                    </g>
                  </g>
                </g>
              </g>
            </g>
          </g>
        </g>
      </g>
    </g>
  </g>
</svg>