<?xml version="1.0" encoding="utf-8"?>
<svg width="45px" height="45px" viewbox="0 0 45 45" version="1.1" xmlns:xlink="http://www.w3.org/1999/xlink" xmlns="http://www.w3.org/2000/svg">
  <defs>
    <path d="M0 0L45 0L45 45L0 45L0 0L0 0Z" id="path_1" />
    <rect width="45" height="45" id="artboard_1" />
    <clipPath id="clip_1">
      <use xlink:href="#artboard_1" clip-rule="evenodd" />
    </clipPath>
    <clipPath id="mask_1">
      <use xlink:href="#path_1" />
    </clipPath>
  </defs>
  <g id="Pixelbook" clip-path="url(#clip_1)">
    <use xlink:href="#artboard_1" stroke="none" fill="#FFFFFF" />
    <g id="house-insurance">
      <g id="house-insurance">
        <path d="M0 0L45 0L45 45L0 45L0 0L0 0Z" id="Background" fill="none" fill-rule="evenodd" stroke="none" />
        <g id="Mask-group">
          <path d="M0 0L45 0L45 45L0 45L0 0L0 0Z" id="path_1" fill="none" fill-rule="evenodd" stroke="none" />
          <g clip-path="url(#mask_1)">
            <g id="Group" transform="translate(1.40625 1.40625)">
              <g id="House_insurance-2">
                <path d="M25.3125 5.625L25.3125 40.7813L0 40.7813L0 0L19.6875 0L25.3125 5.625L25.3125 5.625Z" transform="translate(0.703125 0.703125)" id="Shape" fill="#FEE9AB" fill-rule="evenodd" stroke="none" />
                <path d="M5.625 5.625L5.625 40.7813L2.8125 40.7813L2.8125 5.625L0 2.8125L0 0L5.625 5.625L5.625 5.625Z" transform="translate(20.390625 0.703125)" id="Shape#1" fill="#FFDE55" fill-rule="evenodd" stroke="none" />
                <path d="M19.6875 9.84378L19.6875 13.3594L9.84378 3.51563L0 13.3594L0 9.84378L9.84378 0L19.6875 9.84378L19.6875 9.84378Z" transform="translate(21.796875 17.578125)" id="Shape#2" fill="#D80027" fill-rule="evenodd" stroke="none" />
                <path d="M10.8985 9.84378L10.8985 13.3594L9.49218 11.9531L9.49218 10.5469L0 1.05469L1.05468 0L10.8985 9.84378L10.8985 9.84378Z" transform="translate(30.58594 17.578125)" id="Shape#3" fill="#AB2300" fill-rule="evenodd" stroke="none" />
                <path d="M12.6563 2.8125L12.6563 7.03128C12.6586 8.30796 12.1377 9.53022 11.2151 10.4131L6.32814 15.4688L1.44141 10.4133C0.518694 9.53046 -0.00220413 8.30826 6.86646e-06 7.03122L6.86646e-06 2.8125L6.32814 0L12.6563 2.8125L12.6563 2.8125Z" transform="translate(28.828129 0.703125)" id="Shape#4" fill="#FFDE55" fill-rule="evenodd" stroke="none" />
                <path d="M15.4688 7.73436L15.4688 20.3906L0 20.3906L0 7.73436L7.73436 0L15.4688 7.73436L15.4688 7.73436Z" transform="translate(23.90625 21.09375)" id="Shape#5" fill="#C6C5CA" fill-rule="evenodd" stroke="none" />
                <path d="M9.14064 7.73436L9.14064 20.3906L6.32814 20.3906L6.32814 7.73436L0 1.40625L1.40625 0L9.14064 7.73436L9.14064 7.73436Z" transform="translate(30.234377 21.09375)" id="Shape#6" fill="#898890" fill-rule="evenodd" stroke="none" />
                <path d="M0 0L2.8125 0L2.8125 2.8125L0 2.8125L0 0L0 0Z" transform="translate(33.75 30.234377)" id="Shape#7" fill="#46F8FF" fill-rule="evenodd" stroke="none" />
                <path d="M0 0L4.21875 0L4.21875 5.625L0 5.625L0 0L0 0Z" transform="translate(29.531252 35.859375)" id="Shape#8" fill="#A78966" fill-rule="evenodd" stroke="none" />
                <path d="M0 0L2.10938 0L2.10938 5.625L0 5.625L0 0L0 0Z" transform="translate(31.640627 35.859375)" id="Shape#9" fill="#806749" fill-rule="evenodd" stroke="none" />
                <path d="M0 0L2.8125 0L2.8125 2.8125L0 2.8125L0 0L0 0Z" transform="translate(26.718752 30.234377)" id="Shape#10" fill="#46F8FF" fill-rule="evenodd" stroke="none" />
                <path d="M0 0L1.40625 0L1.40625 2.8125L0 2.8125L0 0L0 0Z" transform="translate(35.15625 30.234377)" id="Shape#11" fill="#00D7DF" fill-rule="evenodd" stroke="none" />
                <path d="M0 0L1.40625 0L1.40625 2.8125L0 2.8125L0 0L0 0Z" transform="translate(28.125002 30.234377)" id="Shape#12" fill="#00D7DF" fill-rule="evenodd" stroke="none" />
                <path d="M5.625 5.625L0 5.625L0 0L5.625 5.625L5.625 5.625Z" transform="translate(20.390625 0.703125)" id="Shape#13" fill="#FFCD00" fill-rule="evenodd" stroke="none" />
                <path d="M5.625 5.625L2.8125 5.625L0 2.8125L0 0L5.625 5.625L5.625 5.625Z" transform="translate(20.390625 0.703125)" id="Shape#14" fill="#DDB200" fill-rule="evenodd" stroke="none" />
                <path d="M2.62266 0.189841C3.29387 0.57862 3.52352 1.43747 3.13594 2.10937L2.43281 3.32578L0 1.91953L0.703129 0.703123C0.954072 0.268474 1.41764 0.000512695 1.91953 0C2.16637 0.00144882 2.40863 0.0668564 2.62265 0.189841L2.62266 0.189841L2.62266 0.189841Z" transform="translate(14.1960945 19.800001)" id="Shape#15" fill="#A78966" fill-rule="evenodd" stroke="none" />
                <path d="M0 12.1781L7.03122 0L9.46446 1.40485L2.43319 13.583L0 12.1781L0 12.1781Z" transform="translate(7.1641116 21.720558)" id="Shape#16" fill="#FF3051" fill-rule="evenodd" stroke="none" />
                <path d="M0 6.32814C0 2.8332 2.8332 0 6.32814 0C9.82308 0 12.6563 2.8332 12.6563 6.32814C12.6563 9.82308 9.82308 12.6563 6.32814 12.6563C2.8332 12.6563 0 9.82308 0 6.32814L0 6.32814Z" transform="translate(3.5156252 3.5156252)" id="Circle" fill="#FFCD00" fill-rule="evenodd" stroke="none" />
                <path d="M7.73436 6.32814C7.73436 9.82308 4.90117 12.6563 1.40625 12.6563C0.9333 12.6554 0.461827 12.6035 1.14441e-06 12.5015C2.88001 11.8439 4.92265 9.28224 4.92265 6.32814C4.92265 3.37399 2.88001 0.812334 0 0.154687C0.461826 0.0527247 0.9333 0.000862312 1.40625 0C4.90117 -5.72205e-07 7.73436 2.8332 7.73436 6.32814L7.73436 6.32814L7.73436 6.32814Z" transform="translate(8.4375 3.5156252)" id="Shape#17" fill="#DDB200" fill-rule="evenodd" stroke="none" />
                <path d="M3.32578 1.40625L0 4.35938L0.892968 0L3.32578 1.40625L3.32578 1.40625Z" transform="translate(6.2718754 33.89766)" id="Shape#18" fill="#C6C5CA" fill-rule="evenodd" stroke="none" />
                <path d="M7.73436 2.8125L7.73436 7.03128C7.73664 8.30796 7.21584 9.53022 6.29316 10.4131L2.76328 14.0625L1.40625 15.4688L0.196875 14.2172L0 14.0133L3.48047 10.4133C4.40319 9.53046 4.92409 8.30826 4.92188 7.03122L4.92188 2.8125L0 0.625782L1.40625 0L7.73436 2.8125L7.73436 2.8125Z" transform="translate(33.75 0.703125)" id="Shape#19" fill="#FFCD00" fill-rule="evenodd" stroke="none" />
                <path d="M32.1377 17.081C31.8632 16.8065 31.4181 16.8065 31.1435 17.081L26.7188 21.5058L26.7188 6.32814L26.7124 6.32814C26.714 6.14256 26.6423 5.96387 26.5127 5.83102L20.8877 0.206015C20.7554 0.0756012 20.5764 0.00367284 20.3906 0.00632801L20.3906 0L0.703128 0C0.3148 1.43051e-07 -1.43051e-07 0.3148 0 0.703128L0 41.4844C0 41.8727 0.3148 42.1875 0.703128 42.1875L39.375 42.1875C39.7633 42.1875 40.0781 41.8727 40.0781 41.4844L40.0781 30.5255L40.9873 31.4346C41.1884 31.6357 41.4907 31.6958 41.7535 31.5869C42.0161 31.4782 42.1874 31.2218 42.1875 30.9375L42.1875 27.4219C42.1875 27.2356 42.1135 27.0568 41.9816 26.9249L32.1377 17.081L32.1377 17.081ZM21.0938 2.40044L24.3183 5.62497L21.0938 5.62497L21.0938 2.40044L21.0938 2.40044ZM1.40625 1.40625L19.6875 1.40625L19.6875 6.32814C19.6875 6.71646 20.0023 7.03128 20.3906 7.03128L25.3125 7.03128L25.3125 22.912L21.2998 26.9248C21.1679 27.0566 21.0938 27.2354 21.0938 27.4219L21.0938 30.9375C21.0938 31.2217 21.265 31.478 21.5277 31.5869C21.7904 31.6958 22.0927 31.6357 22.2939 31.4347L23.2031 30.5255L23.2031 40.7813L1.40625 40.7813L1.40625 1.40625L1.40625 1.40625ZM33.0469 40.7813L30.2344 40.7813L30.2344 36.5625L33.0469 36.5625L33.0469 40.7813L33.0469 40.7813ZM38.6719 40.7812L34.4531 40.7812L34.4531 35.8594C34.4531 35.471 34.1383 35.1562 33.75 35.1562L29.5313 35.1562C29.1429 35.1562 28.8281 35.471 28.8281 35.8594L28.8281 40.7812L24.6094 40.7812L24.6094 29.1192L31.6406 22.0879L38.6719 29.1192L38.6719 40.7812L38.6719 40.7812ZM40.7813 29.2401L32.1377 20.5966C31.8632 20.3221 31.4181 20.3221 31.1435 20.5966L22.5 29.2401L22.5 27.7129L31.6406 18.5723L40.7813 27.7129L40.7813 29.2401L40.7813 29.2401Z" id="Shape#20" fill="#000000" fill-rule="evenodd" stroke="none" />
                <path d="M3.51563 0L0.703127 0C0.3148 0 0 0.314799 0 0.703127L0 3.51563C0 3.90395 0.3148 4.21875 0.703127 4.21875L3.51563 4.21875C3.90395 4.21875 4.21875 3.90395 4.21875 3.51563L4.21875 0.703127C4.21875 0.314799 3.90395 0 3.51563 0L3.51563 0L3.51563 0ZM2.8125 2.8125L1.40625 2.8125L1.40625 1.40625L2.8125 1.40625L2.8125 2.8125L2.8125 2.8125Z" transform="translate(26.015627 29.531252)" id="Shape#21" fill="#000000" fill-rule="evenodd" stroke="none" />
                <path d="M0.703127 4.21875L3.51563 4.21875C3.90395 4.21875 4.21875 3.90395 4.21875 3.51563L4.21875 0.703127C4.21875 0.314799 3.90395 0 3.51563 0L0.703127 0C0.3148 0 0 0.314799 0 0.703127L0 3.51563C0 3.90395 0.3148 4.21875 0.703127 4.21875L0.703127 4.21875L0.703127 4.21875ZM1.40625 1.40625L2.8125 1.40625L2.8125 2.8125L1.40625 2.8125L1.40625 1.40625L1.40625 1.40625Z" transform="translate(33.046875 29.531252)" id="Shape#22" fill="#000000" fill-rule="evenodd" stroke="none" />
                <path d="M14.0625 7.03128C14.0625 3.148 10.9145 0 7.03128 0C3.148 0 0 3.148 0 7.03128C5.72205e-07 10.9145 3.148 14.0625 7.03128 14.0625C10.9127 14.0582 14.0582 10.9127 14.0625 7.03128L14.0625 7.03128L14.0625 7.03128ZM1.40625 7.03128C1.40625 3.92465 3.92465 1.40625 7.03128 1.40625C10.1378 1.40625 12.6563 3.92465 12.6563 7.03128C12.6563 10.1378 10.1378 12.6563 7.03122 12.6563C3.92609 12.6527 1.40974 10.1364 1.40625 7.03128L1.40625 7.03128L1.40625 7.03128Z" transform="translate(2.8125 2.8125)" id="Shape#23" fill="#000000" fill-rule="evenodd" stroke="none" />
                <path d="M2.8125 8.4375L2.8125 7.605C3.78038 7.26408 4.36127 6.2748 4.18738 5.26347C4.01349 4.25214 3.13554 3.51368 2.10938 3.51563C1.72105 3.51563 1.40625 3.20083 1.40625 2.8125C1.40625 2.42418 1.72105 2.10938 2.10937 2.10938C2.4977 2.10938 2.8125 2.42417 2.8125 2.8125L4.21875 2.8125C4.21506 1.92179 3.65228 1.1294 2.81251 0.8325L2.8125 0L1.40625 0L1.40625 0.8325C0.438365 1.17341 -0.142519 2.1627 0.0313683 3.17403C0.205255 4.18536 1.08321 4.92382 2.10938 4.92188C2.4977 4.92188 2.8125 5.23667 2.8125 5.625C2.8125 6.01332 2.4977 6.32814 2.10938 6.32814C1.72105 6.32814 1.40625 6.01332 1.40625 5.625L0 5.625C0.00369072 6.5157 0.566468 7.30812 1.40624 7.605L1.40625 8.4375L2.8125 8.4375L2.8125 8.4375Z" transform="translate(7.7343755 5.625)" id="Shape#24" fill="#000000" fill-rule="evenodd" stroke="none" />
                <path d="M4.64388 16.5617L11.3236 4.99252L12.5414 5.69564L10.0804 9.95796L11.2982 10.6611L14.1107 5.78986C14.2042 5.6283 14.2296 5.43622 14.1814 5.25593C14.1331 5.07563 14.0151 4.92193 13.8534 4.82869L12.0253 3.774L12.3769 3.16579C12.7539 2.51267 12.7538 1.708 12.3766 1.05495C11.9995 0.401905 11.3025 -0.000256348 10.5484 0C9.79416 0.000256348 9.0975 0.402889 8.72076 1.05619L0.986226 14.4524C0.94848 14.5179 0.921642 14.5891 0.906774 14.6633L0.0145054 19.0226C-0.046633 19.3195 0.0892285 19.622 0.351652 19.7735C0.614076 19.925 0.944028 19.8913 1.17044 19.69L4.49763 16.7368C4.55564 16.6868 4.60505 16.6277 4.64388 16.5617L4.64388 16.5617L4.64388 16.5617ZM10.9016 1.50219C11.2379 1.69636 11.3531 2.12636 11.159 2.46266L10.8074 3.07086L9.58962 2.36774L9.94116 1.75954C10.1366 1.42411 10.5668 1.31048 10.9024 1.50571L10.9016 1.50219L10.9016 1.50219ZM8.8866 3.58623L10.1044 4.28936L3.77628 15.2497L2.55776 14.5465L8.8866 3.58623L8.8866 3.58623ZM2.0923 15.9009L2.83831 16.3319L1.81948 17.2354L2.0923 15.9009L2.0923 15.9009Z" transform="translate(5.56333 19.095997)" id="Shape#25" fill="#000000" fill-rule="evenodd" stroke="none" />
                <path d="M0.994217 1.98844L0 2.98265L1.98914 4.9718C2.26371 5.24629 2.70879 5.24629 2.98336 4.9718L6.96096 0.994218L5.96672 0L2.48625 3.48047L0.994217 1.98844L0.994217 1.98844Z" transform="translate(32.66997 4.6661134)" id="Shape#26" fill="#000000" fill-rule="evenodd" stroke="none" />
                <path d="M13.6449 2.87306L7.31676 0.060558C7.13502 -0.0201861 6.9276 -0.0201859 6.74586 0.060558L0.417712 2.87306C0.163712 2.9859 1.83105e-05 3.23777 5.49316e-05 3.51571L5.49316e-05 7.73448C-0.00662155 9.19602 0.587201 10.5962 1.64256 11.6073L6.52578 16.6642C6.65826 16.8012 6.84066 16.8786 7.03128 16.8786C7.2219 16.8786 7.40436 16.8012 7.53684 16.6642L12.4159 11.6157C13.4746 10.6031 14.0701 9.1995 14.0626 7.73448L14.0626 3.51571C14.0626 3.23768 13.8988 2.98583 13.6448 2.87302L13.6449 2.87306L13.6449 2.87306ZM12.6563 7.73448C12.6569 8.82786 12.2072 9.8739 11.4128 10.6261L7.03128 15.1602L2.65008 10.6264L2.64164 10.618C1.85158 9.86712 1.40488 8.8245 1.40625 7.73448L1.40625 3.97277L7.03128 1.47246L12.6563 3.97277L12.6563 7.73448L12.6563 7.73448Z" transform="translate(28.125004 0)" id="Shape#27" fill="#000000" fill-rule="evenodd" stroke="none" />
                <path d="M0 0L1.40625 0L1.40625 1.40625L0 1.40625L0 0L0 0Z" transform="translate(18.28125 8.4375)" id="Shape#28" fill="#000000" fill-rule="evenodd" stroke="none" />
                <path d="M0 0L2.8125 0L2.8125 1.40625L0 1.40625L0 0L0 0Z" transform="translate(21.09375 8.4375)" id="Shape#29" fill="#000000" fill-rule="evenodd" stroke="none" />
                <path d="M0 0L1.40625 0L1.40625 1.40625L0 1.40625L0 0L0 0Z" transform="translate(18.28125 11.25)" id="Shape#30" fill="#000000" fill-rule="evenodd" stroke="none" />
                <path d="M0 0L2.8125 0L2.8125 1.40625L0 1.40625L0 0L0 0Z" transform="translate(21.09375 11.25)" id="Shape#31" fill="#000000" fill-rule="evenodd" stroke="none" />
                <path d="M0 0L1.40625 0L1.40625 1.40625L0 1.40625L0 0L0 0Z" transform="translate(18.28125 14.062501)" id="Shape#32" fill="#000000" fill-rule="evenodd" stroke="none" />
                <path d="M0 0L2.8125 0L2.8125 1.40625L0 1.40625L0 0L0 0Z" transform="translate(21.09375 14.062501)" id="Shape#33" fill="#000000" fill-rule="evenodd" stroke="none" />
                <path d="M0 0L11.25 0L11.25 1.40625L0 1.40625L0 0L0 0Z" transform="translate(9.140625 37.96875)" id="Shape#34" fill="#000000" fill-rule="evenodd" stroke="none" />
              </g>
            </g>
          </g>
        </g>
      </g>
    </g>
  </g>
</svg>