<?xml version="1.0" encoding="utf-8"?>
<svg width="150px" height="150px" viewbox="0 0 150 150" version="1.1" xmlns:xlink="http://www.w3.org/1999/xlink" xmlns="http://www.w3.org/2000/svg">
  <defs>
    <path d="M0 0L150 0L150 150L0 150L0 0Z" id="path_1" />
    <clipPath id="mask_1">
      <use xlink:href="#path_1" />
    </clipPath>
  </defs>
  <g id="x-rays">
    <path d="M0 0L150 0L150 150L0 150L0 0Z" id="Background" fill="none" fill-rule="evenodd" stroke="none" />
    <g clip-path="url(#mask_1)">
      <path d="M3.63809 36.8874L4.98721 36.8874L4.98721 32.1369L18.7629 32.1369C26.434 32.1369 33.1304 27.9765 36.7383 21.789C40.3459 27.9765 47.0426 32.1369 54.7134 32.1369L59.5775 32.1369L59.5775 36.8874L60.9272 36.8874C62.0121 36.8874 63.0416 37.1203 63.9709 37.5354C64.3594 35.5597 64.5648 33.518 64.5648 31.4279C64.565 14.0707 50.5151 0 33.1837 0L31.3819 0C14.0499 0 0 14.0707 0 31.4282C0 33.5183 0.205372 35.56 0.593845 37.5357C1.52344 37.1206 2.55293 36.8874 3.63809 36.8874L3.63809 36.8874Z" transform="translate(42.717476 2.1972656)" id="Shape" fill="#775436" fill-rule="evenodd" stroke="none" />
      <path d="M31.7511 0C28.1432 6.1875 21.4468 10.3479 13.7757 10.3479L0 10.3479L0 18.2004C0 33.4761 12.2206 47.216 27.2953 47.216C42.3706 47.216 54.5906 33.4758 54.5906 18.2004L54.5906 10.3479L49.7265 10.3479C42.0554 10.3479 35.3587 6.1875 31.7511 0L31.7511 0Z" transform="translate(47.704697 23.986237)" id="SVGCleanerId_0" fill="#FFD5B3" fill-rule="evenodd" stroke="none" />
      <g id="Group" transform="translate(42.717476 2.1972656)" opacity="0.1">
        <path d="M3.63809 36.8874L4.98721 36.8874L4.98721 32.1369L9.14619 32.1369C9.14092 31.9011 9.13799 31.6652 9.13799 31.4282C9.13799 15.3138 21.2484 2.03437 36.8519 0.214746C35.6484 0.074414 34.425 0 33.1837 0L31.3819 0C14.0499 0 0 14.0707 0 31.4282C0 33.5183 0.205372 35.56 0.593846 37.5357C1.52344 37.1206 2.55293 36.8874 3.63809 36.8874L3.63809 36.8874Z" id="Shape" fill="#000000" fill-rule="evenodd" stroke="none" />
      </g>
      <path d="M71.8491 5.00098L47.9522 5.00098L47.9522 0C45.1734 1.05732 42.1925 1.64063 39.0899 1.64063C35.9874 1.64063 33.0064 1.05762 30.2276 0L30.2276 5.00098L6.33076 5.00098C2.84033 5.00098 0 7.82637 0 11.2986L0 12.1119L78.1802 12.1119L78.1802 11.2986C78.1802 7.82608 75.3401 5.00098 71.8491 5.00098L71.8491 5.00098Z" transform="translate(35.910057 69.56189)" id="Shape" fill="#FFB98A" fill-rule="evenodd" stroke="none" />
      <g id="Group" transform="translate(35.909763 74.56287)" opacity="0.1">
        <path d="M9.20742 7.11094L9.20742 6.29766C9.20742 2.8251 12.0478 0 15.5382 0L6.33076 0C2.84033 0 0 2.82539 0 6.29766L0 7.11094L9.20742 7.11094L9.20742 7.11094Z" id="Shape" fill="#000000" fill-rule="evenodd" stroke="none" />
      </g>
      <g id="Group" transform="translate(38.916798 39.084656)">
        <path d="M8.78789 3.10195L8.78789 0L7.43877 0C3.33106 0 0 3.31318 0 7.3998C0 11.4864 3.33076 14.7999 7.43877 14.7999L11.2342 14.7999C9.66358 11.1662 8.78789 7.18916 8.78789 3.10195L8.78789 3.10195Z" id="Shape" fill="#FFB98A" fill-rule="evenodd" stroke="none" />
        <path d="M3.7957 0L2.446 0L2.446 3.10195C2.446 7.18916 1.5706 11.1662 0 14.7999L3.7957 14.7999C7.90371 14.7999 11.2339 11.4864 11.2339 7.3998C11.2339 3.31318 7.90371 0 3.7957 0L3.7957 0Z" transform="translate(60.932526 0)" id="Shape" fill="#FFB98A" fill-rule="evenodd" stroke="none" />
      </g>
      <g id="Group" transform="translate(47.704697 23.986237)">
        <path d="M31.7511 0C28.1432 6.1875 21.4468 10.3479 13.7757 10.3479L0 10.3479L0 18.2004C0 33.4761 12.2206 47.216 27.2953 47.216C42.3706 47.216 54.5906 33.4758 54.5906 18.2004L54.5906 10.3479L49.7265 10.3479C42.0554 10.3479 35.3587 6.1875 31.7511 0L31.7511 0Z" id="SVGCleanerId_0_1_" fill="#FFD5B3" fill-rule="evenodd" stroke="none" />
      </g>
      <g id="Group" transform="translate(47.70469 34.334167)" opacity="0.1">
        <path d="M6.10313 7.85244L6.10313 0L0 0L0 7.85244C0 23.1281 12.2206 36.8681 27.2953 36.8681C28.3272 36.8681 29.3449 36.8016 30.3469 36.6768C16.7086 34.9778 6.10313 22.0825 6.10313 7.85244L6.10313 7.85244Z" id="Shape" fill="#000000" fill-rule="evenodd" stroke="none" />
      </g>
      <path d="M5.36279 11.0071L3.66211 11.0071C1.64267 11.0071 0 9.36446 0 7.34502L0 2.19727C0 0.98379 0.983495 0 2.19727 0C3.41104 0 4.39453 0.98379 4.39453 2.19727L4.39453 6.6126L5.36279 6.6126C6.57656 6.6126 7.56006 7.59639 7.56006 8.80986C7.56006 10.0233 6.57656 11.0071 5.36279 11.0071L5.36279 11.0071Z" transform="translate(71.219826 42.793365)" id="Shape" fill="#000000" fill-rule="evenodd" stroke="none" />
      <path d="M9.86785 7.54835C6.52859 7.54835 3.18992 6.28448 0.647539 3.75499C-0.212909 2.89923 -0.216132 1.50792 0.639631 0.647762C1.49568 -0.212686 2.8867 -0.216494 3.74715 0.639854C7.12185 3.99728 12.6136 3.99728 15.9891 0.639559C16.849 -0.215909 18.2403 -0.212981 19.0967 0.647762C19.9524 1.50792 19.9486 2.89923 19.0885 3.75499C16.5467 6.2836 13.2068 7.54835 9.86785 7.54835L9.86785 7.54835Z" transform="translate(65.13215 56.360413)" id="Shape" fill="#000000" fill-rule="evenodd" stroke="none" />
      <path d="M94.7561 1.46484L1.46484 1.46484C0.65918 1.46484 0 0.805664 0 0L0 56.7313C0 57.537 0.65918 58.1962 1.46484 58.1962L94.7561 58.1962C95.5617 58.1962 96.2209 57.537 96.2209 56.7313L96.2209 0C96.2209 0.805664 95.5617 1.46484 94.7561 1.46484L94.7561 1.46484Z" transform="translate(26.88955 89.60657)" id="Shape" fill="#046699" fill-rule="evenodd" stroke="none" />
      <path d="M6.08877 56.7313L6.08877 1.46484L1.46484 1.46484C0.65918 1.46484 0 0.805664 0 0L0 56.7313C0 57.537 0.65918 58.1962 1.46484 58.1962L7.55361 58.1962C6.74795 58.1962 6.08877 57.537 6.08877 56.7313L6.08877 56.7313Z" transform="translate(26.88955 89.60657)" id="Shape" fill="#000000" fill-opacity="0.1" fill-rule="evenodd" stroke="none" />
      <g id="Group" transform="translate(44.870712 93.45715)">
        <path d="M21.9129 0.889009C20.7861 -0.271735 18.931 -0.299567 17.77 0.827488L16.1982 2.35357C15.907 2.60171 14.7117 3.07603 13.7121 3.07603L0 3.07603L0 8.9354L13.7121 8.9354C15.7582 8.9354 18.6668 8.123 20.2661 6.56997L21.8511 5.03159C23.0121 3.90483 23.0399 2.05004 21.9129 0.889009L21.9129 0.889009Z" transform="translate(33.70937 0)" id="Shape" fill="#FFFFFF" fill-rule="evenodd" stroke="none" />
        <path d="M25.8056 0.979462C24.7286 -0.227863 22.8771 -0.333622 21.6691 0.74333L19.8267 2.38659C19.4279 2.74197 18.0053 3.28659 17.0045 3.28659L0 3.28659L0 9.14597L17.0045 9.14597C19.3488 9.14597 22.176 8.14226 23.7261 6.75974L25.5691 5.11589C26.777 4.03894 26.8822 2.18708 25.8056 0.979462L25.8056 0.979462Z" transform="translate(33.70937 7.323995)" id="Shape" fill="#FFFFFF" fill-rule="evenodd" stroke="none" />
        <path d="M25.9125 1.10652C24.9059 -0.159985 23.0628 -0.370333 21.796 0.636595L19.9529 2.10144C19.5873 2.39236 18.1248 2.92996 17.0042 2.92996L0 2.92996L0 8.78933L17.0045 8.78933C19.2943 8.78933 22.0685 7.90544 23.5992 6.68845L25.4429 5.22331C26.7091 4.2158 26.9194 2.37302 25.9125 1.10652L25.9125 1.10652Z" transform="translate(33.70937 16.177315)" id="Shape" fill="#FFFFFF" fill-rule="evenodd" stroke="none" />
        <path d="M22.1663 1.18803C21.2033 -0.113046 19.3693 -0.387847 18.0689 0.574556L16.5032 1.73296C16.1678 1.94829 14.8529 2.34409 13.7121 2.34409L0 2.34409L0 8.20346L13.7121 8.20346C15.5883 8.20346 18.3463 7.65708 19.9682 6.45737L21.5531 5.2855C22.8536 4.32339 23.1281 2.48881 22.1663 1.18803L22.1663 1.18803Z" transform="translate(33.70937 25.48779)" id="Shape" fill="#FFFFFF" fill-rule="evenodd" stroke="none" />
        <path d="M22.7405 3.07591L9.02835 3.07591C8.02815 3.07591 6.83284 2.6013 6.55481 2.36547L4.97044 0.827381C3.80999 -0.299665 1.95491 -0.271547 0.827564 0.888902C-0.299782 2.04994 -0.271654 3.90472 0.88938 5.03177L2.47376 6.57015C4.07366 8.12288 6.98225 8.93558 9.02835 8.93558L22.7405 8.93558L22.7405 3.07591L22.7405 3.07591Z" transform="translate(3.8087547 0.00010728836)" id="Shape" fill="#FFFFFF" fill-rule="evenodd" stroke="none" />
        <path d="M26.549 3.28673L9.54448 3.28673C8.54369 3.28673 7.12075 2.74209 6.72231 2.38673L4.87983 0.743464C3.67192 -0.334078 1.82036 -0.227433 0.743401 0.979596C-0.333551 2.18722 -0.228082 4.03907 0.979829 5.11602L2.82231 6.75957C4.37299 8.14268 7.19955 9.14609 9.54448 9.14609L26.549 9.14609L26.549 3.28673L26.549 3.28673Z" transform="translate(0.00024586916 7.3241563)" id="Shape" fill="#FFFFFF" fill-rule="evenodd" stroke="none" />
        <path d="M26.5492 2.92998L9.54472 2.92998C8.42382 2.92998 6.96191 2.39267 6.5957 2.10147L4.75322 0.636622C3.48701 -0.370601 1.64394 -0.159663 0.636716 1.10655C-0.370511 2.37305 -0.159864 4.21612 1.10664 5.22305L2.94912 6.68789C4.48106 7.90547 7.25429 8.78906 9.54502 8.78906L26.5495 8.78906L26.5495 2.92998L26.5492 2.92998L26.5492 2.92998Z" transform="translate(0 16.176992)" id="Shape" fill="#FFFFFF" fill-rule="evenodd" stroke="none" />
        <path d="M22.7405 2.34396L9.02841 2.34396C7.8873 2.34396 6.57246 1.94787 6.25605 1.7463L4.67168 0.574422C3.3706 -0.387687 1.53603 -0.113171 0.574212 1.1879C-0.387606 2.48868 -0.113091 4.32354 1.18769 5.28536L2.77265 6.45723C4.39482 7.65694 7.15283 8.20332 9.0287 8.20332L22.7408 8.20332L22.7405 2.34396L22.7405 2.34396L22.7405 2.34396Z" transform="translate(3.8086877 25.487923)" id="Shape" fill="#FFFFFF" fill-rule="evenodd" stroke="none" />
      </g>
      <path d="M5.47383 4.39453L2.19727 4.39453C0.983497 4.39453 0 3.41074 0 2.19727C0 0.98379 0.983497 0 2.19727 0L5.47383 0C6.6876 0 7.67109 0.98379 7.67109 2.19727C7.67109 3.41074 6.6873 4.39453 5.47383 4.39453L5.47383 4.39453Z" transform="translate(32.23858 137.18115)" id="Shape" fill="#000000" fill-rule="evenodd" stroke="none" />
      <path d="M5.47383 4.39453L2.19727 4.39453C0.983497 4.39453 0 3.41074 0 2.19727C0 0.98379 0.983497 0 2.19727 0L5.47383 0C6.6876 0 7.67109 0.98379 7.67109 2.19727C7.67109 3.41074 6.6873 4.39453 5.47383 4.39453L5.47383 4.39453Z" transform="translate(32.23858 130.33478)" id="Shape" fill="#000000" fill-rule="evenodd" stroke="none" />
      <path d="M0 0L0 42.5218C0.142381 42.6492 0.282714 42.7799 0.419238 42.9158L3.57832 46.0585L6.73857 42.9158C6.87597 42.7793 7.0166 42.6478 7.15986 42.5197L7.15986 0L0 0L0 0Z" transform="translate(71.41992 91.07141)" id="Shape" fill="#FFFFFF" fill-rule="evenodd" stroke="none" />
      <path d="M96.2209 7.93272C96.2209 8.73838 95.5617 9.39756 94.7561 9.39756L1.46484 9.39756C0.65918 9.39756 0 8.73838 0 7.93272L0 1.46484C0 0.65918 0.65918 0 1.46484 0L94.7561 0C95.5617 0 96.2209 0.65918 96.2209 1.46484L96.2209 7.93272L96.2209 7.93272L96.2209 7.93272Z" transform="translate(26.88955 81.67383)" id="Shape" fill="#E6E9ED" fill-rule="evenodd" stroke="none" />
      <path d="M22.4786 7.93272C22.4786 8.73838 21.8194 9.39756 21.0138 9.39756L1.46484 9.39756C0.65918 9.39756 0 8.73838 0 7.93272L0 1.46484C0 0.65918 0.65918 0 1.46484 0L21.0138 0C21.8194 0 22.4786 0.65918 22.4786 1.46484L22.4786 7.93272L22.4786 7.93272Z" transform="translate(26.88955 81.67383)" id="Shape" fill="#48C1E1" fill-rule="evenodd" stroke="none" />
      <g id="Group" transform="translate(26.88955 81.67383)" opacity="0.1">
        <path d="M6.80186 7.93272L6.80186 1.46484C6.80186 0.65918 7.46104 0 8.2667 0L1.46484 0C0.65918 0 0 0.65918 0 1.46484L0 7.93272C0 8.73838 0.65918 9.39756 1.46484 9.39756L8.2667 9.39756C7.46104 9.39756 6.80186 8.73838 6.80186 7.93272L6.80186 7.93272Z" id="Shape" fill="#000000" fill-rule="evenodd" stroke="none" />
      </g>
      <path d="M8.52012 7.59756C8.52012 8.08096 8.12461 8.47647 7.64121 8.47647L0.878906 8.47647C0.39551 8.47647 0 8.08096 0 7.59756L0 0.878906C0 0.39551 0.39551 0 0.878906 0L7.64121 0C8.12461 0 8.52012 0.39551 8.52012 0.878906L8.52012 7.59756L8.52012 7.59756Z" transform="translate(107.18526 131.55408)" id="Shape" fill="#48C1E1" fill-rule="evenodd" stroke="none" />
      <path d="M9.83848 12.871L3.07617 12.871C1.37988 12.871 0 11.4911 0 9.79483L0 3.07617C0 1.37988 1.37988 0 3.07617 0L9.83848 0C11.5348 0 12.9146 1.37988 12.9146 3.07617L12.9146 9.79483C12.9146 11.4908 11.5348 12.871 9.83848 12.871L9.83848 12.871ZM4.39453 8.47647L8.52012 8.47647L8.52012 4.39453L4.39453 4.39453L4.39453 8.47647L4.39453 8.47647Z" transform="translate(104.98799 129.35681)" id="Shape" fill="#000000" fill-rule="evenodd" stroke="none" />
      <path d="M31.8735 0C29.0464 0 26.3877 1.09541 24.3891 3.08496L21.2288 6.22764L18.0697 3.08496C16.0699 1.09541 13.4115 0 10.5835 0C7.75518 0 5.0962 1.09541 3.09668 3.08496C1.09922 5.07129 0 7.7168 0 10.5322C0 12.8649 0.756446 15.0791 2.15098 16.9005L40.3055 16.9005C41.7029 15.0774 42.4608 12.8631 42.4608 10.5322C42.4608 7.71885 41.3599 5.07364 39.3595 3.08496C37.3611 1.09541 34.7024 0 31.8735 0L31.8735 0Z" transform="translate(53.769432 130.90222)" id="Shape" fill="#FFFFFF" fill-rule="evenodd" stroke="none" />
      <g id="Group" transform="translate(60.78984 138.0747)">
        <path d="M0 3.42334C0 1.53268 1.54042 0 3.44063 0C5.34083 0 6.88125 1.53268 6.88125 3.42334C6.88125 5.314 5.34083 6.84668 3.44063 6.84668C1.54042 6.84668 0 5.314 0 3.42334Z" id="Ellipse" fill="#046699" fill-rule="evenodd" stroke="none" />
        <path d="M0 3.42334C0 1.53268 1.54042 0 3.44063 0C5.34083 0 6.88125 1.53268 6.88125 3.42334C6.88125 5.314 5.34083 6.84668 3.44063 6.84668C1.54042 6.84668 0 5.314 0 3.42334Z" transform="translate(20.80957 0)" id="Ellipse" fill="#046699" fill-rule="evenodd" stroke="none" />
      </g>
      <path d="M98.4182 116.162C99.6319 116.162 100.615 115.178 100.615 113.965L100.615 83.1387C100.615 81.1192 98.9728 79.4766 96.9533 79.4766L91.4801 79.4766C90.8148 75.4485 87.2962 72.3653 83.0669 72.3653L61.3673 72.3653L61.3673 71.0294C63.0439 70.2847 64.667 69.3715 66.2142 68.2907C67.2091 67.5958 67.4525 66.2262 66.7573 65.2313C66.063 64.2363 64.6928 63.9929 63.6982 64.6881C59.6543 67.5123 55.0242 69.005 50.3077 69.005C43.7139 69.005 37.4326 66.1377 32.6206 60.9314C27.9108 55.8355 25.2097 49.0031 25.2097 42.1866L25.2097 36.5314L36.7881 36.5314C43.807 36.5314 50.4328 33.2763 54.7635 27.8602C59.0939 33.276 65.7196 36.5314 72.7386 36.5314L75.4055 36.5314L75.4055 42.1866C75.4055 47.5471 73.8047 52.8015 70.7766 57.382C70.1071 58.3942 70.3852 59.7574 71.3974 60.4269C72.4102 61.0963 73.7731 60.818 74.4422 59.8058C75.2373 58.6031 75.9428 57.3583 76.5653 56.0821L78.9525 56.0821C84.2654 56.0821 88.5879 51.777 88.5879 46.4848C88.5879 43.2144 86.9359 40.3222 84.4201 38.5896C84.6621 36.956 84.7872 35.2992 84.7872 33.6258C84.7875 15.0844 69.7242 0 51.2089 0L49.4071 0C30.8915 0 15.8279 15.0844 15.8279 33.6255C15.8279 35.2989 15.953 36.9557 16.195 38.5896C13.6793 40.3222 12.0272 43.2141 12.0272 46.4845C12.0272 51.7764 16.35 56.0818 21.6633 56.0818L24.0624 56.0818C25.442 58.9251 27.2347 61.5785 29.3933 63.9144C32.2769 67.0345 35.6229 69.4374 39.2481 71.0449L39.2481 72.3656L17.5485 72.3656C13.3192 72.3656 9.80097 75.4485 9.13535 79.4769L3.66211 79.4769C1.64268 79.4769 0 81.1195 0 83.139L0 146.338C0 148.357 1.64268 150 3.66211 150L31.2281 150L69.3826 150L96.953 150C98.9725 150 100.615 148.357 100.615 146.338L100.615 124.512C100.615 123.298 99.6316 122.314 98.4179 122.314C97.2041 122.314 96.2206 123.298 96.2206 124.512L96.2206 145.605L73.0353 145.605C73.4965 144.28 73.7353 142.877 73.7353 141.434C73.7353 138.031 72.4037 134.833 69.9867 132.43C68.5526 131.003 66.8367 129.96 64.9646 129.346L67.5993 129.346C69.8985 129.346 73.1291 128.673 75.1617 127.17L76.7467 125.998C77.8477 125.184 78.5657 123.989 78.7688 122.634C78.9712 121.28 78.6343 119.928 77.8201 118.826C77.8058 118.806 77.7896 118.788 77.7753 118.769C78.167 118.542 78.5314 118.299 78.8543 118.043L80.6979 116.577C82.9107 114.818 83.2793 111.586 81.5203 109.374C81.1412 108.897 80.6877 108.501 80.1847 108.193L80.9194 107.537C83.0291 105.656 83.2151 102.409 81.3331 100.298C80.5383 99.4075 79.4593 98.8342 78.2938 98.6525C78.6267 97.979 78.813 97.2369 78.8244 96.4635C78.8423 95.2948 78.4673 94.1815 77.7647 93.2692L96.2206 93.2692L96.2206 113.965C96.2209 115.178 97.2044 116.162 98.4182 116.162L98.4182 116.162ZM84.1937 46.4845C84.1937 49.3532 81.8426 51.6873 78.9527 51.6873L78.324 51.6873C79.2958 48.6173 79.8003 45.4204 79.8003 42.1866L79.8003 41.3563C82.2876 41.7604 84.1937 43.9028 84.1937 46.4845L84.1937 46.4845ZM21.6633 51.6873C18.7731 51.6873 16.4218 49.3535 16.4218 46.4845C16.4218 43.9028 18.3278 41.7606 20.8151 41.3563L20.8151 42.1866C20.8151 45.397 21.3305 48.6094 22.3069 51.6873L21.6633 51.6873L21.6633 51.6873ZM23.0124 32.1369C21.7986 32.1369 20.8151 33.1207 20.8151 34.3342L20.8151 36.927C20.681 36.9387 20.548 36.9542 20.4152 36.9712C20.2884 35.8664 20.2225 34.7505 20.2225 33.6255C20.2225 17.5075 33.3149 4.39453 49.4071 4.39453L51.2089 4.39453C67.3011 4.39453 80.393 17.5075 80.393 33.6255C80.393 34.7508 80.327 35.8664 80.2002 36.9712C80.0675 36.9539 79.9345 36.9384 79.8003 36.9267L79.8003 34.3342C79.8003 33.1207 78.8165 32.1369 77.603 32.1369L72.7389 32.1369C66.1518 32.1369 59.9912 28.5896 56.6619 22.8794C56.2679 22.2041 55.5454 21.789 54.7638 21.789C53.9821 21.789 53.2594 22.2041 52.8653 22.8794C49.536 28.5896 43.3755 32.1369 36.7884 32.1369L23.0124 32.1369L23.0124 32.1369ZM4.39453 83.8711L22.4786 83.8711L22.4786 88.8741L4.39453 88.8741L4.39453 83.8711L4.39453 83.8711ZM30.6246 132.429C28.2097 134.83 26.8799 138.028 26.8799 141.434C26.8799 142.877 27.1181 144.28 27.5783 145.605L4.39453 145.605L4.39453 93.2687L22.8504 93.2687C22.1481 94.1813 21.7729 95.2942 21.7907 96.4629C21.8021 97.2363 21.9888 97.9784 22.3216 98.652C21.1564 98.8339 20.0774 99.4072 19.2823 100.298C17.4003 102.408 17.5863 105.655 19.696 107.537L20.4308 108.192C19.9277 108.501 19.4745 108.896 19.0957 109.373C17.3361 111.586 17.7047 114.817 19.9181 116.577L21.7605 118.042C22.0837 118.299 22.4481 118.541 22.8404 118.769C22.8255 118.788 22.81 118.806 22.7953 118.826C21.9811 119.927 21.6439 121.279 21.8467 122.634C22.0497 123.988 22.7681 125.183 23.8687 125.997L25.4537 127.169C27.4866 128.672 30.7169 129.345 33.0161 129.345L35.647 129.345C33.7746 129.96 32.0584 131.002 30.6246 132.429L30.6246 132.429ZM44.5304 124.951L33.0155 124.951C31.4786 124.951 29.2213 124.49 28.0658 123.636L26.4809 122.464C26.269 122.307 26.209 122.096 26.1926 121.983C26.1753 121.871 26.1709 121.652 26.3282 121.439C26.5263 121.171 26.8072 121.142 26.9188 121.142C27.0281 121.142 27.1919 121.167 27.3524 121.286L28.9368 122.458C28.9775 122.488 29.0191 122.517 29.0622 122.544C29.877 123.064 31.6503 123.486 33.0155 123.486L44.5304 123.486L44.5304 124.951L44.5304 124.951ZM44.5304 129.346L44.5304 129.658C44.2488 129.542 43.9617 129.441 43.6723 129.346L44.5304 129.346L44.5304 129.346ZM44.5304 116.226L29.7231 116.226C27.9366 116.226 25.6403 115.513 24.4948 114.602L22.6523 113.138C22.3365 112.886 22.2838 112.424 22.5352 112.108C22.7338 111.858 23.0039 111.831 23.1103 111.831C23.2263 111.831 23.3985 111.859 23.5646 111.991L25.4065 113.455C26.2813 114.151 28.2984 114.761 29.7231 114.761L44.5304 114.761L44.5304 116.226L44.5304 116.226ZM44.5304 107.73L29.7231 107.73C27.9234 107.73 25.6137 106.927 24.4635 105.901L22.621 104.258C22.3195 103.989 22.2932 103.525 22.5615 103.224C22.752 103.01 22.9866 102.979 23.1097 102.979C23.2362 102.979 23.4237 103.011 23.596 103.165L25.4385 104.808C26.3241 105.598 28.2864 106.266 29.7231 106.266L44.5304 106.266L44.5304 107.73L44.5304 107.73ZM44.5304 100.195L33.0155 100.195C31.4294 100.195 29.1164 99.5426 27.9917 98.4507L26.4067 96.9123C26.2175 96.7283 26.1864 96.5107 26.1847 96.3976C26.1829 96.2842 26.2075 96.0659 26.3906 95.8773C26.579 95.6833 26.8014 95.6546 26.9177 95.6546C27.0527 95.6546 27.2508 95.6903 27.4269 95.8614L29.0118 97.3995C29.0467 97.4338 29.0833 97.4666 29.1205 97.4982C29.9215 98.1776 31.6691 98.7305 33.0155 98.7305L44.5304 98.7305L44.5304 100.195L44.5304 100.195L44.5304 100.195ZM44.5304 94.3359L33.0155 94.3359C32.6692 94.3359 32.1498 94.1798 31.8882 94.0673L31.0652 93.2687L44.5301 93.2687L44.5301 94.3359L44.5304 94.3359L44.5304 94.3359ZM39.5388 142.723C38.8532 142.723 38.2954 142.173 38.2954 141.497C38.2954 140.821 38.8532 140.271 39.5388 140.271C40.2243 140.271 40.7821 140.821 40.7821 141.497C40.7821 142.173 40.2243 142.723 39.5388 142.723L39.5388 142.723ZM60.3483 142.723C59.6625 142.723 59.1044 142.173 59.1044 141.497C59.1044 140.821 59.6625 140.271 60.3483 140.271C61.0336 140.271 61.5911 140.821 61.5911 141.497C61.5911 142.173 61.0333 142.723 60.3483 142.723L60.3483 142.723ZM69.341 141.434C69.341 142.923 68.9555 144.347 68.2178 145.605L64.1827 145.605C65.2884 144.579 65.9854 143.119 65.9854 141.497C65.9854 138.398 63.4564 135.877 60.348 135.877C57.2391 135.877 54.7096 138.398 54.7096 141.497C54.7096 143.119 55.4065 144.579 56.5125 145.605L43.3734 145.605C44.4794 144.579 45.1764 143.119 45.1764 141.497C45.1764 138.398 42.6472 135.877 39.5385 135.877C36.4298 135.877 33.9006 138.398 33.9006 141.497C33.9006 143.119 34.5976 144.579 35.7035 145.605L32.3938 145.605C31.6585 144.347 31.2741 142.924 31.2741 141.434C31.2741 139.207 32.1439 137.116 33.7233 135.545C35.308 133.968 37.4162 133.1 39.6604 133.1C41.9033 133.1 44.0115 133.968 45.5971 135.545L48.7561 138.688C49.6134 139.54 50.9977 139.54 51.8549 138.688L55.016 135.545C56.5998 133.968 58.7077 133.1 60.9504 133.1C63.1942 133.1 65.3025 133.968 66.8874 135.546C68.4697 137.118 69.341 139.209 69.341 141.434L69.341 141.434ZM48.9249 132.657L48.9249 93.2687L51.6902 93.2687L51.6902 132.654L50.306 134.031L48.9249 132.657L48.9249 132.657ZM56.0851 98.7305L67.5999 98.7305C68.9481 98.7305 70.7024 98.1715 71.5104 97.4842C71.5471 97.4528 71.5825 97.4206 71.6168 97.3872L73.1886 95.8611C73.3649 95.6903 73.5627 95.6543 73.6983 95.6543C73.814 95.6543 74.0364 95.6833 74.2242 95.8764C74.4079 96.0656 74.4325 96.2842 74.4308 96.3973C74.429 96.5106 74.3982 96.728 74.2087 96.912L72.6231 98.4504C71.4987 99.5423 69.186 100.195 67.5999 100.195L56.0851 100.195L56.0851 98.7305L56.0851 98.7305ZM56.0851 129.656L56.0851 129.346L56.9394 129.346C56.6511 129.44 56.3654 129.541 56.0851 129.656L56.0851 129.656ZM74.4229 121.983C74.4061 122.095 74.3461 122.307 74.1346 122.464L72.549 123.636C71.3944 124.49 69.1371 124.951 67.5999 124.951L56.0851 124.951L56.0851 123.486L67.5999 123.486C68.9692 123.486 70.754 123.056 71.5784 122.527C71.6191 122.5 71.659 122.473 71.6979 122.444L73.2636 121.286C73.4238 121.167 73.5873 121.142 73.6963 121.142C73.8079 121.142 74.0889 121.171 74.2875 121.439C74.4445 121.652 74.4398 121.871 74.4229 121.983L74.4229 121.983ZM77.9631 113.137L76.1194 114.603C74.9745 115.513 72.6782 116.226 70.8923 116.226L56.0851 116.226L56.0851 114.761L70.8923 114.761C72.3164 114.761 74.3335 114.151 75.2083 113.456L77.0508 111.991C77.2166 111.859 77.3895 111.832 77.5052 111.832C77.6121 111.832 77.8816 111.859 78.0803 112.109C78.3313 112.424 78.2789 112.886 77.9631 113.137L77.9631 113.137ZM77.9944 104.257L76.1514 105.901C75.0018 106.927 72.6911 107.73 70.8923 107.73L56.0851 107.73L56.0851 106.265L70.8923 106.265C72.329 106.265 74.2913 105.598 75.1764 104.808L77.0194 103.165C77.1917 103.011 77.3792 102.979 77.5063 102.979C77.6294 102.979 77.8641 103.01 78.0533 103.223C78.3223 103.525 78.2959 103.989 77.9944 104.257L77.9944 104.257ZM68.7322 94.0629C68.4741 94.1763 67.95 94.3359 67.5999 94.3359L56.0851 94.3359L56.0851 93.2687L69.5499 93.2687L68.7322 94.0629L68.7322 94.0629ZM26.8731 88.8741L26.8731 83.8711L32.1437 83.8711C33.3574 83.8711 34.3409 82.8873 34.3409 81.6738C34.3409 80.4604 33.3574 79.4766 32.1437 79.4766L13.6623 79.4766C14.2365 77.8954 15.7591 76.7602 17.5485 76.7602L41.4454 76.7602C42.6592 76.7602 43.6427 75.7764 43.6427 74.5629L43.6427 72.5669C45.8086 73.1159 48.041 73.3998 50.3077 73.3998C52.5618 73.3998 54.7957 73.1109 56.9728 72.5552L56.9728 74.5632C56.9728 75.7767 57.9563 76.7605 59.17 76.7605L83.0669 76.7605C84.856 76.7605 86.3789 77.896 86.9531 79.4769L44.4483 79.4769C43.2346 79.4769 42.2511 80.4606 42.2511 81.6741C42.2511 82.8876 43.2346 83.8714 44.4483 83.8714L96.2209 83.8714L96.2209 88.8744L26.8731 88.8744L26.8731 88.8741L26.8731 88.8741Z" transform="translate(24.692284 0)" id="Shape" fill="#000000" fill-rule="evenodd" stroke="none" />
      <path d="M2.19727 9.64043C0.983495 9.64043 0 8.65664 0 7.44316L0 2.19727C0 0.983789 0.983495 0 2.19727 0C3.41104 0 4.39453 0.983789 4.39453 2.19727L4.39453 7.44316C4.39453 8.65664 3.41103 9.64043 2.19727 9.64043L2.19727 9.64043Z" transform="translate(60.07969 37.947357)" id="Shape" fill="#000000" fill-rule="evenodd" stroke="none" />
      <path d="M2.19727 9.64043C0.983495 9.64043 0 8.65664 0 7.44316L0 2.19727C0 0.983789 0.983495 0 2.19727 0C3.41104 0 4.39453 0.983789 4.39453 2.19727L4.39453 7.44316C4.39453 8.65664 3.41074 9.64043 2.19727 9.64043L2.19727 9.64043Z" transform="translate(85.52579 37.947357)" id="Shape" fill="#000000" fill-rule="evenodd" stroke="none" />
    </g>
  </g>
</svg>