<?xml version="1.0" encoding="utf-8"?>
<svg width="35px" height="35px" viewbox="0 0 35 35" version="1.1" xmlns:xlink="http://www.w3.org/1999/xlink" xmlns="http://www.w3.org/2000/svg">
  <defs>
    <path d="M0 0L35 0L35 35L0 35L0 0Z" id="path_1" />
    <clipPath id="mask_1">
      <use xlink:href="#path_1" />
    </clipPath>
  </defs>
  <g id="Mask-group-Mask">
    <path d="M0 0L35 0L35 35L0 35L0 0Z" id="Mask" fill="none" fill-rule="evenodd" stroke="none" />
    <g clip-path="url(#mask_1)">
      <g id="Mask-group">
        <path d="M0 0L35 0L35 35L0 35L0 0Z" id="Rectangle" fill="none" fill-rule="evenodd" stroke="none" />
        <g clip-path="url(#mask_1)">
          <g id="Group" transform="translate(5.832947 0.00030517578)">
            <path d="M14.2669 10.2248C13.9636 10.2248 13.6588 10.1694 13.3583 10.0571C9.82773 8.72568 6.80898 8.68484 4.12856 9.93318C2.91231 10.4976 1.59398 10.1373 0.770016 9.01005C-0.313525 7.52693 -0.244982 5.21839 0.921683 3.86505C5.06481 -0.953282 10.1529 -1.26682 16.0388 2.92588C17.4971 3.96422 17.9492 6.40984 17.0071 8.15693L16.7577 8.61776C16.2079 9.63859 15.2586 10.2248 14.2669 10.2248L14.2669 10.2248L14.2669 10.2248Z" transform="translate(2.9111538 17.481768)" id="Shape" fill="#EF9B14" fill-rule="evenodd" stroke="none" />
            <path d="M1.69388 4.35751C0.990961 4.35751 0.372628 3.84855 0.255958 3.13251L0.0197101 1.69751C-0.11154 0.902719 0.426584 0.151675 1.22138 0.0204277C2.01763 -0.11374 2.76721 0.427302 2.89846 1.22209L3.13617 2.66584C3.2645 3.46063 2.72492 4.21022 1.93013 4.33855C1.84992 4.35168 1.77117 4.35751 1.69388 4.35751L1.69388 4.35751Z" transform="translate(5.1038275 2.9147892)" id="Shape" fill="#EF9B14" fill-rule="evenodd" stroke="none" />
            <path d="M1.6475 4.58548C0.909589 4.58548 0.27667 4.02839 0.197918 3.27881C0.142504 2.73923 0.0812546 2.19527 0.0112542 1.63819C-0.0879137 0.839019 0.479378 0.109852 1.27855 0.0121442C2.07042 -0.091399 2.80688 0.478811 2.90605 1.27944C2.9775 1.85548 3.04313 2.41985 3.1 2.97693C3.18313 3.77756 2.60126 4.4936 1.80063 4.57673C1.74959 4.58256 1.69855 4.58548 1.6475 4.58548L1.6475 4.58548L1.6475 4.58548Z" transform="translate(6.074711 9.34273)" id="Shape" fill="#EF9B14" fill-rule="evenodd" stroke="none" />
            <path d="M1.47321 4.375C0.668212 4.375 0.0148757 3.72167 0.0148757 2.91667C0.0148757 2.42958 0.0105031 1.95417 0.000294844 1.48896C-0.0157491 0.683958 0.623 0.0174987 1.428 0C2.22717 0.0408332 2.89946 0.622708 2.91696 1.42771C2.92717 1.91333 2.93154 2.40771 2.93154 2.91667C2.93154 3.72167 2.27821 4.375 1.47321 4.375L1.47321 4.375L1.47321 4.375Z" transform="translate(6.5772758 16.04133)" id="Shape" fill="#EF9B14" fill-rule="evenodd" stroke="none" />
            <path d="M1.58172 5.10091C0.813175 5.10091 0.170047 4.50008 0.126299 3.72425L0.00234207 1.53966C-0.0428693 0.736121 0.572549 0.0477898 1.37609 0.00112096C2.16797 -0.0295039 2.86797 0.57133 2.91463 1.37487L3.03859 3.55946C3.0838 4.36446 2.46838 5.05133 1.66484 5.098C1.63713 5.09945 1.60943 5.10091 1.58172 5.10091L1.58172 5.10091Z" transform="translate(10.936738 0)" id="Shape" fill="#EF9B14" fill-rule="evenodd" stroke="none" />
            <path d="M1.54118 5.8078C0.747848 5.8078 0.0974321 5.17051 0.0828457 4.37426C0.0668073 3.42051 0.0376399 2.46822 0.00117938 1.51447C-0.030903 0.709468 0.596181 0.0313425 1.40118 0.00071764C2.2091 -0.0240743 2.88431 0.595716 2.91486 1.40072C2.95277 2.37488 2.98201 3.34905 2.99951 4.32468C3.01264 5.12968 2.37097 5.79468 1.56597 5.8078C1.55722 5.8078 1.54993 5.8078 1.54118 5.8078L1.54118 5.8078L1.54118 5.8078Z" transform="translate(11.3026285 7.0004773)" id="Shape" fill="#EF9B14" fill-rule="evenodd" stroke="none" />
            <path d="M1.46021 5.09931C1.42667 5.09931 1.39313 5.09931 1.35959 5.09639C0.556049 5.04244 -0.0506186 4.34535 0.00333786 3.54327C0.0514642 2.82577 0.0893823 2.11265 0.115629 1.4039C0.146254 0.597438 0.836051 -0.0281882 1.62792 0.000979105C2.43292 0.031604 3.06146 0.708272 3.03084 1.51327C3.00313 2.25265 2.96522 2.99494 2.91272 3.74306C2.86168 4.51015 2.22146 5.09931 1.46021 5.09931L1.46021 5.09931L1.46021 5.09931Z" transform="translate(11.229229 14.719101)" id="Shape" fill="#EF9B14" fill-rule="evenodd" stroke="none" />
            <path d="M1.45932 5.08128C1.37182 5.08128 1.28432 5.074 1.19536 5.05649C0.403486 4.91212 -0.121515 4.15087 0.0243219 3.35899C0.149736 2.67066 0.256197 1.97941 0.342236 1.27941C0.441404 0.480243 1.16911 -0.091424 1.96974 0.0121192C2.76891 0.111284 3.3362 0.838993 3.23703 1.63962C3.1437 2.39503 3.02995 3.1417 2.89286 3.884C2.76307 4.58983 2.15057 5.08128 1.45932 5.08128L1.45932 5.08128L1.45932 5.08128Z" transform="translate(15.852966 16.647472)" id="Shape" fill="#EF9B14" fill-rule="evenodd" stroke="none" />
            <path d="M1.45986 5.58482C1.43652 5.58482 1.41465 5.58482 1.39131 5.58336C0.586317 5.54544 -0.0349363 4.86294 0.00152429 4.0594C0.0423575 3.19461 0.0686042 2.31669 0.0919414 1.4242C0.112358 0.619195 0.809442 -0.0443462 1.58527 0.00231981C2.39028 0.0212789 3.02757 0.690653 3.00715 1.49565C2.98527 2.40857 2.95611 3.30836 2.91527 4.19503C2.87882 4.97524 2.23277 5.58482 1.45986 5.58482L1.45986 5.58482Z" transform="translate(16.543682 9.549426)" id="Shape" fill="#EF9B14" fill-rule="evenodd" stroke="none" />
            <path d="M1.46009 5.10649C1.44988 5.10649 1.43967 5.10649 1.42946 5.10649C0.624463 5.09045 -0.0157436 4.424 0.000294844 3.619C0.0148813 2.89566 0.0323828 2.16066 0.0542569 1.41545C0.0790461 0.610453 0.755714 -0.0268364 1.55634 0.000870625C2.36134 0.0256626 2.99425 0.697955 2.97092 1.50149C2.94905 2.2365 2.93155 2.96129 2.91842 3.67587C2.90092 4.47212 2.25196 5.10649 1.46009 5.10649L1.46009 5.10649L1.46009 5.10649Z" transform="translate(16.7167 2.9154596)" id="Shape" fill="#EF9B14" fill-rule="evenodd" stroke="none" />
            <path d="M1.46131 4.37088C1.40298 4.37088 1.34465 4.36796 1.28632 4.36067C0.487149 4.26588 -0.0845146 3.53963 0.010275 2.74046C0.0656891 2.27963 0.115273 1.80713 0.160484 1.32442C0.2334 0.523794 0.929026 -0.0668323 1.74569 0.00608603C2.54778 0.0790016 3.1384 0.789209 3.06402 1.59129C3.01736 2.10171 2.96486 2.599 2.90798 3.08609C2.82048 3.82692 2.19048 4.37088 1.46131 4.37088L1.46131 4.37088L1.46131 4.37088Z" transform="translate(21.720837 7.2926097)" id="Shape" fill="#EF9B14" fill-rule="evenodd" stroke="none" />
            <path d="M1.45912 5.1377C1.3235 5.1377 1.18495 5.11874 1.04787 5.07791C0.274951 4.85187 -0.166921 4.04104 0.0591191 3.26812C0.261827 2.57541 0.448492 1.86666 0.616202 1.13312C0.797037 0.348536 1.57579 -0.144379 2.36328 0.0379125C3.14787 0.217286 3.63933 0.998955 3.4585 1.785C3.27766 2.57687 3.07787 3.3425 2.85766 4.09208C2.67099 4.725 2.08912 5.1377 1.45912 5.1377L1.45912 5.1377L1.45912 5.1377Z" transform="translate(20.370722 13.274803)" id="Shape" fill="#EF9B14" fill-rule="evenodd" stroke="none" />
            <path d="M1.45836 4.24753C1.25565 4.24753 1.04857 4.20524 0.851688 4.11483C0.119607 3.78087 -0.202686 2.91461 0.13273 2.18253C0.329608 1.75086 0.520645 1.32066 0.702937 0.89045C1.01648 0.149617 1.87252 -0.198925 2.61481 0.116074C3.35564 0.429616 3.70419 1.28566 3.38919 2.02795C3.19669 2.48441 2.99544 2.93941 2.78544 3.39733C2.53898 3.93108 2.0096 4.24753 1.45836 4.24753L1.45836 4.24753L1.45836 4.24753Z" transform="translate(18.229485 19.81463)" id="Shape" fill="#EF9B14" fill-rule="evenodd" stroke="none" />
            <path d="M2.35985 5.68631C1.66422 5.68631 1.04881 5.18756 0.924849 4.47881C0.779018 3.65193 0.525265 2.87318 0.147558 2.09735C-0.205359 1.37256 0.096517 0.500476 0.821308 0.147558C1.5461 -0.205359 2.41964 0.096517 2.76964 0.821308C3.26839 1.84506 3.60527 2.87756 3.79777 3.9786C3.93631 4.77193 3.40693 5.52735 2.61214 5.66589C2.52756 5.68048 2.44297 5.68631 2.35985 5.68631L2.35985 5.68631L2.35985 5.68631Z" transform="translate(0 10.20773)" id="Shape" fill="#EF9B14" fill-rule="evenodd" stroke="none" />
            <path d="M2.61064 5.5884C2.14252 5.5884 1.68314 5.36382 1.40022 4.94673C0.723562 3.94632 0.275849 2.90506 0.0323105 1.76465C-0.135398 0.97715 0.366266 0.201317 1.15377 0.0336095C1.93835 -0.138474 2.71564 0.367568 2.88481 1.15507C3.05106 1.93382 3.3471 2.61923 3.81668 3.31486C4.26731 3.98278 4.09231 4.8884 3.42439 5.33903C3.17502 5.50673 2.8921 5.5884 2.61064 5.5884L2.61064 5.5884L2.61064 5.5884Z" transform="translate(1.3578944 18.517513)" id="Shape" fill="#EF9B14" fill-rule="evenodd" stroke="none" />
            <path d="M1.45947 5.83484C1.28738 5.83484 1.11384 5.80422 0.943218 5.74005C0.189257 5.45421 -0.189908 4.61276 0.094467 3.8588C0.622383 2.46317 1.83863 1.38838 3.34655 0.982966L6.58551 0.140051C7.83384 -0.19245 9.18426 0.0758807 10.1934 0.851716C11.1311 1.57505 11.6678 2.64692 11.6678 3.79317L11.6678 4.37651C11.6678 5.1815 11.0145 5.83484 10.2095 5.83484C9.40446 5.83484 8.75113 5.1815 8.75113 4.37651L8.75113 3.79317C8.75113 3.48838 8.56884 3.28276 8.41426 3.16463C8.11821 2.93713 7.71426 2.86276 7.32634 2.96338L4.09322 3.80484C3.48947 3.96672 3.0228 4.36484 2.82301 4.89276C2.6028 5.47609 2.04863 5.83484 1.45947 5.83484L1.45947 5.83484L1.45947 5.83484Z" transform="translate(5.832393 29.164824)" id="Shape" fill="#EF9B14" fill-rule="evenodd" stroke="none" />
          </g>
        </g>
      </g>
    </g>
  </g>
</svg>