<?xml version="1.0" encoding="utf-8"?>
<svg width="35px" height="35px" viewbox="0 0 35 35" version="1.1" xmlns:xlink="http://www.w3.org/1999/xlink" xmlns="http://www.w3.org/2000/svg">
  <defs>
    <path d="M0 0L35 0L35 35L0 35L0 0Z" id="path_1" />
    <clipPath id="mask_1">
      <use xlink:href="#path_1" />
    </clipPath>
  </defs>
  <g id="Mask-group-Mask">
    <path d="M0 0L35 0L35 35L0 35L0 0Z" id="Mask" fill="none" fill-rule="evenodd" stroke="none" />
    <g clip-path="url(#mask_1)">
      <g id="Mask-group">
        <path d="M0 0L35 0L35 35L0 35L0 0Z" id="Rectangle" fill="none" fill-rule="evenodd" stroke="none" />
        <g clip-path="url(#mask_1)">
          <g id="Group" transform="translate(0.0087890625 0)">
            <path d="M0 7.4436L7.44361 0L8.89431 1.45071L1.45071 8.89431L0 7.4436L0 7.4436Z" transform="translate(13.042603 13.058044)" id="Shape" fill="#1BD639" fill-rule="evenodd" stroke="none" />
            <path d="M12.2536 32.8801L32.8862 12.2486C35.6839 9.45086 35.6839 4.8969 32.8862 2.09825C30.0876 -0.698427 25.5345 -0.700403 22.7359 2.09825L2.10434 22.7308C-0.702389 25.5354 -0.700506 30.0754 2.10434 32.8802C4.9099 35.6857 9.44985 35.686 12.2536 32.8801L12.2536 32.8801L12.2536 32.8801ZM28.4673 7.96702C28.8677 7.56658 29.5169 7.56658 29.9174 7.96702C30.3179 8.36745 30.3179 9.01666 29.9174 9.41709C29.517 9.81753 28.8677 9.81753 28.4673 9.41709C28.0668 9.01666 28.0669 8.36745 28.4673 7.96702L28.4673 7.96702ZM12.3225 27.012C11.922 27.4125 11.2729 27.4125 10.8725 27.012C10.472 26.6116 10.472 25.9625 10.8725 25.562C11.2729 25.1616 11.922 25.1616 12.3225 25.562C12.723 25.9624 12.723 26.6116 12.3225 27.012L12.3225 27.012ZM25.5674 5.06687C25.9678 4.66643 26.6171 4.66643 27.0174 5.06687C27.4178 5.4673 27.4178 6.11651 27.0174 6.51694C26.6171 6.91747 25.9678 6.91747 25.5674 6.51694C25.167 6.11651 25.167 5.4673 25.5674 5.06687L25.5674 5.06687ZM25.5674 10.8672C25.9678 10.4667 26.6171 10.4667 27.0174 10.8672C27.4178 11.2676 27.4178 11.9167 27.0174 12.3171C26.6171 12.7177 25.9678 12.7177 25.5674 12.3171C25.167 11.9167 25.167 11.2675 25.5674 10.8672L25.5674 10.8672ZM22.6671 7.96702C23.0676 7.56658 23.7168 7.56658 24.1173 7.96702C24.5177 8.36745 24.5177 9.01666 24.1173 9.41709C23.7169 9.81753 23.0676 9.81753 22.6671 9.41709C22.2667 9.01666 22.2668 8.36745 22.6671 7.96702L22.6671 7.96702L22.6671 7.96702ZM10.872 19.7617L19.7667 10.867C20.1672 10.4665 20.8161 10.4665 21.2166 10.867L24.1175 13.7679C24.5179 14.1683 24.5179 14.8172 24.1175 15.2178L15.2228 24.1124C14.8223 24.5129 14.1734 24.5129 13.7729 24.1124L10.872 21.2115C10.4715 20.811 10.4715 20.1622 10.872 19.7617L10.872 19.7617ZM7.97239 22.6619C8.37274 22.2615 9.02194 22.2615 9.42238 22.6619C9.82281 23.0623 9.82281 23.7115 9.42238 24.1121C9.02194 24.5125 8.37274 24.5125 7.97239 24.1121C7.57186 23.7115 7.57186 23.0623 7.97239 22.6619L7.97239 22.6619L7.97239 22.6619ZM7.97239 28.4621C8.37274 28.0616 9.02194 28.0616 9.42238 28.4621C9.82281 28.8626 9.82281 29.5117 9.42238 29.9122C9.02194 30.3127 8.37274 30.3127 7.97239 29.9122C7.57186 29.5118 7.57186 28.8627 7.97239 28.4621L7.97239 28.4621L7.97239 28.4621ZM5.0723 25.562C5.47265 25.1616 6.12185 25.1616 6.52228 25.562C6.92281 25.9625 6.92281 26.6116 6.52228 27.012C6.12185 27.4125 5.47265 27.4125 5.0723 27.012C4.67186 26.6116 4.67186 25.9624 5.0723 25.562L5.0723 25.562Z" transform="translate(0 0.018310547)" id="Shape" fill="#1BD639" fill-rule="evenodd" stroke="none" />
            <path d="M13.9418 3.7914L10.1505 0L0 10.15L3.79149 13.9408C6.59544 16.7467 11.1361 16.7464 13.9418 13.9408C16.7405 11.1431 16.7405 6.58907 13.9418 3.7914L13.9418 3.7914L13.9418 3.7914Z" transform="translate(18.942993 18.955017)" id="Shape" fill="#1BD639" fill-rule="evenodd" stroke="none" />
            <path d="M2.10434 2.09832C-0.701043 4.90352 -0.701851 9.44437 2.10434 12.2486L5.89313 16.0552L16.0433 5.90506L12.2536 2.09832C9.45596 -0.699441 4.90201 -0.699441 2.10434 2.09832L2.10434 2.09832L2.10434 2.09832Z" transform="translate(0.00048828125 0)" id="Shape" fill="#1BD639" fill-rule="evenodd" stroke="none" />
          </g>
        </g>
      </g>
    </g>
  </g>
</svg>