<?xml version="1.0" encoding="utf-8"?>
<svg width="35px" height="35px" viewbox="0 0 35 35" version="1.1" xmlns:xlink="http://www.w3.org/1999/xlink" xmlns="http://www.w3.org/2000/svg">
  <defs>
    <path d="M0 0L35 0L35 35L0 35L0 0Z" id="path_1" />
    <clipPath id="mask_1">
      <use xlink:href="#path_1" />
    </clipPath>
  </defs>
  <g id="Group-Mask">
    <path d="M0 0L35 0L35 35L0 35L0 0Z" id="Mask" fill="none" fill-rule="evenodd" stroke="none" />
    <g clip-path="url(#mask_1)">
      <g id="Group" transform="translate(6.1655273 0)">
        <path d="M0 0.464856L0 1.44251L4.63899 1.44251C4.67147 1.44251 4.70355 1.4443 4.73578 1.44495L4.73578 0.464856C4.73595 0.341898 4.68775 0.223963 4.60181 0.136807C4.51587 0.0496543 4.39923 0.0004882 4.27741 0L0.458451 0C0.33663 0.000404774 0.219913 0.0496543 0.133971 0.136727C0.048029 0.223883 -0.000166853 0.341898 0 0.464856L0 0.464856L0 0.464856Z" transform="translate(4.10437 3.8415527)" id="Shape" fill="#252F63" fill-rule="evenodd" stroke="none" />
        <path d="M0 0L0.874707 0L0.874707 1.49962L0 1.49962L0 0L0 0Z" transform="translate(8.332764 0)" id="Shape-2" fill="#252F63" fill-rule="evenodd" stroke="none" />
        <path d="M0 0L1.55227 0L1.55227 0.8462L0 0.8462L0 0L0 0Z" transform="translate(5.695923 2.2474365)" id="Shape-3" fill="#252F63" fill-rule="evenodd" stroke="none" />
        <path d="M0 0L2.23938 0L2.23938 1.49962L0 1.49962L0 0L0 0Z" transform="translate(5.352539 0)" id="Shape-4" fill="#252F63" fill-rule="evenodd" stroke="none" />
        <path d="M0 0L0.809994 0L0.809994 0.899254L0 0.899254L0 0L0 0Z" transform="translate(17.417236 16.74054)" id="Shape-5" fill="#252F63" fill-rule="evenodd" stroke="none" />
        <path d="M0 0L0.854216 0L0.854216 0.899254L0 0.899254L0 0L0 0Z" transform="translate(18.66333 16.74054)" id="Shape-6" fill="#252F63" fill-rule="evenodd" stroke="none" />
        <path d="M0 0L0.809994 0L0.809994 0.899254L0 0.899254L0 0L0 0Z" transform="translate(20.2583 16.74054)" id="Shape-7" fill="#252F63" fill-rule="evenodd" stroke="none" />
        <path d="M0 0.800862C0.392686 0.746818 0.790558 0.749919 1.18243 0.809994L1.18243 0L0 0L0 0.800862L0 0.800862Z" transform="translate(18.488281 18.387573)" id="Shape-8" fill="#252F63" fill-rule="evenodd" stroke="none" />
        <path d="M0 0L2.10849 0L2.10849 0.955063L0 0.955063L0 0L0 0Z" transform="translate(18.025269 15.037659)" id="Shape-9" fill="#252F63" fill-rule="evenodd" stroke="none" />
        <path d="M0 0L0.874713 0L0.874713 1.49962L0 1.49962L0 0L0 0Z" transform="translate(3.7369385 0)" id="Shape-10" fill="#252F63" fill-rule="evenodd" stroke="none" />
        <path d="M9.05532 3.16043L9.05532 9.98364L10.0194 9.98364L10.0232 3.12511C10.0241 2.71542 9.94493 2.30953 9.79031 1.9307C9.63576 1.55195 9.40872 1.20754 9.12222 0.917316C8.83573 0.627097 8.49545 0.396734 8.12075 0.239351C7.74604 0.081891 7.3442 0.000648874 6.9384 0L0 0L0 0.75135L6.71946 0.78545C7.34032 0.790635 7.93404 1.04303 8.37152 1.48779C8.80892 1.93256 9.05475 2.53366 9.05532 3.16043L9.05532 3.16043L9.05532 3.16043Z" transform="translate(9.580688 4.3060913)" id="Shape-11" fill="#252F63" fill-rule="evenodd" stroke="none" />
        <path d="M0 2.29301C0.00137808 2.7449 0.135349 3.18619 0.384992 3.56129C0.63471 3.93632 0.988841 4.22824 1.40283 4.40021C1.81673 4.57225 2.27187 4.61647 2.71072 4.52754C3.14957 4.43852 3.55247 4.22022 3.86852 3.90028C4.18458 3.58025 4.39956 3.1729 4.48639 2.7296C4.57322 2.28629 4.52794 1.82702 4.35639 1.40963C4.18474 0.99232 3.89444 0.63568 3.52217 0.384745C3.1499 0.133891 2.71226 0 2.26466 0C1.66332 0.0016191 1.08725 0.243971 0.662655 0.673834C0.238137 1.1037 -0.000160674 1.686 0 2.29301L0 2.29301ZM2.6256 0.729489L2.63371 1.95655L3.43576 2.39233C3.47926 2.41533 3.51773 2.44668 3.54899 2.48474C3.58034 2.52282 3.60391 2.5668 3.61825 2.6141C3.63259 2.6614 3.63753 2.71106 3.63275 2.7603C3.62797 2.80955 3.61347 2.85735 3.59031 2.90092C3.56706 2.9445 3.53547 2.98297 3.4974 3.01408C3.45933 3.04526 3.41551 3.06851 3.36853 3.08244C3.32147 3.09637 3.27222 3.10083 3.22346 3.0954C3.17478 3.08997 3.12755 3.07482 3.08471 3.05085L2.08915 2.51002C2.03058 2.47819 1.98158 2.43104 1.94731 2.37353C1.91305 2.31602 1.89467 2.25033 1.89426 2.18318L1.88478 0.734433C1.88446 0.685347 1.89369 0.636583 1.912 0.591146C1.93031 0.545623 1.95736 0.504234 1.99154 0.469321C2.02572 0.434332 2.06639 0.406547 2.11118 0.38743C2.15597 0.368316 2.20408 0.358355 2.25276 0.35803L2.25528 0.35803C2.35304 0.35803 2.44692 0.397071 2.51625 0.466729C2.58567 0.53631 2.62495 0.630755 2.6256 0.729489L2.6256 0.729489L2.6256 0.729489Z" transform="translate(16.780518 21.23938)" id="Shape-12" fill="#252F63" fill-rule="evenodd" stroke="none" />
        <path d="M0 0L12.7712 0L12.7712 1.49816L0 1.49816L0 0L0 0Z" transform="translate(0 11.661743)" id="Shape-13" fill="#252F63" fill-rule="evenodd" stroke="none" />
        <path d="M12.7712 0L0 0L0 12.9754L12.7712 12.9754L12.7712 0L12.7712 0ZM2.29294 10.5898C2.29294 10.6889 2.25025 10.784 2.17435 10.8541C2.09836 10.9243 1.99537 10.9637 1.88794 10.9637C1.78051 10.9637 1.67752 10.9243 1.60153 10.8541C1.52563 10.784 1.48294 10.6889 1.48294 10.5898L1.48294 3.92142C1.48294 3.82227 1.52563 3.72718 1.60153 3.65704C1.67752 3.58689 1.78051 3.54752 1.88794 3.54752C1.99537 3.54752 2.09836 3.58689 2.17435 3.65704C2.25025 3.72718 2.29294 3.82227 2.29294 3.92142L2.29294 10.5898L2.29294 10.5898ZM2.29294 2.41314C2.29294 2.51237 2.25025 2.60746 2.17435 2.67753C2.09836 2.74767 1.99537 2.78712 1.88794 2.78712C1.78051 2.78712 1.67752 2.74767 1.60153 2.67753C1.52563 2.60746 1.48294 2.51237 1.48294 2.41314L1.48294 2.02832C1.48294 1.92909 1.52563 1.834 1.60153 1.76394C1.67752 1.69379 1.78051 1.65434 1.88794 1.65434C1.99537 1.65434 2.09836 1.69379 2.17435 1.76394C2.25025 1.834 2.29294 1.92909 2.29294 2.02832L2.29294 2.41314L2.29294 2.41314Z" transform="translate(0 13.907715)" id="Shape-14" fill="#252F63" fill-rule="evenodd" stroke="none" />
        <path d="M12.7712 4.06592C12.77 2.98798 12.3453 1.95451 11.5901 1.19223C10.835 0.430024 9.81119 0.00121432 8.74338 0L4.02777 0C2.95995 0.00129466 1.9362 0.430024 1.18105 1.19231C0.42597 1.95451 0.00121123 2.98798 0 4.06592L0 4.88183L12.7712 4.88183L12.7712 4.06592L12.7712 4.06592Z" transform="translate(0 6.0319214)" id="Shape-15" fill="#252F63" fill-rule="evenodd" stroke="none" />
        <path d="M0 3.65971C0.000321347 4.38319 0.213109 5.09024 0.611462 5.69166C1.0099 6.29299 1.576 6.76165 2.23817 7.03827C2.90034 7.31496 3.62893 7.38713 4.33184 7.24579C5.03467 7.10445 5.68024 6.75591 6.18688 6.24423C6.69354 5.73256 7.03851 5.08076 7.17823 4.3712C7.31788 3.66157 7.24603 2.92618 6.97169 2.25777C6.69734 1.58945 6.23289 1.01824 5.63698 0.616322C5.04107 0.214403 4.34042 -8.34267e-05 3.62383 0C2.66285 0.00121432 1.74157 0.387257 1.06223 1.0734C0.382885 1.75947 0.000889884 2.68966 0 3.65971L0 3.65971L0 3.65971ZM6.6294 3.65969C6.6281 4.25949 6.45063 4.84536 6.11959 5.34342C5.78854 5.8414 5.31867 6.22923 4.76933 6.45781C4.21999 6.68639 3.6159 6.74552 3.03335 6.62767C2.4508 6.50981 1.91588 6.22032 1.49623 5.79572C1.07657 5.37112 0.791052 4.83053 0.675626 4.24216C0.560201 3.65386 0.620144 3.04417 0.847751 2.49014C1.07544 1.93619 1.46067 1.46274 1.95477 1.12968C2.44894 0.796607 3.02971 0.618816 3.62392 0.618816C4.4216 0.620679 5.18607 0.941841 5.7495 1.51191C6.31293 2.08199 6.6294 2.85439 6.6294 3.65969L6.6294 3.65969L6.6294 3.65969Z" transform="translate(15.421143 19.872742)" id="Shape-16" fill="#252F63" fill-rule="evenodd" stroke="none" />
        <path d="M0 0L12.7712 0L12.7712 1.49816L0 1.49816L0 0L0 0Z" transform="translate(0 27.63092)" id="Shape-17" fill="#252F63" fill-rule="evenodd" stroke="none" />
        <path d="M4.02777 5.1228L8.74338 5.1228C9.81119 5.12166 10.835 4.69285 11.5901 3.93065C12.3453 3.16837 12.77 2.13489 12.7712 1.05696L12.7712 0L0 0L0 1.05704C0.00129157 2.13506 0.426051 3.16845 1.18113 3.93065C1.9362 4.69285 2.95995 5.12158 4.02777 5.1228L4.02777 5.1228Z" transform="translate(0 29.877197)" id="Shape-18" fill="#252F63" fill-rule="evenodd" stroke="none" />
      </g>
    </g>
  </g>
</svg>