<?xml version="1.0" encoding="utf-8"?>
<svg width="35px" height="35px" viewbox="0 0 35 35" version="1.1" xmlns:xlink="http://www.w3.org/1999/xlink" xmlns="http://www.w3.org/2000/svg">
  <defs>
    <path d="M0 0L35 0L35 35L0 35L0 0Z" id="path_1" />
    <clipPath id="mask_1">
      <use xlink:href="#path_1" />
    </clipPath>
  </defs>
  <g id="Mask-group-Mask">
    <path d="M0 0L35 0L35 35L0 35L0 0Z" id="Mask" fill="none" fill-rule="evenodd" stroke="none" />
    <g clip-path="url(#mask_1)">
      <g id="Mask-group">
        <path d="M0 0L35 0L35 35L0 35L0 0Z" id="Rectangle" fill="none" fill-rule="evenodd" stroke="none" />
        <g clip-path="url(#mask_1)">
          <g id="Group" transform="translate(1.166748 0)">
            <path d="M0 0L0 4.0833C0 4.40548 0.26121 4.6666 0.583395 4.6666L3.5 4.6666L3.5 0L0 0L0 0Z" transform="translate(11.083214 22.1667)" id="Shape" fill="#FC7272" fill-rule="evenodd" stroke="none" />
            <path d="M0 0L8.1667 0L8.1667 1.1667L0 1.1667L0 0L0 0Z" transform="translate(11.083214 19.833302)" id="Shape" fill="#FC7272" fill-rule="evenodd" stroke="none" />
            <path d="M2.9167 4.6666C3.23888 4.6666 3.5 4.40548 3.5 4.0833L3.5 0L0 0L0 4.6666L2.9167 4.6666L2.9167 4.6666Z" transform="translate(15.75009 22.1667)" id="Shape" fill="#FC7272" fill-rule="evenodd" stroke="none" />
            <path d="M2.24415 0C1.92196 0 1.66075 0.26121 1.66075 0.583303L1.66075 8.1667L0.922254 8.1667C0.632303 8.16688 0.386566 8.38011 0.345395 8.6672L0 11.0833L4.4882 11.0833L4.1429 8.66775C4.10191 8.38048 3.85609 8.16697 3.56595 8.1667L2.82745 8.1667L2.82745 0.583303C2.82745 0.26121 2.56624 0 2.24415 0L2.24415 0Z" transform="translate(12.922642 0)" id="Shape" fill="#FC7272" fill-rule="evenodd" stroke="none" />
            <path d="M0.583395 0C0.26121 0 0 0.26121 0 0.583395L0 6.4167L8.1667 6.4167L8.1667 0.583395C8.1667 0.26121 7.90558 0 7.58339 0L0.583395 0L0.583395 0Z" transform="translate(11.083214 12.249999)" id="Shape" fill="#FC7272" fill-rule="evenodd" stroke="none" />
            <path d="M0 14.2916C0 15.7414 1.17526 16.9166 2.625 16.9166C4.07483 16.9166 5.25 15.7414 5.25 14.2916L5.25 0L0 0L0 14.2916L0 14.2916ZM1.1667 12.8333C1.1667 12.5111 1.42791 12.25 1.75 12.25C2.07219 12.25 2.3334 12.5111 2.3334 12.8333L2.3334 14.2916C2.3334 14.4527 2.464 14.5833 2.625 14.5833C2.94719 14.5833 3.2084 14.8445 3.2084 15.1666C3.2084 15.4888 2.94719 15.75 2.625 15.75C1.81963 15.75 1.1667 15.0971 1.1667 14.2916L1.1667 12.8333L1.1667 12.8333Z" transform="translate(1.7499065 16.916605)" id="Shape" fill="#FC7272" fill-rule="evenodd" stroke="none" />
            <path d="M7.58339 0L1.1667 0C0.522421 0 0 0.522326 0 1.16669C0 1.81097 0.522421 2.3333 1.1667 2.3333L2.3334 2.3333C2.65558 2.3333 2.9167 2.59451 2.9167 2.9167C2.9167 3.23879 2.65558 3.5 2.3334 3.5L1.75 3.5L1.75 14.5833L7 14.5833L7 3.5L4.6667 3.5C4.34451 3.5 4.08339 3.23879 4.08339 2.9167C4.08339 2.59451 4.34451 2.3333 4.6667 2.3333L7.58339 2.3333C8.22767 2.3333 8.75 1.81097 8.75 1.16669C8.75 0.522326 8.22767 0 7.58339 0L7.58339 0Z" transform="translate(0 1.1666067)" id="Shape" fill="#FC7272" fill-rule="evenodd" stroke="none" />
            <path d="M7.58691 2.33331L8.16441 2.33331L8.17031 1.1667C8.21802 0.577777 7.78568 0.0590415 7.19786 0L0.976061 0C0.388246 0.0590415 -0.0441862 0.577777 0.00361192 1.1667L0.00361192 2.33331L1.17031 2.33331L1.17031 1.75C1.17031 1.42782 1.43143 1.1667 1.75361 1.1667C2.0758 1.1667 2.33692 1.42782 2.33692 1.75L2.33692 2.33331L3.50361 2.33331L3.50361 1.75C3.50361 1.42782 3.76482 1.1667 4.08692 1.1667C4.4091 1.1667 4.67031 1.42782 4.67031 1.75L4.67031 2.33331L5.83692 2.33331L5.83692 1.75C5.83692 1.42782 6.09813 1.1667 6.42031 1.1667C6.74249 1.1667 7.00361 1.42782 7.00361 1.75L7.00361 2.33331L7.58691 2.33331L7.58691 2.33331Z" transform="translate(23.912992 7.583393)" id="Shape" fill="#FC7272" fill-rule="evenodd" stroke="none" />
            <path d="M0 2.3334C0 2.97767 0.522329 3.5 1.1667 3.5L8.16669 3.5C8.81097 3.5 9.3333 2.97767 9.3333 2.3334L9.3333 0L0 0L0 2.3334L0 2.3334Z" transform="translate(23.333302 30.3333)" id="Shape" fill="#FC7272" fill-rule="evenodd" stroke="none" />
            <path d="M7.59206 0L1.74125 0C1.68203 0.971159 1.34032 1.90373 0.758305 2.6834C0.267753 3.34057 0.00184109 4.13829 0 4.95839L0 6.4167L9.3333 6.4167L9.3333 4.95839C9.33146 4.13829 9.06556 3.34057 8.575 2.6834C7.99299 1.90373 7.65137 0.971159 7.59206 0L7.59206 0Z" transform="translate(23.333302 11.083302)" id="Shape" fill="#FC7272" fill-rule="evenodd" stroke="none" />
            <path d="M2.3333 5.25C2.3333 5.57218 2.07219 5.8333 1.75 5.8333C1.42782 5.8333 1.1667 5.57218 1.1667 5.25L1.1667 0L0 0L0 10.5L1.1667 10.5L1.1667 7.5833C1.1667 7.26112 1.42782 7 1.75 7C2.07219 7 2.3333 7.26112 2.3333 7.5833L2.3333 10.5L9.3333 10.5L9.3333 0L2.3333 0L2.3333 5.25L2.3333 5.25Z" transform="translate(23.333302 18.666607)" id="Shape" fill="#FC7272" fill-rule="evenodd" stroke="none" />
            <path d="M9.3333 4.6667L5.8333 4.6667L5.8333 0L4.6667 0L4.6667 4.6667L1.1667 4.6667C0.522329 4.6667 0 5.18902 0 5.83339L0 7C0 7.64437 0.522329 8.1667 1.1667 8.1667L9.3333 8.1667C9.97767 8.1667 10.5 7.64437 10.5 7L10.5 5.83339C10.5 5.18902 9.97767 4.6667 9.3333 4.6667L9.3333 4.6667ZM9.3333 7L1.1667 7L1.1667 5.83339L9.3333 5.83339L9.3333 7L9.3333 7Z" transform="translate(9.916881 26.833395)" id="Shape" fill="#FC7272" fill-rule="evenodd" stroke="none" />
          </g>
        </g>
      </g>
    </g>
  </g>
</svg>