<?xml version="1.0" encoding="utf-8"?>
<svg width="30px" height="30px" viewbox="0 0 30 30" version="1.1" xmlns:xlink="http://www.w3.org/1999/xlink" xmlns="http://www.w3.org/2000/svg">
  <defs>
    <path d="M0 0L30 0L30 30L0 30L0 0Z" id="path_1" />
    <clipPath id="mask_1">
      <use xlink:href="#path_1" />
    </clipPath>
  </defs>
  <g id="paper-plane">
    <path d="M0 0L30 0L30 30L0 30L0 0Z" id="Background" fill="none" fill-rule="evenodd" stroke="none" />
    <g clip-path="url(#mask_1)">
      <path d="M6373.82 462.084L3832.41 7436.93L3567.51 8163.96L3567.51 10605.3L4533.22 8810.92L4040.02 7060.62" transform="translate(16.375977 1.1132812)" id="Polyline" fill="#F5C86E" fill-rule="evenodd" stroke="none" />
      <path d="M5373 7218.83L1638.75 6193.77L12879.6 229.688L12879.6 9279.43L7259.18 7736.6" transform="translate(3.75 0.5859375)" id="Polyline" fill="#FAE196" fill-rule="evenodd" stroke="none" />
      <path d="M3.87498 24.3788L0 17.3258L16.6981 0L4.2351 17.9913L3.87498 24.3788Z" transform="translate(12.500977 1.1132812)" id="Polygon" fill="#F5B955" fill-rule="evenodd" stroke="none" />
      <path d="M26.5404 0.07701C26.3576 -0.0272869 26.1328 -0.0255291 25.9518 0.0815803L15.2142 6.43103C14.9357 6.59574 14.8434 6.95504 15.0081 7.23359C15.1728 7.51209 15.5321 7.60437 15.8107 7.43972L23.5147 2.88412L9.16474 17.7736L2.02755 15.59L11.3419 10.0822C11.6205 9.91742 11.7127 9.55812 11.548 9.27957C11.3834 9.00107 11.024 8.90867 10.7455 9.07344L0.287726 15.2574C0.0879212 15.3755 -0.0233484 15.6005 0.00413217 15.8311C0.0316127 16.0616 0.19257 16.2542 0.414523 16.3221L8.9381 18.9297L12.6985 25.7742C12.7024 25.7813 12.7064 25.7873 12.7106 25.7926C12.7734 25.8973 12.8674 25.9828 12.9847 26.0321C13.0581 26.063 13.1353 26.078 13.2119 26.078C13.3621 26.078 13.5099 26.0203 13.6216 25.9111L17.9454 21.6853L26.0786 24.1736C26.1348 24.1907 26.1925 24.1992 26.25 24.1992C26.374 24.1992 26.4964 24.1599 26.5985 24.0843C26.7478 23.9738 26.836 23.799 26.836 23.6133L26.836 0.585955C26.836 0.375545 26.7231 0.181248 26.5404 0.07701L26.5404 0.07701ZM21.421 6.74533L12.7304 19.2908C12.6626 19.3889 12.6262 19.5052 12.6262 19.6245L12.6262 23.2087L10.0584 18.535L21.421 6.74533L21.421 6.74533ZM13.798 24.1002L13.798 20.4165L16.6685 21.2947L13.798 24.1002L13.798 24.1002ZM14.1505 19.2989L25.6641 2.67799L25.6641 22.8213L14.1505 19.2989L14.1505 19.2989Z" transform="translate(3.1640625 -3.0517578E-05)" id="Shape" fill="#000000" fill-rule="evenodd" stroke="none" />
      <path d="M6.47014 0.171606C6.24127 -0.0572026 5.87038 -0.0572026 5.64145 0.171606L0.171606 5.64145C-0.0572021 5.87026 -0.0572021 6.24127 0.171606 6.47014C0.286098 6.58452 0.43604 6.6417 0.585981 6.6417C0.735923 6.6417 0.885864 6.58452 1.0003 6.47008L6.47014 1.00024C6.69895 0.771489 6.69895 0.400474 6.47014 0.171606L6.47014 0.171606Z" transform="translate(3.1640625 20.19423)" id="Shape" fill="#000000" fill-rule="evenodd" stroke="none" />
      <path d="M1.51926 0.17157L0.171606 1.51923C-0.0572021 1.74804 -0.0572021 2.11905 0.171606 2.34792C0.28604 2.46229 0.435981 2.51948 0.585923 2.51948C0.735864 2.51948 0.885806 2.46224 1.00024 2.34786L2.3479 1.0002C2.5767 0.771396 2.5767 0.400381 2.3479 0.171513C2.11903 -0.0571793 1.74813 -0.0571793 1.51926 0.17157L1.51926 0.17157Z" transform="translate(0 27.480515)" id="Shape" fill="#000000" fill-rule="evenodd" stroke="none" />
      <path d="M0.585938 0C0.431191 0 0.280664 0.0626957 0.17168 0.171679C0.0626953 0.280663 0 0.431249 0 0.585938C0 0.740039 0.0626367 0.89121 0.17168 1.0002C0.280664 1.10918 0.431836 1.17188 0.585938 1.17188C0.74004 1.17188 0.891211 1.10918 1.00014 1.0002C1.10912 0.891212 1.17188 0.740039 1.17188 0.585938C1.17188 0.431249 1.10918 0.280665 1.00014 0.171679C0.891211 0.0626957 0.74004 0 0.585938 0L0.585938 0Z" transform="translate(7.3583984 28.793549)" id="Shape" fill="#000000" fill-rule="evenodd" stroke="none" />
      <path d="M3.06883 0.171606L0.171607 3.06877C-0.0572017 3.29758 -0.0572017 3.6686 0.171607 3.89741C0.286041 4.01184 0.435981 4.06903 0.585923 4.06903C0.735865 4.06903 0.885806 4.01178 1.00024 3.89741L3.89747 1.00024C4.12627 0.77143 4.12627 0.400414 3.89747 0.171606C3.66877 -0.0572026 3.29788 -0.0572026 3.06883 0.171606L3.06883 0.171606Z" transform="translate(8.8203125 24.43396)" id="Shape" fill="#000000" fill-rule="evenodd" stroke="none" />
      <path d="M3.07668 0.171563L0.171606 3.07664C-0.0572026 3.30545 -0.0572026 3.67646 0.171606 3.90533C0.28604 4.01971 0.435981 4.07695 0.585923 4.07695C0.735866 4.07695 0.885807 4.01971 1.00024 3.90533L3.90532 1.00025C4.13413 0.771444 4.13413 0.400429 3.90532 0.171561C3.67645 -0.0571883 3.30555 -0.0571883 3.07668 0.171563L3.07668 0.171563Z" transform="translate(18.811523 24.211578)" id="Shape" fill="#000000" fill-rule="evenodd" stroke="none" />
      <path d="M0.585938 1.17187C0.740039 1.17187 0.89121 1.10977 1.0002 1.0002C1.10912 0.891211 1.17188 0.740625 1.17188 0.586523C1.17188 0.431836 1.10918 0.280664 1.0002 0.171679C0.891212 0.0626949 0.740039 0 0.585938 0C0.431836 0 0.280665 0.0626958 0.171679 0.171679C0.062753 0.280664 0 0.431836 0 0.586523C0 0.740625 0.0626957 0.891211 0.171679 1.0002C0.280665 1.10977 0.431836 1.17187 0.585938 1.17187L0.585938 1.17187Z" transform="translate(15.611328 7.8152313)" id="Shape" fill="#000000" fill-rule="evenodd" stroke="none" />
    </g>
  </g>
</svg>