<?xml version="1.0" encoding="utf-8"?>
<svg width="36px" height="36px" viewbox="0 0 36 36" version="1.1" xmlns:xlink="http://www.w3.org/1999/xlink" xmlns="http://www.w3.org/2000/svg">
  <defs>
    <path d="M0 17.5C0 7.83502 7.83502 0 17.5 0C27.165 0 35 7.83502 35 17.5C35 27.165 27.165 35 17.5 35C7.83502 35 0 27.165 0 17.5Z" id="path_1" />
    <path d="M0 0L20 0L20 20L0 20L0 0L0 0Z" id="path_2" />
    <path d="M0 0L20 0L20 20L0 20L0 0L0 0L0 0Z" id="path_3" />
    <clipPath id="mask_1">
      <use xlink:href="#path_1" />
    </clipPath>
    <clipPath id="mask_2">
      <use xlink:href="#path_2" />
    </clipPath>
    <clipPath id="mask_3">
      <use xlink:href="#path_3" />
    </clipPath>
  </defs>
  <g id="demographic_icon-Mask" transform="translate(0.5 0.5)">
    <path d="M0 17.5C0 7.83502 7.83502 0 17.5 0C27.165 0 35 7.83502 35 17.5C35 27.165 27.165 35 17.5 35C7.83502 35 0 27.165 0 17.5Z" id="Mask" fill="#FFFFFF" fill-rule="evenodd" stroke="#00C7D9" stroke-width="1" stroke-dasharray="2 2" />
    <g clip-path="url(#mask_1)">
      <g id="demographic_icon" transform="translate(7 7)">
        <g id="Mask-group">
          <g id="Pixelbook">
            <g id="demographic_icon">
              <g id="Mask-group">
                <path d="M0 0L20 0L20 20L0 20L0 0L0 0Z" id="artboard_1#1" fill="none" fill-rule="evenodd" stroke="none" />
                <g id="Mask-group">
                  <path d="M0 0L20 0L20 20L0 20L0 0L0 0Z" id="path_1" fill="none" fill-rule="evenodd" stroke="none" />
                  <g clip-path="url(#mask_2)">
                    <g id="Group">
                      <g id="Pixelbook#1">
                        <path d="M0 0L20 0L20 20L0 20L0 0L0 0Z" id="artboard_1#2" fill="#FFFFFF" fill-rule="evenodd" stroke="none" />
                        <g id="population">
                          <path d="M0 0L20 0L20 20L0 20L0 0L0 0L0 0Z" id="Background" fill="none" fill-rule="evenodd" stroke="none" />
                          <g id="Mask-group#1">
                            <path d="M0 0L20 0L20 20L0 20L0 0L0 0L0 0Z" id="path_1#1" fill="none" fill-rule="evenodd" stroke="none" />
                            <g id="Mask-group">
                              <path d="M0 0L20 0L20 20L0 20L0 0L0 0L0 0Z" id="path_2" fill="none" fill-rule="evenodd" stroke="none" />
                              <g clip-path="url(#mask_3)">
                                <g id="Group" transform="translate(0.625 0)">
                                  <g id="Group">
                                    <path d="M7.03125 4.06632L7.03125 3.51562C7.03125 1.58203 5.44922 0 3.51562 0C1.58203 0 0 1.58203 0 3.51562L0 9.59762L7.03125 9.59762L7.03125 4.06632L7.03125 4.06632L7.03125 4.06632Z" transform="translate(8.7890625 9.453125)" id="Shape" fill="#0097A4" fill-rule="evenodd" stroke="none" />
                                    <path d="M3.51562 4.06632L3.51562 3.51562C3.51562 1.58203 1.93359 0 0 0L0 9.59762L3.51562 9.59762L3.51562 4.06632L3.51562 4.06632L3.51562 4.06632Z" transform="translate(12.3046875 9.453125)" id="Shape#1" fill="#00C7D9" fill-rule="evenodd" stroke="none" />
                                    <path d="M2.34375 0C1.05469 0 0 1.05469 0 2.34375C0 3.63282 1.05469 4.6875 2.34375 4.6875C3.63282 4.6875 4.68751 3.63282 4.68751 2.34375C4.68751 1.05469 3.63282 0 2.34375 0L2.34375 0L2.34375 0L2.34375 0Z" transform="translate(4.1015625 4.765625)" id="Shape#2" fill="#0097A4" fill-rule="evenodd" stroke="none" />
                                    <path d="M2.34375 0C1.05469 0 0 1.05469 0 2.34375C0 3.63282 1.05469 4.6875 2.34375 4.6875C3.63282 4.6875 4.6875 3.63282 4.6875 2.34375C4.6875 1.05469 3.63282 0 2.34375 0L2.34375 0L2.34375 0L2.34375 0Z" transform="translate(9.9609375 4.765625)" id="Shape#3" fill="#0097A4" fill-rule="evenodd" stroke="none" />
                                    <path d="M7.03125 3.51562L7.03125 8.71872L0 8.71872L0 3.51562C0 1.58203 1.58203 0 3.51562 0C5.44922 0 7.03125 1.58203 7.03125 3.51562L7.03125 3.51562L7.03125 3.51562L7.03125 3.51562Z" transform="translate(2.9296875 9.453125)" id="Shape#4" fill="#0097A4" fill-rule="evenodd" stroke="none" />
                                    <path d="M2.34375 2.34375C2.34375 3.63282 1.28907 4.6875 0 4.6875L0 0C1.28907 0 2.34375 1.05469 2.34375 2.34375L2.34375 2.34375L2.34375 2.34375L2.34375 2.34375Z" transform="translate(6.4453125 4.765625)" id="Shape#5" fill="#00C7D9" fill-rule="evenodd" stroke="none" />
                                    <path d="M3.51562 3.51562L3.51562 8.71872L0 8.71872L0 0C1.93359 0 3.51562 1.58203 3.51562 3.51562L3.51562 3.51562L3.51562 3.51562L3.51562 3.51562Z" transform="translate(6.4453125 9.453125)" id="Shape#6" fill="#00C7D9" fill-rule="evenodd" stroke="none" />
                                    <path d="M2.34375 2.34375C2.34375 3.63282 1.28907 4.6875 0 4.6875L0 0C1.28907 0 2.34375 1.05469 2.34375 2.34375L2.34375 2.34375L2.34375 2.34375L2.34375 2.34375Z" transform="translate(12.3046875 4.765625)" id="Shape#7" fill="#00C7D9" fill-rule="evenodd" stroke="none" />
                                    <g id="Group#1" transform="translate(0 10.625)">
                                      <path d="M3.51562 0C1.58203 0 0 1.58203 0 3.51563L0 4.10156C0 4.42963 0.257721 4.6875 0.585937 4.6875L6.44532 4.6875C6.77353 4.6875 7.03125 4.42963 7.03125 4.10156L7.03125 3.51563C7.03125 1.58203 5.44922 0 3.51562 0L3.51562 0L3.51562 0L3.51562 0Z" transform="translate(0 4.6875)" id="Shape#8" fill="#005A62" fill-rule="evenodd" stroke="none" />
                                      <path d="M3.51563 0C1.58203 0 0 1.58203 0 3.51563L0 4.10156C0 4.42963 0.257721 4.6875 0.585939 4.6875L6.44531 4.6875C6.77352 4.6875 7.03125 4.42963 7.03125 4.10156L7.03125 3.51563C7.03125 1.58203 5.44922 0 3.51563 0L3.51563 0L3.51563 0L3.51563 0Z" transform="translate(11.71875 4.6875)" id="Shape#9" fill="#005A62" fill-rule="evenodd" stroke="none" />
                                      <path d="M2.34375 0C1.05469 0 0 1.05469 0 2.34375C0 3.63282 1.05469 4.6875 2.34375 4.6875C3.63282 4.6875 4.68751 3.63282 4.68751 2.34375C4.68751 1.05469 3.63282 0 2.34375 0L2.34375 0L2.34375 0L2.34375 0Z" transform="translate(1.171875 0)" id="Shape#10" fill="#005A62" fill-rule="evenodd" stroke="none" />
                                      <path d="M2.34375 0C1.05469 0 0 1.05469 0 2.34375C0 3.63282 1.05469 4.6875 2.34375 4.6875C3.63282 4.6875 4.6875 3.63282 4.6875 2.34375C4.6875 1.05469 3.63282 0 2.34375 0L2.34375 0L2.34375 0L2.34375 0Z" transform="translate(12.890625 0)" id="Shape#11" fill="#005A62" fill-rule="evenodd" stroke="none" />
                                    </g>
                                    <path d="M3.33984 2.16797C3.23441 2.28516 3.08197 2.34375 2.92969 2.34375C2.77741 2.34375 2.62497 2.28516 2.51953 2.16797L2.34375 2.00393L2.34375 4.14063C2.34375 4.46869 2.08603 4.72656 1.75782 4.72656C1.4296 4.72656 1.17188 4.46869 1.17188 4.14063L1.17188 2.00393L0.996096 2.16797C0.773468 2.40234 0.398407 2.40234 0.175781 2.16797C-0.0585938 1.94534 -0.0585938 1.57028 0.175781 1.34766L1.34766 0.175782C1.4531 0.0585938 1.60552 0 1.75782 0C1.9101 0 2.06252 0.0585938 2.16797 0.175782L3.33984 1.34766C3.57422 1.57028 3.57422 1.94534 3.33984 2.16797L3.33984 2.16797L3.33984 2.16797L3.33984 2.16797Z" transform="translate(7.6171875 0)" id="Shape#12" fill="#0097A4" fill-rule="evenodd" stroke="none" />
                                    <path d="M3.33984 2.16797C3.23441 2.28516 3.08196 2.34375 2.92969 2.34375C2.77741 2.34375 2.62497 2.28516 2.51952 2.16797L2.34375 2.00393L2.34375 4.14063C2.34375 4.46869 2.08603 4.72656 1.75782 4.72656C1.4296 4.72656 1.17188 4.46869 1.17188 4.14063L1.17188 2.00393L0.996096 2.16797C0.773468 2.40234 0.398407 2.40234 0.175781 2.16797C-0.0585938 1.94534 -0.0585938 1.57028 0.175781 1.34766L1.34766 0.175782C1.45309 0.0585938 1.60552 0 1.75782 0C1.9101 0 2.06252 0.0585938 2.16797 0.175782L3.33984 1.34766C3.57422 1.57028 3.57422 1.94534 3.33984 2.16797L3.33984 2.16797L3.33984 2.16797L3.33984 2.16797Z" transform="translate(13.4765625 0)" id="Shape#13" fill="#0097A4" fill-rule="evenodd" stroke="none" />
                                    <path d="M3.33984 2.16797C3.23441 2.28516 3.08197 2.34375 2.92969 2.34375C2.77741 2.34375 2.62497 2.28516 2.51952 2.16797L2.34375 2.00393L2.34375 4.14063C2.34375 4.46869 2.08603 4.72656 1.75782 4.72656C1.4296 4.72656 1.17188 4.46869 1.17188 4.14063L1.17188 2.00393L0.996095 2.16797C0.773468 2.40234 0.398408 2.40234 0.175782 2.16797C-0.0585938 1.94534 -0.0585938 1.57028 0.175782 1.34766L1.34766 0.175782C1.4531 0.0585938 1.60552 0 1.75782 0C1.9101 0 2.06252 0.0585938 2.16797 0.175782L3.33984 1.34766C3.57422 1.57028 3.57422 1.94534 3.33984 2.16797L3.33984 2.16797L3.33984 2.16797L3.33984 2.16797Z" transform="translate(1.7578125 0)" id="Shape#14" fill="#0097A4" fill-rule="evenodd" stroke="none" />
                                    <path d="M1.58203 2.16797C1.47659 2.28516 1.32416 2.34375 1.17188 2.34375C1.01959 2.34375 0.86716 2.28516 0.761719 2.16797L0.585938 2.00393L0.585938 4.14063C0.585938 4.46869 0.328217 4.72656 0 4.72656L0 0C0.152283 0 0.304718 0.0585938 0.410156 0.175782L1.58203 1.34766C1.81641 1.57028 1.81641 1.94534 1.58203 2.16797L1.58203 2.16797L1.58203 2.16797L1.58203 2.16797Z" transform="translate(9.375 0)" id="Shape#15" fill="#00C7D9" fill-rule="evenodd" stroke="none" />
                                    <path d="M2.34375 2.34375C2.34375 3.63282 1.28907 4.6875 0 4.6875L0 0C1.28907 0 2.34375 1.05469 2.34375 2.34375L2.34375 2.34375L2.34375 2.34375L2.34375 2.34375Z" transform="translate(15.234375 10.625)" id="Shape#16" fill="#00C7D9" fill-rule="evenodd" stroke="none" />
                                    <path d="M3.51563 3.51563L3.51563 4.10156C3.51563 4.42963 3.25791 4.6875 2.92969 4.6875L0 4.6875L0 0C1.93359 0 3.51563 1.58203 3.51563 3.51563L3.51563 3.51563L3.51563 3.51563L3.51563 3.51563Z" transform="translate(15.234375 15.3125)" id="Shape#17" fill="#00C7D9" fill-rule="evenodd" stroke="none" />
                                    <path d="M1.58203 2.16797C1.47659 2.28516 1.32416 2.34375 1.17188 2.34375C1.01959 2.34375 0.867161 2.28516 0.761719 2.16797L0.585938 2.00393L0.585938 4.14063C0.585938 4.46869 0.328217 4.72656 0 4.72656L0 0C0.152283 0 0.304718 0.0585938 0.410156 0.175782L1.58203 1.34766C1.81641 1.57028 1.81641 1.94534 1.58203 2.16797L1.58203 2.16797L1.58203 2.16797L1.58203 2.16797Z" transform="translate(15.234375 0)" id="Shape#18" fill="#00C7D9" fill-rule="evenodd" stroke="none" />
                                    <path d="M3.51562 3.51563L3.51562 4.10156C3.51562 4.42963 3.25791 4.6875 2.92969 4.6875L0 4.6875L0 0C1.93359 0 3.51562 1.58203 3.51562 3.51563L3.51562 3.51563L3.51562 3.51563L3.51562 3.51563Z" transform="translate(3.515625 15.3125)" id="Shape#19" fill="#00C7D9" fill-rule="evenodd" stroke="none" />
                                    <path d="M2.34375 2.34375C2.34375 3.63282 1.28907 4.6875 0 4.6875L0 0C1.28907 0 2.34375 1.05469 2.34375 2.34375L2.34375 2.34375L2.34375 2.34375L2.34375 2.34375Z" transform="translate(3.515625 10.625)" id="Shape#20" fill="#00C7D9" fill-rule="evenodd" stroke="none" />
                                    <path d="M1.58203 2.16797C1.47659 2.28516 1.32416 2.34375 1.17188 2.34375C1.01959 2.34375 0.86716 2.28516 0.761718 2.16797L0.585937 2.00393L0.585937 4.14063C0.585937 4.46869 0.328217 4.72656 0 4.72656L0 0C0.152282 0 0.304718 0.0585938 0.410156 0.175782L1.58203 1.34766C1.81641 1.57028 1.81641 1.94534 1.58203 2.16797L1.58203 2.16797L1.58203 2.16797L1.58203 2.16797Z" transform="translate(3.515625 0)" id="Shape#21" fill="#00C7D9" fill-rule="evenodd" stroke="none" />
                                    <path d="M3.51562 0C1.58203 0 0 1.58203 0 3.51563L0 4.10156C0 4.42963 0.257721 4.6875 0.585938 4.6875L6.44532 4.6875C6.77353 4.6875 7.03125 4.42963 7.03125 4.10156L7.03125 3.51563C7.03125 1.58203 5.44922 0 3.51562 0L3.51562 0L3.51562 0L3.51562 0Z" transform="translate(5.859375 15.3125)" id="Shape#22" fill="#005A62" fill-rule="evenodd" stroke="none" />
                                    <path d="M2.34375 0C1.05469 0 0 1.05469 0 2.34375C0 3.63282 1.05469 4.6875 2.34375 4.6875C3.63282 4.6875 4.68751 3.63282 4.68751 2.34375C4.68751 1.05469 3.63282 0 2.34375 0L2.34375 0L2.34375 0L2.34375 0Z" transform="translate(7.03125 10.625)" id="Shape#23" fill="#005A62" fill-rule="evenodd" stroke="none" />
                                    <path d="M2.34375 2.34375C2.34375 3.63282 1.28907 4.6875 0 4.6875L0 0C1.28907 0 2.34375 1.05469 2.34375 2.34375L2.34375 2.34375L2.34375 2.34375L2.34375 2.34375Z" transform="translate(9.375 10.625)" id="Shape#24" fill="#00C7D9" fill-rule="evenodd" stroke="none" />
                                    <path d="M3.51562 3.51563L3.51562 4.10156C3.51562 4.42963 3.2579 4.6875 2.92969 4.6875L0 4.6875L0 0C1.93359 0 3.51562 1.58203 3.51562 3.51563L3.51562 3.51563L3.51562 3.51563L3.51562 3.51563Z" transform="translate(9.375 15.3125)" id="Shape#25" fill="#00C7D9" fill-rule="evenodd" stroke="none" />
                                  </g>
                                </g>
                              </g>
                            </g>
                          </g>
                        </g>
                      </g>
                    </g>
                  </g>
                </g>
              </g>
            </g>
          </g>
        </g>
      </g>
    </g>
  </g>
</svg>