<?xml version="1.0" encoding="utf-8"?>
<svg width="35px" height="35px" viewbox="0 0 35 35" version="1.1" xmlns:xlink="http://www.w3.org/1999/xlink" xmlns="http://www.w3.org/2000/svg">
  <defs>
    <path d="M0 0L35 0L35 35L0 35L0 0Z" id="path_1" />
    <clipPath id="mask_1">
      <use xlink:href="#path_1" />
    </clipPath>
  </defs>
  <g id="Group-2-Mask">
    <path d="M0 0L35 0L35 35L0 35L0 0Z" id="Mask" fill="none" fill-rule="evenodd" stroke="none" />
    <g clip-path="url(#mask_1)">
      <g id="Group-2" transform="translate(8 0)">
        <path d="M0 0L0 6.61211L1.484 7.35426C1.50104 7.36324 3.35254 8.27149 5.12696 8.27149C6.90131 8.27149 8.75289 7.36324 8.77092 7.3532C8.86299 7.30815 11.063 6.22072 13.3301 6.22072C15.5971 6.22072 17.7971 7.30815 17.8902 7.35426L18.457 7.63753L18.457 0L0 0L0 0Z" id="Shape" fill="#B2B70B" fill-rule="evenodd" stroke="none" />
        <path d="M13.3301 0C11.5557 0 9.70413 0.908249 9.6861 0.918292C9.59403 0.963336 7.39405 2.05077 5.12696 2.05077C2.85988 2.05077 0.659904 0.963336 0.566769 0.917227L0 0.633805L0 5.12697C0 8.73684 2.67864 11.7329 6.15231 12.2316L6.15231 14.3555L8.20308 14.3555L8.20308 16.4063L6.15231 16.4063L6.15231 22.5586L8.20308 22.5586L8.20308 26.7285L10.2539 26.7285L10.2539 22.5586L12.3047 22.5586L12.3047 16.4063L10.2539 16.4063L10.2539 14.3555L12.3047 14.3555L12.3047 12.2316C15.7784 11.7329 18.457 8.73684 18.457 5.12697L18.457 1.659L16.973 0.917227C16.956 0.908249 15.1045 0 13.3301 0L13.3301 0Z" transform="translate(0 8.271484)" id="Shape" fill="#B2B70B" fill-rule="evenodd" stroke="none" />
      </g>
    </g>
  </g>
</svg>