<?xml version="1.0" encoding="utf-8"?>
<svg width="35px" height="35px" viewbox="0 0 35 35" version="1.1" xmlns:xlink="http://www.w3.org/1999/xlink" xmlns="http://www.w3.org/2000/svg">
  <defs>
    <path d="M0 0L35 0L35 35L0 35L0 0Z" id="path_1" />
    <clipPath id="mask_1">
      <use xlink:href="#path_1" />
    </clipPath>
  </defs>
  <g id="Shape-Mask">
    <path d="M0 0L35 0L35 35L0 35L0 0Z" id="Mask" fill="none" fill-rule="evenodd" stroke="none" />
    <g clip-path="url(#mask_1)">
      <path d="M20.3989 15.2052L20.3989 13.9385C20.3989 12.495 19.2572 11.3168 17.8539 11.3168C17.3657 11.3168 16.9166 11.4657 16.529 11.7077L16.529 6.47351C16.529 5.03113 15.4021 3.85608 14.0141 3.85608C13.5531 3.85608 13.1211 3.99316 12.748 4.22452L12.748 2.62414C12.748 1.17958 11.6064 0 10.2026 0C8.90135 0 7.83567 1.0142 7.68721 2.31563C7.30206 2.07828 6.85764 1.93026 6.37704 1.93026C4.97462 1.93026 3.83296 3.10423 3.83296 4.55265L3.83296 6.04556C3.45153 5.812 3.01643 5.6704 2.54415 5.6704C1.14166 5.6704 0 6.84575 0 8.29214L0 13.2129L0 20.0003L0 21.5517C0 25.7461 2.60927 28.9402 6.64807 30.1124C6.49429 30.5648 6.396 30.9748 6.396 31.297C6.396 33.3421 8.05318 35 10.1007 35C12.1482 35 13.8036 33.3421 13.8036 31.297C13.8036 30.9893 13.7143 30.5965 13.5676 30.1685C17.7168 29.0454 20.408 25.8156 20.408 21.5541L20.408 15.26L20.3989 15.2052L20.3989 15.2052ZM13.104 28.9966C12.0319 26.6475 10.1025 23.8055 10.1025 23.8055C10.1025 23.8055 8.20275 26.6038 7.12416 28.9431C5.29781 28.4306 3.80527 27.4623 2.77998 26.1479L10.2394 23.006C10.5572 22.8714 10.7054 22.5056 10.5731 22.1882C10.4411 21.8713 10.0749 21.7226 9.75523 21.8541L2.10105 25.0792C1.55629 24.0398 1.25134 22.8545 1.25134 21.5543L1.25134 20.0025L1.25134 13.2163L1.25134 8.29431C1.25134 7.53874 1.83198 6.92354 2.54665 6.92354C3.24855 6.92354 3.81533 7.51847 3.83407 8.25311L3.83407 14.5042L3.84143 14.5389L3.84143 16.0165C3.84143 16.3587 4.12268 16.6413 4.46597 16.6413C4.81233 16.6413 5.09028 16.3587 5.09028 16.0165L5.09028 8.2919L5.08292 8.21454L5.08292 4.54994C5.08292 3.7943 5.66691 3.1767 6.38063 3.1767C7.06649 3.1767 7.6119 3.74683 7.65828 4.45924L7.65828 14.7605L7.67629 14.8441L7.67629 15.8469C7.67629 16.1906 7.95739 16.4715 8.30083 16.4715C8.64522 16.4715 8.92521 16.1908 8.92521 15.8469L8.92521 4.54746L8.90757 4.37006L8.90757 2.61808C8.90757 1.8636 9.48799 1.24286 10.2028 1.24286C10.9172 1.24286 11.4992 1.86003 11.4992 2.61808L11.4992 6.4673L11.4992 13.4829L11.4992 15.9539C11.4992 16.3002 11.7785 16.5784 12.1237 16.5784C12.4677 16.5784 12.7483 16.3002 12.7483 15.9539L12.7483 13.4829L12.7483 6.4673C12.7483 5.71297 13.3156 5.09711 14.0143 5.09711C14.7146 5.09711 15.2808 5.71188 15.2808 6.4673L15.2808 18.1782C15.2808 18.5207 15.561 18.8027 15.9051 18.8027C16.2488 18.8027 16.5295 18.5207 16.5295 18.1782L16.5295 17.739L16.5567 17.6001L16.5567 13.936C16.5567 13.1804 17.1369 12.5632 17.8517 12.5632C18.5643 12.5632 19.1483 13.1779 19.1483 13.936L19.1483 17.4156L19.1596 17.4729L19.1596 21.5517C19.161 25.2475 16.7777 28.0427 13.104 28.9966L13.104 28.9966Z" transform="translate(7 0)" id="Shape" fill="#5791E9" fill-rule="evenodd" stroke="none" />
    </g>
  </g>
</svg>