<?xml version="1.0" encoding="utf-8"?>
<svg width="36px" height="36px" viewbox="0 0 36 36" version="1.1" xmlns:xlink="http://www.w3.org/1999/xlink" xmlns="http://www.w3.org/2000/svg">
  <defs>
    <path d="M0 17.5C0 7.83502 7.83502 0 17.5 0C27.165 0 35 7.83502 35 17.5C35 27.165 27.165 35 17.5 35C7.83502 35 0 27.165 0 17.5Z" id="path_1" />
    <clipPath id="mask_1">
      <use xlink:href="#path_1" />
    </clipPath>
  </defs>
  <g id="physician_icon-Mask" transform="translate(0.5 0.5)">
    <path d="M0 17.5C0 7.83502 7.83502 0 17.5 0C27.165 0 35 7.83502 35 17.5C35 27.165 27.165 35 17.5 35C7.83502 35 0 27.165 0 17.5Z" id="Mask" fill="#FFFFFF" fill-rule="evenodd" stroke="#B4B4B4" stroke-width="1" stroke-dasharray="2 2" />
    <g clip-path="url(#mask_1)">
      <g id="physician_icon" transform="translate(10 7)">
        <g id="Insurance-5">
          <g id="doctor">
            <g id="Mask-group">
              <g id="Mask-group">
                <g id="Group">
                  <g id="Group">
                    <g id="Group#1">
                      <g id="Group#2" transform="translate(0.3864746 0.38641357)">
                        <path d="M11.2577 0.314915C9.17285 0.0171163 9.84171 0.112675 9.70495 0.0931221C9.58631 0.0761221 9.47273 0.0448223 9.36605 0L4.54621 0C4.43956 0.0448223 4.32594 0.0761221 4.2073 0.0931221C4.07204 0.112442 4.73941 0.0171163 2.65453 0.314915C1.13114 0.532458 0 1.83655 0 3.37481L0 6.56724L13.9122 6.56724L13.9122 3.37481C13.9122 1.83655 12.7811 0.532458 11.2577 0.314915L11.2577 0.314915L11.2577 0.314915L11.2577 0.314915Z" transform="translate(0 12.443579)" id="Shape" fill="#FFFFFF" fill-rule="evenodd" stroke="none" />
                        <path d="M4.63741 0C2.07641 0 0 2.07612 0 4.63679L0.0672429 6.18238L9.2076 6.18238L9.27479 4.63679C9.27479 2.07612 7.19842 0 4.63741 0L4.63741 0L4.63741 0L4.63741 0Z" transform="translate(2.318708 0)" id="Shape#1" fill="#C1B0B5" fill-rule="evenodd" stroke="none" />
                        <path d="M9.97816 3.14065L9.98053 3.09119C9.16351 3.08771 8.50194 2.42388 8.50194 1.60626L8.50194 1.5456L7.1393 1.5456C6.07965 1.5456 5.11121 0.947453 4.63741 0C4.63741 0.853552 3.94528 1.5456 3.09161 1.5456L2.31871 1.5456L2.31871 1.60626C2.31871 2.42388 1.6571 3.08771 0.840143 3.09119L0.842462 3.14065C0.357467 3.27898 0 3.72102 0 4.25039C0 4.89064 0.519003 5.40958 1.15936 5.40958L1.57015 5.40958C2.12123 6.52125 2.92351 7.51352 3.8649 8.05834L3.86451 8.05874C3.86451 8.63563 3.51323 9.14027 3.0004 9.35243L5.41032 12.3648L7.82023 9.35243C7.30741 9.14027 6.95612 8.63563 6.95612 8.05874L6.95574 8.05834C7.89713 7.51352 8.69941 6.52125 9.25049 5.40958L9.66126 5.40958C10.3016 5.40958 10.8207 4.89064 10.8207 4.25038C10.8207 3.72102 10.4632 3.27898 9.97816 3.14065L9.97816 3.14065L9.97816 3.14065L9.97816 3.14065Z" transform="translate(1.5458053 3.0911899)" id="Shape#2" fill="#FFFFFF" fill-rule="evenodd" stroke="none" />
                        <path d="M0 0.772798C0 0.345993 0.34604 0 0.772903 0C1.19976 0 1.54581 0.345993 1.54581 0.772798C1.54581 1.1996 1.19976 1.5456 0.772903 1.5456C0.34604 1.5456 0 1.1996 0 0.772798L0 0.772798L0 0.772798Z" transform="translate(10.047735 15.919628)" id="Circle" fill="#F3EFF0" fill-rule="evenodd" stroke="none" />
                      </g>
                      <g id="Group#3">
                        <path d="M0 0.494591C0 0.221436 0.221466 0 0.494658 0C0.767849 0 0.989315 0.221436 0.989315 0.494591C0.989315 0.767745 0.767849 0.989181 0.494658 0.989181C0.221466 0.989181 0 0.767745 0 0.494591L0 0.494591L0 0.494591Z" transform="translate(8.501953 6.5687866)" id="Circle#1" fill="#B4B4B4" fill-rule="evenodd" stroke="none" />
                        <path d="M0 0.494591C0 0.221436 0.221466 0 0.494658 0C0.767849 0 0.989316 0.221436 0.989316 0.494591C0.989316 0.767745 0.767849 0.989181 0.494658 0.989181C0.221466 0.989181 0 0.767745 0 0.494591L0 0.494591L0 0.494591Z" transform="translate(5.4102783 6.5687866)" id="Circle#2" fill="#B4B4B4" fill-rule="evenodd" stroke="none" />
                        <path d="M1.47983 1.54568C2.13367 1.54568 2.71945 1.13161 2.93744 0.5153C3.00859 0.314102 2.90317 0.093313 2.70194 0.0221772C2.50083 -0.048881 2.27994 0.0564512 2.20875 0.257649C2.09977 0.56584 1.80681 0.772873 1.47983 0.772873C1.15285 0.772873 0.859882 0.56584 0.750903 0.257649C0.679758 0.0564512 0.45894 -0.048881 0.257714 0.0221772C0.0564891 0.0933138 -0.0489352 0.314102 0.0222111 0.5153C0.240208 1.13161 0.825991 1.54568 1.47983 1.54568L1.47983 1.54568L1.47983 1.54568L1.47983 1.54568Z" transform="translate(5.862671 9.273529)" id="Shape#3" fill="#B4B4B4" fill-rule="evenodd" stroke="none" />
                        <path d="M0 0.494591C0 0.221435 0.221465 0 0.494658 0C0.76785 0 0.989315 0.221435 0.989315 0.494591C0.989315 0.767746 0.76785 0.989182 0.494658 0.989182C0.221465 0.989182 0 0.767746 0 0.494591L0 0.494591L0 0.494591Z" transform="translate(10.820679 19.010803)" id="Circle#3" fill="#B4B4B4" fill-rule="evenodd" stroke="none" />
                        <path d="M12.9461 19.0109C12.7326 19.0109 12.5596 19.1839 12.5596 19.3972C12.5596 19.6106 12.7326 19.7836 12.9461 19.7836L14.2987 19.7836C14.5121 19.7836 14.6852 19.6106 14.6852 19.3972L14.6852 16.2048C14.6852 14.4729 13.4104 13.0069 11.6989 12.7624L10.1463 12.5406C9.72568 12.4802 9.38093 12.1636 9.29545 11.7379C10.1099 11.2022 10.8526 10.341 11.4188 9.27361L11.5936 9.27361C12.4459 9.27361 13.1394 8.58023 13.1394 7.72798C13.1394 7.15031 12.8097 6.62585 12.3084 6.36337C12.3084 6.36337 12.3664 5.02879 12.3664 5.02319C12.3664 2.25336 10.1128 0 7.34258 0C4.57242 0 2.31871 2.25336 2.31871 5.02319C2.31871 5.02879 2.31883 5.03438 2.31905 5.03999L2.37663 6.36337C1.87552 6.62585 1.5458 7.15031 1.5458 7.72798C1.5458 8.58023 2.23926 9.27361 3.09161 9.27361L3.26632 9.27361C3.83258 10.341 4.57528 11.2023 5.38972 11.7379C5.30474 12.1606 4.96146 12.4799 4.53918 12.5406L2.98634 12.7624C1.27192 13.0073 0 14.4757 0 16.2048L0 19.3972C0 19.6106 0.173015 19.7836 0.386451 19.7836L9.46807 19.7836C9.68152 19.7836 9.85453 19.6106 9.85453 19.3972C9.85453 19.1839 9.68152 19.0108 9.46807 19.0108L7.72902 19.0108L7.72902 15.9779L9.88936 13.2775C9.93795 13.2886 9.98694 13.2985 10.0368 13.3056L10.8207 13.4176L10.8207 15.986C10.3709 16.1456 10.0478 16.5751 10.0478 17.0788C10.0478 17.718 10.5679 18.238 11.207 18.238C11.8464 18.238 12.3664 17.718 12.3664 17.0788C12.3664 16.5751 12.0433 16.1456 11.5936 15.986L11.5936 13.5281C12.9157 13.719 13.9122 14.8689 13.9122 16.2048L13.9122 19.0108L12.9461 19.0109L12.9461 19.0109L12.9461 19.0109ZM7.34256 15.2238L5.51062 12.9338C5.7794 12.7202 5.98004 12.4341 6.08933 12.1097C6.50174 12.2789 6.92147 12.3648 7.34256 12.3648C7.76362 12.3648 8.18328 12.2789 8.59571 12.1099C8.70509 12.4345 8.9058 12.7208 9.17442 12.9341L7.34256 15.2238L7.34256 15.2238L7.34256 15.2238ZM7.34252 0.772797C9.68376 0.772797 11.5891 2.675 11.5935 5.01496L11.5456 6.11666C11.1234 5.96318 10.8206 5.55765 10.8206 5.08384L10.8206 5.02319C10.8206 4.80981 10.6475 4.63679 10.4341 4.63679L9.07149 4.63679C8.1523 4.63679 7.32609 4.12639 6.91526 3.3048C6.8351 3.14452 6.65518 3.06044 6.4808 3.10151C6.3064 3.1427 6.18316 3.29837 6.18316 3.47759C6.18316 4.11677 5.66308 4.63679 5.02381 4.63679L4.25091 4.63679C4.03746 4.63679 3.86445 4.80981 3.86445 5.02319L3.86445 5.08384C3.86445 5.55788 3.56132 5.9636 3.13963 6.11689L3.09155 5.01496C3.09595 2.675 5.00124 0.772797 7.34251 0.772797L7.34252 0.772797L7.34252 0.772797L7.34252 0.772797ZM3.84868 8.71555C3.78345 8.58402 3.64928 8.50077 3.50242 8.50077L3.09163 8.50077C2.66545 8.50077 2.31873 8.15409 2.31873 7.72798C2.31873 7.11264 2.90524 6.99398 2.98527 6.94193C3.80575 6.8454 4.46655 6.21495 4.60895 5.40958L5.02389 5.40958C5.76138 5.40958 6.40374 4.99428 6.72929 4.38531C7.32188 5.03133 8.16226 5.40958 9.07156 5.40958L10.0762 5.40958C10.2185 6.21437 10.8787 6.84455 11.6997 6.94172C11.7775 6.9925 12.3665 7.11538 12.3665 7.72798C12.3665 8.15409 12.0197 8.50077 11.5936 8.50077L11.1828 8.50077C11.0359 8.50077 10.9018 8.58402 10.8365 8.71555C10.1564 10.0873 8.87512 11.592 7.3426 11.592C5.81449 11.592 4.53908 10.1082 3.84868 8.71555L3.84868 8.71555L3.84868 8.71555L3.84868 8.71555ZM0.772949 19.0108L0.772949 16.2048C0.772949 14.869 1.76942 13.7191 3.09166 13.5281L3.09166 14.722C2.21074 14.9015 1.54585 15.6821 1.54585 16.6151L1.54585 17.8516C1.54585 18.0651 1.71886 18.238 1.93231 18.238L2.70521 18.238C2.91865 18.238 3.09166 18.0651 3.09166 17.8516C3.09166 17.6383 2.91865 17.4652 2.70521 17.4652L2.31876 17.4652L2.31876 16.6151C2.31876 15.976 2.83884 15.456 3.47812 15.456C4.11738 15.456 4.63746 15.976 4.63746 16.6151L4.63746 17.4652L4.25102 17.4652C4.03757 17.4652 3.86456 17.6383 3.86456 17.8516C3.86456 18.0651 4.03757 18.238 4.25102 18.238L5.02392 18.238C5.23736 18.238 5.41037 18.0651 5.41037 17.8516L5.41037 16.6151C5.41037 15.6822 4.74548 14.9015 3.86456 14.722L3.86456 13.4176L4.64867 13.3056C4.69836 13.2985 4.7473 13.2886 4.79571 13.2775L6.95617 15.9779L6.95617 19.0108L0.772949 19.0108L0.772949 19.0108L0.772949 19.0108ZM11.3153 17.6817C11.0425 17.6817 10.8207 17.4597 10.8207 17.187C10.8207 16.9143 11.0425 16.6925 11.3153 16.6925C11.588 16.6925 11.81 16.9143 11.81 17.187C11.81 17.4597 11.588 17.6817 11.3153 17.6817L11.3153 17.6817L11.3153 17.6817L11.3153 17.6817Z" id="Shape#4" fill="#B4B4B4" fill-rule="evenodd" stroke="none" />
                      </g>
                    </g>
                  </g>
                </g>
              </g>
            </g>
          </g>
        </g>
      </g>
    </g>
  </g>
</svg>