<?xml version="1.0" encoding="utf-8"?>
<svg width="35px" height="35px" viewbox="0 0 35 35" version="1.1" xmlns:xlink="http://www.w3.org/1999/xlink" xmlns="http://www.w3.org/2000/svg">
  <defs>
    <path d="M0 0L35 0L35 35L0 35L0 0Z" id="path_1" />
    <clipPath id="mask_1">
      <use xlink:href="#path_1" />
    </clipPath>
  </defs>
  <g id="Shape-Mask">
    <path d="M0 0L35 0L35 35L0 35L0 0Z" id="Mask" fill="none" fill-rule="evenodd" stroke="none" />
    <g clip-path="url(#mask_1)">
      <path d="M26.75 27.375L18.125 15.625C17.625 15 17.375 14.25 17.375 13.375L17.375 7.5C18.75 7.5 19.875 6.375 19.875 5L19.875 2.5C19.875 1.125 18.75 0 17.375 0L9.875 0C8.5 0 7.375 1.125 7.375 2.5L7.375 5C7.375 6.375 8.5 7.5 9.875 7.5L9.875 13.375C9.875 14.125 9.625 14.875 9.125 15.625L0.499999 27.375C0.249999 28 0 28.75 0 29.625L0 31.25C0 33.375 1.625 35 3.75 35L23.75 35C25.875 35 27.5 33.375 27.5 31.25L27.5 29.625C27.5 28.75 27.25 28 26.75 27.375L26.75 27.375ZM11.25 17C12 15.875 12.5 14.625 12.5 13.375L12.5 7.5C12.5 6.125 11.375 5 10 5L10 2.5L17.5 2.5L17.5 5C16.125 5 15 6.125 15 7.5L15 13.375C15 14.75 15.375 16 16.25 17L22 25L5.5 25L11.25 17L11.25 17Z" transform="translate(3 0)" id="Shape" fill="#DA1BDE" fill-rule="evenodd" stroke="none" />
    </g>
  </g>
</svg>