<?xml version="1.0" encoding="utf-8"?>
<svg width="36px" height="36px" viewbox="0 0 36 36" version="1.1" xmlns:xlink="http://www.w3.org/1999/xlink" xmlns="http://www.w3.org/2000/svg">
  <defs>
    <path d="M0 17.5C0 7.83502 7.83502 0 17.5 0C27.165 0 35 7.83502 35 17.5C35 27.165 27.165 35 17.5 35C7.83502 35 0 27.165 0 17.5Z" id="path_1" />
    <path d="M0 0L20 0L20 20L0 20L0 0L0 0Z" id="path_2" />
    <path d="M0 0L20 0L20 20L0 20L0 0L0 0L0 0L0 0Z" id="path_3" />
    <clipPath id="mask_1">
      <use xlink:href="#path_1" />
    </clipPath>
    <clipPath id="mask_2">
      <use xlink:href="#path_2" />
    </clipPath>
    <clipPath id="mask_3">
      <use xlink:href="#path_3" />
    </clipPath>
  </defs>
  <g id="homecare_icon-Mask" transform="translate(0.5 0.5)">
    <path d="M0 17.5C0 7.83502 7.83502 0 17.5 0C27.165 0 35 7.83502 35 17.5C35 27.165 27.165 35 17.5 35C7.83502 35 0 27.165 0 17.5Z" id="Mask" fill="#FFFFFF" fill-rule="evenodd" stroke="#00C7D9" stroke-width="1" stroke-dasharray="2 2" />
    <g clip-path="url(#mask_1)">
      <g id="homecare_icon" transform="translate(7 7)">
        <g id="Mask-group">
          <path d="M0 0L20 0L20 20L0 20L0 0L0 0Z" id="artboard_1#1" fill="none" fill-rule="evenodd" stroke="none" />
          <g id="Mask-group">
            <path d="M0 0L20 0L20 20L0 20L0 0L0 0Z" id="path_1" fill="none" fill-rule="evenodd" stroke="none" />
            <g clip-path="url(#mask_2)">
              <g id="Group">
                <g id="Pixelbook#1">
                  <path d="M0 0L20 0L20 20L0 20L0 0L0 0Z" id="artboard_1#2" fill="#FFFFFF" fill-rule="evenodd" stroke="none" />
                </g>
              </g>
            </g>
          </g>
        </g>
        <g id="homecare_icon#1">
          <g id="Home-Care">
            <g id="stay-home">
              <path d="M0 0L20 0L20 20L0 20L0 0L0 0L0 0L0 0Z" id="Background" fill="none" fill-rule="evenodd" stroke="none" />
              <g id="Mask-group#1">
                <path d="M0 0L20 0L20 20L0 20L0 0L0 0L0 0L0 0Z" id="path_2#1" fill="none" fill-rule="evenodd" stroke="none" />
                <g id="Mask-group#2">
                  <path d="M0 0L20 0L20 20L0 20L0 0L0 0L0 0L0 0Z" id="path_1#1" fill="none" fill-rule="evenodd" stroke="none" />
                  <g id="Mask-group">
                    <path d="M0 0L20 0L20 20L0 20L0 0L0 0L0 0L0 0Z" id="path_2" fill="none" fill-rule="evenodd" stroke="none" />
                    <g clip-path="url(#mask_3)">
                      <g id="Group" transform="translate(0.625 0.625)">
                        <g id="Group">
                          <g id="Group#1">
                            <g id="quarantine-home-covid19-coronavirus-protect">
                              <path d="M9.06248 0L0 8.75L1.875 8.75L1.875 18.125L15.9375 18.125L15.9375 8.75L18.125 8.75L9.06248 0L9.06248 0L9.06248 0L9.06248 0ZM11.875 10.625C11.875 10.9702 11.5952 11.25 11.25 11.25C10.9048 11.25 10.625 10.9702 10.625 10.625L10.625 16.875L7.5 16.875L7.5 10.625C7.5 10.9702 7.22018 11.25 6.875 11.25C6.52982 11.25 6.25 10.9702 6.25 10.625L6.25 7.5C6.25 6.80965 6.80964 6.25 7.5 6.25L8.12504 6.25C8.2976 6.25 8.43752 6.11009 8.43752 5.9375L8.43752 5.45625C7.94889 5.17655 7.70819 4.60423 7.85 4.05938C7.9614 3.61492 8.31064 3.26928 8.75624 3.1625C9.36056 3.01091 9.98429 3.32747 10.2187 3.90472C10.453 4.48198 10.2264 5.1437 9.68752 5.45625L9.68752 5.9375C9.68752 6.11009 9.82743 6.25 10 6.25L10.625 6.25C11.3153 6.25 11.875 6.80965 11.875 7.5L11.875 10.625L11.875 10.625L11.875 10.625L11.875 10.625Z" transform="translate(0.3125 0.3125)" id="Shape" fill="#00E0F4" fill-rule="evenodd" stroke="none" />
                              <path d="M1.06694 0.183003C0.856065 -0.0278076 0.525643 -0.0602988 0.277748 0.105399C0.0298509 0.271098 -0.0664738 0.588834 0.0476837 0.864296C0.161839 1.13975 0.454683 1.29621 0.747116 1.23797C1.03955 1.17975 1.25013 0.923047 1.25006 0.624877C1.25024 0.459053 1.18431 0.300037 1.06691 0.182978L1.06694 0.183003L1.06694 0.183003L1.06694 0.183003L1.06694 0.183003Z" transform="translate(14.0625 0.9376221)" id="Shape#1" fill="#00E0F4" fill-rule="evenodd" stroke="none" />
                              <path d="M0.625194 4.54131e-07C0.327021 -6.267e-05 0.0703248 0.210513 0.0120962 0.502949C-0.0461342 0.795382 0.110323 1.08822 0.38578 1.20238C0.661238 1.31653 0.97898 1.22021 1.14468 0.972324C1.31037 0.724424 1.27788 0.393999 1.06708 0.183126C0.950008 0.0657322 0.790985 -0.000170299 0.625194 4.54131e-07L0.625194 4.54131e-07L0.625194 4.54131e-07L0.625194 4.54131e-07L0.625194 4.54131e-07Z" transform="translate(16.562256 3.4375)" id="Shape#2" fill="#00E0F4" fill-rule="evenodd" stroke="none" />
                              <path d="M1.06694 0.183003C0.856064 -0.0278078 0.525642 -0.060299 0.277747 0.1054C0.0298505 0.271099 -0.0664738 0.588836 0.0476833 0.864296C0.161841 1.13975 0.454683 1.29621 0.747118 1.23797C1.03955 1.17975 1.25012 0.923048 1.25007 0.624876C1.25024 0.459092 1.18432 0.300069 1.06694 0.183003L1.06694 0.183003L1.06694 0.183003L1.06694 0.183003L1.06694 0.183003Z" transform="translate(3.4375 0.9376221)" id="Shape#3" fill="#00E0F4" fill-rule="evenodd" stroke="none" />
                              <path d="M0.183125 1.06708C0.393999 1.27788 0.724422 1.31037 0.972323 1.14468C1.22021 0.978981 1.31653 0.661237 1.20238 0.385779C1.08823 0.110323 0.79538 -0.0461342 0.502948 0.0120953C0.210512 0.0703249 -6.38054e-05 0.327021 2.27065e-07 0.625197C-0.000171434 0.790982 0.0657302 0.95 0.183124 1.06708L0.183125 1.06708L0.183125 1.06708L0.183125 1.06708L0.183125 1.06708Z" transform="translate(0.9375 3.437317)" id="Shape#4" fill="#00E0F4" fill-rule="evenodd" stroke="none" />
                              <path d="M9.59162 0.087508C9.47048 -0.0291693 9.27888 -0.0291693 9.15784 0.087508L0.0953191 8.83752C0.00378927 8.926 -0.0249227 9.06112 0.0227349 9.1792C0.0703923 9.2972 0.184893 9.37456 0.312194 9.37472L1.87469 9.37472L1.87469 18.4372C1.87469 18.6098 2.01461 18.7497 2.18719 18.7497L16.2497 18.7497C16.4223 18.7497 16.5622 18.6098 16.5622 18.4372L16.5622 9.37472L18.4372 9.37472C18.5645 9.37456 18.679 9.2972 18.7268 9.1792C18.7743 9.06112 18.7456 8.926 18.6541 8.83752L9.59162 0.087508L9.59162 0.087508L9.59162 0.087508L9.59162 0.087508ZM16.2497 8.74968C16.0771 8.74968 15.9372 8.8896 15.9372 9.06224L15.9372 18.1248L2.49969 18.1248L2.49969 9.06224C2.49969 8.8896 2.35978 8.74968 2.18719 8.74968L1.08594 8.74968L9.37473 0.746582L17.6634 8.74968L16.2497 8.74968L16.2497 8.74968L16.2497 8.74968L16.2497 8.74968Z" transform="translate(0.00024414062 0.00030517578)" id="Shape#5" fill="#006C76" fill-rule="evenodd" stroke="none" />
                              <path d="M2.74719 0.0455075C2.18671 0.178861 1.74751 0.613845 1.60875 1.17301C1.45178 1.78625 1.68032 2.43361 2.1875 2.81238L2.1875 3.12488L1.5625 3.12488C0.699982 3.12592 0.00103269 3.82488 0 4.68738L0 7.81238C0 8.33016 0.419732 8.74992 0.937496 8.74992C1.0442 8.74888 1.14992 8.72936 1.25 8.6924L1.25 14.0624C1.25 14.235 1.38991 14.3749 1.5625 14.3749L4.6875 14.3749C4.86009 14.3749 5 14.235 5 14.0624L5 8.6924C5.10008 8.72936 5.2058 8.74888 5.3125 8.74992C5.83028 8.74992 6.25 8.33016 6.25 7.81238L6.25 4.68738C6.24889 3.82472 5.54988 3.12583 4.68735 3.12488L4.0625 3.12488L4.0625 2.81238C4.65702 2.3662 4.85491 1.56295 4.53568 0.891657C4.21647 0.220366 3.4685 -0.133103 2.74719 0.0464458L2.74719 0.0455075L2.74719 0.0455075L2.74719 0.0455075L2.74719 0.0455075ZM3.705 0.826743C3.94859 1.01916 4.08114 1.31968 4.059 1.62931C4.03685 1.93892 3.86288 2.21752 3.59437 2.37331C3.49759 2.42919 3.43801 2.53249 3.43812 2.64425L3.43812 3.12488C3.43812 3.47005 3.71795 3.74988 4.06312 3.74988L4.68812 3.74988C5.20589 3.74988 5.62562 4.16961 5.62562 4.68737L5.62562 7.81237C5.62562 7.98496 5.48571 8.12488 5.31312 8.12488C5.14054 8.12488 5.00062 7.98496 5.00062 7.81237L5.00062 4.99988C5.00062 4.82728 4.86071 4.68737 4.68812 4.68737C4.51554 4.68737 4.37562 4.82728 4.37562 4.99988L4.37562 13.7499L3.4375 13.7499L3.4375 8.74984C3.4375 8.57728 3.29759 8.43736 3.125 8.43736C2.95241 8.43736 2.8125 8.57728 2.8125 8.74984L2.8125 13.7499L1.875 13.7499L1.875 4.99988C1.875 4.82728 1.73509 4.68737 1.5625 4.68737C1.38991 4.68737 1.25 4.82728 1.25 4.99988L1.25 7.81237C1.25 7.98496 1.11009 8.12488 0.937504 8.12488C0.76491 8.12488 0.625 7.98496 0.625 7.81237L0.625 4.68737C0.625 4.16961 1.04472 3.74988 1.5625 3.74988L2.1875 3.74988C2.53268 3.74988 2.8125 3.47005 2.8125 3.12488L2.8125 2.64362C2.81272 2.53176 2.75312 2.42831 2.65625 2.37237C2.29039 2.15993 2.11137 1.72939 2.21875 1.32017C2.30368 0.990628 2.56311 0.734559 2.89375 0.653935C3.17622 0.581557 3.47628 0.645246 3.705 0.826119L3.705 0.826743L3.705 0.826743L3.705 0.826743L3.705 0.826743Z" transform="translate(6.25 3.125122)" id="Shape#6" fill="#006C76" fill-rule="evenodd" stroke="none" />
                              <path d="M0.3125 1.875L0.6825 1.875C0.693009 1.90535 0.705218 1.93508 0.719063 1.96406L0.457815 2.22563C0.37658 2.30409 0.344002 2.42028 0.372601 2.52952C0.401199 2.63879 0.486525 2.72411 0.595781 2.75272C0.70504 2.78131 0.821224 2.74872 0.899689 2.6675L1.16094 2.40594C1.18992 2.41977 1.21965 2.43199 1.25 2.4425L1.25 2.8125C1.25 2.98509 1.38991 3.125 1.56251 3.125C1.73509 3.125 1.875 2.98509 1.875 2.8125L1.875 2.4425C1.90535 2.43199 1.93508 2.41977 1.96406 2.40594L2.22531 2.6675C2.30377 2.74872 2.41996 2.78131 2.52922 2.75272C2.63848 2.72411 2.7238 2.63878 2.7524 2.52952C2.78099 2.42028 2.74842 2.30409 2.66719 2.22563L2.40625 1.96406C2.41999 1.93508 2.43209 1.90534 2.44251 1.875L2.81251 1.875C2.98509 1.875 3.125 1.73509 3.125 1.5625C3.125 1.38991 2.98509 1.25 2.81251 1.25L2.44251 1.25C2.43199 1.21965 2.41978 1.18992 2.40594 1.16094L2.66719 0.899376C2.74842 0.820912 2.781 0.704728 2.7524 0.59547C2.7238 0.486213 2.63848 0.400889 2.52922 0.37229C2.41996 0.343692 2.30377 0.376268 2.22531 0.4575L1.96406 0.719063C1.93508 0.705217 1.90535 0.693012 1.875 0.6825L1.875 0.3125C1.875 0.139912 1.73509 0 1.56251 0C1.38991 0 1.25 0.139912 1.25 0.3125L1.25 0.6825C1.21965 0.693011 1.18992 0.705217 1.16094 0.719062L0.899689 0.4575C0.821224 0.376268 0.70504 0.343692 0.595783 0.37229C0.486525 0.400889 0.401201 0.486213 0.372603 0.59547C0.344002 0.704728 0.37658 0.820912 0.457815 0.899376L0.719063 1.16094C0.705218 1.18992 0.693009 1.21965 0.6825 1.25L0.3125 1.25C0.139912 1.25 0 1.38991 0 1.5625C0 1.73509 0.139912 1.875 0.3125 1.875L0.3125 1.875L0.3125 1.875L0.3125 1.875L0.3125 1.875ZM2.25 1.75C2.25 2.02614 2.02614 2.25 1.75 2.25C1.47386 2.25 1.25 2.02614 1.25 1.75C1.25 1.47386 1.47386 1.25 1.75 1.25C2.02614 1.25 2.25 1.47386 2.25 1.75L2.25 1.75L2.25 1.75L2.25 1.75L2.25 1.75Z" transform="translate(13.125 0)" id="Shape#7" fill="#006C76" fill-rule="evenodd" stroke="none" />
                              <path d="M0.457815 0.899376L0.719063 1.16094C0.705218 1.18992 0.693009 1.21965 0.6825 1.25L0.3125 1.25C0.139912 1.25 0 1.38991 0 1.5625C0 1.73509 0.139912 1.875 0.3125 1.875L0.6825 1.875C0.693009 1.90535 0.705218 1.93508 0.719063 1.96406L0.457815 2.22563C0.37658 2.30409 0.344002 2.42028 0.372601 2.52952C0.401199 2.63879 0.486525 2.72411 0.595781 2.75272C0.70504 2.78131 0.821224 2.74872 0.899689 2.6675L1.16094 2.40594C1.18992 2.41978 1.21965 2.43199 1.25 2.4425L1.25 2.8125C1.25 2.98509 1.38991 3.125 1.56251 3.125C1.73509 3.125 1.875 2.98509 1.875 2.8125L1.875 2.4425C1.90535 2.43199 1.93508 2.41978 1.96406 2.40594L2.22531 2.6675C2.30377 2.74872 2.41996 2.78131 2.52922 2.75272C2.63848 2.72411 2.7238 2.63879 2.7524 2.52952C2.781 2.42028 2.74842 2.30409 2.66719 2.22563L2.40594 1.96406C2.41978 1.93508 2.43199 1.90535 2.44251 1.875L2.81251 1.875C2.98509 1.875 3.125 1.73509 3.125 1.5625C3.125 1.38991 2.98509 1.25 2.81251 1.25L2.44251 1.25C2.43199 1.21965 2.41978 1.18992 2.40594 1.16094L2.66719 0.899376C2.74842 0.820912 2.781 0.704727 2.7524 0.595469C2.7238 0.486211 2.63848 0.400887 2.52922 0.372289C2.41996 0.343689 2.30377 0.376268 2.22531 0.457501L1.96406 0.719063C1.93508 0.705218 1.90535 0.693012 1.875 0.6825L1.875 0.3125C1.875 0.13991 1.73509 0 1.56251 0C1.38991 0 1.25 0.13991 1.25 0.3125L1.25 0.6825C1.21965 0.693012 1.18992 0.705218 1.16094 0.719062L0.899689 0.457501C0.821224 0.37627 0.70504 0.343692 0.595783 0.372291C0.486528 0.400892 0.401204 0.486214 0.372605 0.595472C0.344006 0.704728 0.376581 0.820912 0.457815 0.899376L0.457815 0.899376L0.457815 0.899376L0.457815 0.899376L0.457815 0.899376ZM2.25 1.75C2.25 2.02614 2.02614 2.25 1.75 2.25C1.47386 2.25 1.25 2.02614 1.25 1.75C1.25 1.47386 1.47386 1.25 1.75 1.25C2.02614 1.25 2.25 1.47386 2.25 1.75L2.25 1.75L2.25 1.75L2.25 1.75L2.25 1.75Z" transform="translate(15.625 2.5)" id="Shape#8" fill="#006C76" fill-rule="evenodd" stroke="none" />
                              <path d="M0.3125 1.875L0.6825 1.875C0.693012 1.90535 0.705218 1.93508 0.719062 1.96406L0.457812 2.22563C0.376577 2.30409 0.343996 2.42028 0.372595 2.52952C0.401193 2.63879 0.48652 2.72412 0.595779 2.75272C0.705038 2.78132 0.821224 2.74874 0.899688 2.6675L1.16094 2.40594C1.18992 2.41977 1.21965 2.43199 1.25 2.4425L1.25 2.8125C1.25 2.98509 1.38991 3.125 1.5625 3.125C1.73509 3.125 1.875 2.98509 1.875 2.8125L1.875 2.4425C1.90535 2.43199 1.93508 2.41977 1.96406 2.40594L2.22531 2.6675C2.30377 2.74874 2.41996 2.78132 2.52923 2.75272C2.63848 2.72412 2.72381 2.63879 2.7524 2.52952C2.781 2.42028 2.74842 2.30409 2.66719 2.22563L2.40625 1.96406C2.41999 1.93508 2.43209 1.90534 2.4425 1.875L2.8125 1.875C2.98509 1.875 3.125 1.73509 3.125 1.5625C3.125 1.38991 2.98509 1.25 2.8125 1.25L2.4425 1.25C2.43199 1.21965 2.41978 1.18992 2.40594 1.16094L2.66719 0.899376C2.78561 0.776756 2.78392 0.581851 2.66337 0.461309C2.54284 0.340768 2.34792 0.339072 2.22531 0.4575L1.96406 0.719063C1.93508 0.705217 1.90535 0.693012 1.875 0.6825L1.875 0.3125C1.875 0.139912 1.73509 0 1.5625 0C1.38991 0 1.25 0.139912 1.25 0.3125L1.25 0.6825C1.21965 0.693011 1.18992 0.705217 1.16094 0.719062L0.899688 0.4575C0.777068 0.339072 0.582162 0.340768 0.461622 0.461309C0.34108 0.581851 0.339385 0.776756 0.457813 0.899376L0.719063 1.16094C0.705218 1.18992 0.693012 1.21965 0.6825 1.25L0.3125 1.25C0.13991 1.25 0 1.38991 0 1.5625C0 1.73509 0.13991 1.875 0.3125 1.875L0.3125 1.875L0.3125 1.875L0.3125 1.875L0.3125 1.875ZM2.25 1.75C2.25 2.02614 2.02614 2.25 1.75 2.25C1.47386 2.25 1.25 2.02614 1.25 1.75C1.25 1.47386 1.47386 1.25 1.75 1.25C2.02614 1.25 2.25 1.47386 2.25 1.75L2.25 1.75L2.25 1.75L2.25 1.75L2.25 1.75Z" transform="translate(2.5 0)" id="Shape#9" fill="#006C76" fill-rule="evenodd" stroke="none" />
                              <path d="M0.3125 1.875L0.6825 1.875C0.693011 1.90535 0.705217 1.93508 0.719062 1.96406L0.457812 2.22563C0.376575 2.30409 0.343994 2.42028 0.372592 2.52952C0.40119 2.63879 0.486518 2.72412 0.595777 2.75272C0.705038 2.78132 0.821224 2.74874 0.899688 2.6675L1.16094 2.40594C1.18992 2.41978 1.21965 2.43199 1.25 2.4425L1.25 2.8125C1.25 2.98509 1.38991 3.125 1.5625 3.125C1.73509 3.125 1.875 2.98509 1.875 2.8125L1.875 2.4425C1.90535 2.43199 1.93508 2.41978 1.96406 2.40594L2.22531 2.6675C2.34792 2.78592 2.54284 2.78423 2.66337 2.66369C2.78392 2.54315 2.78561 2.34824 2.66719 2.22563L2.40625 1.96406C2.41999 1.93508 2.43209 1.90534 2.4425 1.875L2.8125 1.875C2.98509 1.875 3.125 1.73509 3.125 1.5625C3.125 1.38991 2.98509 1.25 2.8125 1.25L2.4425 1.25C2.43199 1.21965 2.41977 1.18992 2.40594 1.16094L2.66719 0.899376C2.78562 0.776757 2.78392 0.581849 2.66337 0.461307C2.54284 0.340765 2.34792 0.339072 2.22531 0.457501L1.96406 0.719063C1.93508 0.705218 1.90535 0.693012 1.875 0.6825L1.875 0.3125C1.875 0.13991 1.73509 0 1.5625 0C1.38991 0 1.25 0.13991 1.25 0.3125L1.25 0.6825C1.21965 0.693012 1.18992 0.705218 1.16094 0.719062L0.899688 0.457501C0.821224 0.376265 0.705038 0.343687 0.59578 0.372284C0.486523 0.400882 0.401196 0.486209 0.372597 0.595467C0.343997 0.704727 0.376577 0.820912 0.457812 0.899376L0.719063 1.16094C0.705217 1.18992 0.693012 1.21965 0.6825 1.25L0.3125 1.25C0.139912 1.25 0 1.38991 0 1.5625C0 1.73509 0.139912 1.875 0.3125 1.875L0.3125 1.875L0.3125 1.875L0.3125 1.875L0.3125 1.875ZM2.25 1.75C2.25 2.02614 2.02614 2.25 1.75 2.25C1.47386 2.25 1.25 2.02614 1.25 1.75C1.25 1.47386 1.47386 1.25 1.75 1.25C2.02614 1.25 2.25 1.47386 2.25 1.75L2.25 1.75L2.25 1.75L2.25 1.75L2.25 1.75Z" transform="translate(0 2.5)" id="Shape#10" fill="#006C76" fill-rule="evenodd" stroke="none" />
                            </g>
                          </g>
                        </g>
                      </g>
                    </g>
                  </g>
                </g>
              </g>
            </g>
          </g>
        </g>
      </g>
    </g>
  </g>
</svg>