<?xml version="1.0" encoding="utf-8"?>
<svg width="36px" height="36px" viewbox="0 0 36 36" version="1.1" xmlns:xlink="http://www.w3.org/1999/xlink" xmlns="http://www.w3.org/2000/svg">
  <defs>
    <path d="M0 17.5C0 7.83502 7.83502 0 17.5 0C27.165 0 35 7.83502 35 17.5C35 27.165 27.165 35 17.5 35C7.83502 35 0 27.165 0 17.5Z" id="path_1" />
    <path d="M0 0L20 0L20 20L0 20L0 0L0 0Z" id="path_2" />
    <clipPath id="mask_1">
      <use xlink:href="#path_1" />
    </clipPath>
    <clipPath id="mask_2">
      <use xlink:href="#path_2" />
    </clipPath>
  </defs>
  <g id="clinical_icon-Mask" transform="translate(0.5 0.5)">
    <path d="M0 17.5C0 7.83502 7.83502 0 17.5 0C27.165 0 35 7.83502 35 17.5C35 27.165 27.165 35 17.5 35C7.83502 35 0 27.165 0 17.5Z" id="Mask" fill="#FFFFFF" fill-rule="evenodd" stroke="#00C7D9" stroke-width="1" stroke-dasharray="2 2" />
    <g clip-path="url(#mask_1)">
      <g id="clinical_icon" transform="translate(7 7)">
        <g id="clinical_icon">
          <g id="Mask-group">
            <g id="Mask-group">
              <path d="M0 0L20 0L20 20L0 20L0 0L0 0Z" id="path_1" fill="none" fill-rule="evenodd" stroke="none" />
              <g clip-path="url(#mask_2)">
                <g id="Group">
                  <g id="Pixelbook">
                    <path d="M0 0L20 0L20 20L0 20L0 0L0 0Z" id="artboard_1#1" fill="#FFFFFF" fill-rule="evenodd" stroke="none" />
                  </g>
                </g>
              </g>
            </g>
          </g>
          <g id="clinical_icon#1" transform="translate(0.4000244 0.3999939)">
            <g id="Clinical">
              <g id="hospital">
                <g id="XMLID_412_">
                  <g id="XMLID_1035_">
                    <path d="M18.825 7.95L15.603 7.95L15.603 2.17657C15.603 1.96946 15.4351 1.80157 15.2282 1.80157L14.025 1.80157L14.025 0.375C14.025 0.167888 13.857 0 13.6501 0L5.55 0C5.34289 0 5.175 0.167888 5.175 0.375L5.175 1.80157L3.97189 1.80157C3.76477 1.80157 3.59689 1.96946 3.59689 2.17657L3.59689 7.95L0.375 7.95C0.167888 7.95 0 8.11792 0 8.32504L0 18.825C0 19.0321 0.167888 19.2 0.375 19.2L18.825 19.2C19.0321 19.2 19.2 19.0321 19.2 18.825L19.2 8.32504C19.2 8.11792 19.0321 7.95 18.825 7.95L18.825 7.95L18.825 7.95L18.825 7.95L18.825 7.95ZM0.75 8.70001L3.59689 8.70001L3.59689 18.4501L0.75 18.4501L0.75 8.70001L0.75 8.70001L0.75 8.70001L0.75 8.70001ZM4.34692 2.55157L7.91253 2.55157C8.11965 2.55157 8.28756 2.3837 8.28756 2.17657C8.28756 1.96946 8.11965 1.80157 7.91253 1.80157L5.92504 1.80157L5.92504 0.75L13.2751 0.75L13.2751 1.80157L11.2876 1.80157C11.0804 1.80157 10.9125 1.96946 10.9125 2.17657C10.9125 2.3837 11.0804 2.55157 11.2876 2.55157L14.8532 2.55157L14.8532 18.4501L13.5 18.4501L13.5 13.425C13.5 13.2179 13.3321 13.05 13.125 13.05L6.07503 13.05C5.86792 13.05 5.70004 13.2179 5.70004 13.425L5.70004 18.4501L4.34692 18.4501L4.34692 2.55157L4.34692 2.55157L4.34692 2.55157L4.34692 2.55157ZM6.44995 13.8001L9.22491 13.8001L9.22491 18.4501L6.44995 18.4501L6.44995 13.8001L6.44995 13.8001L6.44995 13.8001L6.44995 13.8001ZM10.1899 18.9201L10.1899 13.8001L12.7499 13.8001L12.7499 18.9201L10.1899 18.9201L10.1899 18.9201L10.1899 18.9201L10.1899 18.9201ZM18.4501 18.4501L15.603 18.4501L15.603 8.70001L18.4501 8.70001L18.4501 18.4501L18.4501 18.4501L18.4501 18.4501L18.4501 18.4501Z" id="XMLID_1107_" fill="#006C76" fill-rule="evenodd" stroke="none" />
                    <path d="M0.375 1.28L1.52502 1.28C1.73212 1.28 1.90001 0.993476 1.90001 0.64C1.90001 0.286528 1.73212 0 1.52502 0L0.375 0C0.167887 0 0 0.286528 0 0.64C0 0.993476 0.167887 1.28 0.375 1.28L0.375 1.28L0.375 1.28L0.375 1.28L0.375 1.28Z" transform="translate(5.699951 11.25)" id="XMLID_1585_" fill="#006C76" fill-rule="evenodd" stroke="none" />
                    <path d="M1.52502 0L0.375 0C0.167887 0 0 0.286528 0 0.64C0 0.993476 0.167887 1.28 0.375 1.28L1.52502 1.28C1.73208 1.28 1.90001 0.993476 1.90001 0.64C1.90001 0.286528 1.73208 0 1.52502 0L1.52502 0L1.52502 0L1.52502 0L1.52502 0Z" transform="translate(8.650024 11.25)" id="XMLID_1586_" fill="#006C76" fill-rule="evenodd" stroke="none" />
                    <path d="M1.52502 0L0.375 0C0.167925 0 0 0.286528 0 0.64C0 0.993476 0.167925 1.28 0.375 1.28L1.52502 1.28C1.73208 1.28 1.90001 0.993476 1.90001 0.64C1.90001 0.286528 1.73208 0 1.52502 0L1.52502 0L1.52502 0L1.52502 0L1.52502 0Z" transform="translate(11.599976 11.25)" id="XMLID_1587_" fill="#006C76" fill-rule="evenodd" stroke="none" />
                    <path d="M0.375 1.28L1.52502 1.28C1.73212 1.28 1.90001 0.993476 1.90001 0.64C1.90001 0.286527 1.73212 0 1.52502 0L0.375 0C0.167887 0 0 0.286527 0 0.64C0 0.993476 0.167887 1.28 0.375 1.28L0.375 1.28L0.375 1.28L0.375 1.28L0.375 1.28Z" transform="translate(5.699951 9.301575)" id="XMLID_1588_" fill="#006C76" fill-rule="evenodd" stroke="none" />
                    <path d="M1.52502 0L0.375 0C0.167887 0 0 0.286529 0 0.64C0 0.993476 0.167887 1.28 0.375 1.28L1.52502 1.28C1.73208 1.28 1.90001 0.993476 1.90001 0.64C1.90001 0.286527 1.73208 0 1.52502 0L1.52502 0L1.52502 0L1.52502 0L1.52502 0Z" transform="translate(8.650024 9.301575)" id="XMLID_1589_" fill="#006C76" fill-rule="evenodd" stroke="none" />
                    <path d="M0 0.64C0 0.993476 0.167925 1.28 0.375 1.28L1.52502 1.28C1.73208 1.28 1.90001 0.993476 1.90001 0.64C1.90001 0.286527 1.73208 0 1.52502 0L0.375 0C0.167925 0 0 0.286527 0 0.64L0 0.64L0 0.64L0 0.64L0 0.64Z" transform="translate(11.599976 9.301575)" id="XMLID_1593_" fill="#006C76" fill-rule="evenodd" stroke="none" />
                    <path d="M0.375 3.52501L1.125 3.52501L1.125 4.27499C1.125 4.48211 1.29289 4.65 1.50001 4.65L3.15 4.65C3.35708 4.65 3.52501 4.48211 3.52501 4.27499L3.52501 3.52501L4.27499 3.52501C4.48208 3.52501 4.65 3.3571 4.65 3.15L4.65 1.49999C4.65 1.29289 4.48208 1.125 4.27499 1.125L3.52501 1.125L3.52501 0.375C3.52501 0.167887 3.35708 0 3.15 0L1.50001 0C1.29289 0 1.125 0.167887 1.125 0.375L1.125 1.125L0.375 1.125C0.167887 1.125 0 1.29289 0 1.49999L0 3.15C0 3.35708 0.167887 3.52501 0.375 3.52501L0.375 3.52501L0.375 3.52501L0.375 3.52501L0.375 3.52501ZM0.75 1.87499L1.50001 1.87499C1.70711 1.87499 1.87499 1.70711 1.87499 1.49999L1.87499 0.75L2.775 0.75L2.775 1.49999C2.775 1.70711 2.94292 1.87499 3.15 1.87499L3.90001 1.87499L3.90001 2.775L3.15 2.775C2.94292 2.775 2.775 2.94289 2.775 3.15L2.775 3.89999L1.87499 3.89999L1.87499 3.15C1.87499 2.94289 1.70711 2.775 1.50001 2.775L0.75 2.775L0.75 1.87499L0.75 1.87499L0.75 1.87499L0.75 1.87499Z" transform="translate(7.2750244 3.6015625)" id="XMLID_1597_" fill="#006C76" fill-rule="evenodd" stroke="none" />
                    <path d="M0.64 1.28C0.80832 1.28 0.973438 1.21152 1.09242 1.09248C1.21146 0.973438 1.28 0.80832 1.28 0.64C1.28 0.471679 1.21152 0.30656 1.09242 0.187521C0.973438 0.068479 0.80832 0 0.64 0C0.471679 0 0.30656 0.068479 0.187518 0.187521C0.0684793 0.30656 0 0.471679 0 0.64C0 0.80832 0.0684811 0.973438 0.187518 1.09248C0.306558 1.21152 0.471679 1.28 0.64 1.28L0.64 1.28L0.64 1.28L0.64 1.28L0.64 1.28Z" transform="translate(9.224976 1.8014832)" id="XMLID_1598_" fill="#006C76" fill-rule="evenodd" stroke="none" />
                  </g>
                </g>
              </g>
            </g>
          </g>
        </g>
      </g>
    </g>
  </g>
</svg>