<?xml version="1.0" encoding="utf-8"?>
<svg width="36px" height="36px" viewbox="0 0 36 36" version="1.1" xmlns:xlink="http://www.w3.org/1999/xlink" xmlns="http://www.w3.org/2000/svg">
  <defs>
    <path d="M0 17.5C0 7.83502 7.83502 0 17.5 0C27.165 0 35 7.83502 35 17.5C35 27.165 27.165 35 17.5 35C7.83502 35 0 27.165 0 17.5Z" id="path_1" />
    <clipPath id="mask_1">
      <use xlink:href="#path_1" />
    </clipPath>
  </defs>
  <g id="dignosis_icon-Mask" transform="translate(0.5 0.5)">
    <path d="M0 17.5C0 7.83502 7.83502 0 17.5 0C27.165 0 35 7.83502 35 17.5C35 27.165 27.165 35 17.5 35C7.83502 35 0 27.165 0 17.5Z" id="Mask" fill="#FFFFFF" fill-rule="evenodd" stroke="#00C7D9" stroke-width="1" stroke-dasharray="2 2" />
    <g clip-path="url(#mask_1)">
      <g id="dignosis_icon" transform="translate(9 7)">
        <g id="Mask-group">
          <g id="Pixelbook">
            <g id="dignosis_icon">
              <g id="dignosis_icon#1">
                <g id="Insurance-6">
                  <g id="medical-file">
                    <g id="Mask-group#1">
                      <g id="Mask-group#2">
                        <g id="Mask-group">
                          <g id="Group">
                            <g id="Group">
                              <g id="Group#1">
                                <g id="Group#2">
                                  <g id="Group#3" transform="translate(0.2929688 0.29296878)">
                                    <g id="Group#4" transform="translate(13.867228 2.6036325)">
                                      <path d="M1.35547 3.64637L0 3.64637L0 0L1.35547 0C1.59277 0 1.78516 0.192383 1.78516 0.429688L1.78516 3.21668C1.78516 3.45399 1.59277 3.64637 1.35547 3.64637L1.35547 3.64637L1.35547 3.64637L1.35547 3.64637L1.35547 3.64637Z" id="Shape" fill="#DD636E" fill-rule="evenodd" stroke="none" />
                                      <path d="M1.17187 0L0 0C0.237305 0 0.429687 0.192383 0.429687 0.429688L0.429687 3.21668C0.429687 3.45399 0.237305 3.64637 0 3.64637L1.17187 3.64637C1.40919 3.64637 1.60156 3.45399 1.60156 3.21668L1.60156 0.429688C1.60156 0.192383 1.40919 0 1.17187 0L1.17187 0L1.17187 0L1.17187 0L1.17187 0Z" transform="translate(0.18359374 0)" id="Shape#1" fill="#DA4A54" fill-rule="evenodd" stroke="none" />
                                      <path d="M1.35547 3.64636L0 3.64636L0 0L1.35547 0C1.59277 0 1.78516 0.192383 1.78516 0.429687L1.78516 3.21668C1.78516 3.45403 1.59277 3.64636 1.35547 3.64636L1.35547 3.64636L1.35547 3.64636L1.35547 3.64636L1.35547 3.64636Z" transform="translate(0 5.280195)" id="Shape#2" fill="#FFE07D" fill-rule="evenodd" stroke="none" />
                                      <path d="M1.17187 0L0 0C0.237305 0 0.429687 0.192383 0.429687 0.429688L0.429687 3.21667C0.429687 3.45399 0.237305 3.64638 0 3.64638L1.17187 3.64638C1.40919 3.64638 1.60156 3.45399 1.60156 3.21667L1.60156 0.429688C1.60156 0.192343 1.40919 0 1.17187 0L1.17187 0L1.17187 0L1.17187 0L1.17187 0Z" transform="translate(0.18359374 5.280234)" id="Shape#3" fill="#FFD064" fill-rule="evenodd" stroke="none" />
                                      <path d="M1.35547 3.64636L0 3.64636L0 0L1.35547 0C1.59277 0 1.78516 0.192382 1.78516 0.429688L1.78516 3.21667C1.78516 3.45399 1.59277 3.64636 1.35547 3.64636L1.35547 3.64636L1.35547 3.64636L1.35547 3.64636L1.35547 3.64636Z" transform="translate(0 10.560431)" id="Shape#4" fill="#BED8FB" fill-rule="evenodd" stroke="none" />
                                      <path d="M1.17187 0L0 0C0.237305 0 0.429687 0.192382 0.429687 0.429688L0.429687 3.21667C0.429687 3.45399 0.237305 3.64636 0 3.64636L1.17187 3.64636C1.40919 3.64636 1.60156 3.45399 1.60156 3.21667L1.60156 0.429688C1.60156 0.192382 1.40919 0 1.17187 0L1.17187 0L1.17187 0L1.17187 0L1.17187 0Z" transform="translate(0.18359374 10.560431)" id="Shape#5" fill="#9DC6FB" fill-rule="evenodd" stroke="none" />
                                    </g>
                                    <g id="Group#5">
                                      <path d="M12.6953 19.414L1.17187 19.414C0.524648 19.414 0 18.8894 0 18.2421L0 1.17187C0 0.524648 0.524648 0 1.17187 0L12.6953 0C13.3426 0 13.8672 0.524648 13.8672 1.17187L13.8672 18.2421C13.8672 18.8894 13.3426 19.414 12.6953 19.414L12.6953 19.414L12.6953 19.414L12.6953 19.414L12.6953 19.414Z" id="Shape#6" fill="#F7F6F7" fill-rule="evenodd" stroke="none" />
                                      <path d="M1.17187 0L0 0C0.647227 0 1.17187 0.524687 1.17187 1.17187L1.17187 18.2421C1.17187 18.8893 0.647227 19.414 0 19.414L1.17187 19.414C1.8191 19.414 2.34375 18.8893 2.34375 18.2421L2.34375 1.17187C2.34375 0.524687 1.8191 0 1.17187 0L1.17187 0L1.17187 0L1.17187 0L1.17187 0Z" transform="translate(11.523437 0)" id="Shape#7" fill="#E2DFE3" fill-rule="evenodd" stroke="none" />
                                      <path d="M1.17187 0C0.524648 0 0 0.524687 0 1.17187L0 18.2421C0 18.8893 0.524648 19.414 1.17187 19.414L3.65328 19.414L3.65328 0L1.17187 0L1.17187 0L1.17187 0L1.17187 0Z" id="Shape#8" fill="#B3E59F" fill-rule="evenodd" stroke="none" />
                                    </g>
                                    <path d="M4.33593 1.69922L2.98828 1.69922C2.92356 1.69922 2.87109 1.64676 2.87109 1.58203L2.87109 0.234375C2.87109 0.104921 2.76617 0 2.63672 0L1.9336 0C1.80414 0 1.69922 0.104921 1.69922 0.234375L1.69922 1.58203C1.69922 1.64676 1.64676 1.69922 1.58203 1.69922L0.234375 1.69922C0.104921 1.69922 0 1.80414 0 1.9336L0 2.63672C0 2.76617 0.104921 2.87109 0.234375 2.87109L1.58203 2.87109C1.64676 2.87109 1.69922 2.92356 1.69922 2.98828L1.69922 4.33593C1.69922 4.46538 1.80414 4.57031 1.9336 4.57031L2.63672 4.57031C2.76617 4.57031 2.87109 4.46538 2.87109 4.33593L2.87109 2.98828C2.87109 2.92356 2.92356 2.87109 2.98828 2.87109L4.33593 2.87109C4.46538 2.87109 4.57031 2.76617 4.57031 2.63672L4.57031 1.9336C4.57031 1.80414 4.46535 1.69922 4.33593 1.69922L4.33593 1.69922L4.33593 1.69922L4.33593 1.69922L4.33593 1.69922Z" transform="translate(6.4750776 3.508751)" id="Shape#9" fill="#DD636E" fill-rule="evenodd" stroke="none" />
                                    <path d="M6.46395 4.6875L0.234375 4.6875C0.104921 4.6875 0 4.58257 0 4.45312L0 0.234375C0 0.104921 0.104921 0 0.234375 0L6.46395 0C6.5934 0 6.69831 0.104921 6.69831 0.234375L6.69831 4.45312C6.69831 4.58257 6.5934 4.6875 6.46395 4.6875L6.46395 4.6875L6.46395 4.6875L6.46395 4.6875L6.46395 4.6875Z" transform="translate(5.4110556 11.414882)" id="Shape#10" fill="#B3E59F" fill-rule="evenodd" stroke="none" />
                                  </g>
                                  <path d="M11.2306 12.5868L6.87598 12.5868C6.71415 12.5868 6.58301 12.8851 6.58301 13.2534C6.58301 13.6216 6.71415 13.9201 6.87598 13.9201L11.2306 13.9201C11.3923 13.9201 11.5235 13.6216 11.5235 13.2534C11.5235 12.8851 11.3923 12.5868 11.2306 12.5868L11.2306 12.5868L11.2306 12.5868L11.2306 12.5868L11.2306 12.5868ZM11.2306 14.9305L6.87598 14.9305C6.71415 14.9305 6.58301 15.2289 6.58301 15.5972C6.58301 15.9656 6.71415 16.2638 6.87598 16.2638L11.2306 16.2638C11.3923 16.2638 11.5235 15.9656 11.5235 15.5972C11.5235 15.2289 11.3923 14.9305 11.2306 14.9305L11.2306 14.9305L11.2306 14.9305L11.2306 14.9305L11.2306 14.9305ZM7.00228 6.96583L8.17416 6.96583L8.17416 8.13769C8.17416 8.42847 8.41072 8.665 8.70152 8.665L9.40459 8.665C9.6954 8.665 9.93195 8.42847 9.93195 8.13769L9.93195 6.96583L11.1038 6.96583C11.3946 6.96583 11.6312 6.72926 11.6312 6.43848L11.6312 5.73534C11.6312 5.44457 11.3946 5.20802 11.1038 5.20802L9.93195 5.20802L9.93195 4.03613C9.93195 3.74535 9.6954 3.50878 9.40459 3.50878L8.70152 3.50878C8.41072 3.50878 8.17416 3.74535 8.17416 4.03613L8.17416 5.20802L7.00228 5.20802C6.71149 5.20802 6.47493 5.44457 6.47493 5.73534L6.47493 6.43848C6.47493 6.72926 6.71145 6.96583 7.00228 6.96583L7.00228 6.96583L7.00228 6.96583L7.00228 6.96583L7.00228 6.96583ZM7.06087 5.79394L8.34994 5.79394C8.57608 5.79394 8.76007 5.60996 8.76007 5.38378L8.76007 4.09472L9.34605 4.09472L9.34605 5.38378C9.34605 5.60996 9.53003 5.79394 9.75616 5.79394L11.0453 5.79394L11.0453 6.37988L9.75616 6.37988C9.53003 6.37988 9.34605 6.56386 9.34605 6.79005L9.34605 8.07911L8.76007 8.07911L8.76007 6.79005C8.76007 6.56386 8.57608 6.37988 8.34994 6.37988L7.06087 6.37988L7.06087 5.79394L7.06087 5.79394L7.06087 5.79394L7.06087 5.79394ZM15.5155 6.83593C15.9142 6.83593 16.2382 6.51176 16.2382 6.11328L16.2382 3.32629C16.2382 2.92782 15.9142 2.60362 15.5155 2.60362L14.453 2.60362L14.453 1.46484C14.453 0.657109 13.796 0 12.9882 0L1.46484 0C0.657109 0 0 0.657109 0 1.46484L0 4.34684C0 4.50863 0.131133 4.63981 0.292969 4.63981C0.454804 4.63981 0.585939 4.50863 0.585939 4.34684L0.585939 1.46484C0.585939 0.980199 0.980232 0.585938 1.46484 0.585938L3.65324 0.585938L3.65324 19.414L1.46484 19.414C0.980232 19.414 0.585939 19.0198 0.585939 18.5352L0.585939 5.71403C0.585939 5.55223 0.454804 5.42105 0.292969 5.42105C0.131133 5.42105 0 5.55223 0 5.71403L0 18.5352C0 19.3429 0.657109 20 1.46484 20L12.9882 20C13.796 20 14.453 19.3429 14.453 18.5352L14.453 17.3964L15.5155 17.3964C15.9142 17.3964 16.2382 17.0722 16.2382 16.6737L16.2382 13.8867C16.2382 13.4883 15.9142 13.164 15.5155 13.164L14.453 13.164L14.453 12.1161L15.5155 12.1161C15.9142 12.1161 16.2382 11.7919 16.2382 11.3935L16.2382 8.60655C16.2382 8.20805 15.9142 7.88387 15.5155 7.88387L14.453 7.88387L14.453 6.83593L15.5155 6.83593L15.5155 6.83593L15.5155 6.83593L15.5155 6.83593ZM14.453 3.18953L15.6344 3.18953C15.7182 3.18953 15.7864 3.25086 15.7864 3.32625L15.7864 6.11324C15.7864 6.18864 15.7182 6.24996 15.6344 6.24996L14.453 6.24996L14.453 3.18953L14.453 3.18953L14.453 3.18953L14.453 3.18953ZM13.8672 18.5352C13.8672 19.0197 13.4729 19.414 12.9883 19.414L4.23925 19.414L4.23925 0.585938L12.9883 0.585938C13.4729 0.585938 13.8672 0.980199 13.8672 1.46484L13.8672 18.5352L13.8672 18.5352L13.8672 18.5352L13.8672 18.5352ZM15.6344 13.75C15.7182 13.75 15.7864 13.8114 15.7864 13.8867L15.7864 16.6737C15.7864 16.7491 15.7182 16.8104 15.6344 16.8104L14.453 16.8104L14.453 13.75L15.6344 13.75L15.6344 13.75L15.6344 13.75L15.6344 13.75ZM15.6344 8.46981C15.7182 8.46981 15.7864 8.53113 15.7864 8.60655L15.7864 11.3935C15.7864 11.4689 15.7182 11.5303 15.6344 11.5303L14.453 11.5303L14.453 8.46981L15.6344 8.46981L15.6344 8.46981L15.6344 8.46981L15.6344 8.46981ZM12.168 11.4149L11.2477 11.4149C11.0859 11.4149 10.9549 11.546 10.9549 11.7078C10.9549 11.8697 11.0859 12.0008 11.2477 12.0008L12.1095 12.0008L12.1095 16.1024L5.99706 16.1024L5.99706 12.0008L9.88058 12.0008C10.0425 12.0008 10.1736 11.8697 10.1736 11.7078C10.1736 11.546 10.0425 11.4149 9.88058 11.4149L5.93848 11.4149C5.6477 11.4149 5.41113 11.6515 5.41113 11.9422L5.41113 16.1609C5.41113 16.4518 5.6477 16.6883 5.93848 16.6883L12.168 16.6883C12.4589 16.6883 12.6954 16.4518 12.6954 16.1609L12.6954 11.9422C12.6954 11.6515 12.4589 11.4149 12.168 11.4149L12.168 11.4149L12.168 11.4149L12.168 11.4149L12.168 11.4149ZM11.2306 13.7587L6.87598 13.7587C6.71415 13.7587 6.58301 14.0569 6.58301 14.4253C6.58301 14.7938 6.71415 15.092 6.87598 15.092L11.2306 15.092C11.3923 15.092 11.5235 14.7938 11.5235 14.4253C11.5235 14.0569 11.3923 13.7587 11.2306 13.7587L11.2306 13.7587L11.2306 13.7587L11.2306 13.7587L11.2306 13.7587Z" id="Shape#11" fill="#006C76" fill-rule="evenodd" stroke="none" />
                                </g>
                              </g>
                            </g>
                          </g>
                        </g>
                      </g>
                    </g>
                  </g>
                </g>
              </g>
            </g>
          </g>
        </g>
      </g>
    </g>
  </g>
</svg>