<?xml version="1.0" encoding="utf-8"?>
<svg width="25px" height="25px" viewbox="0 0 25 25" version="1.1" xmlns:xlink="http://www.w3.org/1999/xlink" xmlns="http://www.w3.org/2000/svg">
  <defs>
    <path d="M0 0L20 0L20 20L0 20L0 0Z" id="path_1" />
    <rect width="25" height="25" id="artboard_1" />
    <clipPath id="clip_1">
      <use xlink:href="#artboard_1" clip-rule="evenodd" />
    </clipPath>
    <clipPath id="mask_1">
      <use xlink:href="#path_1" />
    </clipPath>
  </defs>
  <g id="Pixelbook" clip-path="url(#clip_1)">
    <use xlink:href="#artboard_1" stroke="none" fill="#FFFFFF" />
    <g id="id-card" transform="translate(2 2)">
      <path d="M0 0L20 0L20 20L0 20L0 0Z" id="Background" fill="none" fill-rule="evenodd" stroke="none" />
      <g clip-path="url(#mask_1)">
        <path d="M17.7083 0L2.29172 0C1.02753 0 0 1.02753 0 2.29172L0 12.7083C0 13.9725 1.02753 15 2.29172 15L17.7083 15C18.9725 15 20 13.9725 20 12.7083L20 2.29172C20 1.02753 18.9725 0 17.7083 0L17.7083 0ZM6.25 3.33328C7.39838 3.33328 8.33328 4.26834 8.33328 5.41672C8.33328 6.56494 7.39838 7.5 6.25 7.5C5.10162 7.5 4.16672 6.56494 4.16672 5.41672C4.16672 4.26834 5.10162 3.33328 6.25 3.33328L6.25 3.33328ZM10 11.0417C10 11.3867 9.72 11.6667 9.375 11.6667L3.125 11.6667C2.78 11.6667 2.5 11.3867 2.5 11.0417L2.5 10.625C2.5 9.36081 3.52753 8.33328 4.79172 8.33328L7.70828 8.33328C8.97247 8.33328 10 9.36081 10 10.625L10 11.0417ZM16.875 11.6667L12.2917 11.6667C11.9467 11.6667 11.6667 11.3867 11.6667 11.0417C11.6667 10.6967 11.9467 10.4167 12.2917 10.4167L16.875 10.4167C17.22 10.4167 17.5 10.6967 17.5 11.0417C17.5 11.3867 17.22 11.6667 16.875 11.6667L16.875 11.6667ZM16.875 8.33328L12.2917 8.33328C11.9467 8.33328 11.6667 8.05328 11.6667 7.70828C11.6667 7.36328 11.9467 7.08328 12.2917 7.08328L16.875 7.08328C17.22 7.08328 17.5 7.36328 17.5 7.70828C17.5 8.05328 17.22 8.33328 16.875 8.33328L16.875 8.33328ZM16.875 5L12.2917 5C11.9467 5 11.6667 4.72 11.6667 4.375C11.6667 4.03 11.9467 3.75 12.2917 3.75L16.875 3.75C17.22 3.75 17.5 4.03 17.5 4.375C17.5 4.72 17.22 5 16.875 5L16.875 5Z" transform="translate(0 2.5)" id="Shape" fill="#17A2B8" fill-rule="evenodd" stroke="none" />
      </g>
    </g>
  </g>
</svg>