<?xml version="1.0" encoding="utf-8"?>
<svg width="100px" height="100px" viewBox="0 0 100 100" version="1.1" xmlns:xlink="http://www.w3.org/1999/xlink" xmlns="http://www.w3.org/2000/svg">
  <desc>Created with Lunacy</desc>
  <defs>
    <path d="M0 0L100 0L100 100L0 100L0 0Z" id="path_1" />
    <clipPath id="mask_1">
      <use xlink:href="#path_1" />
    </clipPath>
  </defs>
  <g id="insurance">
    <path d="M0 0L100 0L100 100L0 100L0 0Z" id="Background" fill="none" fill-rule="evenodd" stroke="none" />
    <g clip-path="url(#mask_1)">
      <g id="insurance-clipboard-document-report-security" transform="translate(3.125 3.111084)">
        <path d="M0 6.25L0 3.125C0 2.26206 0.305097 1.52549 0.915291 0.915291C1.52549 0.305097 2.26206 0 3.125 0L62.5 0C63.3629 0 64.0995 0.305097 64.7097 0.915291C65.3199 1.52549 65.625 2.26206 65.625 3.125L65.625 78.125C65.625 78.9879 65.3199 79.7245 64.7097 80.3347C64.0995 80.9449 63.3629 81.25 62.5 81.25L3.125 81.25C2.26206 81.25 1.52549 80.9449 0.915291 80.3347C0.305097 79.7245 0 78.9879 0 78.125L0 6.25Z" transform="translate(1.5625 10.951447)" id="Rectangle" fill="#FF7956" fill-rule="evenodd" stroke="none" />
        <path d="M9.37507 3.125L9.37507 78.125C9.36989 79.8488 7.97375 81.2449 6.25 81.25L7.15256e-05 81.25C1.72383 81.2449 3.11993 79.8488 3.12507 78.125L3.12507 3.125C3.11989 1.40117 1.72375 0.00510812 0 0L6.25007 0C7.97383 0.00514835 9.36993 1.40125 9.37507 3.125L9.37507 3.125Z" transform="translate(57.812378 10.951447)" id="Shape" fill="#FF5023" fill-rule="evenodd" stroke="none" />
        <path d="M0 0L53.125 0L53.125 68.75L0 68.75L0 0Z" transform="translate(7.8125 17.201447)" id="Shape" fill="#FEE9AB" fill-rule="evenodd" stroke="none" />
        <path d="M0 0L6.25 0L6.25 68.75L0 68.75L0 0Z" transform="translate(54.6875 17.201447)" id="Shape" fill="#FFD422" fill-rule="evenodd" stroke="none" />
        <path d="M40.625 7.8125L40.625 29.3437C40.6318 33.9773 38.068 38.232 33.9684 40.3908L20.3125 46.875L15.5 44.5938L7.15625 40.625L6.65625 40.3906C3.6562 38.8103 1.43222 36.0727 0.500005 32.8125C0.167948 31.6862 -0.000441074 30.518 0 29.3438L0 7.8125L1.5625 7.8125C4.21795 7.8156 6.85634 7.38817 9.37499 6.54688C11.5911 5.82293 13.6949 4.79208 15.625 3.48437C15.9375 3.26563 16.25 3.04688 16.5625 2.8125L20.3125 0L24.0625 2.8125C28.3962 6.04612 33.6554 7.7992 39.0625 7.8125L40.625 7.8125Z" transform="translate(51.5625 45.326447)" id="Shape" fill="#FFCD00" fill-rule="evenodd" stroke="none" />
        <path d="M23.4375 7.8125L23.4375 29.3437C23.4443 33.9773 20.8805 38.232 16.7809 40.3908L3.125 46.875L0 45.3906L10.5312 40.3906C14.6308 38.2317 17.1944 33.977 17.1875 29.3437L17.1875 7.8125L15.625 7.8125C10.2179 7.7992 4.95865 6.04612 0.624996 2.8125L0 2.34375L3.125 0L6.875 2.8125C11.2087 6.04612 16.4679 7.7992 21.875 7.8125L23.4375 7.8125Z" transform="translate(68.75 45.326447)" id="Shape" fill="#EBBF00" fill-rule="evenodd" stroke="none" />
        <path d="M28.125 5.89063L28.125 21.5313C28.125 23.8086 26.8851 25.9044 24.8899 27.0004L14.0625 32.1406L3.23437 27C1.23929 25.9037 -0.000315905 23.8077 0 21.5313L0 5.89062C5.10054 5.1132 9.93064 3.08992 14.0625 0C18.1944 3.08992 23.0245 5.1132 28.125 5.89062L28.125 5.89063Z" transform="translate(57.8125 53.138916)" id="Shape" fill="#FFE477" fill-rule="evenodd" stroke="none" />
        <path d="M17.1875 5.89065L17.1875 21.5313C17.1875 23.8086 15.9476 25.9044 13.9524 27.0004L3.125 32.1406L0 30.6563L7.70313 27C9.69821 25.9037 10.9378 23.8077 10.9375 21.5313L10.9375 5.89064C7.08421 5.3013 3.37483 3.99772 1.19209e-05 2.04689C1.08455 1.43242 2.12839 0.7487 3.12503 0C7.25688 3.08993 12.087 5.11321 17.1875 5.89064L17.1875 5.89065Z" transform="translate(68.75 53.138916)" id="Shape" fill="#FFD422" fill-rule="evenodd" stroke="none" />
        <path d="M31.25 9.38284L31.25 17.1953L0 17.1953L0 9.38284C0.00518858 7.65901 1.40132 6.26294 3.12507 6.25784L7.96875 6.25784C8.70811 2.6167 11.9096 0 15.625 0C19.3404 0 22.5419 2.6167 23.2813 6.25784L28.125 6.25784C29.8488 6.26298 31.2449 7.65908 31.25 9.38284L31.25 9.38284Z" transform="translate(18.75 1.5686035)" id="Shape" fill="#ACABB1" fill-rule="evenodd" stroke="none" />
        <path d="M18.75 9.37501L18.75 17.1875L12.5 17.1875L12.5 9.37501C12.4948 7.65118 11.0987 6.25511 9.37493 6.25001L4.53125 6.25001C4.02451 3.75754 2.33298 1.66937 0 0.656255C0.98455 0.222123 2.04898 -0.00140741 3.125 6.70552e-06C6.83804 -0.000753254 10.0386 2.61199 10.7813 6.25001L15.625 6.25001C17.3488 6.25515 18.7449 7.65125 18.75 9.37501L18.75 9.37501Z" transform="translate(31.25 1.576416)" id="Shape" fill="#898890" fill-rule="evenodd" stroke="none" />
        <path d="M18.75 6.25L18.75 12.5L12.5 12.5L12.5 18.75L6.25 18.75L6.25 12.5L0 12.5L0 6.25L6.25 6.25L6.25 0L12.5 0L12.5 6.25L18.75 6.25Z" transform="translate(25 25.013947)" id="Shape" fill="#FF3051" fill-rule="evenodd" stroke="none" />
        <path d="M9.375 6.25L9.375 12.5L3.125 12.5L3.125 18.75L0 18.75L0 0L3.125 0L3.125 6.25L9.375 6.25Z" transform="translate(34.375 25.013947)" id="Shape" fill="#CD2A00" fill-rule="evenodd" stroke="none" />
        <path d="M0 3.125C0 1.39911 1.39911 0 3.125 0C4.85089 0 6.25 1.39911 6.25 3.125C6.25 4.85089 4.85089 6.25 3.125 6.25C1.39911 6.25 0 4.85089 0 3.125Z" transform="translate(31.25 6.2639465)" id="Circle" fill="#787680" fill-rule="evenodd" stroke="none" />
        <path d="M4.68753 3.1218C4.68637 4.23771 4.09029 5.26831 3.12361 5.82574C2.15694 6.38318 0.966376 6.38286 0 5.82491C0.96375 5.26585 1.55696 4.23596 1.55696 3.1218C1.55697 2.00763 0.963774 0.977738 2.68221e-05 0.418672C0.966412 -0.139271 2.15697 -0.139576 3.12364 0.41787C4.09031 0.975315 4.68639 2.00591 4.68753 3.1218L4.68753 3.1218Z" transform="translate(32.8125 6.267151)" id="Shape" fill="#57565C" fill-rule="evenodd" stroke="none" />
        <path d="M4.6875 0C2.09866 0 0 2.09867 0 4.6875C0 7.27634 2.09866 9.375 4.6875 9.375C7.27634 9.375 9.375 7.27633 9.375 4.6875C9.375 2.09867 7.27634 0 4.6875 0L4.6875 0ZM4.6875 6.25C3.82456 6.25 3.125 5.55044 3.125 4.6875C3.125 3.82456 3.82456 3.125 4.6875 3.125C5.55045 3.125 6.25 3.82456 6.25 4.6875C6.25 5.55045 5.55045 6.25 4.6875 6.25L4.6875 6.25Z" transform="translate(29.6875 4.7014465)" id="Shape" fill="#000000" fill-rule="evenodd" stroke="none" />
        <path d="M0 0L6.25 0L6.25 3.125L0 3.125L0 0Z" transform="translate(14.0625 48.451447)" id="Shape" fill="#000000" fill-rule="evenodd" stroke="none" />
        <path d="M0 0L23.4375 0L23.4375 3.125L0 3.125L0 0Z" transform="translate(23.4375 48.451447)" id="Shape" fill="#000000" fill-rule="evenodd" stroke="none" />
        <path d="M0 0L6.25 0L6.25 3.125L0 3.125L0 0Z" transform="translate(14.0625 57.826447)" id="Shape" fill="#000000" fill-rule="evenodd" stroke="none" />
        <path d="M0 0L6.25 0L6.25 3.125L0 3.125L0 0Z" transform="translate(14.0625 67.20145)" id="Shape" fill="#000000" fill-rule="evenodd" stroke="none" />
        <path d="M0 0L6.25 0L6.25 3.125L0 3.125L0 0Z" transform="translate(14.0625 76.57645)" id="Shape" fill="#000000" fill-rule="evenodd" stroke="none" />
        <path d="M92.1875 51.5764L90.625 51.5764C85.5559 51.5638 80.6254 49.9203 76.5625 46.8889L72.8125 44.0764C72.2587 43.6545 71.4913 43.6545 70.9375 44.0764L68.75 45.7171L68.75 14.0764C68.7422 11.4907 66.648 9.3966 64.0624 9.38894L51.2813 9.38894C50.6168 7.52354 48.8552 6.27414 46.875 6.26394L43.2188 6.26394C41.8985 2.51099 38.3534 7.45058e-07 34.375 0C30.3966 0 26.8515 2.51099 25.5313 6.26394L21.875 6.26394C19.8948 6.27414 18.1332 7.52354 17.4688 9.38894L4.6875 9.38894C2.10187 9.39666 0.00772215 11.4908 0 14.0764L3.72529e-07 89.0764C0.00778325 91.6622 2.10198 93.7563 4.68761 93.7639L64.0625 93.7639C65.4961 93.7547 66.8475 93.0934 67.7344 91.9671L71.2031 93.6077C71.6268 93.8159 72.1232 93.8159 72.5469 93.6077L86.2656 87.0921C90.8775 84.6667 93.761 79.8809 93.75 74.6702L93.75 53.1389C93.75 52.276 93.0504 51.5764 92.1875 51.5764L92.1875 51.5764ZM51.5625 12.5139L64.0625 12.5139C64.9254 12.5139 65.625 13.2135 65.625 14.0764L65.625 47.9671C64.6254 48.5905 63.5808 49.1389 62.5 49.6077L62.5 17.2015C62.5 16.3385 61.8004 15.6389 60.9375 15.6389L51.5625 15.6389L51.5625 12.5139ZM20.3125 10.9514C20.3125 10.0885 21.0121 9.38893 21.875 9.38893L26.7188 9.38893C27.464 9.39651 28.1082 8.87059 28.25 8.13893C28.8415 5.22603 31.4026 3.13266 34.375 3.13266C37.3474 3.13266 39.9085 5.22603 40.5 8.13893C40.6418 8.87059 41.286 9.39651 42.0313 9.38893L46.875 9.38893C47.7379 9.38893 48.4375 10.0885 48.4375 10.9514L48.4375 17.2014L20.3125 17.2014L20.3125 10.9514ZM18.75 20.3264L50 20.3264C50.8629 20.3264 51.5625 19.6269 51.5625 18.7639L59.375 18.7639L59.375 50.7015C57.3405 51.273 55.2382 51.5673 53.125 51.5765L51.5625 51.5765C50.6996 51.5765 50 52.276 50 53.139L50 57.8265L23.4375 57.8265L23.4375 60.9515L50 60.9515L50 67.2015L23.4375 67.2015L23.4375 70.3265L50 70.3265L50 74.6702C50.0022 75.3073 50.0439 75.944 50.125 76.5762L23.4375 76.5765L23.4375 79.7015L50.9531 79.7015C51.6272 81.4464 52.6417 83.0398 53.9375 84.389L9.375 84.389L9.375 18.764L17.1875 18.764C17.1875 19.6269 17.8871 20.3265 18.75 20.3265L18.75 20.3264ZM64.0625 90.6389L4.6875 90.6389C3.82456 90.6389 3.125 89.9394 3.125 89.0764L3.125 14.0764C3.125 13.2135 3.82456 12.5139 4.6875 12.5139L17.1875 12.5139L17.1875 15.6389L7.8125 15.6389C6.94955 15.6389 6.25 16.3385 6.25 17.2014L6.25 85.9514C6.25 86.8144 6.94955 87.5139 7.8125 87.5139L58.375 87.5139L64.6563 90.4983C64.4694 90.5835 64.2677 90.6313 64.0625 90.6389L64.0625 90.6389ZM90.625 74.6702C90.6367 78.6994 88.4175 82.4043 84.8594 84.2952L71.875 90.4671L58.9219 84.3108C55.3523 82.4199 53.1213 78.7097 53.125 74.6702L53.125 54.7014C58.8705 54.6903 64.4594 52.8273 69.0625 49.3889L71.875 47.2796L74.6875 49.3889C79.2906 52.8273 84.8795 54.6903 90.625 54.7014L90.625 74.6702Z" id="Shape" fill="#000000" fill-rule="evenodd" stroke="none" />
        <path d="M20.3125 6.25L15.625 6.25L15.625 1.5625C15.625 0.699556 14.9254 0 14.0625 0L7.8125 0C6.94956 0 6.25 0.699556 6.25 1.5625L6.25 6.25L1.5625 6.25C0.699556 6.25 0 6.94956 0 7.8125L0 14.0625C0 14.9254 0.699556 15.625 1.5625 15.625L6.25 15.625L6.25 20.3125C6.25 21.1754 6.94956 21.875 7.8125 21.875L14.0625 21.875C14.9254 21.875 15.625 21.1754 15.625 20.3125L15.625 15.625L20.3125 15.625C21.1754 15.625 21.875 14.9254 21.875 14.0625L21.875 7.8125C21.875 6.94956 21.1754 6.25 20.3125 6.25L20.3125 6.25ZM18.75 12.5L14.0625 12.5C13.1996 12.5 12.5 13.1996 12.5 14.0625L12.5 18.75L9.375 18.75L9.375 14.0625C9.375 13.1996 8.67544 12.5 7.8125 12.5L3.125 12.5L3.125 9.375L7.8125 9.375C8.67544 9.375 9.375 8.67544 9.375 7.8125L9.375 3.125L12.5 3.125L12.5 7.8125C12.5 8.67544 13.1996 9.375 14.0625 9.375L18.75 9.375L18.75 12.5Z" transform="translate(23.4375 23.451447)" id="Shape" fill="#000000" fill-rule="evenodd" stroke="none" />
        <path d="M29.9219 5.91021C25.076 5.17448 20.4869 3.25296 16.5625 0.316447C16.0087 -0.105488 15.2413 -0.105488 14.6875 0.316459C10.7631 3.25297 6.17401 5.17448 1.32812 5.91021C0.566381 6.0311 0.00424385 6.68583 5.96046e-06 7.45709L0 23.0977C0.00138283 25.9388 1.54572 28.5538 4.03212 29.9263L4.125 29.9727L14.9531 35.1133C15.3768 35.3216 15.8732 35.3216 16.2969 35.1133L27.2188 29.9258C29.7021 28.55 31.245 25.9367 31.25 23.0977L31.25 7.45708C31.2458 6.68584 30.6836 6.0311 29.9219 5.9102L29.9219 5.91021ZM28.125 23.0977C28.1339 24.7715 27.2374 26.3193 25.7812 27.1446L15.625 31.9727L5.5 27.1758C4.03187 26.3432 3.12473 24.7855 3.125 23.0977L3.125 8.7696C7.61269 7.89465 11.8694 6.09616 15.625 3.48834C19.3805 6.09616 23.6373 7.89464 28.125 8.7696L28.125 23.0977Z" transform="translate(56.25 51.57248)" id="Shape" fill="#000000" fill-rule="evenodd" stroke="none" />
        <path d="M2.20938 7.8125L0 10.0219L4.6875 14.7094C5.29765 15.3193 6.28672 15.3193 6.89688 14.7094L19.3969 2.20938L17.1875 0L5.79219 11.3953L2.20938 7.8125Z" transform="translate(62.957764 62.97174)" id="Shape" fill="#000000" fill-rule="evenodd" stroke="none" />
      </g>
    </g>
  </g>
</svg>