<?xml version="1.0" encoding="utf-8"?>
<svg width="20px" height="20px" viewbox="0 0 20 20" version="1.1" xmlns:xlink="http://www.w3.org/1999/xlink" xmlns="http://www.w3.org/2000/svg">
  <defs>
    <path d="M0 0L20 0L20 20L0 20L0 0Z" id="path_1" />
    <clipPath id="mask_1">
      <use xlink:href="#path_1" />
    </clipPath>
  </defs>
  <g id="placeholder">
    <path d="M0 0L20 0L20 20L0 20L0 0Z" id="Background" fill="none" fill-rule="evenodd" stroke="none" />
    <g clip-path="url(#mask_1)">
      <g id="Group" transform="translate(0.00024414062 0)">
        <g id="Group">
          <g id="Group">
            <path d="M15.1905 0.0233598C14.7439 -0.0849588 14.2939 0.194176 14.188 0.641668C14.0814 1.08916 14.3589 1.53833 14.8064 1.64415C17.3946 2.25832 18.333 3.16662 18.333 3.62829C18.333 4.62409 15.0097 6.12824 9.9998 6.12824C4.99072 6.12824 1.66665 4.62409 1.66665 3.62829C1.66665 3.16662 2.60581 2.25832 5.1924 1.64415C5.64071 1.53833 5.91738 1.08916 5.81071 0.64167C5.70489 0.194179 5.2549 -0.0849958 4.80823 0.023361C1.70747 0.758346 0 2.03832 0 3.62829C0 6.36324 5.03158 7.79489 9.9998 7.79489C14.9689 7.79489 19.9996 6.36324 19.9996 3.62829C19.9996 2.03832 18.2921 0.758346 15.1905 0.0233598L15.1905 0.0233598Z" transform="translate(0 12.205078)" id="Shape" fill="#006C76" fill-rule="evenodd" stroke="none" />
            <path d="M0.833304 1.66661C1.2933 1.66661 1.66661 1.2933 1.66661 0.833304C1.66661 0.373313 1.2933 0 0.833304 0C0.373313 0 0 0.373313 0 0.833304C0 1.2933 0.373313 1.66661 0.833304 1.66661L0.833304 1.66661Z" transform="translate(9.16687 5.0004883)" id="Shape" fill="#006C76" fill-rule="evenodd" stroke="none" />
            <path d="M4.74806 15.5277L5.08723 16.206C5.22891 16.4885 5.51723 16.6668 5.83304 16.6668C6.14885 16.6668 6.43721 16.4885 6.57885 16.206L7.29715 14.7694C8.17132 13.0202 9.24961 11.3261 10.2921 9.6878L10.7671 8.94032C11.3554 8.01033 11.6662 6.93618 11.6662 5.8337C11.6662 4.17373 10.9554 2.58708 9.71628 1.48046C8.47799 0.374663 6.8122 -0.155288 5.15141 0.0397083C2.5581 0.334703 0.416506 2.42298 0.0573335 5.00461C-0.155162 6.53458 0.22733 8.05373 1.13313 9.28371C2.54646 11.1986 3.64976 13.3294 4.74806 15.5277L4.74806 15.5277ZM5.83308 3.3338C7.21137 3.3338 8.33303 4.45546 8.33303 5.83375C8.33303 7.21205 7.21137 8.3337 5.83308 8.3337C4.45479 8.3337 3.33313 7.21205 3.33313 5.83375C3.33313 4.45546 4.45479 3.3338 5.83308 3.3338L5.83308 3.3338Z" transform="translate(4.1671143 0)" id="Shape" fill="#006C76" fill-rule="evenodd" stroke="none" />
          </g>
        </g>
      </g>
    </g>
  </g>
</svg>