<svg width="61" height="61" viewBox="0 0 61 61" fill="none" xmlns="http://www.w3.org/2000/svg">
<path d="M59.475 14.2333H49.3083V4.06667C49.3083 1.82072 47.4876 0 45.2416 0H14.7416C12.4957 0 10.675 1.82072 10.675 4.06667V25.4167H1.52497C0.963513 25.4167 0.508301 25.8719 0.508301 26.4333V42.7C0.508301 43.2615 0.963513 43.7167 1.52497 43.7167H10.675V56.9333C10.675 59.1793 12.4957 61 14.7416 61H45.2416C47.4876 61 49.3083 59.1793 49.3083 56.9333V34.9876L51.7625 32.5333H59.475C60.0364 32.5333 60.4916 32.0781 60.4916 31.5167V15.25C60.4916 14.6885 60.0364 14.2333 59.475 14.2333ZM12.7083 4.06667C12.7083 2.94363 13.6186 2.03333 14.7416 2.03333H45.2416C46.3647 2.03333 47.275 2.94363 47.275 4.06667V8.13333H12.7083V4.06667ZM2.54163 41.6833V27.45H25.925V41.6833H20.8416C20.572 41.6833 20.3135 41.7906 20.1229 41.9812L17.7916 44.3124L15.4604 41.9812C15.2698 41.7906 15.0113 41.6833 14.7416 41.6833H2.54163ZM47.275 56.9333C47.275 58.0564 46.3647 58.9667 45.2416 58.9667H14.7416C13.6186 58.9667 12.7083 58.0564 12.7083 56.9333V52.8667H47.275V56.9333ZM47.275 50.8333H12.7083V43.7167H14.3207L17.0728 46.4688C17.4699 46.8657 18.1134 46.8657 18.5104 46.4688L21.2625 43.7167H26.9416C27.5031 43.7167 27.9583 43.2615 27.9583 42.7V26.4333C27.9583 25.8719 27.5031 25.4167 26.9416 25.4167H12.7083V10.1667H47.275V14.2333H34.0583C33.4968 14.2333 33.0416 14.6885 33.0416 15.25V31.5167C33.0416 32.0781 33.4968 32.5333 34.0583 32.5333H44.8207L47.275 34.9876V50.8333ZM58.4583 30.5H51.3416C51.072 30.5 50.8135 30.6073 50.6228 30.7979L48.2916 33.1291L45.9604 30.7979C45.7698 30.6073 45.5113 30.5 45.2416 30.5H35.075V16.2667H58.4583V30.5Z" fill="#006C76"/>
</svg>
