<?xml version="1.0" encoding="utf-8"?>
<svg width="32px" height="32px" viewbox="0 0 32 32" version="1.1" xmlns:xlink="http://www.w3.org/1999/xlink" xmlns="http://www.w3.org/2000/svg">
  <g id="Okay-Symbol">
    <g id="yes">
      <g id="Group">
        <path d="M0 31.0345L0 0L31.0345 0L31.0345 31.0345L0 31.0345Z" id="Shape" fill="none" fill-rule="evenodd" stroke="none" />
        <g id="Group" transform="translate(1.2405713 1.2413919)">
          <path d="M14.2759 8.60372e-07C6.40366 8.60372e-07 0 6.40366 0 14.2759C0 22.1481 6.40366 28.5517 14.2759 28.5517C22.1481 28.5517 28.5517 22.1481 28.5517 14.2759C28.5517 11.4455 27.7202 8.80717 26.2945 6.58634L25.4446 7.59011C26.6208 9.54777 27.3103 11.8303 27.3103 14.2759C27.3103 21.4628 21.4628 27.3103 14.2759 27.3103C7.0889 27.3103 1.24138 21.4628 1.24138 14.2759C1.24138 7.0889 7.0889 1.24138 14.2759 1.24138C17.6543 1.24138 20.7273 2.54468 23.0455 4.66123L23.8578 3.70232C21.3222 1.40266 17.9597 0 14.2759 0L14.2759 8.60372e-07ZM25.5954 3.57138L13.6022 17.7236L8.55428 13.0151L7.70811 13.9231L13.7077 19.519L26.5434 4.37391L25.5954 3.57138Z" id="Shape" fill="#7E7E7E" fill-rule="evenodd" stroke="none" />
        </g>
      </g>
    </g>
  </g>
</svg>