<?xml version="1.0" encoding="utf-8"?>
<svg width="35px" height="35px" viewbox="0 0 35 35" version="1.1" xmlns:xlink="http://www.w3.org/1999/xlink" xmlns="http://www.w3.org/2000/svg">
  <defs>
    <path d="M0 0L35 0L35 35L0 35L0 0Z" id="path_1" />
    <clipPath id="mask_1">
      <use xlink:href="#path_1" />
    </clipPath>
  </defs>
  <g id="Mask-group">
    <path d="M0 0L35 0L35 35L0 35L0 0Z" id="Rectangle" fill="none" fill-rule="evenodd" stroke="none" />
    <g clip-path="url(#mask_1)">
      <g id="Group" transform="translate(3.2557983 0)">
        <path d="M6.9177 0C3.0988 0.00409031 0.00409889 3.0989 0 6.9178L0 10.3948C0.146799 10.4079 0.292999 10.3609 0.4044 10.2641C0.5156 10.1673 0.5828 10.0295 0.590099 9.8821L0.7118 7.2073C0.7174 7.0877 0.77 6.9754 0.858601 6.895C0.947199 6.8145 1.0642 6.7727 1.1835 6.7789C2.4522 6.816 3.7218 6.7505 4.9799 6.5826C6.9019 6.3299 9.5949 5.7204 11.509 4.2526C11.6362 4.1508 11.8082 4.126 11.9588 4.1871C12.1094 4.2485 12.2153 4.3866 12.2355 4.548C12.2554 4.7094 12.1866 4.8691 12.0556 4.9653C11.1083 5.6915 9.9409 6.2779 8.5666 6.7198C9.3495 7.4281 11.0838 8.6716 13.8358 8.9688L13.8358 6.9178C13.8317 3.0989 10.7369 0.00409031 6.9177 0L6.9177 0Z" transform="translate(4.008379 0)" id="Shape" fill="#E5E6E6" fill-rule="evenodd" stroke="none" />
        <path d="M14.515 7.6079C14.518 7.5936 14.5212 7.5796 14.5253 7.5655L14.8949 6.2939C14.9262 6.1059 15.0727 5.9579 15.2605 5.9251C15.6427 5.8573 15.9796 5.6341 16.1914 5.3092C16.4034 4.984 16.4713 4.586 16.3794 4.209C16.2914 3.8469 15.9987 3.5706 15.6319 3.5036C15.6199 3.5051 15.6079 3.5065 15.5954 3.5068C15.5293 3.5094 13.945 3.5647 11.8168 3.1497C9.88627 2.7733 7.13928 1.9217 4.90718 0C4.02668 0.0634003 3.31388 0.0702 2.88258 0.0646L2.78078 2.2993C2.76028 2.7844 2.49588 3.2261 2.07768 3.4729C1.65978 3.7197 1.14538 3.7384 0.710775 3.522C0.377676 3.61 0.119976 3.8738 0.0401764 4.209C-0.0519238 4.586 0.0158768 4.9843 0.227575 5.3092C0.439676 5.6344 0.776575 5.8573 1.15878 5.9251C1.34658 5.9579 1.49308 6.1059 1.52438 6.2939L1.89408 7.5655C1.89818 7.5793 1.90168 7.5936 1.90428 7.6079C2.47518 10.6404 5.12398 12.8368 8.20968 12.8368C11.2954 12.8368 13.9442 10.6404 14.515 7.6079L14.515 7.6079Z" transform="translate(2.7149029 7.6235)" id="Shape" fill="#E5E6E6" fill-rule="evenodd" stroke="none" />
        <path d="M8.934 2.8684C5.3008 2.5096 3.2823 0.6607 2.6684 0C1.8483 0.2062 1.0169 0.3633 0.178101 0.4706C0.118198 0.4782 0.0587997 0.4858 0 0.4931C3.3317 2.9152 7.5825 3.2007 8.934 3.2276L8.934 2.8684L8.934 2.8684Z" transform="translate(8.910179 7.0049)" id="Shape" fill="#E5E6E6" fill-rule="evenodd" stroke="none" />
        <path d="M0 1.9893C1.7864 2.8515 3.8686 2.8515 5.655 1.9893L5.655 0C3.8464 0.758999 1.8086 0.758999 0 0L0 1.9893L0 1.9893Z" transform="translate(8.097179 20.791)" id="Shape" fill="#E5E6E6" fill-rule="evenodd" stroke="none" />
        <path d="M10.5439 0L5.6166 3.8324C6.3135 4.7799 7.0619 5.6886 7.8588 6.5537C8.022 6.7309 8.0165 7.0052 7.8463 7.1755L0 15.0218L0.207603 16.0603L1.2461 16.2679L2.0126 15.5011C2.1091 15.4052 2.2434 15.3578 2.3785 15.3721L3.0848 15.4485L3.026 14.7109C3.0161 14.5845 3.0599 14.46 3.1468 14.3675C3.2334 14.2745 3.3553 14.2231 3.4822 14.2263L4.2976 14.2412L4.1903 13.5887C4.1669 13.446 4.2137 13.3007 4.316 13.1983L9.0924 8.4219C9.2629 8.2514 9.5373 8.2458 9.7145 8.409C10.5796 9.206 11.4882 9.9544 12.4358 10.6513L16.2623 5.7313C15.5478 5.2441 14.2136 4.2857 13.2102 3.2823C12.1869 2.2596 11.1039 0.792 10.5439 0L10.5439 0ZM14.2944 5.6942C14.4733 5.8506 14.4994 6.12 14.3531 6.308L13.4752 7.4366C13.3418 7.6083 13.1046 7.6598 12.9122 7.5589L10.2783 6.1793C10.1973 6.1366 10.1312 6.0706 10.0888 5.9898L8.709 3.356C8.6081 3.1632 8.6596 2.9264 8.8313 2.793L9.9601 1.9147C10.1479 1.7688 10.4173 1.7945 10.574 1.9738L11.402 2.9199C12.0068 3.611 12.6569 4.2611 13.348 4.8659L14.2944 5.6942L14.2944 5.6942Z" transform="translate(12.300377 18.7321)" id="Shape" fill="#E5E6E6" fill-rule="evenodd" stroke="none" />
        <path d="M19.2088 2.039C19.0485 1.8603 18.8903 1.6799 18.7341 1.4974L14.2476 0.00119972C12.1562 1.0514 9.69138 1.0511 7.60028 0L2.36208 1.6986C1.24928 2.0592 0.407278 2.9222 0.10928 4.0078C0.097578 4.0505 0.0864792 4.0932 0.0765781 4.1362C0.0232792 4.3743 -0.00242043 4.6173 0.000179291 4.8612L0.000179291 8.1104L13.1371 8.1104L19.2088 2.039L19.2088 2.039Z" transform="translate(0 23.5363)" id="Shape" fill="#E5E6E6" fill-rule="evenodd" stroke="none" />
        <path d="M1.0467 0.627399L0.4977 0L0 0.387299L1.1402 2.564L3.3173 3.7043L3.7045 3.2065L3.0772 2.6579C2.3563 2.0265 1.6778 1.3483 1.0467 0.627399L1.0467 0.627399Z" transform="translate(21.97958 21.6163)" id="Shape" fill="#E5E6E6" fill-rule="evenodd" stroke="none" />
      </g>
    </g>
  </g>
</svg>