<?xml version="1.0" encoding="utf-8"?>
<svg width="24px" height="24px" viewbox="0 0 24 24" version="1.1" xmlns:xlink="http://www.w3.org/1999/xlink" xmlns="http://www.w3.org/2000/svg">
  <g id="previous">
    <g id="Group">
      <g id="Group">
        <g id="Group">
          <path d="M12 0C5.37272 0 0 5.37272 0 12C0 18.6273 5.37272 24 12 24C18.6273 24 24 18.6273 24 12C24 5.37272 18.6273 0 12 0L12 0ZM12 22C6.47728 22 2.00002 17.5227 2.00002 12C2.00002 6.47728 6.47728 2.00002 12 2.00002C17.5227 2.00002 22 6.47728 22 12C22 17.5227 17.5227 22 12 22L12 22Z" id="Shape" fill="#006C76" fill-rule="evenodd" stroke="none" />
          <path d="M6.70712 0.292887C6.31661 -0.0976288 5.68342 -0.0976288 5.2929 0.292887L0.292886 5.2929C-0.0976288 5.68342 -0.0976288 6.31661 0.292886 6.70712L5.2929 11.7071C5.68342 12.0977 6.31661 12.0977 6.70712 11.7071C7.09764 11.3166 7.09764 10.6834 6.70712 10.2929L2.41421 6.00001L6.70712 1.70711C7.09764 1.31659 7.09764 0.683449 6.70712 0.292887L6.70712 0.292887Z" transform="translate(8 5.9999886)" id="Shape" fill="#006C76" fill-rule="evenodd" stroke="none" />
        </g>
      </g>
    </g>
  </g>
</svg>