<?xml version="1.0" encoding="utf-8"?>
<svg width="25px" height="25px" viewbox="0 0 25 25" version="1.1" xmlns:xlink="http://www.w3.org/1999/xlink" xmlns="http://www.w3.org/2000/svg">
  <defs>
    <path d="M0 0L20 0L20 19.9609L0 19.9609L0 0Z" id="path_1" />
    <rect width="25" height="25" id="artboard_1" />
    <clipPath id="clip_1">
      <use xlink:href="#artboard_1" clip-rule="evenodd" />
    </clipPath>
    <clipPath id="mask_1">
      <use xlink:href="#path_1" />
    </clipPath>
  </defs>
  <g id="Pixelbook" clip-path="url(#clip_1)">
    <use xlink:href="#artboard_1" stroke="none" fill="#FFFFFF" />
    <g id="briefcase" transform="translate(2 2)">
      <path d="M0 0L20 0L20 19.9609L0 19.9609L0 0Z" id="Background" fill="none" fill-rule="evenodd" stroke="none" />
      <g clip-path="url(#mask_1)">
        <path d="M13.3054 0L13.3054 0.505524C13.3054 1.70059 12.3331 2.67303 11.1378 2.67303L8.862 2.67303C7.66693 2.67303 6.69449 1.70074 6.69449 0.505524L6.69449 0L0 0L0 6.55243C0 7.65167 0.894318 8.54599 1.99356 8.54599L18.0064 8.54599C19.1057 8.54599 20 7.65167 20 6.55243L20 0L13.3054 0Z" transform="translate(0 9.691467)" id="Shape" fill="#17A2B8" fill-rule="evenodd" stroke="none" />
        <path d="M0 0.505524C0 1.04599 0.439606 1.4856 0.980072 1.4856L3.25592 1.4856C3.79639 1.4856 4.23615 1.04599 4.23615 0.505524L4.23615 0L0 0L0 0.505524Z" transform="translate(7.8819275 9.691467)" id="Shape" fill="#17A2B8" fill-rule="evenodd" stroke="none" />
        <path d="M20 6.7659L20 5.00275C20 3.9035 19.1057 3.00919 18.0064 3.00919L13.6464 3.00919L13.6464 1.52847C13.6464 0.685577 12.9608 0 12.1179 0L7.88208 0C7.03918 0 6.35361 0.685577 6.35361 1.52847L6.35361 3.00919L1.99356 3.00919C0.894318 3.00919 0 3.9035 0 5.00275L0 6.76575L20 6.76575L20 6.7659ZM7.54089 1.52847C7.54089 1.34033 7.69394 1.18729 7.88208 1.18729L12.1179 1.18729C12.3061 1.18729 12.4591 1.34033 12.4591 1.52847L12.4591 3.00919L7.54089 3.00919L7.54089 1.52847Z" transform="translate(0 1.7382812)" id="Shape" fill="#17A2B8" fill-rule="evenodd" stroke="none" />
      </g>
    </g>
  </g>
</svg>