<?xml version="1.0" encoding="utf-8"?>
<svg width="12px" height="2px" viewbox="0 0 12 2" version="1.1" xmlns:xlink="http://www.w3.org/1999/xlink" xmlns="http://www.w3.org/2000/svg">
  <path d="M0.999 0L11.001 0Q11.0994 0 11.1959 0.0191955Q11.2924 0.038391 11.3833 0.0760443Q11.4742 0.113698 11.556 0.168362Q11.6378 0.223026 11.7074 0.2926Q11.777 0.362175 11.8316 0.443985Q11.8863 0.525796 11.924 0.616699Q11.9616 0.707602 11.9808 0.804105Q12 0.900607 12 0.999L12 1.001Q12 1.09939 11.9808 1.1959Q11.9616 1.2924 11.924 1.3833Q11.8863 1.4742 11.8316 1.55601Q11.777 1.63783 11.7074 1.7074Q11.6378 1.77697 11.556 1.83164Q11.4742 1.8863 11.3833 1.92396Q11.2924 1.96161 11.1959 1.9808Q11.0994 2 11.001 2L0.999 2Q0.900607 2 0.804105 1.9808Q0.707602 1.96161 0.616699 1.92396Q0.525796 1.8863 0.443985 1.83164Q0.362175 1.77697 0.2926 1.7074Q0.223026 1.63783 0.168362 1.55601Q0.113698 1.4742 0.0760443 1.3833Q0.038391 1.2924 0.0191955 1.1959Q0 1.09939 0 1.001L0 0.999Q0 0.900607 0.0191955 0.804105Q0.038391 0.707602 0.0760443 0.616699Q0.113698 0.525796 0.168362 0.443985Q0.223026 0.362175 0.2926 0.2926Q0.362175 0.223026 0.443985 0.168362Q0.525796 0.113698 0.616699 0.0760443Q0.707602 0.038391 0.804105 0.0191955Q0.900607 0 0.999 0Z" id="Rectangle" fill="#006C76" fill-rule="evenodd" stroke="none" />
</svg>