<?xml version="1.0" encoding="utf-8"?>
<svg width="50px" height="50px" viewbox="0 0 50 50" version="1.1" xmlns:xlink="http://www.w3.org/1999/xlink" xmlns="http://www.w3.org/2000/svg">
  <defs>
    <rect width="50" height="50" id="artboard_1" />
    <clipPath id="clip_1">
      <use xlink:href="#artboard_1" clip-rule="evenodd" />
    </clipPath>
  </defs>
  <g id="Pixelbook" clip-path="url(#clip_1)">
    <g id="business-center-(1)" transform="translate(7 7)">
      <g id="Group">
        <path d="M0 0L0 10.9804L17.7059 10.9804C17.7059 9.04819 17.7059 1.06023 17.7059 0C14.2496 0 3.47825 0 0 0L0 0ZM5.0098 6.65686L2.81373 6.65686L2.81373 4.59804L5.0098 4.59804L5.0098 6.65686ZM14.8922 6.65686L12.6961 6.65686L12.6961 4.59804L14.8922 4.59804L14.8922 6.65686ZM9.95098 6.65686L7.7549 6.65686L7.7549 4.59804L9.95098 4.59804L9.95098 6.65686Z" transform="translate(6.450981 24.01961)" id="Shape" fill="#FFFFFF" fill-rule="evenodd" stroke="none" />
        <path d="M0 7.23127L0 15.5798L8.09804 15.5798L8.09804 28.619L12.4902 28.619C12.4902 26.7343 12.4902 0.837392 12.4902 0C8.18067 2.49488 7.11255 3.11308 0 7.23127L0 7.23127ZM4.32353 12.1484L4.32353 10.0896L8.16667 10.0896L8.16667 12.1484L4.32353 12.1484Z" transform="translate(18.117647 6.3809814)" id="Shape" fill="#FFFFFF" fill-rule="evenodd" stroke="none" />
        <path d="M20.8627 0L20.8627 5.4902L14.1373 5.4902L14.1373 0L0 0L0 35L4.39216 35C4.39216 34.4241 4.39216 22.6292 4.39216 21.9608L14.1373 21.9608L14.1373 7.54902L20.8627 7.54902L20.8627 9.64422C29.9168 4.40513 8.96865 16.5301 32.6667 2.81029L32.6667 35L35 35L35 0L20.8627 0ZM9.81373 19.6275L4.32353 19.6275L4.32353 17.5686L9.81373 17.5686L9.81373 19.6275ZM9.81373 15.2353L4.32353 15.2353L4.32353 13.1765L9.81373 13.1765L9.81373 15.2353ZM9.81373 10.8431L4.32353 10.8431L4.32353 8.78431L9.81373 8.78431L9.81373 10.8431ZM9.81373 6.45098L4.32353 6.45098L4.32353 4.39216L9.81373 4.39216L9.81373 6.45098Z" id="Shape" fill="#FFFFFF" fill-rule="evenodd" stroke="none" />
      </g>
    </g>
  </g>
</svg>