<svg height="512" viewBox="0 0 60 60" width="512" xmlns="http://www.w3.org/2000/svg"><g id="Page-1" fill="none" fill-rule="evenodd"><g id="012---No-Phone-Calls" fill-rule="nonzero"><g id="Icons" transform="translate(1 1)"><path id="Shape" d="m29 0c-16.0162577 0-29 12.9837423-29 29s12.9837423 29 29 29 29-12.9837423 29-29-12.9837423-29-29-29zm-19.72 44.34c-7.75044084-9.9444233-6.87587404-24.105513 2.0393065-33.0206935 8.9151805-8.91518054 23.0762702-9.78974734 33.0206935-2.0393065.2225356.17580177.3587954.43875488.3741027.7219404.0153074.2831855-.091814.5592944-.2941027.7580596l-33.66 33.66c-.1987652.2022887-.4748741.3094101-.7580596.2941027-.28318552-.0153073-.54613863-.1515671-.7219404-.3741027zm21.81 9.57c-6.2569803.5336157-12.4840784-1.3205804-17.43-5.19-.2225356-.1758018-.3587954-.4387549-.3741027-.7219404-.0153074-.2831855.091814-.5592944.2941027-.7580596l33.66-33.66c.1987652-.2022887.4748741-.3094101.7580596-.2941027.2831855.0153073.5461386.1515671.7219404.3741027 5.6377244 7.2345336 6.8576144 16.9767229 3.1777603 25.377978s-11.6676118 14.1103802-20.8077603 14.872022z" fill="#f44335"/><path id="Shape" d="m29 0c-.5033333 0-1.0033333.01266667-1.5.038 15.4192225.79012792 27.5158989 13.5225465 27.5158989 28.962s-12.0966764 28.1718721-27.5158989 28.962c.4973333.0253333.9973333.038 1.5.038 16.0162576-.0000002 28.9999996-12.9837424 28.9999996-29s-12.983742-28.99999976-28.9999996-29z" fill="#c81e1e"/><path id="Shape" d="m19.83 35.35c-3.5168217-3.759543-6.1657879-8.2450346-7.76-13.14-.0883325-.2930246-.0917998-.605085-.01-.9l1.5-5.52c.0775202-.2736392.2258419-.5219918.43-.72l2.58-2.59c.6409955-.6398164 1.6790045-.6398164 2.32 0l5.79 5.79c.6398164.6409955.6398164 1.6790045 0 2.32l-4.32 4.32c-.2030731.1921225-.2871132.4786228-.22.75.5937616 2.2713662 1.6908401 4.3800808 3.21 6.17z" fill="#60a917"/><path id="Shape" d="m26.17 34.65c1.7899192 1.5191599 3.8986338 2.6162384 6.17 3.21.2713772.0671132.5578775-.0169269.75-.22l4.32-4.32c.6409955-.6398164 1.6790045-.6398164 2.32 0l5.79 5.79c.6398164.6409955.6398164 1.6790045 0 2.32l-2.59 2.58c-.1980082.2041581-.4463608.3524798-.72.43l-5.52 1.5c-.294915.0817998-.6069754.0783325-.9-.01-4.8949654-1.5942121-9.380457-4.2431783-13.14-7.76z" fill="#60a917"/><path id="Shape" d="m45.52 39.11-5.79-5.79c-.6409955-.6398164-1.6790045-.6398164-2.32 0l-.34.34 5.45 5.45c.6398164.6409955.6398164 1.6790045 0 2.32l-2.59 2.58c-.1980082.2041581-.4463608.3524798-.72.43l-4.365 1.186c.388.134.712.236.945.3.2930246.0883325.605085.0917998.9.01l5.52-1.5c.2736392-.0775202.5219918-.2258419.72-.43l2.59-2.58c.6371592-.6405324.6371592-1.6754676 0-2.316z" fill="#549414"/></g><g id="Icons_copy" fill="#000"><path id="Shape" d="m30 0c-16.5685425 0-30 13.4314575-30 30s13.4314575 30 30 30 30-13.4314575 30-30c-.0203864-16.5600908-13.4399092-29.97961358-30-30zm0 58c-15.463973 0-28-12.536027-28-28s12.536027-28 28-28 28 12.536027 28 28c-.0170846 15.4568908-12.5431092 27.9829154-28 28z"/><path id="Shape" d="m50.51 14.04c-.3507984-.4389899-.8694198-.7109941-1.43-.75-.5770637-.0327283-1.1407585.1818394-1.55.59l-33.65 33.65c-.4081606.4092415-.6227283.9729363-.59 1.55.0390059.5605802.3110101 1.0792016.75 1.43 4.5666243 3.5656567 10.1962195 5.4985196 15.99 5.49.71 0 1.42-.03 2.14-.09 9.5082573-.7918662 17.8178829-6.7306937 21.6459973-15.4702331 3.8281145-8.7395394 2.5589838-18.8740772-3.3059973-26.3997669zm-23.26 22.93c1.7368846 1.3325668 3.7223656 2.3049084 5.84 2.86.6148435.1591202 1.267777-.0241594 1.71-.48l2.45-2.46.46.46c.2536586.2518723.622421.3492866.9673781.2555479.344957-.0937386.6137015-.3643891.705-.71.0912984-.3456109-.0087195-.7136757-.2623781-.9655479l-.45-.45.45-.45c.1190331-.119938.2810207-.187395.45-.187395s.3309669.067457.45.187395l5.79 5.79c.119938.1190331.187395.2810207.187395.45s-.067457.3309669-.187395.45l-.45.45-3.65-3.65c-.3930079-.3899779-1.0269921-.3899779-1.42 0-.3877236.3900375-.3877236 1.0199625 0 1.41l3.66 3.65-.74.74c-.0739603.0716574-.1627014.1262673-.26.16l-5.52 1.49c-.1166667.04-.2433333.04-.36 0-4.4163671-1.4341831-8.4883388-3.7663742-11.96-6.85zm26.67-4.96c-.3531577 4.2346014-1.8383278 8.296369-4.3 11.76-3.7557781 5.3854584-9.5606805 8.9897436-16.0532164 9.967501s-13.1014884-.7570367-18.2767836-4.797501l8.4-8.41c3.7146174 3.3081779 8.0722393 5.8138104 12.8 7.36.2470603.0714842.5028103.1085006.76.11.2369729.0011485.4728276-.0325451.7-.1l5.54-1.5c.4350641-.1248554.8309499-.3589444 1.15-.68l1.42-1.42c0-.0055228.0044772-.01.01-.01l1.16-1.15c1.0297892-1.0340064 1.0297892-2.7059936 0-3.74l-5.79-5.79c-1.0340064-1.0297892-2.7059936-1.0297892-3.74 0l-4.24 4.25c-1.7223382-.4681427-3.3430265-1.2513623-4.78-2.31l20.25-20.28c3.7093282 4.7539125 5.4910366 10.7310266 4.99 16.74z"/><path id="Shape" d="m45.96 9.49c-10.3445199-8.06048767-25.073848-7.15003648-34.3469422 2.1230578-9.27309428 9.2730942-10.18354547 24.0024223-2.1230578 34.3469422.35079839.4389899.8694198.7109941 1.43.75h.13c.5329123-.0002413 1.0438267-.2125227 1.42-.59l33.65-33.65c.4081606-.4092415.6227283-.9729363.59-1.55-.0390059-.5605802-.3110101-1.07920161-.75-1.43zm-25.07 25.41c-3.0933947-3.4793805-5.4325345-7.5618093-6.87-11.99-.0300702-.1113387-.0300702-.2286613 0-.34l1.5-5.5c.0303368-.1121946.092921-.2130247.18-.29l.72-.73 3.65 3.66c.190164.1849909.4447023.2889572.71.29.4044441-.0016958.7680455-.2468472.9212679-.6211476s.0658935-.8040433-.2212679-1.0888524l-3.65-3.65.45-.45c.1190331-.119938.2810207-.187395.45-.187395s.3309669.067457.45.187395l5.79 5.79c.119938.1190331.187395.2810207.187395.45s-.067457.3309669-.187395.45l-.45.45-.45-.45c-.3930079-.3899779-1.0269921-.3899779-1.42 0-.3877236.3900375-.3877236 1.0199625 0 1.41l.46.46-2.44 2.44c-.4656789.432177-.657545 1.0845219-.5 1.7.5495545 2.1257891 1.5222889 4.1188744 2.86 5.86zm23.82-23.84-20.25 20.27c-1.0641236-1.4387154-1.8508812-3.0630985-2.32-4.79l4.25-4.24c1.0297892-1.0340064 1.0297892-2.7059936 0-3.74l-5.79-5.79c-1.0340064-1.0297892-2.7059936-1.0297892-3.74 0l-1.15 1.16c0 .0055228-.0044772.01-.01.01l-1.4 1.41c-.3365925.3221246-.5786608.7301827-.7 1.18l-1.51 5.52c-.1287827.4723426-.1218511.9714162.02 1.44 1.5408485 4.7391084 4.046848 9.1075832 7.36 12.83l-8.4 8.41c-5.37741088-6.9547471-6.52934191-16.2902659-3.00380853-24.3435677 3.52553343-8.0533017 11.16611803-13.53967785 19.92380853-14.3064323.66-.05 1.33-.08 1.98-.08 5.3395764-.01092489 10.5289462 1.76697996 14.74 5.05z"/></g></g></g></svg>