<?xml version="1.0" encoding="utf-8"?>
<svg width="70px" height="70px" viewbox="0 0 70 70" version="1.1" xmlns:xlink="http://www.w3.org/1999/xlink" xmlns="http://www.w3.org/2000/svg">
  <defs>
    <path d="M0 0L70 0L70 69.9978L0 69.9978L0 0Z" id="path_1" />
    <clipPath id="mask_1">
      <use xlink:href="#path_1" />
    </clipPath>
  </defs>
  <g id="checkmark">
    <path d="M0 0L70 0L70 69.9978L0 69.9978L0 0Z" id="Background" fill="none" fill-rule="evenodd" stroke="none" />
    <g clip-path="url(#mask_1)">
      <path d="M32.0825 64.1645C14.3935 64.1645 0 49.7715 0 32.0825C0 14.3935 14.3935 0 32.0825 0C38.2336 0 44.2181 1.75272 49.3892 5.07179C50.4044 5.72545 50.7018 7.07871 50.0482 8.09659C49.3924 9.11448 48.0418 9.40873 47.0239 8.7556C42.5615 5.88833 37.3935 4.37486 32.0825 4.37486C16.8052 4.37486 4.37486 16.8052 4.37486 32.0825C4.37486 47.3593 16.8052 59.7896 32.0825 59.7896C47.3593 59.7896 59.7896 47.3593 59.7896 32.0825C59.7896 31.1693 59.7458 30.2652 59.6614 29.376C59.545 28.1712 60.4257 27.1036 61.6273 26.9872C62.8347 26.8761 63.8991 27.7514 64.016 28.953C64.1148 29.9827 64.1645 31.0267 64.1645 32.0825C64.1645 49.7715 49.7715 64.1645 32.0825 64.1645L32.0825 64.1645Z" transform="translate(0 2.8720703)" id="Shape" fill="#006C76" fill-rule="evenodd" stroke="none" />
      <path d="M15.311 36.4563C14.7513 36.4563 14.1911 36.2432 13.7654 35.8149L0.640849 22.6903C-0.213616 21.8353 -0.213616 20.45 0.640849 19.5956C1.49531 18.7411 2.88062 18.7411 3.73508 19.5956L15.3142 31.1746L45.8474 0.640849C46.7024 -0.213616 48.0877 -0.213616 48.9422 0.640849C49.7966 1.49531 49.7966 2.88062 48.9422 3.73508L16.8597 35.8176C16.4308 36.2432 15.8712 36.4563 15.311 36.4563L15.311 36.4563Z" transform="translate(20.416992 5.789551)" id="Shape" fill="#006C76" fill-rule="evenodd" stroke="none" />
    </g>
  </g>
</svg>