<?xml version="1.0" encoding="utf-8"?>
<svg width="50px" height="50px" viewbox="0 0 50 50" version="1.1" xmlns:xlink="http://www.w3.org/1999/xlink" xmlns="http://www.w3.org/2000/svg">
  <defs>
    <path d="M0 0L40 0L40 40L0 40L0 0Z" id="path_1" />
    <rect width="50" height="50" id="artboard_1" />
    <clipPath id="clip_1">
      <use xlink:href="#artboard_1" clip-rule="evenodd" />
    </clipPath>
    <clipPath id="mask_1">
      <use xlink:href="#path_1" />
    </clipPath>
  </defs>
  <g id="Pixelbook" clip-path="url(#clip_1)">
    <g id="health-service" transform="translate(5 5)">
      <path d="M0 0L40 0L40 40L0 40L0 0Z" id="Background" fill="none" fill-rule="evenodd" stroke="none" />
      <g clip-path="url(#mask_1)">
        <g id="Group" transform="translate(1.2453213 1.2453203)">
          <path d="M22.2257 2.6214C22.088 2.73573 21.9818 2.92993 21.9818 3.1706C21.9818 5.24648 20.299 6.92933 18.223 6.92933C16.1472 6.92933 14.4643 5.24648 14.4643 3.1706C14.4643 2.92993 14.3581 2.73573 14.2204 2.6214C14.092 2.51476 13.9431 2.47786 13.7757 2.5252C12.4868 2.88958 11.2625 3.40858 10.124 4.06118C10.01 4.12656 9.951 4.22408 9.93931 4.35218C9.92665 4.49116 9.97484 4.65913 10.1111 4.79541C11.579 6.26328 11.579 8.64318 10.1111 10.1111C8.64325 11.5789 6.26335 11.5789 4.79546 10.1111C4.65918 9.9748 4.49121 9.92658 4.35223 9.93925C4.22411 9.95093 4.1266 10.0099 4.06121 10.124C3.40861 11.2625 2.8896 12.4867 2.52521 13.7756C2.47786 13.9431 2.51478 14.0919 2.6214 14.2204C2.73575 14.3581 2.92995 14.4643 3.17061 14.4643C5.2465 14.4643 6.92935 16.1472 6.92935 18.223C6.92935 20.2988 5.2465 21.9818 3.17061 21.9818C2.92993 21.9818 2.73571 22.088 2.62138 22.2257C2.51478 22.354 2.47786 22.503 2.5252 22.6703C2.93168 24.1082 3.5306 25.4657 4.29275 26.7132C4.35988 26.8232 4.45773 26.88 4.58495 26.89C4.72245 26.9007 4.88718 26.8518 5.0207 26.7183C6.53228 25.2067 8.98303 25.2067 10.4946 26.7183C12.0387 28.2623 12.0006 30.7773 10.4103 32.274C10.3455 32.335 10.3284 32.4048 10.3329 32.4547C10.3351 32.4787 10.3418 32.4932 10.3464 32.5003C10.3494 32.505 10.3567 32.5157 10.3812 32.5292C11.4462 33.1143 12.5833 33.5838 13.7757 33.9208C13.9431 33.9682 14.092 33.9313 14.2204 33.8247C14.3581 33.7103 14.4643 33.5162 14.4643 33.2755C14.4643 32.5852 15.0239 32.0255 15.7143 32.0255C16.4047 32.0255 16.9643 32.5852 16.9643 33.2755C16.9643 35.2073 15.1955 36.9202 13.0956 36.3265C11.7187 35.9373 10.4061 35.3953 9.17741 34.7203C7.5034 33.8007 7.45365 31.6235 8.697 30.4533C9.26013 29.9235 9.27365 29.0328 8.72684 28.486C8.19158 27.9508 7.32373 27.9508 6.78846 28.486C5.50611 29.7683 3.21858 29.7505 2.15931 28.0165C1.28031 26.5775 0.588879 25.0108 0.119482 23.3505C-0.474156 21.2507 1.23868 19.4818 3.17061 19.4818C3.8658 19.4818 4.42935 18.9182 4.42935 18.223C4.42935 17.5278 3.8658 16.9643 3.17061 16.9643C1.23863 16.9643 -0.474138 15.1953 0.119495 13.0955C0.540279 11.6072 1.13948 10.194 1.89228 8.8807C2.92211 7.08413 5.26001 7.04008 6.56323 8.3433C7.05479 8.83486 7.85178 8.83486 8.34335 8.3433C8.83491 7.85173 8.83491 7.05475 8.34335 6.56318C7.04015 5.25996 7.0842 2.92206 8.88076 1.89225C10.194 1.13945 11.6072 0.540246 13.0955 0.119484C15.1953 -0.474149 16.9643 1.23861 16.9643 3.1706C16.9643 3.86578 17.5278 4.42933 18.223 4.42933C18.9182 4.42933 19.4818 3.86578 19.4818 3.1706C19.4818 1.23861 21.2507 -0.474149 23.3505 0.119484C24.8388 0.540246 26.252 1.13945 27.5653 1.89225C29.3618 2.92206 29.406 5.25996 28.1027 6.56318C27.6112 7.05475 27.6112 7.85173 28.1027 8.3433C28.5943 8.83486 29.3913 8.83486 29.8828 8.3433C31.186 7.04008 33.524 7.08413 34.5538 8.8807C35.3067 10.194 35.9058 11.6072 36.3265 13.0955C36.9202 15.1953 35.2075 16.9643 33.2755 16.9643C32.8603 16.9643 32.4922 17.1638 32.2608 17.4777C31.8513 18.0335 31.0688 18.1518 30.513 17.7423C29.9573 17.3327 29.8388 16.5502 30.2485 15.9945C30.9307 15.0688 32.0327 14.4643 33.2755 14.4643C33.5162 14.4643 33.7103 14.3581 33.8247 14.2204C33.9313 14.0919 33.9682 13.9431 33.9208 13.7756C33.5565 12.4867 33.0375 11.2625 32.3848 10.124C32.3195 10.0099 32.222 9.95093 32.0938 9.93924C31.9548 9.92658 31.7868 9.97479 31.6507 10.1111C30.1827 11.5789 27.8028 11.5789 26.335 10.1111C24.867 8.64318 24.867 6.26328 26.335 4.79539C26.4712 4.65913 26.5195 4.49116 26.5068 4.35218C26.495 4.22408 26.4362 4.12656 26.322 4.06118C25.1835 3.40858 23.9593 2.88958 22.6703 2.52519C22.503 2.47786 22.3542 2.51476 22.2257 2.62139L22.2257 2.6214Z" id="Shape" fill="#006C76" fill-rule="evenodd" stroke="none" />
          <path d="M0.667058 4.64811C1.68474 4.11131 2.07457 2.85114 1.53774 1.83344C1.21566 1.22283 1.44956 0.466726 2.06018 0.144643C2.67078 -0.177457 3.42689 0.0564432 3.74904 0.667059C4.93004 2.90598 4.07238 5.67844 1.83344 6.85928C1.22284 7.18144 0.466726 6.94761 0.144643 6.33694C-0.177457 5.72628 0.0564432 4.97028 0.667059 4.64811L0.667058 4.64811Z" transform="translate(11.809805 10.975236)" id="Shape" fill="#006C76" fill-rule="evenodd" stroke="none" />
          <path d="M6.66667 0C5.05583 0 3.75 1.30583 3.75 2.91667L3.75 3.75L2.91667 3.75C1.30583 3.75 0 5.05583 0 6.66667L0 10.8333C0 12.4442 1.30583 13.75 2.91667 13.75L3.75 13.75L3.75 14.5833C3.75 16.1942 5.05583 17.5 6.66667 17.5L10.8333 17.5C12.4442 17.5 13.75 16.1942 13.75 14.5833L13.75 13.75L14.5833 13.75C16.1942 13.75 17.5 12.4442 17.5 10.8333L17.5 6.66667C17.5 5.05583 16.1942 3.75 14.5833 3.75L13.75 3.75L13.75 2.91667C13.75 1.30583 12.4442 0 10.8333 0L6.66667 0Z" transform="translate(19.171347 19.171345)" id="Shape" fill="#006C76" fill-rule="evenodd" stroke="none" />
        </g>
      </g>
    </g>
  </g>
</svg>