<svg width="31" height="31" viewBox="0 0 31 31" fill="none" xmlns="http://www.w3.org/2000/svg">
<path d="M30.803 14.897C30.526 14.5182 23.9274 5.62088 15.4998 5.62088C7.07225 5.62088 0.473356 14.5182 0.196717 14.8967C-0.0655724 15.2561 -0.0655724 15.7436 0.196717 16.103C0.473356 16.4818 7.07225 25.3791 15.4998 25.3791C23.9274 25.3791 30.526 16.4817 30.803 16.1033C31.0656 15.7439 31.0656 15.2561 30.803 14.897ZM15.4998 23.3352C9.29203 23.3352 3.91539 17.4298 2.32379 15.4993C3.91333 13.5671 9.2787 7.66483 15.4998 7.66483C21.7074 7.66483 27.0836 13.5691 28.6759 15.5007C27.0864 17.4329 21.721 23.3352 15.4998 23.3352Z" fill="black"/>
<path d="M15.4996 9.36813C12.1185 9.36813 9.36768 12.119 9.36768 15.5C9.36768 18.8811 12.1185 21.6319 15.4996 21.6319C18.8806 21.6319 21.6315 18.8811 21.6315 15.5C21.6315 12.119 18.8806 9.36813 15.4996 9.36813ZM15.4996 19.5879C13.2454 19.5879 11.4117 17.7541 11.4117 15.5C11.4117 13.2459 13.2455 11.4121 15.4996 11.4121C17.7537 11.4121 19.5875 13.2459 19.5875 15.5C19.5875 17.7541 17.7537 19.5879 15.4996 19.5879Z" fill="black"/>
</svg>
