<svg width="100" height="50" viewBox="0 0 100 50" fill="none" xmlns="http://www.w3.org/2000/svg">
<rect width="100" height="50" rx="25" fill="url(#paint0_linear)"/>
<g clip-path="url(#clip0)">
<path d="M38.2407 25.5167L45.6389 18.1182C46.1204 17.637 46.1204 16.8589 45.6389 16.3776C45.1577 15.8964 44.3796 15.8964 43.8983 16.3776L36.4999 23.7761L29.1017 16.3776C28.6202 15.8964 27.8423 15.8964 27.3611 16.3776C26.8796 16.8589 26.8796 17.637 27.3611 18.1182L34.7593 25.5167L27.3611 32.9151C26.8796 33.3963 26.8796 34.1744 27.3611 34.6557C27.6009 34.8957 27.9163 35.0163 28.2314 35.0163C28.5465 35.0163 28.8616 34.8957 29.1017 34.6557L36.4999 27.2572L43.8983 34.6557C44.1384 34.8957 44.4535 35.0163 44.7686 35.0163C45.0837 35.0163 45.3989 34.8957 45.6389 34.6557C46.1204 34.1744 46.1204 33.3963 45.6389 32.9151L38.2407 25.5167Z" fill="white"/>
</g>
<defs>
<linearGradient id="paint0_linear" x1="-10.5" y1="11.6667" x2="41.602" y2="59.2043" gradientUnits="userSpaceOnUse">
<stop stop-color="#077883"/>
<stop offset="1" stop-color="#2EC2D0"/>
</linearGradient>
<clipPath id="clip0">
<rect width="19" height="19" fill="white" transform="translate(27 16)"/>
</clipPath>
</defs>
</svg>
