<?xml version="1.0" encoding="utf-8"?>
<!-- Generator: Adobe Illustrator 21.0.0, SVG Export Plug-In . SVG Version: 6.00 Build 0)  -->
<svg version="1.1" id="Layer_1" xmlns="http://www.w3.org/2000/svg" xmlns:xlink="http://www.w3.org/1999/xlink" x="0px" y="0px"
	 viewBox="0 0 30 30" style="enable-background:new 0 0 30 30;" xml:space="preserve">
<style type="text/css">
	.st0{fill:#FFFFFF;stroke:#006C76;}
	.st1{fill:none;}
	.st2{fill:#006C76;}
</style>
<desc>Created with Lunacy</desc>
<path id="Ellipse" class="st0" d="M0.5,15C0.5,7,7,0.5,15,0.5C23,0.5,29.5,7,29.5,15c0,8-6.5,14.5-14.5,14.5C7,29.5,0.5,23,0.5,15z"
	/>
<path id="Background" class="st1" d="M5,2h20v20H5V2z"/>
<rect x="5" y="2" class="st1" width="20" height="20"/>
<g>
	<path id="Shape" class="st2" d="M16,17H14c-0.6,0-1-0.5-1-1v-4.8h-2.3c-0.5,0-0.8-0.7-0.5-1.1l4.4-4.6c0.2-0.2,0.7-0.2,0.9,0
		l4.4,4.6c0.4,0.4,0.1,1.1-0.5,1.1h-2.3V16C17.1,16.5,16.6,17,16,17L16,17z"/>
	<path id="Shape_1_" class="st2" d="M22.5,22h-15C6.1,22,5,20.9,5,19.5v-4.2c0-1.4,1.1-2.5,2.5-2.5h1.3c0.5,0,0.8,0.4,0.8,0.8
		c0,0.5-0.4,0.8-0.8,0.8H7.5c-0.5,0-0.8,0.4-0.8,0.8v4.2c0,0.5,0.4,0.8,0.8,0.8h15c0.5,0,0.8-0.4,0.8-0.8v-4.2
		c0-0.5-0.4-0.8-0.8-0.8h-1.3c-0.5,0-0.8-0.4-0.8-0.8c0-0.5,0.4-0.8,0.8-0.8h1.3c1.4,0,2.5,1.1,2.5,2.5v4.2C25,20.9,23.9,22,22.5,22
		L22.5,22z"/>
</g>
</svg>
