<?xml version="1.0" encoding="utf-8"?>
<svg width="45px" height="45px" viewbox="0 0 45 45" version="1.1" xmlns:xlink="http://www.w3.org/1999/xlink" xmlns="http://www.w3.org/2000/svg">
  <defs>
    <path d="M0 0L45 0L45 45L0 45L0 0Z" id="path_1" />
    <clipPath id="mask_1">
      <use xlink:href="#path_1" />
    </clipPath>
  </defs>
  <g id="smartphone-2">
    <path d="M0 0L45 0L45 45L0 45L0 0Z" id="Background" fill="none" fill-rule="evenodd" stroke="none" />
    <g clip-path="url(#mask_1)">
      <path d="M21.5032 43.6816L4.47811 43.6816C2.00496 43.6816 0 41.6767 0 39.2035L0 4.47811C0 2.00496 2.00487 0 4.47811 0L21.5033 0C23.9764 0 25.9814 2.00487 25.9814 4.47811L25.9814 39.2034C25.9813 41.6767 23.9764 43.6816 21.5032 43.6816L21.5032 43.6816Z" transform="translate(9.509338 0.6591797)" id="Shape" fill="#495059" fill-rule="evenodd" stroke="none" />
      <path d="M6.66095 0L4.47811 0C2.00496 0 0 2.00496 0 4.47811L0 39.2035C0 41.6766 2.00487 43.6816 4.47811 43.6816L21.5033 43.6816C23.2773 43.6816 24.8102 42.6499 25.5352 41.1538C5.11698 34.3673 5.41818 5.77185 6.66095 0L6.66095 0Z" transform="translate(9.509338 0.6591797)" id="Shape" fill="#000000" fill-opacity="0.15" fill-rule="evenodd" stroke="none" />
      <path d="M13.9794 0.65329L13.8132 1.29058C13.7041 1.70903 13.3261 2.001 12.8937 2.001L7.96868 2.001C7.53626 2.001 7.15833 1.70903 7.04917 1.29058L6.88296 0.65329C6.78259 0.268505 6.43508 0 6.03746 0L1.92234 0C0.860623 0 0 0.860711 0 1.92234L0 36.6402C0 37.7019 0.860711 38.5626 1.92234 38.5626L18.94 38.5626C20.0018 38.5626 20.8624 37.7018 20.8624 36.6402L20.8624 1.92234C20.8624 0.860623 20.0017 0 18.94 0L14.8249 0C14.4273 -3.35276e-07 14.0798 0.268505 13.9794 0.65329L13.9794 0.65329Z" transform="translate(12.068756 3.2186584)" id="Shape" fill="#7397DA" fill-rule="evenodd" stroke="none" />
      <path d="M1.92251 24.4791L18.9402 24.4791C20.0019 24.4791 20.8626 23.6184 20.8626 22.5567L20.8626 1.52508C17.9322 0.598711 14.5893 0 10.4313 0C6.27327 0 2.93036 0.598709 0 1.52508L0 22.5566C8.58305e-05 23.6184 0.860797 24.4791 1.92251 24.4791L1.92251 24.4791Z" transform="translate(12.0686035 17.30223)" id="Shape" fill="#A8D1EC" fill-rule="evenodd" stroke="none" />
      <path d="M1.92243 20.8064L18.9401 20.8064C20.0018 20.8064 20.8625 19.9457 20.8625 18.8841L20.8625 1.52508C17.9321 0.598711 14.5892 0 10.4312 0C6.27318 0 2.93036 0.598711 0 1.52508L0 18.8841C0 19.9457 0.860711 20.8064 1.92243 20.8064L1.92243 20.8064Z" transform="translate(12.068756 20.974884)" id="Shape" fill="#FFFFFF" fill-rule="evenodd" stroke="none" />
      <g id="Group" transform="translate(14.044922 9.851715)">
        <path d="M0 1.81485C0 0.812536 1.02034 0 2.279 0C3.53766 0 4.558 0.812536 4.558 1.81485C4.558 2.81716 3.53766 3.6297 2.279 3.6297C1.02034 3.6297 0 2.81716 0 1.81485Z" id="Ellipse" fill="#F8B8BD" fill-rule="evenodd" stroke="none" />
        <path d="M0 1.81485C0 0.812536 1.02034 0 2.279 0C3.53765 0 4.558 0.812536 4.558 1.81485C4.558 2.81716 3.53765 3.6297 2.279 3.6297C1.02034 3.6297 0 2.81716 0 1.81485Z" transform="translate(12.352066 0)" id="Ellipse" fill="#F8B8BD" fill-rule="evenodd" stroke="none" />
      </g>
      <path d="M1.65111 3.30222L1.65111 3.30222C0.739246 3.30222 0 2.56297 0 1.65111L0 0.450702C0 0.201796 0.201797 0 0.450703 0L2.85152 0C3.10042 0 3.30222 0.201796 3.30222 0.450702L3.30222 1.65111C3.30222 2.56306 2.56297 3.30222 1.65111 3.30222L1.65111 3.30222Z" transform="translate(20.848877 8.62056)" id="Shape" fill="#495059" fill-rule="evenodd" stroke="none" />
      <path d="M20.5731 37.6544C4.5769 30.4082 3.06228 8.62865 3.7611 0L1.92234 0C0.860623 0 0 0.860711 0 1.92234L0 36.6402C0 37.7019 0.860711 38.5626 1.92234 38.5626L18.94 38.5626C19.6295 38.5626 20.2339 38.1995 20.5731 37.6544L20.5731 37.6544Z" transform="translate(12.068756 3.2186584)" id="Shape" fill="#003A63" fill-opacity="0.15" fill-rule="evenodd" stroke="none" />
      <path d="M10.783 3.98337L7.60744 3.98337L7.60744 0.807888C7.60744 0.361668 7.24578 0 6.79956 0L4.79135 0C4.34513 0 3.98346 0.361668 3.98346 0.807888L3.98346 3.98337L0.807889 3.98337C0.36167 3.98337 0 4.34504 0 4.79126L0 6.79947C0 7.24569 0.361757 7.60735 0.807889 7.60735L3.98346 7.60735L3.98346 10.7829C3.98346 11.2291 4.34513 11.5908 4.79135 11.5908L6.79956 11.5908C7.24578 11.5908 7.60744 11.2291 7.60744 10.7829L7.60744 7.60735L10.783 7.60735C11.2292 7.60735 11.5909 7.2456 11.5909 6.79947L11.5909 4.79126C11.5909 4.34513 11.2292 3.98337 10.783 3.98337L10.783 3.98337Z" transform="translate(16.704437 24.414368)" id="Shape" fill="#E68392" fill-rule="evenodd" stroke="none" />
      <path d="M4.79135 7.60736L6.79947 7.60736C7.24569 7.60736 7.60736 7.24569 7.60736 6.79947L7.60736 6.0945C6.01329 4.23307 4.69792 2.16843 3.61678 0L0.807889 0C0.36167 0 0 0.361668 0 0.807888L0 2.8161C0 3.26232 0.361757 3.62398 0.807889 3.62398L3.98346 3.62398L3.98346 6.79947C3.98346 7.24569 4.34513 7.60736 4.79135 7.60736L4.79135 7.60736Z" transform="translate(16.704437 28.483093)" id="Shape" fill="#8D4330" fill-opacity="0.15" fill-rule="evenodd" stroke="none" />
      <path d="M7.85454 7.88585C7.49041 7.88585 7.19536 8.18099 7.19536 8.54503L7.19536 9.52325C7.19536 9.88729 7.49041 10.1824 7.85454 10.1824C8.21867 10.1824 8.51371 9.88729 8.51371 9.52325L8.51371 8.54503C8.51371 8.1809 8.21858 7.88585 7.85454 7.88585L7.85454 7.88585ZM19.4454 10.1824C19.8094 10.1824 20.1046 9.88729 20.1046 9.52325L20.1046 8.54503C20.1046 8.18099 19.8094 7.88585 19.4454 7.88585C19.0813 7.88585 18.7862 8.18099 18.7862 8.54503L18.7862 9.52325C18.7862 9.88729 19.0813 10.1824 19.4454 10.1824L19.4454 10.1824ZM16.1241 2.95729C16.1241 2.60836 15.8412 2.32553 15.4922 2.32553C15.1433 2.32553 14.8604 2.60845 14.8604 2.95729C14.8604 3.30621 15.1433 3.58913 15.4922 3.58913C15.8412 3.58913 16.1241 3.30621 16.1241 2.95729L16.1241 2.95729ZM14.654 23.7551L12.6459 23.7551C11.8369 23.7551 11.1788 24.4132 11.1788 25.2222L11.1788 27.7385L8.66243 27.7385C7.85348 27.7385 7.19536 28.3966 7.19536 29.2056L7.19536 31.2137C7.19536 32.0226 7.85348 32.6807 8.66243 32.6807L11.1788 32.6807L11.1788 35.197C11.1788 36.006 11.8369 36.6641 12.6459 36.6641L14.654 36.6641C15.463 36.6641 16.1211 36.006 16.1211 35.197L16.1211 32.6807L18.6375 32.6807C19.4464 32.6807 20.1045 32.0226 20.1045 31.2137L20.1045 29.2056C20.1045 28.3966 19.4464 27.7385 18.6375 27.7385L16.1211 27.7385L16.1211 25.2222C16.1211 24.4133 15.4629 23.7551 14.654 23.7551L14.654 23.7551ZM18.6375 29.0569C18.7196 29.0569 18.7862 29.1236 18.7862 29.2056L18.7862 31.2137C18.7862 31.2957 18.7195 31.3625 18.6375 31.3625L15.4619 31.3625C15.0978 31.3625 14.8027 31.6576 14.8027 32.0216L14.8027 35.1971C14.8027 35.2791 14.736 35.3458 14.654 35.3458L12.6459 35.3458C12.5638 35.3458 12.4972 35.2791 12.4972 35.1971L12.4972 32.0216C12.4972 31.6576 12.2021 31.3625 11.838 31.3625L8.66243 31.3625C8.58034 31.3625 8.51372 31.2957 8.51372 31.2137L8.51372 29.2056C8.51372 29.1236 8.58043 29.0569 8.66243 29.0569L11.838 29.0569C12.2021 29.0569 12.4972 28.7618 12.4972 28.3977L12.4972 25.2223C12.4972 25.1403 12.5639 25.0735 12.6459 25.0735L14.654 25.0735C14.7361 25.0735 14.8027 25.1403 14.8027 25.2223L14.8027 28.3977C14.8027 28.7618 15.0978 29.0569 15.4619 29.0569L18.6375 29.0569L18.6375 29.0569ZM26.6407 7.37419C27.0048 7.37419 27.2998 7.07905 27.2998 6.71501L27.2998 5.13729C27.2998 2.30458 24.9953 0 22.1625 0L5.13729 0C2.30458 0 0 2.30458 0 5.13729L0 39.8627C0 42.6954 2.30458 45 5.13729 45L22.1625 45C24.9952 45 27.2997 42.6954 27.2997 39.8627L27.2997 9.85129C27.2997 9.48725 27.0047 9.19211 26.6406 9.19211C26.2764 9.19211 25.9814 9.48725 25.9814 9.85129L25.9814 39.8626C25.9814 41.9684 24.2682 43.6816 22.1625 43.6816L5.13729 43.6816C3.03152 43.6816 1.31836 41.9684 1.31836 39.8626L1.31836 5.13729C1.31836 3.03152 3.03152 1.31836 5.13729 1.31836L22.1625 1.31836C24.2682 1.31836 25.9814 3.03152 25.9814 5.13729L25.9814 6.71509C25.9815 7.07905 26.2765 7.37419 26.6407 7.37419L26.6407 7.37419ZM15.9603 10.2717L15.9603 9.07126C15.9603 8.45928 15.4624 7.96138 14.8504 7.96138L12.4496 7.96138C11.8376 7.96138 11.3397 8.45928 11.3397 9.07126L11.3397 10.2717C11.3397 11.5456 12.3761 12.582 13.65 12.582C14.9238 12.582 15.9603 11.5456 15.9603 10.2717L15.9603 10.2717ZM12.658 10.2717L12.658 9.27974L14.6419 9.27974L14.6419 10.2717C14.6419 10.8186 14.1969 11.2636 13.65 11.2636C13.103 11.2636 12.658 10.8186 12.658 10.2717L12.658 10.2717ZM15.5195 38.7961L11.7802 38.7961C11.4162 38.7961 11.121 39.0912 11.121 39.4553C11.121 39.8193 11.4162 40.1144 11.7802 40.1144L15.5195 40.1144C15.8837 40.1144 16.1787 39.8193 16.1787 39.4553C16.1787 39.0912 15.8837 38.7961 15.5195 38.7961L15.5195 38.7961ZM3.21858 30.6325C2.85445 30.6325 2.5594 30.9276 2.5594 31.2917L2.5594 39.8589C2.5594 41.2823 3.71754 42.4405 5.14092 42.4405L22.1587 42.4405C23.5821 42.4405 24.7402 41.2824 24.7402 39.8589L24.7402 22.5059C24.7402 22.5036 24.7402 22.5014 24.7402 22.4991L24.7402 18.8332C24.7402 18.8309 24.7402 18.8287 24.7402 18.8264L24.7402 5.14108C24.7402 3.7176 23.5821 2.55947 22.1587 2.55947L18.0436 2.55947C17.3461 2.55947 16.7361 3.03083 16.5603 3.70556L16.3939 4.34294C16.3605 4.471 16.2447 4.56047 16.1123 4.56047L11.1873 4.56047C11.0549 4.56047 10.9391 4.471 10.9057 4.34286L10.7395 3.70565C10.5635 3.03083 9.95354 2.55947 9.25604 2.55947L5.14092 2.55947C3.71753 2.55947 2.5594 3.71752 2.5594 5.14108L2.5594 18.8265C2.5594 18.8288 2.5594 18.831 2.5594 18.8333L2.5594 22.4992C2.5594 22.5015 2.5594 22.5037 2.5594 22.5059L2.5594 28.1737C2.5594 28.5377 2.85445 28.8328 3.21858 28.8328C3.58271 28.8328 3.87776 28.5377 3.87776 28.1737L3.87776 22.9882C6.92141 22.0782 10.1235 21.6342 13.6499 21.6342C17.1762 21.6342 20.3782 22.0782 23.422 22.9882L23.422 39.859C23.422 40.5556 22.8553 41.1223 22.1588 41.1223L5.14101 41.1223C4.44448 41.1223 3.87785 40.5557 3.87785 39.859L3.87785 31.2917C3.87776 30.9276 3.58271 30.6325 3.21858 30.6325L3.21858 30.6325ZM3.87785 5.14108C3.87785 4.44455 4.44448 3.87783 5.14101 3.87783L9.25613 3.87783C9.35378 3.87783 9.43912 3.94375 9.46381 4.03832L9.63002 4.67552C9.81485 5.38401 10.4552 5.87883 11.1874 5.87883L16.1124 5.87883C16.8446 5.87883 17.485 5.38401 17.6697 4.67561L17.8361 4.03823C17.8607 3.94375 17.946 3.87783 18.0437 3.87783L22.1588 3.87783C22.8553 3.87783 23.422 4.44446 23.422 5.14108L23.422 17.9423C20.3676 17.0697 17.1612 16.643 13.6499 16.643C10.1386 16.643 6.93213 17.0697 3.87776 17.9423L3.87785 5.14108L3.87785 5.14108L3.87785 5.14108ZM13.6499 20.3157C10.1386 20.3157 6.93213 20.7424 3.87776 21.615L3.87776 19.3155C6.92141 18.4054 10.1235 17.9614 13.6499 17.9614C17.1762 17.9614 20.3782 18.4054 23.422 19.3155L23.422 21.615C20.3677 20.7424 17.1612 20.3157 13.6499 20.3157L13.6499 20.3157ZM11.8371 3.61656L13.3086 3.61656C13.6728 3.61656 13.9678 3.32142 13.9678 2.95738C13.9678 2.59334 13.6728 2.2982 13.3086 2.2982L11.8371 2.2982C11.4729 2.2982 11.1779 2.59334 11.1779 2.95738C11.1779 3.32142 11.4729 3.61656 11.8371 3.61656L11.8371 3.61656Z" transform="translate(8.850037 0)" id="Shape" fill="#000000" fill-rule="evenodd" stroke="none" />
    </g>
  </g>
</svg>