<?xml version="1.0" encoding="utf-8"?>
<svg width="35px" height="19px" viewbox="0 0 35 19" version="1.1" xmlns:xlink="http://www.w3.org/1999/xlink" xmlns="http://www.w3.org/2000/svg">
  <g id="video-call">
    <g id="Group">
      <g id="Group">
        <path d="M32.0833 0L2.91667 0C1.30667 0.0018959 0.0018959 1.30667 0 2.91667L0 15.75C0.00189583 17.36 1.30667 18.6648 2.91667 18.6667L32.0833 18.6667C33.6933 18.6648 34.9981 17.36 35 15.75L35 2.91667C34.9981 1.30667 33.6933 0.0018959 32.0833 0L32.0833 0ZM5.2513 17.5L2.91797 17.5C1.95146 17.5 1.16797 16.7165 1.16797 15.75L1.16797 2.91666C1.16797 1.95015 1.95146 1.16666 2.91797 1.16666L5.2513 1.16666L5.2513 17.5L5.2513 17.5ZM20.4154 17.5L14.582 17.5L14.582 14.5833C14.582 13.6168 15.3655 12.8333 16.332 12.8333L16.9154 12.8333L16.9154 15.1667C16.9154 15.4888 17.1766 15.75 17.4987 15.75C17.8208 15.75 18.082 15.4888 18.082 15.1667L18.082 12.8333L18.6654 12.8333C19.6319 12.8333 20.4154 13.6168 20.4154 14.5833L20.4154 17.5L20.4154 17.5ZM29.168 17.5L21.5846 17.5L21.5846 14.5833C21.5827 12.9733 20.278 11.6686 18.668 11.6667L16.3346 11.6667C14.7246 11.6686 13.4199 12.9733 13.418 14.5833L13.418 17.5L6.41797 17.5L6.41797 1.16666L29.168 1.16666L29.168 17.5L29.168 17.5ZM33.832 15.75C33.832 16.7165 33.0485 17.5 32.082 17.5L30.332 17.5L30.332 1.16666L32.082 1.16666C33.0485 1.16666 33.832 1.95015 33.832 2.91666L33.832 15.75L33.832 15.75Z" id="Shape" fill="#FFFFFF" fill-rule="evenodd" stroke="none" />
      </g>
    </g>
    <g id="Group" transform="translate(2.9179688 5.25)">
      <g id="Group">
        <path d="M0 0L1.16667 0L1.16667 8.16667L0 8.16667L0 0Z" id="Rectangle" fill="#FFFFFF" fill-rule="evenodd" stroke="none" />
      </g>
    </g>
    <g id="Group" transform="translate(31.5 8.1666565)">
      <g id="Group">
        <path d="M0 0L1.16667 0L1.16667 2.33333L0 2.33333L0 0Z" id="Rectangle" fill="#FFFFFF" fill-rule="evenodd" stroke="none" />
      </g>
    </g>
    <g id="Group" transform="translate(13.417969 2.3333435)">
      <g id="Group">
        <path d="M4.08333 0C1.82817 0 0 1.82817 0 4.08333C0 6.3385 1.82817 8.16667 4.08333 8.16667C6.3385 8.16667 8.16667 6.3385 8.16667 4.08333C8.16411 1.82926 6.33741 0.00255235 4.08333 0L4.08333 0ZM4.08463 6.99999C2.47383 6.99999 1.16797 5.69412 1.16797 4.08332C1.16797 2.47252 2.47383 1.16666 4.08463 1.16666C5.69544 1.16666 7.0013 2.47252 7.0013 4.08332C6.99941 5.69332 5.69463 6.99809 4.08463 6.99999L4.08463 6.99999Z" id="Shape" fill="#FFFFFF" fill-rule="evenodd" stroke="none" />
      </g>
    </g>
    <g id="Group" transform="translate(23.332031 2.3333435)">
      <g id="Group">
        <path d="M0 0L2.33333 0L2.33333 1.16667L0 1.16667L0 0Z" id="Rectangle" fill="#006C76" fill-rule="evenodd" stroke="none" />
      </g>
    </g>
    <g id="Group" transform="translate(26.832031 2.3333435)">
      <g id="Group">
        <path d="M0 0L1.16667 0L1.16667 1.16667L0 1.16667L0 0Z" id="Rectangle" fill="#006C76" fill-rule="evenodd" stroke="none" />
      </g>
    </g>
    <g id="Group" transform="translate(16.917969 6.4166565)">
      <g id="Group">
        <path d="M0 0L1.16667 0L1.16667 1.16667L0 1.16667L0 0Z" id="Rectangle" fill="#006C76" fill-rule="evenodd" stroke="none" />
      </g>
    </g>
  </g>
</svg>