<svg width="25" height="24" viewBox="0 0 25 24" fill="none" xmlns="http://www.w3.org/2000/svg">
<g clip-path="url(#clip0)">
<path d="M23.7816 6.37513C23.5363 6.22345 23.2299 6.2096 22.9719 6.33851L17.5191 9.06531V7.08322C17.5191 5.70453 16.4015 4.58689 15.0228 4.58689H3.37328C1.9946 4.58689 0.876953 5.70453 0.876953 7.08322V17.0685C0.876953 18.4472 1.9946 19.5648 3.37328 19.5648H15.0228C16.4015 19.5648 17.5191 18.4472 17.5191 17.0685V15.0864L22.9719 17.8174C23.383 18.0228 23.8828 17.8561 24.0883 17.445C24.1467 17.3282 24.1768 17.1991 24.176 17.0685V7.08322C24.1762 6.79478 24.0269 6.52686 23.7816 6.37513ZM15.8549 17.0685C15.8549 17.5281 15.4824 17.9006 15.0228 17.9006H3.37328C2.9137 17.9006 2.54115 17.5281 2.54115 17.0685V7.08322C2.54115 6.62364 2.9137 6.25109 3.37328 6.25109H15.0228C15.4824 6.25109 15.8549 6.62364 15.8549 7.08322V17.0685ZM22.5118 15.7222L17.5191 13.2259V10.926L22.5118 8.42963V15.7222Z" fill="white"/>
<path d="M9.19759 8.74747C7.35933 8.74747 5.86914 10.2377 5.86914 12.0759C5.86914 13.9142 7.35933 15.4044 9.19759 15.4044C11.0359 15.4044 12.526 13.9142 12.526 12.0759C12.526 10.2377 11.0358 8.74747 9.19759 8.74747ZM9.19759 13.7401C8.27849 13.7401 7.53339 12.995 7.53339 12.0759C7.53339 11.1568 8.27849 10.4117 9.19759 10.4117C10.1167 10.4117 10.8618 11.1568 10.8618 12.0759C10.8618 12.995 10.1167 13.7401 9.19759 13.7401Z" fill="white"/>
</g>
<defs>
<clipPath id="clip0">
<rect width="23.2991" height="23.2991" fill="white" transform="translate(0.876953 0.426369)"/>
</clipPath>
</defs>
</svg>
